<svg width="24" height="24" viewBox="0 0 24 24" fill="none" xmlns="http://www.w3.org/2000/svg">
<g clip-path="url(#clip0_2166_28967)">
<path d="M14.8706 4.94531V9.73769L16.5296 10.7921C16.5895 10.8054 16.6516 10.8054 16.7115 10.7921L23.8446 5.93231C23.8394 5.69646 23.754 5.4696 23.6028 5.28986C23.4516 5.11012 23.2438 4.98846 23.0143 4.94531H14.8706Z" fill="#0072C6"/>
<path d="M14.8707 11.5249L16.3835 12.5749C16.4543 12.6185 16.5356 12.6415 16.6185 12.6415C16.7015 12.6415 16.7828 12.6185 16.8536 12.5749C16.5939 12.7333 23.8439 7.86914 23.8439 7.86914V16.6769C23.8628 16.8554 23.8429 17.0359 23.7856 17.2057C23.7282 17.3756 23.6349 17.5308 23.512 17.6604C23.3891 17.79 23.2396 17.8909 23.0741 17.956C22.9086 18.0212 22.731 18.049 22.5537 18.0375H14.8699V11.5249H14.8707ZM7.03968 9.31552C6.78834 9.31429 6.54136 9.3818 6.32489 9.51089C6.10843 9.63998 5.93056 9.82583 5.81013 10.0488C5.48119 10.6397 5.32336 11.3122 5.35467 11.9895C5.32049 12.6654 5.47853 13.337 5.81013 13.925C5.93006 14.1388 6.10355 14.3169 6.31317 14.4414C6.52279 14.5659 6.76116 14.6325 7.00431 14.6345C7.24747 14.6364 7.48685 14.5737 7.6984 14.4525C7.90995 14.3314 8.08622 14.1561 8.20949 13.9443C8.53747 13.359 8.69225 12.6908 8.65542 12.0193C8.69298 11.3266 8.54332 10.6367 8.22248 10.0234C8.10782 9.80773 7.93705 9.62781 7.7286 9.50306C7.52015 9.3783 7.28194 9.31346 7.03968 9.31552Z" fill="#0072C6"/>
<path d="M-0.135742 2.51063V21.2593L13.9782 24.25V-0.25L-0.135742 2.51063ZM9.30934 15.0546C9.04531 15.4307 8.69425 15.7359 8.28675 15.9435C7.87925 16.151 7.4277 16.2547 6.97145 16.2455C6.52668 16.2535 6.08659 16.1528 5.68859 15.952C5.2906 15.7512 4.94648 15.4563 4.68551 15.0923C4.06656 14.219 3.75694 13.1605 3.80663 12.0875C3.75398 10.9619 4.0692 9.85012 4.70369 8.9235C4.97105 8.54019 5.32762 8.22923 5.74197 8.01805C6.15633 7.80686 6.61573 7.70193 7.07968 7.7125C7.52123 7.70355 7.95819 7.80426 8.35223 8.00579C8.74627 8.20732 9.08533 8.50352 9.33964 8.86837C9.9524 9.76056 10.2568 10.8321 10.2055 11.9169C10.2595 13.0343 9.94424 14.1381 9.30934 15.0546Z" fill="#0072C6"/>
</g>
<defs>
<clipPath id="clip0_2166_28967">
<rect width="24" height="24" fill="white"/>
</clipPath>
</defs>
</svg>
