<svg xmlns="http://www.w3.org/2000/svg" fill="none" viewBox="0 0 12 12">
<path d="M11.2703 9.39464C9.99825 9.8914 8.56782 9.89406 7.29368 9.40205C6.01954 8.91004 5.00607 7.96365 4.47621 6.77109C3.94634 5.57852 3.9435 4.23746 4.4683 3.04293C4.9931 1.8484 6.00256 0.898243 7.2746 0.401487C7.43755 0.328426 7.67134 0.248723 7.83428 0.175662C6.55761 -0.136114 5.20573 -0.0306906 4.00154 0.474548C3.21555 0.770246 2.50026 1.20978 1.89745 1.7675C1.29464 2.32522 0.816386 2.98993 0.490605 3.72284C0.164825 4.45575 -0.00195019 5.24216 1.72055e-05 6.03616C0.0019846 6.83016 0.172655 7.61584 0.502064 8.34732C0.831473 9.0788 1.31302 9.74142 1.91859 10.2965C2.52415 10.8516 3.24161 11.288 4.02906 11.5803C4.81651 11.8726 5.65818 12.0148 6.50492 11.9988C7.35166 11.9827 8.18651 11.8087 8.96073 11.4868C10.262 10.9979 11.3381 10.0949 12 8.93635C11.7767 9.11535 11.5318 9.26917 11.2703 9.39464Z" fill="#1C4E5C"/>
</svg>