<svg xmlns="http://www.w3.org/2000/svg" fill="none" viewBox="0 0 12 12">
    <path d="M5.6 1.6V0.4C5.6 0.293913 5.64214 0.192172 5.71716 0.117157C5.79217 0.0421427 5.89391 0 6 0C6.10609 0 6.20783 0.0421427 6.28284 0.117157C6.35786 0.192172 6.4 0.293913 6.4 0.4V1.6C6.4 1.70609 6.35786 1.80783 6.28284 1.88284C6.20783 1.95786 6.10609 2 6 2C5.89391 2 5.79217 1.95786 5.71716 1.88284C5.64214 1.80783 5.6 1.70609 5.6 1.6ZM6 2.8C5.3671 2.8 4.74841 2.98768 4.22218 3.3393C3.69594 3.69092 3.28579 4.19069 3.04359 4.77541C2.80139 5.36014 2.73801 6.00355 2.86149 6.62429C2.98496 7.24503 3.28973 7.81521 3.73726 8.26274C4.18479 8.71027 4.75497 9.01504 5.37571 9.13851C5.99645 9.26199 6.63986 9.19862 7.22459 8.95641C7.80931 8.71421 8.30908 8.30406 8.6607 7.77782C9.01232 7.25159 9.2 6.6329 9.2 6C9.19907 5.15159 8.86163 4.3382 8.26172 3.73828C7.6618 3.13837 6.84841 2.80093 6 2.8ZM2.517 3.083C2.59206 3.15806 2.69385 3.20022 2.8 3.20022C2.90615 3.20022 3.00794 3.15806 3.083 3.083C3.15806 3.00794 3.20022 2.90615 3.20022 2.8C3.20022 2.69385 3.15806 2.59206 3.083 2.517L2.283 1.717C2.20794 1.64194 2.10615 1.59978 2 1.59978C1.89385 1.59978 1.79206 1.64194 1.717 1.717C1.64194 1.79206 1.59978 1.89385 1.59978 2C1.59978 2.10615 1.64194 2.20794 1.717 2.283L2.517 3.083ZM2.517 8.917L1.717 9.717C1.64194 9.79206 1.59978 9.89385 1.59978 10C1.59978 10.1061 1.64194 10.2079 1.717 10.283C1.79206 10.3581 1.89385 10.4002 2 10.4002C2.10615 10.4002 2.20794 10.3581 2.283 10.283L3.083 9.483C3.12016 9.44584 3.14964 9.40172 3.16976 9.35316C3.18987 9.3046 3.20022 9.25256 3.20022 9.2C3.20022 9.14744 3.18987 9.0954 3.16976 9.04684C3.14964 8.99828 3.12016 8.95416 3.083 8.917C3.04584 8.87984 3.00172 8.85036 2.95316 8.83024C2.9046 8.81013 2.85256 8.79978 2.8 8.79978C2.74744 8.79978 2.6954 8.81013 2.64684 8.83024C2.59828 8.85036 2.55416 8.87984 2.517 8.917ZM9.2 3.2C9.25254 3.20004 9.30458 3.18973 9.35314 3.16965C9.4017 3.14958 9.44583 3.12013 9.483 3.083L10.283 2.283C10.3581 2.20794 10.4002 2.10615 10.4002 2C10.4002 1.89385 10.3581 1.79206 10.283 1.717C10.2079 1.64194 10.1061 1.59978 10 1.59978C9.89385 1.59978 9.79206 1.64194 9.717 1.717L8.917 2.517C8.861 2.57294 8.82285 2.64424 8.80739 2.72188C8.79193 2.79951 8.79985 2.87999 8.83015 2.95312C8.86045 3.02625 8.91177 3.08874 8.97761 3.13269C9.04344 3.17664 9.12084 3.20006 9.2 3.2ZM9.483 8.917C9.40794 8.84194 9.30615 8.79978 9.2 8.79978C9.09385 8.79978 8.99206 8.84194 8.917 8.917C8.84194 8.99206 8.79978 9.09385 8.79978 9.2C8.79978 9.30615 8.84194 9.40794 8.917 9.483L9.717 10.283C9.75416 10.3202 9.79828 10.3496 9.84684 10.3698C9.8954 10.3899 9.94744 10.4002 10 10.4002C10.0526 10.4002 10.1046 10.3899 10.1532 10.3698C10.2017 10.3496 10.2458 10.3202 10.283 10.283C10.3202 10.2458 10.3496 10.2017 10.3698 10.1532C10.3899 10.1046 10.4002 10.0526 10.4002 10C10.4002 9.94744 10.3899 9.8954 10.3698 9.84684C10.3496 9.79828 10.3202 9.75416 10.283 9.717L9.483 8.917ZM2 6C2 5.89391 1.95786 5.79217 1.88284 5.71716C1.80783 5.64214 1.70609 5.6 1.6 5.6H0.4C0.293913 5.6 0.192172 5.64214 0.117157 5.71716C0.0421427 5.79217 0 5.89391 0 6C0 6.10609 0.0421427 6.20783 0.117157 6.28284C0.192172 6.35786 0.293913 6.4 0.4 6.4H1.6C1.70609 6.4 1.80783 6.35786 1.88284 6.28284C1.95786 6.20783 2 6.10609 2 6ZM6 10C5.89391 10 5.79217 10.0421 5.71716 10.1172C5.64214 10.1922 5.6 10.2939 5.6 10.4V11.6C5.6 11.7061 5.64214 11.8078 5.71716 11.8828C5.79217 11.9579 5.89391 12 6 12C6.10609 12 6.20783 11.9579 6.28284 11.8828C6.35786 11.8078 6.4 11.7061 6.4 11.6V10.4C6.4 10.2939 6.35786 10.1922 6.28284 10.1172C6.20783 10.0421 6.10609 10 6 10ZM11.6 5.6H10.4C10.2939 5.6 10.1922 5.64214 10.1172 5.71716C10.0421 5.79217 10 5.89391 10 6C10 6.10609 10.0421 6.20783 10.1172 6.28284C10.1922 6.35786 10.2939 6.4 10.4 6.4H11.6C11.7061 6.4 11.8078 6.35786 11.8828 6.28284C11.9579 6.20783 12 6.10609 12 6C12 5.89391 11.9579 5.79217 11.8828 5.71716C11.8078 5.64214 11.7061 5.6 11.6 5.6Z" fill="white"/>
</svg>