<svg width="64" height="64" viewBox="0 0 64 64" fill="none" xmlns="http://www.w3.org/2000/svg">
<circle cx="32" cy="32" r="32" fill="#1C4E5C"/>
<mask id="mask0_11608_115708" style="mask-type:alpha" maskUnits="userSpaceOnUse" x="0" y="0" width="64" height="64">
<circle cx="32" cy="32" r="31.8393" fill="#1C4E5C" stroke="#1C4E5C" stroke-width="0.321429"/>
</mask>
<g mask="url(#mask0_11608_115708)">
<path fillRule="evenodd" clipRule="evenodd" d="M22.8559 22.1974C23.1433 23.3278 24.1679 24.1639 25.3878 24.1639C26.8305 24.1639 28 22.9944 28 21.5517C28 20.109 26.8305 18.9395 25.3878 18.9395C24.1659 18.9395 23.1399 19.7784 22.8545 20.9117H12.0651H11.7293L11.5375 21.1872L8.54681 25.4831H-5.9691V26.7688H8.88257H9.21833L9.41017 26.4933L12.4008 22.1974H22.8559ZM25.3878 34.6243C24.1679 34.6243 23.1433 33.7881 22.8559 32.6577H12.1158H8.86679H-5.9691V31.372H8.86679H12.1158H22.8545C23.1399 30.2387 24.1659 29.3998 25.3878 29.3998C26.8305 29.3998 28 30.5693 28 32.012C28 33.4547 26.8305 34.6243 25.3878 34.6243ZM22.8559 41.8283C23.1433 40.6979 24.1679 39.8618 25.3878 39.8618C26.8305 39.8618 28 41.0313 28 42.474C28 43.9167 26.8305 45.0863 25.3878 45.0863C24.1659 45.0863 23.1399 44.2473 22.8545 43.1141H12.0651H11.7161L11.526 42.8215L8.53363 38.2161H-5.9691V36.9304H8.88257H9.23151L9.42163 37.223L12.414 41.8283H22.8559Z" fill="#33F8FF"/>
<path fillRule="evenodd" clipRule="evenodd" d="M41.3092 41.8339C41.0231 40.7015 39.9976 39.8634 38.7763 39.8634C37.3336 39.8634 36.1641 41.0329 36.1641 42.4756C36.1641 43.9183 37.3336 45.0879 38.7763 45.0879C39.9968 45.0879 41.0218 44.2509 41.3086 43.1196L52.1332 43.1196L52.473 43.1196L52.6644 42.8389L55.5899 38.5482L69.7956 38.5482L69.7956 37.2625L55.2501 37.2625L54.9104 37.2625L54.719 37.5432L51.7935 41.8339L41.3092 41.8339ZM38.7763 29.4031C39.9962 29.4031 41.0207 30.2392 41.3081 31.3696L52.0876 31.3696L55.2695 31.3696L69.7996 31.3696L69.7996 32.6554L55.2695 32.6554L52.0876 32.6554L41.3096 32.6554C41.0242 33.7886 39.9982 34.6276 38.7763 34.6276C37.3336 34.6276 36.1641 33.458 36.1641 32.0153C36.1641 30.5726 37.3336 29.4031 38.7763 29.4031ZM41.3081 22.199C41.0207 23.3294 39.9962 24.1656 38.7763 24.1656C37.3336 24.1656 36.1641 22.996 36.1641 21.5533C36.1641 20.1106 37.3336 18.9411 38.7763 18.9411C39.9982 18.9411 41.0242 19.78 41.3096 20.9133L52.1372 20.9133L52.4901 20.9133L52.6796 21.211L55.607 25.8112L69.7996 25.8112L69.7996 27.097L55.2541 27.097L54.9012 27.097L54.7117 26.7992L51.7843 22.199L41.3081 22.199Z" fill="#33F8FF"/>
</g>
</svg>
