<svg width="172" height="171" viewBox="0 0 172 171" fill="none" xmlns="http://www.w3.org/2000/svg">
<g filter="url(#filter0_i_1329_371)">
<circle cx="86.1805" cy="85.9766" r="85" fill="#F8FAFA"/>
</g>
<g filter="url(#filter1_i_1329_371)">
<circle cx="86.1805" cy="85.9766" r="85" fill="url(#paint0_radial_1329_371)"/>
</g>
<path opacity="0.1" fill-rule="evenodd" clip-rule="evenodd" d="M85.9774 153.477C123.257 153.477 153.477 123.256 153.477 85.9766C153.477 48.6973 123.257 18.4766 85.9774 18.4766C48.6981 18.4766 18.4774 48.6973 18.4774 85.9766C18.4774 123.256 48.6981 153.477 85.9774 153.477ZM85.9774 170.977C132.922 170.977 170.977 132.921 170.977 85.9766C170.977 39.0324 132.922 0.976562 85.9774 0.976562C39.0332 0.976562 0.977356 39.0324 0.977356 85.9766C0.977356 132.921 39.0332 170.977 85.9774 170.977Z" fill="#2DE1E8"/>
<path fill-rule="evenodd" clip-rule="evenodd" d="M124.638 47.9766H117.669V116.954L124.638 123.91V47.9766Z" fill="#1F9B99"/>
<path fill-rule="evenodd" clip-rule="evenodd" d="M110.699 47.9766H103.73V103.041L110.699 109.997V47.9766Z" fill="#1F9B99"/>
<path fill-rule="evenodd" clip-rule="evenodd" d="M96.7592 47.9766H89.7902V89.129L96.7592 96.0851V47.9766Z" fill="#1F9B99"/>
<path fill-rule="evenodd" clip-rule="evenodd" d="M75.8583 75.5168V123.914H82.8273V82.4729L75.8583 75.5168Z" fill="#2DE1E8"/>
<path fill-rule="evenodd" clip-rule="evenodd" d="M61.9207 61.603V123.915H68.8897V68.5591L61.9207 61.603Z" fill="#2DE1E8"/>
<path fill-rule="evenodd" clip-rule="evenodd" d="M48.2617 47.9766H47.9774V123.913H54.9464V54.6488L48.2617 47.9766Z" fill="#2DE1E8"/>
<g opacity="0.47">
<mask id="path-10-inside-1_1329_371" fill="white">
<path fill-rule="evenodd" clip-rule="evenodd" d="M170.977 85.9766C170.977 39.0324 132.922 0.976562 85.9774 0.976562C39.0331 0.976562 0.977356 39.0324 0.977356 85.9766C0.977356 132.921 39.0331 170.977 85.9774 170.977C132.922 170.977 170.977 132.921 170.977 85.9766ZM2.01458 85.9764L23.1446 59.95L26.6069 26.6053L59.9516 23.1431L85.978 2.01302L112.004 23.1431L145.349 26.6053L148.811 59.95L169.941 85.9764L148.811 112.003L145.349 145.348L112.004 148.81L85.978 169.94L59.9516 148.81L26.6069 145.348L23.1446 112.003L2.01458 85.9764Z"/>
</mask>
<path fill-rule="evenodd" clip-rule="evenodd" d="M170.977 85.9766C170.977 39.0324 132.922 0.976562 85.9774 0.976562C39.0331 0.976562 0.977356 39.0324 0.977356 85.9766C0.977356 132.921 39.0331 170.977 85.9774 170.977C132.922 170.977 170.977 132.921 170.977 85.9766ZM2.01458 85.9764L23.1446 59.95L26.6069 26.6053L59.9516 23.1431L85.978 2.01302L112.004 23.1431L145.349 26.6053L148.811 59.95L169.941 85.9764L148.811 112.003L145.349 145.348L112.004 148.81L85.978 169.94L59.9516 148.81L26.6069 145.348L23.1446 112.003L2.01458 85.9764Z" fill="url(#paint1_linear_1329_371)" fill-opacity="0.5"/>
<path d="M23.1446 59.95L23.921 60.5803L24.1085 60.3493L24.1393 60.0533L23.1446 59.95ZM2.01458 85.9764L1.23823 85.3461L0.726509 85.9764L1.23823 86.6067L2.01458 85.9764ZM26.6069 26.6053L26.5036 25.6107L25.6961 25.6945L25.6122 26.5021L26.6069 26.6053ZM59.9516 23.1431L60.0548 24.1377L60.3508 24.107L60.5819 23.9194L59.9516 23.1431ZM85.978 2.01302L86.6083 1.23666L85.978 0.724945L85.3477 1.23666L85.978 2.01302ZM112.004 23.1431L111.374 23.9194L111.605 24.107L111.901 24.1377L112.004 23.1431ZM145.349 26.6053L146.344 26.5021L146.26 25.6945L145.452 25.6107L145.349 26.6053ZM148.811 59.95L147.817 60.0533L147.847 60.3493L148.035 60.5803L148.811 59.95ZM169.941 85.9764L170.718 86.6067L171.229 85.9764L170.718 85.3461L169.941 85.9764ZM148.811 112.003L148.035 111.373L147.847 111.604L147.817 111.9L148.811 112.003ZM145.349 145.348L145.452 146.342L146.26 146.258L146.344 145.451L145.349 145.348ZM112.004 148.81L111.901 147.815L111.605 147.846L111.374 148.033L112.004 148.81ZM85.978 169.94L85.3477 170.716L85.978 171.228L86.6083 170.716L85.978 169.94ZM59.9516 148.81L60.5819 148.033L60.3508 147.846L60.0548 147.815L59.9516 148.81ZM26.6069 145.348L25.6122 145.451L25.6961 146.258L26.5036 146.342L26.6069 145.348ZM23.1446 112.003L24.1393 111.9L24.1085 111.604L23.921 111.373L23.1446 112.003ZM85.9774 1.97656C132.369 1.97656 169.977 39.5847 169.977 85.9766H171.977C171.977 38.4801 133.474 -0.0234375 85.9774 -0.0234375V1.97656ZM1.97736 85.9766C1.97736 39.5847 39.5854 1.97656 85.9774 1.97656V-0.0234375C38.4809 -0.0234375 -0.022644 38.4801 -0.022644 85.9766H1.97736ZM85.9774 169.977C39.5854 169.977 1.97736 132.368 1.97736 85.9766H-0.022644C-0.022644 133.473 38.4809 171.977 85.9774 171.977V169.977ZM169.977 85.9766C169.977 132.368 132.369 169.977 85.9774 169.977V171.977C133.474 171.977 171.977 133.473 171.977 85.9766H169.977ZM22.3683 59.3197L1.23823 85.3461L2.79093 86.6067L23.921 60.5803L22.3683 59.3197ZM25.6122 26.5021L22.15 59.8467L24.1393 60.0533L27.6015 26.7086L25.6122 26.5021ZM59.8483 22.1484L26.5036 25.6107L26.7102 27.6L60.0548 24.1377L59.8483 22.1484ZM85.3477 1.23666L59.3213 22.3667L60.5819 23.9194L86.6083 2.78937L85.3477 1.23666ZM112.635 22.3667L86.6083 1.23666L85.3477 2.78937L111.374 23.9194L112.635 22.3667ZM145.452 25.6107L112.108 22.1484L111.901 24.1377L145.246 27.6L145.452 25.6107ZM149.806 59.8467L146.344 26.5021L144.354 26.7086L147.817 60.0533L149.806 59.8467ZM170.718 85.3461L149.588 59.3197L148.035 60.5803L169.165 86.6067L170.718 85.3461ZM149.588 112.633L170.718 86.6067L169.165 85.3461L148.035 111.373L149.588 112.633ZM146.344 145.451L149.806 112.106L147.817 111.9L144.354 145.244L146.344 145.451ZM112.108 149.804L145.452 146.342L145.246 144.353L111.901 147.815L112.108 149.804ZM86.6083 170.716L112.635 149.586L111.374 148.033L85.3477 169.163L86.6083 170.716ZM59.3213 149.586L85.3477 170.716L86.6083 169.163L60.5819 148.033L59.3213 149.586ZM26.5036 146.342L59.8483 149.804L60.0548 147.815L26.7102 144.353L26.5036 146.342ZM22.15 112.106L25.6122 145.451L27.6015 145.244L24.1393 111.9L22.15 112.106ZM1.23823 86.6067L22.3683 112.633L23.921 111.373L2.79093 85.3461L1.23823 86.6067Z" fill="white" mask="url(#path-10-inside-1_1329_371)"/>
</g>
<g opacity="0.4">
<mask id="path-12-inside-2_1329_371" fill="white">
<path fill-rule="evenodd" clip-rule="evenodd" d="M166.38 113.55C181.608 69.1443 157.956 20.8015 113.55 5.57322C69.1444 -9.65507 20.8015 13.9978 5.57325 58.4034C-9.65504 102.809 13.9979 151.152 58.4035 166.38C102.809 181.608 151.152 157.956 166.38 113.55ZM6.55443 58.7398L34.9846 40.9752L49.0763 10.5568L81.7409 18.0985L113.214 6.55383L130.979 34.984L161.397 49.0757L153.856 81.7403L165.4 113.214L136.97 130.978L122.878 161.397L90.2138 153.855L58.7404 165.4L40.9757 136.97L10.5574 122.878L18.0991 90.2132L6.55443 58.7398Z"/>
</mask>
<path fill-rule="evenodd" clip-rule="evenodd" d="M166.38 113.55C181.608 69.1443 157.956 20.8015 113.55 5.57322C69.1444 -9.65507 20.8015 13.9978 5.57325 58.4034C-9.65504 102.809 13.9979 151.152 58.4035 166.38C102.809 181.608 151.152 157.956 166.38 113.55ZM6.55443 58.7398L34.9846 40.9752L49.0763 10.5568L81.7409 18.0985L113.214 6.55383L130.979 34.984L161.397 49.0757L153.856 81.7403L165.4 113.214L136.97 130.978L122.878 161.397L90.2138 153.855L58.7404 165.4L40.9757 136.97L10.5574 122.878L18.0991 90.2132L6.55443 58.7398Z" fill="url(#paint2_linear_1329_371)" fill-opacity="0.5"/>
<path d="M34.9846 40.9752L35.5145 41.8232L35.7668 41.6655L35.8919 41.3955L34.9846 40.9752ZM6.55443 58.7398L6.02452 57.8917L5.33601 58.3219L5.61559 59.0841L6.55443 58.7398ZM49.0763 10.5568L49.3013 9.58244L48.5102 9.39981L48.169 10.1365L49.0763 10.5568ZM81.7409 18.0985L81.516 19.0728L81.8059 19.1398L82.0853 19.0373L81.7409 18.0985ZM113.214 6.55383L114.062 6.02393L113.632 5.33542L112.87 5.615L113.214 6.55383ZM130.979 34.984L130.131 35.5139L130.289 35.7662L130.559 35.8913L130.979 34.984ZM161.397 49.0757L162.372 49.3007L162.554 48.5096L161.818 48.1684L161.397 49.0757ZM153.856 81.7403L152.881 81.5154L152.814 81.8053L152.917 82.0847L153.856 81.7403ZM165.4 113.214L165.93 114.062L166.619 113.632L166.339 112.869L165.4 113.214ZM136.97 130.978L136.44 130.13L136.188 130.288L136.063 130.558L136.97 130.978ZM122.878 161.397L122.653 162.371L123.444 162.554L123.786 161.817L122.878 161.397ZM90.2138 153.855L90.4387 152.881L90.1488 152.814L89.8694 152.916L90.2138 153.855ZM58.7404 165.4L57.8923 165.93L58.3225 166.618L59.0847 166.339L58.7404 165.4ZM40.9757 136.97L41.8238 136.44L41.6661 136.187L41.3961 136.062L40.9757 136.97ZM10.5574 122.878L9.58304 122.653L9.40039 123.444L10.1371 123.785L10.5574 122.878ZM18.0991 90.2132L19.0734 90.4381L19.1404 90.1482L19.0379 89.8688L18.0991 90.2132ZM113.226 6.51914C157.109 21.5683 180.483 69.3424 165.434 113.226L167.326 113.874C182.734 68.9463 158.802 20.0347 113.874 4.6273L113.226 6.51914ZM6.51917 58.7278C21.5683 14.8446 69.3424 -8.52999 113.226 6.51914L113.874 4.6273C68.9463 -10.7801 20.0348 13.151 4.62733 58.079L6.51917 58.7278ZM58.7278 165.434C14.8447 150.385 -8.52996 102.611 6.51917 58.7278L4.62733 58.079C-10.7801 103.007 13.151 151.919 58.0791 167.326L58.7278 165.434ZM165.434 113.226C150.385 157.109 102.611 180.483 58.7278 165.434L58.0791 167.326C103.007 182.734 151.919 158.802 167.326 113.874L165.434 113.226ZM34.4547 40.1271L6.02452 57.8917L7.08434 59.5878L35.5145 41.8232L34.4547 40.1271ZM48.169 10.1365L34.0772 40.5548L35.8919 41.3955L49.9837 10.9772L48.169 10.1365ZM81.9659 17.1241L49.3013 9.58244L48.8514 11.5312L81.516 19.0728L81.9659 17.1241ZM112.87 5.615L81.3966 17.1596L82.0853 19.0373L113.559 7.49266L112.87 5.615ZM131.827 34.4541L114.062 6.02393L112.366 7.08374L130.131 35.5139L131.827 34.4541ZM161.818 48.1684L131.399 34.0766L130.559 35.8913L160.977 49.9831L161.818 48.1684ZM154.83 81.9653L162.372 49.3007L160.423 48.8508L152.881 81.5154L154.83 81.9653ZM166.339 112.869L154.794 81.396L152.917 82.0847L164.461 113.558L166.339 112.869ZM137.5 131.826L165.93 114.062L164.87 112.366L136.44 130.13L137.5 131.826ZM123.786 161.817L137.878 131.399L136.063 130.558L121.971 160.976L123.786 161.817ZM89.9888 154.829L122.653 162.371L123.103 160.422L90.4387 152.881L89.9888 154.829ZM59.0847 166.339L90.5581 154.794L89.8694 152.916L58.396 164.461L59.0847 166.339ZM40.1277 137.499L57.8923 165.93L59.5884 164.87L41.8238 136.44L40.1277 137.499ZM10.1371 123.785L40.5554 137.877L41.3961 136.062L10.9778 121.97L10.1371 123.785ZM17.1247 89.9882L9.58304 122.653L11.5318 123.103L19.0734 90.4381L17.1247 89.9882ZM5.61559 59.0841L17.1602 90.5576L19.0379 89.8688L7.49326 58.3954L5.61559 59.0841Z" fill="white" mask="url(#path-12-inside-2_1329_371)"/>
</g>
<defs>
<filter id="filter0_i_1329_371" x="1.18048" y="0.976562" width="170" height="170" filterUnits="userSpaceOnUse" color-interpolation-filters="sRGB">
<feFlood flood-opacity="0" result="BackgroundImageFix"/>
<feBlend mode="normal" in="SourceGraphic" in2="BackgroundImageFix" result="shape"/>
<feColorMatrix in="SourceAlpha" type="matrix" values="0 0 0 0 0 0 0 0 0 0 0 0 0 0 0 0 0 0 127 0" result="hardAlpha"/>
<feMorphology radius="10" operator="dilate" in="SourceAlpha" result="effect1_innerShadow_1329_371"/>
<feOffset/>
<feGaussianBlur stdDeviation="27"/>
<feComposite in2="hardAlpha" operator="arithmetic" k2="-1" k3="1"/>
<feColorMatrix type="matrix" values="0 0 0 0 1 0 0 0 0 1 0 0 0 0 1 0 0 0 1 0"/>
<feBlend mode="normal" in2="shape" result="effect1_innerShadow_1329_371"/>
</filter>
<filter id="filter1_i_1329_371" x="1.18048" y="0.976562" width="170" height="170" filterUnits="userSpaceOnUse" color-interpolation-filters="sRGB">
<feFlood flood-opacity="0" result="BackgroundImageFix"/>
<feBlend mode="normal" in="SourceGraphic" in2="BackgroundImageFix" result="shape"/>
<feColorMatrix in="SourceAlpha" type="matrix" values="0 0 0 0 0 0 0 0 0 0 0 0 0 0 0 0 0 0 127 0" result="hardAlpha"/>
<feMorphology radius="10" operator="dilate" in="SourceAlpha" result="effect1_innerShadow_1329_371"/>
<feOffset/>
<feGaussianBlur stdDeviation="15"/>
<feComposite in2="hardAlpha" operator="arithmetic" k2="-1" k3="1"/>
<feColorMatrix type="matrix" values="0 0 0 0 0.121569 0 0 0 0 0.607843 0 0 0 0 0.6 0 0 0 1 0"/>
<feBlend mode="normal" in2="shape" result="effect1_innerShadow_1329_371"/>
</filter>
<radialGradient id="paint0_radial_1329_371" cx="0" cy="0" r="1" gradientUnits="userSpaceOnUse" gradientTransform="translate(86.1805 85.9766) rotate(90) scale(85)">
<stop offset="0.503789" stop-color="white"/>
<stop offset="0.847559" stop-color="#F6F8F8"/>
</radialGradient>
<linearGradient id="paint1_linear_1329_371" x1="20.4774" y1="20.9766" x2="156.477" y2="146.977" gradientUnits="userSpaceOnUse">
<stop stop-color="#2DE1E8" stop-opacity="0.58"/>
<stop offset="1" stop-color="#1F9B99"/>
</linearGradient>
<linearGradient id="paint2_linear_1329_371" x1="168.726" y1="176.307" x2="-30.0591" y2="-41.5901" gradientUnits="userSpaceOnUse">
<stop stop-color="#2DE1E8"/>
<stop offset="1" stop-color="#1F9B99"/>
</linearGradient>
</defs>
</svg>
