<svg xmlns="http://www.w3.org/2000/svg" fill="none" viewBox="0 0 18 19.63">
<path d="M17.7946 15.7379C17.2122 15.2187 16.7022 14.6234 16.2785 13.9681C15.816 13.0636 15.5387 12.0758 15.4631 11.0628V8.07886C15.4671 6.48762 14.8899 4.94968 13.8399 3.75401C12.7899 2.55834 11.3395 1.78723 9.76107 1.58557V0.806376C9.76107 0.592512 9.67612 0.387407 9.52489 0.236182C9.37367 0.0849573 9.16856 0 8.9547 0C8.74083 0 8.53573 0.0849573 8.3845 0.236182C8.23328 0.387407 8.14832 0.592512 8.14832 0.806376V1.59765C6.58405 1.81385 5.15112 2.58962 4.11495 3.78127C3.07878 4.97293 2.50957 6.49972 2.51275 8.07886V11.0628C2.4371 12.0758 2.15987 13.0636 1.69732 13.9681C1.28107 14.6219 0.779312 15.2171 0.205369 15.7379C0.140938 15.7945 0.0893001 15.8642 0.0538897 15.9423C0.0184793 16.0204 0.000108602 16.1052 0 16.1909V17.0124C0 17.1726 0.0636383 17.3263 0.176915 17.4395C0.290192 17.5528 0.443829 17.6164 0.604027 17.6164H17.396C17.5562 17.6164 17.7098 17.5528 17.8231 17.4395C17.9364 17.3263 18 17.1726 18 17.0124V16.1909C17.9999 16.1052 17.9815 16.0204 17.9461 15.9423C17.9107 15.8642 17.8591 15.7945 17.7946 15.7379ZM1.25638 16.4084C1.81837 15.8655 2.31318 15.2571 2.7302 14.5963C3.31285 13.5039 3.65281 12.2986 3.72685 11.0628V8.07886C3.70289 7.37096 3.82163 6.66548 4.076 6.00443C4.33037 5.34338 4.71516 4.74027 5.20746 4.23103C5.69977 3.72178 6.28951 3.31681 6.94159 3.04023C7.59366 2.76365 8.29472 2.62112 9.00302 2.62112C9.71132 2.62112 10.4124 2.76365 11.0645 3.04023C11.7165 3.31681 12.3063 3.72178 12.7986 4.23103C13.2909 4.74027 13.6757 5.34338 13.93 6.00443C14.1844 6.66548 14.3032 7.37096 14.2792 8.07886V11.0628C14.3532 12.2986 14.6932 13.5039 15.2758 14.5963C15.6929 15.2571 16.1877 15.8655 16.7497 16.4084H1.25638Z" fill="#012E3A"/>
<path d="M9.03041 19.634C9.41091 19.6253 9.77605 19.4822 10.0612 19.2302C10.3464 18.9781 10.5333 18.6334 10.5888 18.2568H7.41162C7.46869 18.6436 7.6643 18.9965 7.96207 19.2498C8.25984 19.5031 8.6395 19.6397 9.03041 19.634V19.634Z" fill="#012E3A"/>
</svg>