<svg width="20" height="20" viewBox="0 0 20 20" fill="none" xmlns="http://www.w3.org/2000/svg">
<path fill-rule="evenodd" clip-rule="evenodd" d="M12.4925 0.373047L10.98 1.80316C10.2646 1.70886 9.5492 1.71078 8.85056 1.80174L7.5184 0.394153L5.22281 1.38424L5.32142 3.1273C4.57096 3.62845 3.89824 4.25536 3.33883 4.9927L1.63212 5.08035L0.708984 7.40367L1.78773 8.5317C1.62007 9.46453 1.61841 10.4023 1.76674 11.3079L0.783694 12.5559L1.77378 14.8515L3.35587 14.9931C3.92056 15.7329 4.61522 16.3833 5.42314 16.9055L5.46989 18.4417L7.79321 19.3649L8.98195 18.1795C9.65895 18.2564 10.3349 18.2476 10.9956 18.1591L12.4397 19.5084L15.0964 18.3626L15.1061 16.3872C15.7465 15.8684 16.3144 15.2491 16.7829 14.5409L18.8315 14.6042L19.7547 12.2809L18.1141 10.8259C18.1906 10.0859 18.1648 9.34794 18.0449 8.63038L19.6799 7.12862L18.6899 4.83303L16.4752 4.99153C16.0448 4.42403 15.5381 3.90875 14.9627 3.46306L14.8397 1.30568L12.4925 0.373047Z" fill="white"/>
<mask id="path-2-inside-1_3171_34662" fill="white">
<path d="M10 4.92542C8.99634 4.92542 8.01522 5.22303 7.18071 5.78064C6.3462 6.33824 5.69578 7.13078 5.3117 8.05804C4.92761 8.9853 4.82712 10.0056 5.02292 10.99C5.21873 11.9744 5.70203 12.8786 6.41173 13.5883C7.12142 14.298 8.02562 14.7813 9.01 14.9771C9.99437 15.1729 11.0147 15.0724 11.942 14.6883C12.8692 14.3042 13.6618 13.6538 14.2194 12.8193C14.777 11.9848 15.0746 11.0037 15.0746 10C15.0746 8.65414 14.5399 7.3634 13.5883 6.41173C12.6366 5.46006 11.3459 4.92542 10 4.92542ZM10 13.9469C9.21938 13.9469 8.45628 13.7154 7.80722 13.2817C7.15816 12.848 6.65227 12.2316 6.35354 11.5104C6.05481 10.7892 5.97665 9.99562 6.12894 9.23C6.28123 8.46437 6.65714 7.7611 7.20912 7.20912C7.7611 6.65714 8.46437 6.28123 9.23 6.12894C9.99562 5.97665 10.7892 6.05481 11.5104 6.35354C12.2316 6.65227 12.848 7.15816 13.2817 7.80722C13.7154 8.45628 13.9469 9.21938 13.9469 10C13.9469 11.0468 13.5311 12.0507 12.7909 12.7909C12.0507 13.5311 11.0468 13.9469 10 13.9469ZM19.886 12.2178L18.4482 10.3007C18.4576 10.094 18.4482 9.85904 18.4482 9.69928L19.886 7.78222C19.938 7.71338 19.9736 7.63353 19.9899 7.54881C20.0061 7.4641 20.0028 7.37677 19.98 7.29355C19.7479 6.44194 19.4068 5.62387 18.9651 4.85963C18.9229 4.78556 18.8648 4.72181 18.7949 4.67304C18.725 4.62427 18.6451 4.59171 18.561 4.57771L16.1929 4.23941C16.0519 4.08905 15.911 3.94809 15.7606 3.80713L15.4223 1.43899C15.41 1.35554 15.3791 1.27591 15.3319 1.20598C15.2848 1.13604 15.2225 1.07758 15.1498 1.0349C14.3806 0.596415 13.5599 0.255482 12.7064 0.019983C12.6232 -0.00278102 12.5359 -0.00614647 12.4512 0.0101456C12.3665 0.0264376 12.2866 0.0619527 12.2178 0.113957L10.3101 1.55176C10.1034 1.54549 9.89663 1.54549 9.68989 1.55176L7.78222 0.113957C7.71338 0.0619527 7.63353 0.0264376 7.54881 0.0101456C7.4641 -0.00614647 7.37677 -0.00278102 7.29355 0.019983C6.44194 0.252105 5.62387 0.593232 4.85963 1.0349C4.78556 1.07706 4.72181 1.13521 4.67304 1.20511C4.62427 1.27501 4.59171 1.35491 4.57771 1.43899L4.23941 3.80713C4.08905 3.94809 3.94809 4.08905 3.80713 4.23941L1.43899 4.57771C1.35554 4.59002 1.27591 4.62089 1.20598 4.66806C1.13604 4.71522 1.07758 4.77748 1.0349 4.85024C0.596415 5.61935 0.255482 6.44012 0.019983 7.29355C-0.00278102 7.37677 -0.00614647 7.4641 0.0101456 7.54881C0.0264376 7.63353 0.0619527 7.71338 0.113957 7.78222L1.55176 9.69928C1.54236 9.90603 1.55176 10.141 1.55176 10.3007L0.113957 12.2178C0.0619527 12.2866 0.0264376 12.3665 0.0101456 12.4512C-0.00614647 12.5359 -0.00278102 12.6232 0.019983 12.7064C0.252105 13.5581 0.593232 14.3761 1.0349 15.1404C1.07539 15.2158 1.13307 15.2806 1.20327 15.3296C1.27347 15.3786 1.35423 15.4103 1.43899 15.4223L3.80713 15.7606L4.23941 16.1929L4.57771 18.561C4.59171 18.6451 4.62427 18.725 4.67304 18.7949C4.72181 18.8648 4.78556 18.9229 4.85963 18.9651C5.62469 19.4051 6.44255 19.7461 7.29355 19.98L7.44391 19.9988C7.56591 19.9988 7.68462 19.9592 7.78222 19.886L9.68989 18.4482H10.3101L12.2178 19.886C12.2866 19.938 12.3665 19.9736 12.4512 19.9899C12.5359 20.0061 12.6232 20.0028 12.7064 19.98C13.5605 19.7462 14.3814 19.4052 15.1498 18.9651C15.2225 18.9224 15.2848 18.864 15.3319 18.794C15.3791 18.7241 15.41 18.6445 15.4223 18.561L15.7606 16.1929C15.911 16.0519 16.0707 15.8828 16.1835 15.7606L18.561 15.4223C18.6445 15.41 18.7241 15.3791 18.794 15.3319C18.864 15.2848 18.9224 15.2225 18.9651 15.1498C19.4036 14.3806 19.7445 13.5599 19.98 12.7064C20.0028 12.6232 20.0061 12.5359 19.9899 12.4512C19.9736 12.3665 19.938 12.2866 19.886 12.2178ZM18.1193 14.3416L15.8358 14.6705C15.7087 14.692 15.5909 14.7509 15.4975 14.8397C15.3847 14.9712 15.037 15.3283 14.8584 15.4881C14.7572 15.5785 14.6907 15.7015 14.6705 15.8358L14.3416 18.1193C13.8097 18.4086 13.2491 18.6416 12.6689 18.8147L10.8176 17.4239C10.7111 17.348 10.5815 17.3115 10.4511 17.3206H9.54893C9.41847 17.3115 9.28891 17.348 9.18243 17.4239L7.33114 18.8147C6.74948 18.6458 6.18844 18.4125 5.65841 18.1193L5.3295 15.8358C5.30928 15.7015 5.2428 15.5785 5.14156 15.4881C4.91782 15.2925 4.70747 15.0822 4.51193 14.8584C4.42147 14.7572 4.29849 14.6907 4.16423 14.6705L1.88066 14.3416C1.59142 13.8097 1.35836 13.2491 1.18526 12.6689L2.57607 10.8176C2.6507 10.7136 2.69021 10.5885 2.68884 10.4605C2.67944 10.2913 2.67004 9.79326 2.67944 9.54893C2.68853 9.41847 2.65199 9.28891 2.57607 9.18243L1.18526 7.33114C1.35423 6.74948 1.58747 6.18844 1.88066 5.65841L4.16423 5.3295C4.29849 5.30928 4.42147 5.2428 4.51193 5.14156C4.70747 4.91782 4.91782 4.70747 5.14156 4.51193C5.2428 4.42147 5.30928 4.29849 5.3295 4.16423L5.65841 1.88066C6.19034 1.59142 6.75094 1.35836 7.33114 1.18526L9.18243 2.57607C9.28891 2.65199 9.41847 2.68853 9.54893 2.67944C9.84964 2.67318 10.1504 2.67318 10.4511 2.67944C10.5815 2.68853 10.7111 2.65199 10.8176 2.57607L12.6689 1.18526C13.2505 1.35423 13.8116 1.58747 14.3416 1.88066L14.6705 4.16423C14.6907 4.29849 14.7572 4.42147 14.8584 4.51193C15.0822 4.70747 15.2925 4.91782 15.4881 5.14156C15.5785 5.2428 15.7015 5.30928 15.8358 5.3295L18.1193 5.65841C18.4086 6.19034 18.6416 6.75094 18.8147 7.33114L17.4239 9.18243C17.3493 9.28643 17.3098 9.41153 17.3112 9.53953C17.3206 9.70868 17.33 10.2067 17.3206 10.4511C17.3115 10.5815 17.348 10.7111 17.4239 10.8176L18.8147 12.6689C18.6458 13.2505 18.4125 13.8116 18.1193 14.3416Z"/>
</mask>
<path d="M10 4.92542C8.99634 4.92542 8.01522 5.22303 7.18071 5.78064C6.3462 6.33824 5.69578 7.13078 5.3117 8.05804C4.92761 8.9853 4.82712 10.0056 5.02292 10.99C5.21873 11.9744 5.70203 12.8786 6.41173 13.5883C7.12142 14.298 8.02562 14.7813 9.01 14.9771C9.99437 15.1729 11.0147 15.0724 11.942 14.6883C12.8692 14.3042 13.6618 13.6538 14.2194 12.8193C14.777 11.9848 15.0746 11.0037 15.0746 10C15.0746 8.65414 14.5399 7.3634 13.5883 6.41173C12.6366 5.46006 11.3459 4.92542 10 4.92542ZM10 13.9469C9.21938 13.9469 8.45628 13.7154 7.80722 13.2817C7.15816 12.848 6.65227 12.2316 6.35354 11.5104C6.05481 10.7892 5.97665 9.99562 6.12894 9.23C6.28123 8.46437 6.65714 7.7611 7.20912 7.20912C7.7611 6.65714 8.46437 6.28123 9.23 6.12894C9.99562 5.97665 10.7892 6.05481 11.5104 6.35354C12.2316 6.65227 12.848 7.15816 13.2817 7.80722C13.7154 8.45628 13.9469 9.21938 13.9469 10C13.9469 11.0468 13.5311 12.0507 12.7909 12.7909C12.0507 13.5311 11.0468 13.9469 10 13.9469ZM19.886 12.2178L18.4482 10.3007C18.4576 10.094 18.4482 9.85904 18.4482 9.69928L19.886 7.78222C19.938 7.71338 19.9736 7.63353 19.9899 7.54881C20.0061 7.4641 20.0028 7.37677 19.98 7.29355C19.7479 6.44194 19.4068 5.62387 18.9651 4.85963C18.9229 4.78556 18.8648 4.72181 18.7949 4.67304C18.725 4.62427 18.6451 4.59171 18.561 4.57771L16.1929 4.23941C16.0519 4.08905 15.911 3.94809 15.7606 3.80713L15.4223 1.43899C15.41 1.35554 15.3791 1.27591 15.3319 1.20598C15.2848 1.13604 15.2225 1.07758 15.1498 1.0349C14.3806 0.596415 13.5599 0.255482 12.7064 0.019983C12.6232 -0.00278102 12.5359 -0.00614647 12.4512 0.0101456C12.3665 0.0264376 12.2866 0.0619527 12.2178 0.113957L10.3101 1.55176C10.1034 1.54549 9.89663 1.54549 9.68989 1.55176L7.78222 0.113957C7.71338 0.0619527 7.63353 0.0264376 7.54881 0.0101456C7.4641 -0.00614647 7.37677 -0.00278102 7.29355 0.019983C6.44194 0.252105 5.62387 0.593232 4.85963 1.0349C4.78556 1.07706 4.72181 1.13521 4.67304 1.20511C4.62427 1.27501 4.59171 1.35491 4.57771 1.43899L4.23941 3.80713C4.08905 3.94809 3.94809 4.08905 3.80713 4.23941L1.43899 4.57771C1.35554 4.59002 1.27591 4.62089 1.20598 4.66806C1.13604 4.71522 1.07758 4.77748 1.0349 4.85024C0.596415 5.61935 0.255482 6.44012 0.019983 7.29355C-0.00278102 7.37677 -0.00614647 7.4641 0.0101456 7.54881C0.0264376 7.63353 0.0619527 7.71338 0.113957 7.78222L1.55176 9.69928C1.54236 9.90603 1.55176 10.141 1.55176 10.3007L0.113957 12.2178C0.0619527 12.2866 0.0264376 12.3665 0.0101456 12.4512C-0.00614647 12.5359 -0.00278102 12.6232 0.019983 12.7064C0.252105 13.5581 0.593232 14.3761 1.0349 15.1404C1.07539 15.2158 1.13307 15.2806 1.20327 15.3296C1.27347 15.3786 1.35423 15.4103 1.43899 15.4223L3.80713 15.7606L4.23941 16.1929L4.57771 18.561C4.59171 18.6451 4.62427 18.725 4.67304 18.7949C4.72181 18.8648 4.78556 18.9229 4.85963 18.9651C5.62469 19.4051 6.44255 19.7461 7.29355 19.98L7.44391 19.9988C7.56591 19.9988 7.68462 19.9592 7.78222 19.886L9.68989 18.4482H10.3101L12.2178 19.886C12.2866 19.938 12.3665 19.9736 12.4512 19.9899C12.5359 20.0061 12.6232 20.0028 12.7064 19.98C13.5605 19.7462 14.3814 19.4052 15.1498 18.9651C15.2225 18.9224 15.2848 18.864 15.3319 18.794C15.3791 18.7241 15.41 18.6445 15.4223 18.561L15.7606 16.1929C15.911 16.0519 16.0707 15.8828 16.1835 15.7606L18.561 15.4223C18.6445 15.41 18.7241 15.3791 18.794 15.3319C18.864 15.2848 18.9224 15.2225 18.9651 15.1498C19.4036 14.3806 19.7445 13.5599 19.98 12.7064C20.0028 12.6232 20.0061 12.5359 19.9899 12.4512C19.9736 12.3665 19.938 12.2866 19.886 12.2178ZM18.1193 14.3416L15.8358 14.6705C15.7087 14.692 15.5909 14.7509 15.4975 14.8397C15.3847 14.9712 15.037 15.3283 14.8584 15.4881C14.7572 15.5785 14.6907 15.7015 14.6705 15.8358L14.3416 18.1193C13.8097 18.4086 13.2491 18.6416 12.6689 18.8147L10.8176 17.4239C10.7111 17.348 10.5815 17.3115 10.4511 17.3206H9.54893C9.41847 17.3115 9.28891 17.348 9.18243 17.4239L7.33114 18.8147C6.74948 18.6458 6.18844 18.4125 5.65841 18.1193L5.3295 15.8358C5.30928 15.7015 5.2428 15.5785 5.14156 15.4881C4.91782 15.2925 4.70747 15.0822 4.51193 14.8584C4.42147 14.7572 4.29849 14.6907 4.16423 14.6705L1.88066 14.3416C1.59142 13.8097 1.35836 13.2491 1.18526 12.6689L2.57607 10.8176C2.6507 10.7136 2.69021 10.5885 2.68884 10.4605C2.67944 10.2913 2.67004 9.79326 2.67944 9.54893C2.68853 9.41847 2.65199 9.28891 2.57607 9.18243L1.18526 7.33114C1.35423 6.74948 1.58747 6.18844 1.88066 5.65841L4.16423 5.3295C4.29849 5.30928 4.42147 5.2428 4.51193 5.14156C4.70747 4.91782 4.91782 4.70747 5.14156 4.51193C5.2428 4.42147 5.30928 4.29849 5.3295 4.16423L5.65841 1.88066C6.19034 1.59142 6.75094 1.35836 7.33114 1.18526L9.18243 2.57607C9.28891 2.65199 9.41847 2.68853 9.54893 2.67944C9.84964 2.67318 10.1504 2.67318 10.4511 2.67944C10.5815 2.68853 10.7111 2.65199 10.8176 2.57607L12.6689 1.18526C13.2505 1.35423 13.8116 1.58747 14.3416 1.88066L14.6705 4.16423C14.6907 4.29849 14.7572 4.42147 14.8584 4.51193C15.0822 4.70747 15.2925 4.91782 15.4881 5.14156C15.5785 5.2428 15.7015 5.30928 15.8358 5.3295L18.1193 5.65841C18.4086 6.19034 18.6416 6.75094 18.8147 7.33114L17.4239 9.18243C17.3493 9.28643 17.3098 9.41153 17.3112 9.53953C17.3206 9.70868 17.33 10.2067 17.3206 10.4511C17.3115 10.5815 17.348 10.7111 17.4239 10.8176L18.8147 12.6689C18.6458 13.2505 18.4125 13.8116 18.1193 14.3416Z" fill="white" stroke="#012920" stroke-width="1.67347" mask="url(#path-2-inside-1_3171_34662)"/>
</svg>
