<?xml version="1.0" encoding="utf-8"?>
<!-- Generator: Adobe Illustrator 26.0.2, SVG Export Plug-In . SVG Version: 6.00 Build 0)  -->
<svg version="1.1" id="Layer_1" xmlns="http://www.w3.org/2000/svg" xmlns:xlink="http://www.w3.org/1999/xlink" x="0px" y="0px"
	 viewBox="0 0 24 24" style="enable-background:new 0 0 24 24;" xml:space="preserve">
<style type="text/css">
	.st0{fill-rule:evenodd;clip-rule:evenodd;fill:#1C4E5C;}
</style>
<path class="st0" d="M4.1,0.8h15.3c0.3,0,0.6,0.1,0.9,0.2c0.2,0.1,0.6,0.3,0.8,0.5c0.2,0.3,0.4,0.5,0.5,0.7c0.1,0.3,0.2,0.6,0.2,0.9
	v20.6l-2.5-2.2l-1.4-1.2L16.3,19l0.6,2.1H4.1c-1.3,0-2.3-1.1-2.3-2.3V3.1c0-0.3,0.1-0.6,0.2-0.9C2,1.9,2.2,1.6,2.4,1.4
	C2.7,1.2,2.9,1,3.2,0.9C3.4,0.8,3.8,0.8,4.1,0.8z M14.3,14.8c0.3,0.4,0.7,0.9,0.7,0.9c2.5-0.1,3.5-1.7,3.5-1.8l0,0
	c0-3.7-1.7-6.7-1.7-6.7c-1.7-1.2-3.2-1.2-3.2-1.2l-0.2,0.2c1.9,0.6,2.8,1.4,2.8,1.4c-1.8-1-3.8-1.3-5.8-1.1c-0.1,0-0.1,0-0.2,0l0,0
	C9.9,6.6,9,6.8,7.8,7.4C7.3,7.5,7.1,7.7,7.1,7.7s0.9-0.9,3-1.5L10,6c0,0-1.6,0-3.2,1.2c0,0-1.7,3-1.7,6.7c0,0,1,1.7,3.5,1.8
	c0,0,0.4-0.5,0.8-0.9c-1.4-0.4-2-1.3-2-1.3s0.1,0.1,0.3,0.2c0,0,0,0,0.1,0c0,0,0,0,0.1,0c0,0,0,0,0.1,0c0.2,0.2,0.6,0.2,0.8,0.4
	c0.6,0.2,1.1,0.4,1.7,0.5c1.6,0.3,3.2,0.2,4.7-0.5c0.4-0.2,0.8-0.3,1.3-0.7C16.3,13.4,15.8,14.4,14.3,14.8z M8.5,11.6
	c0-0.7,0.5-1.2,1.2-1.2s1.2,0.6,1.2,1.2s-0.5,1.2-1.2,1.2C9,12.9,8.5,12.4,8.5,11.6z M12.7,11.6c0-0.7,0.5-1.2,1.2-1.2
	s1.2,0.6,1.2,1.2s-0.5,1.2-1.2,1.2C13.3,12.9,12.7,12.4,12.7,11.6z"/>
</svg>
