<svg width="334" height="243" viewBox="0 0 334 243" fill="none" xmlns="http://www.w3.org/2000/svg">
<g opacity="0.3">
<line x1="1.74846e-08" y1="12.8" x2="334" y2="12.8" stroke="#3B7A8B" stroke-width="0.4"/>
<line x1="1.74846e-08" y1="24.8" x2="334" y2="24.8" stroke="#3B7A8B" stroke-width="0.4"/>
<line x1="1.74846e-08" y1="36.8" x2="334" y2="36.8" stroke="#3B7A8B" stroke-width="0.4"/>
<line x1="1.74846e-08" y1="48.8" x2="334" y2="48.8" stroke="#3B7A8B" stroke-width="0.4"/>
<line x1="1.74846e-08" y1="60.8" x2="334" y2="60.8" stroke="#3B7A8B" stroke-width="0.4"/>
<line x1="1.74846e-08" y1="72.8" x2="334" y2="72.8" stroke="#3B7A8B" stroke-width="0.4"/>
<line x1="1.74846e-08" y1="84.8" x2="334" y2="84.8" stroke="#3B7A8B" stroke-width="0.4"/>
<line x1="1.74846e-08" y1="96.8" x2="334" y2="96.8" stroke="#3B7A8B" stroke-width="0.4"/>
<line x1="1.74846e-08" y1="108.8" x2="334" y2="108.8" stroke="#3B7A8B" stroke-width="0.4"/>
<line x1="1.74846e-08" y1="120.8" x2="334" y2="120.8" stroke="#3B7A8B" stroke-width="0.4"/>
<line x1="1.74846e-08" y1="132.8" x2="334" y2="132.8" stroke="#3B7A8B" stroke-width="0.4"/>
<line x1="1.74846e-08" y1="144.8" x2="334" y2="144.8" stroke="#3B7A8B" stroke-width="0.4"/>
<line x1="1.74846e-08" y1="156.8" x2="334" y2="156.8" stroke="#3B7A8B" stroke-width="0.4"/>
<line x1="1.74846e-08" y1="168.8" x2="334" y2="168.8" stroke="#3B7A8B" stroke-width="0.4"/>
</g>
<g opacity="0.3">
<line x1="11.2" y1="1" x2="11.2" y2="193" stroke="#3B7A8B" stroke-width="0.4"/>
<line x1="23.2" y1="1" x2="23.2" y2="193" stroke="#3B7A8B" stroke-width="0.4"/>
<line x1="35.2" y1="1" x2="35.2" y2="193" stroke="#3B7A8B" stroke-width="0.4"/>
<line x1="47.2" y1="1" x2="47.2" y2="193" stroke="#3B7A8B" stroke-width="0.4"/>
<line x1="59.2" y1="1" x2="59.2" y2="193" stroke="#3B7A8B" stroke-width="0.4"/>
<line x1="71.2" y1="1" x2="71.2" y2="193" stroke="#3B7A8B" stroke-width="0.4"/>
<line x1="83.2" y1="1" x2="83.2" y2="193" stroke="#3B7A8B" stroke-width="0.4"/>
<line x1="95.2" y1="1" x2="95.2" y2="193" stroke="#3B7A8B" stroke-width="0.4"/>
<line x1="107.2" y1="1" x2="107.2" y2="193" stroke="#3B7A8B" stroke-width="0.4"/>
<line x1="119.2" y1="1" x2="119.2" y2="193" stroke="#3B7A8B" stroke-width="0.4"/>
<line x1="131.2" y1="1" x2="131.2" y2="193" stroke="#3B7A8B" stroke-width="0.4"/>
<line x1="143.2" y1="1" x2="143.2" y2="193" stroke="#3B7A8B" stroke-width="0.4"/>
<line x1="155.2" y1="1" x2="155.2" y2="193" stroke="#3B7A8B" stroke-width="0.4"/>
<line x1="167.2" y1="1" x2="167.2" y2="193" stroke="#3B7A8B" stroke-width="0.4"/>
<line x1="179.2" y1="1" x2="179.2" y2="193" stroke="#3B7A8B" stroke-width="0.4"/>
<line x1="191.2" y1="1" x2="191.2" y2="193" stroke="#3B7A8B" stroke-width="0.4"/>
<line x1="203.2" y1="1" x2="203.2" y2="193" stroke="#3B7A8B" stroke-width="0.4"/>
<line x1="215.2" y1="1" x2="215.2" y2="193" stroke="#3B7A8B" stroke-width="0.4"/>
<line x1="227.2" y1="1" x2="227.2" y2="193" stroke="#3B7A8B" stroke-width="0.4"/>
<line x1="239.2" y1="1" x2="239.2" y2="193" stroke="#3B7A8B" stroke-width="0.4"/>
<line x1="251.2" y1="1" x2="251.2" y2="193" stroke="#3B7A8B" stroke-width="0.4"/>
<line x1="263.2" y1="1" x2="263.2" y2="193" stroke="#3B7A8B" stroke-width="0.4"/>
<line x1="275.2" y1="1" x2="275.2" y2="193" stroke="#3B7A8B" stroke-width="0.4"/>
<line x1="287.2" y1="1" x2="287.2" y2="193" stroke="#3B7A8B" stroke-width="0.4"/>
<line x1="299.2" y1="1" x2="299.2" y2="193" stroke="#3B7A8B" stroke-width="0.4"/>
<line x1="311.2" y1="1" x2="311.2" y2="193" stroke="#3B7A8B" stroke-width="0.4"/>
<line x1="323.2" y1="1" x2="323.2" y2="193" stroke="#3B7A8B" stroke-width="0.4"/>
</g>
<circle cx="167" cy="105" r="138" fill="url(#paint0_radial_10837_28948)"/>
<defs>
<radialGradient id="paint0_radial_10837_28948" cx="0" cy="0" r="1" gradientUnits="userSpaceOnUse" gradientTransform="translate(167 105) rotate(90) scale(138)">
<stop stop-color="#33F8FF" stop-opacity="0.3"/>
<stop offset="1" stop-color="#33F8FF" stop-opacity="0"/>
</radialGradient>
</defs>
</svg>
