<svg width="125" height="33" viewBox="0 0 125 33" fill="none" xmlns="http://www.w3.org/2000/svg">
<path d="M18.5 0.5H123C124.105 0.5 125 1.39543 125 2.5V30.5C125 31.6046 124.105 32.5 123 32.5H18.5L22.5 22.5L37 16.5L22.5 10.5L18.5 0.5Z" fill="#33F8FF" fill-opacity="0.15"/>
<path d="M16 5.59091L17.7778 14.7222L26.9091 16.5L17.7778 18.2778L16 27.4091L14.2222 18.2778L5.09091 16.5L14.2222 14.7222L16 5.59091ZM16 0.5L11.6364 12.1364L0 16.5L11.6364 20.8636L16 32.5L20.3636 20.8636L32 16.5L20.3636 12.1364L16 0.5Z" fill="url(#paint0_linear_8247_55005)"/>
<path d="M47.624 21.836H49.472C49.7973 21.836 50.0907 21.8653 50.352 21.924C50.6133 21.9827 50.8373 22.0787 51.024 22.212C51.2107 22.3453 51.3547 22.516 51.456 22.724C51.5573 22.932 51.608 23.1827 51.608 23.476C51.608 23.7907 51.5493 24.0547 51.432 24.268C51.3147 24.4813 51.1547 24.6547 50.952 24.788C50.7547 24.916 50.5227 25.0093 50.256 25.068C49.9893 25.1267 49.7067 25.156 49.408 25.156H48.632V27.5H47.624V21.836ZM49.336 24.308C49.5013 24.308 49.6587 24.2973 49.808 24.276C49.9573 24.2493 50.0907 24.2067 50.208 24.148C50.3253 24.084 50.4187 23.9987 50.488 23.892C50.5573 23.7853 50.592 23.6467 50.592 23.476C50.592 23.3107 50.5573 23.1773 50.488 23.076C50.4187 22.9693 50.3253 22.8867 50.208 22.828C50.096 22.7693 49.9653 22.732 49.816 22.716C49.672 22.6947 49.5227 22.684 49.368 22.684H48.632V24.308H49.336ZM55.5068 21.836H57.4748C57.7415 21.836 58.0001 21.8653 58.2508 21.924C58.5015 21.9773 58.7228 22.068 58.9148 22.196C59.1121 22.324 59.2695 22.492 59.3868 22.7C59.5041 22.908 59.5628 23.1613 59.5628 23.46C59.5628 23.8707 59.4455 24.2067 59.2108 24.468C58.9815 24.724 58.6668 24.8973 58.2668 24.988L59.7788 27.5H58.5628L57.2508 25.1H56.5148V27.5H55.5068V21.836ZM57.3388 24.276C57.4828 24.276 57.6268 24.2653 57.7708 24.244C57.9148 24.2227 58.0428 24.1827 58.1548 24.124C58.2721 24.0653 58.3681 23.9827 58.4428 23.876C58.5175 23.764 58.5548 23.6227 58.5548 23.452C58.5548 23.2973 58.5201 23.172 58.4508 23.076C58.3815 22.9747 58.2935 22.8947 58.1868 22.836C58.0801 22.7773 57.9575 22.7373 57.8188 22.716C57.6855 22.6947 57.5548 22.684 57.4268 22.684H56.5148V24.276H57.3388ZM63.2661 24.652C63.2661 24.1987 63.3407 23.7907 63.4901 23.428C63.6447 23.06 63.8554 22.748 64.1221 22.492C64.3941 22.236 64.7141 22.0387 65.0821 21.9C65.4554 21.7613 65.8607 21.692 66.2981 21.692C66.7407 21.692 67.1487 21.7613 67.5221 21.9C67.8954 22.0387 68.2181 22.236 68.4901 22.492C68.7621 22.748 68.9727 23.06 69.1221 23.428C69.2767 23.7907 69.3541 24.1987 69.3541 24.652C69.3541 25.0947 69.2767 25.5 69.1221 25.868C68.9727 26.2307 68.7621 26.5453 68.4901 26.812C68.2181 27.0733 67.8954 27.2787 67.5221 27.428C67.1487 27.572 66.7407 27.644 66.2981 27.644C65.8607 27.644 65.4554 27.572 65.0821 27.428C64.7141 27.2787 64.3941 27.0733 64.1221 26.812C63.8554 26.5453 63.6447 26.2307 63.4901 25.868C63.3407 25.5 63.2661 25.0947 63.2661 24.652ZM64.3621 24.652C64.3621 24.956 64.4074 25.236 64.4981 25.492C64.5941 25.7427 64.7274 25.9613 64.8981 26.148C65.0741 26.3347 65.2794 26.4813 65.5141 26.588C65.7541 26.6893 66.0181 26.74 66.3061 26.74C66.5941 26.74 66.8581 26.6893 67.0981 26.588C67.3381 26.4813 67.5434 26.3347 67.7141 26.148C67.8901 25.9613 68.0234 25.7427 68.1141 25.492C68.2101 25.236 68.2581 24.956 68.2581 24.652C68.2581 24.3587 68.2101 24.0867 68.1141 23.836C68.0234 23.5853 67.8927 23.3667 67.7221 23.18C67.5514 22.9933 67.3461 22.8467 67.1061 22.74C66.8661 22.6333 66.5994 22.58 66.3061 22.58C66.0127 22.58 65.7461 22.6333 65.5061 22.74C65.2714 22.8467 65.0687 22.9933 64.8981 23.18C64.7274 23.3667 64.5941 23.5853 64.4981 23.836C64.4074 24.0867 64.3621 24.3587 64.3621 24.652ZM78.2871 27.204C77.9991 27.3427 77.6818 27.4493 77.3351 27.524C76.9938 27.604 76.5991 27.644 76.1511 27.644C75.6925 27.644 75.2738 27.572 74.8951 27.428C74.5165 27.2787 74.1911 27.0733 73.9191 26.812C73.6471 26.5453 73.4338 26.2307 73.2791 25.868C73.1298 25.5 73.0551 25.0947 73.0551 24.652C73.0551 24.1987 73.1325 23.7907 73.2871 23.428C73.4471 23.06 73.6631 22.748 73.9351 22.492C74.2125 22.236 74.5378 22.0387 74.9111 21.9C75.2845 21.7613 75.6898 21.692 76.1271 21.692C76.5805 21.692 76.9938 21.7587 77.3671 21.892C77.7458 22.02 78.0498 22.1907 78.2791 22.404L77.5831 23.156C77.4391 22.996 77.2365 22.86 76.9751 22.748C76.7191 22.636 76.4391 22.58 76.1351 22.58C75.8365 22.58 75.5645 22.6333 75.3191 22.74C75.0791 22.8467 74.8738 22.9933 74.7031 23.18C74.5325 23.3667 74.3991 23.5853 74.3031 23.836C74.2125 24.0867 74.1671 24.3587 74.1671 24.652C74.1671 24.956 74.2125 25.236 74.3031 25.492C74.3991 25.7427 74.5325 25.9613 74.7031 26.148C74.8791 26.3347 75.0898 26.4813 75.3351 26.588C75.5858 26.6893 75.8685 26.74 76.1831 26.74C76.6151 26.74 76.9911 26.6733 77.3111 26.54V25.1H76.1191V24.268H78.2871V27.204ZM82.5146 21.836H84.4826C84.7493 21.836 85.008 21.8653 85.2586 21.924C85.5093 21.9773 85.7306 22.068 85.9226 22.196C86.12 22.324 86.2773 22.492 86.3946 22.7C86.512 22.908 86.5706 23.1613 86.5706 23.46C86.5706 23.8707 86.4533 24.2067 86.2186 24.468C85.9893 24.724 85.6746 24.8973 85.2746 24.988L86.7866 27.5H85.5706L84.2586 25.1H83.5226V27.5H82.5146V21.836ZM84.3466 24.276C84.4906 24.276 84.6346 24.2653 84.7786 24.244C84.9226 24.2227 85.0506 24.1827 85.1626 24.124C85.28 24.0653 85.376 23.9827 85.4506 23.876C85.5253 23.764 85.5626 23.6227 85.5626 23.452C85.5626 23.2973 85.528 23.172 85.4586 23.076C85.3893 22.9747 85.3013 22.8947 85.1946 22.836C85.088 22.7773 84.9653 22.7373 84.8266 22.716C84.6933 22.6947 84.5626 22.684 84.4346 22.684H83.5226V24.276H84.3466ZM92.3219 21.836H93.1939L95.6339 27.5H94.4819L93.9539 26.204H91.4979L90.9859 27.5H89.8579L92.3219 21.836ZM93.6019 25.34L92.7299 23.036L91.8419 25.34H93.6019ZM99.1943 21.836H100.77L102.242 25.86H102.266L103.722 21.836H105.306V27.5H104.306V22.948H104.29L102.57 27.5H101.866L100.17 22.948H100.154V27.5H99.1943V21.836Z" fill="#33F8FF"/>
<path d="M42.6 6.004H43.908L47.568 14.5H45.84L45.048 12.556H41.364L40.596 14.5H38.904L42.6 6.004ZM44.52 11.26L43.212 7.804L41.88 11.26H44.52ZM48.9087 6.004H51.8607C52.2607 6.004 52.6487 6.048 53.0247 6.136C53.4007 6.216 53.7327 6.352 54.0207 6.544C54.3167 6.736 54.5527 6.988 54.7287 7.3C54.9047 7.612 54.9927 7.992 54.9927 8.44C54.9927 9.056 54.8167 9.56 54.4647 9.952C54.1207 10.336 53.6487 10.596 53.0487 10.732L55.3167 14.5H53.4927L51.5247 10.9H50.4207V14.5H48.9087V6.004ZM51.6567 9.664C51.8727 9.664 52.0887 9.648 52.3047 9.616C52.5207 9.584 52.7127 9.524 52.8807 9.436C53.0567 9.348 53.2007 9.224 53.3127 9.064C53.4247 8.896 53.4807 8.684 53.4807 8.428C53.4807 8.196 53.4287 8.008 53.3247 7.864C53.2207 7.712 53.0887 7.592 52.9287 7.504C52.7687 7.416 52.5847 7.356 52.3767 7.324C52.1767 7.292 51.9807 7.276 51.7887 7.276H50.4207V9.664H51.6567ZM56.9555 6.004H60.2675C60.5875 6.004 60.9035 6.044 61.2155 6.124C61.5275 6.196 61.8035 6.32 62.0435 6.496C62.2915 6.664 62.4915 6.884 62.6435 7.156C62.7955 7.428 62.8715 7.756 62.8715 8.14C62.8715 8.62 62.7355 9.016 62.4635 9.328C62.1915 9.64 61.8355 9.864 61.3955 10V10.024C61.9315 10.096 62.3715 10.304 62.7155 10.648C63.0595 10.992 63.2315 11.452 63.2315 12.028C63.2315 12.492 63.1395 12.884 62.9555 13.204C62.7715 13.516 62.5275 13.768 62.2235 13.96C61.9275 14.152 61.5835 14.292 61.1915 14.38C60.8075 14.46 60.4155 14.5 60.0155 14.5H56.9555V6.004ZM58.4675 9.46H59.8115C60.3155 9.46 60.6995 9.36 60.9635 9.16C61.2275 8.96 61.3595 8.676 61.3595 8.308C61.3595 7.924 61.2235 7.652 60.9515 7.492C60.6795 7.332 60.2555 7.252 59.6795 7.252H58.4675V9.46ZM58.4675 13.228H59.8235C60.0155 13.228 60.2235 13.216 60.4475 13.192C60.6715 13.16 60.8755 13.1 61.0595 13.012C61.2515 12.924 61.4075 12.796 61.5275 12.628C61.6555 12.46 61.7195 12.236 61.7195 11.956C61.7195 11.508 61.5675 11.196 61.2635 11.02C60.9595 10.844 60.4995 10.756 59.8835 10.756H58.4675V13.228ZM68.7251 6.004H71.4971C71.9851 6.004 72.4251 6.048 72.8171 6.136C73.2091 6.224 73.5451 6.368 73.8251 6.568C74.1051 6.768 74.3211 7.024 74.4731 7.336C74.6251 7.648 74.7011 8.024 74.7011 8.464C74.7011 8.936 74.6131 9.332 74.4371 9.652C74.2611 9.972 74.0211 10.232 73.7171 10.432C73.4211 10.624 73.0731 10.764 72.6731 10.852C72.2731 10.94 71.8491 10.984 71.4011 10.984H70.2371V14.5H68.7251V6.004ZM71.2931 9.712C71.5411 9.712 71.7771 9.696 72.0011 9.664C72.2251 9.624 72.4251 9.56 72.6011 9.472C72.7771 9.376 72.9171 9.248 73.0211 9.088C73.1251 8.928 73.1771 8.72 73.1771 8.464C73.1771 8.216 73.1251 8.016 73.0211 7.864C72.9171 7.704 72.7771 7.58 72.6011 7.492C72.4331 7.404 72.2371 7.348 72.0131 7.324C71.7971 7.292 71.5731 7.276 71.3411 7.276H70.2371V9.712H71.2931ZM76.1413 10.228C76.1413 9.548 76.2533 8.936 76.4773 8.392C76.7093 7.84 77.0253 7.372 77.4253 6.988C77.8333 6.604 78.3133 6.308 78.8653 6.1C79.4253 5.892 80.0333 5.788 80.6893 5.788C81.3533 5.788 81.9653 5.892 82.5253 6.1C83.0853 6.308 83.5693 6.604 83.9773 6.988C84.3853 7.372 84.7013 7.84 84.9253 8.392C85.1573 8.936 85.2733 9.548 85.2733 10.228C85.2733 10.892 85.1573 11.5 84.9253 12.052C84.7013 12.596 84.3853 13.068 83.9773 13.468C83.5693 13.86 83.0853 14.168 82.5253 14.392C81.9653 14.608 81.3533 14.716 80.6893 14.716C80.0333 14.716 79.4253 14.608 78.8653 14.392C78.3133 14.168 77.8333 13.86 77.4253 13.468C77.0253 13.068 76.7093 12.596 76.4773 12.052C76.2533 11.5 76.1413 10.892 76.1413 10.228ZM77.7853 10.228C77.7853 10.684 77.8533 11.104 77.9893 11.488C78.1333 11.864 78.3333 12.192 78.5893 12.472C78.8533 12.752 79.1613 12.972 79.5133 13.132C79.8733 13.284 80.2693 13.36 80.7013 13.36C81.1333 13.36 81.5293 13.284 81.8893 13.132C82.2493 12.972 82.5573 12.752 82.8133 12.472C83.0773 12.192 83.2773 11.864 83.4133 11.488C83.5573 11.104 83.6293 10.684 83.6293 10.228C83.6293 9.788 83.5573 9.38 83.4133 9.004C83.2773 8.628 83.0813 8.3 82.8253 8.02C82.5693 7.74 82.2613 7.52 81.9013 7.36C81.5413 7.2 81.1413 7.12 80.7013 7.12C80.2613 7.12 79.8613 7.2 79.5013 7.36C79.1493 7.52 78.8453 7.74 78.5893 8.02C78.3333 8.3 78.1333 8.628 77.9893 9.004C77.8533 9.38 77.7853 9.788 77.7853 10.228ZM87.2329 6.004H88.7449V14.5H87.2329V6.004ZM91.1196 6.004H93.1236L97.0716 12.364H97.0956V6.004H98.6076V14.5H96.6876L92.6556 7.936H92.6316V14.5H91.1196V6.004ZM102.699 7.324H100.095V6.004H106.815V7.324H104.211V14.5H102.699V7.324ZM112.635 7.78C112.475 7.572 112.247 7.4 111.951 7.264C111.663 7.12 111.371 7.048 111.075 7.048C110.899 7.048 110.723 7.072 110.547 7.12C110.371 7.16 110.211 7.228 110.067 7.324C109.923 7.412 109.803 7.532 109.707 7.684C109.619 7.828 109.575 8.004 109.575 8.212C109.575 8.404 109.615 8.568 109.695 8.704C109.775 8.84 109.883 8.956 110.019 9.052C110.163 9.148 110.335 9.232 110.535 9.304C110.735 9.376 110.955 9.448 111.195 9.52C111.467 9.608 111.747 9.708 112.035 9.82C112.331 9.932 112.599 10.08 112.839 10.264C113.087 10.448 113.287 10.68 113.439 10.96C113.599 11.24 113.679 11.588 113.679 12.004C113.679 12.46 113.595 12.86 113.427 13.204C113.259 13.54 113.035 13.82 112.755 14.044C112.475 14.268 112.147 14.436 111.771 14.548C111.395 14.66 110.999 14.716 110.583 14.716C110.031 14.716 109.491 14.616 108.963 14.416C108.435 14.208 108.003 13.904 107.667 13.504L108.747 12.496C108.955 12.784 109.231 13.012 109.575 13.18C109.927 13.348 110.271 13.432 110.607 13.432C110.783 13.432 110.963 13.412 111.147 13.372C111.331 13.324 111.495 13.248 111.639 13.144C111.791 13.04 111.911 12.912 111.999 12.76C112.095 12.6 112.143 12.404 112.143 12.172C112.143 11.948 112.091 11.764 111.987 11.62C111.883 11.468 111.743 11.34 111.567 11.236C111.391 11.124 111.183 11.028 110.943 10.948C110.703 10.868 110.451 10.784 110.187 10.696C109.931 10.616 109.675 10.52 109.419 10.408C109.163 10.296 108.931 10.148 108.723 9.964C108.523 9.78 108.359 9.556 108.231 9.292C108.103 9.02 108.039 8.684 108.039 8.284C108.039 7.852 108.127 7.48 108.303 7.168C108.487 6.856 108.723 6.6 109.011 6.4C109.307 6.192 109.639 6.04 110.007 5.944C110.383 5.84 110.763 5.788 111.147 5.788C111.579 5.788 112.015 5.864 112.455 6.016C112.903 6.168 113.291 6.396 113.619 6.7L112.635 7.78Z" fill="white"/>
<path fill-rule="evenodd" clip-rule="evenodd" d="M18.6996 1L18.2905 0H122.5C123.882 0 125 1.12289 125 2.50272V30.4973C125 31.8771 123.882 33 122.5 33H18.2905L18.6996 32H122.5C123.328 32 124 31.3266 124 30.4973V2.50272C124 1.67341 123.328 1 122.5 1H18.6996Z" fill="url(#paint1_linear_8247_55005)" fill-opacity="0.75"/>
<defs>
<linearGradient id="paint0_linear_8247_55005" x1="26.9606" y1="5.16142" x2="5.54331" y2="27.4606" gradientUnits="userSpaceOnUse">
<stop offset="0.0870833" stop-color="#62D2C7"/>
<stop offset="0.507814" stop-color="#4BB5ED"/>
<stop offset="0.920169" stop-color="#A975F0"/>
</linearGradient>
<linearGradient id="paint1_linear_8247_55005" x1="71.9487" y1="0" x2="71.9487" y2="33" gradientUnits="userSpaceOnUse">
<stop stop-color="#60CFCC"/>
<stop offset="0.247299" stop-color="#4DB5ED"/>
<stop offset="0.75282" stop-color="#4DB5ED"/>
<stop offset="1" stop-color="#A07CF0"/>
</linearGradient>
</defs>
</svg>
