<svg xmlns="http://www.w3.org/2000/svg" fill="none" viewBox="0 0.01 76 45.97">
<path d="M0.5 9.39541L38 0.513833L75.5 9.39541V36.6046L38 45.4862L0.5 36.6046V9.39541Z" fill="#012E3A" stroke="#33F8FF"/>
<rect x="10" y="26" width="56" height="1" fill="#33F8FF"/>
<path d="M25.6904 32.336H27.8984C28.1117 32.336 28.3224 32.3627 28.5304 32.416C28.7384 32.464 28.9224 32.5467 29.0824 32.664C29.2477 32.776 29.3811 32.9227 29.4824 33.104C29.5837 33.2853 29.6344 33.504 29.6344 33.76C29.6344 34.08 29.5437 34.344 29.3624 34.552C29.1811 34.76 28.9437 34.9093 28.6504 35V35.016C29.0077 35.064 29.3011 35.2027 29.5304 35.432C29.7597 35.6613 29.8744 35.968 29.8744 36.352C29.8744 36.6613 29.8131 36.9227 29.6904 37.136C29.5677 37.344 29.4051 37.512 29.2024 37.64C29.0051 37.768 28.7757 37.8613 28.5144 37.92C28.2584 37.9733 27.9971 38 27.7304 38H25.6904V32.336ZM26.6984 34.64H27.5944C27.9304 34.64 28.1864 34.5733 28.3624 34.44C28.5384 34.3067 28.6264 34.1173 28.6264 33.872C28.6264 33.616 28.5357 33.4347 28.3544 33.328C28.1731 33.2213 27.8904 33.168 27.5064 33.168H26.6984V34.64ZM26.6984 37.152H27.6024C27.7304 37.152 27.8691 37.144 28.0184 37.128C28.1677 37.1067 28.3037 37.0667 28.4264 37.008C28.5544 36.9493 28.6584 36.864 28.7384 36.752C28.8237 36.64 28.8664 36.4907 28.8664 36.304C28.8664 36.0053 28.7651 35.7973 28.5624 35.68C28.3597 35.5627 28.0531 35.504 27.6424 35.504H26.6984V37.152ZM31.8701 32.336H32.8781V37.104H35.2861V38H31.8701V32.336ZM36.956 32.336H37.964V38H36.956V32.336ZM41.3578 33.216H39.6218V32.336H44.1018V33.216H42.3658V38H41.3578V33.216ZM45.323 37.088L48.403 33.216H45.371V32.336H49.603V33.248L46.507 37.104H49.651V38H45.323V37.088Z" fill="#33F8FF"/>
<path d="M13.6808 13.504H15.3728L17.7128 20.044H17.7608L20.1248 13.504H21.7568L18.3488 22H17.0408L13.6808 13.504ZM25.1846 16.996H25.5686C25.7846 16.996 25.9966 16.98 26.2046 16.948C26.4206 16.908 26.6166 16.84 26.7926 16.744C26.9686 16.648 27.1086 16.52 27.2126 16.36C27.3246 16.192 27.3806 15.976 27.3806 15.712C27.3806 15.52 27.3446 15.348 27.2726 15.196C27.2006 15.044 27.1006 14.916 26.9726 14.812C26.8526 14.708 26.7086 14.628 26.5406 14.572C26.3806 14.516 26.2126 14.488 26.0366 14.488C25.6846 14.488 25.3926 14.588 25.1606 14.788C24.9286 14.988 24.7686 15.252 24.6806 15.58L23.3246 15.232C23.3966 14.944 23.5166 14.684 23.6846 14.452C23.8606 14.212 24.0686 14.008 24.3086 13.84C24.5566 13.664 24.8326 13.528 25.1366 13.432C25.4406 13.336 25.7606 13.288 26.0966 13.288C26.4646 13.288 26.8126 13.34 27.1406 13.444C27.4766 13.54 27.7686 13.688 28.0166 13.888C28.2726 14.08 28.4726 14.32 28.6166 14.608C28.7606 14.896 28.8326 15.232 28.8326 15.616C28.8326 16.072 28.6926 16.48 28.4126 16.84C28.1406 17.192 27.7726 17.424 27.3086 17.536V17.56C27.8286 17.664 28.2486 17.9 28.5686 18.268C28.8966 18.628 29.0606 19.072 29.0606 19.6C29.0606 20.04 28.9726 20.424 28.7966 20.752C28.6286 21.08 28.4006 21.352 28.1126 21.568C27.8326 21.784 27.5166 21.944 27.1646 22.048C26.8126 22.16 26.4566 22.216 26.0966 22.216C25.7366 22.216 25.3966 22.176 25.0766 22.096C24.7566 22.024 24.4606 21.908 24.1886 21.748C23.9246 21.588 23.6886 21.38 23.4806 21.124C23.2806 20.868 23.1246 20.564 23.0126 20.212L24.3566 19.792C24.4606 20.128 24.6526 20.412 24.9326 20.644C25.2206 20.876 25.5926 20.992 26.0486 20.992C26.2326 20.992 26.4166 20.968 26.6006 20.92C26.7926 20.864 26.9606 20.78 27.1046 20.668C27.2566 20.556 27.3766 20.412 27.4646 20.236C27.5606 20.06 27.6086 19.844 27.6086 19.588C27.6086 19.316 27.5406 19.088 27.4046 18.904C27.2766 18.712 27.1126 18.564 26.9126 18.46C26.7126 18.348 26.4886 18.268 26.2406 18.22C26.0006 18.172 25.7686 18.148 25.5446 18.148H25.1846V16.996ZM40.2328 15.28C40.0728 15.072 39.8448 14.9 39.5488 14.764C39.2608 14.62 38.9688 14.548 38.6728 14.548C38.4968 14.548 38.3208 14.572 38.1448 14.62C37.9688 14.66 37.8088 14.728 37.6648 14.824C37.5208 14.912 37.4008 15.032 37.3048 15.184C37.2168 15.328 37.1728 15.504 37.1728 15.712C37.1728 15.904 37.2128 16.068 37.2928 16.204C37.3728 16.34 37.4808 16.456 37.6168 16.552C37.7608 16.648 37.9328 16.732 38.1328 16.804C38.3328 16.876 38.5528 16.948 38.7928 17.02C39.0648 17.108 39.3448 17.208 39.6328 17.32C39.9288 17.432 40.1968 17.58 40.4368 17.764C40.6848 17.948 40.8848 18.18 41.0368 18.46C41.1968 18.74 41.2768 19.088 41.2768 19.504C41.2768 19.96 41.1928 20.36 41.0248 20.704C40.8568 21.04 40.6328 21.32 40.3528 21.544C40.0728 21.768 39.7448 21.936 39.3688 22.048C38.9928 22.16 38.5968 22.216 38.1808 22.216C37.6288 22.216 37.0888 22.116 36.5608 21.916C36.0328 21.708 35.6008 21.404 35.2648 21.004L36.3448 19.996C36.5528 20.284 36.8288 20.512 37.1728 20.68C37.5248 20.848 37.8688 20.932 38.2048 20.932C38.3808 20.932 38.5608 20.912 38.7448 20.872C38.9288 20.824 39.0928 20.748 39.2368 20.644C39.3888 20.54 39.5088 20.412 39.5968 20.26C39.6928 20.1 39.7408 19.904 39.7408 19.672C39.7408 19.448 39.6888 19.264 39.5848 19.12C39.4808 18.968 39.3408 18.84 39.1648 18.736C38.9888 18.624 38.7808 18.528 38.5408 18.448C38.3008 18.368 38.0488 18.284 37.7848 18.196C37.5288 18.116 37.2728 18.02 37.0168 17.908C36.7608 17.796 36.5288 17.648 36.3208 17.464C36.1208 17.28 35.9568 17.056 35.8288 16.792C35.7008 16.52 35.6368 16.184 35.6368 15.784C35.6368 15.352 35.7248 14.98 35.9008 14.668C36.0848 14.356 36.3208 14.1 36.6088 13.9C36.9048 13.692 37.2368 13.54 37.6048 13.444C37.9808 13.34 38.3608 13.288 38.7448 13.288C39.1768 13.288 39.6128 13.364 40.0528 13.516C40.5008 13.668 40.8888 13.896 41.2168 14.2L40.2328 15.28ZM45.32 14.824H42.716V13.504H49.436V14.824H46.832V22H45.32V14.824ZM51.4243 13.504H52.9363V22H51.4243V13.504ZM55.811 13.504H58.583C59.071 13.504 59.511 13.548 59.903 13.636C60.295 13.724 60.631 13.868 60.911 14.068C61.191 14.268 61.407 14.524 61.559 14.836C61.711 15.148 61.787 15.524 61.787 15.964C61.787 16.436 61.699 16.832 61.523 17.152C61.347 17.472 61.107 17.732 60.803 17.932C60.507 18.124 60.159 18.264 59.759 18.352C59.359 18.44 58.935 18.484 58.487 18.484H57.323V22H55.811V13.504ZM58.379 17.212C58.627 17.212 58.863 17.196 59.087 17.164C59.311 17.124 59.511 17.06 59.687 16.972C59.863 16.876 60.003 16.748 60.107 16.588C60.211 16.428 60.263 16.22 60.263 15.964C60.263 15.716 60.211 15.516 60.107 15.364C60.003 15.204 59.863 15.08 59.687 14.992C59.519 14.904 59.323 14.848 59.099 14.824C58.883 14.792 58.659 14.776 58.427 14.776H57.323V17.212H58.379Z" fill="white"/>
</svg>