<svg width="11" height="10" viewBox="0 0 11 10" fill="none" xmlns="http://www.w3.org/2000/svg">
<path d="M7.78025 0.664438L7.25 1.19431L8.813 2.75019H5.1875C4.64067 2.75078 4.11642 2.96827 3.72975 3.35494C3.34309 3.7416 3.1256 4.26586 3.125 4.81269C3.125 5.95006 4.0505 6.87519 5.1875 6.87519H5.375V6.12519H5.1875C4.46375 6.12519 3.875 5.53644 3.875 4.81269C3.875 4.08894 4.46375 3.50019 5.1875 3.50019H8.8145L7.253 5.06169L7.78325 5.59194L10.25 3.12519L7.78025 0.664062V0.664438ZM0.875 0.875188V9.12519H9.125V5.37519L8.375 6.12519V8.37519H1.625V1.62519H5.69525L6.44525 0.875188H0.875Z" fill="#1F9B99"/>
</svg>
