<svg xmlns="http://www.w3.org/2000/svg" fill="none" viewBox="0 0 46 46">
<path d="M23 46C35.7025 46 46 35.7025 46 23C46 10.2975 35.7025 0 23 0C10.2975 0 0 10.2975 0 23C0 35.7025 10.2975 46 23 46Z" fill="#ED4C5C"/>
<path d="M15.3333 20.24L21.4667 24.5333L19.1667 17.48L25.3 13.0333H17.71L15.3333 6.13333L13.0333 13.0333H5.36667L11.5 17.48L9.2 24.5333L15.3333 20.24ZM25.53 25.53L23.7667 25.9133L25.4533 26.6033V28.3667L26.6033 27.0633L28.29 27.6767L27.2933 26.22L28.3667 24.84L26.6033 25.2233L25.53 23.7667V25.53ZM28.1367 20.3167L26.8333 21.4667L28.5967 21.3133L29.3633 23L29.67 21.2367L31.4333 21.0833L29.9 20.1633L30.2833 18.4L28.98 19.55L27.4467 18.63L28.1367 20.3167ZM28.5967 14.3367L29.1333 16.1L29.67 14.4133H31.4333L30.0533 13.34L30.59 11.5767L29.1333 12.65L27.7533 11.5L28.29 13.2633L26.8333 14.26L28.5967 14.3367ZM25.53 8.20333V9.96667L26.6033 8.51L28.3667 8.89333L27.2933 7.51333L28.29 6.05667L26.6033 6.74667L25.4533 5.36667V7.13L23.7667 7.82L25.53 8.20333Z" fill="#FFE62E"/>
</svg>