<svg xmlns="http://www.w3.org/2000/svg" fill="none" viewBox="102.92 102.94 455.77 455.79">
<path d="M531.98 330.7H482.56C467.8 330.7 455.84 342.66 455.84 357.42V429.15C455.84 443.91 443.88 455.87 429.12 455.87H232.51C217.75 455.87 205.79 467.83 205.79 482.59V532.01C205.79 546.77 217.75 558.73 232.51 558.73H440.5C455.26 558.73 467.05 546.77 467.05 532.01V492.36C467.05 477.6 479.01 467.13 493.77 467.13H531.97C546.73 467.13 558.69 455.17 558.69 440.41V357.11C558.69 342.35 546.73 330.7 531.97 330.7H531.98Z" fill="#11FF80"/>
<path d="M205.78 232.52C205.78 217.76 217.74 205.8 232.5 205.8H428.99C443.75 205.8 455.71 193.84 455.71 179.08V129.66C455.71 114.9 443.75 102.94 428.99 102.94H221.11C206.35 102.94 194.39 114.9 194.39 129.66V167.74C194.39 182.5 182.43 194.46 167.67 194.46H129.64C114.88 194.46 102.92 206.42 102.92 221.18V304.57C102.92 319.33 114.93 330.69 129.69 330.69H179.11C193.87 330.69 205.83 318.73 205.83 303.97L205.78 232.53V232.52Z" fill="#11FF80"/>
<path d="M307.55 278.75H355.02C370.49 278.75 383.04 291.31 383.04 306.77V354.24C383.04 369.71 370.48 382.26 355.02 382.26H307.55C292.08 382.26 279.53 369.7 279.53 354.24V306.77C279.53 291.3 292.09 278.75 307.55 278.75Z" fill="#11FF80"/>
</svg>