<svg xmlns="http://www.w3.org/2000/svg" fill="none" viewBox="0 0 34 34">
<g clip-path="url(#clip0_13932_17945)">
<path fill-rule="evenodd" clip-rule="evenodd" d="M17 33C25.8366 33 33 25.8366 33 17C33 8.16344 25.8366 1 17 1C8.16344 1 1 8.16344 1 17C1 25.8366 8.16344 33 17 33ZM17 34C26.3888 34 34 26.3888 34 17C34 7.61116 26.3888 0 17 0C7.61116 0 0 7.61116 0 17C0 26.3888 7.61116 34 17 34Z" fill="#33F8FF"/>
<circle cx="17" cy="17" r="16" fill="#2D374B"/>
<path d="M20.0353 15.8661L22.0142 12.5084L27.3479 20.8159L27.3504 22.4102L27.333 11.4394C27.3204 11.1713 27.178 10.9259 26.9508 10.7813L17.3481 5.25765C17.1235 5.14727 16.8386 5.14844 16.6144 5.26107C16.5841 5.27629 16.5556 5.29277 16.5285 5.31074L16.495 5.33182L7.17403 10.7333L7.13782 10.7497C7.09133 10.7711 7.04433 10.7982 7.00018 10.8298C6.82349 10.9566 6.70609 11.144 6.66813 11.3542C6.66244 11.3861 6.65826 11.4185 6.65625 11.4512L6.67088 20.3913L11.639 12.691C12.2645 11.6699 13.6273 11.341 14.8924 11.3589L16.3773 11.3981L7.62859 25.4285L8.65987 26.0223L17.5134 11.4123L21.4267 11.3981L12.596 26.3768L16.2759 28.4934L16.7156 28.7462C16.9016 28.8218 17.1208 28.8256 17.3084 28.7579L27.046 23.1148L25.1843 24.1936L20.0353 15.8661ZM20.7903 26.74L17.0735 20.9065L19.3424 17.0565L24.2237 24.7503L20.7903 26.74Z" fill="#2D374B"/>
<path d="M17.0752 20.9066L20.792 26.7401L24.2255 24.7504L19.3441 17.0566L17.0752 20.9066Z" fill="#28A0F0"/>
<path d="M27.3512 22.41L27.3487 20.8158L22.015 12.5083L20.0361 15.866L25.1851 24.1935L27.0468 23.1147C27.2295 22.9664 27.3399 22.7488 27.3516 22.5139L27.3512 22.41Z" fill="#28A0F0"/>
<path d="M5.00008 23.9138L7.6291 25.4286L16.3778 11.3982L14.8929 11.359C13.6278 11.3411 12.2651 11.67 11.6395 12.6911L6.6714 20.3914L5 22.9595V23.9138H5.00008Z" fill="white"/>
<path d="M21.4259 11.3981L17.5127 11.4123L8.65918 26.0223L11.7537 27.8041L12.5953 26.3768L21.4259 11.3981Z" fill="white"/>
<path d="M29 11.3779C28.9673 10.5595 28.5242 9.81031 27.8301 9.37415L18.1015 3.77954C17.4149 3.43377 16.5571 3.43335 15.8695 3.77928C15.7882 3.82026 6.40858 9.26009 6.40858 9.26009C6.2788 9.3223 6.15379 9.39647 6.03614 9.48059C5.41651 9.9247 5.0388 10.6147 5 11.3729V22.9594L6.6714 20.3914L6.65677 11.4513C6.65877 11.4186 6.66287 11.3865 6.66864 11.3547C6.70635 11.1443 6.82384 10.9567 7.0007 10.8299C7.04485 10.7983 16.5846 5.27634 16.6149 5.26112C16.8392 5.14848 17.1241 5.14731 17.3486 5.25769L26.9513 10.7813C27.1785 10.926 27.3209 11.1713 27.3335 11.4395V22.5141C27.3219 22.7489 27.2291 22.9665 27.0465 23.1149L25.1847 24.1937L24.2242 24.7503L20.7908 26.7401L17.3088 28.758C17.1212 28.8257 16.902 28.8219 16.716 28.7463L12.5964 26.3768L11.7548 27.804L15.457 29.9356C15.5795 30.0052 15.6886 30.0669 15.7781 30.1172C15.9167 30.195 16.0111 30.2469 16.0445 30.2631C16.3076 30.3908 16.6862 30.4653 17.0273 30.4653C17.3402 30.4653 17.6451 30.4078 17.9338 30.2948L28.0472 24.4377C28.6277 23.988 28.9692 23.3098 29 22.575V11.3779Z" fill="#96BEDC"/>
</g>
<defs>
<clipPath id="clip0_13932_17945">
<rect width="34" height="34" rx="17" fill="white"/>
</clipPath>
</defs>
</svg>