<svg width="24" height="24" viewBox="0 0 24 24" fill="none" xmlns="http://www.w3.org/2000/svg">
<path d="M14.7825 10.996L16.5964 8.00534L21.4857 15.4048L21.488 16.8248L21.472 7.05319C21.4604 6.81433 21.3299 6.5958 21.1216 6.46695L12.3192 1.54709C12.1133 1.44878 11.8521 1.44982 11.6466 1.55015C11.6189 1.5637 11.5927 1.57837 11.5678 1.59439L11.5372 1.61316L2.99294 6.4242L2.95975 6.4388C2.91713 6.45787 2.87405 6.48207 2.83358 6.51023C2.67161 6.62314 2.564 6.79005 2.5292 6.97729C2.52398 7.00567 2.52015 7.03457 2.51831 7.06369L2.53172 15.0266L7.08584 8.16793C7.6592 7.25845 8.90847 6.96552 10.0681 6.98146L11.4292 7.01639L3.40962 19.5132L4.35497 20.0421L12.4707 7.02906L16.0579 7.01639L7.96305 20.3578L11.3363 22.243L11.7394 22.4683C11.9098 22.5356 12.1108 22.539 12.2828 22.4787L21.2089 17.4524L19.5024 18.4133L14.7825 10.996ZM15.4745 20.6813L12.0674 15.4855L14.1472 12.0562L18.6218 18.9091L15.4745 20.6813Z" fill="#2D374B"/>
<path d="M12.0688 15.4859L15.4759 20.6817L18.6233 18.9095L14.1487 12.0566L12.0688 15.4859Z" fill="#28A0F0"/>
<path d="M21.4889 16.8248L21.4867 15.4048L16.5974 8.00537L14.7834 10.996L19.5034 18.4133L21.2099 17.4524C21.3773 17.3204 21.4786 17.1265 21.4893 16.9173L21.4889 16.8248Z" fill="#28A0F0"/>
<path d="M1.00008 18.164L3.41001 19.5133L11.4296 7.0165L10.0685 6.98157C8.90886 6.96563 7.65967 7.25856 7.08623 8.16804L2.53212 15.0267L1 17.3141V18.164H1.00008Z" fill="white"/>
<path d="M16.0566 7.0166L12.4695 7.02926L4.35376 20.0423L7.19042 21.6293L7.96184 20.358L16.0566 7.0166Z" fill="white"/>
<path d="M23 6.99901C22.97 6.27007 22.5639 5.60273 21.9276 5.21424L13.0097 0.231149C12.3803 -0.0768261 11.5941 -0.0771987 10.9637 0.230926C10.8892 0.267421 2.2912 5.11265 2.2912 5.11265C2.17224 5.16807 2.05764 5.23413 1.94979 5.30906C1.3818 5.70462 1.03557 6.31923 1 6.99454V17.3146L2.53212 15.0272L2.5187 7.06433C2.52054 7.03521 2.5243 7.00661 2.52959 6.97831C2.56416 6.79091 2.67185 6.62378 2.83397 6.51087C2.87444 6.48272 11.6192 1.56434 11.647 1.55079C11.8526 1.45046 12.1138 1.44942 12.3196 1.54773L21.122 6.4676C21.3303 6.59645 21.4608 6.81497 21.4724 7.05383V16.9179C21.4618 17.1271 21.3767 17.3209 21.2093 17.453L19.5027 18.4139L18.6222 18.9097L15.4749 20.682L12.2831 22.4793C12.1111 22.5397 11.9102 22.5363 11.7397 22.4689L7.96336 20.3584L7.19194 21.6297L10.5856 23.5282C10.6978 23.5902 10.7979 23.6452 10.8799 23.69C11.007 23.7593 11.0935 23.8055 11.1241 23.8199C11.3653 23.9337 11.7123 24 12.0251 24C12.3118 24 12.5914 23.9488 12.856 23.8481L22.1266 18.6313C22.6587 18.2308 22.9718 17.6267 23 16.9722V6.99901Z" fill="#96BEDC"/>
</svg>
