<svg xmlns="http://www.w3.org/2000/svg" fill="none" viewBox="0 0 36 36">
<circle cx="18" cy="18" r="18" fill="#2D374B"/>
<path d="M21.5225 16.8416L23.7415 13.0766L29.7218 22.3913L29.7248 24.1786L29.7052 11.8776C29.6982 11.7292 29.6557 11.5847 29.5812 11.4562C29.5066 11.3276 29.4022 11.219 29.2768 11.1393L18.5092 4.94628C18.3805 4.88518 18.2398 4.85381 18.0974 4.8545C17.955 4.8552 17.8145 4.88793 17.6865 4.95028C17.6532 4.96695 17.6212 4.98562 17.5898 5.00595L17.5525 5.02962L7.10117 11.0863L7.06051 11.1043C6.9074 11.1738 6.77618 11.2838 6.68102 11.4225C6.58585 11.5611 6.53035 11.7231 6.52051 11.8909L6.53684 21.9153L12.1075 13.2813C12.8088 12.1363 14.3368 11.7676 15.7552 11.7876L17.4198 11.8306L7.61051 27.5623L8.76684 28.2279L18.6942 11.8463L23.0818 11.8303L13.1805 28.6249L17.3072 30.9999L17.8005 31.2836C18.0132 31.368 18.2493 31.3726 18.4652 31.2966L29.3835 24.9693L27.2948 26.1789L21.5225 16.8416ZM22.3692 29.0336L18.2018 22.4929L20.7455 18.1763L26.2188 26.8029L22.3692 29.0336Z" fill="#2D374B"/>
<path d="M18.208 22.4945L22.3753 29.0351L26.2253 26.8041L20.752 18.1775L18.208 22.4945ZM29.7317 24.1801L29.7287 22.3935L23.7487 13.0781L21.5287 16.8425L27.302 26.1795L29.3903 24.9698C29.4914 24.8879 29.5741 24.7856 29.6329 24.6695C29.6918 24.5535 29.7256 24.4264 29.732 24.2965L29.7317 24.1801Z" fill="#28A0F0"/>
<path d="M4.66699 25.8688L7.61499 27.5674L17.4243 11.8358L15.7597 11.7928C14.3413 11.7728 12.813 12.1414 12.112 13.2861L6.54133 21.9208L4.66799 24.8001V25.8701L4.66699 25.8688ZM23.086 11.8358L18.6983 11.8514L8.77133 28.2331L12.2413 30.2311L13.1847 28.6304L23.086 11.8358Z" fill="white"/>
<path d="M31.5783 11.8108C31.558 11.3581 31.428 10.917 31.1995 10.5257C30.9709 10.1343 30.6507 9.80432 30.2663 9.56417L19.358 3.29084C18.9686 3.0995 18.5405 3 18.1067 3C17.6728 3 17.2447 3.0995 16.8553 3.29084C16.7643 3.33684 6.24733 9.43651 6.24733 9.43651C6.10133 9.50651 5.96166 9.58951 5.82966 9.68351C5.48813 9.92638 5.20608 10.2435 5.0047 10.611C4.80333 10.9786 4.68787 11.3869 4.66699 11.8055V24.7968L6.54033 21.9175L6.52566 11.8938C6.5344 11.7564 6.57353 11.6226 6.64022 11.5022C6.70691 11.3817 6.79951 11.2775 6.91133 11.1972C6.96099 11.1615 17.6573 4.97017 17.6913 4.95317C17.8194 4.89082 17.9598 4.85809 18.1022 4.8574C18.2446 4.8567 18.3854 4.88807 18.514 4.94917L29.2813 11.1425C29.4067 11.2222 29.5111 11.3309 29.5856 11.4594C29.6602 11.5879 29.7027 11.7324 29.7097 11.8808V24.2982C29.7071 24.4269 29.677 24.5536 29.6215 24.6698C29.5659 24.786 29.4862 24.889 29.3877 24.9718L27.2993 26.1815L26.2227 26.8058L22.3727 29.0368L18.4687 31.2995C18.2528 31.3758 18.0167 31.3712 17.804 31.2865L13.185 28.6298L12.2417 30.2298L16.3927 32.6198C16.53 32.6978 16.6523 32.7672 16.7527 32.8235C16.908 32.9098 17.014 32.9688 17.0513 32.9872C17.3987 33.1392 17.7742 33.2165 18.1533 33.2138C18.5011 33.2143 18.8459 33.1494 19.1697 33.0225L30.5093 26.4558C30.8293 26.207 31.0907 25.891 31.2753 25.5301C31.4599 25.1692 31.5631 24.7723 31.5777 24.3672L31.5783 11.8108Z" fill="#96BEDC"/>
</svg>