<svg width="24" height="24" viewBox="0 0 24 24" fill="none" xmlns="http://www.w3.org/2000/svg">
<circle cx="12" cy="12" r="12" transform="rotate(-90 12 12)" fill="url(#paint0_radial_14959_15326)"/>
<path d="M19.0954 11.1854C18.9161 11.1497 18.7292 11.1153 18.5353 11.0824C18.4799 10.6674 18.383 10.265 18.2488 9.87931C20.7696 10.2566 22.3996 10.8564 22.3996 11.5319C22.3996 11.5395 22.3994 11.547 22.399 11.5545C22.3389 12.686 17.706 13.5995 11.9996 13.5995C6.25583 13.5995 1.59961 12.674 1.59961 11.5322C1.59961 11.5252 1.59978 11.5182 1.60013 11.5112C1.63353 10.8363 3.29387 10.2388 5.83891 9.86621C5.70388 10.2515 5.60616 10.6534 5.54983 11.0679C5.32503 11.1053 5.10951 11.1445 4.90378 11.1854C4.6343 11.2389 4.38767 11.2943 4.16396 11.3504V11.3507C3.9253 11.4106 3.71271 11.4714 3.52619 11.5321C3.88755 11.6496 4.3468 11.7678 4.90378 11.8785C5.0925 11.9161 5.28945 11.9521 5.49425 11.9867V11.987C7.21534 12.2774 9.48666 12.4589 11.9996 12.4589C14.5537 12.4589 16.8582 12.2714 18.5891 11.9726V11.9723C18.7638 11.9421 18.9327 11.9109 19.0954 11.8785C19.6527 11.7678 20.112 11.6495 20.4735 11.5319C20.112 11.4144 19.6527 11.2961 19.0954 11.1854Z" fill="white"/>
<path d="M19.7319 7.65125C19.7322 7.6455 19.7323 7.6397 19.7323 7.6339C19.7323 6.97792 18.0036 6.40974 15.4824 6.13281C16.0824 6.53355 16.6155 7.03467 17.0602 7.61358C17.0928 7.6203 17.1252 7.62707 17.1573 7.6339C17.134 7.63884 17.1105 7.64377 17.0869 7.64865L17.0871 7.64892C15.8026 7.91512 14.0101 8.08765 11.9989 8.08765C9.98289 8.08765 8.18656 7.91425 6.90135 7.64697L6.90157 7.6467C6.88113 7.64247 6.86085 7.63819 6.84068 7.6339C6.86849 7.62794 6.89651 7.62209 6.9248 7.61629C7.36934 7.03695 7.90241 6.53539 8.50244 6.13422C5.98834 6.4117 4.26564 6.97906 4.26564 7.6339V7.63412C4.26564 8.45353 8.00966 9.10486 10.5332 9.28492C11.0978 9.3252 11.982 9.32802 11.982 9.32802C12.2941 9.34168 12.8625 9.32563 13.4249 9.28655C15.9621 9.11022 19.6946 8.46611 19.7319 7.65125Z" fill="white"/>
<path d="M4.26562 15.9447C4.26562 15.455 5.00356 15.0081 6.21831 14.6687C6.41216 15.1164 6.64118 15.5386 6.90096 15.9302C6.88074 15.9351 6.86068 15.9399 6.84067 15.9447C6.86821 15.9514 6.89596 15.9581 6.92398 15.9647C6.92581 15.9674 6.92764 15.9701 6.92947 15.9729H6.95717C8.23834 16.2708 10.0119 16.4633 11.9989 16.4633C13.986 16.4633 15.7596 16.2708 17.0407 15.9729H17.0575C17.0587 15.9712 17.0598 15.9695 17.0609 15.9678C17.0934 15.9602 17.1255 15.9525 17.1572 15.9447C17.1342 15.9392 17.1109 15.9335 17.0875 15.928C17.3472 15.5363 17.5761 15.1138 17.7698 14.666C18.9904 15.0057 19.7323 15.4537 19.7323 15.9447C19.7323 15.9542 19.732 15.9635 19.7315 15.9729C19.6718 17.0209 16.2327 17.866 11.9989 17.866C7.76519 17.866 4.32609 17.0209 4.2664 15.9729C4.26586 15.9635 4.26562 15.9542 4.26562 15.9447Z" fill="white"/>
<defs>
<radialGradient id="paint0_radial_14959_15326" cx="0" cy="0" r="1" gradientUnits="userSpaceOnUse" gradientTransform="translate(17.8435 6.88695) rotate(128.759) scale(16.1087 14.5366)">
<stop stop-color="#9C4ED6"/>
<stop offset="1" stop-color="#4E18B3"/>
</radialGradient>
</defs>
</svg>
