<svg width="24" height="24" viewBox="0 0 24 24" fill="none" xmlns="http://www.w3.org/2000/svg">
<g clip-path="url(#clip0_14959_15317)">
<mask id="mask0_14959_15317" style="mask-type:luminance" maskUnits="userSpaceOnUse" x="0" y="0" width="24" height="24">
<path d="M24 12C24 5.37258 18.6274 0 12 0C5.37258 0 0 5.37258 0 12C0 18.6274 5.37258 24 12 24C18.6274 24 24 18.6274 24 12Z" fill="white"/>
</mask>
<g mask="url(#mask0_14959_15317)">
<path d="M24 12C24 5.37258 18.6274 0 12 0C5.37258 0 0 5.37258 0 12C0 18.6274 5.37258 24 12 24C18.6274 24 24 18.6274 24 12Z" fill="white"/>
<path fill-rule="evenodd" clip-rule="evenodd" d="M15.7538 13.2342C19.0117 13.7193 21.2848 14.8162 21.2848 16.0918C21.2848 17.8167 17.1278 19.2152 11.9998 19.2152C6.87183 19.2152 2.71484 17.8167 2.71484 16.0918C2.71484 14.8162 4.9879 13.7193 8.24575 13.2342C9.3648 13.4633 10.6428 13.5931 11.9998 13.5931C13.3228 13.5931 14.5707 13.4698 15.6695 13.2515L15.7538 13.2342ZM14.3497 8.09863C17.3004 8.4295 19.4277 9.36598 19.4277 10.4698C19.4277 11.8497 16.1022 12.9685 11.9998 12.9685C7.89744 12.9685 4.57184 11.8497 4.57184 10.4698C4.57184 9.36608 6.69918 8.4294 9.64987 8.09873C10.3726 8.21771 11.1666 8.28339 11.9998 8.28339C12.8038 8.28339 13.5714 8.22218 14.2736 8.11101L14.3497 8.09863Z" fill="black"/>
<path d="M11.9988 7.78315C15.0778 7.78315 17.5738 6.94412 17.5738 5.90914C17.5738 4.87418 15.0778 4.03516 11.9988 4.03516C8.91984 4.03516 6.42383 4.87418 6.42383 5.90914C6.42383 6.94412 8.91984 7.78315 11.9988 7.78315Z" fill="black"/>
</g>
</g>
<defs>
<clipPath id="clip0_14959_15317">
<rect width="24" height="24" fill="white"/>
</clipPath>
</defs>
</svg>
