<svg width="24" height="24" viewBox="0 0 24 24" fill="none" xmlns="http://www.w3.org/2000/svg">
<g clip-path="url(#clip0_13002_116634)">
<mask id="mask0_13002_116634" style="mask-type:luminance" maskUnits="userSpaceOnUse" x="0" y="0" width="24" height="24">
<path d="M24 12C24 5.37258 18.6274 0 12 0C5.37258 0 0 5.37258 0 12C0 18.6274 5.37258 24 12 24C18.6274 24 24 18.6274 24 12Z" fill="white"/>
</mask>
<g mask="url(#mask0_13002_116634)">
<path d="M24 12C24 5.37258 18.6274 0 12 0C5.37258 0 0 5.37258 0 12C0 18.6274 5.37258 24 12 24C18.6274 24 24 18.6274 24 12Z" fill="black"/>
<path fill-rule="evenodd" clip-rule="evenodd" d="M15.754 13.2342C19.0118 13.7193 21.285 14.8162 21.285 16.0918C21.285 17.8167 17.1279 19.2152 11.9999 19.2152C6.87195 19.2152 2.71497 17.8167 2.71497 16.0918C2.71497 14.8162 4.98803 13.7193 8.24587 13.2342C9.36492 13.4633 10.6429 13.5931 11.9999 13.5931C13.3229 13.5931 14.5708 13.4698 15.6696 13.2515L15.754 13.2342ZM14.3499 8.09863C17.3006 8.4295 19.4279 9.36598 19.4279 10.4698C19.4279 11.8497 16.1023 12.9685 11.9999 12.9685C7.89756 12.9685 4.57196 11.8497 4.57196 10.4698C4.57196 9.36608 6.6993 8.4294 9.64999 8.09873C10.3727 8.21771 11.1667 8.28339 11.9999 8.28339C12.8039 8.28339 13.5715 8.22218 14.2737 8.11101L14.3499 8.09863Z" fill="white"/>
<path d="M11.9988 7.78315C15.0778 7.78315 17.5738 6.94412 17.5738 5.90914C17.5738 4.87418 15.0778 4.03516 11.9988 4.03516C8.91984 4.03516 6.42383 4.87418 6.42383 5.90914C6.42383 6.94412 8.91984 7.78315 11.9988 7.78315Z" fill="white"/>
</g>
</g>
<defs>
<clipPath id="clip0_13002_116634">
<rect width="24" height="24" fill="white"/>
</clipPath>
</defs>
</svg>
