<svg xmlns="http://www.w3.org/2000/svg" fill="none" viewBox="0 0 34 34">
<g clip-path="url(#clip0_13932_17873)">
<path fill-rule="evenodd" clip-rule="evenodd" d="M17 33C25.8366 33 33 25.8366 33 17C33 8.16344 25.8366 1 17 1C8.16344 1 1 8.16344 1 17C1 25.8366 8.16344 33 17 33ZM17 34C26.3888 34 34 26.3888 34 17C34 7.61116 26.3888 0 17 0C7.61116 0 0 7.61116 0 17C0 26.3888 7.61116 34 17 34Z" fill="#33F8FF"/>
<path d="M31.8844 16.9203C31.8844 25.1853 25.1843 31.8854 16.9193 31.8854C8.65423 31.8854 1.9541 25.1853 1.9541 16.9203C1.9541 8.65521 8.65424 1.95508 16.9193 1.95508C25.1843 1.95508 31.8844 8.65522 31.8844 16.9203Z" fill="white"/>
<path fill-rule="evenodd" clip-rule="evenodd" d="M17 31.8C25.1738 31.8 31.8 25.1738 31.8 17C31.8 8.82619 25.1738 2.2 17 2.2C8.82618 2.2 2.2 8.82618 2.2 17C2.2 25.1738 8.82618 31.8 17 31.8ZM17 33C25.8365 33 33 25.8366 33 17C33 8.16345 25.8366 1 17 1C8.16344 1 0.999999 8.16344 0.999997 17C0.999996 25.8366 8.16344 33 17 33Z" fill="#0052FF"/>
<g clip-path="url(#clip1_13932_17873)">
<path d="M16.9945 5L16.832 5.54676V21.4126L16.9945 21.5731L24.4323 17.2199L16.9945 5Z" fill="#6697FF"/>
<path d="M16.9944 5L9.55664 17.2199L16.9944 21.5732V13.8724V5Z" fill="#0052FF"/>
<path d="M16.9949 22.9677L16.9033 23.0782V28.7299L16.9949 28.9947L24.4371 18.6166L16.9949 22.9677Z" fill="#6697FF"/>
<path d="M16.9944 28.9946V22.9675L9.55664 18.6165L16.9944 28.9946Z" fill="#0052FF"/>
<path d="M16.9941 21.5732L24.4318 17.22L16.9941 13.8725V21.5732Z" fill="#CCDCFF"/>
<path d="M9.55664 17.22L16.9943 21.5732V13.8725L9.55664 17.22Z" fill="#6697FF"/>
</g>
</g>
<defs>
<clipPath id="clip0_13932_17873">
<rect width="34" height="34" rx="17" fill="white"/>
</clipPath>
<clipPath id="clip1_13932_17873">
<rect width="14.88" height="24" fill="white" transform="translate(9.55957 5)"/>
</clipPath>
</defs>
</svg>