<svg xmlns="http://www.w3.org/2000/svg" fill="none" viewBox="0 0 24 24">
<path d="M23.1636 11.9402C23.1636 18.139 18.1385 23.1641 11.9397 23.1641C5.74092 23.1641 0.715817 18.139 0.715818 11.9402C0.715819 5.74141 5.74092 0.716309 11.9397 0.716311C18.1385 0.716312 23.1636 5.74141 23.1636 11.9402Z" fill="white"/>
<path fill-rule="evenodd" clip-rule="evenodd" d="M12 23.1C18.1304 23.1 23.1 18.1304 23.1 12C23.1 5.86964 18.1304 0.900003 12 0.900002C5.86964 0.900001 0.899999 5.86964 0.899998 12C0.899997 18.1304 5.86963 23.1 12 23.1ZM12 24C18.6274 24 24 18.6274 24 12C24 5.37259 18.6274 3.25295e-06 12 2.09559e-06C5.37258 9.38227e-07 -9.40518e-07 5.37258 -2.10071e-06 12C-3.2609e-06 18.6274 5.37258 24 12 24Z" fill="#0052FF"/>
<g clip-path="url(#clip0_13886_14276)">
<path d="M11.9959 3L11.874 3.41007V15.3094L11.9959 15.4299L17.5742 12.1649L11.9959 3Z" fill="#6697FF"/>
<path d="M11.9963 3L6.41797 12.1649L11.9963 15.4299V9.65431V3Z" fill="#0052FF"/>
<path d="M11.9964 16.4757L11.9277 16.5586V20.7974L11.9964 20.996L17.5781 13.2124L11.9964 16.4757Z" fill="#6697FF"/>
<path d="M11.9963 20.9959V16.4756L6.41797 13.2123L11.9963 20.9959Z" fill="#0052FF"/>
<path d="M11.9961 15.4299L17.5744 12.165L11.9961 9.65439V15.4299Z" fill="#CCDCFF"/>
<path d="M6.41797 12.165L11.9962 15.4299V9.65439L6.41797 12.165Z" fill="#6697FF"/>
</g>
<defs>
<clipPath id="clip0_13886_14276">
<rect width="11.16" height="18" fill="white" transform="translate(6.41992 3)"/>
</clipPath>
</defs>
</svg>