<svg width="24" height="24" viewBox="0 0 24 24" fill="none" xmlns="http://www.w3.org/2000/svg">
<g clip-path="url(#clip0_5697_70844)">
<path d="M24 12C24 18.6274 18.6274 24 12 24C5.37258 24 0 18.6274 0 12C0 5.37258 5.37258 0 12 0C18.6274 0 24 5.37258 24 12Z" fill="#FFAA00"/>
<path fill-rule="evenodd" clip-rule="evenodd" d="M12.0054 6H7.17763V9.89571H5.5V11.2913H7.17763V12.756H5.5V14.1516H7.17763V18H12.0054C14.9088 18 17.1176 16.4284 17.9675 14.1516H19.5V12.756H18.3036C18.3329 12.5086 18.3479 12.256 18.3479 11.999V11.9647C18.3479 11.7365 18.3361 11.5118 18.3128 11.2913H19.5V9.89571H17.9961C17.168 7.58677 14.942 6 12.0054 6ZM8.52729 16.7481V14.1516H16.4887C15.7464 15.7082 14.1518 16.7481 12.0054 16.7481H8.52729ZM8.52729 12.756H16.9022C16.9346 12.5211 16.9512 12.2798 16.9512 12.0333V11.999C16.9512 11.7581 16.9354 11.5218 16.9043 11.2913H8.52729V12.756ZM16.4989 9.89571C15.7611 8.31723 14.1617 7.24984 12.0054 7.24984H8.52729V9.89571H16.4989Z" fill="white"/>
</g>
<defs>
<clipPath id="clip0_5697_70844">
<rect width="24" height="24" fill="white"/>
</clipPath>
</defs>
</svg>
