<svg width="24" height="24" viewBox="0 0 24 24" fill="none" xmlns="http://www.w3.org/2000/svg">
<g clip-path="url(#clip0_5697_70830)">
<path d="M24 12C24 18.6274 18.6274 24 12 24C5.37261 24 2.36645e-05 18.6274 2.36645e-05 12C2.36645e-05 5.37261 5.37261 2.36645e-05 12 2.36645e-05C18.6274 2.36645e-05 24 5.37261 24 12Z" fill="white"/>
<path d="M19.5696 5.03635L18.9106 5.69533C20.483 7.41489 21.355 9.66065 21.355 11.9908C21.355 14.3209 20.483 16.5666 18.9106 18.2862L19.5696 18.9452C21.3183 17.0484 22.2892 14.563 22.2892 11.9831C22.2892 9.40319 21.3183 6.91777 19.5696 5.02097V5.03635Z" fill="#21B9BA"/>
<path d="M5.71099 5.09342C7.43055 3.52099 9.67631 2.64899 12.0064 2.64899C14.3365 2.64899 16.5823 3.52099 18.3019 5.09342L18.9608 4.43444C17.064 2.68573 14.5786 1.71486 11.9987 1.71486C9.41885 1.71486 6.93343 2.68573 5.03663 4.43444L5.71099 5.09342Z" fill="#21B9BA"/>
<path d="M5.09395 18.2931C3.52338 16.5739 2.65253 14.3295 2.65253 12.001C2.65253 9.67239 3.52338 7.428 5.09395 5.70882L4.43497 5.04984C2.68626 6.94664 1.71539 9.43206 1.71539 12.012C1.71539 14.5918 2.68626 17.0773 4.43497 18.9741L5.09395 18.2931Z" fill="#21B9BA"/>
<path d="M18.2933 18.9019C16.5737 20.4743 14.328 21.3463 11.9979 21.3463C9.66774 21.3463 7.42198 20.4743 5.70242 18.9019L5.04344 19.5609C6.94024 21.3096 9.42565 22.2804 12.0055 22.2804C14.5854 22.2804 17.0708 21.3096 18.9677 19.5609L18.2933 18.9019Z" fill="#21B9BA"/>
<path d="M16.1603 9.80126C16.0285 8.42619 14.8424 7.9649 13.3421 7.82432V5.93085H12.1823V7.78917C11.877 7.78917 11.565 7.78917 11.2553 7.78917V5.93085H10.1043V7.8375H7.75175V9.07858C7.75175 9.07858 8.60842 9.0632 8.59524 9.07858C8.74971 9.06158 8.90474 9.10522 9.02766 9.20028C9.15059 9.29534 9.23181 9.43441 9.25422 9.58819V14.8073C9.25092 14.8615 9.23678 14.9145 9.21263 14.9632C9.18848 15.0119 9.15482 15.0552 9.11364 15.0907C9.07323 15.1268 9.02593 15.1543 8.97459 15.1717C8.92325 15.1891 8.86893 15.1959 8.8149 15.1917C8.83028 15.2049 7.97141 15.1917 7.97141 15.1917L7.75175 16.5778H10.0823V18.5152H11.2421V16.6063H12.1691V18.5064H13.3311V16.5909C15.2905 16.4723 16.6567 15.9891 16.8281 14.1549C16.9665 12.6788 16.2723 12.0198 15.1631 11.754C15.8374 11.4223 16.2548 10.8073 16.1603 9.80126ZM14.5348 13.9265C14.5348 15.3674 12.0659 15.2027 11.2795 15.2027V12.6458C12.0659 12.648 14.5348 12.4218 14.5348 13.9265ZM13.9967 10.324C13.9967 11.642 11.9363 11.4817 11.2817 11.4817V9.15765C11.9363 9.15765 13.9967 8.95117 13.9967 10.324Z" fill="#014250"/>
<path d="M11.9978 24C9.62462 23.9996 7.30485 23.2955 5.33179 21.9767C3.35874 20.658 1.82101 18.7838 0.913031 16.5912C0.00505137 14.3986 -0.232403 11.986 0.230689 9.65838C0.693782 7.33082 1.83663 5.19282 3.51472 3.51472C5.19282 1.83663 7.33082 0.693782 9.65838 0.230689C11.986 -0.232403 14.3986 0.00505137 16.5912 0.913031C18.7838 1.82101 20.658 3.35874 21.9767 5.33179C23.2955 7.30485 23.9996 9.62462 24 11.9978C24.0003 13.574 23.69 15.1349 23.087 16.5912C22.4839 18.0475 21.5999 19.3707 20.4853 20.4853C19.3707 21.5999 18.0475 22.4839 16.5912 23.087C15.1349 23.69 13.574 24.0003 11.9978 24ZM11.9978 0.935755C9.81137 0.937492 7.67453 1.58738 5.85735 2.80327C4.04018 4.01916 2.62426 5.74648 1.78855 7.7669C0.952839 9.78732 0.734858 12.0101 1.16216 14.1544C1.58945 16.2987 2.64285 18.2682 4.1892 19.8139C5.73555 21.3596 7.70544 22.4123 9.84989 22.8387C11.9943 23.2652 14.2171 23.0463 16.2372 22.2098C18.2572 21.3733 19.984 19.9567 21.1992 18.139C22.4143 16.3214 23.0634 14.1842 23.0643 11.9978C23.0648 10.5446 22.779 9.1055 22.223 7.76285C21.667 6.42019 20.8518 5.20029 19.824 4.17291C18.7962 3.14553 17.576 2.33082 16.2331 1.77537C14.8902 1.21991 13.451 0.9346 11.9978 0.935755Z" fill="#014250"/>
</g>
<defs>
<clipPath id="clip0_5697_70830">
<rect width="24" height="24" fill="white"/>
</clipPath>
</defs>
</svg>
