<svg width="24" height="24" viewBox="0 0 24 24" fill="none" xmlns="http://www.w3.org/2000/svg">
<circle cx="12" cy="12" r="12" transform="rotate(-90 12 12)" fill="white"/>
<g clip-path="url(#clip0_14959_15278)">
<path d="M14.1146 7.28223H13.041V8.9086H14.1146V7.28223Z" fill="#1682FE"/>
<path d="M11.0325 4.2666H9.95898V5.89297H11.0325V4.2666Z" fill="#1682FE"/>
<path d="M7.95244 5.81836H6.87891V7.44473H7.95244V5.81836Z" fill="#60D8A4"/>
<path d="M6.4163 12H5.33203V16.6422H6.4163V12Z" fill="#F4BB3B"/>
<path d="M6.4163 7.35742H5.33203V11.9996H6.4163V7.35742Z" fill="#60D8A4"/>
<path d="M15.6497 8.83398H14.5762V10.4604H15.6497V8.83398Z" fill="#1682FE"/>
<path d="M15.6497 13.54H14.5762V15.1664H15.6497V13.54Z" fill="#FF5A5A"/>
<path d="M14.1146 15.0918H13.041V16.7182H14.1146V15.0918Z" fill="#FF5A5A"/>
<path d="M11.0325 18.1074H9.95898V19.7338H11.0325V18.1074Z" fill="#FF5A5A"/>
<path d="M7.95244 16.5557H6.87891V18.182H7.95244V16.5557Z" fill="#F4BB3B"/>
<path d="M18.665 10.449V7.35778H17.1191V5.81758H14.0381V4.2666H10.957V5.81758H7.87597V7.36855H6.33008V16.6421H7.87597V18.1931H10.957V19.744H14.0381V18.1931H17.1191V16.6421H18.665V13.5401H15.584V15.0911H14.0381V16.6421H10.957V15.0911H9.42186V8.90876H10.9678V7.35778H14.0488V8.90876H15.5947V10.4597H18.665V10.449Z" fill="#3A3A3A"/>
</g>
<defs>
<clipPath id="clip0_14959_15278">
<rect width="13.3333" height="15.4667" fill="white" transform="translate(5.33203 4.2666)"/>
</clipPath>
</defs>
</svg>
