<svg width="24" height="24" viewBox="0 0 24 24" fill="none" xmlns="http://www.w3.org/2000/svg">
<path d="M12 0C18.6274 7.90826e-08 24 5.37258 24 12C24 18.6274 18.6274 24 12 24C5.37258 24 -7.89797e-08 18.6274 0 12C7.89797e-08 5.37258 5.37258 -7.90826e-08 12 0Z" fill="white"/>
<path fill-rule="evenodd" clip-rule="evenodd" d="M23.25 12C23.25 5.7868 18.2132 0.75 12 0.75C5.7868 0.75 0.75 5.7868 0.75 12C0.75 18.2132 5.7868 23.25 12 23.25C18.2132 23.25 23.25 18.2132 23.25 12ZM24 12C24 5.37258 18.6274 0 12 0C5.37258 0 0 5.37258 0 12C0 18.6274 5.37258 24 12 24C18.6274 24 24 18.6274 24 12Z" fill="url(#paint0_angular_13002_116661)"/>
<g clip-path="url(#clip0_13002_116661)">
<path d="M14.1154 7.28223H13.0419V8.9086H14.1154V7.28223Z" fill="#1682FE"/>
<path d="M11.0341 4.2666H9.96057V5.89297H11.0341V4.2666Z" fill="#1682FE"/>
<path d="M7.95293 5.81836H6.87939V7.44473H7.95293V5.81836Z" fill="#60D8A4"/>
<path d="M6.41679 12H5.33252V16.6422H6.41679V12Z" fill="#F4BB3B"/>
<path d="M6.41679 7.35742H5.33252V11.9996H6.41679V7.35742Z" fill="#60D8A4"/>
<path d="M15.6497 8.83398H14.5762V10.4604H15.6497V8.83398Z" fill="#1682FE"/>
<path d="M15.6497 13.54H14.5762V15.1664H15.6497V13.54Z" fill="#FF5A5A"/>
<path d="M14.1154 15.0918H13.0419V16.7182H14.1154V15.0918Z" fill="#FF5A5A"/>
<path d="M11.0341 18.1074H9.96057V19.7338H11.0341V18.1074Z" fill="#FF5A5A"/>
<path d="M7.95293 16.5557H6.87939V18.182H7.95293V16.5557Z" fill="#F4BB3B"/>
<path d="M18.6659 10.449V7.35778H17.12V5.81758H14.0389V4.2666H10.9579V5.81758H7.87683V7.36855H6.33093V16.6421H7.87683V18.1931H10.9579V19.744H14.0389V18.1931H17.12V16.6421H18.6659V13.5401H15.5848V15.0911H14.0389V16.6421H10.9579V15.0911H9.42272V8.90876H10.9686V7.35778H14.0497V8.90876H15.5956V10.4597H18.6659V10.449Z" fill="#3A3A3A"/>
</g>
<defs>
<radialGradient id="paint0_angular_13002_116661" cx="0" cy="0" r="1" gradientUnits="userSpaceOnUse" gradientTransform="translate(12 12) rotate(90) scale(12)">
<stop offset="0.10164" stop-color="#F4BB3B"/>
<stop offset="0.348847" stop-color="#60D8A4"/>
<stop offset="0.604299" stop-color="#1682FE"/>
<stop offset="0.848136" stop-color="#FF5A5A"/>
</radialGradient>
<clipPath id="clip0_13002_116661">
<rect width="13.3333" height="15.4667" fill="white" transform="translate(5.33276 4.2666)"/>
</clipPath>
</defs>
</svg>
