<svg xmlns="http://www.w3.org/2000/svg" fill="none" viewBox="0 0 34 34">
<g clip-path="url(#clip0_8562_88616)">
<circle cx="17" cy="17" r="16.5" fill="#FFAA00" stroke="#33F8FF"/>
<path fill-rule="evenodd" clip-rule="evenodd" d="M17.0098 9H10.5728V14.1943H8.33594V16.055H10.5728V18.0081H8.33594V19.8688H10.5728V25H17.0098C20.881 25 23.8261 22.9046 24.9593 19.8688H27.0026V18.0081H25.4074C25.4465 17.6781 25.4665 17.3413 25.4665 16.9987V16.953C25.4665 16.6486 25.4507 16.349 25.4197 16.055H27.0026V14.1943H24.9974C23.8933 11.1157 20.9253 9 17.0098 9ZM12.3723 23.3308V19.8688H22.9875C21.9978 21.9443 19.8716 23.3308 17.0098 23.3308H12.3723ZM12.3723 18.0081H23.5389C23.5821 17.6948 23.6042 17.373 23.6042 17.0444V16.9987C23.6042 16.6774 23.5831 16.3624 23.5417 16.055H12.3723V18.0081ZM23.0011 14.1943C22.0174 12.0896 19.8848 10.6665 17.0098 10.6665H12.3723V14.1943H23.0011Z" fill="white"/>
</g>
<defs>
<clipPath id="clip0_8562_88616">
<rect width="34" height="34" fill="white"/>
</clipPath>
</defs>
</svg>