<svg xmlns="http://www.w3.org/2000/svg" fill="none" viewBox="0 0 78 24">
<g clip-path="url(#clip0_8613_88818)">
<mask id="mask0_8613_88818" style="mask-type:luminance" maskUnits="userSpaceOnUse" x="54" y="0" width="24" height="24">
<path d="M78 0H54V24H78V0Z" fill="white"/>
</mask>
<g mask="url(#mask0_8613_88818)">
<path d="M77.75 12.125C77.75 18.5453 72.4893 23.75 66 23.75C59.5107 23.75 54.25 18.5453 54.25 12.125C54.25 5.70469 59.5107 0.5 66 0.5C72.4893 0.5 77.75 5.70469 77.75 12.125Z" fill="white"/>
<path d="M73.573 5.03588L72.9141 5.69486C74.4865 7.41443 75.3585 9.66019 75.3585 11.9903C75.3585 14.3204 74.4865 16.5662 72.9141 18.2857L73.573 18.9447C75.3218 17.0479 76.2926 14.5625 76.2926 11.9826C76.2926 9.40272 75.3218 6.91731 73.573 5.02051V5.03588Z" fill="#21B9BA"/>
<path d="M59.7134 5.0934C61.433 3.52097 63.6787 2.64897 66.0089 2.64897C68.339 2.64897 70.5847 3.52097 72.3043 5.0934L72.9633 4.43442C71.0665 2.68571 68.5811 1.71484 66.0012 1.71484C63.4213 1.71484 60.9359 2.68571 59.0391 4.43442L59.7134 5.0934Z" fill="#21B9BA"/>
<path d="M59.0973 18.2931C57.5267 16.5739 56.6558 14.3295 56.6558 12.0009C56.6558 9.67236 57.5267 7.42796 59.0973 5.70878L58.4383 5.0498C56.6896 6.94661 55.7188 9.43202 55.7188 12.0119C55.7188 14.5918 56.6896 17.0772 58.4383 18.974L59.0973 18.2931Z" fill="#21B9BA"/>
<path d="M72.2967 18.9023C70.5772 20.4748 68.3314 21.3468 66.0013 21.3468C63.6712 21.3468 61.4254 20.4748 59.7059 18.9023L59.0469 19.5613C60.9437 21.31 63.4291 22.2809 66.009 22.2809C68.5889 22.2809 71.0743 21.31 72.9711 19.5613L72.2967 18.9023Z" fill="#21B9BA"/>
<path d="M70.1586 9.80107C70.0268 8.426 68.8406 7.96471 67.3403 7.82413V5.93066H66.1805V7.78898C65.8752 7.78898 65.5633 7.78898 65.2536 7.78898V5.93066H64.1026V7.83731H61.75V9.07839C61.75 9.07839 62.6067 9.06301 62.5935 9.07839C62.748 9.06139 62.903 9.10503 63.0259 9.20009C63.1488 9.29515 63.2301 9.43422 63.2525 9.588V14.8071C63.2492 14.8613 63.235 14.9144 63.2109 14.963C63.1867 15.0117 63.1531 15.055 63.1119 15.0905C63.0715 15.1266 63.0242 15.1541 62.9728 15.1715C62.9215 15.1889 62.8672 15.1957 62.8132 15.1915C62.8285 15.2047 61.9697 15.1915 61.9697 15.1915L61.75 16.5776H64.0806V18.515H65.2404V16.6061H66.1674V18.5062H67.3294V16.5907C69.2887 16.4721 70.655 15.9889 70.8263 14.1547C70.9647 12.6786 70.2706 12.0196 69.1613 11.7538C69.8357 11.4222 70.253 10.8071 70.1586 9.80107ZM68.5331 13.9263C68.5331 15.3672 66.0641 15.2025 65.2777 15.2025V12.6457C66.0641 12.6479 68.5331 12.4216 68.5331 13.9263ZM67.9949 10.3239C67.9949 11.6418 65.9345 11.4815 65.2799 11.4815V9.15746C65.9345 9.15746 67.9949 8.95098 67.9949 10.3239Z" fill="#014250"/>
<path d="M65.9978 24C63.6246 23.9996 61.3048 23.2955 59.3318 21.9767C57.3587 20.658 55.821 18.7838 54.913 16.5912C54.0051 14.3986 53.7676 11.986 54.2307 9.65838C54.6938 7.33082 55.8366 5.19282 57.5147 3.51472C59.1928 1.83663 61.3308 0.693782 63.6584 0.230689C65.986 -0.232403 68.3986 0.0050512 70.5912 0.913031C72.7838 1.82101 74.658 3.35874 75.9767 5.33179C77.2955 7.30485 77.9996 9.62462 78 11.9978C78.0003 13.574 77.69 15.1349 77.087 16.5912C76.4839 18.0475 75.5999 19.3707 74.4853 20.4853C73.3707 21.5999 72.0475 22.4839 70.5912 23.087C69.1349 23.69 67.574 24.0003 65.9978 24ZM65.9978 0.935755C63.8114 0.937492 61.6745 1.58738 59.8574 2.80327C58.0402 4.01916 56.6243 5.74648 55.7885 7.7669C54.9528 9.78732 54.7349 12.0101 55.1622 14.1544C55.5895 16.2987 56.6428 18.2682 58.1892 19.8139C59.7356 21.3596 61.7054 22.4123 63.8499 22.8387C65.9943 23.2652 68.2171 23.0463 70.2372 22.2098C72.2573 21.3733 73.984 19.9567 75.1992 18.139C76.4143 16.3214 77.0634 14.1842 77.0643 11.9978C77.0648 10.5446 76.779 9.1055 76.223 7.76285C75.667 6.42019 74.8518 5.20029 73.824 4.17291C72.7962 3.14553 71.576 2.33082 70.2331 1.77537C68.8902 1.21991 67.451 0.9346 65.9978 0.935755Z" fill="#014250"/>
</g>
<path d="M59 12C59 18.0751 54.0751 23 48 23C41.9249 23 37 18.0751 37 12C37 5.92486 41.9249 1 48 1C54.0751 1 59 5.92486 59 12Z" fill="white"/>
<path d="M48 24C41.3723 24 36 18.6277 36 12C36 5.37225 41.3723 0 48 0C54.6277 0 60 5.37225 60 12C60 18.6277 54.6277 24 48 24ZM47.8125 20.625C50.1497 20.625 52.3912 19.6965 54.0439 18.0439C55.6965 16.3912 56.625 14.1497 56.625 11.8125C56.625 6.945 52.68 3 47.8125 3C42.945 3 39 6.945 39 11.8125C39 16.68 42.945 20.625 47.8125 20.625ZM47.2875 8.5425V7.9875C47.2875 7.84727 47.3432 7.71278 47.4424 7.61362C47.5415 7.51446 47.676 7.45875 47.8163 7.45875C47.9565 7.45875 48.091 7.51446 48.1901 7.61362C48.2893 7.71278 48.345 7.84727 48.345 7.9875V8.505C48.7626 8.53514 49.16 8.6964 49.4806 8.96576C49.8011 9.23512 50.0284 9.59883 50.13 10.005C50.1481 10.0855 50.1338 10.1699 50.0904 10.24C50.0469 10.3101 49.9776 10.3604 49.8975 10.38H49.545C49.4316 10.3794 49.3207 10.3467 49.2251 10.2856C49.1295 10.2246 49.0532 10.1377 49.005 10.035C48.8861 9.82942 48.7102 9.66267 48.4986 9.55487C48.287 9.44706 48.0487 9.40283 47.8125 9.4275C47.0625 9.4275 46.6125 9.8925 46.6125 10.3125C46.6125 10.7325 46.965 10.98 47.715 11.1675L48.465 11.3325C49.7625 11.61 50.31 12.1575 50.31 13.11C50.3022 13.6221 50.0948 14.1109 49.732 14.4723C49.3692 14.8337 48.8796 15.0392 48.3675 15.045V15.6825C48.3675 15.8227 48.3118 15.9572 48.2126 16.0564C48.1135 16.1555 47.979 16.2112 47.8387 16.2112C47.6985 16.2112 47.564 16.1555 47.4649 16.0564C47.3657 15.9572 47.31 15.8227 47.31 15.6825V15.0525C46.8571 15.0456 46.4193 14.8887 46.0651 14.6065C45.7109 14.3242 45.4603 13.9324 45.3525 13.4925C45.346 13.4585 45.3463 13.4236 45.3533 13.3897C45.3603 13.3558 45.374 13.3236 45.3935 13.2951C45.4131 13.2665 45.438 13.2421 45.467 13.2232C45.496 13.2043 45.5285 13.1913 45.5625 13.185H46.005C46.1011 13.1857 46.195 13.2136 46.2759 13.2653C46.3569 13.317 46.4215 13.3906 46.4625 13.4775C46.6008 13.7065 46.8007 13.892 47.0395 14.0127C47.2782 14.1334 47.5461 14.1844 47.8125 14.16C48.5625 14.16 49.14 13.71 49.14 13.2525C49.14 12.795 48.81 12.525 48.0075 12.3375L47.1825 12.1425C46.005 11.895 45.45 11.3025 45.45 10.395C45.47 9.91265 45.6696 9.4552 46.0095 9.11245C46.3495 8.7697 46.8053 8.56641 47.2875 8.5425ZM41.205 11.8125C41.2059 10.4269 41.6433 9.07679 42.4551 7.95393C43.267 6.83108 44.412 5.99257 45.7275 5.5575C45.7753 5.54061 45.8264 5.53549 45.8765 5.54257C45.9267 5.54965 45.9744 5.56871 46.0156 5.59815C46.0568 5.62759 46.0903 5.66654 46.1133 5.71169C46.1363 5.75683 46.148 5.80685 46.1475 5.8575V6.03C46.1473 6.16856 46.1058 6.30391 46.0283 6.41878C45.9508 6.53366 45.8409 6.62285 45.7125 6.675C44.6922 7.08683 43.8183 7.79417 43.2028 8.70624C42.5874 9.6183 42.2586 10.6935 42.2586 11.7938C42.2586 12.894 42.5874 13.9692 43.2028 14.8813C43.8183 15.7933 44.6922 16.5007 45.7125 16.9125C45.8415 16.966 45.9517 17.0565 46.0291 17.1727C46.1065 17.2888 46.1477 17.4254 46.1475 17.565V17.7225C46.1475 17.812 46.1119 17.8979 46.0486 17.9611C45.9854 18.0244 45.8995 18.06 45.81 18.06H45.705C44.3949 17.6215 43.2556 16.7825 42.4482 15.6614C41.6407 14.5404 41.2059 13.1941 41.205 11.8125ZM54.42 11.8125C54.4212 13.1944 53.9882 14.5418 53.182 15.6642C52.3759 16.7866 51.2374 17.6273 49.9275 18.0675C49.8748 18.0853 49.8187 18.0903 49.7636 18.0822C49.7086 18.0741 49.6563 18.0531 49.611 18.0209C49.5656 17.9887 49.5285 17.9463 49.5027 17.897C49.4769 17.8478 49.4631 17.7931 49.4625 17.7375V17.61C49.4663 17.4675 49.5107 17.329 49.5904 17.2108C49.6701 17.0925 49.7818 16.9995 49.9125 16.9425C50.9305 16.5295 51.802 15.8221 52.4157 14.9109C53.0293 13.9997 53.3571 12.9261 53.3571 11.8275C53.3571 10.7289 53.0293 9.65534 52.4157 8.74413C51.802 7.83292 50.9305 7.12553 49.9125 6.7125C49.7793 6.6561 49.6652 6.56237 49.584 6.44261C49.5028 6.32284 49.458 6.18215 49.455 6.0375V5.925C49.455 5.73 49.6125 5.5725 49.8075 5.5725H49.92C51.2289 6.0106 52.3673 6.84849 53.1746 7.96801C53.982 9.08754 54.4176 10.4322 54.42 11.8125Z" fill="#3366FF"/>
<mask id="mask1_8613_88818" style="mask-type:luminance" maskUnits="userSpaceOnUse" x="18" y="0" width="24" height="24">
<path d="M42 0H18V24H42V0Z" fill="white"/>
</mask>
<g mask="url(#mask1_8613_88818)">
<path d="M30 24C36.6274 24 42 18.6274 42 12C42 5.37258 36.6274 0 30 0C23.3726 0 18 5.37258 18 12C18 18.6274 23.3726 24 30 24Z" fill="#FFAA00"/>
<path fill-rule="evenodd" clip-rule="evenodd" d="M30.0054 6H25.1776V9.89571H23.5V11.2913H25.1776V12.756H23.5V14.1516H25.1776V18H30.0054C32.9088 18 35.1176 16.4284 35.9675 14.1516H37.5V12.756H36.3036C36.3329 12.5086 36.3479 12.256 36.3479 11.999V11.9647C36.3479 11.7365 36.3361 11.5118 36.3128 11.2913H37.5V9.89571H35.9961C35.168 7.58677 32.942 6 30.0054 6ZM26.5273 16.7481V14.1516H34.4887C33.7464 15.7082 32.1518 16.7481 30.0054 16.7481H26.5273ZM26.5273 12.756H34.9022C34.9346 12.5211 34.9512 12.2798 34.9512 12.0333V11.999C34.9512 11.7581 34.9354 11.5218 34.9043 11.2913H26.5273V12.756ZM34.4989 9.89571C33.7611 8.31723 32.1617 7.24984 30.0054 7.24984H26.5273V9.89571H34.4989Z" fill="white"/>
</g>
<mask id="mask2_8613_88818" style="mask-type:luminance" maskUnits="userSpaceOnUse" x="0" y="0" width="24" height="24">
<path d="M24 0H0V24H24V0Z" fill="white"/>
</mask>
<g mask="url(#mask2_8613_88818)">
<path d="M23 12C23 18.0751 18.0751 23 12 23C5.92486 23 1 18.0751 1 12C1 5.92486 5.92486 1 12 1C18.0751 1 23 5.92486 23 12Z" fill="white"/>
<path fill-rule="evenodd" clip-rule="evenodd" d="M12 24C5.37225 24 0 18.6277 0 12C0 5.37225 5.37225 0 12 0C18.6277 0 24 5.37225 24 12C24 18.6277 18.6277 24 12 24ZM17.9955 12.1642L12.3735 3L6.75 12.165L12.3735 15.4297L17.9955 12.1642ZM18 13.212L12.3735 16.4752L6.75 13.2128L12.3735 20.9963L18 13.212Z" fill="black"/>
<path d="M12.375 3V9.6525L17.9978 12.165L12.375 3ZM12.375 16.476V20.9963L18.0015 13.212L12.375 16.476Z" fill="black" fill-opacity="0.298"/>
<path d="M12.375 15.43L17.9978 12.1653L12.375 9.6543V15.43Z" fill="black" fill-opacity="0.801"/>
<path d="M6.75 12.1653L12.3735 15.43V9.6543L6.75 12.1653Z" fill="black" fill-opacity="0.298"/>
</g>
</g>
<defs>
<clipPath id="clip0_8613_88818">
<rect width="78" height="24" fill="white"/>
</clipPath>
</defs>
</svg>