<svg xmlns="http://www.w3.org/2000/svg" fill="none" viewBox="0 0 34 34">
<g clip-path="url(#clip0_8622_88883)">
<path d="M33 17C33 25.8366 25.8366 33 17 33C8.16344 33 1 25.8366 1 17C1 8.16344 8.16344 1 17 1C25.8366 1 33 8.16344 33 17Z" fill="white"/>
<path fill-rule="evenodd" clip-rule="evenodd" d="M17 33C8.163 33 1 25.837 1 17C1 8.163 8.163 1 17 1C25.837 1 33 8.163 33 17C33 25.837 25.837 33 17 33ZM24.994 17.219L17.498 5L10 17.22L17.498 21.573L24.994 17.219ZM25 18.616L17.498 22.967L10 18.617L17.498 28.995L25 18.616Z" fill="black"/>
<path d="M17.5 5V13.87L24.997 17.22L17.5 5ZM17.5 22.968V28.995L25.002 18.616L17.5 22.968Z" fill="black" fill-opacity="0.298"/>
<path d="M17.5 21.5731L24.997 17.2201L17.5 13.8721V21.5731Z" fill="black" fill-opacity="0.801"/>
<path d="M10 17.2201L17.498 21.5731V13.8721L10 17.2201Z" fill="black" fill-opacity="0.298"/>
<path fill-rule="evenodd" clip-rule="evenodd" d="M34 17C34 26.3888 26.3888 34 17 34C7.61116 34 0 26.3888 0 17C0 7.61116 7.61116 0 17 0C26.3888 0 34 7.61116 34 17ZM17 33C25.8366 33 33 25.8366 33 17C33 8.16344 25.8366 1 17 1C8.16344 1 1 8.16344 1 17C1 25.8366 8.16344 33 17 33Z" fill="#33F8FF"/>
</g>
<defs>
<clipPath id="clip0_8622_88883">
<rect width="34" height="34" fill="white"/>
</clipPath>
</defs>
</svg>