<svg xmlns="http://www.w3.org/2000/svg" fill="none" viewBox="0 0 24 24">
<path d="M23.1636 11.9402C23.1636 18.139 18.1385 23.1641 11.9397 23.1641C5.74092 23.1641 0.715817 18.139 0.715818 11.9402C0.715819 5.74141 5.74092 0.716309 11.9397 0.716311C18.1385 0.716312 23.1636 5.74141 23.1636 11.9402Z" fill="url(#paint0_linear_13886_14287)"/>
<g style="mix-blend-mode:lighten" opacity="0.7">
<path d="M11.9404 0.0690918C14.302 0.0690919 16.6105 0.769378 18.5741 2.0814C20.5377 3.39341 22.0681 5.25823 22.9718 7.44004C23.8756 9.62184 24.112 12.0226 23.6513 14.3388C23.1906 16.655 22.0534 18.7826 20.3835 20.4525L11.9404 12.0094V0.0690918Z" fill="url(#paint1_radial_13886_14287)"/>
</g>
<path fill-rule="evenodd" clip-rule="evenodd" d="M12 23.1C18.1304 23.1 23.1 18.1304 23.1 12C23.1 5.86964 18.1304 0.900003 12 0.900002C5.86964 0.900001 0.899999 5.86964 0.899998 12C0.899997 18.1304 5.86963 23.1 12 23.1ZM12 24C18.6274 24 24 18.6274 24 12C24 5.37259 18.6274 3.25295e-06 12 2.09559e-06C5.37258 9.38227e-07 -9.40518e-07 5.37258 -2.10071e-06 12C-3.2609e-06 18.6274 5.37258 24 12 24Z" fill="url(#paint2_linear_13886_14287)"/>
<g clip-path="url(#clip0_13886_14287)">
<path d="M11.9961 3L11.876 3.41007V15.3094L11.9961 15.4298L17.4944 12.1649L11.9961 3Z" fill="#6697FF"/>
<path d="M11.9964 3L6.49805 12.1649L11.9964 15.4299V9.6543V3Z" fill="#0052FF"/>
<path d="M11.9964 16.4757L11.9287 16.5586V20.7974L11.9964 20.996L17.498 13.2124L11.9964 16.4757Z" fill="#6697FF"/>
<path d="M11.9964 20.9959V16.4756L6.49805 13.2123L11.9964 20.9959Z" fill="#0052FF"/>
<path d="M11.9961 15.4299L17.4944 12.1649L11.9961 9.65436V15.4299Z" fill="#CCDCFF"/>
<path d="M6.49805 12.1649L11.9963 15.4299V9.65436L6.49805 12.1649Z" fill="#6697FF"/>
</g>
<defs>
<linearGradient id="paint0_linear_13886_14287" x1="33.3813" y1="12.0378" x2="-4.60989" y2="12.0378" gradientUnits="userSpaceOnUse">
<stop offset="0.239095" stop-color="#053542"/>
<stop offset="1" stop-color="#06657E"/>
</linearGradient>
<radialGradient id="paint1_radial_13886_14287" cx="0" cy="0" r="1" gradientUnits="userSpaceOnUse" gradientTransform="translate(11.9404 12.0095) rotate(-45) scale(11.9403)">
<stop stop-color="#33F8FF"/>
<stop offset="1" stop-color="#065368"/>
</radialGradient>
<linearGradient id="paint2_linear_13886_14287" x1="12" y1="2.09559e-06" x2="12" y2="24" gradientUnits="userSpaceOnUse">
<stop stop-color="#2BCAD0"/>
<stop offset="1" stop-color="#8BC1E5"/>
</linearGradient>
<clipPath id="clip0_13886_14287">
<rect width="11" height="18" fill="white" transform="translate(6.5 3)"/>
</clipPath>
</defs>
</svg>