<svg width="202" height="202" viewBox="0 0 202 202" fill="none" xmlns="http://www.w3.org/2000/svg">
<circle cx="101" cy="100" r="87" fill="url(#paint0_linear_3098_33821)"/>
<ellipse cx="101.286" cy="100.786" rx="100.5" ry="100.5" transform="rotate(-30 101.286 100.786)" fill="url(#paint1_linear_3098_33821)"/>
<ellipse cx="101.5" cy="100.5" rx="100.5" ry="100.5" fill="url(#paint2_linear_3098_33821)"/>
<ellipse cx="101" cy="100" rx="94" ry="94" fill="url(#paint3_linear_3098_33821)"/>
<g style="mix-blend-mode:lighten" opacity="0.7">
<path d="M101 0.578648C120.778 0.578648 140.112 6.44355 156.557 17.4317C173.002 28.4198 185.819 44.0377 193.388 62.3103C200.957 80.5829 202.937 100.69 199.079 120.088C195.22 139.486 185.696 157.304 171.711 171.289L101 100.579V0.578648Z" fill="url(#paint4_radial_3098_33821)"/>
</g>
<path fill-rule="evenodd" clip-rule="evenodd" d="M98.9021 51H58.9004V83.1396H45V94.653H58.9004V106.737H45V118.251H58.9004V150H98.9021C122.959 150 141.26 137.034 148.302 118.251H161V106.737H151.087C151.33 104.696 151.454 102.612 151.454 100.492V100.209C151.454 98.3257 151.356 96.4722 151.163 94.653H161V83.1396H148.539C141.678 64.0908 123.234 51 98.9021 51ZM70.0833 139.672V118.251H136.049C129.899 131.093 116.686 139.672 98.9021 139.672H70.0833ZM70.0833 106.737H139.475C139.744 104.799 139.881 102.808 139.881 100.775V100.492C139.881 98.504 139.75 96.5546 139.493 94.653H70.0833V106.737ZM136.134 83.1396C130.021 70.1172 116.768 61.3112 98.9021 61.3112H70.0833V83.1396H136.134Z" fill="white"/>
<defs>
<linearGradient id="paint0_linear_3098_33821" x1="101" y1="13" x2="101" y2="187" gradientUnits="userSpaceOnUse">
<stop stop-color="#2BCAD0"/>
<stop offset="1" stop-color="#8BC1E5"/>
</linearGradient>
<linearGradient id="paint1_linear_3098_33821" x1="101.286" y1="0.285553" x2="101.286" y2="201.285" gradientUnits="userSpaceOnUse">
<stop stop-color="#2BCAD0"/>
<stop offset="1" stop-color="#8BC1E5"/>
</linearGradient>
<linearGradient id="paint2_linear_3098_33821" x1="101.5" y1="1.52588e-05" x2="101.5" y2="201" gradientUnits="userSpaceOnUse">
<stop stop-color="#2BCAD0"/>
<stop offset="1" stop-color="#8BC1E5"/>
</linearGradient>
<linearGradient id="paint3_linear_3098_33821" x1="280.573" y1="100.817" x2="-37.6028" y2="100.817" gradientUnits="userSpaceOnUse">
<stop offset="0.239095" stop-color="#053542"/>
<stop offset="1" stop-color="#06657E"/>
</linearGradient>
<radialGradient id="paint4_radial_3098_33821" cx="0" cy="0" r="1" gradientUnits="userSpaceOnUse" gradientTransform="translate(101 100.579) rotate(-45) scale(100)">
<stop stop-color="#33F8FF"/>
<stop offset="1" stop-color="#065368"/>
</radialGradient>
</defs>
</svg>
