<svg width="202" height="202" viewBox="0 0 202 202" fill="none" xmlns="http://www.w3.org/2000/svg">
<circle cx="101" cy="100" r="87" fill="url(#paint0_linear_5255_52683)"/>
<ellipse cx="101.286" cy="100.786" rx="100.5" ry="100.5" transform="rotate(-30 101.286 100.786)" fill="url(#paint1_linear_5255_52683)"/>
<ellipse cx="101.5" cy="100.5" rx="100.5" ry="100.5" fill="url(#paint2_linear_5255_52683)"/>
<ellipse cx="101" cy="100" rx="94" ry="94" fill="url(#paint3_linear_5255_52683)"/>
<g style="mix-blend-mode:lighten" opacity="0.7">
<path d="M101 0.578648C120.778 0.578648 140.112 6.44355 156.557 17.4317C173.002 28.4198 185.819 44.0377 193.388 62.3103C200.957 80.5829 202.937 100.69 199.079 120.088C195.22 139.486 185.696 157.304 171.711 171.289L101 100.579L101 0.578648Z" fill="url(#paint4_radial_5255_52683)"/>
</g>
<g clip-path="url(#clip0_5255_52683)">
<path d="M100.986 25L99.9705 28.4173V127.578L100.986 128.582L147.472 101.374L100.986 25Z" fill="#A1A1A1"/>
<path d="M100.986 25L54.5 101.374L100.986 128.582V80.4525V25Z" fill="#E5E5E5"/>
<path d="M100.986 137.297L100.414 137.988V173.312L100.986 174.967L147.5 110.103L100.986 137.297Z" fill="#A1A1A1"/>
<path d="M100.986 174.966V137.297L54.5 110.103L100.986 174.966Z" fill="#E5E5E5"/>
<path d="M100.986 128.582L147.471 101.374L100.986 80.4529V128.582Z" fill="#2E2E2E"/>
<path d="M54.5002 101.374L100.986 128.582V80.4529L54.5002 101.374Z" fill="#A1A1A1"/>
</g>
<defs>
<linearGradient id="paint0_linear_5255_52683" x1="101" y1="13" x2="101" y2="187" gradientUnits="userSpaceOnUse">
<stop stop-color="#2BCAD0"/>
<stop offset="1" stop-color="#8BC1E5"/>
</linearGradient>
<linearGradient id="paint1_linear_5255_52683" x1="101.286" y1="0.285553" x2="101.286" y2="201.285" gradientUnits="userSpaceOnUse">
<stop stop-color="#2BCAD0"/>
<stop offset="1" stop-color="#8BC1E5"/>
</linearGradient>
<linearGradient id="paint2_linear_5255_52683" x1="101.5" y1="1.52588e-05" x2="101.5" y2="201" gradientUnits="userSpaceOnUse">
<stop stop-color="#2BCAD0"/>
<stop offset="1" stop-color="#8BC1E5"/>
</linearGradient>
<linearGradient id="paint3_linear_5255_52683" x1="280.573" y1="100.817" x2="-37.6028" y2="100.817" gradientUnits="userSpaceOnUse">
<stop offset="0.239095" stop-color="#053542"/>
<stop offset="1" stop-color="#06657E"/>
</linearGradient>
<radialGradient id="paint4_radial_5255_52683" cx="0" cy="0" r="1" gradientUnits="userSpaceOnUse" gradientTransform="translate(101 100.579) rotate(-45) scale(100)">
<stop stop-color="#33F8FF"/>
<stop offset="1" stop-color="#065368"/>
</radialGradient>
<clipPath id="clip0_5255_52683">
<rect width="93" height="150" fill="white" transform="translate(54.5 25)"/>
</clipPath>
</defs>
</svg>
