<svg xmlns="http://www.w3.org/2000/svg" fill="none" viewBox="0 0 24 24">
<path d="M23.1636 11.9402C23.1636 18.139 18.1385 23.1641 11.9397 23.1641C5.74092 23.1641 0.715817 18.139 0.715818 11.9402C0.715819 5.74141 5.74092 0.716309 11.9397 0.716311C18.1385 0.716312 23.1636 5.74141 23.1636 11.9402Z" fill="url(#paint0_linear_12104_4238)"/>
<g style="mix-blend-mode:lighten" opacity="0.7">
<path d="M11.9404 0.0690918C14.302 0.0690919 16.6105 0.769378 18.5741 2.0814C20.5377 3.39341 22.0681 5.25823 22.9718 7.44004C23.8756 9.62184 24.112 12.0226 23.6513 14.3388C23.1906 16.655 22.0534 18.7826 20.3835 20.4525L11.9404 12.0094V0.0690918Z" fill="url(#paint1_radial_12104_4238)"/>
</g>
<path fill-rule="evenodd" clip-rule="evenodd" d="M12 23.1C18.1304 23.1 23.1 18.1304 23.1 12C23.1 5.86964 18.1304 0.900003 12 0.900002C5.86964 0.900001 0.899999 5.86964 0.899998 12C0.899997 18.1304 5.86963 23.1 12 23.1ZM12 24C18.6274 24 24 18.6274 24 12C24 5.37259 18.6274 3.25295e-06 12 2.09559e-06C5.37258 9.38227e-07 -9.40518e-07 5.37258 -2.10071e-06 12C-3.2609e-06 18.6274 5.37258 24 12 24Z" fill="url(#paint2_linear_12104_4238)"/>
<path d="M17.9857 12C17.9857 10.7825 17.6199 9.64963 16.9934 8.70304L18.8518 6.84457L17.1805 5.17323L15.3271 7.02661C14.3754 6.38737 13.2307 6.01398 12.0005 6.01398C10.783 6.01398 9.65011 6.37975 8.70352 7.00629L6.84421 5.14783L5.17286 6.81917L7.02624 8.67256C6.387 9.62423 6.01361 10.7689 6.01361 11.9992C6.01361 13.2167 6.37938 14.3495 7.00592 15.2961L5.14746 17.1554L6.81881 18.8268L8.67219 16.9734C9.62386 17.6127 10.7686 17.986 11.9988 17.986C13.2163 17.986 14.3492 17.6203 15.2958 16.9937L17.1551 18.853L18.8264 17.1817L16.973 15.3283C17.6123 14.3749 17.9857 13.2302 17.9857 12ZM8.37839 12C8.37839 10.0027 10.0032 8.37791 12.0005 8.37791C13.9978 8.37791 15.6226 10.0027 15.6226 12C15.6226 13.9973 13.9978 15.6221 12.0005 15.6221C10.0032 15.6221 8.37839 13.9973 8.37839 12Z" fill="white"/>
<defs>
<linearGradient id="paint0_linear_12104_4238" x1="33.3813" y1="12.0378" x2="-4.60989" y2="12.0378" gradientUnits="userSpaceOnUse">
<stop offset="0.239095" stop-color="#053542"/>
<stop offset="1" stop-color="#06657E"/>
</linearGradient>
<radialGradient id="paint1_radial_12104_4238" cx="0" cy="0" r="1" gradientUnits="userSpaceOnUse" gradientTransform="translate(11.9404 12.0095) rotate(-45) scale(11.9403)">
<stop stop-color="#33F8FF"/>
<stop offset="1" stop-color="#065368"/>
</radialGradient>
<linearGradient id="paint2_linear_12104_4238" x1="12" y1="2.09559e-06" x2="12" y2="24" gradientUnits="userSpaceOnUse">
<stop stop-color="#2BCAD0"/>
<stop offset="1" stop-color="#8BC1E5"/>
</linearGradient>
</defs>
</svg>