<svg width="24" height="24" viewBox="0 0 24 24" fill="none" xmlns="http://www.w3.org/2000/svg">
<path d="M23.1636 11.9402C23.1636 18.139 18.1385 23.1641 11.9397 23.1641C5.74092 23.1641 0.715817 18.139 0.715818 11.9402C0.715819 5.74141 5.74092 0.716309 11.9397 0.716311C18.1385 0.716312 23.1636 5.74141 23.1636 11.9402Z" fill="url(#paint0_linear_14849_14017)"/>
<g style="mix-blend-mode:lighten" opacity="0.7">
<path d="M11.9404 0.0690918C14.302 0.0690919 16.6105 0.769378 18.5741 2.0814C20.5377 3.39341 22.0681 5.25823 22.9718 7.44004C23.8756 9.62184 24.112 12.0226 23.6513 14.3388C23.1906 16.655 22.0534 18.7826 20.3835 20.4525L11.9404 12.0094V0.0690918Z" fill="url(#paint1_radial_14849_14017)"/>
</g>
<path fill-rule="evenodd" clip-rule="evenodd" d="M12 23.1C18.1304 23.1 23.1 18.1304 23.1 12C23.1 5.86964 18.1304 0.900003 12 0.900002C5.86964 0.900001 0.899999 5.86964 0.899998 12C0.899997 18.1304 5.86963 23.1 12 23.1ZM12 24C18.6274 24 24 18.6274 24 12C24 5.37259 18.6274 3.25295e-06 12 2.09559e-06C5.37258 9.38227e-07 -9.40518e-07 5.37258 -2.10071e-06 12C-3.2609e-06 18.6274 5.37258 24 12 24Z" fill="url(#paint2_linear_14849_14017)"/>
<mask id="mask0_14849_14017" style="mask-type:luminance" maskUnits="userSpaceOnUse" x="4" y="5" width="16" height="14">
<path d="M19.5 5.67999H4.5V18.3229H19.5V5.67999Z" fill="white"/>
</mask>
<g mask="url(#mask0_14849_14017)">
<path fill-rule="evenodd" clip-rule="evenodd" d="M19.5 15.9247L17.1699 12.008H14.2387L16.5949 15.9247H10.7329C8.6209 15.9247 7.02689 14.1507 7.02689 12.0078C7.02689 9.86481 8.62159 8.09045 10.7329 8.09045H15.772L14.3372 5.67999H10.7329C7.34883 5.67999 4.5 8.52214 4.5 12.0078C4.5 15.4934 7.35112 18.3229 10.7329 18.3229H19.5M11.62 10.2233C11.62 10.8889 11.0956 11.4285 10.4487 11.4285C9.80185 11.4285 9.27742 10.8889 9.27742 10.2233C9.27742 9.55761 9.80185 9.01805 10.4487 9.01805C11.0956 9.01805 11.62 9.55761 11.62 10.2233ZM10.4487 14.7666C11.0956 14.7666 11.62 14.2271 11.62 13.5613C11.62 12.8956 11.0956 12.3561 10.4487 12.3561C9.80185 12.3561 9.27742 12.8956 9.27742 13.5613C9.27742 14.2271 9.80185 14.7666 10.4487 14.7666Z" fill="white"/>
</g>
<defs>
<linearGradient id="paint0_linear_14849_14017" x1="33.3813" y1="12.0378" x2="-4.60989" y2="12.0378" gradientUnits="userSpaceOnUse">
<stop offset="0.239095" stop-color="#053542"/>
<stop offset="1" stop-color="#06657E"/>
</linearGradient>
<radialGradient id="paint1_radial_14849_14017" cx="0" cy="0" r="1" gradientUnits="userSpaceOnUse" gradientTransform="translate(11.9404 12.0095) rotate(-45) scale(11.9403)">
<stop stop-color="#33F8FF"/>
<stop offset="1" stop-color="#065368"/>
</radialGradient>
<linearGradient id="paint2_linear_14849_14017" x1="12" y1="2.09559e-06" x2="12" y2="24" gradientUnits="userSpaceOnUse">
<stop stop-color="#2BCAD0"/>
<stop offset="1" stop-color="#8BC1E5"/>
</linearGradient>
</defs>
</svg>
