<svg xmlns="http://www.w3.org/2000/svg" fill="none" viewBox="0 0 24 24">
<path d="M23.1636 11.9402C23.1636 18.139 18.1385 23.1641 11.9397 23.1641C5.74092 23.1641 0.715817 18.139 0.715818 11.9402C0.715819 5.74141 5.74092 0.716309 11.9397 0.716311C18.1385 0.716312 23.1636 5.74141 23.1636 11.9402Z" fill="url(#paint0_linear_14896_14036)"/>
<g style="mix-blend-mode:lighten" opacity="0.7">
<path d="M11.9404 0.0690918C14.302 0.0690919 16.6105 0.769378 18.5741 2.0814C20.5377 3.39341 22.0681 5.25823 22.9718 7.44004C23.8756 9.62184 24.112 12.0226 23.6513 14.3388C23.1906 16.655 22.0534 18.7826 20.3835 20.4525L11.9404 12.0094V0.0690918Z" fill="url(#paint1_radial_14896_14036)"/>
</g>
<path fill-rule="evenodd" clip-rule="evenodd" d="M12 23.1C18.1304 23.1 23.1 18.1304 23.1 12C23.1 5.86964 18.1304 0.900003 12 0.900002C5.86964 0.900001 0.899999 5.86964 0.899998 12C0.899997 18.1304 5.86963 23.1 12 23.1ZM12 24C18.6274 24 24 18.6274 24 12C24 5.37259 18.6274 3.25295e-06 12 2.09559e-06C5.37258 9.38227e-07 -9.40518e-07 5.37258 -2.10071e-06 12C-3.2609e-06 18.6274 5.37258 24 12 24Z" fill="url(#paint2_linear_14896_14036)"/>
<path d="M7.89062 10.4274C7.89062 11.4319 8.70448 12.2458 9.70894 12.2458C10.7134 12.2458 11.5273 11.4319 11.5273 10.4274C11.5273 9.42298 10.7134 8.60913 9.70894 8.60913C8.70448 8.60913 7.89062 9.42298 7.89062 10.4274Z" fill="white"/>
<path d="M12.4736 10.4274C12.4736 11.4319 13.2875 12.2458 14.292 12.2458C15.2964 12.2458 16.1103 11.4319 16.1103 10.4274C16.1103 9.42298 15.2964 8.60913 14.292 8.60913C13.2875 8.60913 12.4736 9.42298 12.4736 10.4274Z" fill="white"/>
<path d="M20.6159 18.9918V12.7945H18.2779C17.8051 15.9203 15.2265 18.1973 11.9986 18.1973C8.432 18.1973 5.58241 15.4177 5.58241 11.7833C5.58241 8.14892 8.432 5.3172 11.9994 5.3172C15.1088 5.3172 17.6718 7.46984 18.2794 10.4289H20.6174C19.9778 6.22189 16.3069 3 11.9986 3C7.23841 3 3.37988 6.93299 3.37988 11.7826C3.37988 16.6322 7.23841 20.5652 11.9986 20.5652C14.9942 20.5652 17.0828 19.178 18.3642 16.9933C18.3948 17.0022 18.426 17.0089 18.4551 17.0179L18.5 21C19.3064 20.4281 19.9882 19.7528 20.6159 18.9918Z" fill="white"/>
<defs>
<linearGradient id="paint0_linear_14896_14036" x1="33.3813" y1="12.0378" x2="-4.60989" y2="12.0378" gradientUnits="userSpaceOnUse">
<stop offset="0.239095" stop-color="#053542"/>
<stop offset="1" stop-color="#06657E"/>
</linearGradient>
<radialGradient id="paint1_radial_14896_14036" cx="0" cy="0" r="1" gradientUnits="userSpaceOnUse" gradientTransform="translate(11.9404 12.0095) rotate(-45) scale(11.9403)">
<stop stop-color="#33F8FF"/>
<stop offset="1" stop-color="#065368"/>
</radialGradient>
<linearGradient id="paint2_linear_14896_14036" x1="12" y1="2.09559e-06" x2="12" y2="24" gradientUnits="userSpaceOnUse">
<stop stop-color="#2BCAD0"/>
<stop offset="1" stop-color="#8BC1E5"/>
</linearGradient>
</defs>
</svg>