<svg xmlns="http://www.w3.org/2000/svg" fill="none" viewBox="0 0 24 24">
<g clipPath="url(#clip0_12104_4226)">
<path d="M12 24C10.3803 24 8.80886 23.6825 7.32886 23.0568C5.89967 22.4523 4.61695 21.587 3.51457 20.4854C2.41304 19.3839 1.54773 18.1003 0.943202 16.6711C0.317505 15.1911 0 13.6197 0 12C0 10.3803 0.317505 8.80886 0.943202 7.32886C1.54773 5.89967 2.41304 4.61695 3.51457 3.51457C4.61695 2.41304 5.89967 1.54773 7.32886 0.943202C8.80886 0.317505 10.3803 0 12 0C13.6197 0 15.1911 0.317505 16.6711 0.943202C18.1003 1.54773 19.3831 2.41304 20.4854 3.51457C21.587 4.6161 22.4523 5.89967 23.0568 7.32886C23.6825 8.80886 24 10.3803 24 12C24 13.6197 23.6825 15.1911 23.0568 16.6711C22.4523 18.1003 21.587 19.3831 20.4854 20.4854C19.3839 21.587 18.1003 22.4523 16.6711 23.0568C15.1911 23.6833 13.6197 24 12 24Z" fill="white"/>
<path d="M11.9999 23.3642C18.2761 23.3642 23.364 18.2763 23.364 12C23.364 5.72376 18.2761 0.635864 11.9999 0.635864C5.72364 0.635864 0.635742 5.72376 0.635742 12C0.635742 18.2763 5.72364 23.3642 11.9999 23.3642Z" fill="black"/>
<path d="M17.9857 12C17.9857 10.7825 17.6199 9.64963 16.9934 8.70304L18.8518 6.84457L17.1805 5.17323L15.3271 7.02661C14.3754 6.38737 13.2307 6.01398 12.0005 6.01398C10.783 6.01398 9.65011 6.37975 8.70352 7.00629L6.84421 5.14783L5.17286 6.81917L7.02624 8.67256C6.387 9.62423 6.01361 10.7689 6.01361 11.9992C6.01361 13.2167 6.37938 14.3495 7.00592 15.2961L5.14746 17.1554L6.81881 18.8268L8.67219 16.9734C9.62386 17.6127 10.7686 17.986 11.9988 17.986C13.2163 17.986 14.3492 17.6203 15.2958 16.9937L17.1551 18.853L18.8264 17.1817L16.973 15.3283C17.6123 14.3749 17.9857 13.2302 17.9857 12ZM8.37839 12C8.37839 10.0027 10.0032 8.37791 12.0005 8.37791C13.9978 8.37791 15.6226 10.0027 15.6226 12C15.6226 13.9973 13.9978 15.6221 12.0005 15.6221C10.0032 15.6221 8.37839 13.9973 8.37839 12Z" fill="white"/>
</g>
<defs>
<clipPath id="clip0_12104_4226">
<rect width="24" height="24" fill="white"/>
</clipPath>
</defs>
</svg>