<svg xmlns="http://www.w3.org/2000/svg" fill="none" viewBox="0 0 34 34">
<g clip-path="url(#clip0_12268_19628)">
<path fill-rule="evenodd" clip-rule="evenodd" d="M17 33C25.8366 33 33 25.8366 33 17C33 8.16344 25.8366 1 17 1C8.16344 1 1 8.16344 1 17C1 25.8366 8.16344 33 17 33ZM17 34C26.3888 34 34 26.3888 34 17C34 7.61116 26.3888 0 17 0C7.61116 0 0 7.61116 0 17C0 26.3888 7.61116 34 17 34Z" fill="#33F8FF"/>
<path d="M17 33C14.8404 33 12.7451 32.5767 10.7718 31.7424C8.86622 30.9364 7.15593 29.7826 5.68609 28.3139C4.21739 26.8452 3.06364 25.1338 2.2576 23.2282C1.42334 21.2549 1 19.1596 1 17C1 14.8404 1.42334 12.7451 2.2576 10.7718C3.06364 8.86622 4.21739 7.15593 5.68609 5.68609C7.15593 4.21739 8.86622 3.06364 10.7718 2.2576C12.7451 1.42334 14.8404 1 17 1C19.1596 1 21.2549 1.42334 23.2282 2.2576C25.1338 3.06364 26.8441 4.21739 28.3139 5.68609C29.7826 7.1548 30.9364 8.86622 31.7424 10.7718C32.5767 12.7451 33 14.8404 33 17C33 19.1596 32.5767 21.2549 31.7424 23.2282C30.9364 25.1338 29.7826 26.8441 28.3139 28.3139C26.8452 29.7826 25.1338 30.9364 23.2282 31.7424C21.2549 32.5778 19.1596 33 17 33Z" fill="white"/>
<path d="M16.9998 32.1522C25.3682 32.1522 32.152 25.3684 32.152 17C32.152 8.63171 25.3682 1.84784 16.9998 1.84784C8.63152 1.84784 1.84766 8.63171 1.84766 17C1.84766 25.3684 8.63152 32.1522 16.9998 32.1522Z" fill="black"/>
<path d="M24.9809 17C24.9809 15.3766 24.4932 13.8662 23.6578 12.6041L26.1358 10.1261L23.9073 7.89764L21.4361 10.3688C20.1672 9.51649 18.641 9.01864 17.0007 9.01864C15.3773 9.01864 13.8668 9.50633 12.6047 10.3417L10.1256 7.86377L7.89715 10.0922L10.3683 12.5634C9.516 13.8323 9.01815 15.3586 9.01815 16.9989C9.01815 18.6223 9.50584 20.1327 10.3412 21.3949L7.86328 23.8739L10.0917 26.1024L12.5629 23.6312C13.8318 24.4835 15.3581 24.9814 16.9984 24.9814C18.6218 24.9814 20.1322 24.4937 21.3944 23.6583L23.8734 26.1374L26.1019 23.9089L23.6307 21.4377C24.4831 20.1666 24.9809 18.6403 24.9809 17ZM12.1712 17C12.1712 14.3369 14.3376 12.1705 17.0007 12.1705C19.6637 12.1705 21.8301 14.3369 21.8301 17C21.8301 19.6631 19.6637 21.8295 17.0007 21.8295C14.3376 21.8295 12.1712 19.6631 12.1712 17Z" fill="white"/>
</g>
<defs>
<clipPath id="clip0_12268_19628">
<rect width="34" height="34" fill="white"/>
</clipPath>
</defs>
</svg>