<svg width="202" height="202" viewBox="0 0 202 202" fill="none" xmlns="http://www.w3.org/2000/svg">
<circle cx="101" cy="100" r="87" fill="url(#paint0_linear_3094_33768)"/>
<ellipse cx="101.286" cy="100.786" rx="100.5" ry="100.5" transform="rotate(-30 101.286 100.786)" fill="url(#paint1_linear_3094_33768)"/>
<ellipse cx="101.5" cy="100.5" rx="100.5" ry="100.5" fill="url(#paint2_linear_3094_33768)"/>
<ellipse cx="101" cy="100" rx="94" ry="94" fill="url(#paint3_linear_3094_33768)"/>
<g style="mix-blend-mode:lighten" opacity="0.7">
<path d="M101 0.578648C120.778 0.578648 140.112 6.44355 156.557 17.4317C173.002 28.4198 185.819 44.0377 193.388 62.3103C200.957 80.5829 202.937 100.69 199.079 120.088C195.22 139.486 185.696 157.304 171.711 171.289L101 100.579V0.578648Z" fill="url(#paint4_radial_3094_33768)"/>
</g>
<path d="M95.9149 69.2009V63.8042C95.9149 62.4406 96.4544 61.1328 97.4149 60.1686C98.3753 59.2044 99.678 58.6627 101.036 58.6627C102.395 58.6627 103.697 59.2044 104.658 60.1686C105.618 61.1328 106.158 62.4406 106.158 63.8042V68.8363C110.203 69.1294 114.052 70.6974 117.157 73.3166C120.262 75.9359 122.463 79.4725 123.447 83.4221C123.622 84.2049 123.484 85.0254 123.063 85.7072C122.642 86.3891 121.971 86.8779 121.195 87.0685H117.781C116.682 87.0628 115.608 86.7446 114.682 86.1508C113.756 85.5571 113.017 84.7121 112.55 83.7138C111.399 81.7148 109.695 80.0933 107.646 79.045C105.596 77.9968 103.288 77.5667 101 77.8065C93.7355 77.8065 89.3768 82.3281 89.3768 86.4122C89.3768 90.4962 92.7911 92.9028 100.056 94.7261L107.32 96.3305C119.888 99.0289 125.191 104.353 125.191 113.615C125.115 118.594 123.107 123.347 119.592 126.861C116.078 130.376 111.336 132.374 106.376 132.43V138.629C106.376 139.993 105.836 141.301 104.876 142.265C103.915 143.229 102.613 143.771 101.254 143.771C99.8959 143.771 98.5933 143.229 97.6328 142.265C96.6724 141.301 96.1328 139.993 96.1328 138.629V132.503C91.7462 132.436 87.5056 130.911 84.0748 128.166C80.644 125.421 78.2165 121.612 77.1725 117.334C77.1095 117.004 77.1121 116.664 77.1803 116.334C77.2485 116.005 77.381 115.692 77.57 115.414C77.7591 115.136 78.001 114.899 78.2818 114.715C78.5627 114.531 78.877 114.405 79.2066 114.344H83.4926C84.4231 114.351 85.3327 114.622 86.1167 115.125C86.9007 115.628 87.5271 116.343 87.9239 117.188C89.2632 119.415 91.1999 121.218 93.5124 122.392C95.8248 123.566 98.4196 124.062 101 123.825C108.264 123.825 113.858 119.449 113.858 115C113.858 110.552 110.662 107.926 102.889 106.103L94.8978 104.207C83.4926 101.8 78.1169 96.0388 78.1169 87.2144C78.3105 82.5241 80.2436 78.0759 83.5366 74.743C86.8295 71.4102 91.2446 69.4334 95.9149 69.2009ZM37 100.998C37.0083 87.5245 41.2451 74.3963 49.1086 63.4778C56.9722 52.5593 68.0626 44.4058 80.8048 40.1752C81.2673 40.011 81.7624 39.9612 82.2482 40.03C82.734 40.0989 83.1961 40.2843 83.5953 40.5705C83.9945 40.8568 84.3191 41.2355 84.5415 41.6745C84.7639 42.1135 84.8776 42.5999 84.8729 43.0924V44.7698C84.8705 46.1171 84.4685 47.4332 83.7181 48.5502C82.9677 49.6672 81.9029 50.5346 80.6595 51.0416C70.7769 55.0462 62.3119 61.9243 56.351 70.7931C50.3901 79.6619 47.2052 90.1167 47.2052 100.816C47.2052 111.515 50.3901 121.969 56.351 130.838C62.3119 139.707 70.7769 146.585 80.6595 150.59C81.9086 151.11 82.9759 151.99 83.726 153.12C84.4761 154.249 84.8753 155.577 84.8729 156.934V158.466C84.8729 159.336 84.5284 160.171 83.9154 160.787C83.3023 161.402 82.4708 161.748 81.6038 161.748H80.5868C67.8971 157.484 56.8625 149.325 49.0415 138.425C41.2205 127.524 37.0083 114.432 37 100.998ZM165 100.998C165.012 114.435 160.817 127.537 153.009 138.451C145.201 149.365 134.174 157.54 121.486 161.821C120.975 161.993 120.432 162.042 119.899 161.963C119.366 161.885 118.859 161.681 118.42 161.368C117.981 161.055 117.621 160.642 117.371 160.163C117.122 159.684 116.988 159.152 116.982 158.612V157.372C117.019 155.986 117.448 154.639 118.22 153.49C118.992 152.34 120.075 151.435 121.34 150.881C131.201 146.865 139.643 139.987 145.586 131.126C151.53 122.266 154.705 111.826 154.705 101.144C154.705 90.4614 151.53 80.022 145.586 71.1616C139.643 62.3011 131.201 55.4226 121.34 51.4063C120.05 50.8579 118.945 49.9465 118.159 48.7819C117.372 47.6173 116.938 46.2493 116.909 44.8427V43.7487C116.909 41.8526 118.435 40.3211 120.323 40.3211H121.413C134.091 44.5812 145.117 52.7286 152.937 63.6147C160.757 74.5008 164.976 87.5764 165 100.998Z" fill="white"/>
<defs>
<linearGradient id="paint0_linear_3094_33768" x1="101" y1="13" x2="101" y2="187" gradientUnits="userSpaceOnUse">
<stop stop-color="#2BCAD0"/>
<stop offset="1" stop-color="#8BC1E5"/>
</linearGradient>
<linearGradient id="paint1_linear_3094_33768" x1="101.286" y1="0.285553" x2="101.286" y2="201.285" gradientUnits="userSpaceOnUse">
<stop stop-color="#2BCAD0"/>
<stop offset="1" stop-color="#8BC1E5"/>
</linearGradient>
<linearGradient id="paint2_linear_3094_33768" x1="101.5" y1="1.52588e-05" x2="101.5" y2="201" gradientUnits="userSpaceOnUse">
<stop stop-color="#2BCAD0"/>
<stop offset="1" stop-color="#8BC1E5"/>
</linearGradient>
<linearGradient id="paint3_linear_3094_33768" x1="280.573" y1="100.817" x2="-37.6028" y2="100.817" gradientUnits="userSpaceOnUse">
<stop offset="0.239095" stop-color="#053542"/>
<stop offset="1" stop-color="#06657E"/>
</linearGradient>
<radialGradient id="paint4_radial_3094_33768" cx="0" cy="0" r="1" gradientUnits="userSpaceOnUse" gradientTransform="translate(101 100.579) rotate(-45) scale(100)">
<stop stop-color="#33F8FF"/>
<stop offset="1" stop-color="#065368"/>
</radialGradient>
</defs>
</svg>
