<svg xmlns="http://www.w3.org/2000/svg" fill="none" viewBox="0 0 24 24">
<path d="M23.1636 11.9402C23.1636 18.139 18.1385 23.1641 11.9397 23.1641C5.74092 23.1641 0.715817 18.139 0.715818 11.9402C0.715819 5.74141 5.74092 0.716309 11.9397 0.716311C18.1385 0.716312 23.1636 5.74141 23.1636 11.9402Z" fill="url(#paint0_linear_12102_3866)"/>
<g style="mix-blend-mode:lighten" opacity="0.7">
<path d="M11.9404 0.0690918C14.302 0.0690919 16.6105 0.769378 18.5741 2.0814C20.5377 3.39341 22.0681 5.25823 22.9718 7.44004C23.8756 9.62184 24.112 12.0226 23.6513 14.3388C23.1906 16.655 22.0534 18.7826 20.3835 20.4525L11.9404 12.0094V0.0690918Z" fill="url(#paint1_radial_12102_3866)"/>
</g>
<path fill-rule="evenodd" clip-rule="evenodd" d="M12 23.1C18.1304 23.1 23.1 18.1304 23.1 12C23.1 5.86964 18.1304 0.900003 12 0.900002C5.86964 0.900001 0.899999 5.86964 0.899998 12C0.899997 18.1304 5.86963 23.1 12 23.1ZM12 24C18.6274 24 24 18.6274 24 12C24 5.37259 18.6274 3.25295e-06 12 2.09559e-06C5.37258 9.38227e-07 -9.40518e-07 5.37258 -2.10071e-06 12C-3.2609e-06 18.6274 5.37258 24 12 24Z" fill="url(#paint2_linear_12102_3866)"/>
<path fill-rule="evenodd" clip-rule="evenodd" d="M13.4648 13.0495C13.3829 13.0556 12.9602 13.0809 12.0172 13.0809C11.2672 13.0809 10.7346 13.0584 10.5478 13.0495C7.64926 12.9216 5.48575 12.4157 5.48575 11.8099C5.48575 11.2042 7.64926 10.6989 10.5478 10.569V12.5456C10.7374 12.5593 11.2801 12.5914 12.0301 12.5914C12.9302 12.5914 13.3809 12.5538 13.462 12.5463V10.5704C16.3544 10.6996 18.5132 11.2055 18.5132 11.8099C18.5132 12.4143 16.3551 12.9202 13.462 13.0488L13.4648 13.0495ZM13.4648 10.3659V8.59722H17.5013V5.90002H6.51125V8.59722H10.5471V10.3653C7.26674 10.5164 4.7998 11.1679 4.7998 11.9487C4.7998 12.7295 7.26674 13.3804 10.5471 13.5322V19.2H13.4641V13.5301C16.737 13.379 19.1998 12.7281 19.1998 11.948C19.1998 11.1679 16.739 10.517 13.4641 10.3653L13.4648 10.3659Z" fill="white"/>
<defs>
<linearGradient id="paint0_linear_12102_3866" x1="33.3813" y1="12.0378" x2="-4.60989" y2="12.0378" gradientUnits="userSpaceOnUse">
<stop offset="0.239095" stop-color="#053542"/>
<stop offset="1" stop-color="#06657E"/>
</linearGradient>
<radialGradient id="paint1_radial_12102_3866" cx="0" cy="0" r="1" gradientUnits="userSpaceOnUse" gradientTransform="translate(11.9404 12.0095) rotate(-45) scale(11.9403)">
<stop stop-color="#33F8FF"/>
<stop offset="1" stop-color="#065368"/>
</radialGradient>
<linearGradient id="paint2_linear_12102_3866" x1="12" y1="2.09559e-06" x2="12" y2="24" gradientUnits="userSpaceOnUse">
<stop stop-color="#2BCAD0"/>
<stop offset="1" stop-color="#8BC1E5"/>
</linearGradient>
</defs>
</svg>