<svg width="202" height="202" viewBox="0 0 202 202" fill="none" xmlns="http://www.w3.org/2000/svg">
<circle cx="101" cy="100" r="87" fill="url(#paint0_linear_5255_52740)"/>
<ellipse cx="101.286" cy="100.786" rx="100.5" ry="100.5" transform="rotate(-30 101.286 100.786)" fill="url(#paint1_linear_5255_52740)"/>
<ellipse cx="101.5" cy="100.5" rx="100.5" ry="100.5" fill="url(#paint2_linear_5255_52740)"/>
<ellipse cx="101" cy="100" rx="94" ry="94" fill="url(#paint3_linear_5255_52740)"/>
<g style="mix-blend-mode:lighten" opacity="0.7">
<path d="M101 0.578648C120.778 0.578648 140.112 6.44355 156.557 17.4317C173.002 28.4198 185.819 44.0377 193.388 62.3103C200.957 80.5829 202.937 100.69 199.079 120.088C195.22 139.486 185.696 157.304 171.711 171.289L101 100.579L101 0.578648Z" fill="url(#paint4_radial_5255_52740)"/>
</g>
<path d="M164.08 41.9694L158.588 47.4609C171.692 61.7906 178.958 80.5052 178.958 99.9229C178.958 119.34 171.692 138.055 158.588 152.385L164.08 157.876C178.652 142.07 186.743 121.358 186.743 99.8588C186.743 78.3597 178.652 57.6479 164.08 41.8412V41.9694Z" fill="#E6EAEB"/>
<path d="M48.5913 42.4449C62.921 29.3414 81.6357 22.0747 101.053 22.0747C120.471 22.0747 139.186 29.3414 153.515 42.4449L159.007 36.9534C143.2 22.3809 122.488 14.2903 100.989 14.2903C79.4902 14.2903 58.7784 22.3809 42.9717 36.9534L48.5913 42.4449Z" fill="#E6EAEB"/>
<path d="M43.4493 152.442C30.3612 138.116 23.1042 119.413 23.1042 100.008C23.1042 80.6031 30.3612 61.8998 43.4493 47.5733L37.9578 42.0818C23.3852 57.8885 15.2947 78.6003 15.2947 100.099C15.2947 121.598 23.3852 142.31 37.9578 158.117L43.4493 152.442Z" fill="#E6EAEB"/>
<path d="M153.444 157.516C139.114 170.619 120.399 177.886 100.982 177.886C81.5642 177.886 62.8495 170.619 48.5198 157.516L43.0283 163.007C58.835 177.58 79.5468 185.67 101.046 185.67C122.545 185.67 143.257 177.58 159.063 163.007L153.444 157.516Z" fill="#E6EAEB"/>
<path d="M135.669 81.6769C134.571 70.218 124.686 66.374 112.184 65.2025V49.4236H102.519V64.9096C99.9744 64.9096 97.3751 64.9096 94.7941 64.9096V49.4236H85.2023V65.3123H65.5977V75.6546C65.5977 75.6546 72.7366 75.5265 72.6268 75.6546C73.914 75.513 75.2059 75.8766 76.2303 76.6688C77.2547 77.461 77.9315 78.6199 78.1183 79.9014V123.394C78.0908 123.846 77.9729 124.288 77.7717 124.693C77.5705 125.099 77.29 125.46 76.9467 125.755C76.61 126.056 76.2158 126.286 75.788 126.431C75.3602 126.575 74.9076 126.632 74.4573 126.597C74.5854 126.707 67.4282 126.597 67.4282 126.597L65.5977 138.148H85.0192V154.293H94.6843V138.386H102.409V154.219H112.092V138.258C128.42 137.269 139.806 133.242 141.234 117.957C142.387 105.656 136.603 100.165 127.359 97.95C132.978 95.186 136.456 90.0606 135.669 81.6769ZM122.123 116.054C122.123 128.062 101.549 126.689 94.9954 126.689V105.382C101.549 105.4 122.123 103.515 122.123 116.054ZM117.639 86.0335C117.639 97.0165 100.469 95.6802 95.0137 95.6802V76.3136C100.469 76.3136 117.639 74.5929 117.639 86.0335Z" fill="white"/>
<defs>
<linearGradient id="paint0_linear_5255_52740" x1="101" y1="13" x2="101" y2="187" gradientUnits="userSpaceOnUse">
<stop stop-color="#2BCAD0"/>
<stop offset="1" stop-color="#8BC1E5"/>
</linearGradient>
<linearGradient id="paint1_linear_5255_52740" x1="101.286" y1="0.285553" x2="101.286" y2="201.285" gradientUnits="userSpaceOnUse">
<stop stop-color="#2BCAD0"/>
<stop offset="1" stop-color="#8BC1E5"/>
</linearGradient>
<linearGradient id="paint2_linear_5255_52740" x1="101.5" y1="1.52588e-05" x2="101.5" y2="201" gradientUnits="userSpaceOnUse">
<stop stop-color="#2BCAD0"/>
<stop offset="1" stop-color="#8BC1E5"/>
</linearGradient>
<linearGradient id="paint3_linear_5255_52740" x1="280.573" y1="100.817" x2="-37.6028" y2="100.817" gradientUnits="userSpaceOnUse">
<stop offset="0.239095" stop-color="#053542"/>
<stop offset="1" stop-color="#06657E"/>
</linearGradient>
<radialGradient id="paint4_radial_5255_52740" cx="0" cy="0" r="1" gradientUnits="userSpaceOnUse" gradientTransform="translate(101 100.579) rotate(-45) scale(100)">
<stop stop-color="#33F8FF"/>
<stop offset="1" stop-color="#065368"/>
</radialGradient>
</defs>
</svg>
