<svg xmlns="http://www.w3.org/2000/svg" fill="none" viewBox="0 0 24 24">
<path d="M23.1636 11.9402C23.1636 18.139 18.1385 23.1641 11.9397 23.1641C5.74092 23.1641 0.715817 18.139 0.715818 11.9402C0.715819 5.74141 5.74092 0.716309 11.9397 0.716311C18.1385 0.716312 23.1636 5.74141 23.1636 11.9402Z" fill="url(#paint0_linear_12222_16903)"/>
<g style="mix-blend-mode:lighten" opacity="0.7">
<path d="M11.9404 0.0690918C14.302 0.0690919 16.6105 0.769378 18.5741 2.0814C20.5377 3.39341 22.0681 5.25823 22.9718 7.44004C23.8756 9.62184 24.112 12.0226 23.6513 14.3388C23.1906 16.655 22.0534 18.7826 20.3835 20.4525L11.9404 12.0094V0.0690918Z" fill="url(#paint1_radial_12222_16903)"/>
</g>
<path fill-rule="evenodd" clip-rule="evenodd" d="M12 23.1C18.1304 23.1 23.1 18.1304 23.1 12C23.1 5.86964 18.1304 0.900003 12 0.900002C5.86964 0.900001 0.899999 5.86964 0.899998 12C0.899997 18.1304 5.86963 23.1 12 23.1ZM12 24C18.6274 24 24 18.6274 24 12C24 5.37259 18.6274 3.25295e-06 12 2.09559e-06C5.37258 9.38227e-07 -9.40518e-07 5.37258 -2.10071e-06 12C-3.2609e-06 18.6274 5.37258 24 12 24Z" fill="url(#paint2_linear_12222_16903)"/>
<path d="M7.07757 11.1481L6.94322 11.3542C5.42794 13.6786 5.76638 16.7229 7.75688 18.6732C8.92786 19.8206 10.4626 20.3943 11.9974 20.3945C11.9974 20.3945 11.9974 20.3945 7.07757 11.1481Z" fill="white"/>
<path d="M16.9227 11.1481L17.0571 11.3542C18.5724 13.6786 18.2339 16.7229 16.2434 18.6732C15.0724 19.8206 13.5377 20.3943 12.0029 20.3945C12.0029 20.3945 12.0029 20.3945 16.9227 11.1481Z" fill="#999999"/>
<path d="M12.002 13.9583L16.9218 11.1481C12.002 20.3945 12.002 20.3945 12.002 20.3945C12.002 18.3807 12.002 16.0731 12.002 13.9583Z" fill="#333333"/>
<path d="M12.0029 7.67926V12.5261L16.2408 10.1042L12.0029 7.67926Z" fill="#333333"/>
<path d="M12.0036 7.67932L7.7627 10.1043L12.0036 12.5261V7.67932Z" fill="#999999"/>
<path d="M12.0036 3.60352L7.7627 10.1062L12.0036 7.67447V3.60352Z" fill="white"/>
<path d="M12.0029 7.67334L16.244 10.1052L12.0029 3.59924V7.67334Z" fill="#999999"/>
<path d="M11.997 13.9583L7.07715 11.1481C11.997 20.3945 11.997 20.3945 11.997 20.3945C11.997 18.3807 11.997 16.0731 11.997 13.9583Z" fill="#999999"/>
<defs>
<linearGradient id="paint0_linear_12222_16903" x1="33.3813" y1="12.0378" x2="-4.60989" y2="12.0378" gradientUnits="userSpaceOnUse">
<stop offset="0.239095" stop-color="#053542"/>
<stop offset="1" stop-color="#06657E"/>
</linearGradient>
<radialGradient id="paint1_radial_12222_16903" cx="0" cy="0" r="1" gradientUnits="userSpaceOnUse" gradientTransform="translate(11.9404 12.0095) rotate(-45) scale(11.9403)">
<stop stop-color="#33F8FF"/>
<stop offset="1" stop-color="#065368"/>
</radialGradient>
<linearGradient id="paint2_linear_12222_16903" x1="12" y1="2.09559e-06" x2="12" y2="24" gradientUnits="userSpaceOnUse">
<stop stop-color="#2BCAD0"/>
<stop offset="1" stop-color="#8BC1E5"/>
</linearGradient>
</defs>
</svg>