<svg width="48" height="48" viewBox="0 0 48 48" fill="none" xmlns="http://www.w3.org/2000/svg">
<g clip-path="url(#clip0_9214_51976)">
<mask id="mask0_9214_51976" style="mask-type:luminance" maskUnits="userSpaceOnUse" x="0" y="0" width="48" height="48">
<path d="M48 0H0V48H48V0Z" fill="white"/>
</mask>
<g mask="url(#mask0_9214_51976)">
<path d="M24 48C37.2548 48 48 37.2548 48 24C48 10.7452 37.2548 0 24 0C10.7452 0 0 10.7452 0 24C0 37.2548 10.7452 48 24 48Z" fill="url(#paint0_linear_9214_51976)"/>
<mask id="mask1_9214_51976" style="mask-type:luminance" maskUnits="userSpaceOnUse" x="8" y="10" width="32" height="28">
<path d="M39.7218 10.7998H8.3999V37.1998H39.7218V10.7998Z" fill="white"/>
</mask>
<g mask="url(#mask1_9214_51976)">
<g opacity="0.8">
<path fill-rule="evenodd" clip-rule="evenodd" d="M39.7218 32.192L34.8563 24.0135H28.7356L33.6556 32.192H21.415C17.0049 32.192 13.6764 28.4878 13.6764 24.013C13.6764 19.5382 17.0063 15.8332 21.415 15.8332H31.9372L28.9413 10.7998H21.415C14.3486 10.7998 8.3999 16.7346 8.3999 24.013C8.3999 31.2915 14.3534 37.1998 21.415 37.1998H39.7218M23.2674 20.2868C23.2674 21.6768 22.1723 22.8035 20.8216 22.8035C19.4708 22.8035 18.3758 21.6768 18.3758 20.2868C18.3758 18.8968 19.4708 17.7701 20.8216 17.7701C22.1723 17.7701 23.2674 18.8968 23.2674 20.2868ZM20.8216 29.7737C22.1723 29.7737 23.2674 28.6472 23.2674 27.2571C23.2674 25.867 22.1723 24.7404 20.8216 24.7404C19.4708 24.7404 18.3758 25.867 18.3758 27.2571C18.3758 28.6472 19.4708 29.7737 20.8216 29.7737Z" fill="white"/>
</g>
</g>
</g>
</g>
<defs>
<linearGradient id="paint0_linear_9214_51976" x1="24" y1="0" x2="24" y2="48" gradientUnits="userSpaceOnUse">
<stop stop-color="#B3B2D3"/>
<stop offset="0.526042" stop-color="#8C8ADA"/>
<stop offset="1" stop-color="#6D69DE"/>
</linearGradient>
<clipPath id="clip0_9214_51976">
<rect width="48" height="48" fill="white"/>
</clipPath>
</defs>
</svg>
