<svg xmlns="http://www.w3.org/2000/svg" fill="none" viewBox="0 0 24 24">
<path d="M20.9444 19.9999C18.7471 22.4549 15.554 23.9999 12 23.9999C5.37258 23.9999 0 18.6273 0 11.9999C0 8.82027 1.23667 5.92946 3.25527 3.78223L20.9444 19.9999Z" fill="url(#paint0_radial_12104_4250)"/>
<path d="M23.9986 12C23.9986 15.0734 22.8432 17.877 20.9431 20L12 12L3.25391 3.7823C5.44271 1.45402 8.55087 0 11.9986 0C18.6261 0 23.9986 5.37258 23.9986 12Z" fill="url(#paint1_radial_12104_4250)"/>
<path d="M17.9857 12C17.9857 10.7825 17.6199 9.64963 16.9934 8.70304L18.8518 6.84457L17.1805 5.17323L15.3271 7.02661C14.3754 6.38737 13.2307 6.01398 12.0005 6.01398C10.783 6.01398 9.65011 6.37975 8.70352 7.00629L6.84421 5.14783L5.17286 6.81917L7.02624 8.67256C6.387 9.62423 6.01361 10.7689 6.01361 11.9992C6.01361 13.2167 6.37938 14.3495 7.00592 15.2961L5.14746 17.1554L6.81881 18.8268L8.67219 16.9734C9.62386 17.6127 10.7686 17.986 11.9988 17.986C13.2163 17.986 14.3492 17.6203 15.2958 16.9937L17.1551 18.853L18.8264 17.1817L16.973 15.3283C17.6123 14.3749 17.9857 13.2302 17.9857 12ZM8.37839 12C8.37839 10.0027 10.0032 8.37791 12.0005 8.37791C13.9978 8.37791 15.6226 10.0027 15.6226 12C15.6226 13.9973 13.9978 15.6221 12.0005 15.6221C10.0032 15.6221 8.37839 13.9973 8.37839 12Z" fill="white"/>
<defs>
<radialGradient id="paint0_radial_12104_4250" cx="0" cy="0" r="1" gradientUnits="userSpaceOnUse" gradientTransform="translate(4.01039 5.00681) rotate(43.8088) scale(21.435 21.4799)">
<stop stop-color="#2EE1E8"/>
<stop offset="1" stop-color="#209C9A"/>
</radialGradient>
<radialGradient id="paint1_radial_12104_4250" cx="0" cy="0" r="1" gradientUnits="userSpaceOnUse" gradientTransform="translate(20.5 16) rotate(-138.366) scale(18.0624)">
<stop stop-color="#2EDFE6"/>
<stop offset="1" stop-color="#209D9B"/>
</radialGradient>
</defs>
</svg>