<svg xmlns="http://www.w3.org/2000/svg" fill="none" viewBox="0 0 24 24">
<path d="M20.9444 19.9999C18.7471 22.4549 15.554 23.9999 12 23.9999C5.37258 23.9999 0 18.6273 0 11.9999C0 8.82027 1.23667 5.92946 3.25527 3.78223L20.9444 19.9999Z" fill="url(#paint0_radial_14896_14016)"/>
<path d="M23.9986 12C23.9986 15.0734 22.8432 17.877 20.9431 20L12 12L3.25391 3.7823C5.44271 1.45402 8.55087 0 11.9986 0C18.6261 0 23.9986 5.37258 23.9986 12Z" fill="url(#paint1_radial_14896_14016)"/>
<path d="M7.58691 10.43C7.58691 11.5092 8.46131 12.3836 9.54051 12.3836C10.6197 12.3836 11.4941 11.5092 11.4941 10.43C11.4941 9.35084 10.6197 8.47644 9.54051 8.47644C8.46131 8.47644 7.58691 9.35084 7.58691 10.43Z" fill="white"/>
<path d="M12.5107 10.43C12.5107 11.5092 13.3851 12.3836 14.4643 12.3836C15.5435 12.3836 16.4179 11.5092 16.4179 10.43C16.4179 9.35084 15.5435 8.47644 14.4643 8.47644C13.3851 8.47644 12.5107 9.35084 12.5107 10.43Z" fill="white"/>
<path d="M21.2586 19.6316V12.9732H18.7466C18.2386 16.3316 15.4682 18.778 12.0002 18.778C8.16823 18.778 5.10663 15.7916 5.10663 11.8868C5.10663 7.98201 8.16823 4.93961 12.001 4.93961C15.3418 4.93961 18.0954 7.25241 18.7482 10.4316H21.2602C20.573 5.91161 16.629 2.45001 12.0002 2.45001C6.88583 2.45001 2.74023 6.67561 2.74023 11.886C2.74023 17.0964 6.88583 21.322 12.0002 21.322C15.2186 21.322 17.4626 19.8316 18.8394 17.4844C18.8722 17.494 18.9058 17.5012 18.937 17.5108V21.7892C19.8034 21.1748 20.5842 20.4484 21.2586 19.6308V19.6316Z" fill="white"/>
<defs>
<radialGradient id="paint0_radial_14896_14016" cx="0" cy="0" r="1" gradientUnits="userSpaceOnUse" gradientTransform="translate(4.01039 5.00681) rotate(43.8088) scale(21.435 21.4799)">
<stop stop-color="#2EE1E8"/>
<stop offset="1" stop-color="#209C9A"/>
</radialGradient>
<radialGradient id="paint1_radial_14896_14016" cx="0" cy="0" r="1" gradientUnits="userSpaceOnUse" gradientTransform="translate(20.5 16) rotate(-138.366) scale(18.0624)">
<stop stop-color="#2EDFE6"/>
<stop offset="1" stop-color="#209D9B"/>
</radialGradient>
</defs>
</svg>