<svg width="24" height="24" viewBox="0 0 24 24" fill="none" xmlns="http://www.w3.org/2000/svg">
<path d="M20.9444 19.9999C18.7471 22.4549 15.554 23.9999 12 23.9999C5.37258 23.9999 0 18.6273 0 11.9999C0 8.82027 1.23667 5.92946 3.25527 3.78223L20.9444 19.9999Z" fill="url(#paint0_radial_3246_1740)"/>
<path d="M23.9986 12C23.9986 15.0734 22.8432 17.877 20.9431 20L12 12L3.25391 3.7823C5.44271 1.45402 8.55087 0 11.9986 0C18.6261 0 23.9986 5.37258 23.9986 12Z" fill="url(#paint1_radial_3246_1740)"/>
<mask id="mask0_3246_1740" style="mask-type:luminance" maskUnits="userSpaceOnUse" x="4" y="5" width="16" height="14">
<path d="M19.8602 5.40039H4.19922V18.6004H19.8602V5.40039Z" fill="white"/>
</mask>
<g mask="url(#mask0_3246_1740)">
<path fill-rule="evenodd" clip-rule="evenodd" d="M19.8602 16.0965L17.4274 12.0072H14.3671L16.8271 16.0965H10.7068C8.5017 16.0965 6.83745 14.2444 6.83745 12.007C6.83745 9.7696 8.50242 7.91707 10.7068 7.91707H15.9679L14.4699 5.40039H10.7068C7.17357 5.40039 4.19922 8.36777 4.19922 12.007C4.19922 15.6462 7.17597 18.6004 10.7068 18.6004H19.8602M11.6329 10.1439C11.6329 10.8389 11.0854 11.4022 10.41 11.4022C9.73469 11.4022 9.18715 10.8389 9.18715 10.1439C9.18715 9.44887 9.73469 8.88554 10.41 8.88554C11.0854 8.88554 11.6329 9.44887 11.6329 10.1439ZM10.41 14.8874C11.0854 14.8874 11.6329 14.3241 11.6329 13.629C11.6329 12.934 11.0854 12.3707 10.41 12.3707C9.73469 12.3707 9.18715 12.934 9.18715 13.629C9.18715 14.3241 9.73469 14.8874 10.41 14.8874Z" fill="white"/>
</g>
<defs>
<radialGradient id="paint0_radial_3246_1740" cx="0" cy="0" r="1" gradientUnits="userSpaceOnUse" gradientTransform="translate(4.01039 5.00681) rotate(43.8088) scale(21.435 21.4799)">
<stop stop-color="#2EE1E8"/>
<stop offset="1" stop-color="#209C9A"/>
</radialGradient>
<radialGradient id="paint1_radial_3246_1740" cx="0" cy="0" r="1" gradientUnits="userSpaceOnUse" gradientTransform="translate(20.5 16) rotate(-138.366) scale(18.0624)">
<stop stop-color="#2EDFE6"/>
<stop offset="1" stop-color="#209D9B"/>
</radialGradient>
</defs>
</svg>
