<svg xmlns="http://www.w3.org/2000/svg" fill="none" viewBox="-1.12 -1.15 26.28 26.28">
<path d="M20.9444 19.9999C18.7471 22.4549 15.554 23.9999 12 23.9999C5.37258 23.9999 0 18.6273 0 11.9999C0 8.82027 1.23667 5.92946 3.25527 3.78223L20.9444 19.9999Z" fill="url(#paint0_radial_12154_13833)"/>
<path d="M23.9986 12C23.9986 15.0734 22.8432 17.877 20.9431 20L12 12L3.25391 3.7823C5.44271 1.45402 8.55087 0 11.9986 0C18.6261 0 23.9986 5.37258 23.9986 12Z" fill="url(#paint1_radial_12154_13833)"/>
<mask id="mask0_12154_13833" style="mask-type:alpha" maskUnits="userSpaceOnUse" x="7" y="3" width="10" height="17">
<path d="M12 14.8309L7 11.8731L12 3.57874L16.9955 11.8731L12 14.8309Z" fill="white"/>
<path d="M12 19.8669L7 12.8247L12 15.778L17 12.8247L12 19.8669Z" fill="white"/>
</mask>
<g mask="url(#mask0_12154_13833)">
<path d="M12.0188 25.1371C19.2768 25.1371 25.1606 19.2533 25.1606 11.9953C25.1606 4.73732 19.2768 -1.14648 12.0188 -1.14648C4.76076 -1.14648 -1.12305 4.73732 -1.12305 11.9953C-1.12305 19.2533 4.76076 25.1371 12.0188 25.1371Z" fill="url(#paint2_radial_12154_13833)"/>
<mask id="mask1_12154_13833" style="mask-type:alpha" maskUnits="userSpaceOnUse" x="-2" y="-2" width="28" height="28">
<path d="M12.0188 25.1371C19.2768 25.1371 25.1606 19.2533 25.1606 11.9953C25.1606 4.73732 19.2768 -1.14648 12.0188 -1.14648C4.76076 -1.14648 -1.12305 4.73732 -1.12305 11.9953C-1.12305 19.2533 4.76076 25.1371 12.0188 25.1371Z" fill="url(#paint3_radial_12154_13833)"/>
</mask>
<g mask="url(#mask1_12154_13833)">
<path opacity="0.2" d="M14.7363 16.6825C14.7363 16.3922 14.9717 16.1568 15.262 16.1568H24.6365C24.9268 16.1568 25.1622 16.3922 25.1622 16.6825V21.2383C25.1622 21.5286 24.9268 21.764 24.6365 21.764H15.262C14.9717 21.764 14.7363 21.5286 14.7363 21.2383V16.6825Z" fill="#E74310"/>
<path opacity="0.2" d="M20.8252 18.0843C21.1155 18.0843 21.3509 18.3197 21.3509 18.61V27.4588C21.3509 27.7491 21.1155 27.9845 20.8252 27.9845H17.3645C17.0742 27.9845 16.8389 27.7491 16.8389 27.4588V18.61C16.8389 18.3197 17.0742 18.0843 17.3645 18.0843H20.8252Z" fill="#DF3600"/>
<path opacity="0.1" d="M9.52207 7.39557C9.81237 7.39557 10.0477 7.63094 10.0477 7.92124V14.974C10.0477 15.2643 9.81237 15.4997 9.52207 15.4997H5.62333C5.33303 15.4997 5.09766 15.2643 5.09766 14.974V7.92124C5.09766 7.63094 5.33303 7.39557 5.62333 7.39557H9.52207Z" fill="url(#paint4_linear_12154_13833)"/>
<path opacity="0.1" d="M1.375 9.49833C1.375 9.20803 1.61035 8.97266 1.90067 8.97266H8.29636C8.58666 8.97266 8.82203 9.20803 8.82203 9.49833V16.2007C8.82203 16.491 8.58666 16.7263 8.29636 16.7263H1.90067C1.61035 16.7263 1.375 16.491 1.375 16.2007V9.49833Z" fill="url(#paint5_linear_12154_13833)"/>
<path opacity="0.2" d="M25.1619 2.4455C25.4522 2.4455 25.6876 2.68085 25.6876 2.97117V11.82C25.6876 12.1103 25.4522 12.3457 25.1619 12.3457H17.014C16.7237 12.3457 16.4883 12.1103 16.4883 11.82V2.97117C16.4883 2.68085 16.7237 2.4455 17.014 2.4455H25.1619Z" fill="#FF9776"/>
<path opacity="0.2" d="M20.2114 -3.4245C20.5017 -3.4245 20.7371 -3.18915 20.7371 -2.89883V6.82612C20.7371 7.11642 20.5017 7.35179 20.2114 7.35179H15.6556C15.3653 7.35179 15.1299 7.11642 15.1299 6.82612V-2.89883C15.1299 -3.18915 15.3653 -3.4245 15.6556 -3.4245H20.2114Z" fill="#FFCA8C"/>
<path opacity="0.2" d="M22.5762 -1.6723C22.8665 -1.6723 23.1019 -1.43695 23.1019 -1.14663V9.67346C23.1019 9.96377 22.8665 10.1991 22.5762 10.1991H12.6761C12.3858 10.1991 12.1504 9.96377 12.1504 9.67346V-1.14663C12.1504 -1.43695 12.3858 -1.6723 12.6761 -1.6723H22.5762Z" fill="url(#paint6_linear_12154_13833)"/>
<path opacity="0.1" d="M8.16408 -4.73871C8.45439 -4.73871 8.68976 -4.50336 8.68976 -4.21304V3.05877C8.68976 3.34907 8.45439 3.58444 8.16408 3.58444H4.70341C4.4131 3.58444 4.17773 3.34907 4.17773 3.05877V-4.21304C4.17773 -4.50336 4.4131 -4.73871 4.70341 -4.73871H8.16408Z" fill="#DF3600"/>
<path opacity="0.1" d="M8.5592 17.8214C8.84951 17.8214 9.08488 18.0568 9.08488 18.3471V24.6113C9.08488 24.9017 8.84951 25.137 8.5592 25.137H-0.245812C-0.536132 25.137 -0.771484 24.9017 -0.771484 24.6113L-0.771484 18.3471C-0.771484 18.0568 -0.536132 17.8214 -0.245812 17.8214H8.5592Z" fill="#DF3600"/>
<path opacity="0.1" d="M16.313 14.317C16.6033 14.317 16.8386 14.5523 16.8386 14.8426V24.6114C16.8386 24.9017 16.6033 25.137 16.313 25.137H6.23759C5.94728 25.137 5.71191 24.9017 5.71191 24.6114V14.8426C5.71191 14.5523 5.94728 14.317 6.23759 14.317H16.313Z" fill="#FFD494"/>
<path opacity="0.1" d="M4.69306 24.8811L24.3799 5.19427L23.7047 4.51909L4.01787 24.2059L4.69306 24.8811Z" fill="#DF3600"/>
<path opacity="0.1" d="M3.2165 23.4481L22.9033 3.76123L22.0242 2.88216L2.33743 22.569L3.2165 23.4481Z" fill="#DF3600"/>
<path opacity="0.1" d="M2.38447 22.5295L22.0713 2.84271L21.1922 1.96364L1.5054 21.6505L2.38447 22.5295Z" fill="#F45C2C"/>
<path opacity="0.2" d="M1.59638 21.5658L21.2832 1.87897L20.5597 1.15547L0.872885 20.8423L1.59638 21.5658Z" fill="#F45C2C"/>
<path opacity="0.1" d="M0.870795 20.8408L20.5576 1.15393L19.8341 0.430435L0.147299 20.1173L0.870795 20.8408Z" fill="#FFBC6E"/>
<path opacity="0.1" d="M0.390326 19.8769L20.0771 0.190125L19.3537 -0.533371L-0.33317 19.1535L0.390326 19.8769Z" fill="#DF3600"/>
<path opacity="0.09" d="M-1.93145 14.0946L13.5918 -1.42865L12.8683 -2.15215L-2.65494 13.3711L-1.93145 14.0946Z" fill="#FFD5A4"/>
<path opacity="0.08" d="M-2.76445 13.2165L12.7588 -2.3067L12.0353 -3.0302L-3.48795 12.493L-2.76445 13.2165Z" fill="#FFD5A4"/>
<path opacity="0.05" d="M-3.50859 12.2089L12.0146 -3.31433L11.2912 -4.03783L-4.23209 11.4854L-3.50859 12.2089Z" fill="#FFD5A4"/>
<path opacity="0.2" d="M-0.705101 16.2044L17.3242 -1.82489L16.6007 -2.54839L-1.4286 15.4809L-0.705101 16.2044Z" fill="#FFD5A4"/>
<path opacity="0.2" d="M-0.223656 17.3434L17.8057 -0.685913L17.0822 -1.40941L-0.947152 16.6199L-0.223656 17.3434Z" fill="#FFD5A4"/>
<path opacity="0.1" d="M-1.01136 14.8831L14.9902 -1.11853L14.2667 -1.84203L-1.73486 14.1596L-1.01136 14.8831Z" fill="#FFD5A4"/>
<path opacity="0.1" d="M4.66377 24.8958L24.3506 5.20898L22.9072 3.76557L3.22036 23.4524L4.66377 24.8958Z" fill="#DF3600"/>
<path opacity="0.1" d="M4.66377 24.8958L24.3506 5.20898L22.8998 3.75822L3.213 23.445L4.66377 24.8958Z" fill="#DF3600"/>
</g>
</g>
<defs>
<radialGradient id="paint0_radial_12154_13833" cx="0" cy="0" r="1" gradientUnits="userSpaceOnUse" gradientTransform="translate(4.01039 5.00681) rotate(43.8088) scale(21.435 21.4799)">
<stop stop-color="#2EE1E8"/>
<stop offset="1" stop-color="#209C9A"/>
</radialGradient>
<radialGradient id="paint1_radial_12154_13833" cx="0" cy="0" r="1" gradientUnits="userSpaceOnUse" gradientTransform="translate(20.5 16) rotate(-138.366) scale(18.0624)">
<stop stop-color="#2EDFE6"/>
<stop offset="1" stop-color="#209D9B"/>
</radialGradient>
<radialGradient id="paint2_radial_12154_13833" cx="0" cy="0" r="1" gradientUnits="userSpaceOnUse" gradientTransform="translate(7.46294 5.13968) rotate(54.1675) scale(21.7752)">
<stop stop-color="#FFD794"/>
<stop offset="1" stop-color="#ED5A37"/>
</radialGradient>
<radialGradient id="paint3_radial_12154_13833" cx="0" cy="0" r="1" gradientUnits="userSpaceOnUse" gradientTransform="translate(7.46294 5.13968) rotate(54.1675) scale(21.7752)">
<stop stop-color="#FFD794"/>
<stop offset="1" stop-color="#ED5A37"/>
</radialGradient>
<linearGradient id="paint4_linear_12154_13833" x1="7.55079" y1="7.39557" x2="7.55079" y2="14.8864" gradientUnits="userSpaceOnUse">
<stop stop-color="#DF3600"/>
<stop offset="1" stop-color="#DF3600" stop-opacity="0"/>
</linearGradient>
<linearGradient id="paint5_linear_12154_13833" x1="1.375" y1="12.8838" x2="8.25846" y2="12.8838" gradientUnits="userSpaceOnUse">
<stop stop-color="#DF3600"/>
<stop offset="1" stop-color="#DF3600" stop-opacity="0"/>
</linearGradient>
<linearGradient id="paint6_linear_12154_13833" x1="17.6261" y1="-1.6723" x2="17.6261" y2="10.1991" gradientUnits="userSpaceOnUse">
<stop stop-color="#DF3600"/>
<stop offset="1" stop-color="#DF3600" stop-opacity="0"/>
</linearGradient>
</defs>
</svg>