<svg xmlns="http://www.w3.org/2000/svg" fill="none" viewBox="0 0 24 24">
<path d="M20.9444 19.9999C18.7471 22.4549 15.554 23.9999 12 23.9999C5.37258 23.9999 0 18.6273 0 11.9999C0 8.82027 1.23667 5.92946 3.25527 3.78223L20.9444 19.9999Z" fill="url(#paint0_radial_12104_4246)"/>
<path d="M23.9986 12C23.9986 15.0734 22.8432 17.877 20.9431 20L12 12L3.25391 3.7823C5.44271 1.45402 8.55087 0 11.9986 0C18.6261 0 23.9986 5.37258 23.9986 12Z" fill="url(#paint1_radial_12104_4246)"/>
<path fill-rule="evenodd" clip-rule="evenodd" d="M13.4648 13.0495C13.3829 13.0556 12.9602 13.0809 12.0172 13.0809C11.2672 13.0809 10.7346 13.0584 10.5478 13.0495C7.64926 12.9216 5.48575 12.4157 5.48575 11.8099C5.48575 11.2042 7.64926 10.6989 10.5478 10.569V12.5456C10.7374 12.5593 11.2801 12.5914 12.0301 12.5914C12.9302 12.5914 13.3809 12.5538 13.462 12.5463V10.5704C16.3544 10.6996 18.5132 11.2055 18.5132 11.8099C18.5132 12.4143 16.3551 12.9202 13.462 13.0488L13.4648 13.0495ZM13.4648 10.3659V8.59722H17.5013V5.90002H6.51125V8.59722H10.5471V10.3653C7.26674 10.5164 4.7998 11.1679 4.7998 11.9487C4.7998 12.7295 7.26674 13.3804 10.5471 13.5322V19.2H13.4641V13.5301C16.737 13.379 19.1998 12.7281 19.1998 11.948C19.1998 11.1679 16.739 10.517 13.4641 10.3653L13.4648 10.3659Z" fill="white"/>
<defs>
<radialGradient id="paint0_radial_12104_4246" cx="0" cy="0" r="1" gradientUnits="userSpaceOnUse" gradientTransform="translate(4.01039 5.00681) rotate(43.8088) scale(21.435 21.4799)">
<stop stop-color="#2EE1E8"/>
<stop offset="1" stop-color="#209C9A"/>
</radialGradient>
<radialGradient id="paint1_radial_12104_4246" cx="0" cy="0" r="1" gradientUnits="userSpaceOnUse" gradientTransform="translate(20.5 16) rotate(-138.366) scale(18.0624)">
<stop stop-color="#2EDFE6"/>
<stop offset="1" stop-color="#209D9B"/>
</radialGradient>
</defs>
</svg>