<svg xmlns="http://www.w3.org/2000/svg" fill="none" viewBox="0 0 24 24">
<path d="M20.9444 19.9999C18.7471 22.4549 15.554 23.9999 12 23.9999C5.37258 23.9999 0 18.6273 0 11.9999C0 8.82027 1.23667 5.92946 3.25527 3.78223L20.9444 19.9999Z" fill="url(#paint0_radial_12222_16891)"/>
<path d="M23.9986 12C23.9986 15.0734 22.8432 17.877 20.9431 20L12 12L3.25391 3.7823C5.44271 1.45402 8.55087 0 11.9986 0C18.6261 0 23.9986 5.37258 23.9986 12Z" fill="url(#paint1_radial_12222_16891)"/>
<path d="M7.07757 11.1481L6.94322 11.3542C5.42794 13.6786 5.76638 16.7229 7.75688 18.6732C8.92786 19.8206 10.4626 20.3943 11.9974 20.3945C11.9974 20.3945 11.9974 20.3945 7.07757 11.1481Z" fill="white"/>
<path d="M16.9227 11.1481L17.0571 11.3542C18.5724 13.6786 18.2339 16.7229 16.2434 18.6732C15.0724 19.8206 13.5377 20.3943 12.0029 20.3945C12.0029 20.3945 12.0029 20.3945 16.9227 11.1481Z" fill="#999999"/>
<path d="M12.002 13.9583L16.9218 11.1481C12.002 20.3945 12.002 20.3945 12.002 20.3945C12.002 18.3807 12.002 16.0731 12.002 13.9583Z" fill="#333333"/>
<path d="M12.0029 7.67926V12.5261L16.2408 10.1042L12.0029 7.67926Z" fill="#333333"/>
<path d="M12.0036 7.67932L7.7627 10.1043L12.0036 12.5261V7.67932Z" fill="#999999"/>
<path d="M12.0036 3.60352L7.7627 10.1062L12.0036 7.67447V3.60352Z" fill="white"/>
<path d="M12.0029 7.67334L16.244 10.1052L12.0029 3.59924V7.67334Z" fill="#999999"/>
<path d="M11.997 13.9583L7.07715 11.1481C11.997 20.3945 11.997 20.3945 11.997 20.3945C11.997 18.3807 11.997 16.0731 11.997 13.9583Z" fill="#999999"/>
<defs>
<radialGradient id="paint0_radial_12222_16891" cx="0" cy="0" r="1" gradientUnits="userSpaceOnUse" gradientTransform="translate(4.01039 5.00681) rotate(43.8088) scale(21.435 21.4799)">
<stop stop-color="#2EE1E8"/>
<stop offset="1" stop-color="#209C9A"/>
</radialGradient>
<radialGradient id="paint1_radial_12222_16891" cx="0" cy="0" r="1" gradientUnits="userSpaceOnUse" gradientTransform="translate(20.5 16) rotate(-138.366) scale(18.0624)">
<stop stop-color="#2EDFE6"/>
<stop offset="1" stop-color="#209D9B"/>
</radialGradient>
</defs>
</svg>