<svg xmlns="http://www.w3.org/2000/svg" fill="none" viewBox="-4.51 0 32.03 25.23">
<path d="M23.9998 12.0002C23.9998 18.6275 18.6273 24.0001 11.9999 24.0001C5.37255 24.0001 0 18.6275 0 12.0002C0 5.37279 5.37255 0.000244141 11.9999 0.000244141C18.6273 0.000244141 23.9998 5.37279 23.9998 12.0002Z" fill="#225B83"/>
<mask id="mask0_14896_14080" style="mask-type:alpha" maskUnits="userSpaceOnUse" x="0" y="0" width="24" height="24">
<path d="M23.9998 12.0002C23.9998 18.6275 18.6273 24.0001 11.9999 24.0001C5.37255 24.0001 0 18.6275 0 12.0002C0 5.37279 5.37255 0.000244141 11.9999 0.000244141C18.6273 0.000244141 23.9998 5.37279 23.9998 12.0002Z" fill="#225B83"/>
</mask>
<g mask="url(#mask0_14896_14080)">
<g filter="url(#filter0_f_14896_14080)">
<path d="M20.4294 9.90455C19.0966 13.7233 14.9301 15.7418 11.1231 14.4131C7.31622 13.0844 5.31056 8.91161 6.64337 5.0929C7.97618 1.2742 12.1428 -0.744349 15.9497 0.58435C19.7566 1.91305 21.7623 6.08584 20.4294 9.90455Z" fill="#5CFFCE"/>
</g>
<g style="mix-blend-mode:hard-light" filter="url(#filter1_f_14896_14080)">
<path d="M27.0094 15.6868C25.3812 20.352 20.2926 22.8187 15.6439 21.1961C10.9951 19.5736 8.54652 14.4764 10.1748 9.81113C11.8031 5.14588 16.8916 2.67927 21.5404 4.30179C26.1891 5.92431 28.6377 11.0215 27.0094 15.6868Z" fill="#C15CFF"/>
</g>
<g style="mix-blend-mode:overlay" filter="url(#filter2_f_14896_14080)">
<path d="M12.855 16.6879C11.2294 21.3455 6.13579 23.8035 1.47815 22.1779C-3.17948 20.5522 -5.63742 15.4587 -4.0118 10.801C-2.38618 6.14338 2.7074 3.68544 7.36504 5.31106C12.0227 6.93668 14.4806 12.0303 12.855 16.6879Z" fill="#5C9DFF"/>
</g>
<g style="mix-blend-mode:lighten" filter="url(#filter3_f_14896_14080)">
<path d="M17.3781 21.5531C16.3757 24.425 13.2086 25.9313 10.3041 24.9176C7.39955 23.9039 5.85754 20.7539 6.85989 17.8821C7.86224 15.0102 11.0294 13.5039 13.9339 14.5176C16.8384 15.5313 18.3804 18.6813 17.3781 21.5531Z" fill="#FF8F50"/>
</g>
<g style="mix-blend-mode:overlay" filter="url(#filter4_f_14896_14080)">
<path fill-rule="evenodd" clip-rule="evenodd" d="M6.65558 22.5516C9.25857 22.5516 11.3687 20.4414 11.3687 17.8384C11.3687 15.2354 9.25857 13.1253 6.65558 13.1253C4.05258 13.1253 1.94244 15.2354 1.94244 17.8384C1.94244 20.4414 4.05258 22.5516 6.65558 22.5516ZM6.65558 22.5858C9.27748 22.5858 11.403 20.4603 11.403 17.8384C11.403 15.2165 9.27748 13.0911 6.65558 13.0911C4.03368 13.0911 1.9082 15.2165 1.9082 17.8384C1.9082 20.4603 4.03368 22.5858 6.65558 22.5858Z" fill="white"/>
<path fill-rule="evenodd" clip-rule="evenodd" d="M12.3273 23.3967C16.7828 23.3967 20.3947 19.7848 20.3947 15.3292C20.3947 10.8737 16.7828 7.26178 12.3273 7.26178C7.87175 7.26178 4.25982 10.8737 4.25982 15.3292C4.25982 19.7848 7.87175 23.3967 12.3273 23.3967ZM12.3273 23.4309C16.8017 23.4309 20.429 19.8037 20.429 15.3292C20.429 10.8548 16.8017 7.22754 12.3273 7.22754C7.85284 7.22754 4.22559 10.8548 4.22559 15.3292C4.22559 19.8037 7.85284 23.4309 12.3273 23.4309Z" fill="white"/>
<g style="mix-blend-mode:color-dodge" filter="url(#filter5_dd_14896_14080)">
<path d="M23.9989 12.0002C23.9989 18.6276 18.6263 24.0001 11.9989 24.0001C5.37157 24.0001 -0.000976562 18.6276 -0.000976562 12.0002C-0.000976562 5.37285 5.37157 0.000305176 11.9989 0.000305176C18.6263 0.000305176 23.9989 5.37285 23.9989 12.0002Z" fill="#80CEFA" fill-opacity="0.5"/>
</g>
<g style="mix-blend-mode:color-dodge" filter="url(#filter6_dd_14896_14080)">
<path fill-rule="evenodd" clip-rule="evenodd" d="M11.9989 23.9659C18.6074 23.9659 23.9646 18.6087 23.9646 12.0002C23.9646 5.39176 18.6074 0.0345412 11.9989 0.0345412C5.39048 0.0345412 0.0332595 5.39176 0.0332595 12.0002C0.0332595 18.6087 5.39048 23.9659 11.9989 23.9659ZM11.9989 24.0001C18.6263 24.0001 23.9989 18.6276 23.9989 12.0002C23.9989 5.37285 18.6263 0.000305176 11.9989 0.000305176C5.37157 0.000305176 -0.000976562 5.37285 -0.000976562 12.0002C-0.000976562 18.6276 5.37157 24.0001 11.9989 24.0001Z" fill="white"/>
</g>
<path fill-rule="evenodd" clip-rule="evenodd" d="M8.11905 21.0788C12.5847 21.0788 16.2048 17.4587 16.2048 12.993C16.2048 8.52735 12.5847 4.90722 8.11905 4.90722C3.65339 4.90722 0.0332595 8.52735 0.0332595 12.993C0.0332595 17.4587 3.65339 21.0788 8.11905 21.0788ZM8.11905 21.113C12.6036 21.113 16.2391 17.4776 16.2391 12.993C16.2391 8.50845 12.6036 4.87299 8.11905 4.87299C3.63448 4.87299 -0.000976562 8.50845 -0.000976562 12.993C-0.000976562 17.4776 3.63448 21.113 8.11905 21.113Z" fill="white"/>
</g>
</g>
<path fill-rule="evenodd" clip-rule="evenodd" d="M23.9998 12C23.9998 18.6274 18.6273 24 11.9999 24C5.37255 24 0 18.6274 0 12C0 5.37267 5.37255 0.00012207 11.9999 0.00012207C18.6273 0.00012207 23.9998 5.37267 23.9998 12ZM11.9999 23.4545C18.326 23.4545 23.4544 18.3262 23.4544 12C23.4544 5.67391 18.326 0.545573 11.9999 0.545573C5.67379 0.545573 0.545451 5.67391 0.545451 12C0.545451 18.3262 5.67379 23.4545 11.9999 23.4545Z" fill="url(#paint0_linear_14896_14080)"/>
<g opacity="0.7" filter="url(#filter7_f_14896_14080)">
<path fill-rule="evenodd" clip-rule="evenodd" d="M11.9999 20.9894C16.9646 20.9894 20.9893 16.9647 20.9893 12C20.9893 7.0353 16.9646 3.01062 11.9999 3.01062C7.03524 3.01062 3.01056 7.0353 3.01056 12C3.01056 16.9647 7.03524 20.9894 11.9999 20.9894ZM11.9999 21.2499C17.1085 21.2499 21.2499 17.1086 21.2499 12C21.2499 6.8914 17.1085 2.75006 11.9999 2.75006C6.89134 2.75006 2.75 6.8914 2.75 12C2.75 17.1086 6.89134 21.2499 11.9999 21.2499Z" fill="white"/>
</g>
<path fill-rule="evenodd" clip-rule="evenodd" d="M11.9999 20.9999C16.9705 20.9999 20.9999 16.9705 20.9999 12C20.9999 7.02947 16.9705 3.00006 11.9999 3.00006C7.02941 3.00006 3 7.02947 3 12C3 16.9705 7.02941 20.9999 11.9999 20.9999ZM10.1559 12.2878C9.34647 12.2878 8.69067 11.632 8.69067 10.8226C8.69067 10.0132 9.34647 9.35741 10.1559 9.35741C10.9653 9.35741 11.6211 10.0132 11.6211 10.8226C11.6211 11.632 10.9653 12.2878 10.1559 12.2878ZM12.3835 10.8226C12.3835 11.632 13.0393 12.2878 13.8487 12.2878C14.6581 12.2878 15.3139 11.632 15.3139 10.8226C15.3139 10.0132 14.6581 9.35741 13.8487 9.35741C13.0393 9.35741 12.3835 10.0132 12.3835 10.8226ZM18.9445 12.73V17.7232C18.4387 18.3364 17.8531 18.8812 17.2033 19.342V16.1332C17.1907 16.1293 17.1776 16.126 17.1644 16.1226C17.153 16.1197 17.1415 16.1167 17.1301 16.1134C16.0975 17.8738 14.4145 18.9916 12.0007 18.9916C8.16486 18.9916 5.05566 15.8224 5.05566 11.9146C5.05566 8.00679 8.16486 4.83759 12.0007 4.83759C15.4723 4.83759 18.4303 7.43379 18.9457 10.8238H17.0617C16.5721 8.43939 14.5069 6.70479 12.0013 6.70479C9.12666 6.70479 6.83046 8.98659 6.83046 11.9152C6.83046 14.8438 9.12666 17.0836 12.0007 17.0836C14.6017 17.0836 16.6795 15.2488 17.0605 12.73H18.9445Z" fill="url(#paint1_linear_14896_14080)"/>
<defs>
<filter id="filter0_f_14896_14080" x="-4.66029" y="-10.716" width="36.3938" height="36.4294" filterUnits="userSpaceOnUse" color-interpolation-filters="sRGB">
<feFlood flood-opacity="0" result="BackgroundImageFix"/>
<feBlend mode="normal" in="SourceGraphic" in2="BackgroundImageFix" result="shape"/>
<feGaussianBlur stdDeviation="5.44587" result="effect1_foregroundBlur_14896_14080"/>
</filter>
<filter id="filter1_f_14896_14080" x="1.54556" y="-4.3223" width="34.0935" height="34.1425" filterUnits="userSpaceOnUse" color-interpolation-filters="sRGB">
<feFlood flood-opacity="0" result="BackgroundImageFix"/>
<feBlend mode="normal" in="SourceGraphic" in2="BackgroundImageFix" result="shape"/>
<feGaussianBlur stdDeviation="4.06267" result="effect1_foregroundBlur_14896_14080"/>
</filter>
<filter id="filter2_f_14896_14080" x="-12.1848" y="-2.86236" width="33.2133" height="33.2136" filterUnits="userSpaceOnUse" color-interpolation-filters="sRGB">
<feFlood flood-opacity="0" result="BackgroundImageFix"/>
<feBlend mode="normal" in="SourceGraphic" in2="BackgroundImageFix" result="shape"/>
<feGaussianBlur stdDeviation="3.83603" result="effect1_foregroundBlur_14896_14080"/>
</filter>
<filter id="filter3_f_14896_14080" x="-2.49662" y="5.15133" width="29.2305" height="29.1326" filterUnits="userSpaceOnUse" color-interpolation-filters="sRGB">
<feFlood flood-opacity="0" result="BackgroundImageFix"/>
<feBlend mode="normal" in="SourceGraphic" in2="BackgroundImageFix" result="shape"/>
<feGaussianBlur stdDeviation="4.52516" result="effect1_foregroundBlur_14896_14080"/>
</filter>
<filter id="filter4_f_14896_14080" x="-2.87631" y="-2.87503" width="29.7507" height="29.7505" filterUnits="userSpaceOnUse" color-interpolation-filters="sRGB">
<feFlood flood-opacity="0" result="BackgroundImageFix"/>
<feBlend mode="normal" in="SourceGraphic" in2="BackgroundImageFix" result="shape"/>
<feGaussianBlur stdDeviation="1.43767" result="effect1_foregroundBlur_14896_14080"/>
</filter>
<filter id="filter5_dd_14896_14080" x="-1.57584" y="-1.67726" width="27.629" height="28.1766" filterUnits="userSpaceOnUse" color-interpolation-filters="sRGB">
<feFlood flood-opacity="0" result="BackgroundImageFix"/>
<feColorMatrix in="SourceAlpha" type="matrix" values="0 0 0 0 0 0 0 0 0 0 0 0 0 0 0 0 0 0 127 0" result="hardAlpha"/>
<feOffset dx="-0.410833" dy="-0.513541"/>
<feGaussianBlur stdDeviation="0.582013"/>
<feColorMatrix type="matrix" values="0 0 0 0 1 0 0 0 0 1 0 0 0 0 1 0 0 0 0.4 0"/>
<feBlend mode="normal" in2="BackgroundImageFix" result="effect1_dropShadow_14896_14080"/>
<feColorMatrix in="SourceAlpha" type="matrix" values="0 0 0 0 0 0 0 0 0 0 0 0 0 0 0 0 0 0 127 0" result="hardAlpha"/>
<feOffset dx="0.445069" dy="0.890138"/>
<feGaussianBlur stdDeviation="0.804547"/>
<feColorMatrix type="matrix" values="0 0 0 0 0 0 0 0 0 0 0 0 0 0 0 0 0 0 0.25 0"/>
<feBlend mode="normal" in2="effect1_dropShadow_14896_14080" result="effect2_dropShadow_14896_14080"/>
<feBlend mode="normal" in="SourceGraphic" in2="effect2_dropShadow_14896_14080" result="shape"/>
</filter>
<filter id="filter6_dd_14896_14080" x="-1.57584" y="-1.67726" width="27.629" height="28.1766" filterUnits="userSpaceOnUse" color-interpolation-filters="sRGB">
<feFlood flood-opacity="0" result="BackgroundImageFix"/>
<feColorMatrix in="SourceAlpha" type="matrix" values="0 0 0 0 0 0 0 0 0 0 0 0 0 0 0 0 0 0 127 0" result="hardAlpha"/>
<feOffset dx="-0.410833" dy="-0.513541"/>
<feGaussianBlur stdDeviation="0.582013"/>
<feColorMatrix type="matrix" values="0 0 0 0 1 0 0 0 0 1 0 0 0 0 1 0 0 0 0.4 0"/>
<feBlend mode="normal" in2="BackgroundImageFix" result="effect1_dropShadow_14896_14080"/>
<feColorMatrix in="SourceAlpha" type="matrix" values="0 0 0 0 0 0 0 0 0 0 0 0 0 0 0 0 0 0 127 0" result="hardAlpha"/>
<feOffset dx="0.445069" dy="0.890138"/>
<feGaussianBlur stdDeviation="0.804547"/>
<feColorMatrix type="matrix" values="0 0 0 0 0 0 0 0 0 0 0 0 0 0 0 0 0 0 0.25 0"/>
<feBlend mode="normal" in2="effect1_dropShadow_14896_14080" result="effect2_dropShadow_14896_14080"/>
<feBlend mode="normal" in="SourceGraphic" in2="effect2_dropShadow_14896_14080" result="shape"/>
</filter>
<filter id="filter7_f_14896_14080" x="2.20455" y="2.20461" width="19.5909" height="19.5908" filterUnits="userSpaceOnUse" color-interpolation-filters="sRGB">
<feFlood flood-opacity="0" result="BackgroundImageFix"/>
<feBlend mode="normal" in="SourceGraphic" in2="BackgroundImageFix" result="shape"/>
<feGaussianBlur stdDeviation="0.272725" result="effect1_foregroundBlur_14896_14080"/>
</filter>
<linearGradient id="paint0_linear_14896_14080" x1="20.8524" y1="20.3528" x2="3.85251" y2="2.85289" gradientUnits="userSpaceOnUse">
<stop stop-color="#30BAD9"/>
<stop offset="0.340003" stop-color="#552CC4"/>
<stop offset="0.662449" stop-color="#5F45D1"/>
<stop offset="1" stop-color="#1362A5"/>
</linearGradient>
<linearGradient id="paint1_linear_14896_14080" x1="16.9999" y1="4.50005" x2="5.99998" y2="18.9999" gradientUnits="userSpaceOnUse">
<stop stop-color="#0F2245"/>
<stop offset="1" stop-color="#061022"/>
</linearGradient>
</defs>
</svg>