<svg xmlns="http://www.w3.org/2000/svg" fill="none" viewBox="0 0 24 24">
<path d="M24 12.0001C24 18.6275 18.6274 24.0001 12 24.0001C5.37258 24.0001 0 18.6275 0 12.0001C0 5.3727 5.37258 0.00012207 12 0.00012207C18.6274 0.00012207 24 5.3727 24 12.0001Z" fill="#225B83"/>
<mask id="mask0_13970_18408" style="mask-type:alpha" maskUnits="userSpaceOnUse" x="0" y="0" width="24" height="25">
<path d="M24 12.0001C24 18.6275 18.6274 24.0001 12 24.0001C5.37258 24.0001 0 18.6275 0 12.0001C0 5.3727 5.37258 0.00012207 12 0.00012207C18.6274 0.00012207 24 5.3727 24 12.0001Z" fill="#225B83"/>
</mask>
<g mask="url(#mask0_13970_18408)">
<g filter="url(#filter0_f_13970_18408)">
<path d="M20.4305 9.90445C19.0977 13.7232 14.9311 15.7417 11.1241 14.413C7.31718 13.0843 5.31151 8.9115 6.64433 5.09277C7.97715 1.27404 12.1438 -0.744524 15.9507 0.584184C19.7576 1.91289 21.7633 6.08572 20.4305 9.90445Z" fill="#5CFFCE"/>
</g>
<g style="mix-blend-mode:hard-light" filter="url(#filter1_f_13970_18408)">
<path d="M27.0105 15.6867C25.3822 20.352 20.2937 22.8186 15.6449 21.1961C10.9961 19.5736 8.54747 14.4763 10.1758 9.811C11.804 5.14572 16.8926 2.67909 21.5414 4.30162C26.1902 5.92415 28.6388 11.0214 27.0105 15.6867Z" fill="#C15CFF"/>
</g>
<g style="mix-blend-mode:overlay" filter="url(#filter2_f_13970_18408)">
<path d="M12.8561 16.6879C11.2304 21.3455 6.13682 23.8035 1.47915 22.1779C-3.17852 20.5522 -5.63648 15.4586 -4.01085 10.801C-2.38522 6.14328 2.7084 3.68533 7.36607 5.31096C12.0237 6.93659 14.4817 12.0302 12.8561 16.6879Z" fill="#5C9DFF"/>
</g>
<g style="mix-blend-mode:lighten" filter="url(#filter3_f_13970_18408)">
<path d="M17.3791 21.5531C16.3767 24.425 13.2096 25.9313 10.3051 24.9176C7.40052 23.9038 5.8585 20.7539 6.86085 17.882C7.86321 15.0101 11.0304 13.5037 13.9349 14.5175C16.8394 15.5312 18.3815 18.6812 17.3791 21.5531Z" fill="#FF8F50"/>
</g>
<g style="mix-blend-mode:overlay" filter="url(#filter4_f_13970_18408)">
<path fill-rule="evenodd" clip-rule="evenodd" d="M6.65659 22.5516C9.2596 22.5516 11.3698 20.4414 11.3698 17.8384C11.3698 15.2354 9.2596 13.1252 6.65659 13.1252C4.05357 13.1252 1.94342 15.2354 1.94342 17.8384C1.94342 20.4414 4.05357 22.5516 6.65659 22.5516ZM6.65659 22.5858C9.27851 22.5858 11.404 20.4603 11.404 17.8384C11.404 15.2165 9.27851 13.091 6.65659 13.091C4.03467 13.091 1.90918 15.2165 1.90918 17.8384C1.90918 20.4603 4.03467 22.5858 6.65659 22.5858Z" fill="white"/>
<path fill-rule="evenodd" clip-rule="evenodd" d="M12.3293 23.3967C16.7849 23.3967 20.3968 19.7847 20.3968 15.3292C20.3968 10.8736 16.7849 7.26165 12.3293 7.26165C7.87373 7.26165 4.26178 10.8736 4.26178 15.3292C4.26178 19.7847 7.87373 23.3967 12.3293 23.3967ZM12.3293 23.4309C16.8038 23.4309 20.431 19.8036 20.431 15.3292C20.431 10.8547 16.8038 7.22742 12.3293 7.22742C7.85482 7.22742 4.22754 10.8547 4.22754 15.3292C4.22754 19.8036 7.85482 23.4309 12.3293 23.4309Z" fill="white"/>
<g style="mix-blend-mode:color-dodge" filter="url(#filter5_dd_13970_18408)">
<path d="M24 12.0001C24 18.6275 18.6274 24.0001 12 24.0001C5.37258 24.0001 0 18.6275 0 12.0001C0 5.3727 5.37258 0.00012207 12 0.00012207C18.6274 0.00012207 24 5.3727 24 12.0001Z" fill="#80CEFA" fill-opacity="0.5"/>
</g>
<g style="mix-blend-mode:color-dodge" filter="url(#filter6_dd_13970_18408)">
<path fill-rule="evenodd" clip-rule="evenodd" d="M12 23.9659C18.6085 23.9659 23.9658 18.6086 23.9658 12.0001C23.9658 5.39161 18.6085 0.0343584 12 0.0343584C5.39149 0.0343584 0.0342363 5.39161 0.0342363 12.0001C0.0342363 18.6086 5.39149 23.9659 12 23.9659ZM12 24.0001C18.6274 24.0001 24 18.6275 24 12.0001C24 5.3727 18.6274 0.00012207 12 0.00012207C5.37258 0.00012207 0 5.3727 0 12.0001C0 18.6275 5.37258 24.0001 12 24.0001Z" fill="white"/>
</g>
<path fill-rule="evenodd" clip-rule="evenodd" d="M8.12008 21.0787C12.5858 21.0787 16.2059 17.4586 16.2059 12.9929C16.2059 8.5272 12.5858 4.90704 8.12008 4.90704C3.65439 4.90704 0.0342363 8.5272 0.0342363 12.9929C0.0342363 17.4586 3.65439 21.0787 8.12008 21.0787ZM8.12008 21.113C12.6047 21.113 16.2402 17.4775 16.2402 12.9929C16.2402 8.50829 12.6047 4.8728 8.12008 4.8728C3.63548 4.8728 0 8.50829 0 12.9929C0 17.4775 3.63548 21.113 8.12008 21.113Z" fill="white"/>
</g>
</g>
<path fill-rule="evenodd" clip-rule="evenodd" d="M24 12C24 18.6274 18.6274 24 12 24C5.37258 24 0 18.6274 0 12C0 5.37258 5.37258 0 12 0C18.6274 0 24 5.37258 24 12ZM12 23.4545C18.3262 23.4545 23.4545 18.3262 23.4545 12C23.4545 5.67383 18.3262 0.545455 12 0.545455C5.67383 0.545455 0.545455 5.67383 0.545455 12C0.545455 18.3262 5.67383 23.4545 12 23.4545Z" fill="url(#paint0_linear_13970_18408)"/>
<g opacity="0.7" filter="url(#filter7_f_13970_18408)">
<path fill-rule="evenodd" clip-rule="evenodd" d="M12 20.9894C16.9647 20.9894 20.9894 16.9647 20.9894 12C20.9894 7.03527 16.9647 3.01056 12 3.01056C7.03527 3.01056 3.01056 7.03527 3.01056 12C3.01056 16.9647 7.03527 20.9894 12 20.9894ZM12 21.25C17.1086 21.25 21.25 17.1086 21.25 12C21.25 6.89137 17.1086 2.75 12 2.75C6.89137 2.75 2.75 6.89137 2.75 12C2.75 17.1086 6.89137 21.25 12 21.25Z" fill="white"/>
</g>
<path fill-rule="evenodd" clip-rule="evenodd" d="M12 21C16.9706 21 21 16.9706 21 12C21 7.02944 16.9706 3 12 3C9.84781 3 7.87205 3.75543 6.32344 5.0156C7.6054 6.44325 9.84091 8.93422 10.0335 9.15841L10.1361 9.27038L10.1282 9.45433C10.1203 9.70227 10.0414 9.87022 9.85983 10.0382C9.65459 10.2381 9.39408 10.3421 8.99149 10.3981C8.74677 10.4301 8.65994 10.4701 8.55731 10.582C8.46258 10.686 8.42311 10.822 8.39943 11.1579C8.35996 11.6858 8.29681 11.9017 8.05209 12.4216C7.81527 12.9254 7.76791 13.1094 7.80738 13.3813C7.85474 13.7012 8.0363 13.9412 8.46258 14.2371C8.78624 14.461 8.93623 14.605 9.01517 14.781C9.06253 14.8929 9.07043 14.9329 9.07043 15.1169C9.07043 15.4048 9.02306 15.5168 8.83361 15.7247C8.52574 16.0606 7.96526 16.3326 7.28637 16.4925C7.00218 16.5565 6.98639 16.5565 6.98639 16.4925C6.98639 16.4125 6.87588 16.1966 6.69431 15.9087C6.48117 15.5807 6.39434 15.4128 6.3154 15.1569C6.22856 14.8689 6.19699 14.677 6.21277 14.3731C6.22856 14.0851 6.26014 13.9572 6.37066 13.7332C6.45749 13.5493 6.51275 13.4693 6.86798 13.0214C7.47583 12.2616 7.68897 11.8137 7.76791 11.1819C7.83895 10.614 7.93368 10.3421 8.14682 10.1022C8.27313 9.9582 8.3047 9.90221 8.3047 9.79824C8.3047 9.75025 8.10735 9.35835 7.49951 8.26264C6.64279 6.71165 6.54818 6.54035 6.55996 6.5327C6.56142 6.53174 6.56452 6.53332 6.56801 6.53508C6.5759 6.54308 7.02586 7.2389 7.55477 8.07868C8.24944 9.1744 8.55731 9.63028 8.62836 9.70227C8.73098 9.80624 8.88097 9.87022 9.00728 9.87022C9.11779 9.87022 9.34672 9.80624 9.45724 9.74226C9.65459 9.63028 9.70195 9.47832 9.58354 9.31836C9.20721 8.80998 7.35717 6.4611 6.25845 5.06899C4.26784 6.71983 3 9.21185 3 12C3 16.9706 7.02944 21 12 21ZM9.61515 6.48713C9.53621 6.49512 9.54411 6.50312 9.70988 6.52712C10.3177 6.62309 10.7835 6.86303 11.2492 7.31891C11.4624 7.52686 11.6755 7.77479 12.0149 8.23068C12.7807 9.26241 13.1122 9.54234 13.7595 9.75828C14.1385 9.88625 14.5253 9.94223 15.2042 9.98222C15.9541 10.0222 16.2383 10.0782 16.5067 10.2622C16.6567 10.3661 16.7672 10.4861 16.8856 10.67L16.9566 10.774L16.9408 10.6541C16.8935 10.2062 16.5777 9.57433 16.1751 9.11845L16.1041 9.03847L16.0646 9.20642C15.9699 9.63032 15.7725 9.93424 15.5831 9.93424C15.4962 9.93424 15.4015 9.87825 15.3699 9.79827C15.3305 9.6943 15.3305 9.66231 15.3936 9.54234C15.512 9.32639 15.5357 9.04647 15.4804 8.67056C15.4647 8.56659 15.441 8.46262 15.4252 8.44662C15.3857 8.39863 15.0621 8.20668 14.8568 8.11071C14.1069 7.7588 13.207 7.64683 12.3307 7.79079L12.1255 7.82278L11.9834 7.65483C11.4387 7.03898 10.9256 6.68708 10.3572 6.55111C10.1125 6.49512 9.76514 6.46313 9.61515 6.48713ZM15.5907 7.54283C15.6065 7.2389 15.646 7.03896 15.7328 6.855C15.7644 6.78302 15.796 6.71904 15.8039 6.71904C15.8117 6.71904 15.796 6.77502 15.7723 6.83901C15.7091 7.01496 15.7012 7.2629 15.7407 7.54283C15.796 7.90273 15.8196 7.95072 16.1986 8.34262C16.3722 8.52657 16.5775 8.75851 16.6564 8.85449L16.7906 9.03044L16.6564 8.90247C16.4906 8.74252 16.1117 8.43859 16.0249 8.3986C15.9696 8.36661 15.9617 8.36661 15.9223 8.4066C15.8907 8.43859 15.8828 8.48658 15.8828 8.71852C15.8749 9.07843 15.8275 9.30237 15.7091 9.53431C15.646 9.65428 15.6381 9.63029 15.6933 9.49432C15.7328 9.39035 15.7407 9.34236 15.7407 8.99845C15.7407 8.30263 15.6618 8.13467 15.1802 7.85474C15.0618 7.78276 14.8566 7.67879 14.7382 7.6228C14.6118 7.56682 14.5171 7.51883 14.525 7.51883C14.5408 7.50284 15.0066 7.6388 15.1881 7.71878C15.4644 7.83075 15.5118 7.83875 15.5433 7.83075C15.567 7.80676 15.5828 7.74277 15.5907 7.54283ZM9.53601 7.01495C9.48864 7.55082 9.70178 8.27063 10.0333 8.73451C10.2938 9.09442 10.6964 9.37434 10.9964 9.40634C11.1938 9.42233 11.249 9.35835 11.1622 9.23038C11.0359 9.05443 10.8859 8.7745 10.8464 8.65453C10.8227 8.58255 10.7675 8.35861 10.728 8.16666C10.5938 7.51083 10.4517 7.24689 10.136 7.05494C10.0175 6.98296 9.77283 6.88699 9.63073 6.86299L9.55179 6.847L9.53601 7.01495ZM15.1879 12.2136C13.6249 11.5738 13.0723 11.0219 13.0723 10.0862C13.0723 9.9502 13.0802 9.83823 13.0802 9.83823C13.0854 9.83823 13.1117 9.85955 13.1497 9.89034L13.1498 9.89035L13.1498 9.89036C13.1688 9.90577 13.1907 9.92354 13.2144 9.9422C13.5301 10.1981 13.8854 10.3101 14.8721 10.4541C15.4484 10.542 15.78 10.606 16.0799 10.71C17.0351 11.0299 17.6272 11.6858 17.7693 12.5735C17.8087 12.8295 17.7851 13.3173 17.7219 13.5733C17.6666 13.7732 17.5088 14.1411 17.4693 14.1491C17.4614 14.1491 17.4456 14.1091 17.4456 14.0451C17.4298 13.7092 17.264 13.3893 16.9878 13.1414C16.6562 12.8535 16.2299 12.6375 15.1879 12.2136ZM14.0042 12.1416C14.0278 12.2056 14.0673 12.3576 14.0831 12.4775C14.2094 13.2293 13.8226 13.8452 13.0411 14.0931C12.9621 14.1251 12.6464 14.1891 12.3385 14.2371C11.7149 14.349 11.4307 14.421 11.1544 14.557C10.9571 14.653 10.7123 14.7969 10.7281 14.8129C10.736 14.8209 10.7834 14.8049 10.8307 14.7889L10.8307 14.7889C11.186 14.661 11.5807 14.597 12.1727 14.565C12.3708 14.5516 12.5909 14.5326 12.7131 14.5221L12.7132 14.5221L12.7133 14.5221L12.7134 14.5221L12.7727 14.517C13.3016 14.445 13.6726 14.2851 13.9568 13.9891C14.1147 13.8212 14.2094 13.6692 14.2884 13.4533C14.3357 13.3173 14.3436 13.2613 14.3436 13.0214C14.3436 12.7735 14.3436 12.7255 14.2884 12.5735C14.2173 12.3736 14.1384 12.2296 14.0357 12.1096L13.9647 12.0216L14.0042 12.1416ZM14.8017 13.7652C14.5964 13.3093 14.549 12.8775 14.6596 12.4696C14.6753 12.4296 14.6911 12.3896 14.7069 12.3896C14.7227 12.3896 14.7701 12.4136 14.8174 12.4456C14.9122 12.5095 15.1095 12.6215 15.6147 12.9014C16.2542 13.2534 16.6173 13.5253 16.8699 13.8372C17.0909 14.1091 17.2251 14.4211 17.2883 14.805C17.3278 15.0209 17.3041 15.5408 17.2488 15.7567C17.0751 16.4365 16.6804 16.9804 16.1042 17.2923C16.0173 17.3403 15.9463 17.3723 15.9384 17.3723C15.9305 17.3723 15.9621 17.2923 16.0094 17.1963C16.1989 16.7884 16.2226 16.3965 16.0805 15.9567C15.9937 15.6847 15.8121 15.3568 15.449 14.805C15.0148 14.1651 14.9122 13.9972 14.8017 13.7652ZM10.8858 15.2528C10.2227 15.3648 9.50437 15.7167 8.92021 16.2126L8.75444 16.3725L8.90442 16.3965C9.69383 16.5165 9.90697 16.6285 10.4596 17.2043C10.7753 17.5322 10.8858 17.6042 11.1463 17.6762C11.5331 17.7802 11.9121 17.5962 12.0463 17.2443C12.1015 17.0843 12.0936 16.8284 12.0305 16.7004C11.8726 16.3885 11.4068 16.2926 11.1858 16.5165C11.0042 16.7004 11.0595 16.9884 11.2884 17.0364L11.2884 17.0364C11.3098 17.04 11.3215 17.0419 11.3222 17.0401C11.3229 17.0378 11.3073 17.0299 11.2727 17.0124L11.2727 17.0124L11.2726 17.0124C11.17 16.9644 11.1227 16.9004 11.1227 16.7964C11.1148 16.5485 11.3911 16.4205 11.6437 16.5325C11.8331 16.6205 11.9042 16.7324 11.9042 16.9244C11.9042 17.2203 11.6516 17.4523 11.3595 17.4123C11.2016 17.3883 11.0121 17.2923 10.9095 17.1723C10.6569 16.8844 10.7516 16.4125 11.1148 16.2366C11.3911 16.1006 11.7542 16.1406 12.0384 16.3245C12.362 16.5405 12.5041 16.7324 12.7804 17.3803C12.8751 17.5962 12.9857 17.8282 13.0409 17.9081C13.3014 18.308 13.6251 18.508 14.004 18.508C14.2171 18.508 14.375 18.476 14.5724 18.372C14.7145 18.3 14.9276 18.1561 14.9118 18.1401C14.9118 18.1338 14.8726 18.1473 14.8212 18.1651L14.7776 18.1801C14.3592 18.34 13.9329 18.332 13.6882 18.1481C13.5303 18.0281 13.404 17.8042 13.3409 17.5162L13.3332 17.4706L13.3331 17.4705C13.3182 17.3827 13.2875 17.2029 13.2619 17.0284C13.1751 16.4765 13.0883 16.2286 12.8988 15.9406C12.7015 15.6447 12.3226 15.4048 11.9042 15.2928C11.6437 15.2208 11.17 15.2048 10.8858 15.2528ZM7.19164 14.717C7.27847 14.565 7.23111 14.3731 7.08902 14.2771C6.95482 14.1891 6.74957 14.2291 6.74957 14.3491C6.74957 14.3811 6.76536 14.4131 6.81272 14.429C6.88377 14.469 6.89166 14.509 6.83641 14.597C6.78115 14.685 6.78115 14.765 6.85219 14.8209C6.96271 14.9089 7.1127 14.8609 7.19164 14.717ZM9.96244 10.9819C10.0177 10.774 10.1993 10.566 10.3887 10.5101C10.515 10.4701 10.7597 10.4941 10.8782 10.5581C11.1071 10.678 11.2729 10.942 11.2334 11.1339C11.1939 11.3658 10.8229 11.5578 10.3887 11.5578C10.1677 11.5578 10.0887 11.5258 10.0019 11.4138C9.94665 11.3418 9.93086 11.1099 9.96244 10.9819ZM10.815 10.638C10.9334 10.71 10.9571 10.814 10.8939 10.91C10.8466 10.9739 10.7045 11.0379 10.6019 11.0379C10.444 11.0379 10.2782 10.926 10.2782 10.822C10.2782 10.614 10.6019 10.5021 10.815 10.638Z" fill="url(#paint1_linear_13970_18408)"/>
<defs>
<filter id="filter0_f_13970_18408" x="-4.65939" y="-10.7162" width="36.394" height="36.4296" filterUnits="userSpaceOnUse" color-interpolation-filters="sRGB">
<feFlood flood-opacity="0" result="BackgroundImageFix"/>
<feBlend mode="normal" in="SourceGraphic" in2="BackgroundImageFix" result="shape"/>
<feGaussianBlur stdDeviation="5.44591" result="effect1_foregroundBlur_13970_18408"/>
</filter>
<filter id="filter1_f_13970_18408" x="1.54648" y="-4.32248" width="34.0936" height="34.1427" filterUnits="userSpaceOnUse" color-interpolation-filters="sRGB">
<feFlood flood-opacity="0" result="BackgroundImageFix"/>
<feBlend mode="normal" in="SourceGraphic" in2="BackgroundImageFix" result="shape"/>
<feGaussianBlur stdDeviation="4.0627" result="effect1_foregroundBlur_13970_18408"/>
</filter>
<filter id="filter2_f_13970_18408" x="-12.1838" y="-2.86248" width="33.2134" height="33.2138" filterUnits="userSpaceOnUse" color-interpolation-filters="sRGB">
<feFlood flood-opacity="0" result="BackgroundImageFix"/>
<feBlend mode="normal" in="SourceGraphic" in2="BackgroundImageFix" result="shape"/>
<feGaussianBlur stdDeviation="3.83605" result="effect1_foregroundBlur_13970_18408"/>
</filter>
<filter id="filter3_f_13970_18408" x="-2.4957" y="5.15115" width="29.2307" height="29.1328" filterUnits="userSpaceOnUse" color-interpolation-filters="sRGB">
<feFlood flood-opacity="0" result="BackgroundImageFix"/>
<feBlend mode="normal" in="SourceGraphic" in2="BackgroundImageFix" result="shape"/>
<feGaussianBlur stdDeviation="4.5252" result="effect1_foregroundBlur_13970_18408"/>
</filter>
<filter id="filter4_f_13970_18408" x="-2.87535" y="-2.87523" width="29.7507" height="29.7507" filterUnits="userSpaceOnUse" color-interpolation-filters="sRGB">
<feFlood flood-opacity="0" result="BackgroundImageFix"/>
<feBlend mode="normal" in="SourceGraphic" in2="BackgroundImageFix" result="shape"/>
<feGaussianBlur stdDeviation="1.43768" result="effect1_foregroundBlur_13970_18408"/>
</filter>
<filter id="filter5_dd_13970_18408" x="-1.57487" y="-1.67746" width="27.629" height="28.1768" filterUnits="userSpaceOnUse" color-interpolation-filters="sRGB">
<feFlood flood-opacity="0" result="BackgroundImageFix"/>
<feColorMatrix in="SourceAlpha" type="matrix" values="0 0 0 0 0 0 0 0 0 0 0 0 0 0 0 0 0 0 127 0" result="hardAlpha"/>
<feOffset dx="-0.410836" dy="-0.513545"/>
<feGaussianBlur stdDeviation="0.582017"/>
<feColorMatrix type="matrix" values="0 0 0 0 1 0 0 0 0 1 0 0 0 0 1 0 0 0 0.4 0"/>
<feBlend mode="normal" in2="BackgroundImageFix" result="effect1_dropShadow_13970_18408"/>
<feColorMatrix in="SourceAlpha" type="matrix" values="0 0 0 0 0 0 0 0 0 0 0 0 0 0 0 0 0 0 127 0" result="hardAlpha"/>
<feOffset dx="0.445072" dy="0.890144"/>
<feGaussianBlur stdDeviation="0.804553"/>
<feColorMatrix type="matrix" values="0 0 0 0 0 0 0 0 0 0 0 0 0 0 0 0 0 0 0.25 0"/>
<feBlend mode="normal" in2="effect1_dropShadow_13970_18408" result="effect2_dropShadow_13970_18408"/>
<feBlend mode="normal" in="SourceGraphic" in2="effect2_dropShadow_13970_18408" result="shape"/>
</filter>
<filter id="filter6_dd_13970_18408" x="-1.57487" y="-1.67746" width="27.629" height="28.1768" filterUnits="userSpaceOnUse" color-interpolation-filters="sRGB">
<feFlood flood-opacity="0" result="BackgroundImageFix"/>
<feColorMatrix in="SourceAlpha" type="matrix" values="0 0 0 0 0 0 0 0 0 0 0 0 0 0 0 0 0 0 127 0" result="hardAlpha"/>
<feOffset dx="-0.410836" dy="-0.513545"/>
<feGaussianBlur stdDeviation="0.582017"/>
<feColorMatrix type="matrix" values="0 0 0 0 1 0 0 0 0 1 0 0 0 0 1 0 0 0 0.4 0"/>
<feBlend mode="normal" in2="BackgroundImageFix" result="effect1_dropShadow_13970_18408"/>
<feColorMatrix in="SourceAlpha" type="matrix" values="0 0 0 0 0 0 0 0 0 0 0 0 0 0 0 0 0 0 127 0" result="hardAlpha"/>
<feOffset dx="0.445072" dy="0.890144"/>
<feGaussianBlur stdDeviation="0.804553"/>
<feColorMatrix type="matrix" values="0 0 0 0 0 0 0 0 0 0 0 0 0 0 0 0 0 0 0.25 0"/>
<feBlend mode="normal" in2="effect1_dropShadow_13970_18408" result="effect2_dropShadow_13970_18408"/>
<feBlend mode="normal" in="SourceGraphic" in2="effect2_dropShadow_13970_18408" result="shape"/>
</filter>
<filter id="filter7_f_13970_18408" x="2.20455" y="2.20455" width="19.5909" height="19.5909" filterUnits="userSpaceOnUse" color-interpolation-filters="sRGB">
<feFlood flood-opacity="0" result="BackgroundImageFix"/>
<feBlend mode="normal" in="SourceGraphic" in2="BackgroundImageFix" result="shape"/>
<feGaussianBlur stdDeviation="0.272727" result="effect1_foregroundBlur_13970_18408"/>
</filter>
<linearGradient id="paint0_linear_13970_18408" x1="20.8525" y1="20.3528" x2="3.85254" y2="2.85278" gradientUnits="userSpaceOnUse">
<stop stop-color="#30BAD9"/>
<stop offset="0.340003" stop-color="#552CC4"/>
<stop offset="0.662449" stop-color="#5F45D1"/>
<stop offset="1" stop-color="#1362A5"/>
</linearGradient>
<linearGradient id="paint1_linear_13970_18408" x1="17" y1="4.5" x2="6" y2="19" gradientUnits="userSpaceOnUse">
<stop stop-color="#0F2245"/>
<stop offset="1" stop-color="#061022"/>
</linearGradient>
</defs>
</svg>