<svg xmlns="http://www.w3.org/2000/svg" fill="none" viewBox="0 0 24 24">
<path d="M24 12.0001C24 18.6275 18.6274 24.0001 12 24.0001C5.37258 24.0001 0 18.6275 0 12.0001C0 5.3727 5.37258 0.00012207 12 0.00012207C18.6274 0.00012207 24 5.3727 24 12.0001Z" fill="#225B83"/>
<mask id="mask0_12209_15703" style="mask-type:alpha" maskUnits="userSpaceOnUse" x="0" y="0" width="24" height="25">
<path d="M24 12.0001C24 18.6275 18.6274 24.0001 12 24.0001C5.37258 24.0001 0 18.6275 0 12.0001C0 5.3727 5.37258 0.00012207 12 0.00012207C18.6274 0.00012207 24 5.3727 24 12.0001Z" fill="#225B83"/>
</mask>
<g mask="url(#mask0_12209_15703)">
<g filter="url(#filter0_f_12209_15703)">
<path d="M20.4305 9.90445C19.0977 13.7232 14.9311 15.7417 11.1241 14.413C7.31718 13.0843 5.31151 8.9115 6.64433 5.09277C7.97715 1.27404 12.1438 -0.744524 15.9507 0.584184C19.7576 1.91289 21.7633 6.08572 20.4305 9.90445Z" fill="#5CFFCE"/>
</g>
<g style="mix-blend-mode:hard-light" filter="url(#filter1_f_12209_15703)">
<path d="M27.0105 15.6867C25.3822 20.352 20.2937 22.8186 15.6449 21.1961C10.9961 19.5736 8.54747 14.4763 10.1758 9.811C11.804 5.14572 16.8926 2.67909 21.5414 4.30162C26.1902 5.92415 28.6388 11.0214 27.0105 15.6867Z" fill="#C15CFF"/>
</g>
<g style="mix-blend-mode:overlay" filter="url(#filter2_f_12209_15703)">
<path d="M12.8561 16.6879C11.2304 21.3455 6.13682 23.8035 1.47915 22.1779C-3.17852 20.5522 -5.63648 15.4586 -4.01085 10.801C-2.38522 6.14328 2.7084 3.68533 7.36607 5.31096C12.0237 6.93659 14.4817 12.0302 12.8561 16.6879Z" fill="#5C9DFF"/>
</g>
<g style="mix-blend-mode:lighten" filter="url(#filter3_f_12209_15703)">
<path d="M17.3791 21.5531C16.3767 24.425 13.2096 25.9313 10.3051 24.9176C7.40052 23.9038 5.8585 20.7539 6.86085 17.882C7.86321 15.0101 11.0304 13.5037 13.9349 14.5175C16.8394 15.5312 18.3815 18.6812 17.3791 21.5531Z" fill="#FF8F50"/>
</g>
<g style="mix-blend-mode:overlay" filter="url(#filter4_f_12209_15703)">
<path fill-rule="evenodd" clip-rule="evenodd" d="M6.65659 22.5516C9.2596 22.5516 11.3698 20.4414 11.3698 17.8384C11.3698 15.2354 9.2596 13.1252 6.65659 13.1252C4.05357 13.1252 1.94342 15.2354 1.94342 17.8384C1.94342 20.4414 4.05357 22.5516 6.65659 22.5516ZM6.65659 22.5858C9.27851 22.5858 11.404 20.4603 11.404 17.8384C11.404 15.2165 9.27851 13.091 6.65659 13.091C4.03467 13.091 1.90918 15.2165 1.90918 17.8384C1.90918 20.4603 4.03467 22.5858 6.65659 22.5858Z" fill="white"/>
<path fill-rule="evenodd" clip-rule="evenodd" d="M12.3293 23.3967C16.7849 23.3967 20.3968 19.7847 20.3968 15.3292C20.3968 10.8736 16.7849 7.26165 12.3293 7.26165C7.87373 7.26165 4.26178 10.8736 4.26178 15.3292C4.26178 19.7847 7.87373 23.3967 12.3293 23.3967ZM12.3293 23.4309C16.8038 23.4309 20.431 19.8036 20.431 15.3292C20.431 10.8547 16.8038 7.22742 12.3293 7.22742C7.85482 7.22742 4.22754 10.8547 4.22754 15.3292C4.22754 19.8036 7.85482 23.4309 12.3293 23.4309Z" fill="white"/>
<g style="mix-blend-mode:color-dodge" filter="url(#filter5_dd_12209_15703)">
<path d="M24 12.0001C24 18.6275 18.6274 24.0001 12 24.0001C5.37258 24.0001 0 18.6275 0 12.0001C0 5.3727 5.37258 0.00012207 12 0.00012207C18.6274 0.00012207 24 5.3727 24 12.0001Z" fill="#80CEFA" fill-opacity="0.5"/>
</g>
<g style="mix-blend-mode:color-dodge" filter="url(#filter6_dd_12209_15703)">
<path fill-rule="evenodd" clip-rule="evenodd" d="M12 23.9659C18.6085 23.9659 23.9658 18.6086 23.9658 12.0001C23.9658 5.39161 18.6085 0.0343584 12 0.0343584C5.39149 0.0343584 0.0342363 5.39161 0.0342363 12.0001C0.0342363 18.6086 5.39149 23.9659 12 23.9659ZM12 24.0001C18.6274 24.0001 24 18.6275 24 12.0001C24 5.3727 18.6274 0.00012207 12 0.00012207C5.37258 0.00012207 0 5.3727 0 12.0001C0 18.6275 5.37258 24.0001 12 24.0001Z" fill="white"/>
</g>
<path fill-rule="evenodd" clip-rule="evenodd" d="M8.12008 21.0787C12.5858 21.0787 16.2059 17.4586 16.2059 12.9929C16.2059 8.5272 12.5858 4.90704 8.12008 4.90704C3.65439 4.90704 0.0342363 8.5272 0.0342363 12.9929C0.0342363 17.4586 3.65439 21.0787 8.12008 21.0787ZM8.12008 21.113C12.6047 21.113 16.2402 17.4775 16.2402 12.9929C16.2402 8.50829 12.6047 4.8728 8.12008 4.8728C3.63548 4.8728 0 8.50829 0 12.9929C0 17.4775 3.63548 21.113 8.12008 21.113Z" fill="white"/>
</g>
</g>
<path fill-rule="evenodd" clip-rule="evenodd" d="M24 12C24 18.6274 18.6274 24 12 24C5.37258 24 0 18.6274 0 12C0 5.37258 5.37258 0 12 0C18.6274 0 24 5.37258 24 12ZM12 23.4545C18.3262 23.4545 23.4545 18.3262 23.4545 12C23.4545 5.67383 18.3262 0.545455 12 0.545455C5.67383 0.545455 0.545455 5.67383 0.545455 12C0.545455 18.3262 5.67383 23.4545 12 23.4545Z" fill="url(#paint0_linear_12209_15703)"/>
<g opacity="0.7" filter="url(#filter7_f_12209_15703)">
<path fill-rule="evenodd" clip-rule="evenodd" d="M12 20.9894C16.9647 20.9894 20.9894 16.9647 20.9894 12C20.9894 7.03527 16.9647 3.01056 12 3.01056C7.03527 3.01056 3.01056 7.03527 3.01056 12C3.01056 16.9647 7.03527 20.9894 12 20.9894ZM12 21.25C17.1086 21.25 21.25 17.1086 21.25 12C21.25 6.89137 17.1086 2.75 12 2.75C6.89137 2.75 2.75 6.89137 2.75 12C2.75 17.1086 6.89137 21.25 12 21.25Z" fill="white"/>
</g>
<path fill-rule="evenodd" clip-rule="evenodd" d="M12 21C16.9706 21 21 16.9706 21 12C21 7.02944 16.9706 3 12 3C7.02944 3 3 7.02944 3 12C3 16.9706 7.02944 21 12 21ZM11.3644 7.42675V8.09028C10.7806 8.11887 10.2287 8.36191 9.81707 8.77168C9.40545 9.18146 9.16382 9.72837 9.13961 10.305C9.13961 11.39 9.81158 12.0984 11.2372 12.3943L12.2361 12.6274C13.2077 12.8516 13.6073 13.1744 13.6073 13.7213C13.6073 14.2683 12.9081 14.8063 12 14.8063C11.6775 14.8355 11.3531 14.7745 11.064 14.6302C10.775 14.4859 10.5329 14.2641 10.3655 13.9903C10.3159 13.8865 10.2376 13.7985 10.1396 13.7367C10.0416 13.6748 9.92789 13.6415 9.81158 13.6406H9.27582C9.23462 13.6482 9.19534 13.6637 9.16023 13.6863C9.12512 13.7089 9.09488 13.7381 9.07125 13.7722C9.04762 13.8064 9.03107 13.8449 9.02254 13.8854C9.01401 13.9259 9.01368 13.9676 9.02157 14.0083C9.15207 14.5342 9.4555 15.0026 9.88435 15.3401C10.3132 15.6776 10.8433 15.8651 11.3916 15.8733V16.6265C11.3916 16.7942 11.459 16.955 11.5791 17.0735C11.6992 17.1921 11.862 17.2587 12.0318 17.2587C12.2016 17.2587 12.3644 17.1921 12.4845 17.0735C12.6045 16.955 12.672 16.7942 12.672 16.6265V15.8644C13.292 15.8574 13.8847 15.6118 14.324 15.1797C14.7633 14.7476 15.0144 14.1632 15.0238 13.551C15.0238 12.4122 14.361 11.7576 12.79 11.4259L11.882 11.2286C10.9739 11.0044 10.5471 10.7085 10.5471 10.2064C10.5471 9.70428 11.0919 9.14835 12 9.14835C12.286 9.11885 12.5745 9.17174 12.8307 9.30062C13.0869 9.4295 13.2998 9.62887 13.4438 9.87465C13.5022 9.99739 13.5946 10.1013 13.7103 10.1743C13.826 10.2473 13.9603 10.2864 14.0976 10.2871H14.5244C14.6214 10.2637 14.7053 10.2036 14.7579 10.1197C14.8106 10.0359 14.8278 9.93502 14.8059 9.83878C14.6829 9.35318 14.4077 8.91834 14.0196 8.59631C13.6315 8.27427 13.1503 8.08148 12.6447 8.04545V7.42675C12.6447 7.25909 12.5773 7.0983 12.4572 6.97975C12.3372 6.8612 12.1743 6.7946 12.0045 6.7946C11.8348 6.7946 11.6719 6.8612 11.5519 6.97975C11.4318 7.0983 11.3644 7.25909 11.3644 7.42675ZM5.51358 7.38661C4.53064 8.72905 4.00104 10.3432 4 11.9997C4.00104 13.6515 4.52756 15.2611 5.50519 16.6014C6.48281 17.9416 7.86214 18.9447 9.44835 19.469H9.57548C9.68386 19.469 9.78779 19.4265 9.86442 19.3508C9.94106 19.2751 9.98411 19.1725 9.98411 19.0655V18.8772C9.98441 18.7103 9.93451 18.547 9.84075 18.4081C9.74699 18.2693 9.61358 18.161 9.45743 18.0971C8.22211 17.6047 7.16399 16.7591 6.41887 15.6686C5.67376 14.5782 5.27565 13.2928 5.27565 11.9773C5.27565 10.6619 5.67376 9.37646 6.41887 8.28603C7.16399 7.19561 8.22211 6.34994 9.45743 5.85758C9.61286 5.79523 9.74596 5.68859 9.83976 5.55125C9.93356 5.41391 9.98381 5.2521 9.98411 5.08644V4.88021C9.9847 4.81966 9.97049 4.75986 9.94269 4.70588C9.91489 4.65191 9.87432 4.60535 9.82442 4.57015C9.77451 4.53495 9.71675 4.51216 9.65603 4.50369C9.59531 4.49523 9.53341 4.50136 9.47559 4.52154C7.88283 5.04169 6.49652 6.04418 5.51358 7.38661ZM18.5011 16.6047C19.4772 15.2627 20.0015 13.6519 20 11.9997C19.9971 10.3496 19.4697 8.7419 18.4922 7.40345C17.5147 6.06499 16.1364 5.06326 14.5516 4.53948H14.4154C14.1793 4.53948 13.9886 4.72778 13.9886 4.96091V5.09541C13.9923 5.26835 14.0466 5.43655 14.1448 5.57974C14.2431 5.72293 14.3812 5.83499 14.5426 5.90241C15.7751 6.39622 16.8303 7.24194 17.5733 8.33134C18.3162 9.42074 18.7131 10.7043 18.7131 12.0177C18.7131 13.3311 18.3162 14.6146 17.5733 15.704C16.8303 16.7934 15.7751 17.6391 14.5426 18.1329C14.3843 18.2011 14.249 18.3123 14.1525 18.4537C14.056 18.595 14.0023 18.7606 13.9977 18.931V19.0834C13.9985 19.1499 14.0152 19.2152 14.0464 19.2741C14.0777 19.333 14.1226 19.3838 14.1775 19.4222C14.2324 19.4607 14.2957 19.4858 14.3623 19.4955C14.4289 19.5052 14.4969 19.4992 14.5607 19.478C16.1467 18.9517 17.5251 17.9466 18.5011 16.6047Z" fill="url(#paint1_linear_12209_15703)"/>
<defs>
<filter id="filter0_f_12209_15703" x="-4.65939" y="-10.7162" width="36.394" height="36.4296" filterUnits="userSpaceOnUse" color-interpolation-filters="sRGB">
<feFlood flood-opacity="0" result="BackgroundImageFix"/>
<feBlend mode="normal" in="SourceGraphic" in2="BackgroundImageFix" result="shape"/>
<feGaussianBlur stdDeviation="5.44591" result="effect1_foregroundBlur_12209_15703"/>
</filter>
<filter id="filter1_f_12209_15703" x="1.54648" y="-4.32248" width="34.0936" height="34.1427" filterUnits="userSpaceOnUse" color-interpolation-filters="sRGB">
<feFlood flood-opacity="0" result="BackgroundImageFix"/>
<feBlend mode="normal" in="SourceGraphic" in2="BackgroundImageFix" result="shape"/>
<feGaussianBlur stdDeviation="4.0627" result="effect1_foregroundBlur_12209_15703"/>
</filter>
<filter id="filter2_f_12209_15703" x="-12.1838" y="-2.86248" width="33.2134" height="33.2138" filterUnits="userSpaceOnUse" color-interpolation-filters="sRGB">
<feFlood flood-opacity="0" result="BackgroundImageFix"/>
<feBlend mode="normal" in="SourceGraphic" in2="BackgroundImageFix" result="shape"/>
<feGaussianBlur stdDeviation="3.83605" result="effect1_foregroundBlur_12209_15703"/>
</filter>
<filter id="filter3_f_12209_15703" x="-2.4957" y="5.15115" width="29.2307" height="29.1328" filterUnits="userSpaceOnUse" color-interpolation-filters="sRGB">
<feFlood flood-opacity="0" result="BackgroundImageFix"/>
<feBlend mode="normal" in="SourceGraphic" in2="BackgroundImageFix" result="shape"/>
<feGaussianBlur stdDeviation="4.5252" result="effect1_foregroundBlur_12209_15703"/>
</filter>
<filter id="filter4_f_12209_15703" x="-2.87535" y="-2.87523" width="29.7507" height="29.7507" filterUnits="userSpaceOnUse" color-interpolation-filters="sRGB">
<feFlood flood-opacity="0" result="BackgroundImageFix"/>
<feBlend mode="normal" in="SourceGraphic" in2="BackgroundImageFix" result="shape"/>
<feGaussianBlur stdDeviation="1.43768" result="effect1_foregroundBlur_12209_15703"/>
</filter>
<filter id="filter5_dd_12209_15703" x="-1.57487" y="-1.67746" width="27.629" height="28.1768" filterUnits="userSpaceOnUse" color-interpolation-filters="sRGB">
<feFlood flood-opacity="0" result="BackgroundImageFix"/>
<feColorMatrix in="SourceAlpha" type="matrix" values="0 0 0 0 0 0 0 0 0 0 0 0 0 0 0 0 0 0 127 0" result="hardAlpha"/>
<feOffset dx="-0.410836" dy="-0.513545"/>
<feGaussianBlur stdDeviation="0.582017"/>
<feColorMatrix type="matrix" values="0 0 0 0 1 0 0 0 0 1 0 0 0 0 1 0 0 0 0.4 0"/>
<feBlend mode="normal" in2="BackgroundImageFix" result="effect1_dropShadow_12209_15703"/>
<feColorMatrix in="SourceAlpha" type="matrix" values="0 0 0 0 0 0 0 0 0 0 0 0 0 0 0 0 0 0 127 0" result="hardAlpha"/>
<feOffset dx="0.445072" dy="0.890144"/>
<feGaussianBlur stdDeviation="0.804553"/>
<feColorMatrix type="matrix" values="0 0 0 0 0 0 0 0 0 0 0 0 0 0 0 0 0 0 0.25 0"/>
<feBlend mode="normal" in2="effect1_dropShadow_12209_15703" result="effect2_dropShadow_12209_15703"/>
<feBlend mode="normal" in="SourceGraphic" in2="effect2_dropShadow_12209_15703" result="shape"/>
</filter>
<filter id="filter6_dd_12209_15703" x="-1.57487" y="-1.67746" width="27.629" height="28.1768" filterUnits="userSpaceOnUse" color-interpolation-filters="sRGB">
<feFlood flood-opacity="0" result="BackgroundImageFix"/>
<feColorMatrix in="SourceAlpha" type="matrix" values="0 0 0 0 0 0 0 0 0 0 0 0 0 0 0 0 0 0 127 0" result="hardAlpha"/>
<feOffset dx="-0.410836" dy="-0.513545"/>
<feGaussianBlur stdDeviation="0.582017"/>
<feColorMatrix type="matrix" values="0 0 0 0 1 0 0 0 0 1 0 0 0 0 1 0 0 0 0.4 0"/>
<feBlend mode="normal" in2="BackgroundImageFix" result="effect1_dropShadow_12209_15703"/>
<feColorMatrix in="SourceAlpha" type="matrix" values="0 0 0 0 0 0 0 0 0 0 0 0 0 0 0 0 0 0 127 0" result="hardAlpha"/>
<feOffset dx="0.445072" dy="0.890144"/>
<feGaussianBlur stdDeviation="0.804553"/>
<feColorMatrix type="matrix" values="0 0 0 0 0 0 0 0 0 0 0 0 0 0 0 0 0 0 0.25 0"/>
<feBlend mode="normal" in2="effect1_dropShadow_12209_15703" result="effect2_dropShadow_12209_15703"/>
<feBlend mode="normal" in="SourceGraphic" in2="effect2_dropShadow_12209_15703" result="shape"/>
</filter>
<filter id="filter7_f_12209_15703" x="2.20455" y="2.20455" width="19.5909" height="19.5909" filterUnits="userSpaceOnUse" color-interpolation-filters="sRGB">
<feFlood flood-opacity="0" result="BackgroundImageFix"/>
<feBlend mode="normal" in="SourceGraphic" in2="BackgroundImageFix" result="shape"/>
<feGaussianBlur stdDeviation="0.272727" result="effect1_foregroundBlur_12209_15703"/>
</filter>
<linearGradient id="paint0_linear_12209_15703" x1="20.8525" y1="20.3528" x2="3.85254" y2="2.85278" gradientUnits="userSpaceOnUse">
<stop stop-color="#30BAD9"/>
<stop offset="0.340003" stop-color="#552CC4"/>
<stop offset="0.662449" stop-color="#5F45D1"/>
<stop offset="1" stop-color="#1362A5"/>
</linearGradient>
<linearGradient id="paint1_linear_12209_15703" x1="17" y1="4.5" x2="6" y2="19" gradientUnits="userSpaceOnUse">
<stop stop-color="#0F2245"/>
<stop offset="1" stop-color="#061022"/>
</linearGradient>
</defs>
</svg>