<svg xmlns="http://www.w3.org/2000/svg" fill="none" viewBox="0 -0.05 24.04 24.07">
<g clip-path="url(#clip0_13927_13836)">
<path d="M12.0394 24.0232C18.6676 24.0232 24.0408 18.634 24.0408 11.986C24.0408 5.33808 18.6676 -0.0511475 12.0394 -0.0511475C5.41128 -0.0511475 0.0380859 5.33808 0.0380859 11.986C0.0380859 18.634 5.41128 24.0232 12.0394 24.0232Z" fill="url(#paint0_linear_13927_13836)"/>
<path d="M14.8039 13.1402L21.7338 11.995L14.8039 10.8497L18.8969 5.12568L13.1899 9.23087L12.048 2.28033L10.9062 9.23087L5.19918 5.12568L9.29215 10.8497L2.3623 11.995L9.29215 13.1402L5.19918 18.8643L10.9062 14.7591L12.048 21.7096L13.1899 14.7591L18.8969 18.8643L14.8039 13.1402Z" fill="white"/>
</g>
<defs>
<linearGradient id="paint0_linear_13927_13836" x1="12.0391" y1="0.0459461" x2="12.0391" y2="23.9279" gradientUnits="userSpaceOnUse">
<stop offset="0.1028" stop-color="#00FFAA"/>
<stop offset="0.999" stop-color="#5F00FA"/>
</linearGradient>
<clipPath id="clip0_13927_13836">
<rect width="24" height="24" fill="white"/>
</clipPath>
</defs>
</svg>