<svg xmlns="http://www.w3.org/2000/svg" fill="none" viewBox="0 0 24 24">
<g clip-path="url(#clip0_12102_3941)">
<mask id="mask0_12102_3941" style="mask-type:luminance" maskUnits="userSpaceOnUse" x="0" y="0" width="24" height="24">
<path d="M24 0H0V24H24V0Z" fill="white"/>
</mask>
<g mask="url(#mask0_12102_3941)">
<path d="M12 24C18.6274 24 24 18.6274 24 12C24 5.3726 18.6274 0 12 0C5.3726 0 0 5.3726 0 12C0 18.6274 5.3726 24 12 24Z" fill="url(#paint0_radial_12102_3941)"/>
<mask id="mask1_12102_3941" style="mask-type:alpha" maskUnits="userSpaceOnUse" x="0" y="0" width="24" height="24">
<path d="M12 24C18.6274 24 24 18.6274 24 12C24 5.3726 18.6274 0 12 0C5.3726 0 0 5.3726 0 12C0 18.6274 5.3726 24 12 24Z" fill="url(#paint1_radial_12102_3941)"/>
</mask>
<g mask="url(#mask1_12102_3941)">
<path opacity="0.2" d="M-0.399414 6.6C-0.399414 6.33492 -0.184511 6.12 0.0805859 6.12H6.64059C6.90567 6.12 7.12059 6.33492 7.12059 6.6V17.76C7.12059 18.0251 6.90567 18.24 6.64059 18.24H0.0805859C-0.184511 18.24 -0.399414 18.0251 -0.399414 17.76V6.6Z" fill="url(#paint2_linear_12102_3941)"/>
<path opacity="0.2" d="M14.4805 16.28C14.4805 16.0149 14.6954 15.8 14.9605 15.8H23.5205C23.7855 15.8 24.0005 16.0149 24.0005 16.28V20.44C24.0005 20.7051 23.7855 20.92 23.5205 20.92H14.9605C14.6954 20.92 14.4805 20.7051 14.4805 20.44V16.28Z" fill="#E74310"/>
<path opacity="0.2" d="M20.0404 17.56C20.3055 17.56 20.5204 17.7749 20.5204 18.04V26.12C20.5204 26.3851 20.3055 26.6 20.0404 26.6H16.8804C16.6153 26.6 16.4004 26.3851 16.4004 26.12V18.04C16.4004 17.7749 16.6153 17.56 16.8804 17.56H20.0404Z" fill="#DF3600"/>
<path opacity="0.1" d="M9.71969 7.79999C9.98477 7.79999 10.1997 8.01491 10.1997 8.27999V14.72C10.1997 14.9851 9.98477 15.2 9.71969 15.2H6.15969C5.89461 15.2 5.67969 14.9851 5.67969 14.72V8.27999C5.67969 8.01491 5.89461 7.79999 6.15969 7.79999H9.71969Z" fill="url(#paint3_linear_12102_3941)"/>
<path opacity="0.1" d="M2.28027 9.71999C2.28027 9.45491 2.49518 9.23999 2.76027 9.23999H8.60027C8.86535 9.23999 9.08027 9.45491 9.08027 9.71999V15.84C9.08027 16.1051 8.86535 16.32 8.60027 16.32H2.76027C2.49518 16.32 2.28027 16.1051 2.28027 15.84V9.71999Z" fill="url(#paint4_linear_12102_3941)"/>
<path opacity="0.2" d="M24.0001 3.28C24.2652 3.28 24.4801 3.4949 24.4801 3.76V11.84C24.4801 12.1051 24.2652 12.32 24.0001 12.32H16.5601C16.295 12.32 16.0801 12.1051 16.0801 11.84V3.76C16.0801 3.4949 16.295 3.28 16.5601 3.28H24.0001Z" fill="#FF9776"/>
<path opacity="0.2" d="M19.4798 -2.07999C19.7449 -2.07999 19.9598 -1.86508 19.9598 -1.59999V7.28001C19.9598 7.54509 19.7449 7.76001 19.4798 7.76001H15.3198C15.0548 7.76001 14.8398 7.54509 14.8398 7.28001V-1.59999C14.8398 -1.86508 15.0548 -2.07999 15.3198 -2.07999H19.4798Z" fill="#FFCA8C"/>
<path opacity="0.2" d="M21.6401 -0.480011C21.9052 -0.480011 22.1201 -0.265107 22.1201 -1.05798e-05V9.87999C22.1201 10.1451 21.9052 10.36 21.6401 10.36H12.6001C12.335 10.36 12.1201 10.1451 12.1201 9.87999V-1.07288e-05C12.1201 -0.265107 12.335 -0.480011 12.6001 -0.480011H21.6401Z" fill="url(#paint5_linear_12102_3941)"/>
<path opacity="0.1" d="M8.47984 -3.28C8.74492 -3.28 8.95984 -3.06509 8.95984 -2.8V3.84C8.95984 4.10508 8.74492 4.32 8.47984 4.32H5.31984C5.05476 4.32 4.83984 4.10508 4.83984 3.84V-2.8C4.83984 -3.06509 5.05476 -3.28 5.31984 -3.28H8.47984Z" fill="#DF3600"/>
<path opacity="0.1" d="M8.84031 17.32C9.10539 17.32 9.32031 17.5349 9.32031 17.8V23.52C9.32031 23.7851 9.10539 24 8.84031 24H0.800312C0.535216 24 0.320312 23.7851 0.320312 23.52L0.320313 17.8C0.320313 17.5349 0.535216 17.32 0.800312 17.32H8.84031Z" fill="#DF3600"/>
<path opacity="0.1" d="M15.9202 14.12C16.1853 14.12 16.4002 14.3349 16.4002 14.6V23.52C16.4002 23.7851 16.1853 24 15.9202 24H6.72023C6.45515 24 6.24023 23.7851 6.24023 23.52V14.6C6.24023 14.3349 6.45515 14.12 6.72023 14.12H15.9202Z" fill="#FFD494"/>
<path opacity="0.2" d="M12.8798 4.19628e-07C13.1449 4.31216e-07 13.3598 0.214904 13.3598 0.48V2.8C13.3598 3.0651 13.1449 3.28 12.8798 3.28H3.2798C3.01471 3.28 2.7998 3.0651 2.7998 2.8V0.48C2.7998 0.214903 3.01471 -1.15878e-08 3.2798 0L12.8798 4.19628e-07Z" fill="#FFD494"/>
<path opacity="0.1" d="M5.30978 23.7663L23.2861 5.78995L22.6696 5.17342L4.69326 23.1498L5.30978 23.7663Z" fill="#DF3600"/>
<path opacity="0.1" d="M3.96115 22.4578L21.9375 4.48145L21.1348 3.67875L3.15846 21.6551L3.96115 22.4578Z" fill="#DF3600"/>
<path opacity="0.1" d="M3.20236 21.6191L21.1787 3.6427L20.376 2.84001L2.39967 20.8164L3.20236 21.6191Z" fill="#F45C2C"/>
<path opacity="0.2" d="M2.48263 20.739L20.459 2.7627L19.7983 2.10206L1.822 20.0784L2.48263 20.739Z" fill="#F45C2C"/>
<path opacity="0.1" d="M1.82052 20.077L19.7969 2.10062L19.1362 1.43998L1.15989 19.4163L1.82052 20.077Z" fill="#FFBC6E"/>
<path opacity="0.1" d="M1.38107 19.197L19.3574 1.22061L18.6968 0.559976L0.720435 18.5363L1.38107 19.197Z" fill="#DF3600"/>
<path opacity="0.09" d="M-0.738973 13.917L13.4355 -0.257538L12.7749 -0.918174L-1.39961 13.2563L-0.738973 13.917Z" fill="#FFD5A4"/>
<path opacity="0.08" d="M-1.49874 13.1151L12.6758 -1.05939L12.0151 -1.72002L-2.15937 12.4545L-1.49874 13.1151Z" fill="#FFD5A4"/>
<path opacity="0.05" d="M-2.1794 12.1952L11.9951 -1.97937L11.3345 -2.64001L-2.84004 11.5345L-2.1794 12.1952Z" fill="#FFD5A4"/>
<path opacity="0.2" d="M0.380889 15.8435L16.8438 -0.619385L16.1831 -1.28002L-0.279747 15.1828L0.380889 15.8435Z" fill="#FFD5A4"/>
<path opacity="0.2" d="M0.820342 16.8835L17.2832 0.420624L16.6226 -0.240012L0.159706 16.2228L0.820342 16.8835Z" fill="#FFD5A4"/>
<path opacity="0.1" d="M0.100599 14.637L14.7119 0.0256653L14.0513 -0.63497L-0.560037 13.9763L0.100599 14.637Z" fill="#FFD5A4"/>
<path opacity="0.1" d="M5.28342 23.7798L23.2598 5.80341L21.9418 4.4854L3.96541 22.4618L5.28342 23.7798Z" fill="#DF3600"/>
<path opacity="0.1" d="M5.28342 23.7798L23.2598 5.80341L21.935 4.47869L3.9587 22.455L5.28342 23.7798Z" fill="#DF3600"/>
</g>
<path d="M11.9826 14.5892L7.41699 11.8884L11.9826 4.31467L16.544 11.8884L11.9826 14.5892Z" fill="white"/>
<path d="M11.9826 19.1876L7.41699 12.7573L11.9826 15.454L16.5482 12.7573L11.9826 19.1876Z" fill="white"/>
</g>
</g>
<defs>
<radialGradient id="paint0_radial_12102_3941" cx="0" cy="0" r="1" gradientUnits="userSpaceOnUse" gradientTransform="translate(7.84 5.74) rotate(54.1675) scale(19.8833)">
<stop stop-color="#FFD794"/>
<stop offset="1" stop-color="#ED5A37"/>
</radialGradient>
<radialGradient id="paint1_radial_12102_3941" cx="0" cy="0" r="1" gradientUnits="userSpaceOnUse" gradientTransform="translate(7.84 5.74) rotate(54.1675) scale(19.8833)">
<stop stop-color="#FFD794"/>
<stop offset="1" stop-color="#ED5A37"/>
</radialGradient>
<linearGradient id="paint2_linear_12102_3941" x1="3.36059" y1="6.12" x2="3.36059" y2="18.24" gradientUnits="userSpaceOnUse">
<stop stop-color="#FFE090"/>
<stop offset="1" stop-color="#FFE090" stop-opacity="0"/>
</linearGradient>
<linearGradient id="paint3_linear_12102_3941" x1="7.91969" y1="7.79999" x2="7.91969" y2="14.64" gradientUnits="userSpaceOnUse">
<stop stop-color="#DF3600"/>
<stop offset="1" stop-color="#DF3600" stop-opacity="0"/>
</linearGradient>
<linearGradient id="paint4_linear_12102_3941" x1="2.28027" y1="12.8113" x2="8.56567" y2="12.8113" gradientUnits="userSpaceOnUse">
<stop stop-color="#DF3600"/>
<stop offset="1" stop-color="#DF3600" stop-opacity="0"/>
</linearGradient>
<linearGradient id="paint5_linear_12102_3941" x1="17.1201" y1="-0.480011" x2="17.1201" y2="10.36" gradientUnits="userSpaceOnUse">
<stop stop-color="#DF3600"/>
<stop offset="1" stop-color="#DF3600" stop-opacity="0"/>
</linearGradient>
<clipPath id="clip0_12102_3941">
<rect width="24" height="24" fill="white"/>
</clipPath>
</defs>
</svg>