<svg xmlns="http://www.w3.org/2000/svg" fill="none" viewBox="0 0 34 34">
<g clip-path="url(#clip0_12268_19635)">
<path fill-rule="evenodd" clip-rule="evenodd" d="M17 33C25.8366 33 33 25.8366 33 17C33 8.16344 25.8366 1 17 1C8.16344 1 1 8.16344 1 17C1 25.8366 8.16344 33 17 33ZM17 34C26.3888 34 34 26.3888 34 17C34 7.61116 26.3888 0 17 0C7.61116 0 0 7.61116 0 17C0 26.3888 7.61116 34 17 34Z" fill="#33F8FF"/>
<mask id="mask0_12268_19635" style="mask-type:luminance" maskUnits="userSpaceOnUse" x="1" y="1" width="32" height="32">
<path d="M33 1H1V33H33V1Z" fill="white"/>
</mask>
<g mask="url(#mask0_12268_19635)">
<path d="M17 33C25.8365 33 33 25.8365 33 17C33 8.16347 25.8365 1 17 1C8.16347 1 1 8.16347 1 17C1 25.8365 8.16347 33 17 33Z" fill="url(#paint0_radial_12268_19635)"/>
<mask id="mask1_12268_19635" style="mask-type:alpha" maskUnits="userSpaceOnUse" x="1" y="1" width="32" height="32">
<path d="M17 33C25.8365 33 33 25.8365 33 17C33 8.16347 25.8365 1 17 1C8.16347 1 1 8.16347 1 17C1 25.8365 8.16347 33 17 33Z" fill="url(#paint1_radial_12268_19635)"/>
</mask>
<g mask="url(#mask1_12268_19635)">
<path opacity="0.2" d="M0.46582 9.79997C0.46582 9.44653 0.752358 9.15997 1.10582 9.15997H9.85249C10.2059 9.15997 10.4925 9.44653 10.4925 9.79997V24.68C10.4925 25.0334 10.2059 25.32 9.85249 25.32H1.10582C0.752358 25.32 0.46582 25.0334 0.46582 24.68V9.79997Z" fill="url(#paint2_linear_12268_19635)"/>
<path opacity="0.2" d="M20.3066 22.7067C20.3066 22.3532 20.5932 22.0667 20.9466 22.0667H32.36C32.7134 22.0667 33 22.3532 33 22.7067V28.2533C33 28.6068 32.7134 28.8933 32.36 28.8933H20.9466C20.5932 28.8933 20.3066 28.6068 20.3066 28.2533V22.7067Z" fill="#E74310"/>
<path opacity="0.2" d="M27.7195 24.4133C28.073 24.4133 28.3595 24.6999 28.3595 25.0533V35.8267C28.3595 36.1801 28.073 36.4667 27.7195 36.4667H23.5062C23.1528 36.4667 22.8662 36.1801 22.8662 35.8267V25.0533C22.8662 24.6999 23.1528 24.4133 23.5062 24.4133H27.7195Z" fill="#DF3600"/>
<path opacity="0.1" d="M13.9599 11.4C14.3133 11.4 14.5999 11.6865 14.5999 12.04V20.6266C14.5999 20.9801 14.3133 21.2666 13.9599 21.2666H9.21324C8.8598 21.2666 8.57324 20.9801 8.57324 20.6266V12.04C8.57324 11.6865 8.8598 11.4 9.21324 11.4H13.9599Z" fill="url(#paint3_linear_12268_19635)"/>
<path opacity="0.1" d="M4.04004 13.96C4.04004 13.6066 4.32658 13.32 4.68004 13.32H12.4667C12.8201 13.32 13.1067 13.6066 13.1067 13.96V22.12C13.1067 22.4734 12.8201 22.76 12.4667 22.76H4.68004C4.32658 22.76 4.04004 22.4734 4.04004 22.12V13.96Z" fill="url(#paint4_linear_12268_19635)"/>
<path opacity="0.2" d="M32.9995 5.37329C33.3529 5.37329 33.6395 5.65983 33.6395 6.01329V16.7866C33.6395 17.1401 33.3529 17.4266 32.9995 17.4266H23.0795C22.726 17.4266 22.4395 17.1401 22.4395 16.7866V6.01329C22.4395 5.65983 22.726 5.37329 23.0795 5.37329H32.9995Z" fill="#FF9776"/>
<path opacity="0.2" d="M26.9728 -1.77338C27.3262 -1.77338 27.6128 -1.48684 27.6128 -1.13338V10.7066C27.6128 11.0601 27.3262 11.3466 26.9728 11.3466H21.4261C21.0727 11.3466 20.7861 11.0601 20.7861 10.7066V-1.13338C20.7861 -1.48684 21.0727 -1.77338 21.4261 -1.77338H26.9728Z" fill="#FFCA8C"/>
<path opacity="0.2" d="M29.8525 0.359985C30.206 0.359985 30.4925 0.646523 30.4925 0.999986V14.1733C30.4925 14.5268 30.206 14.8133 29.8525 14.8133H17.7992C17.4457 14.8133 17.1592 14.5268 17.1592 14.1733V0.999986C17.1592 0.646523 17.4457 0.359985 17.7992 0.359985H29.8525Z" fill="url(#paint5_linear_12268_19635)"/>
<path opacity="0.1" d="M12.3065 -3.37335C12.6599 -3.37335 12.9465 -3.08681 12.9465 -2.73335V6.11998C12.9465 6.47342 12.6599 6.75998 12.3065 6.75998H8.09313C7.73969 6.75998 7.45312 6.47342 7.45312 6.11998V-2.73335C7.45312 -3.08681 7.73969 -3.37335 8.09313 -3.37335H12.3065Z" fill="#DF3600"/>
<path opacity="0.1" d="M12.7858 24.0933C13.1392 24.0933 13.4258 24.3799 13.4258 24.7333V32.36C13.4258 32.7134 13.1392 33 12.7858 33H2.06578C1.71232 33 1.42578 32.7134 1.42578 32.36L1.42578 24.7333C1.42578 24.3799 1.71232 24.0933 2.06578 24.0933H12.7858Z" fill="#DF3600"/>
<path opacity="0.1" d="M22.226 19.8267C22.5794 19.8267 22.866 20.1132 22.866 20.4667V32.36C22.866 32.7134 22.5794 33 22.226 33H9.95934C9.6059 33 9.31934 32.7134 9.31934 32.36V20.4667C9.31934 20.1132 9.6059 19.8267 9.95934 19.8267H22.226Z" fill="#FFD494"/>
<path opacity="0.2" d="M18.1724 1C18.5259 1 18.8124 1.28654 18.8124 1.64V4.73333C18.8124 5.08679 18.5259 5.37333 18.1724 5.37333H5.37242C5.01896 5.37333 4.73242 5.08679 4.73242 4.73333V1.64C4.73242 1.28654 5.01896 1 5.37242 1L18.1724 1Z" fill="#FFD494"/>
<path opacity="0.1" d="M8.07938 32.6884L32.0479 8.71991L31.2258 7.89788L7.25735 31.8663L8.07938 32.6884Z" fill="#DF3600"/>
<path opacity="0.1" d="M6.28153 30.9437L30.25 6.97522L29.1797 5.90496L5.21127 29.8734L6.28153 30.9437Z" fill="#DF3600"/>
<path opacity="0.1" d="M5.26981 29.8254L29.2383 5.85693L28.168 4.78668L4.19955 28.7551L5.26981 29.8254Z" fill="#F45C2C"/>
<path opacity="0.2" d="M4.30985 28.6521L28.2783 4.68359L27.3975 3.80275L3.429 27.7712L4.30985 28.6521Z" fill="#F45C2C"/>
<path opacity="0.1" d="M3.42704 27.7693L27.3955 3.80084L26.5147 2.91999L2.54619 26.8885L3.42704 27.7693Z" fill="#FFBC6E"/>
<path opacity="0.1" d="M2.84013 26.596L26.8086 2.6275L25.9277 1.74665L1.95928 25.7151L2.84013 26.596Z" fill="#DF3600"/>
<path opacity="0.09" d="M0.0137259 19.556L18.9131 0.656616L18.0322 -0.224231L-0.867122 18.6751L0.0137259 19.556Z" fill="#FFD5A4"/>
<path opacity="0.08" d="M-0.999946 18.4868L17.8994 -0.412537L17.0186 -1.29338L-1.88079 17.606L-0.999946 18.4868Z" fill="#FFD5A4"/>
<path opacity="0.05" d="M-1.9062 17.2602L16.9932 -1.63916L16.1123 -2.52001L-2.78704 16.3794L-1.9062 17.2602Z" fill="#FFD5A4"/>
<path opacity="0.2" d="M1.50753 22.1246L23.458 0.174133L22.5772 -0.706714L0.626679 21.2438L1.50753 22.1246Z" fill="#FFD5A4"/>
<path opacity="0.2" d="M2.09346 23.5113L24.0439 1.56079L23.1631 0.679943L1.21262 22.6304L2.09346 23.5113Z" fill="#FFD5A4"/>
<path opacity="0.1" d="M1.13348 20.5159L20.6152 1.03418L19.7344 0.153332L0.252633 19.6351L1.13348 20.5159Z" fill="#FFD5A4"/>
<path opacity="0.1" d="M8.04423 32.7063L32.0127 8.73785L30.2554 6.98052L6.28689 30.949L8.04423 32.7063Z" fill="#DF3600"/>
<path opacity="0.1" d="M8.04423 32.7063L32.0127 8.73785L30.2464 6.97157L6.27794 30.94L8.04423 32.7063Z" fill="#DF3600"/>
</g>
<path d="M16.9761 20.4523L10.8887 16.8513L16.9761 6.75293L23.0581 16.8513L16.9761 20.4523Z" fill="white"/>
<path d="M16.9761 26.5835L10.8887 18.0097L16.9761 21.6053L23.0636 18.0097L16.9761 26.5835Z" fill="white"/>
</g>
</g>
<defs>
<radialGradient id="paint0_radial_12268_19635" cx="0" cy="0" r="1" gradientUnits="userSpaceOnUse" gradientTransform="translate(11.4533 8.65333) rotate(54.1675) scale(26.511)">
<stop stop-color="#FFD794"/>
<stop offset="1" stop-color="#ED5A37"/>
</radialGradient>
<radialGradient id="paint1_radial_12268_19635" cx="0" cy="0" r="1" gradientUnits="userSpaceOnUse" gradientTransform="translate(11.4533 8.65333) rotate(54.1675) scale(26.511)">
<stop stop-color="#FFD794"/>
<stop offset="1" stop-color="#ED5A37"/>
</radialGradient>
<linearGradient id="paint2_linear_12268_19635" x1="5.47915" y1="9.15997" x2="5.47915" y2="25.32" gradientUnits="userSpaceOnUse">
<stop stop-color="#FFE090"/>
<stop offset="1" stop-color="#FFE090" stop-opacity="0"/>
</linearGradient>
<linearGradient id="paint3_linear_12268_19635" x1="11.5599" y1="11.4" x2="11.5599" y2="20.52" gradientUnits="userSpaceOnUse">
<stop stop-color="#DF3600"/>
<stop offset="1" stop-color="#DF3600" stop-opacity="0"/>
</linearGradient>
<linearGradient id="paint4_linear_12268_19635" x1="4.04004" y1="18.0818" x2="12.4206" y2="18.0818" gradientUnits="userSpaceOnUse">
<stop stop-color="#DF3600"/>
<stop offset="1" stop-color="#DF3600" stop-opacity="0"/>
</linearGradient>
<linearGradient id="paint5_linear_12268_19635" x1="23.8258" y1="0.359985" x2="23.8258" y2="14.8133" gradientUnits="userSpaceOnUse">
<stop stop-color="#DF3600"/>
<stop offset="1" stop-color="#DF3600" stop-opacity="0"/>
</linearGradient>
<clipPath id="clip0_12268_19635">
<rect width="34" height="34" fill="white"/>
</clipPath>
</defs>
</svg>