<svg width="24" height="24" viewBox="0 0 24 24" fill="none" xmlns="http://www.w3.org/2000/svg">
<g clip-path="url(#clip0_14950_14011)">
<path d="M12 24C18.6274 24 24 18.6274 24 12C24 5.37258 18.6274 0 12 0C5.37258 0 0 5.37258 0 12C0 18.6274 5.37258 24 12 24Z" fill="black"/>
<path d="M10.0103 10.9946H8.00098V13.0039H10.0103V10.9946Z" fill="white"/>
<path d="M8.00156 8.9852H5.99219V10.9946H8.00156V8.9852Z" fill="white"/>
<path d="M5.99179 10.9946H3.98242V13.0039H5.99179V10.9946Z" fill="white"/>
<path d="M8.00156 13.0039H5.99219V15.0133H8.00156V13.0039Z" fill="white"/>
<path d="M19.4238 9.41799C19.2821 7.94018 18.0067 7.44413 16.3957 7.30245V6.35584H15.1483V7.24844C14.8206 7.24844 14.4854 7.25473 14.1522 7.26102V6.3551H12.9055V7.30134C12.6355 7.30652 10.9764 7.30504 10.9764 7.30504L10.9727 8.40479L12.0137 8.41071V15.6185H10.9731L10.9639 16.7027C11.2661 16.7027 12.6111 16.7086 12.9026 16.7105V17.6449H14.1492V16.7327C14.491 16.7401 14.8224 16.743 15.1457 16.7426V17.6452H16.3935V16.7149C18.4912 16.5954 19.9602 16.0676 20.1425 14.0981C20.2905 12.5119 19.5448 11.8047 18.354 11.5169C19.0776 11.147 19.53 10.4992 19.4245 9.41762L19.4238 9.41799ZM17.676 13.8507C17.676 15.4002 15.0233 15.223 14.1769 15.2234V12.4764C15.0229 12.4764 17.6745 12.2349 17.6748 13.8507H17.676ZM17.097 9.97471C17.097 11.3844 14.8835 11.2191 14.1788 11.2191V8.72736C14.8846 8.72773 17.0978 8.5043 17.097 9.97471Z" fill="white"/>
</g>
<defs>
<clipPath id="clip0_14950_14011">
<rect width="24" height="24" fill="white"/>
</clipPath>
</defs>
</svg>
