<svg width="34" height="34" viewBox="0 0 34 34" fill="none" xmlns="http://www.w3.org/2000/svg">
<g clip-path="url(#clip0_13970_18614)">
<path fill-rule="evenodd" clip-rule="evenodd" d="M17 33C25.8366 33 33 25.8366 33 17C33 8.16344 25.8366 1 17 1C8.16344 1 1 8.16344 1 17C1 25.8366 8.16344 33 17 33ZM17 34C26.3888 34 34 26.3888 34 17C34 7.61116 26.3888 0 17 0C7.61116 0 0 7.61116 0 17C0 26.3888 7.61116 34 17 34Z" fill="#33F8FF"/>
<circle cx="17" cy="17" r="16" fill="#FF007A"/>
<g clip-path="url(#clip1_13970_18614)">
<path d="M13.5106 8.97626C13.261 8.94014 13.2491 8.9281 13.368 8.91606C13.5938 8.87994 14.1166 8.9281 14.485 9.01238C15.3406 9.21706 16.1131 9.74682 16.933 10.6739L17.1469 10.9267L17.4559 10.8786C18.775 10.6619 20.1297 10.8304 21.2586 11.3602C21.5676 11.5046 22.0548 11.7936 22.1143 11.8658C22.138 11.8899 22.1737 12.0464 22.1974 12.203C22.2806 12.7688 22.245 13.1902 22.0667 13.5153C21.9717 13.6959 21.9717 13.7441 22.0311 13.9006C22.0786 14.021 22.2212 14.1053 22.3519 14.1053C22.6371 14.1053 22.9342 13.6477 23.0768 13.0096L23.1362 12.7568L23.2432 12.8772C23.8493 13.5635 24.3246 14.5146 24.3959 15.1889L24.4197 15.3695L24.3127 15.2129C24.1345 14.936 23.9681 14.7554 23.7423 14.5989C23.3383 14.322 22.9105 14.2377 21.7815 14.1775C20.7595 14.1173 20.1772 14.033 19.6068 13.8404C18.6324 13.5153 18.1333 13.0939 16.9806 11.5408C16.4696 10.8545 16.1487 10.4813 15.8279 10.1682C15.1267 9.48194 14.4256 9.12074 13.5106 8.97626Z" fill="white"/>
<path d="M22.3638 10.5054C22.3875 10.0479 22.4469 9.74686 22.5777 9.46994C22.6252 9.36158 22.6727 9.26526 22.6846 9.26526C22.6965 9.26526 22.6727 9.34954 22.6371 9.44586C22.542 9.71074 22.5301 10.084 22.5895 10.5054C22.6727 11.0472 22.7084 11.1194 23.2788 11.7094C23.5402 11.9863 23.8492 12.3354 23.968 12.4799L24.1701 12.7448L23.968 12.5522C23.7185 12.3114 23.1481 11.8538 23.0174 11.7936C22.9342 11.7455 22.9223 11.7455 22.8629 11.8057C22.8153 11.8538 22.8034 11.9261 22.8034 12.2752C22.7916 12.817 22.7203 13.1541 22.542 13.5033C22.4469 13.6839 22.4351 13.6478 22.5182 13.4431C22.5777 13.2866 22.5895 13.2143 22.5895 12.6966C22.5895 11.6492 22.4707 11.3963 21.7458 10.9749C21.5676 10.8666 21.2586 10.71 21.0803 10.6258C20.8902 10.5415 20.7476 10.4692 20.7595 10.4692C20.7832 10.4452 21.4844 10.6498 21.7577 10.7702C22.1736 10.9388 22.2449 10.9508 22.2925 10.9388C22.3281 10.9027 22.3519 10.8064 22.3638 10.5054Z" fill="white"/>
<path d="M13.9978 12.2993C13.4987 11.601 13.1778 10.5174 13.2491 9.71072L13.2729 9.45789L13.3918 9.48197C13.6057 9.51809 13.974 9.66256 14.1523 9.77092C14.6276 10.0599 14.8415 10.4572 15.0436 11.4445C15.103 11.7334 15.1862 12.0705 15.2218 12.1789C15.2812 12.3595 15.507 12.7809 15.6972 13.0458C15.8279 13.2384 15.7447 13.3347 15.4476 13.3107C14.996 13.2625 14.39 12.8411 13.9978 12.2993Z" fill="white"/>
<path d="M21.7571 17.5367C19.4041 16.5735 18.5723 15.7427 18.5723 14.3341C18.5723 14.1294 18.5841 13.9608 18.5841 13.9608C18.596 13.9608 18.6792 14.0331 18.7862 14.1173C19.2615 14.5026 19.7963 14.6712 21.2817 14.8879C22.1492 15.0203 22.6483 15.1166 23.0999 15.2732C24.5378 15.7548 25.4291 16.742 25.643 18.0785C25.7024 18.4637 25.6667 19.1982 25.5717 19.5835C25.4885 19.8844 25.2508 20.4383 25.1914 20.4503C25.1795 20.4503 25.1557 20.3901 25.1557 20.2938C25.132 19.7881 24.8824 19.3065 24.4665 18.9333C23.9674 18.4999 23.3257 18.1748 21.7571 17.5367Z" fill="white"/>
<path d="M20.0936 17.934C20.0698 17.7534 20.0104 17.5246 19.9748 17.4283L19.9153 17.2477L20.0223 17.3801C20.1768 17.5607 20.2956 17.7774 20.4026 18.0784C20.4857 18.3072 20.4857 18.3794 20.4857 18.7527C20.4857 19.1139 20.4739 19.1981 20.4026 19.4028C20.2837 19.7279 20.1411 19.9567 19.9035 20.2095C19.4756 20.655 18.9171 20.8958 18.1209 21.0041C17.9783 21.0162 17.5743 21.0523 17.2178 21.0764C16.3265 21.1245 15.7323 21.2208 15.1976 21.4135C15.1263 21.4376 15.055 21.4616 15.0431 21.4496C15.0193 21.4255 15.3877 21.2088 15.6848 21.0643C16.1007 20.8597 16.5285 20.7513 17.4673 20.5827C17.9308 20.5105 18.4061 20.4142 18.525 20.366C19.7014 19.9928 20.2837 19.0657 20.0936 17.934Z" fill="white"/>
<path d="M21.1753 19.8724C20.8663 19.1861 20.795 18.5359 20.9614 17.9219C20.9851 17.8617 21.0089 17.8015 21.0327 17.8015C21.0564 17.8015 21.1277 17.8376 21.199 17.8858C21.3416 17.9821 21.6387 18.1507 22.3993 18.5721C23.3618 19.1018 23.9085 19.5112 24.2888 19.9807C24.6215 20.3901 24.8235 20.8596 24.9186 21.4376C24.978 21.7626 24.9424 22.5452 24.8592 22.8703C24.5977 23.8937 24.0036 24.7124 23.1361 25.182C23.0053 25.2542 22.8984 25.3024 22.8865 25.3024C22.8746 25.3024 22.9222 25.182 22.9935 25.0375C23.2787 24.4235 23.3143 23.8335 23.1004 23.1713C22.9697 22.762 22.6964 22.2683 22.1497 21.4376C21.4961 20.4744 21.3416 20.2215 21.1753 19.8724Z" fill="white"/>
<path d="M12.3218 23.5566C13.2012 22.8102 14.2826 22.2804 15.2808 22.1118C15.7086 22.0396 16.4216 22.0637 16.8138 22.172C17.4436 22.3406 18.014 22.7018 18.3111 23.1473C18.5963 23.5807 18.727 23.954 18.8578 24.7847C18.9053 25.1098 18.9647 25.4469 18.9766 25.5191C19.0717 25.9526 19.2618 26.2897 19.4995 26.4703C19.8679 26.7472 20.5096 26.7593 21.1394 26.5185C21.2464 26.4823 21.3414 26.4462 21.3414 26.4583C21.3652 26.4823 21.0443 26.6991 20.8304 26.8074C20.5333 26.9639 20.2957 27.0121 19.9748 27.0121C19.4044 27.0121 18.9172 26.7111 18.525 26.1091C18.4418 25.9887 18.2755 25.6395 18.1329 25.3145C17.7169 24.3392 17.503 24.0503 17.0158 23.7252C16.588 23.4483 16.0414 23.3881 15.6254 23.5928C15.0788 23.8576 14.9362 24.568 15.3165 25.0014C15.471 25.182 15.7562 25.3265 15.9938 25.3626C16.4335 25.4228 16.8138 25.0737 16.8138 24.6282C16.8138 24.3392 16.7068 24.1707 16.4216 24.0382C16.0414 23.8697 15.6254 24.0623 15.6373 24.4356C15.6373 24.5921 15.7086 24.6884 15.8631 24.7606C15.9582 24.8088 15.9582 24.8088 15.8869 24.7967C15.5423 24.7245 15.4591 24.2911 15.7324 24.0142C16.0651 23.677 16.7663 23.8215 17.0039 24.2911C17.099 24.4837 17.1109 24.869 17.0277 25.1098C16.8257 25.6395 16.2553 25.9165 15.673 25.7599C15.2808 25.6516 15.1145 25.5432 14.6391 25.0496C13.8073 24.1827 13.4864 24.0142 12.2981 23.8336L12.0723 23.7974L12.3218 23.5566Z" fill="white"/>
<path fill-rule="evenodd" clip-rule="evenodd" d="M13.3201 13.1782C13.4983 13.419 13.427 13.6477 13.1299 13.8163C12.9635 13.9126 12.6189 14.0089 12.4526 14.0089C12.2624 14.0089 12.0366 13.9126 11.8821 13.7561C11.7752 13.6477 11.3117 12.9615 10.266 11.312C9.46979 10.0478 8.79243 9.00034 8.78054 8.9883C8.73301 8.96422 8.73301 8.96422 10.1828 11.5889C11.0978 13.2384 11.3949 13.8283 11.3949 13.9006C11.3949 14.0571 11.3474 14.1414 11.1573 14.3581C10.8364 14.7193 10.6938 15.1286 10.5868 15.9835C10.468 16.9346 10.1471 17.6089 9.23212 18.7527C8.69736 19.4269 8.61417 19.5473 8.48345 19.8242C8.31708 20.1613 8.26955 20.354 8.24578 20.7874C8.22202 21.2449 8.26955 21.5339 8.40027 21.9673C8.5191 22.3526 8.64982 22.6054 8.97068 23.0991C9.244 23.5325 9.41037 23.8576 9.41037 23.978C9.41037 24.0743 9.43414 24.0743 9.86194 23.978C10.8839 23.7372 11.7277 23.3278 12.1911 22.8221C12.4763 22.5091 12.5476 22.3406 12.5476 21.9071C12.5476 21.6302 12.5357 21.57 12.4644 21.4014C12.3456 21.1366 12.1198 20.9198 11.6326 20.5827C10.9909 20.1372 10.7176 19.7761 10.6463 19.2945C10.5868 18.8851 10.6581 18.6082 11.0146 17.8497C11.383 17.0671 11.4781 16.742 11.5375 15.9474C11.5732 15.4417 11.6326 15.237 11.7752 15.0805C11.9297 14.9119 12.0604 14.8517 12.4288 14.8036C13.0349 14.7193 13.427 14.5628 13.736 14.2618C14.0093 14.0089 14.1281 13.7561 14.14 13.3829L14.1519 13.1059L13.9974 12.9374C13.5889 12.4618 7.07346 5.21021 7.07346 5.21021C7.07346 5.21021 12.5031 12.0746 13.3201 13.1782ZM9.71934 21.3051C9.85006 21.0764 9.77876 20.7874 9.56486 20.6429C9.36284 20.5105 9.05386 20.5707 9.05386 20.7513C9.05386 20.7994 9.07763 20.8476 9.14893 20.8717C9.25588 20.9319 9.26777 20.9921 9.18458 21.1245C9.1014 21.257 9.1014 21.3774 9.20835 21.4616C9.37472 21.5941 9.60051 21.5218 9.71934 21.3051Z" fill="white"/>
<path fill-rule="evenodd" clip-rule="evenodd" d="M14.5321 14.9722C14.2469 15.0565 13.9736 15.3695 13.8904 15.6825C13.8429 15.8752 13.8667 16.2243 13.9499 16.3327C14.0806 16.5012 14.1994 16.5494 14.5321 16.5494C15.1857 16.5494 15.7443 16.2604 15.8037 15.9113C15.8631 15.6223 15.6136 15.225 15.2689 15.0444C15.0907 14.9481 14.7223 14.912 14.5321 14.9722ZM15.2927 15.5742C15.3878 15.4297 15.3521 15.2732 15.1739 15.1648C14.853 14.9601 14.3658 15.1287 14.3658 15.4417C14.3658 15.5983 14.6153 15.7668 14.853 15.7668C15.0075 15.7668 15.2214 15.6705 15.2927 15.5742Z" fill="white"/>
</g>
</g>
<defs>
<clipPath id="clip0_13970_18614">
<rect width="34" height="34" rx="17" fill="white"/>
</clipPath>
<clipPath id="clip1_13970_18614">
<rect width="20" height="23.3333" fill="white" transform="translate(5.66699 3.66669)"/>
</clipPath>
</defs>
</svg>
