<svg xmlns="http://www.w3.org/2000/svg" fill="none" viewBox="0 0 24 24">
<circle cx="12" cy="12" r="12" fill="#FF007A"/>
<g clip-path="url(#clip0_13970_18370)">
<path d="M9.38244 5.9822C9.19527 5.95511 9.18636 5.94608 9.27549 5.93705C9.44483 5.90996 9.83699 5.94608 10.1133 6.00929C10.755 6.1628 11.3343 6.56011 11.9493 7.25542L12.1097 7.44505L12.3414 7.40893C13.3307 7.24639 14.3468 7.37281 15.1935 7.77012C15.4252 7.87848 15.7906 8.0952 15.8352 8.14938C15.853 8.16744 15.8798 8.28483 15.8976 8.40222C15.96 8.82663 15.9332 9.14267 15.7996 9.38648C15.7283 9.52193 15.7283 9.55805 15.7728 9.67544C15.8085 9.76574 15.9154 9.82895 16.0135 9.82895C16.2274 9.82895 16.4502 9.48581 16.5571 9.00722L16.6017 8.8176L16.6819 8.90789C17.1365 9.4226 17.493 10.136 17.5464 10.6416L17.5643 10.7771L17.484 10.6597C17.3504 10.452 17.2256 10.3166 17.0562 10.1992C16.7532 9.99149 16.4324 9.92828 15.5857 9.88313C14.8192 9.83798 14.3824 9.77477 13.9546 9.63029C13.2238 9.38648 12.8495 9.07043 11.9849 7.90557C11.6017 7.39087 11.3611 7.11094 11.1204 6.87616C10.5946 6.36145 10.0687 6.09056 9.38244 5.9822Z" fill="white"/>
<path d="M16.0221 7.129C16.0399 6.78586 16.0845 6.56011 16.1825 6.35242C16.2182 6.27115 16.2538 6.19891 16.2627 6.19891C16.2716 6.19891 16.2538 6.26212 16.2271 6.33436C16.1558 6.53302 16.1469 6.81295 16.1914 7.129C16.2538 7.53534 16.2806 7.58952 16.7084 8.03199C16.9044 8.23968 17.1362 8.50154 17.2253 8.6099L17.3768 8.80856L17.2253 8.66408C17.0381 8.48349 16.6103 8.14035 16.5123 8.0952C16.4499 8.05908 16.441 8.05908 16.3964 8.10423C16.3608 8.14035 16.3519 8.19453 16.3519 8.4564C16.3429 8.86274 16.2895 9.11558 16.1558 9.37745C16.0845 9.5129 16.0756 9.48581 16.138 9.3323C16.1825 9.21491 16.1914 9.16073 16.1914 8.77244C16.1914 7.98684 16.1023 7.79721 15.5586 7.48116C15.4249 7.39989 15.1932 7.2825 15.0595 7.2193C14.9169 7.15609 14.81 7.10191 14.8189 7.10191C14.8367 7.08385 15.3625 7.23736 15.5675 7.32765C15.8795 7.45407 15.933 7.4631 15.9686 7.45407C15.9953 7.42698 16.0132 7.35474 16.0221 7.129Z" fill="white"/>
<path d="M9.74763 8.47445C9.37329 7.95071 9.13265 7.13802 9.18613 6.53301L9.20395 6.34338L9.29308 6.36144C9.45351 6.38853 9.7298 6.49689 9.86349 6.57816C10.22 6.79488 10.3804 7.09287 10.5319 7.83332C10.5765 8.05004 10.6389 8.30288 10.6656 8.38415C10.7102 8.5196 10.8795 8.83564 11.0221 9.0343C11.1202 9.17878 11.0578 9.25102 10.835 9.23296C10.4963 9.19684 10.0417 8.88079 9.74763 8.47445Z" fill="white"/>
<path d="M15.5673 12.4025C13.8026 11.6801 13.1787 11.057 13.1787 10.0005C13.1787 9.847 13.1876 9.72058 13.1876 9.72058C13.1965 9.72058 13.2589 9.77476 13.3391 9.83797C13.6956 10.1269 14.0967 10.2533 15.2108 10.4159C15.8614 10.5152 16.2358 10.5875 16.5744 10.7048C17.6529 11.066 18.3213 11.8065 18.4817 12.8088C18.5263 13.0978 18.4996 13.6486 18.4283 13.9376C18.3659 14.1633 18.1876 14.5787 18.1431 14.5877C18.1341 14.5877 18.1163 14.5426 18.1163 14.4703C18.0985 14.0911 17.9113 13.7299 17.5994 13.4499C17.2251 13.1249 16.7438 12.8811 15.5673 12.4025Z" fill="white"/>
<path d="M14.3199 12.7005C14.3021 12.565 14.2576 12.3934 14.2308 12.3212L14.1863 12.1858L14.2665 12.2851C14.3823 12.4205 14.4715 12.5831 14.5517 12.8088C14.6141 12.9804 14.6141 13.0346 14.6141 13.3145C14.6141 13.5854 14.6052 13.6486 14.5517 13.8021C14.4626 14.0459 14.3556 14.2175 14.1773 14.4071C13.8565 14.7412 13.4376 14.9218 12.8404 15.0031C12.7335 15.0121 12.4305 15.0392 12.1631 15.0573C11.4946 15.0934 11.049 15.1656 10.6479 15.3101C10.5945 15.3282 10.541 15.3462 10.5321 15.3372C10.5142 15.3191 10.7905 15.1566 11.0134 15.0482C11.3253 14.8947 11.6462 14.8135 12.3503 14.6871C12.6978 14.6329 13.0544 14.5606 13.1435 14.5245C14.0258 14.2446 14.4626 13.5493 14.3199 12.7005Z" fill="white"/>
<path d="M15.1312 14.1543C14.8995 13.6396 14.846 13.152 14.9708 12.6914C14.9886 12.6463 15.0064 12.6011 15.0243 12.6011C15.0421 12.6011 15.0956 12.6282 15.149 12.6643C15.256 12.7366 15.4788 12.863 16.0492 13.1791C16.7711 13.5764 17.1811 13.8834 17.4663 14.2356C17.7159 14.5426 17.8674 14.8947 17.9387 15.3282C17.9833 15.572 17.9565 16.1589 17.8941 16.4027C17.6981 17.1703 17.2524 17.7843 16.6018 18.1365C16.5038 18.1907 16.4235 18.2268 16.4146 18.2268C16.4057 18.2268 16.4414 18.1365 16.4948 18.0281C16.7087 17.5676 16.7355 17.1251 16.5751 16.6285C16.477 16.3215 16.272 15.9512 15.862 15.3282C15.3719 14.6058 15.256 14.4162 15.1312 14.1543Z" fill="white"/>
<path d="M8.49088 16.9174C9.15041 16.3576 9.96147 15.9603 10.7101 15.8339C11.031 15.7797 11.5657 15.7977 11.8599 15.879C12.3322 16.0054 12.76 16.2763 12.9829 16.6104C13.1968 16.9355 13.2948 17.2154 13.3928 17.8385C13.4285 18.0823 13.4731 18.3351 13.482 18.3893C13.5533 18.7144 13.6959 18.9672 13.8741 19.1027C14.1504 19.3104 14.6317 19.3194 15.1041 19.1388C15.1843 19.1117 15.2556 19.0846 15.2556 19.0937C15.2734 19.1117 15.0328 19.2743 14.8723 19.3555C14.6495 19.4729 14.4713 19.509 14.2306 19.509C13.8028 19.509 13.4374 19.2833 13.1433 18.8318C13.0809 18.7415 12.9561 18.4796 12.8492 18.2358C12.5372 17.5044 12.3768 17.2877 12.0114 17.0439C11.6905 16.8362 11.2805 16.791 10.9686 16.9445C10.5586 17.1432 10.4517 17.676 10.7369 18.001C10.8527 18.1365 11.0666 18.2448 11.2449 18.2719C11.5747 18.3171 11.8599 18.0552 11.8599 17.7211C11.8599 17.5044 11.7796 17.378 11.5657 17.2786C11.2805 17.1522 10.9686 17.2967 10.9775 17.5766C10.9775 17.694 11.031 17.7663 11.1468 17.8204C11.2181 17.8566 11.2181 17.8566 11.1647 17.8475C10.9062 17.7934 10.8438 17.4683 11.0488 17.2606C11.2984 17.0077 11.8242 17.1161 12.0025 17.4683C12.0738 17.6128 12.0827 17.9017 12.0203 18.0823C11.8688 18.4796 11.441 18.6873 11.0042 18.5699C10.7101 18.4887 10.5854 18.4074 10.2288 18.0372C9.60496 17.387 9.36432 17.2606 8.47305 17.1251L8.30371 17.098L8.49088 16.9174Z" fill="white"/>
<path fill-rule="evenodd" clip-rule="evenodd" d="M9.2398 9.13364C9.37349 9.31424 9.32001 9.48581 9.09719 9.61222C8.97242 9.68446 8.71395 9.7567 8.58917 9.7567C8.44657 9.7567 8.27723 9.68446 8.16137 9.56707C8.08115 9.4858 7.73356 8.9711 6.94924 7.734C6.3521 6.78586 5.84408 6.00025 5.83516 5.99122C5.79951 5.97316 5.79951 5.97316 6.88686 7.94169C7.57313 9.17879 7.79595 9.62125 7.79595 9.67543C7.79595 9.79282 7.7603 9.85603 7.61769 10.0186C7.37705 10.2895 7.2701 10.5965 7.18989 11.2376C7.10076 11.951 6.86012 12.4567 6.17384 13.3145C5.77277 13.8202 5.71039 13.9105 5.61235 14.1182C5.48757 14.371 5.45192 14.5155 5.43409 14.8406C5.41627 15.1837 5.45192 15.4004 5.54996 15.7255C5.63908 16.0144 5.73712 16.2041 5.97777 16.5743C6.18276 16.8994 6.30753 17.1432 6.30753 17.2335C6.30753 17.3057 6.32536 17.3057 6.64621 17.2335C7.4127 17.0529 8.0455 16.7459 8.3931 16.3666C8.607 16.1318 8.66048 16.0054 8.66048 15.6803C8.66048 15.4726 8.65156 15.4275 8.59809 15.3011C8.50896 15.1024 8.33962 14.9399 7.9742 14.687C7.49292 14.3529 7.28793 14.082 7.23445 13.7208C7.18989 13.4138 7.24336 13.2061 7.51074 12.6373C7.78703 12.0503 7.85834 11.8065 7.9029 11.2105C7.92964 10.8313 7.9742 10.6778 8.08115 10.5604C8.19702 10.4339 8.29506 10.3888 8.57135 10.3527C9.02589 10.2895 9.32001 10.1721 9.55174 9.94633C9.75673 9.7567 9.84586 9.56707 9.85477 9.28715L9.86368 9.07946L9.74782 8.95304C9.44141 8.59636 4.55485 3.15765 4.55485 3.15765C4.55485 3.15765 8.62712 8.30598 9.2398 9.13364ZM6.53926 15.2288C6.6373 15.0573 6.58383 14.8406 6.4234 14.7322C6.27188 14.6329 6.04015 14.678 6.04015 14.8135C6.04015 14.8496 6.05798 14.8857 6.11146 14.9038C6.19167 14.9489 6.20058 14.9941 6.13819 15.0934C6.0758 15.1927 6.0758 15.283 6.15602 15.3462C6.2808 15.4456 6.45014 15.3914 6.53926 15.2288Z" fill="white"/>
<path fill-rule="evenodd" clip-rule="evenodd" d="M10.1489 10.4791C9.93496 10.5423 9.72997 10.7771 9.66758 11.0119C9.63193 11.1563 9.64976 11.4182 9.71215 11.4995C9.81019 11.6259 9.89931 11.662 10.1489 11.662C10.6391 11.662 11.058 11.4453 11.1025 11.1834C11.1471 10.9667 10.9599 10.6687 10.7015 10.5333C10.5678 10.461 10.2915 10.434 10.1489 10.4791ZM10.7193 10.9306C10.7906 10.8222 10.7638 10.7049 10.6302 10.6236C10.3895 10.4701 10.0241 10.5965 10.0241 10.8313C10.0241 10.9487 10.2113 11.0751 10.3895 11.0751C10.5054 11.0751 10.6658 11.0028 10.7193 10.9306Z" fill="white"/>
</g>
<defs>
<clipPath id="clip0_13970_18370">
<rect width="15" height="17.5" fill="white" transform="translate(3.5 2)"/>
</clipPath>
</defs>
</svg>