<svg xmlns="http://www.w3.org/2000/svg" fill="none" viewBox="0 0 34 34">
<path d="M33 17C33 25.8366 25.8366 33 17 33C8.16344 33 1 25.8366 1 17C1 8.16344 8.16344 1 17 1C25.8366 1 33 8.16344 33 17Z" fill="white"/>
<path d="M17 33C8.163 33 1 25.837 1 17C1 8.163 8.163 1 17 1C25.837 1 33 8.163 33 17C33 25.837 25.837 33 17 33ZM16.75 28.5C19.8663 28.5 22.855 27.2621 25.0585 25.0585C27.2621 22.855 28.5 19.8663 28.5 16.75C28.5 10.26 23.24 5 16.75 5C10.26 5 5 10.26 5 16.75C5 23.24 10.26 28.5 16.75 28.5ZM16.05 12.39V11.65C16.05 11.463 16.1243 11.2837 16.2565 11.1515C16.3887 11.0193 16.568 10.945 16.755 10.945C16.942 10.945 17.1213 11.0193 17.2535 11.1515C17.3857 11.2837 17.46 11.463 17.46 11.65V12.34C18.0168 12.3802 18.5467 12.5952 18.9741 12.9543C19.4015 13.3135 19.7045 13.7984 19.84 14.34C19.8641 14.4473 19.8451 14.5598 19.7872 14.6533C19.7292 14.7468 19.6369 14.8139 19.53 14.84H19.06C18.9088 14.8392 18.7609 14.7956 18.6334 14.7142C18.506 14.6328 18.4043 14.5169 18.34 14.38C18.1815 14.1059 17.947 13.8836 17.6648 13.7398C17.3827 13.5961 17.0649 13.5371 16.75 13.57C15.75 13.57 15.15 14.19 15.15 14.75C15.15 15.31 15.62 15.64 16.62 15.89L17.62 16.11C19.35 16.48 20.08 17.21 20.08 18.48C20.0696 19.1627 19.7931 19.8145 19.3093 20.2964C18.8256 20.7783 18.1728 21.0523 17.49 21.06V21.91C17.49 22.097 17.4157 22.2763 17.2835 22.4085C17.1513 22.5407 16.972 22.615 16.785 22.615C16.598 22.615 16.4187 22.5407 16.2865 22.4085C16.1543 22.2763 16.08 22.097 16.08 21.91V21.07C15.4762 21.0608 14.8924 20.8517 14.4201 20.4753C13.9479 20.0989 13.6137 19.5766 13.47 18.99C13.4613 18.9447 13.4617 18.8981 13.4711 18.8529C13.4805 18.8077 13.4987 18.7649 13.5247 18.7268C13.5507 18.6887 13.584 18.6561 13.6227 18.6309C13.6614 18.6057 13.7046 18.5884 13.75 18.58H14.34C14.4681 18.581 14.5933 18.6181 14.7012 18.6871C14.8091 18.7561 14.8954 18.8541 14.95 18.97C15.1344 19.2753 15.401 19.5226 15.7193 19.6836C16.0376 19.8445 16.3948 19.9126 16.75 19.88C17.75 19.88 18.52 19.28 18.52 18.67C18.52 18.06 18.08 17.7 17.01 17.45L15.91 17.19C14.34 16.86 13.6 16.07 13.6 14.86C13.6267 14.2169 13.8928 13.6069 14.3461 13.1499C14.7994 12.6929 15.4071 12.4219 16.05 12.39ZM7.94 16.75C7.94115 14.9025 8.52437 13.1024 9.60683 11.6052C10.6893 10.1081 12.216 8.99009 13.97 8.41C14.0337 8.38749 14.1018 8.38066 14.1687 8.39009C14.2356 8.39953 14.2992 8.42495 14.3541 8.4642C14.4091 8.50346 14.4538 8.55538 14.4844 8.61558C14.515 8.67578 14.5306 8.74247 14.53 8.81V9.04C14.5297 9.22474 14.4743 9.40521 14.371 9.55837C14.2677 9.71154 14.1212 9.83047 13.95 9.9C12.5896 10.4491 11.4243 11.3922 10.6038 12.6083C9.78322 13.8244 9.34481 15.258 9.34481 16.725C9.34481 18.192 9.78322 19.6256 10.6038 20.8417C11.4243 22.0578 12.5896 23.0009 13.95 23.55C14.122 23.6213 14.2689 23.742 14.3721 23.8969C14.4754 24.0518 14.5303 24.2339 14.53 24.42V24.63C14.53 24.7493 14.4826 24.8638 14.3982 24.9482C14.3138 25.0326 14.1993 25.08 14.08 25.08H13.94C12.1932 24.4953 10.6742 23.3766 9.59759 21.8819C8.52097 20.3872 7.94115 18.5921 7.94 16.75ZM25.56 16.75C25.5617 18.5925 24.9843 20.389 23.9094 21.8856C22.8345 23.3821 21.3166 24.5031 19.57 25.09C19.4997 25.1137 19.4249 25.1204 19.3515 25.1096C19.2782 25.0988 19.2084 25.0708 19.148 25.0279C19.0875 24.985 19.038 24.9284 19.0036 24.8627C18.9692 24.797 18.9509 24.7241 18.95 24.65V24.48C18.9551 24.29 19.0142 24.1053 19.1205 23.9477C19.2267 23.79 19.3757 23.666 19.55 23.59C20.9073 23.0393 22.0694 22.0961 22.8876 20.8812C23.7058 19.6662 24.1428 18.2348 24.1428 16.77C24.1428 15.3052 23.7058 13.8738 22.8876 12.6588C22.0694 11.4439 20.9073 10.5007 19.55 9.95C19.3723 9.87481 19.2202 9.74983 19.112 9.59014C19.0038 9.43046 18.944 9.24287 18.94 9.05V8.9C18.94 8.64 19.15 8.43 19.41 8.43H19.56C21.3052 9.01414 22.823 10.1313 23.8995 11.624C24.976 13.1167 25.5568 14.9096 25.56 16.75Z" fill="#3366FF"/>
<path fill-rule="evenodd" clip-rule="evenodd" d="M34 17C34 26.3888 26.3888 34 17 34C7.61116 34 0 26.3888 0 17C0 7.61116 7.61116 0 17 0C26.3888 0 34 7.61116 34 17ZM17 33C25.8366 33 33 25.8366 33 17C33 8.16344 25.8366 1 17 1C8.16344 1 1 8.16344 1 17C1 25.8366 8.16344 33 17 33Z" fill="#33F8FF"/>
</svg>