<svg xmlns="http://www.w3.org/2000/svg" fill="none" viewBox="0 0 24 24">
<path fill-rule="evenodd" clip-rule="evenodd" d="M12 24C18.6274 24 24 18.6274 24 12C24 5.37259 18.6274 3.25295e-06 12 2.09559e-06C5.37258 9.38227e-07 -9.40518e-07 5.37258 -2.10071e-06 12C-3.2609e-06 18.6274 5.37258 24 12 24Z" fill="#50AF95"/>
<path fill-rule="evenodd" clip-rule="evenodd" d="M13.4648 13.0495C13.3829 13.0556 12.9602 13.0809 12.0172 13.0809C11.2672 13.0809 10.7346 13.0584 10.5478 13.0495C7.64926 12.9216 5.48575 12.4157 5.48575 11.8099C5.48575 11.2042 7.64926 10.6989 10.5478 10.569V12.5456C10.7374 12.5593 11.2801 12.5914 12.0301 12.5914C12.9302 12.5914 13.3809 12.5538 13.462 12.5463V10.5704C16.3544 10.6996 18.5132 11.2055 18.5132 11.8099C18.5132 12.4143 16.3551 12.9202 13.462 13.0488L13.4648 13.0495ZM13.4648 10.3659V8.59722H17.5013V5.90002H6.51125V8.59722H10.5471V10.3653C7.26674 10.5164 4.7998 11.1679 4.7998 11.9487C4.7998 12.7295 7.26674 13.3804 10.5471 13.5322V19.2H13.4641V13.5301C16.737 13.379 19.1998 12.7281 19.1998 11.948C19.1998 11.1679 16.739 10.517 13.4641 10.3653L13.4648 10.3659Z" fill="white"/>
</svg>