<svg xmlns="http://www.w3.org/2000/svg" fill="none" viewBox="0 0 34 34">
<path fill-rule="evenodd" clip-rule="evenodd" d="M17 33C25.8366 33 33 25.8366 33 17C33 8.16344 25.8366 1 17 1C8.16344 1 1 8.16344 1 17C1 25.8366 8.16344 33 17 33ZM17 34C26.3888 34 34 26.3888 34 17C34 7.61116 26.3888 0 17 0C7.61116 0 0 7.61116 0 17C0 26.3888 7.61116 34 17 34Z" fill="#33F8FF"/>
<path fill-rule="evenodd" clip-rule="evenodd" d="M17 33C25.8366 33 33 25.8366 33 17C33 8.16345 25.8366 1 17 1C8.16345 1 0.999999 8.16344 0.999997 17C0.999996 25.8366 8.16344 33 17 33Z" fill="#50AF95"/>
<path fill-rule="evenodd" clip-rule="evenodd" d="M18.9596 18.4042C18.8501 18.4124 18.2845 18.4463 17.0228 18.4463C16.0193 18.4463 15.3068 18.4161 15.0568 18.4042C11.1787 18.2331 8.28398 17.5562 8.28398 16.7457C8.28398 15.9352 11.1787 15.2592 15.0568 15.0854V17.73C15.3104 17.7483 16.0366 17.7913 17.0401 17.7913C18.2444 17.7913 18.8474 17.741 18.956 17.7309V15.0873C22.8259 15.2601 25.7142 15.9371 25.7142 16.7457C25.7142 17.5544 22.8268 18.2313 18.956 18.4033L18.9596 18.4042ZM18.9596 14.8137V12.4472H24.3604V8.8385H9.65606V12.4472H15.0559V14.8128C10.6669 15.015 7.36621 15.8868 7.36621 16.9314C7.36621 17.9761 10.6669 18.8469 15.0559 19.05V26.6334H18.9587V19.0473C23.3377 18.8451 26.6329 17.9743 26.6329 16.9305C26.6329 15.8868 23.3404 15.0159 18.9587 14.8128L18.9596 14.8137Z" fill="white"/>
</svg>