<svg xmlns="http://www.w3.org/2000/svg" fill="none" viewBox="0 0 34 34">
<g clip-path="url(#clip0_8622_88898)">
<path d="M33 17C33 25.8366 25.8366 33 17 33C8.16344 33 1 25.8366 1 17C1 8.16344 8.16344 1 17 1C25.8366 1 33 8.16344 33 17Z" fill="white"/>
<path d="M27.0896 7.71484L26.2109 8.59348C28.3075 10.8862 29.4702 13.8806 29.4702 16.9874C29.4702 20.0942 28.3075 23.0886 26.2109 25.3813L27.0896 26.26C29.4212 23.7309 30.7157 20.417 30.7157 16.9771C30.7157 13.5373 29.4212 10.2234 27.0896 7.69434V7.71484Z" fill="#21B9BA"/>
<path d="M8.61789 7.79087C10.9106 5.6943 13.905 4.53164 17.0118 4.53164C20.1186 4.53164 23.113 5.6943 25.4057 7.79087L26.2844 6.91223C23.7553 4.58062 20.4414 3.28613 17.0016 3.28613C13.5617 3.28613 10.2478 4.58062 7.71875 6.91223L8.61789 7.79087Z" fill="#21B9BA"/>
<path d="M7.7938 25.3911C5.69971 23.0989 4.53858 20.1063 4.53858 17.0016C4.53858 13.8968 5.69971 10.9043 7.7938 8.61204L6.91516 7.7334C4.58355 10.2625 3.28906 13.5764 3.28906 17.0162C3.28906 20.4561 4.58355 23.77 6.91516 26.299L7.7938 25.3911Z" fill="#21B9BA"/>
<path d="M25.393 26.2021C23.1003 28.2987 20.1059 29.4614 16.9991 29.4614C13.8923 29.4614 10.898 28.2987 8.6052 26.2021L7.72656 27.0808C10.2556 29.4124 13.5695 30.7069 17.0094 30.7069C20.4492 30.7069 23.7631 29.4124 26.2922 27.0808L25.393 26.2021Z" fill="#21B9BA"/>
<path d="M22.5474 14.0687C22.3716 12.2353 20.7901 11.6203 18.7897 11.4328V8.9082H17.2433V11.386C16.8362 11.386 16.4203 11.386 16.0074 11.386V8.9082H14.4727V11.4504H11.3359V13.1052C11.3359 13.1052 12.4782 13.0847 12.4606 13.1052C12.6665 13.0825 12.8733 13.1407 13.0372 13.2674C13.2011 13.3942 13.3094 13.5796 13.3392 13.7846V20.7435C13.3348 20.8158 13.316 20.8865 13.2838 20.9514C13.2516 21.0162 13.2067 21.074 13.1518 21.1213C13.0979 21.1694 13.0348 21.2062 12.9664 21.2293C12.8979 21.2525 12.8255 21.2616 12.7535 21.256C12.774 21.2736 11.6288 21.256 11.6288 21.256L11.3359 23.1041H14.4434V25.6873H15.9898V23.1421H17.2257V25.6756H18.7751V23.1216C21.3876 22.9635 23.2093 22.3192 23.4377 19.8736C23.6222 17.9055 22.6967 17.0268 21.2177 16.6724C22.1168 16.2302 22.6733 15.4101 22.5474 14.0687ZM20.3801 19.569C20.3801 21.4903 17.0881 21.2706 16.0396 21.2706V17.8615C17.0881 17.8645 20.3801 17.5628 20.3801 19.569ZM19.6625 14.7658C19.6625 16.5231 16.9153 16.3093 16.0425 16.3093V13.2106C16.9153 13.2106 19.6625 12.9353 19.6625 14.7658Z" fill="#014250"/>
<path d="M16.9971 33C13.8328 32.9994 10.7398 32.0606 8.10906 30.3023C5.47832 28.544 3.42801 26.0451 2.21737 23.1216C1.00674 20.1981 0.690129 16.9813 1.30759 13.8778C1.92504 10.7744 3.44883 7.92376 5.6863 5.6863C7.92376 3.44883 10.7744 1.92504 13.8778 1.30759C16.9813 0.690129 20.1981 1.00674 23.1216 2.21737C26.0451 3.42801 28.544 5.47832 30.3023 8.10906C32.0606 10.7398 32.9994 13.8328 33 16.9971C33.0004 19.0987 32.5867 21.1799 31.7826 23.1216C30.9786 25.0633 29.7998 26.8276 28.3137 28.3137C26.8276 29.7998 25.0633 30.9786 23.1216 31.7826C21.1799 32.5867 19.0987 33.0004 16.9971 33V33ZM16.9971 2.24767C14.0818 2.24999 11.2327 3.1165 8.80981 4.7377C6.38691 6.35889 4.49901 8.66198 3.38473 11.3559C2.27045 14.0498 1.97981 17.0135 2.54954 19.8726C3.11927 22.7316 4.5238 25.3576 6.5856 27.4185C8.6474 29.4795 11.2739 30.883 14.1332 31.4516C16.9924 32.0202 19.9561 31.7284 22.6495 30.613C25.343 29.4977 27.6453 27.6089 29.2656 25.1853C30.8858 22.7618 31.7512 19.9123 31.7523 16.9971C31.7531 15.0594 31.3719 13.1407 30.6306 11.3505C29.8893 9.56025 28.8024 7.93372 27.432 6.56388C26.0616 5.19404 24.4346 4.10776 22.6441 3.36715C20.8536 2.62654 18.9347 2.24613 16.9971 2.24767V2.24767Z" fill="#014250"/>
<path fill-rule="evenodd" clip-rule="evenodd" d="M34 17C34 26.3888 26.3888 34 17 34C7.61116 34 0 26.3888 0 17C0 7.61116 7.61116 0 17 0C26.3888 0 34 7.61116 34 17ZM17 33C25.8366 33 33 25.8366 33 17C33 8.16344 25.8366 1 17 1C8.16344 1 1 8.16344 1 17C1 25.8366 8.16344 33 17 33Z" fill="#33F8FF"/>
</g>
<defs>
<clipPath id="clip0_8622_88898">
<rect width="34" height="34" fill="white"/>
</clipPath>
</defs>
</svg>