<svg width="35" height="24" viewBox="0 0 35 24" fill="none" xmlns="http://www.w3.org/2000/svg">
<circle cx="22.7031" cy="12" r="12" fill="white"/>
<path fill-rule="evenodd" clip-rule="evenodd" d="M22.7031 24C16.0754 24 10.7031 18.6277 10.7031 12C10.7031 5.37225 16.0754 0 22.7031 0C29.3309 0 34.7031 5.37225 34.7031 12C34.7031 18.6277 29.3309 24 22.7031 24ZM28.6986 12.1642L23.0766 3L17.4531 12.165L23.0766 15.4297L28.6986 12.1642ZM28.7031 13.212L23.0766 16.4752L17.4531 13.2128L23.0766 20.9963L28.7031 13.212Z" fill="black"/>
<path d="M23.0752 3V9.6525L28.6979 12.165L23.0752 3ZM23.0752 16.476V20.9963L28.7017 13.212L23.0752 16.476Z" fill="black" fill-opacity="0.298"/>
<path d="M23.0752 15.43L28.6979 12.1653L23.0752 9.6543V15.43Z" fill="black" fill-opacity="0.801"/>
<path d="M17.4521 12.1653L23.0756 15.43V9.6543L17.4521 12.1653Z" fill="black" fill-opacity="0.298"/>
<g clip-path="url(#clip0_5932_67875)">
<path d="M24 0H0V24H24V0Z" fill="#00A3FF"/>
<path d="M7.07757 11.1484L6.94322 11.3545C5.42794 13.679 5.76638 16.7232 7.75688 18.6736C8.92786 19.8209 10.4626 20.3947 11.9974 20.3949C11.9974 20.3949 11.9974 20.3949 7.07757 11.1484Z" fill="white"/>
<path opacity="0.6" d="M11.997 13.9586L7.07715 11.1484C11.997 20.3949 11.997 20.3949 11.997 20.3949C11.997 18.3811 11.997 16.0735 11.997 13.9586Z" fill="white"/>
<path opacity="0.6" d="M16.9227 11.1484L17.0571 11.3545C18.5724 13.679 18.2339 16.7232 16.2434 18.6736C15.0724 19.8209 13.5377 20.3947 12.0029 20.3949C12.0029 20.3949 12.0029 20.3949 16.9227 11.1484Z" fill="white"/>
<path opacity="0.2" d="M12.002 13.9586L16.9218 11.1484C12.002 20.3949 12.002 20.3949 12.002 20.3949C12.002 18.3811 12.002 16.0735 12.002 13.9586Z" fill="white"/>
<path opacity="0.2" d="M12.0029 7.67969V12.5265L16.2408 10.1047L12.0029 7.67969Z" fill="white"/>
<path opacity="0.6" d="M12.0036 7.67969L7.7627 10.1046L12.0036 12.5265V7.67969Z" fill="white"/>
<path d="M12.0036 3.60352L7.7627 10.1062L12.0036 7.67447V3.60352Z" fill="white"/>
<path opacity="0.6" d="M12.0029 7.6737L16.244 10.1055L12.0029 3.59961V7.6737Z" fill="white"/>
</g>
<defs>
<clipPath id="clip0_5932_67875">
<rect width="24" height="24" rx="12" fill="white"/>
</clipPath>
</defs>
</svg>
