<svg xmlns="http://www.w3.org/2000/svg" fill="none" viewBox="0 0 34 34">
<g clip-path="url(#clip0_12268_19676)">
<path fill-rule="evenodd" clip-rule="evenodd" d="M17 33C25.8366 33 33 25.8366 33 17C33 8.16344 25.8366 1 17 1C8.16344 1 1 8.16344 1 17C1 25.8366 8.16344 33 17 33ZM17 34C26.3888 34 34 26.3888 34 17C34 7.61116 26.3888 0 17 0C7.61116 0 0 7.61116 0 17C0 26.3888 7.61116 34 17 34Z" fill="#33F8FF"/>
<path d="M17 33C14.8404 33 12.7451 32.5767 10.7718 31.7424C8.86622 30.9364 7.15593 29.7826 5.68609 28.3139C4.21739 26.8452 3.06364 25.1338 2.2576 23.2282C1.42334 21.2549 1 19.1596 1 17C1 14.8404 1.42334 12.7451 2.2576 10.7718C3.06364 8.86622 4.21739 7.15593 5.68609 5.68609C7.15593 4.21739 8.86622 3.06364 10.7718 2.2576C12.7451 1.42334 14.8404 1 17 1C19.1596 1 21.2549 1.42334 23.2282 2.2576C25.1338 3.06364 26.8441 4.21739 28.3139 5.68609C29.7826 7.1548 30.9364 8.86622 31.7424 10.7718C32.5767 12.7451 33 14.8404 33 17C33 19.1596 32.5767 21.2549 31.7424 23.2282C30.9364 25.1338 29.7826 26.8441 28.3139 28.3139C26.8452 29.7826 25.1338 30.9364 23.2282 31.7424C21.2549 32.5778 19.1596 33 17 33Z" fill="#00A3FF"/>
<path d="M10.4368 15.8641L10.2576 16.1389C8.23726 19.2381 8.68851 23.2971 11.3425 25.8976C12.9038 27.4274 14.9501 28.1924 16.9965 28.1926C16.9965 28.1926 16.9965 28.1926 10.4368 15.8641Z" fill="white"/>
<path opacity="0.6" d="M16.9963 19.611L10.4365 15.8641C16.9963 28.1926 16.9963 28.1926 16.9963 28.1926C16.9963 25.5076 16.9963 22.4308 16.9963 19.611Z" fill="white"/>
<path opacity="0.6" d="M23.5637 15.8641L23.7428 16.1389C25.7632 19.2381 25.3119 23.2971 22.6579 25.8976C21.0966 27.4274 19.0503 28.1924 17.0039 28.1926C17.0039 28.1926 17.0039 28.1926 23.5637 15.8641Z" fill="white"/>
<path opacity="0.2" d="M17.0029 19.611L23.5627 15.8641C17.003 28.1926 17.0029 28.1926 17.0029 28.1926C17.0029 25.5076 17.0029 22.4308 17.0029 19.611Z" fill="white"/>
<path opacity="0.2" d="M17.0039 11.239V17.7015L22.6544 14.4723L17.0039 11.239Z" fill="white"/>
<path opacity="0.6" d="M17.0042 11.2391L11.3496 14.4723L17.0042 17.7015V11.2391Z" fill="white"/>
<path d="M17.0042 5.80469L11.3496 14.4749L17.0042 11.2326V5.80469Z" fill="white"/>
<path opacity="0.6" d="M17.0039 11.2312L22.6587 14.4736L17.0039 5.79907V11.2312Z" fill="white"/>
</g>
<defs>
<clipPath id="clip0_12268_19676">
<rect width="34" height="34" rx="17" fill="white"/>
</clipPath>
</defs>
</svg>