<svg xmlns="http://www.w3.org/2000/svg" fill="none" viewBox="0 0 25 10">
<path fill-rule="evenodd" clip-rule="evenodd" d="M4.8951 0.112983C4.92835 0.148706 4.95474 0.191144 4.97274 0.237866C4.99074 0.284587 5 0.334674 5 0.385259C5 0.435843 4.99073 0.48593 4.97273 0.532652C4.95473 0.579373 4.92835 0.621811 4.8951 0.657535L0.86256 5.0001L4.8951 9.34267C4.9283 9.37843 4.95463 9.42087 4.9726 9.46759C4.99056 9.51431 4.99981 9.56438 4.99981 9.61495C4.99981 9.66551 4.99056 9.71558 4.9726 9.7623C4.95463 9.80902 4.9283 9.85147 4.8951 9.88722C4.8619 9.92298 4.82249 9.95134 4.77912 9.97069C4.73574 9.99004 4.68926 10 4.64231 10C4.59536 10 4.54887 9.99004 4.5055 9.97069C4.46212 9.95134 4.42271 9.92298 4.38952 9.88722L0.104896 5.27238C0.0716453 5.23665 0.0452645 5.19422 0.0272645 5.14749C0.00926449 5.10077 -8.85301e-07 5.05069 -8.74245e-07 5.0001C-8.6319e-07 4.94952 0.00926454 4.89943 0.0272646 4.85271C0.0452646 4.80599 0.0716454 4.76355 0.104896 4.72783L4.38952 0.112983C4.42268 0.0771691 4.46209 0.0487549 4.50546 0.0293676C4.54884 0.00998028 4.59535 8.01423e-07 4.64231 8.11687e-07C4.68928 8.21952e-07 4.73578 0.00998032 4.77916 0.0293676C4.82254 0.0487549 4.86194 0.0771692 4.8951 0.112983Z" fill="#1C4E5C"/>
<path fill-rule="evenodd" clip-rule="evenodd" d="M9.8951 0.112983C9.92835 0.148706 9.95474 0.191144 9.97274 0.237866C9.99074 0.284587 10 0.334674 10 0.385259C10 0.435843 9.99073 0.48593 9.97273 0.532652C9.95473 0.579373 9.92835 0.621811 9.8951 0.657535L5.86256 5.0001L9.8951 9.34267C9.9283 9.37843 9.95463 9.42087 9.9726 9.46759C9.99056 9.51431 9.99981 9.56438 9.99981 9.61495C9.99981 9.66551 9.99056 9.71558 9.9726 9.7623C9.95463 9.80902 9.9283 9.85147 9.8951 9.88722C9.8619 9.92298 9.82249 9.95134 9.77912 9.97069C9.73574 9.99004 9.68926 10 9.64231 10C9.59536 10 9.54887 9.99004 9.5055 9.97069C9.46212 9.95134 9.42271 9.92298 9.38952 9.88722L5.1049 5.27238C5.07165 5.23665 5.04526 5.19422 5.02726 5.14749C5.00926 5.10077 5 5.05069 5 5.0001C5 4.94952 5.00926 4.89943 5.02726 4.85271C5.04526 4.80599 5.07165 4.76355 5.1049 4.72783L9.38952 0.112983C9.42268 0.0771691 9.46209 0.0487549 9.50546 0.0293676C9.54884 0.00998028 9.59535 8.01423e-07 9.64231 8.11687e-07C9.68928 8.21952e-07 9.73578 0.00998032 9.77916 0.0293676C9.82254 0.0487549 9.86194 0.0771692 9.8951 0.112983Z" fill="#1C4E5C"/>
<path fill-rule="evenodd" clip-rule="evenodd" d="M14.8951 0.112983C14.9284 0.148706 14.9547 0.191144 14.9727 0.237866C14.9907 0.284587 15 0.334674 15 0.385259C15 0.435843 14.9907 0.48593 14.9727 0.532652C14.9547 0.579373 14.9284 0.621811 14.8951 0.657535L10.8626 5.0001L14.8951 9.34267C14.9283 9.37843 14.9546 9.42087 14.9726 9.46759C14.9906 9.51431 14.9998 9.56438 14.9998 9.61495C14.9998 9.66551 14.9906 9.71558 14.9726 9.7623C14.9546 9.80902 14.9283 9.85147 14.8951 9.88722C14.8619 9.92298 14.8225 9.95134 14.7791 9.97069C14.7357 9.99004 14.6893 10 14.6423 10C14.5954 10 14.5489 9.99004 14.5055 9.97069C14.4621 9.95134 14.4227 9.92298 14.3895 9.88722L10.1049 5.27238C10.0716 5.23665 10.0453 5.19422 10.0273 5.14749C10.0093 5.10077 10 5.05069 10 5.0001C10 4.94952 10.0093 4.89943 10.0273 4.85271C10.0453 4.80599 10.0716 4.76355 10.1049 4.72783L14.3895 0.112983C14.4227 0.0771691 14.4621 0.0487549 14.5055 0.0293676C14.5488 0.00998028 14.5953 8.01423e-07 14.6423 8.11687e-07C14.6893 8.21952e-07 14.7358 0.00998032 14.7792 0.0293676C14.8225 0.0487549 14.8619 0.0771692 14.8951 0.112983Z" fill="#1C4E5C"/>
<path fill-rule="evenodd" clip-rule="evenodd" d="M19.8951 0.112983C19.9284 0.148706 19.9547 0.191144 19.9727 0.237866C19.9907 0.284587 20 0.334674 20 0.385259C20 0.435843 19.9907 0.48593 19.9727 0.532652C19.9547 0.579373 19.9284 0.621811 19.8951 0.657535L15.8626 5.0001L19.8951 9.34267C19.9283 9.37843 19.9546 9.42087 19.9726 9.46759C19.9906 9.51431 19.9998 9.56438 19.9998 9.61495C19.9998 9.66551 19.9906 9.71558 19.9726 9.7623C19.9546 9.80902 19.9283 9.85147 19.8951 9.88722C19.8619 9.92298 19.8225 9.95134 19.7791 9.97069C19.7357 9.99004 19.6893 10 19.6423 10C19.5954 10 19.5489 9.99004 19.5055 9.97069C19.4621 9.95134 19.4227 9.92298 19.3895 9.88722L15.1049 5.27238C15.0716 5.23665 15.0453 5.19422 15.0273 5.14749C15.0093 5.10077 15 5.05069 15 5.0001C15 4.94952 15.0093 4.89943 15.0273 4.85271C15.0453 4.80599 15.0716 4.76355 15.1049 4.72783L19.3895 0.112983C19.4227 0.0771691 19.4621 0.0487549 19.5055 0.0293676C19.5488 0.00998028 19.5953 8.01423e-07 19.6423 8.11687e-07C19.6893 8.21952e-07 19.7358 0.00998032 19.7792 0.0293676C19.8225 0.0487549 19.8619 0.0771692 19.8951 0.112983Z" fill="#1C4E5C"/>
<path fill-rule="evenodd" clip-rule="evenodd" d="M24.8951 0.112983C24.9284 0.148706 24.9547 0.191144 24.9727 0.237866C24.9907 0.284587 25 0.334674 25 0.385259C25 0.435843 24.9907 0.48593 24.9727 0.532652C24.9547 0.579373 24.9284 0.621811 24.8951 0.657535L20.8626 5.0001L24.8951 9.34267C24.9283 9.37843 24.9546 9.42087 24.9726 9.46759C24.9906 9.51431 24.9998 9.56438 24.9998 9.61495C24.9998 9.66551 24.9906 9.71558 24.9726 9.7623C24.9546 9.80902 24.9283 9.85147 24.8951 9.88722C24.8619 9.92298 24.8225 9.95134 24.7791 9.97069C24.7357 9.99004 24.6893 10 24.6423 10C24.5954 10 24.5489 9.99004 24.5055 9.97069C24.4621 9.95134 24.4227 9.92298 24.3895 9.88722L20.1049 5.27238C20.0716 5.23665 20.0453 5.19422 20.0273 5.14749C20.0093 5.10077 20 5.05069 20 5.0001C20 4.94952 20.0093 4.89943 20.0273 4.85271C20.0453 4.80599 20.0716 4.76355 20.1049 4.72783L24.3895 0.112983C24.4227 0.0771691 24.4621 0.0487549 24.5055 0.0293676C24.5488 0.00998028 24.5953 8.01423e-07 24.6423 8.11687e-07C24.6893 8.21952e-07 24.7358 0.00998032 24.7792 0.0293676C24.8225 0.0487549 24.8619 0.0771692 24.8951 0.112983Z" fill="#1C4E5C"/>
</svg>