<svg xmlns="http://www.w3.org/2000/svg" fill="none" viewBox="0 0.8 25 10">
<path fill-rule="evenodd" clip-rule="evenodd" d="M20.1049 10.6868C20.0716 10.6511 20.0453 10.6087 20.0273 10.5619C20.0093 10.5152 20 10.4651 20 10.4145C20 10.364 20.0093 10.3139 20.0273 10.2672C20.0453 10.2204 20.0716 10.178 20.1049 10.1423L24.1374 5.7997L20.1049 1.45713C20.0717 1.42138 20.0454 1.37893 20.0274 1.33221C20.0094 1.2855 20.0002 1.23543 20.0002 1.18486C20.0002 1.13429 20.0094 1.08422 20.0274 1.0375C20.0454 0.990787 20.0717 0.948339 20.1049 0.912583C20.1381 0.876827 20.1775 0.848464 20.2209 0.829113C20.2643 0.809762 20.3107 0.799803 20.3577 0.799803C20.4046 0.799803 20.4511 0.809762 20.4945 0.829113C20.5379 0.848464 20.5773 0.876827 20.6105 0.912583L24.8951 5.52743C24.9284 5.56315 24.9547 5.60559 24.9727 5.65231C24.9907 5.69903 25 5.74912 25 5.7997C25 5.85029 24.9907 5.90037 24.9727 5.9471C24.9547 5.99382 24.9284 6.03626 24.8951 6.07198L20.6105 10.6868C20.5773 10.7226 20.5379 10.7511 20.4945 10.7704C20.4512 10.7898 20.4047 10.7998 20.3577 10.7998C20.3107 10.7998 20.2642 10.7898 20.2208 10.7704C20.1775 10.7511 20.1381 10.7226 20.1049 10.6868Z" fill="#1C4E5C"/>
<path fill-rule="evenodd" clip-rule="evenodd" d="M15.1049 10.6868C15.0716 10.6511 15.0453 10.6087 15.0273 10.5619C15.0093 10.5152 15 10.4651 15 10.4145C15 10.364 15.0093 10.3139 15.0273 10.2672C15.0453 10.2204 15.0716 10.178 15.1049 10.1423L19.1374 5.7997L15.1049 1.45713C15.0717 1.42138 15.0454 1.37893 15.0274 1.33221C15.0094 1.2855 15.0002 1.23543 15.0002 1.18486C15.0002 1.13429 15.0094 1.08422 15.0274 1.0375C15.0454 0.990787 15.0717 0.948339 15.1049 0.912583C15.1381 0.876827 15.1775 0.848464 15.2209 0.829113C15.2643 0.809762 15.3107 0.799803 15.3577 0.799803C15.4046 0.799803 15.4511 0.809762 15.4945 0.829113C15.5379 0.848464 15.5773 0.876827 15.6105 0.912583L19.8951 5.52743C19.9284 5.56315 19.9547 5.60559 19.9727 5.65231C19.9907 5.69903 20 5.74912 20 5.7997C20 5.85029 19.9907 5.90037 19.9727 5.9471C19.9547 5.99382 19.9284 6.03626 19.8951 6.07198L15.6105 10.6868C15.5773 10.7226 15.5379 10.7511 15.4945 10.7704C15.4512 10.7898 15.4047 10.7998 15.3577 10.7998C15.3107 10.7998 15.2642 10.7898 15.2208 10.7704C15.1775 10.7511 15.1381 10.7226 15.1049 10.6868Z" fill="#1C4E5C"/>
<path fill-rule="evenodd" clip-rule="evenodd" d="M10.1049 10.6868C10.0716 10.6511 10.0453 10.6087 10.0273 10.5619C10.0093 10.5152 10 10.4651 10 10.4145C10 10.364 10.0093 10.3139 10.0273 10.2672C10.0453 10.2204 10.0716 10.178 10.1049 10.1423L14.1374 5.7997L10.1049 1.45713C10.0717 1.42138 10.0454 1.37893 10.0274 1.33221C10.0094 1.2855 10.0002 1.23543 10.0002 1.18486C10.0002 1.13429 10.0094 1.08422 10.0274 1.0375C10.0454 0.990787 10.0717 0.948339 10.1049 0.912583C10.1381 0.876827 10.1775 0.848464 10.2209 0.829113C10.2643 0.809762 10.3107 0.799803 10.3577 0.799803C10.4046 0.799803 10.4511 0.809762 10.4945 0.829113C10.5379 0.848464 10.5773 0.876827 10.6105 0.912583L14.8951 5.52743C14.9284 5.56315 14.9547 5.60559 14.9727 5.65231C14.9907 5.69903 15 5.74912 15 5.7997C15 5.85029 14.9907 5.90037 14.9727 5.9471C14.9547 5.99382 14.9284 6.03626 14.8951 6.07198L10.6105 10.6868C10.5773 10.7226 10.5379 10.7511 10.4945 10.7704C10.4512 10.7898 10.4047 10.7998 10.3577 10.7998C10.3107 10.7998 10.2642 10.7898 10.2208 10.7704C10.1775 10.7511 10.1381 10.7226 10.1049 10.6868Z" fill="#1C4E5C"/>
<path fill-rule="evenodd" clip-rule="evenodd" d="M5.1049 10.6868C5.07165 10.6511 5.04527 10.6087 5.02727 10.5619C5.00927 10.5152 5 10.4651 5 10.4145C5 10.364 5.00927 10.3139 5.02727 10.2672C5.04527 10.2204 5.07165 10.178 5.1049 10.1423L9.13744 5.7997L5.1049 1.45713C5.0717 1.42138 5.04537 1.37893 5.0274 1.33221C5.00944 1.2855 5.00019 1.23543 5.00019 1.18486C5.00019 1.13429 5.00944 1.08422 5.0274 1.0375C5.04537 0.990788 5.0717 0.948339 5.1049 0.912583C5.1381 0.876827 5.17751 0.848464 5.22088 0.829114C5.26425 0.809763 5.31074 0.799803 5.35769 0.799803C5.40464 0.799803 5.45113 0.809763 5.4945 0.829114C5.53788 0.848464 5.57729 0.876827 5.61048 0.912583L9.8951 5.52743C9.92835 5.56315 9.95474 5.60559 9.97274 5.65231C9.99074 5.69903 10 5.74912 10 5.7997C10 5.85029 9.99074 5.90037 9.97274 5.9471C9.95473 5.99382 9.92835 6.03626 9.8951 6.07198L5.61048 10.6868C5.57732 10.7226 5.53791 10.7511 5.49454 10.7704C5.45116 10.7898 5.40465 10.7998 5.35769 10.7998C5.31072 10.7998 5.26422 10.7898 5.22084 10.7704C5.17747 10.7511 5.13806 10.7226 5.1049 10.6868Z" fill="#1C4E5C"/>
<path fill-rule="evenodd" clip-rule="evenodd" d="M0.104897 10.6868C0.0716458 10.6511 0.045265 10.6087 0.027265 10.5619C0.00926497 10.5152 -5.68999e-07 10.4651 -5.62366e-07 10.4145C-5.55733e-07 10.364 0.00926498 10.3139 0.027265 10.2672C0.045265 10.2204 0.0716461 10.178 0.104897 10.1423L4.13744 5.7997L0.104898 1.45713C0.0717009 1.42138 0.0453676 1.37893 0.0274014 1.33221C0.00943519 1.2855 0.000187993 1.23543 0.000187999 1.18486C0.000188006 1.13429 0.00943521 1.08422 0.0274014 1.0375C0.0453676 0.990787 0.071701 0.948339 0.104898 0.912583C0.138095 0.876827 0.177506 0.848464 0.22088 0.829113C0.264255 0.809762 0.310743 0.799803 0.357691 0.799803C0.404639 0.799803 0.451127 0.809762 0.494501 0.829113C0.537875 0.848464 0.577286 0.876827 0.610484 0.912583L4.8951 5.52743C4.92835 5.56315 4.95474 5.60559 4.97274 5.65231C4.99074 5.69903 5 5.74912 5 5.7997C5 5.85029 4.99074 5.90037 4.97274 5.9471C4.95473 5.99382 4.92835 6.03626 4.8951 6.07198L0.610482 10.6868C0.577315 10.7226 0.537914 10.7511 0.494536 10.7704C0.451158 10.7898 0.404654 10.7998 0.35769 10.7998C0.310725 10.7998 0.264222 10.7898 0.220843 10.7704C0.177465 10.7511 0.138064 10.7226 0.104897 10.6868Z" fill="#1C4E5C"/>
</svg>