<svg width="332" height="332" viewBox="0 0 332 332" fill="none" xmlns="http://www.w3.org/2000/svg">
<circle cx="166" cy="166" r="165.5" fill="#13BBC2" stroke="white"/>
<circle cx="166" cy="166" r="139.5" fill="#1C4E5C" stroke="white"/>
<path d="M110.963 239.944H114.755V241H109.775V232.504H110.963V239.944ZM118.052 241H116.864V232.504H118.052V241ZM130.058 241H125.066C124.418 241 123.822 240.896 123.278 240.688C122.742 240.48 122.278 240.188 121.886 239.812C121.494 239.436 121.19 238.98 120.974 238.444C120.758 237.908 120.65 237.308 120.65 236.644C120.65 236.004 120.762 235.42 120.986 234.892C121.21 234.356 121.518 233.896 121.91 233.512C122.302 233.128 122.766 232.828 123.302 232.612C123.846 232.396 124.438 232.288 125.078 232.288C125.71 232.288 126.294 232.396 126.83 232.612C127.366 232.828 127.83 233.128 128.222 233.512C128.614 233.896 128.918 234.356 129.134 234.892C129.358 235.42 129.47 236.004 129.47 236.644C129.47 237.404 129.31 238.068 128.99 238.636C128.67 239.204 128.246 239.652 127.718 239.98V240.004H130.058V241ZM121.934 236.644C121.934 237.108 122.006 237.544 122.15 237.952C122.302 238.352 122.514 238.7 122.786 238.996C123.058 239.292 123.386 239.528 123.77 239.704C124.154 239.872 124.586 239.956 125.066 239.956C125.53 239.956 125.954 239.872 126.338 239.704C126.73 239.528 127.062 239.292 127.334 238.996C127.606 238.7 127.818 238.352 127.97 237.952C128.122 237.544 128.198 237.108 128.198 236.644C128.198 236.188 128.126 235.76 127.982 235.36C127.838 234.96 127.63 234.612 127.358 234.316C127.086 234.012 126.758 233.772 126.374 233.596C125.99 233.42 125.558 233.332 125.078 233.332C124.598 233.332 124.166 233.42 123.782 233.596C123.398 233.772 123.066 234.012 122.786 234.316C122.514 234.612 122.302 234.96 122.15 235.36C122.006 235.76 121.934 236.188 121.934 236.644ZM135.43 241.216C134.87 241.216 134.382 241.124 133.966 240.94C133.55 240.748 133.206 240.496 132.934 240.184C132.662 239.872 132.458 239.516 132.322 239.116C132.194 238.708 132.13 238.288 132.13 237.856V232.504H133.318V237.784C133.318 238.072 133.354 238.36 133.426 238.648C133.498 238.928 133.614 239.18 133.774 239.404C133.942 239.628 134.158 239.808 134.422 239.944C134.694 240.08 135.03 240.148 135.43 240.148C135.822 240.148 136.154 240.08 136.426 239.944C136.698 239.808 136.914 239.628 137.074 239.404C137.242 239.18 137.362 238.928 137.434 238.648C137.506 238.36 137.542 238.072 137.542 237.784V232.504H138.73V237.856C138.73 238.288 138.662 238.708 138.526 239.116C138.398 239.516 138.198 239.872 137.926 240.184C137.654 240.496 137.31 240.748 136.894 240.94C136.478 241.124 135.99 241.216 135.43 241.216ZM142.881 241H141.693V232.504H142.881V241ZM145.911 232.504H148.827C149.371 232.504 149.915 232.584 150.459 232.744C151.003 232.904 151.495 233.156 151.935 233.5C152.375 233.844 152.731 234.284 153.003 234.82C153.275 235.356 153.411 236 153.411 236.752C153.411 237.48 153.275 238.112 153.003 238.648C152.731 239.176 152.375 239.616 151.935 239.968C151.495 240.312 151.003 240.572 150.459 240.748C149.915 240.916 149.371 241 148.827 241H145.911V232.504ZM147.099 239.956H148.587C149.099 239.956 149.571 239.884 150.003 239.74C150.443 239.596 150.819 239.388 151.131 239.116C151.451 238.844 151.699 238.508 151.875 238.108C152.051 237.708 152.139 237.256 152.139 236.752C152.139 236.224 152.051 235.76 151.875 235.36C151.699 234.96 151.451 234.628 151.131 234.364C150.819 234.092 150.443 233.888 150.003 233.752C149.571 233.608 149.099 233.536 148.587 233.536H147.099V239.956ZM157.188 241H156V232.504H157.188V241ZM163.194 241H162.006V233.548H159.282V232.504H165.918V233.548H163.194V241ZM171.181 241H169.981V237.328L166.801 232.504H168.265L170.617 236.344L172.981 232.504H174.361L171.181 237.328V241ZM179.984 232.504H182.576C183.032 232.504 183.448 232.552 183.824 232.648C184.2 232.736 184.52 232.876 184.784 233.068C185.048 233.26 185.252 233.504 185.396 233.8C185.54 234.096 185.612 234.452 185.612 234.868C185.612 235.292 185.532 235.656 185.372 235.96C185.22 236.264 185.004 236.512 184.724 236.704C184.452 236.896 184.124 237.04 183.74 237.136C183.364 237.224 182.956 237.268 182.516 237.268H181.172V241H179.984V232.504ZM181.172 236.26H182.432C182.72 236.26 182.984 236.236 183.224 236.188C183.472 236.132 183.684 236.052 183.86 235.948C184.036 235.836 184.172 235.692 184.268 235.516C184.364 235.34 184.412 235.124 184.412 234.868C184.412 234.612 184.36 234.4 184.256 234.232C184.16 234.056 184.024 233.916 183.848 233.812C183.68 233.7 183.476 233.624 183.236 233.584C182.996 233.536 182.736 233.512 182.456 233.512H181.172V236.26ZM196.649 236.74C196.649 237.396 196.533 238 196.301 238.552C196.077 239.096 195.765 239.568 195.365 239.968C194.965 240.36 194.489 240.668 193.937 240.892C193.385 241.108 192.785 241.216 192.137 241.216C191.489 241.216 190.889 241.108 190.337 240.892C189.793 240.668 189.321 240.36 188.921 239.968C188.521 239.568 188.209 239.096 187.985 238.552C187.761 238 187.649 237.396 187.649 236.74C187.649 236.076 187.761 235.472 187.985 234.928C188.209 234.376 188.521 233.908 188.921 233.524C189.321 233.132 189.793 232.828 190.337 232.612C190.889 232.396 191.489 232.288 192.137 232.288C192.785 232.288 193.385 232.396 193.937 232.612C194.489 232.828 194.965 233.132 195.365 233.524C195.765 233.908 196.077 234.376 196.301 234.928C196.533 235.472 196.649 236.076 196.649 236.74ZM195.365 236.74C195.365 236.276 195.289 235.84 195.137 235.432C194.985 235.016 194.769 234.652 194.489 234.34C194.209 234.028 193.869 233.784 193.469 233.608C193.077 233.424 192.633 233.332 192.137 233.332C191.649 233.332 191.205 233.424 190.805 233.608C190.413 233.784 190.077 234.028 189.797 234.34C189.525 234.652 189.313 235.016 189.161 235.432C189.009 235.84 188.933 236.276 188.933 236.74C188.933 237.212 189.009 237.656 189.161 238.072C189.313 238.488 189.529 238.852 189.809 239.164C190.089 239.468 190.425 239.708 190.817 239.884C191.209 240.06 191.649 240.148 192.137 240.148C192.625 240.148 193.069 240.06 193.469 239.884C193.869 239.708 194.209 239.468 194.489 239.164C194.769 238.852 194.985 238.488 195.137 238.072C195.289 237.656 195.365 237.212 195.365 236.74ZM207.793 236.74C207.793 237.396 207.677 238 207.445 238.552C207.221 239.096 206.909 239.568 206.509 239.968C206.109 240.36 205.633 240.668 205.081 240.892C204.529 241.108 203.929 241.216 203.281 241.216C202.633 241.216 202.033 241.108 201.481 240.892C200.937 240.668 200.465 240.36 200.065 239.968C199.665 239.568 199.353 239.096 199.129 238.552C198.905 238 198.793 237.396 198.793 236.74C198.793 236.076 198.905 235.472 199.129 234.928C199.353 234.376 199.665 233.908 200.065 233.524C200.465 233.132 200.937 232.828 201.481 232.612C202.033 232.396 202.633 232.288 203.281 232.288C203.929 232.288 204.529 232.396 205.081 232.612C205.633 232.828 206.109 233.132 206.509 233.524C206.909 233.908 207.221 234.376 207.445 234.928C207.677 235.472 207.793 236.076 207.793 236.74ZM206.509 236.74C206.509 236.276 206.433 235.84 206.281 235.432C206.129 235.016 205.913 234.652 205.633 234.34C205.353 234.028 205.013 233.784 204.613 233.608C204.221 233.424 203.777 233.332 203.281 233.332C202.793 233.332 202.349 233.424 201.949 233.608C201.557 233.784 201.221 234.028 200.941 234.34C200.669 234.652 200.457 235.016 200.305 235.432C200.153 235.84 200.077 236.276 200.077 236.74C200.077 237.212 200.153 237.656 200.305 238.072C200.457 238.488 200.673 238.852 200.953 239.164C201.233 239.468 201.569 239.708 201.961 239.884C202.353 240.06 202.793 240.148 203.281 240.148C203.769 240.148 204.213 240.06 204.613 239.884C205.013 239.708 205.353 239.468 205.633 239.164C205.913 238.852 206.129 238.488 206.281 238.072C206.433 237.656 206.509 237.212 206.509 236.74ZM211.556 239.944H215.348V241H210.368V232.504H211.556V239.944ZM221.681 234.076C221.513 233.844 221.285 233.656 220.997 233.512C220.709 233.36 220.385 233.284 220.025 233.284C219.833 233.284 219.637 233.312 219.437 233.368C219.245 233.416 219.069 233.5 218.909 233.62C218.749 233.732 218.617 233.876 218.513 234.052C218.417 234.22 218.369 234.424 218.369 234.664C218.369 234.896 218.413 235.092 218.501 235.252C218.597 235.404 218.721 235.536 218.873 235.648C219.033 235.752 219.217 235.844 219.425 235.924C219.641 235.996 219.869 236.072 220.109 236.152C220.397 236.24 220.689 236.34 220.985 236.452C221.281 236.564 221.549 236.712 221.789 236.896C222.029 237.08 222.225 237.312 222.377 237.592C222.529 237.864 222.605 238.212 222.605 238.636C222.605 239.076 222.521 239.46 222.353 239.788C222.193 240.108 221.977 240.376 221.705 240.592C221.433 240.8 221.117 240.956 220.757 241.06C220.405 241.164 220.041 241.216 219.665 241.216C219.129 241.216 218.609 241.112 218.105 240.904C217.609 240.696 217.197 240.388 216.869 239.98L217.793 239.2C217.993 239.496 218.261 239.736 218.597 239.92C218.933 240.104 219.297 240.196 219.689 240.196C219.889 240.196 220.089 240.168 220.289 240.112C220.489 240.056 220.669 239.968 220.829 239.848C220.997 239.728 221.133 239.58 221.237 239.404C221.341 239.22 221.393 239 221.393 238.744C221.393 238.488 221.337 238.276 221.225 238.108C221.121 237.932 220.977 237.784 220.793 237.664C220.609 237.544 220.393 237.444 220.145 237.364C219.905 237.276 219.649 237.188 219.377 237.1C219.105 237.02 218.837 236.924 218.573 236.812C218.309 236.692 218.073 236.544 217.865 236.368C217.657 236.184 217.489 235.96 217.361 235.696C217.233 235.432 217.169 235.104 217.169 234.712C217.169 234.288 217.253 233.924 217.421 233.62C217.597 233.316 217.821 233.064 218.093 232.864C218.373 232.664 218.685 232.52 219.029 232.432C219.381 232.336 219.733 232.288 220.085 232.288C220.581 232.288 221.045 232.376 221.477 232.552C221.909 232.728 222.257 232.964 222.521 233.26L221.681 234.076Z" fill="white"/>
<path d="M113.065 175.307H117.486L126.196 189.338H126.249V175.307H129.585V194.051H125.349L116.454 179.569H116.401V194.051H113.065V175.307ZM132.822 187.644C132.822 186.638 132.998 185.729 133.351 184.917C133.722 184.088 134.216 183.382 134.834 182.799C135.452 182.217 136.184 181.767 137.031 181.449C137.879 181.131 138.779 180.973 139.732 180.973C140.685 180.973 141.585 181.131 142.432 181.449C143.279 181.767 144.012 182.217 144.63 182.799C145.247 183.382 145.733 184.088 146.086 184.917C146.456 185.729 146.642 186.638 146.642 187.644C146.642 188.65 146.456 189.568 146.086 190.397C145.733 191.227 145.247 191.942 144.63 192.542C144.012 193.124 143.279 193.583 142.432 193.918C141.585 194.254 140.685 194.421 139.732 194.421C138.779 194.421 137.879 194.254 137.031 193.918C136.184 193.583 135.452 193.124 134.834 192.542C134.216 191.942 133.722 191.227 133.351 190.397C132.998 189.568 132.822 188.65 132.822 187.644ZM136.052 187.644C136.052 188.138 136.122 188.632 136.264 189.127C136.422 189.621 136.652 190.062 136.952 190.45C137.252 190.839 137.631 191.156 138.09 191.403C138.549 191.65 139.096 191.774 139.732 191.774C140.367 191.774 140.914 191.65 141.373 191.403C141.832 191.156 142.212 190.839 142.512 190.45C142.812 190.062 143.032 189.621 143.173 189.127C143.332 188.632 143.412 188.138 143.412 187.644C143.412 187.15 143.332 186.664 143.173 186.188C143.032 185.694 142.812 185.253 142.512 184.864C142.212 184.476 141.832 184.167 141.373 183.938C140.914 183.691 140.367 183.567 139.732 183.567C139.096 183.567 138.549 183.691 138.09 183.938C137.631 184.167 137.252 184.476 136.952 184.864C136.652 185.253 136.422 185.694 136.264 186.188C136.122 186.664 136.052 187.15 136.052 187.644ZM147.895 183.885V181.343H150.119V177.663H153.243V181.343H156.42V183.885H153.243V189.788C153.243 190.353 153.34 190.821 153.534 191.192C153.746 191.562 154.205 191.748 154.911 191.748C155.123 191.748 155.352 191.73 155.599 191.695C155.846 191.642 156.067 191.571 156.261 191.483L156.367 193.971C156.085 194.077 155.749 194.157 155.361 194.21C154.973 194.28 154.602 194.316 154.249 194.316C153.402 194.316 152.713 194.201 152.184 193.971C151.654 193.724 151.231 193.398 150.913 192.992C150.613 192.568 150.401 192.092 150.278 191.562C150.172 191.015 150.119 190.433 150.119 189.815V183.885H147.895ZM158.772 181.343H161.949V194.051H158.772V181.343ZM158.322 177.028C158.322 176.516 158.507 176.075 158.878 175.704C159.266 175.316 159.751 175.122 160.334 175.122C160.916 175.122 161.402 175.307 161.79 175.678C162.196 176.031 162.399 176.481 162.399 177.028C162.399 177.575 162.196 178.034 161.79 178.405C161.402 178.758 160.916 178.934 160.334 178.934C159.751 178.934 159.266 178.749 158.878 178.378C158.507 177.99 158.322 177.54 158.322 177.028ZM165.062 187.644C165.062 186.638 165.238 185.729 165.591 184.917C165.962 184.088 166.456 183.382 167.074 182.799C167.691 182.217 168.424 181.767 169.271 181.449C170.118 181.131 171.018 180.973 171.971 180.973C172.924 180.973 173.825 181.131 174.672 181.449C175.519 181.767 176.251 182.217 176.869 182.799C177.487 183.382 177.972 184.088 178.325 184.917C178.696 185.729 178.881 186.638 178.881 187.644C178.881 188.65 178.696 189.568 178.325 190.397C177.972 191.227 177.487 191.942 176.869 192.542C176.251 193.124 175.519 193.583 174.672 193.918C173.825 194.254 172.924 194.421 171.971 194.421C171.018 194.421 170.118 194.254 169.271 193.918C168.424 193.583 167.691 193.124 167.074 192.542C166.456 191.942 165.962 191.227 165.591 190.397C165.238 189.568 165.062 188.65 165.062 187.644ZM168.291 187.644C168.291 188.138 168.362 188.632 168.503 189.127C168.662 189.621 168.892 190.062 169.192 190.45C169.492 190.839 169.871 191.156 170.33 191.403C170.789 191.65 171.336 191.774 171.971 191.774C172.607 191.774 173.154 191.65 173.613 191.403C174.072 191.156 174.451 190.839 174.751 190.45C175.051 190.062 175.272 189.621 175.413 189.127C175.572 188.632 175.651 188.138 175.651 187.644C175.651 187.15 175.572 186.664 175.413 186.188C175.272 185.694 175.051 185.253 174.751 184.864C174.451 184.476 174.072 184.167 173.613 183.938C173.154 183.691 172.607 183.567 171.971 183.567C171.336 183.567 170.789 183.691 170.33 183.938C169.871 184.167 169.492 184.476 169.192 184.864C168.892 185.253 168.662 185.694 168.503 186.188C168.362 186.664 168.291 187.15 168.291 187.644ZM181.961 181.343H184.98V183.382H185.032C185.315 182.746 185.8 182.19 186.489 181.714C187.195 181.22 188.024 180.973 188.977 180.973C189.807 180.973 190.513 181.123 191.095 181.423C191.695 181.705 192.181 182.084 192.551 182.561C192.939 183.038 193.222 183.585 193.398 184.202C193.575 184.82 193.663 185.455 193.663 186.109V194.051H190.486V187.009C190.486 186.638 190.46 186.25 190.407 185.844C190.354 185.438 190.239 185.076 190.063 184.758C189.886 184.423 189.639 184.149 189.321 183.938C189.021 183.726 188.615 183.62 188.103 183.62C187.592 183.62 187.15 183.726 186.78 183.938C186.409 184.132 186.1 184.388 185.853 184.705C185.624 185.023 185.447 185.394 185.324 185.817C185.2 186.223 185.138 186.638 185.138 187.062V194.051H181.961V181.343ZM205.26 192.436H205.18C204.863 193.001 204.351 193.468 203.645 193.839C202.939 194.192 202.136 194.368 201.236 194.368C200.724 194.368 200.185 194.298 199.621 194.157C199.073 194.033 198.562 193.821 198.085 193.521C197.626 193.204 197.238 192.798 196.92 192.303C196.62 191.792 196.47 191.165 196.47 190.424C196.47 189.471 196.735 188.712 197.264 188.147C197.812 187.582 198.509 187.15 199.356 186.85C200.203 186.55 201.138 186.356 202.162 186.267C203.203 186.161 204.218 186.109 205.207 186.109V185.791C205.207 184.997 204.915 184.414 204.333 184.044C203.768 183.655 203.089 183.461 202.295 183.461C201.624 183.461 200.98 183.602 200.362 183.885C199.744 184.167 199.232 184.511 198.826 184.917L197.185 182.985C197.909 182.314 198.738 181.811 199.674 181.476C200.627 181.14 201.589 180.973 202.559 180.973C203.689 180.973 204.615 181.131 205.339 181.449C206.08 181.767 206.663 182.182 207.086 182.693C207.51 183.205 207.801 183.779 207.96 184.414C208.136 185.05 208.225 185.685 208.225 186.32V194.051H205.26V192.436ZM205.207 188.253H204.492C203.98 188.253 203.442 188.279 202.877 188.332C202.312 188.368 201.791 188.465 201.315 188.624C200.838 188.765 200.441 188.977 200.124 189.259C199.806 189.524 199.647 189.894 199.647 190.371C199.647 190.671 199.709 190.927 199.832 191.139C199.974 191.333 200.15 191.492 200.362 191.615C200.574 191.739 200.812 191.827 201.077 191.88C201.341 191.933 201.606 191.959 201.871 191.959C202.965 191.959 203.795 191.668 204.359 191.086C204.924 190.503 205.207 189.709 205.207 188.703V188.253ZM211.979 174.036H215.156V194.051H211.979V174.036Z" fill="white"/>
<path fill-rule="evenodd" clip-rule="evenodd" d="M192.629 89.8325H187.715V138.473L192.629 143.378V89.8325Z" fill="#1F9B99"/>
<path fill-rule="evenodd" clip-rule="evenodd" d="M182.8 89.832H177.887V128.66L182.8 133.564V89.832Z" fill="#1F9B99"/>
<path fill-rule="evenodd" clip-rule="evenodd" d="M172.975 89.832H168.062V118.854L172.975 123.758V89.832Z" fill="#1F9B99"/>
<path fill-rule="evenodd" clip-rule="evenodd" d="M158.23 109.247V143.373H163.144V114.151L158.23 109.247Z" fill="#2DE1E8"/>
<path fill-rule="evenodd" clip-rule="evenodd" d="M148.408 99.4336V143.373H153.322V104.338L148.408 99.4336Z" fill="#2DE1E8"/>
<path fill-rule="evenodd" clip-rule="evenodd" d="M138.577 89.627V143.885H143.486V94.5266L138.577 89.627Z" fill="#2DE1E8"/>
</svg>
