<svg xmlns="http://www.w3.org/2000/svg" fill="none" viewBox="0 0 25 10">
<path fill-rule="evenodd" clip-rule="evenodd" d="M4.8951 0.112982C4.92835 0.148705 4.95474 0.191143 4.97274 0.237865C4.99074 0.284586 5 0.334674 5 0.385258C5 0.435842 4.99074 0.48593 4.97274 0.532651C4.95474 0.579373 4.92835 0.62181 4.8951 0.657534L0.862561 5.0001L4.8951 9.34267C4.9283 9.37843 4.95463 9.42087 4.9726 9.46759C4.99057 9.51431 4.99981 9.56438 4.99981 9.61495C4.99981 9.66551 4.99057 9.71558 4.9726 9.7623C4.95463 9.80902 4.9283 9.85147 4.8951 9.88722C4.86191 9.92298 4.82249 9.95134 4.77912 9.97069C4.73575 9.99004 4.68926 10 4.64231 10C4.59536 10 4.54887 9.99004 4.5055 9.97069C4.46213 9.95134 4.42271 9.92298 4.38952 9.88722L0.104897 5.27238C0.0716462 5.23665 0.0452654 5.19422 0.0272654 5.14749C0.00926539 5.10077 -2.21111e-09 5.05069 0 5.0001C2.21111e-09 4.94952 0.00926539 4.89943 0.0272654 4.85271C0.0452654 4.80599 0.0716462 4.76355 0.104897 4.72783L4.38952 0.112982C4.42268 0.0771684 4.46209 0.0487541 4.50546 0.0293668C4.54884 0.00997949 4.59535 -2.05289e-09 4.64231 0C4.68928 2.05289e-09 4.73578 0.00997949 4.77916 0.0293668C4.82254 0.0487541 4.86194 0.0771684 4.8951 0.112982Z" fill="#2DE1E8"/>
<path fill-rule="evenodd" clip-rule="evenodd" d="M9.8951 0.112982C9.92835 0.148705 9.95474 0.191143 9.97274 0.237865C9.99074 0.284586 10 0.334674 10 0.385258C10 0.435842 9.99074 0.48593 9.97274 0.532651C9.95474 0.579373 9.92835 0.62181 9.8951 0.657534L5.86256 5.0001L9.8951 9.34267C9.9283 9.37843 9.95463 9.42087 9.9726 9.46759C9.99057 9.51431 9.99981 9.56438 9.99981 9.61495C9.99981 9.66551 9.99057 9.71558 9.9726 9.7623C9.95463 9.80902 9.9283 9.85147 9.8951 9.88722C9.86191 9.92298 9.82249 9.95134 9.77912 9.97069C9.73575 9.99004 9.68926 10 9.64231 10C9.59536 10 9.54887 9.99004 9.5055 9.97069C9.46213 9.95134 9.42271 9.92298 9.38952 9.88722L5.1049 5.27238C5.07165 5.23665 5.04527 5.19422 5.02727 5.14749C5.00927 5.10077 5 5.05069 5 5.0001C5 4.94952 5.00927 4.89943 5.02727 4.85271C5.04527 4.80599 5.07165 4.76355 5.1049 4.72783L9.38952 0.112982C9.42268 0.0771684 9.46209 0.0487541 9.50546 0.0293668C9.54884 0.00997949 9.59535 -2.05289e-09 9.64231 0C9.68928 2.05289e-09 9.73578 0.00997949 9.77916 0.0293668C9.82254 0.0487541 9.86194 0.0771684 9.8951 0.112982Z" fill="#2DE1E8"/>
<path fill-rule="evenodd" clip-rule="evenodd" d="M14.8951 0.112982C14.9284 0.148705 14.9547 0.191143 14.9727 0.237865C14.9907 0.284586 15 0.334674 15 0.385258C15 0.435842 14.9907 0.48593 14.9727 0.532651C14.9547 0.579373 14.9284 0.62181 14.8951 0.657534L10.8626 5.0001L14.8951 9.34267C14.9283 9.37843 14.9546 9.42087 14.9726 9.46759C14.9906 9.51431 14.9998 9.56438 14.9998 9.61495C14.9998 9.66551 14.9906 9.71558 14.9726 9.7623C14.9546 9.80902 14.9283 9.85147 14.8951 9.88722C14.8619 9.92298 14.8225 9.95134 14.7791 9.97069C14.7357 9.99004 14.6893 10 14.6423 10C14.5954 10 14.5489 9.99004 14.5055 9.97069C14.4621 9.95134 14.4227 9.92298 14.3895 9.88722L10.1049 5.27238C10.0716 5.23665 10.0453 5.19422 10.0273 5.14749C10.0093 5.10077 10 5.05069 10 5.0001C10 4.94952 10.0093 4.89943 10.0273 4.85271C10.0453 4.80599 10.0716 4.76355 10.1049 4.72783L14.3895 0.112982C14.4227 0.0771684 14.4621 0.0487541 14.5055 0.0293668C14.5488 0.00997949 14.5953 -2.05289e-09 14.6423 0C14.6893 2.05289e-09 14.7358 0.00997949 14.7792 0.0293668C14.8225 0.0487541 14.8619 0.0771684 14.8951 0.112982Z" fill="#2DE1E8"/>
<path fill-rule="evenodd" clip-rule="evenodd" d="M19.8951 0.112982C19.9284 0.148705 19.9547 0.191143 19.9727 0.237865C19.9907 0.284586 20 0.334674 20 0.385258C20 0.435842 19.9907 0.48593 19.9727 0.532651C19.9547 0.579373 19.9284 0.62181 19.8951 0.657534L15.8626 5.0001L19.8951 9.34267C19.9283 9.37843 19.9546 9.42087 19.9726 9.46759C19.9906 9.51431 19.9998 9.56438 19.9998 9.61495C19.9998 9.66551 19.9906 9.71558 19.9726 9.7623C19.9546 9.80902 19.9283 9.85147 19.8951 9.88722C19.8619 9.92298 19.8225 9.95134 19.7791 9.97069C19.7357 9.99004 19.6893 10 19.6423 10C19.5954 10 19.5489 9.99004 19.5055 9.97069C19.4621 9.95134 19.4227 9.92298 19.3895 9.88722L15.1049 5.27238C15.0716 5.23665 15.0453 5.19422 15.0273 5.14749C15.0093 5.10077 15 5.05069 15 5.0001C15 4.94952 15.0093 4.89943 15.0273 4.85271C15.0453 4.80599 15.0716 4.76355 15.1049 4.72783L19.3895 0.112982C19.4227 0.0771684 19.4621 0.0487541 19.5055 0.0293668C19.5488 0.00997949 19.5953 -2.05289e-09 19.6423 0C19.6893 2.05289e-09 19.7358 0.00997949 19.7792 0.0293668C19.8225 0.0487541 19.8619 0.0771684 19.8951 0.112982Z" fill="#2DE1E8"/>
<path fill-rule="evenodd" clip-rule="evenodd" d="M24.8951 0.112982C24.9284 0.148705 24.9547 0.191143 24.9727 0.237865C24.9907 0.284586 25 0.334674 25 0.385258C25 0.435842 24.9907 0.48593 24.9727 0.532651C24.9547 0.579373 24.9284 0.62181 24.8951 0.657534L20.8626 5.0001L24.8951 9.34267C24.9283 9.37843 24.9546 9.42087 24.9726 9.46759C24.9906 9.51431 24.9998 9.56438 24.9998 9.61495C24.9998 9.66551 24.9906 9.71558 24.9726 9.7623C24.9546 9.80902 24.9283 9.85147 24.8951 9.88722C24.8619 9.92298 24.8225 9.95134 24.7791 9.97069C24.7357 9.99004 24.6893 10 24.6423 10C24.5954 10 24.5489 9.99004 24.5055 9.97069C24.4621 9.95134 24.4227 9.92298 24.3895 9.88722L20.1049 5.27238C20.0716 5.23665 20.0453 5.19422 20.0273 5.14749C20.0093 5.10077 20 5.05069 20 5.0001C20 4.94952 20.0093 4.89943 20.0273 4.85271C20.0453 4.80599 20.0716 4.76355 20.1049 4.72783L24.3895 0.112982C24.4227 0.0771684 24.4621 0.0487541 24.5055 0.0293668C24.5488 0.00997949 24.5953 -2.05289e-09 24.6423 0C24.6893 2.05289e-09 24.7358 0.00997949 24.7792 0.0293668C24.8225 0.0487541 24.8619 0.0771684 24.8951 0.112982Z" fill="#2DE1E8"/>
</svg>