<svg width="72" height="70" viewBox="0 0 72 70" fill="none" xmlns="http://www.w3.org/2000/svg">
<path d="M0.136719 34.9089V69.8178L0.485263 69.9089C0.924732 70.0304 69.6031 70.0304 69.9213 69.9089C70.1183 69.833 70.1486 69.0586 70.1486 63.4555V57.0933H67.8755H65.6024V61.3449V65.5965H35.2184H4.83449V64.7158C4.83449 64.2451 4.83449 50.5033 4.83449 34.18C4.83449 10.538 4.8648 4.47939 5.01634 4.3731C5.12242 4.31236 18.8066 4.25163 35.4003 4.25163H65.6024L65.6327 12.2538L65.6782 20.2711L67.921 20.3167L70.1486 20.3623V10.1735V0H35.1427H0.136719V34.9089Z" fill="white"/>
<path d="M38.9773 23.1712C38.8257 23.2319 38.7803 23.9608 38.7803 26.0562V28.8502H40.4927C41.4171 28.8502 42.2809 28.9109 42.3718 28.9716C42.5233 29.0627 42.5688 31.2949 42.5991 38.963L42.6446 48.8176H45.4178C47.509 48.8176 48.2213 48.7721 48.3122 48.6202C48.494 48.3317 48.494 30.0194 48.3122 28.8502C48.2213 28.3035 48.1152 27.5139 48.0394 27.104C47.9182 26.2081 47.6 25.3578 47.403 25.3578C47.3272 25.3578 47.2666 25.2818 47.2666 25.1907C47.2666 25.0085 46.8877 24.5985 46.721 24.5985C46.6604 24.5985 46.4634 24.4315 46.2664 24.2189C46.0694 24.0063 45.7815 23.8393 45.6148 23.8393C45.4632 23.8393 45.2965 23.7634 45.2662 23.6571C45.2359 23.566 44.7964 23.4293 44.2964 23.3534C43.1901 23.1864 39.2349 23.0497 38.9773 23.1712Z" fill="white"/>
<path d="M58.2524 28.6986C58.207 28.7745 57.9342 28.8504 57.6766 28.8504C57.4038 28.8504 57.0552 28.9567 56.9037 29.0782C56.737 29.1996 56.5097 29.3059 56.3885 29.3059C56.2824 29.3059 55.9641 29.473 55.6914 29.6855C55.4186 29.8981 55.1307 30.0652 55.0701 30.0652C54.9943 30.0652 54.57 30.46 54.1305 30.9307C53.4031 31.7051 52.2665 33.6639 52.2665 34.1498C52.2665 34.2409 52.2059 34.3168 52.115 34.3168C52.0392 34.3168 51.9635 34.6812 51.9635 35.1216C51.9635 35.5619 51.8877 36.0023 51.8119 36.0782C51.5088 36.3819 51.8271 42.9719 52.1302 42.9719C52.2059 42.9719 52.312 43.2452 52.3575 43.5793C52.4181 43.9133 52.509 44.1866 52.5696 44.1866C52.6302 44.1866 52.7212 44.3081 52.7818 44.4448C52.9333 44.9155 53.585 45.9177 53.7668 45.9784C53.8577 46.0088 53.9335 46.1302 53.9335 46.2517C53.9335 46.3732 54.0396 46.4643 54.1608 46.4643C54.282 46.4643 54.3881 46.5554 54.3881 46.6617C54.3881 46.7832 54.6306 46.9957 54.9185 47.1628C55.2064 47.3146 55.4489 47.4968 55.4489 47.5576C55.4489 47.6335 55.555 47.679 55.6762 47.679C55.7975 47.679 55.9035 47.7246 55.9035 47.8005C55.9035 47.9372 56.8734 48.2864 57.5705 48.3927C57.8584 48.4383 58.1463 48.5446 58.207 48.6357C58.313 48.8027 70.2393 48.9849 70.7697 48.8179C71.0425 48.7268 71.0576 48.5597 71.0576 46.2213V43.7311L65.2688 43.7159C59.8284 43.7159 59.4344 43.6856 59.0101 43.4122C58.7677 43.2604 58.3888 43.063 58.207 42.9719C58.01 42.8808 57.8129 42.6834 57.7675 42.5164C57.722 42.3493 57.6311 42.2127 57.5553 42.2127C57.4796 42.2127 57.4189 42.0608 57.4189 41.8634C57.4189 41.666 57.328 41.4231 57.2371 41.332C57.1007 41.1953 57.0249 40.4209 56.9946 38.8721C56.9492 37.0348 56.9795 36.5185 57.1765 36.1237C57.3129 35.8504 57.4189 35.5164 57.4189 35.3493C57.4189 35.1975 57.4796 35.076 57.5705 35.076C57.6463 35.076 57.7523 34.909 57.8129 34.6964C57.8584 34.4838 57.9948 34.3168 58.1009 34.3168C58.3433 34.3168 59.298 33.8309 59.3587 33.6639C59.389 33.6031 62.0409 33.5576 65.2385 33.5576H71.0576V31.0521V28.5467H64.7081C60.6316 28.5467 58.313 28.6075 58.2524 28.6986Z" fill="white"/>
</svg>
