<svg width="97" height="90" viewBox="0 0 97 90" fill="none" xmlns="http://www.w3.org/2000/svg">
<path d="M0.53125 44.8829V89.7657L1.00305 89.8829C1.59792 90.039 94.5621 90.039 94.9929 89.8829C95.2596 89.7852 95.3006 88.7896 95.3006 81.5857V73.4056H92.2237H89.1467V78.872V84.3384H48.0185H6.89023V83.2061C6.89023 82.6009 6.89023 64.9328 6.89023 43.9458C6.89023 13.5488 6.93126 5.75922 7.13639 5.62256C7.27998 5.54446 25.8031 5.46638 48.2646 5.46638H89.1467L89.1878 15.7549L89.2493 26.0629L92.2852 26.1215L95.3006 26.18V13.0803V0H47.9159H0.53125V44.8829Z" fill="white"/>
<path d="M53.1104 29.7917C52.9053 29.8698 52.8438 30.8069 52.8438 33.501V37.0932H55.1617C56.413 37.0932 57.5822 37.1713 57.7053 37.2494C57.9104 37.3665 57.972 40.2363 58.013 50.0953L58.0745 62.7656H61.8284C64.6591 62.7656 65.6232 62.7071 65.7463 62.5118C65.9925 62.1409 65.9925 38.5964 65.7463 37.0932C65.6232 36.3904 65.4797 35.3752 65.3771 34.8481C65.213 33.6962 64.7822 32.6029 64.5156 32.6029C64.413 32.6029 64.3309 32.5053 64.3309 32.3882C64.3309 32.1539 63.8181 31.6268 63.5925 31.6268C63.5104 31.6268 63.2438 31.4121 62.9771 31.1387C62.7104 30.8654 62.3207 30.6507 62.095 30.6507C61.8899 30.6507 61.6643 30.5531 61.6232 30.4164C61.5822 30.2993 60.9873 30.1236 60.3104 30.0259C58.813 29.8112 53.4591 29.6355 53.1104 29.7917Z" fill="white"/>
<path d="M79.1962 36.8988C79.1347 36.9964 78.7655 37.094 78.4168 37.094C78.0475 37.094 77.5757 37.2307 77.3706 37.3869C77.145 37.5431 76.8373 37.6797 76.6732 37.6797C76.5296 37.6797 76.0988 37.8945 75.7296 38.1678C75.3603 38.4411 74.9706 38.6559 74.8885 38.6559C74.786 38.6559 74.2116 39.1635 73.6167 39.7687C72.6321 40.7643 71.0937 43.2828 71.0937 43.9075C71.0937 44.0246 71.0116 44.1222 70.8885 44.1222C70.786 44.1222 70.6834 44.5908 70.6834 45.157C70.6834 45.7231 70.5808 46.2893 70.4783 46.3869C70.068 46.7773 70.4988 55.2502 70.909 55.2502C71.0116 55.2502 71.1552 55.6016 71.2167 56.0311C71.2988 56.4606 71.4219 56.8121 71.5039 56.8121C71.586 56.8121 71.709 56.9682 71.7911 57.1439C71.9962 57.7491 72.8783 59.0376 73.1244 59.1157C73.2475 59.1548 73.3501 59.311 73.3501 59.4671C73.3501 59.6233 73.4937 59.7405 73.6578 59.7405C73.8219 59.7405 73.9655 59.8576 73.9655 59.9943C73.9655 60.1504 74.2937 60.4238 74.6834 60.6385C75.0732 60.8337 75.4014 61.068 75.4014 61.1461C75.4014 61.2437 75.545 61.3023 75.7091 61.3023C75.8732 61.3023 76.0167 61.3609 76.0167 61.4585C76.0167 61.6342 77.3296 62.0832 78.2732 62.2199C78.6629 62.2784 79.0527 62.4151 79.1347 62.5322C79.2783 62.747 95.4219 62.9812 96.1399 62.7665C96.5091 62.6494 96.5296 62.4346 96.5296 59.4281V56.2264L88.6937 56.2068C81.3296 56.2068 80.7962 56.1678 80.2219 55.8164C79.8937 55.6212 79.3809 55.3674 79.1347 55.2502C78.868 55.1331 78.6014 54.8793 78.5398 54.6645C78.4783 54.4498 78.3552 54.2741 78.2527 54.2741C78.1501 54.2741 78.068 54.0789 78.068 53.8251C78.068 53.5713 77.945 53.2589 77.8219 53.1418C77.6373 52.9661 77.5347 51.9704 77.4937 49.9791C77.4321 47.6168 77.4732 46.953 77.7398 46.4455C77.9244 46.094 78.068 45.6645 78.068 45.4498C78.068 45.2546 78.1501 45.0984 78.2732 45.0984C78.3757 45.0984 78.5193 44.8836 78.6014 44.6103C78.6629 44.337 78.8475 44.1222 78.9911 44.1222C79.3193 44.1222 80.6116 43.4975 80.6937 43.2828C80.7347 43.2047 84.3245 43.1461 88.6527 43.1461H96.5296V39.9248V36.7036H87.9347C82.4168 36.7036 79.2783 36.7817 79.1962 36.8988Z" fill="white"/>
</svg>
