<svg width="266" height="40" viewBox="0 0 266 40" fill="none" xmlns="http://www.w3.org/2000/svg">
<path fill-rule="evenodd" clip-rule="evenodd" d="M13.5598 26.1941C14.0636 27.2961 14.7135 28.2915 15.4895 29.164C13.7786 30.0846 11.9855 30.4951 10.0311 30.4951C4.21822 30.4951 0 26.6648 0 20.5513C0 14.3945 4.43366 10.5642 10.0311 10.5642C12.023 10.5642 13.5937 10.9967 15.1764 11.8426C14.4384 12.7487 13.8297 13.7769 13.3671 14.9088C12.4121 14.5266 11.4295 14.3523 10.4174 14.3523C6.97327 14.3523 4.30396 16.548 4.30396 20.5513C4.30396 24.3394 6.88772 26.7505 10.5905 26.7505C11.6513 26.7505 12.6307 26.5585 13.5598 26.1941ZM25.2499 10.5644C30.9749 10.5644 35.1079 14.6111 35.1079 20.5513C35.1079 26.4495 30.9749 30.4951 25.2499 30.4951C19.5683 30.4951 15.4358 26.4495 15.4358 20.5513C15.4358 14.6111 19.5685 10.5642 25.2499 10.5642V10.5644ZM25.2499 14.2232C22.0648 14.2232 19.7398 16.6777 19.7398 20.5513C19.7398 24.3834 22.0646 26.8361 25.2499 26.8361C28.5224 26.8361 30.8038 24.3834 30.8038 20.5513C30.8038 16.6777 28.5226 14.2232 25.2499 14.2232ZM37.8206 30.0648V10.9943H42.081V30.0648H37.8206ZM37.2598 5.13964C37.2598 3.67627 38.5093 2.51409 39.9291 2.51409C41.3503 2.51409 42.5984 3.67647 42.5984 5.13984C42.5984 6.64677 41.3503 7.85271 39.9291 7.85271C38.5093 7.85271 37.2598 6.64677 37.2598 5.13984V5.13964ZM45.799 12.2004C48.4683 11.1674 51.7408 10.5642 54.5376 10.5642C59.403 10.5642 62.5024 12.4155 62.5024 17.7963V30.0648H58.2842V18.1844C58.2842 15.4291 56.562 14.4379 54.1937 14.4379C52.6867 14.4379 51.1816 14.6533 50.061 14.9977V30.065H45.799V12.2004ZM66.0711 0.792114H70.3317V11.5117C71.2355 11.0381 73.001 10.5644 74.6792 10.5644C80.1895 10.5644 84.3222 14.0937 84.3222 20.2072C84.3222 26.3622 80.2331 30.4949 73.1741 30.4949C70.419 30.4949 68.0083 29.9355 66.0711 29.247V0.792114ZM70.3317 26.4495C71.1497 26.7068 72.2267 26.8361 73.3016 26.8361C77.2192 26.8361 80.0182 24.6842 80.0182 20.2927C80.0182 16.5901 77.3925 14.3947 74.1636 14.3947C72.4852 14.3947 71.1933 14.8262 70.3317 15.2998V26.4497V26.4495ZM96.6327 17.2792C96.6327 15.2127 95.0822 14.267 92.9737 14.267C90.778 14.267 89.056 14.9119 87.4636 15.8159V12.1129C89.1418 11.1674 91.2939 10.5642 93.6626 10.5642C97.837 10.5642 100.807 12.2862 100.807 17.0638V29.6769C98.9998 30.1505 96.4176 30.4527 94.2656 30.4527C89.3149 30.4527 85.698 28.946 85.698 24.6404C85.698 20.7666 89.0125 18.8731 94.5226 18.8731H96.6327V17.279V17.2792ZM96.6327 21.7139H94.8248C91.8533 21.7139 89.9164 22.5739 89.9164 24.5111C89.9164 26.4915 91.7254 27.2662 94.3077 27.2662C94.9545 27.2662 95.8582 27.1806 96.6325 27.0509V21.7139H96.6327ZM103.907 24.8991C105.672 26.2331 107.781 27.0513 109.718 27.0513C111.613 27.0513 112.861 26.4058 112.861 24.8991C112.861 23.3486 111.742 22.7891 109.288 22.144C105.328 21.2402 103.648 19.6478 103.648 16.3329C103.648 12.4577 106.576 10.5646 110.45 10.5646C112.602 10.5646 114.324 11.0381 115.917 12.0276V15.945C114.239 14.7404 112.602 14.0082 110.58 14.0082C108.728 14.0082 107.739 14.9119 107.739 16.1602C107.739 17.4082 108.555 18.0549 110.751 18.6565C115.1 19.6038 116.994 21.2402 116.994 24.6842C116.994 28.6872 113.938 30.4949 109.805 30.4949C107.566 30.4949 105.328 29.8933 103.907 28.946V24.8991ZM122.826 21.4991V21.5846C123.085 24.9846 126.012 26.8361 128.982 26.8361C131.607 26.8361 133.502 26.2331 135.395 24.9846V28.7311C133.674 29.9355 131.134 30.4949 128.681 30.4949C122.741 30.4949 118.694 26.7068 118.694 20.6808C118.694 14.6111 122.653 10.5644 127.906 10.5644C133.459 10.5644 136.085 14.1375 136.085 19.3454V21.4989H122.826V21.4991ZM132.081 18.7438C131.995 15.7721 130.532 14.1375 127.777 14.1375C125.323 14.1375 123.515 15.8594 122.956 18.7438H132.081Z" fill="white"/>
<path d="M152.673 0.693069C152.673 0.310298 152.363 0 151.98 0C151.597 0 151.287 0.310298 151.287 0.693069V39.3069C151.287 39.6897 151.597 40 151.98 40C152.363 40 152.673 39.6897 152.673 39.3069V0.693069Z" fill="white"/>
<path d="M176.575 30.099H174.202L166.855 11.0439H169.005L175.421 28.1101L181.836 11.0439H183.922L176.575 30.099ZM195.593 23.202H185.007V23.2661C185.007 26.6986 187.477 28.7196 190.204 28.7196C192.193 28.7196 193.572 28.2063 194.984 27.1477V29.0725C193.733 30.0028 191.936 30.4198 190.204 30.4198C186.162 30.4198 183.082 27.661 183.082 23.1057C183.082 18.9034 185.969 15.7917 189.723 15.7917C193.251 15.7917 195.593 17.9089 195.593 21.8867V23.202H195.593ZM185.135 21.598H193.668C193.54 18.6788 191.968 17.4919 189.626 17.4919C187.445 17.4919 185.681 18.9675 185.135 21.598ZM197.737 30.099V16.8503C199.598 16.1766 201.715 15.7917 203.608 15.7917C207.136 15.7917 209.286 17.1711 209.286 20.6677V30.099H207.361V21.0527C207.361 18.1976 205.34 17.5881 203.447 17.5881C201.972 17.5881 200.656 17.8447 199.662 18.1014V30.099H197.737ZM210.467 17.7485V16.1125H212.617V12.7121H214.541V16.1125H218.487V17.7485H214.541V26.2816C214.541 28.078 215.247 28.7838 216.562 28.7838C217.461 28.7838 218.198 28.495 219.161 28.0138V29.714C218.327 30.1311 217.364 30.4198 216.145 30.4198C214.124 30.4198 212.617 29.3612 212.617 26.474V17.7485H210.467ZM231.891 16.1125V29.9386C230.191 30.2594 228.458 30.4198 227.015 30.4198C222.973 30.4198 220.663 29.0404 220.663 25.5437V16.1125H222.588V25.4475C222.588 28.078 224.673 28.7517 226.887 28.7517C227.849 28.7517 228.94 28.6875 229.966 28.5592V16.1125H231.891ZM237.082 18.4222V30.099H235.158V17.3956C236.633 16.4653 238.43 15.8879 240.354 15.8879C241.124 15.8879 241.894 15.9841 242.696 16.1766V18.0693C241.862 17.7806 240.868 17.7164 240.226 17.7164C238.847 17.7164 237.82 18.0051 237.082 18.4222ZM255.17 23.202H244.584V23.2661C244.584 26.6986 247.054 28.7196 249.78 28.7196C251.769 28.7196 253.149 28.2063 254.56 27.1477V29.0725C253.309 30.0028 251.513 30.4198 249.78 30.4198C245.738 30.4198 242.659 27.661 242.659 23.1057C242.659 18.9034 245.546 15.7917 249.299 15.7917C252.828 15.7917 255.17 17.9089 255.17 21.8867V23.202ZM244.712 21.598H253.245C253.117 18.6788 251.545 17.4919 249.203 17.4919C247.022 17.4919 245.257 18.9675 244.712 21.598ZM256.64 29.297V27.1156C257.827 28.1742 259.046 28.7838 260.586 28.7838C262.35 28.7838 263.473 28.1101 263.473 26.5382C263.473 24.8701 262.254 24.421 260.041 23.6832C257.571 22.8491 256.512 21.8226 256.512 19.577C256.512 17.1069 258.373 15.7917 260.907 15.7917C262.286 15.7917 263.634 16.0804 264.724 16.8503V18.9354C263.634 18.0372 262.511 17.4277 260.907 17.4277C259.367 17.4277 258.373 18.2618 258.373 19.577C258.373 20.8602 259.142 21.5338 261.292 22.2075C263.73 22.9453 265.366 23.8756 265.366 26.4099C265.366 29.1687 263.216 30.4198 260.586 30.4198C259.014 30.4198 257.506 29.9707 256.64 29.297Z" fill="white"/>
<path d="M176.575 30.099H174.202L166.855 11.0439H169.005L175.421 28.1101L181.836 11.0439H183.922L176.575 30.099ZM195.593 23.202H185.007V23.2661C185.007 26.6986 187.477 28.7196 190.204 28.7196C192.193 28.7196 193.572 28.2063 194.984 27.1477V29.0725C193.733 30.0028 191.936 30.4198 190.204 30.4198C186.162 30.4198 183.082 27.661 183.082 23.1057C183.082 18.9034 185.969 15.7917 189.723 15.7917C193.251 15.7917 195.593 17.9089 195.593 21.8867V23.202H195.593ZM185.135 21.598H193.668C193.54 18.6788 191.968 17.4919 189.626 17.4919C187.445 17.4919 185.681 18.9675 185.135 21.598ZM197.737 30.099V16.8503C199.598 16.1766 201.715 15.7917 203.608 15.7917C207.136 15.7917 209.286 17.1711 209.286 20.6677V30.099H207.361V21.0527C207.361 18.1976 205.34 17.5881 203.447 17.5881C201.972 17.5881 200.656 17.8447 199.662 18.1014V30.099H197.737ZM210.467 17.7485V16.1125H212.617V12.7121H214.541V16.1125H218.487V17.7485H214.541V26.2816C214.541 28.078 215.247 28.7838 216.562 28.7838C217.461 28.7838 218.198 28.495 219.161 28.0138V29.714C218.327 30.1311 217.364 30.4198 216.145 30.4198C214.124 30.4198 212.617 29.3612 212.617 26.474V17.7485H210.467ZM231.891 16.1125V29.9386C230.191 30.2594 228.458 30.4198 227.015 30.4198C222.973 30.4198 220.663 29.0404 220.663 25.5437V16.1125H222.588V25.4475C222.588 28.078 224.673 28.7517 226.887 28.7517C227.849 28.7517 228.94 28.6875 229.966 28.5592V16.1125H231.891ZM237.082 18.4222V30.099H235.158V17.3956C236.633 16.4653 238.43 15.8879 240.354 15.8879C241.124 15.8879 241.894 15.9841 242.696 16.1766V18.0693C241.862 17.7806 240.868 17.7164 240.226 17.7164C238.847 17.7164 237.82 18.0051 237.082 18.4222ZM255.17 23.202H244.584V23.2661C244.584 26.6986 247.054 28.7196 249.78 28.7196C251.769 28.7196 253.149 28.2063 254.56 27.1477V29.0725C253.309 30.0028 251.513 30.4198 249.78 30.4198C245.738 30.4198 242.659 27.661 242.659 23.1057C242.659 18.9034 245.546 15.7917 249.299 15.7917C252.828 15.7917 255.17 17.9089 255.17 21.8867V23.202ZM244.712 21.598H253.245C253.117 18.6788 251.545 17.4919 249.203 17.4919C247.022 17.4919 245.257 18.9675 244.712 21.598ZM256.64 29.297V27.1156C257.827 28.1742 259.046 28.7838 260.586 28.7838C262.35 28.7838 263.473 28.1101 263.473 26.5382C263.473 24.8701 262.254 24.421 260.041 23.6832C257.571 22.8491 256.512 21.8226 256.512 19.577C256.512 17.1069 258.373 15.7917 260.907 15.7917C262.286 15.7917 263.634 16.0804 264.724 16.8503V18.9354C263.634 18.0372 262.511 17.4277 260.907 17.4277C259.367 17.4277 258.373 18.2618 258.373 19.577C258.373 20.8602 259.142 21.5338 261.292 22.2075C263.73 22.9453 265.366 23.8756 265.366 26.4099C265.366 29.1687 263.216 30.4198 260.586 30.4198C259.014 30.4198 257.506 29.9707 256.64 29.297Z" fill="white"/>
</svg>
