<svg width="236" height="34" viewBox="0 0 236 34" fill="none" xmlns="http://www.w3.org/2000/svg">
<path fill-rule="evenodd" clip-rule="evenodd" d="M12.5543 22.1649C13.001 23.0839 13.5772 23.9141 14.2653 24.6417C12.7483 25.4094 11.1585 25.7518 9.42551 25.7518C4.27141 25.7518 0.53125 22.5574 0.53125 17.459C0.53125 12.3244 4.46244 9.13006 9.42551 9.13006C11.1916 9.13006 12.5843 9.49073 13.9877 10.1962C13.3334 10.9519 12.7936 11.8093 12.3835 12.7533C11.5367 12.4346 10.6654 12.2892 9.76806 12.2892C6.71423 12.2892 4.34744 14.1203 4.34744 17.459C4.34744 20.6182 6.63838 22.6289 9.92152 22.6289C10.8621 22.6289 11.7305 22.4687 12.5543 22.1649ZM22.9196 9.13023C27.9957 9.13023 31.6604 12.5051 31.6604 17.459C31.6604 22.3779 27.9957 25.7518 22.9196 25.7518C17.8819 25.7518 14.2177 22.3779 14.2177 17.459C14.2177 12.5051 17.882 9.13006 22.9196 9.13006V9.13023ZM22.9196 12.1816C20.0954 12.1816 18.0339 14.2285 18.0339 17.459C18.0339 20.6548 20.0952 22.7003 22.9196 22.7003C25.8212 22.7003 27.844 20.6548 27.844 17.459C27.844 14.2285 25.8213 12.1816 22.9196 12.1816ZM34.0656 25.3929V9.48875H37.8432V25.3929H34.0656ZM33.5684 4.60616C33.5684 3.38576 34.6763 2.41654 35.9352 2.41654C37.1953 2.41654 38.302 3.38593 38.302 4.60633C38.302 5.86306 37.1953 6.86877 35.9352 6.86877C34.6763 6.86877 33.5684 5.86306 33.5684 4.60633V4.60616ZM41.1398 10.4946C43.5066 9.63308 46.4082 9.13006 48.8881 9.13006C53.202 9.13006 55.9502 10.674 55.9502 15.1614V25.3929H52.21V15.4851C52.21 13.1873 50.683 12.3606 48.5831 12.3606C47.247 12.3606 45.9124 12.5402 44.9188 12.8274V25.3931H41.1398V10.4946ZM59.1145 0.980469H62.8922V9.92027C63.6935 9.52525 65.259 9.13023 66.747 9.13023C71.6328 9.13023 75.2971 12.0736 75.2971 17.172C75.2971 22.3051 71.6714 25.7516 65.4124 25.7516C62.9696 25.7516 60.8321 25.2851 59.1145 24.7109V0.980469ZM62.8922 22.3779C63.6175 22.5924 64.5725 22.7003 65.5255 22.7003C68.9991 22.7003 71.4809 20.9057 71.4809 17.2433C71.4809 14.1555 69.1528 12.3246 66.2898 12.3246C64.8016 12.3246 63.6561 12.6844 62.8922 13.0794V22.3781V22.3779ZM86.2125 14.7302C86.2125 13.0068 84.8377 12.2181 82.9681 12.2181C81.0213 12.2181 79.4945 12.7559 78.0825 13.5098V10.4216C79.5705 9.63308 81.4787 9.13006 83.579 9.13006C87.2803 9.13006 89.914 10.5661 89.914 14.5505V25.0694C88.3113 25.4644 86.0218 25.7164 84.1136 25.7164C79.724 25.7164 76.5171 24.4599 76.5171 20.8692C76.5171 17.6385 79.4559 16.0594 84.3415 16.0594H86.2125V14.73V14.7302ZM86.2125 18.4285H84.6094C81.9747 18.4285 80.2574 19.1458 80.2574 20.7613C80.2574 22.4129 81.8613 23.059 84.151 23.059C84.7244 23.059 85.5258 22.9876 86.2123 22.8795V18.4285H86.2125ZM92.6623 21.0849C94.2278 22.1974 96.0972 22.8798 97.8145 22.8798C99.4948 22.8798 100.602 22.3414 100.602 21.0849C100.602 19.7918 99.6094 19.3253 97.4333 18.7872C93.9223 18.0335 92.4328 16.7055 92.4328 13.941C92.4328 10.7092 95.0291 9.13039 98.464 9.13039C100.372 9.13039 101.899 9.52525 103.311 10.3505V13.6175C101.823 12.6129 100.372 12.0022 98.5788 12.0022C96.9373 12.0022 96.0599 12.7559 96.0599 13.797C96.0599 14.8377 96.784 15.3771 98.7308 15.8788C102.587 16.6688 104.266 18.0335 104.266 20.9057C104.266 24.244 101.556 25.7516 97.8919 25.7516C95.9065 25.7516 93.9223 25.2499 92.6623 24.4599V21.0849ZM109.438 18.2494V18.3207C109.667 21.1562 112.262 22.7003 114.895 22.7003C117.223 22.7003 118.904 22.1974 120.582 21.1562V24.2807C119.056 25.2851 116.803 25.7516 114.629 25.7516C109.362 25.7516 105.773 22.5924 105.773 17.567C105.773 12.5051 109.284 9.13023 113.942 9.13023C118.865 9.13023 121.193 12.1101 121.193 16.4533V18.2492H109.438V18.2494ZM117.644 15.9516C117.568 13.4733 116.27 12.11 113.827 12.11C111.651 12.11 110.048 13.5461 109.552 15.9516H117.644Z" fill="white"/>
<path d="M135.901 0.898309C135.901 0.579091 135.626 0.320312 135.286 0.320312C134.947 0.320312 134.672 0.579091 134.672 0.898309V33.101C134.672 33.4202 134.947 33.679 135.286 33.679C135.626 33.679 135.901 33.4202 135.901 33.101V0.898309Z" fill="white"/>
<path d="M157.095 25.4225H154.99L148.477 9.53125H150.382L156.071 23.7638L161.76 9.53125H163.609L157.095 25.4225ZM173.958 19.6706H164.571V19.7241C164.571 22.5867 166.761 24.2722 169.179 24.2722C170.942 24.2722 172.165 23.8441 173.417 22.9613V24.5664C172.308 25.3423 170.715 25.6901 169.179 25.6901C165.595 25.6901 162.864 23.3893 162.864 19.5904C162.864 16.0857 165.424 13.4907 168.752 13.4907C171.881 13.4907 173.957 15.2564 173.957 18.5738V19.6706H173.958ZM164.685 18.333H172.251C172.137 15.8985 170.743 14.9086 168.667 14.9086C166.733 14.9086 165.168 16.1392 164.685 18.333ZM175.858 25.4225V14.3735C177.508 13.8117 179.385 13.4907 181.064 13.4907C184.192 13.4907 186.098 14.6411 186.098 17.5571V25.4225H184.391V17.8782C184.391 15.4972 182.599 14.9889 180.921 14.9889C179.613 14.9889 178.447 15.2029 177.565 15.4169V25.4225H175.858ZM187.146 15.1226V13.7582H189.052V10.9224H190.758V13.7582H194.257V15.1226H190.758V22.2389C190.758 23.7371 191.384 24.3257 192.55 24.3257C193.347 24.3257 194.001 24.0849 194.854 23.6836V25.1015C194.115 25.4493 193.261 25.6901 192.18 25.6901C190.388 25.6901 189.052 24.8072 189.052 22.3994V15.1226H187.146ZM206.141 13.7582V25.2888C204.634 25.5563 203.098 25.6901 201.818 25.6901C198.234 25.6901 196.186 24.5397 196.186 21.6236V13.7582H197.893V21.5433C197.893 23.7371 199.742 24.2989 201.704 24.2989C202.558 24.2989 203.525 24.2454 204.435 24.1384V13.7582H206.141ZM210.745 15.6844V25.4225H209.038V14.8283C210.346 14.0525 211.939 13.571 213.646 13.571C214.329 13.571 215.011 13.6512 215.722 13.8117V15.3902C214.983 15.1494 214.101 15.0959 213.532 15.0959C212.309 15.0959 211.399 15.3367 210.745 15.6844ZM226.782 19.6706H217.396V19.7241C217.396 22.5867 219.586 24.2722 222.004 24.2722C223.767 24.2722 224.99 23.8441 226.242 22.9613V24.5664C225.132 25.3423 223.54 25.6901 222.004 25.6901C218.42 25.6901 215.689 23.3893 215.689 19.5904C215.689 16.0857 218.249 13.4907 221.577 13.4907C224.706 13.4907 226.782 15.2564 226.782 18.5738V19.6706ZM217.509 18.333H225.075C224.962 15.8985 223.568 14.9086 221.492 14.9086C219.557 14.9086 217.993 16.1392 217.509 18.333ZM228.086 24.7537V22.9345C229.138 23.8174 230.219 24.3257 231.585 24.3257C233.149 24.3257 234.144 23.7638 234.144 22.453C234.144 21.0618 233.064 20.6873 231.101 20.0719C228.911 19.3764 227.972 18.5203 227.972 16.6475C227.972 14.5876 229.622 13.4907 231.869 13.4907C233.092 13.4907 234.287 13.7315 235.254 14.3735V16.1125C234.287 15.3634 233.291 14.8551 231.869 14.8551C230.504 14.8551 229.622 15.5507 229.622 16.6475C229.622 17.7177 230.305 18.2795 232.21 18.8413C234.372 19.4566 235.823 20.2325 235.823 22.3459C235.823 24.6467 233.917 25.6901 231.585 25.6901C230.191 25.6901 228.854 25.3155 228.086 24.7537Z" fill="white"/>
<path d="M157.095 25.4225H154.99L148.477 9.53125H150.382L156.071 23.7638L161.76 9.53125H163.609L157.095 25.4225ZM173.958 19.6706H164.571V19.7241C164.571 22.5867 166.761 24.2722 169.179 24.2722C170.942 24.2722 172.165 23.8441 173.417 22.9613V24.5664C172.308 25.3423 170.715 25.6901 169.179 25.6901C165.595 25.6901 162.864 23.3893 162.864 19.5904C162.864 16.0857 165.424 13.4907 168.752 13.4907C171.881 13.4907 173.957 15.2564 173.957 18.5738V19.6706H173.958ZM164.685 18.333H172.251C172.137 15.8985 170.743 14.9086 168.667 14.9086C166.733 14.9086 165.168 16.1392 164.685 18.333ZM175.858 25.4225V14.3735C177.508 13.8117 179.385 13.4907 181.064 13.4907C184.192 13.4907 186.098 14.6411 186.098 17.5571V25.4225H184.391V17.8782C184.391 15.4972 182.599 14.9889 180.921 14.9889C179.613 14.9889 178.447 15.2029 177.565 15.4169V25.4225H175.858ZM187.146 15.1226V13.7582H189.052V10.9224H190.758V13.7582H194.257V15.1226H190.758V22.2389C190.758 23.7371 191.384 24.3257 192.55 24.3257C193.347 24.3257 194.001 24.0849 194.854 23.6836V25.1015C194.115 25.4493 193.261 25.6901 192.18 25.6901C190.388 25.6901 189.052 24.8072 189.052 22.3994V15.1226H187.146ZM206.141 13.7582V25.2888C204.634 25.5563 203.098 25.6901 201.818 25.6901C198.234 25.6901 196.186 24.5397 196.186 21.6236V13.7582H197.893V21.5433C197.893 23.7371 199.742 24.2989 201.704 24.2989C202.558 24.2989 203.525 24.2454 204.435 24.1384V13.7582H206.141ZM210.745 15.6844V25.4225H209.038V14.8283C210.346 14.0525 211.939 13.571 213.646 13.571C214.329 13.571 215.011 13.6512 215.722 13.8117V15.3902C214.983 15.1494 214.101 15.0959 213.532 15.0959C212.309 15.0959 211.399 15.3367 210.745 15.6844ZM226.782 19.6706H217.396V19.7241C217.396 22.5867 219.586 24.2722 222.004 24.2722C223.767 24.2722 224.99 23.8441 226.242 22.9613V24.5664C225.132 25.3423 223.54 25.6901 222.004 25.6901C218.42 25.6901 215.689 23.3893 215.689 19.5904C215.689 16.0857 218.249 13.4907 221.577 13.4907C224.706 13.4907 226.782 15.2564 226.782 18.5738V19.6706ZM217.509 18.333H225.075C224.962 15.8985 223.568 14.9086 221.492 14.9086C219.557 14.9086 217.993 16.1392 217.509 18.333ZM228.086 24.7537V22.9345C229.138 23.8174 230.219 24.3257 231.585 24.3257C233.149 24.3257 234.144 23.7638 234.144 22.453C234.144 21.0618 233.064 20.6873 231.101 20.0719C228.911 19.3764 227.972 18.5203 227.972 16.6475C227.972 14.5876 229.622 13.4907 231.869 13.4907C233.092 13.4907 234.287 13.7315 235.254 14.3735V16.1125C234.287 15.3634 233.291 14.8551 231.869 14.8551C230.504 14.8551 229.622 15.5507 229.622 16.6475C229.622 17.7177 230.305 18.2795 232.21 18.8413C234.372 19.4566 235.823 20.2325 235.823 22.3459C235.823 24.6467 233.917 25.6901 231.585 25.6901C230.191 25.6901 228.854 25.3155 228.086 24.7537Z" fill="white"/>
</svg>
