<?xml version="1.0" encoding="UTF-8"?>
<svg width="288px" height="55px" viewBox="0 0 288 55" version="1.1" xmlns="http://www.w3.org/2000/svg" xmlns:xlink="http://www.w3.org/1999/xlink">
    <!-- Generator: Sketch 55 (78076) - https://sketchapp.com -->
    <title>gauntlet_logo_full_light_bgvector</title>
    <desc>Created with Sketch.</desc>
    <defs>
        <polygon id="path-1" points="0.0699836614 0.370896185 18.5228345 0.370896185 18.5228345 23.1191955 0.0699836614 23.1191955"></polygon>
        <polygon id="path-3" points="0 0.247313576 20.3610935 0.247313576 20.3610935 24.2318841 0 24.2318841"></polygon>
    </defs>
    <g id="Production" stroke="none" stroke-width="1" fill="none" fill-rule="evenodd">
        <g id="Web-Style-Guide" transform="translate(-846.000000, -878.000000)">
            <g id="gauntlet_logo_full_light_bg" transform="translate(846.000000, 878.000000)">
                <g id="Group-5-Copy-9" fill-rule="nonzero">
                    <path d="M36.7479663,40.3333333 L36.7479663,45.7826577 L9.41328829,45.7826577 L9.41328829,36.7173423 L27.6959459,36.7173423 L27.6959459,36.6666667 L18.6306306,36.6666667 L18.6306306,36.615991 L27.6959459,36.615991 L27.6959459,32.5416667 L27.7567568,32.5416667 L27.7567568,27.5506757 L18.6306306,27.5506757 L18.6306306,18.2826577 L36.7612613,18.2826577 L36.7612613,36.6666667 L36.7612613,40.3333333 L36.7479663,40.3333333 Z M36.7612613,9.21734234 L18.6306306,9.21734234 L18.6306306,9.16666667 L9.56531532,9.16666667 L9.56531532,36.6666667 L0.5,36.6666667 L0.5,0 L36.7612613,0 L36.7612613,9.21734234 Z" id="Combined-Shape" fill="#87ABC5" opacity="0.595033482"></path>
                    <polygon id="Rectangle-5-Copy-19" fill="#87ABC5" transform="translate(41.293919, 13.750000) rotate(-270.000000) translate(-41.293919, -13.750000) " points="36.7612613 9.16666667 45.8265766 9.16666667 45.8265766 18.3333333 36.7612613 18.3333333"></polygon>
                    <polygon id="Rectangle-5-Copy-30" fill="#F07F53" transform="translate(5.032658, 50.416667) rotate(-270.000000) translate(-5.032658, -50.416667) " points="0.5 45.8333333 9.56531532 45.8333333 9.56531532 55 0.5 55"></polygon>
                </g>
                <g id="Group-18" transform="translate(95.000000, 10.000000)">
                    <polygon id="Fill-1" fill="#1D252E" points="134.11452 1.10144928 130.039414 1.10144928 130.039414 23.1304348 130.31052 23.1304348 134.11452 23.1304348 144.721284 23.1304348 144.721284 18.7825835 134.11452 18.7825835"></polygon>
                    <polygon id="Fill-2" fill="#1D252E" points="93.2869204 16.0011846 82.8955121 1.10144928 79.2187751 1.10144928 78.6528716 1.10144928 78.6528716 23.1304348 82.8955121 23.1304348 82.8955121 8.3920857 93.2869204 23.1304348 96.9641246 23.1304348 97.5295608 23.1304348 97.5295608 1.10144928 93.2869204 1.10144928"></polygon>
                    <g id="Group-17">
                        <path d="M65.3206366,14.0356018 C65.3206366,17.3281708 63.0868799,19.1238029 60.5735577,19.1238029 C58.339801,19.1238029 56.1060443,17.3281708 56.1060443,14.0356018 L56.1060443,0.865325525 L51.9176352,0.865325525 L51.9176352,14.0356018 C51.9176352,20.6202454 56.6647142,23.6136248 60.5735577,23.6136248 C64.4828625,23.6136248 69.5090457,20.6202454 69.5090457,14.0356018 L69.5090457,0.865325525 L65.3206366,0.865325525 L65.3206366,14.0356018 Z" id="Fill-3" fill="#1D252E"></path>
                        <polygon id="Fill-5" fill="#1D252E" points="111.685907 0.865424431 104.553295 0.865424431 104.553295 5.35524638 111.685907 5.35524638 111.685907 23.6137238 115.874317 23.6137238 115.874317 5.35524638 123.006468 5.35524638 123.006468 0.865424431 115.874317 0.865424431"></polygon>
                        <path d="M33.5754112,16.461086 L36.4028987,10.2007836 L39.2585274,16.461086 L33.5754112,16.461086 Z M25.8772084,23.6139216 L30.3447218,23.6139216 L31.9344627,20.0940728 L40.9156224,20.0940728 L42.5215098,23.6139216 L46.9890232,23.6139216 L36.2935637,0.483486779 L25.8772084,23.6139216 Z" id="Fill-7" fill="#1D252E"></path>
                        <g id="Group-11" transform="translate(174.047209, 0.494528)">
                            <mask id="mask-2" fill="white">
                                <use xlink:href="#path-1"></use>
                            </mask>
                            <g id="Clip-10"></g>
                            <polygon id="Fill-9" fill="#1D252E" mask="url(#mask-2)" points="18.5231574 0.370896185 11.3905444 0.370896185 7.20213531 0.370896185 0.0699836614 0.370896185 0.0699836614 4.86071813 7.20213531 4.86071813 7.20213531 23.1191955 11.3905444 23.1191955 11.3905444 4.86071813 18.5231574 4.86071813"></polygon>
                        </g>
                        <path d="M159.529036,0.887381485 C159.501817,0.880952618 159.477367,0.865622242 159.448303,0.865622242 C152.941714,0.865622242 149.675964,7.45026584 149.675964,12.2397719 C149.675964,17.0915885 152.978159,23.0279056 158.61099,23.569414 L158.61099,23.6139216 L167.570468,23.6139216 L167.570468,19.1236051 L159.727869,19.1236051 C157.205781,19.1236051 155.303259,17.0634004 154.527303,14.6342777 L167.109138,14.6342777 L167.109138,10.1444557 L154.406435,10.1444557 C155.038456,7.58725016 156.805347,5.35544419 159.448303,5.35544419 L167.570468,5.35544419 L167.570468,0.865622242 L159.533649,0.865622242 L159.529036,0.887381485 Z" id="Fill-12" fill="#1D252E"></path>
                        <g id="Group-16">
                            <mask id="mask-4" fill="white">
                                <use xlink:href="#path-3"></use>
                            </mask>
                            <g id="Clip-15"></g>
                            <path d="M10.700857,14.5347291 L16.2455744,14.5347291 L16.2455744,18.3836425 C15.3510568,19.1832946 13.7239482,20.116964 11.0057957,20.116964 C7.53613775,20.116964 4.25608612,16.4866321 4.25608612,12.6466203 C4.25608612,6.95014942 8.07819973,4.5249829 11.8850895,4.5249829 C16.2331185,4.5249829 19.1537946,8.18350287 19.1828583,8.22207607 L19.3876886,8.49406661 L19.3876886,3.24415475 L19.3595475,3.20953777 C19.3346357,3.17887702 18.7381369,2.45439314 17.4764011,1.72199681 C16.3166191,1.04894386 14.3527401,0.247313576 11.5810734,0.247313576 C7.10341083,0.247313576 -0.000138398803,3.61356735 -0.000138398803,12.6466203 C-0.000138398803,19.802444 6.0857183,24.2319335 11.7245469,24.2319335 C17.3993591,24.2319335 20.3131152,19.6733721 20.3417177,19.6268865 L20.3610935,19.5957312 L20.3610935,10.7585114 L10.700857,10.7585114 L10.700857,14.5347291 Z" id="Fill-14" fill="#1D252E" mask="url(#mask-4)"></path>
                        </g>
                    </g>
                </g>
            </g>
        </g>
    </g>
</svg>