<svg width="75" height="90" viewBox="0 0 75 90" fill="none" xmlns="http://www.w3.org/2000/svg">
<path d="M69.1928 19.2366H54.857V14.5802H73.832V58.9313H69.1928V19.2366ZM5.34713 45.9542H0.707957V90H25.7671V85.3435H5.34713V45.9542ZM10.8229 7.48092H9.75815V6.48855V1.03053V0.305344H10.8989H12.1918H12.8763H13.1044H13.2185C15.386 0.343511 16.907 1.87023 16.907 3.89313C16.907 5.91603 15.386 7.44275 13.1805 7.48092H13.1425H12.9143H12.2298H10.8229ZM11.1271 6.22137H13.1805C14.5875 6.18321 15.5381 5.22901 15.5381 3.89313C15.5381 2.55725 14.6255 1.56489 13.2185 1.52672H11.1651H11.051V6.22137H11.1271ZM3.67399 7.48092H4.92885H7.85685V6.22137H4.92885V1.56489H7.85685V0.305344H4.92885H3.67399H0.707957V1.56489H3.63596V6.22137H0.707957V7.48092H3.67399ZM34.7032 3.89313C34.7032 6.03053 32.954 7.78626 30.7865 7.78626C28.6191 7.78626 26.8699 6.03053 26.8699 3.89313C26.8318 1.75573 28.581 0 30.7485 0C32.916 0 34.7032 1.75573 34.7032 3.89313ZM30.7485 1.33588C29.3416 1.33588 28.1628 2.48092 28.1628 3.89313C28.1628 5.30534 29.3035 6.45038 30.7485 6.45038C32.1555 6.45038 33.3343 5.30534 33.3343 3.89313C33.3343 2.48092 32.1935 1.33588 30.7485 1.33588ZM18.4661 0.305344V1.56489V6.22137V7.48092H23.8278H25.6911V6.22137H19.797V4.50382H24.3982V3.28244H19.759V1.56489H25.653V0.305344H23.7517H18.4661ZM51.2445 25.9924C51.2445 32.5191 45.9589 37.4809 39.4565 37.4809C32.954 37.4809 27.7445 32.5191 27.7445 25.9924C27.7445 19.5038 32.954 14.5038 39.4565 14.5038C45.9589 14.5038 51.2445 19.5038 51.2445 25.9924ZM39.4945 18.7023C35.3877 18.7023 32.3836 21.7557 32.3836 25.9924C32.3836 30.3053 35.3497 33.2824 39.4945 33.2824C43.5633 33.2824 46.6054 30.3053 46.6054 25.9924C46.6054 21.7557 43.5633 18.7023 39.4945 18.7023ZM12.1158 37.5191C16.4127 37.5191 19.9872 35.4198 21.8885 32.0229L18.4661 29.6183C16.9831 31.9847 14.9297 33.3588 12.1538 33.3588C8.04698 33.3588 5.0049 30.3817 5.0049 26.1069C5.0049 21.7557 8.04698 18.7023 12.1538 18.7023C14.9297 18.7023 17.0211 20.0763 18.4661 22.4427L21.8885 20.0382C19.9491 16.6412 16.4127 14.5038 12.1538 14.5038C5.57529 14.5038 0.365723 19.4657 0.365723 25.9924C0.365723 32.5191 5.53726 37.5191 12.1158 37.5191ZM66.9113 90H59.3441H57.1386V67.9771H61.4735H64.9339C69.0027 67.9771 71.8927 70.4962 71.8927 74.1221C71.8927 75.7634 71.2843 77.0992 70.2576 78.0916C72.6912 78.9695 74.1362 80.8779 74.1362 83.5496C74.1362 87.3282 71.1702 90 66.9113 90ZM61.4735 76.8702H64.5537C66.4169 76.8702 67.4056 75.8397 67.4056 74.3512C67.4056 72.8244 66.4169 71.8321 64.5537 71.8321H61.4735V76.8702ZM69.7252 83.3588C69.7252 81.6412 68.5464 80.5725 66.6071 80.5725H61.4735V86.1069H66.6071C68.5464 86.1069 69.7252 85.0763 69.7252 83.3588ZM35.3877 90H30.6344L40.255 67.9771H41.738L51.3206 90H46.5673L45.3505 87.1756H36.5285L35.3877 90ZM40.9775 76.2595L38.1256 83.5496H43.7914L40.9775 76.2595Z" fill="white"/>
</svg>
