<svg width="77" height="90" viewBox="0 0 77 90" fill="none" xmlns="http://www.w3.org/2000/svg">
<path d="M71.8402 19.2366H56.8768V14.5802H76.6825V58.9313H71.8402V19.2366ZM5.19948 45.9542H0.357217V90H26.5134V85.3435H5.19948V45.9542ZM10.9149 7.48092H9.80361V6.48855V1.03053V0.305344H10.9943H12.3438H13.0582H13.2964H13.4155C15.6778 0.343511 17.2655 1.87023 17.2655 3.89313C17.2655 5.91603 15.6778 7.44275 13.3758 7.48092H13.3361H13.0979H12.3835H10.9149ZM11.2325 6.22137H13.3758C14.8443 6.18321 15.8366 5.22901 15.8366 3.89313C15.8366 2.55725 14.884 1.56489 13.4155 1.52672H11.2722H11.1531V6.22137H11.2325ZM3.45309 7.48092H4.76289H7.81907V6.22137H4.76289V1.56489H7.81907V0.305344H4.76289H3.45309H0.357217V1.56489H3.4134V6.22137H0.357217V7.48092H3.45309ZM35.8407 3.89313C35.8407 6.03053 34.0149 7.78626 31.7526 7.78626C29.4902 7.78626 27.6644 6.03053 27.6644 3.89313C27.6247 1.75573 29.4505 0 31.7129 0C33.9753 0 35.8407 1.75573 35.8407 3.89313ZM31.7129 1.33588C30.2443 1.33588 29.0139 2.48092 29.0139 3.89313C29.0139 5.30534 30.2046 6.45038 31.7129 6.45038C33.1814 6.45038 34.4119 5.30534 34.4119 3.89313C34.4119 2.48092 33.2211 1.33588 31.7129 1.33588ZM18.8928 0.305344V1.56489V6.22137V7.48092H24.4892H26.434V6.22137H20.282V4.50382H25.0845V3.28244H20.2423V1.56489H26.3943V0.305344H24.4098H18.8928ZM53.1062 25.9924C53.1062 32.5191 47.5892 37.4809 40.8021 37.4809C34.0149 37.4809 28.5773 32.5191 28.5773 25.9924C28.5773 19.5038 34.0149 14.5038 40.8021 14.5038C47.5892 14.5038 53.1062 19.5038 53.1062 25.9924ZM40.8418 18.7023C36.5552 18.7023 33.4196 21.7557 33.4196 25.9924C33.4196 30.3053 36.5155 33.2824 40.8418 33.2824C45.0887 33.2824 48.2639 30.3053 48.2639 25.9924C48.2639 21.7557 45.0887 18.7023 40.8418 18.7023ZM12.2644 37.5191C16.7495 37.5191 20.4804 35.4198 22.4649 32.0229L18.8928 29.6183C17.3448 31.9847 15.2015 33.3588 12.3041 33.3588C8.01753 33.3588 4.84227 30.3817 4.84227 26.1069C4.84227 21.7557 8.01753 18.7023 12.3041 18.7023C15.2015 18.7023 17.3845 20.0763 18.8928 22.4427L22.4649 20.0382C20.4407 16.6412 16.7495 14.5038 12.3041 14.5038C5.43763 14.5038 0 19.4657 0 25.9924C0 32.5191 5.39794 37.5191 12.2644 37.5191ZM69.4588 90H61.5603H59.2582V67.9771H63.783H67.3948C71.6418 67.9771 74.6582 70.4962 74.6582 74.1221C74.6582 75.7634 74.0232 77.0992 72.9515 78.0916C75.4918 78.9695 77 80.8779 77 83.5496C77 87.3282 73.9041 90 69.4588 90ZM63.783 76.8702H66.9979C68.9428 76.8702 69.9747 75.8397 69.9747 74.3512C69.9747 72.8244 68.9428 71.8321 66.9979 71.8321H63.783V76.8702ZM72.3959 83.3588C72.3959 81.6412 71.1655 80.5725 69.1412 80.5725H63.783V86.1069H69.1412C71.1655 86.1069 72.3959 85.0763 72.3959 83.3588ZM36.5552 90H31.5938L41.6356 67.9771H43.1835L53.1856 90H48.2242L46.9541 87.1756H37.7459L36.5552 90ZM42.3897 76.2595L39.4129 83.5496H45.3268L42.3897 76.2595Z" fill="white"/>
</svg>
