<svg width="192" height="60" viewBox="0 0 192 60" fill="none" xmlns="http://www.w3.org/2000/svg">
<g clip-path="url(#clip0_8012_88050)">
<path fill-rule="evenodd" clip-rule="evenodd" d="M27.407 55.0594C42.0905 55.0594 53.9938 43.8404 53.9938 30.0005C53.9938 16.1607 42.0905 4.94141 27.407 4.94141C12.7236 4.94141 0.820312 16.1607 0.820312 30.0005C0.820312 43.8404 12.7236 55.0594 27.407 55.0594ZM30.8319 21.0954L39.7825 16.1812V23.4676L39.7823 26.3978C39.7823 29.0208 38.3033 31.4462 35.8986 32.7664L27.7301 37.2512V37.5606V44.847L18.7795 39.9329C16.3748 38.6127 14.8957 36.1872 14.8957 33.5643V30.5141L14.8956 23.3476L23.8463 28.2618C25.2133 29.0123 26.281 30.1199 26.9481 31.4179L26.9482 30.5141V27.464C26.9482 24.841 28.4272 22.4156 30.8319 21.0954Z" fill="white"/>
<path d="M65.0859 41.2372V18.1289H69.7844L80.0225 32.8192C80.5832 33.6995 80.9336 34.3047 81.0743 34.6348V18.1289H85.562V41.2372H80.8635L70.626 26.4479C70.0648 25.5676 69.7143 24.9624 69.5742 24.6323V41.2372H65.0859ZM105.161 41.2372H100.673C100.112 40.577 99.8319 39.7077 99.8319 38.6293C98.6169 40.676 96.6764 41.6994 94.012 41.6994C92.2823 41.6994 90.8683 41.2372 89.7693 40.3129C88.6945 39.3666 88.1563 38.1231 88.1563 36.5825C88.1563 35.0199 88.7293 33.7986 89.8747 32.9182C91.0432 32.0159 92.5391 31.4327 94.3624 31.1686L99.5863 30.4093V29.7821C99.5863 28.1315 98.5232 27.3062 96.396 27.3062C95.4143 27.3062 94.6428 27.4823 94.0821 27.8344C93.5449 28.1865 93.2753 28.6267 93.2753 29.1549C93.2753 29.2869 93.2994 29.419 93.3454 29.551L89.3836 30.8055C89.1733 30.3653 89.0679 29.9031 89.0679 29.419C89.0679 28.0765 89.734 26.9101 91.0667 25.9197C92.3989 24.9074 94.1757 24.4012 96.396 24.4012C98.8742 24.4012 100.755 24.8964 102.041 25.8867C103.35 26.877 104.004 28.3626 104.004 30.3433V37.1768C104.004 38.8274 104.39 40.1808 105.161 41.2372ZM95.0638 38.3322C96.396 38.3322 97.4826 37.925 98.3242 37.1108C99.1658 36.2744 99.5863 35.097 99.5863 33.5785V33.2814L95.379 33.9416C93.4395 34.2497 92.469 35.053 92.469 36.3515C92.469 36.9897 92.7034 37.4849 93.1704 37.837C93.638 38.1671 94.2693 38.3322 95.0638 38.3322ZM111.365 28.8908C111.365 29.9031 112.732 30.6734 115.467 31.2016C117.501 31.5977 118.973 32.203 119.885 33.0173C120.819 33.8095 121.287 34.8879 121.287 36.2524C121.287 37.837 120.667 39.1465 119.429 40.1808C118.19 41.1932 116.519 41.6994 114.415 41.6994C112.405 41.6994 110.734 41.2372 109.402 40.3129C108.093 39.3886 107.111 38.2111 106.456 36.7806L109.998 34.6679C110.394 35.7463 110.967 36.6045 111.716 37.2428C112.487 37.881 113.409 38.2001 114.485 38.2001C115.21 38.2001 115.841 38.0461 116.379 37.738C116.939 37.4078 117.22 36.9567 117.22 36.3845C117.22 35.8563 116.928 35.4382 116.343 35.13C115.759 34.7999 114.812 34.5139 113.504 34.2717C109.459 33.5235 107.438 31.8178 107.438 29.1549C107.438 27.6804 108.069 26.525 109.332 25.6886C110.594 24.8303 112.124 24.4012 113.924 24.4012C115.77 24.4012 117.243 24.7313 118.342 25.3915C119.464 26.0517 120.387 27.0971 121.112 28.5277L117.921 30.3103C117.126 28.3956 115.818 27.4382 113.995 27.4382C112.242 27.4382 111.365 27.9224 111.365 28.8908ZM136.751 34.7999L140.327 36.9787C138.644 40.1259 135.932 41.6994 132.193 41.6994C129.575 41.6994 127.389 40.9071 125.636 39.3226C123.906 37.716 123.042 35.6252 123.042 33.0503C123.042 30.4973 123.931 28.4176 125.707 26.811C127.482 25.2045 129.646 24.4012 132.193 24.4012C134.109 24.4012 135.757 24.7973 137.136 25.5896C138.539 26.3599 139.544 27.4493 140.152 28.8578L136.54 31.1026C135.629 29.2319 134.168 28.2966 132.158 28.2966C130.825 28.2966 129.716 28.7368 128.827 29.6171C127.962 30.4753 127.53 31.6197 127.53 33.0503C127.53 34.5028 127.962 35.6582 128.827 36.5165C129.692 37.3749 130.802 37.804 132.158 37.804C133.28 37.804 134.192 37.5619 134.892 37.0777C135.617 36.5716 136.237 35.8123 136.751 34.7999ZM159.254 34.0407H145.86C146 35.2951 146.502 36.2965 147.368 37.0447C148.232 37.771 149.319 38.1341 150.628 38.1341C152.778 38.1341 154.38 37.1328 155.432 35.13L158.728 36.9127C157.091 40.1038 154.368 41.6994 150.558 41.6994C148.08 41.6994 145.965 40.8961 144.212 39.2895C142.482 37.6609 141.618 35.5812 141.618 33.0503C141.618 30.4973 142.494 28.4176 144.247 26.811C146.023 25.2045 148.197 24.4012 150.769 24.4012C153.246 24.4012 155.28 25.1715 156.869 26.712C158.458 28.2306 159.254 30.1893 159.254 32.5881V34.0407ZM150.628 27.5703C149.483 27.5703 148.478 27.9004 147.613 28.5607C146.772 29.1989 146.187 30.0132 145.86 31.0036H155.187C154.976 29.9252 154.473 29.0888 153.679 28.4947C152.883 27.8784 151.867 27.5703 150.628 27.5703ZM178.474 30.0792V41.2372H174.056V31.7958C174.056 29.463 172.876 28.2966 170.515 28.2966C169.346 28.2966 168.376 28.7257 167.605 29.584C166.857 30.4424 166.483 31.5537 166.483 32.9182V41.2372H162.065V24.8633H166.483V27.5043C167.909 25.4356 169.872 24.4012 172.373 24.4012C174.22 24.4012 175.692 24.9183 176.791 25.9527C177.913 26.9871 178.474 28.3626 178.474 30.0792ZM179.958 28.2306V24.8633H182.658V20.4397H187.076V24.8633H190.862V28.2306H187.076V35.6912C187.076 37.2318 187.812 38.0021 189.285 38.0021C189.799 38.0021 190.289 37.9361 190.758 37.804L191.178 41.2372C190.289 41.5453 189.308 41.6994 188.233 41.6994C184.517 41.6994 182.658 39.9608 182.658 36.4835V28.2306H179.958Z" fill="white"/>
</g>
<defs>
<clipPath id="clip0_8012_88050">
<rect width="191" height="59" fill="white" transform="translate(0.820312 0.5)"/>
</clipPath>
</defs>
</svg>
