<svg width="141" height="46" viewBox="0 0 141 46" fill="none" xmlns="http://www.w3.org/2000/svg">
<path fill-rule="evenodd" clip-rule="evenodd" d="M19.5376 42.5374C30.328 42.5374 39.0753 33.7903 39.0753 23C39.0753 12.2096 30.328 3.46234 19.5376 3.46234C8.74728 3.46234 0 12.2096 0 23C0 33.7903 8.74728 42.5374 19.5376 42.5374ZM22.0544 16.0569L28.6319 12.2255V17.9065L28.6318 20.191C28.6318 22.2361 27.5449 24.1271 25.7778 25.1564L19.775 28.653V28.8942V34.5752L13.1976 30.7438C11.4305 29.7145 10.3435 27.8235 10.3435 25.7785V23.4004L10.3434 17.813L16.921 21.6443C17.9255 22.2295 18.7102 23.0931 19.2004 24.1051L19.2004 23.4004V21.0223C19.2004 18.9773 20.2873 17.0863 22.0544 16.0569Z" fill="white"/>
<path d="M47.2266 31.7619V13.7452H50.6793L58.2029 25.1987C58.6149 25.885 58.8724 26.3569 58.9758 26.6143V13.7452H62.2737V31.7619H58.8209L51.2978 20.2312C50.8853 19.5449 50.6278 19.073 50.5248 18.8157V31.7619H47.2266ZM76.6764 31.7619H73.3785C72.9661 31.2471 72.7601 30.5694 72.7601 29.7286C71.8672 31.3244 70.4412 32.1222 68.4833 32.1222C67.2122 32.1222 66.1731 31.7619 65.3655 31.0412C64.5756 30.3034 64.1801 29.3339 64.1801 28.1328C64.1801 26.9145 64.6012 25.9623 65.443 25.2759C66.3016 24.5724 67.4009 24.1177 68.7408 23.9118L72.5796 23.3198V22.8308C72.5796 21.5439 71.7984 20.9004 70.2352 20.9004C69.5138 20.9004 68.9468 21.0377 68.5348 21.3122C68.14 21.5867 67.9419 21.9299 67.9419 22.3418C67.9419 22.4447 67.9596 22.5477 67.9934 22.6506L65.082 23.6287C64.9275 23.2855 64.8501 22.9251 64.8501 22.5477C64.8501 21.501 65.3396 20.5916 66.3189 19.8194C67.2979 19.0302 68.6036 18.6355 70.2352 18.6355C72.0563 18.6355 73.4387 19.0216 74.3835 19.7937C75.3455 20.5658 75.8264 21.724 75.8264 23.2683V28.5961C75.8264 29.883 76.1095 30.9383 76.6764 31.7619ZM69.2562 29.4969C70.2352 29.4969 71.0337 29.1795 71.6522 28.5447C72.2706 27.8926 72.5796 26.9746 72.5796 25.7907V25.559L69.4878 26.0738C68.0626 26.314 67.3494 26.9403 67.3494 27.9527C67.3494 28.4503 67.5216 28.8363 67.8648 29.1109C68.2085 29.3683 68.6724 29.4969 69.2562 29.4969ZM81.2351 22.1359C81.2351 22.9251 82.24 23.5257 84.2499 23.9375C85.7443 24.2464 86.8263 24.7183 87.4962 25.3531C88.1831 25.9708 88.5267 26.8116 88.5267 27.8755C88.5267 29.1109 88.0714 30.1318 87.1612 30.9383C86.2507 31.7276 85.0228 32.1222 83.4769 32.1222C81.9994 32.1222 80.7716 31.7619 79.7926 31.0412C78.8305 30.3206 78.1091 29.4026 77.6282 28.2873L80.2306 26.64C80.5219 27.4808 80.943 28.15 81.493 28.6476C82.06 29.1452 82.7378 29.394 83.5284 29.394C84.0608 29.394 84.5243 29.2739 84.9198 29.0337C85.3319 28.7763 85.5383 28.4245 85.5383 27.9784C85.5383 27.5666 85.3232 27.2406 84.8939 27.0004C84.4642 26.743 83.7687 26.5199 82.807 26.3312C79.8351 25.7478 78.3497 24.4179 78.3497 22.3418C78.3497 21.1922 78.8132 20.2913 79.7411 19.6393C80.6686 18.9701 81.7934 18.6355 83.116 18.6355C84.4728 18.6355 85.5552 18.8929 86.3627 19.4076C87.1872 19.9224 87.8654 20.7374 88.3981 21.8528L86.0533 23.2426C85.4691 21.7498 84.5074 21.0034 83.1679 21.0034C81.8795 21.0034 81.2351 21.3808 81.2351 22.1359ZM99.8907 26.743L102.519 28.4417C101.282 30.8954 99.2891 32.1222 96.5409 32.1222C94.6176 32.1222 93.0111 31.5045 91.7227 30.2691C90.4516 29.0165 89.8163 27.3864 89.8163 25.3789C89.8163 23.3884 90.4693 21.7669 91.7746 20.5144C93.0795 19.2618 94.6691 18.6355 96.5409 18.6355C97.9492 18.6355 99.1602 18.9443 100.174 19.562C101.205 20.1626 101.943 21.012 102.39 22.1101L99.7358 23.8603C99.0662 22.4018 97.9925 21.6726 96.5154 21.6726C95.536 21.6726 94.7206 22.0158 94.0675 22.7021C93.4322 23.3713 93.1141 24.2635 93.1141 25.3789C93.1141 26.5113 93.4322 27.4122 94.0675 28.0814C94.7029 28.7506 95.5191 29.0851 96.5154 29.0851C97.3398 29.0851 98.0098 28.8964 98.5248 28.5189C99.0572 28.1242 99.5128 27.5323 99.8907 26.743ZM116.427 26.151H106.585C106.688 27.129 107.056 27.9098 107.693 28.4932C108.328 29.0594 109.126 29.3425 110.089 29.3425C111.669 29.3425 112.845 28.5618 113.618 27.0004L116.041 28.3902C114.838 30.8782 112.837 32.1222 110.037 32.1222C108.216 32.1222 106.662 31.4959 105.374 30.2434C104.102 28.9736 103.467 27.3521 103.467 25.3789C103.467 23.3884 104.111 21.7669 105.399 20.5144C106.705 19.2618 108.302 18.6355 110.192 18.6355C112.012 18.6355 113.507 19.2361 114.675 20.4371C115.842 21.6211 116.427 23.1482 116.427 25.0185V26.151ZM110.089 21.1063C109.247 21.1063 108.508 21.3637 107.873 21.8785C107.255 22.3761 106.825 23.0109 106.585 23.7831H113.438C113.284 22.9423 112.914 22.2903 112.33 21.827C111.746 21.3466 110.999 21.1063 110.089 21.1063ZM130.551 23.0624V31.7619H127.305V24.4008C127.305 22.582 126.438 21.6726 124.703 21.6726C123.844 21.6726 123.131 22.0072 122.564 22.6764C122.014 23.3456 121.739 24.212 121.739 25.2759V31.7619H118.493V18.9958H121.739V21.0549C122.787 19.442 124.23 18.6355 126.068 18.6355C127.425 18.6355 128.507 19.0387 129.315 19.8452C130.139 20.6516 130.551 21.724 130.551 23.0624ZM131.642 21.6211V18.9958H133.626V15.5469H136.873V18.9958H139.655V21.6211H136.873V27.4379C136.873 28.639 137.414 29.2396 138.496 29.2396C138.874 29.2396 139.234 29.1881 139.578 29.0851L139.887 31.7619C139.234 32.0021 138.513 32.1222 137.723 32.1222C134.992 32.1222 133.626 30.7667 133.626 28.0556V21.6211H131.642Z" fill="white"/>
</svg>
