<svg width="211" height="33" viewBox="0 0 211 33" fill="none" xmlns="http://www.w3.org/2000/svg">
<path d="M29.6466 32.8224V24.3071H20.3833C17.8641 24.3071 15.5307 25.6309 14.2404 27.7922L11.2373 32.8224H29.6466Z" fill="white"/>
<path d="M0.164062 0.109619V8.62492H24.5629L29.6467 0.109619H0.164062Z" fill="white"/>
<path d="M11.8416 13.4178L0.191406 32.8224H10.1171L24.0486 9.60748H18.5676C15.8107 9.60748 13.2566 11.0544 11.8416 13.4178Z" fill="white"/>
<path d="M50.7643 24.6515C45.7732 24.6515 42.1006 21.0198 42.1006 16.1462C42.1006 11.3195 45.7968 7.64092 50.7878 7.64092C55.7789 7.64092 59.4751 11.3664 59.4751 16.1462C59.4751 20.9729 55.7553 24.6515 50.7643 24.6515ZM50.7878 21.6758C53.9426 21.6758 56.2027 19.3328 56.2027 16.1462C56.2027 13.0065 53.9426 10.6166 50.7878 10.6166C47.6096 10.6166 45.3495 13.0065 45.3495 16.1462C45.3495 19.3328 47.6096 21.6758 50.7878 21.6758ZM62.8173 29.736V12.0224H65.8307V13.5923H65.9956C66.3251 13.0768 67.4552 11.7178 69.7153 11.7178C73.1761 11.7178 75.5539 14.2952 75.5539 18.1378C75.5539 21.9804 73.1996 24.6515 69.8095 24.6515C67.62 24.6515 66.4429 23.4331 66.0426 22.7536H65.8778V29.736H62.8173ZM69.1267 21.8867C71.1043 21.8867 72.4462 20.3637 72.4462 18.1847C72.4462 15.9353 71.1043 14.4826 69.1032 14.4826C67.0785 14.4826 65.8072 16.0994 65.8072 18.1847C65.8072 20.4809 67.2198 21.8867 69.1267 21.8867ZM84.3109 24.6515C80.6618 24.6515 78.0721 21.9336 78.0721 18.255C78.0721 14.3655 80.6853 11.7178 84.3109 11.7178C88.2896 11.7178 90.4555 14.6467 90.4555 18.1144V19.075H81.0385C81.1326 20.9495 82.4275 22.2147 84.4051 22.2147C85.9118 22.2147 87.0654 21.5118 87.4892 20.5043H90.3378C89.7257 23.0114 87.5127 24.6515 84.3109 24.6515ZM81.0855 16.9194H87.5362C87.395 15.2559 86.1001 14.1546 84.3109 14.1546C82.5923 14.1546 81.2739 15.373 81.0855 16.9194ZM93.7506 24.3469V12.0224H96.6699V13.522H96.8347C97.3291 12.6082 98.5533 11.7178 100.319 11.7178C103.097 11.7178 104.792 13.6626 104.792 16.2868V24.3469H101.732V17.0834C101.732 15.5839 100.766 14.5764 99.3538 14.5764C97.8706 14.5764 96.8112 15.7479 96.8112 17.2943V24.3469H93.7506ZM107.828 24.3469V21.5587L116.398 10.804V10.64H108.134V7.94552H120.306V10.7103L111.736 21.465V21.6524H120.353V24.3469H107.828ZM128.639 24.6515C124.99 24.6515 122.4 21.9336 122.4 18.255C122.4 14.3655 125.014 11.7178 128.639 11.7178C132.618 11.7178 134.784 14.6467 134.784 18.1144V19.075H125.367C125.461 20.9495 126.756 22.2147 128.733 22.2147C130.24 22.2147 131.394 21.5118 131.817 20.5043H134.666C134.054 23.0114 131.841 24.6515 128.639 24.6515ZM125.414 16.9194H131.865C131.723 15.2559 130.428 14.1546 128.639 14.1546C126.921 14.1546 125.602 15.373 125.414 16.9194ZM138.079 29.736V12.0224H141.092V13.5923H141.257C141.587 13.0768 142.717 11.7178 144.977 11.7178C148.438 11.7178 150.816 14.2952 150.816 18.1378C150.816 21.9804 148.461 24.6515 145.071 24.6515C142.882 24.6515 141.705 23.4331 141.304 22.7536H141.139V29.736H138.079ZM144.388 21.8867C146.366 21.8867 147.708 20.3637 147.708 18.1847C147.708 15.9353 146.366 14.4826 144.365 14.4826C142.34 14.4826 141.069 16.0994 141.069 18.1847C141.069 20.4809 142.481 21.8867 144.388 21.8867ZM154.111 29.736V12.0224H157.124V13.5923H157.289C157.618 13.0768 158.749 11.7178 161.009 11.7178C164.469 11.7178 166.847 14.2952 166.847 18.1378C166.847 21.9804 164.493 24.6515 161.103 24.6515C158.913 24.6515 157.736 23.4331 157.336 22.7536H157.171V29.736H154.111ZM160.42 21.8867C162.398 21.8867 163.74 20.3637 163.74 18.1847C163.74 15.9353 162.398 14.4826 160.397 14.4826C158.372 14.4826 157.101 16.0994 157.101 18.1847C157.101 20.4809 158.513 21.8867 160.42 21.8867ZM175.604 24.6515C171.955 24.6515 169.365 21.9336 169.365 18.255C169.365 14.3655 171.979 11.7178 175.604 11.7178C179.583 11.7178 181.749 14.6467 181.749 18.1144V19.075H172.332C172.426 20.9495 173.721 22.2147 175.698 22.2147C177.205 22.2147 178.359 21.5118 178.783 20.5043H181.631C181.019 23.0114 178.806 24.6515 175.604 24.6515ZM172.379 16.9194H178.83C178.688 15.2559 177.393 14.1546 175.604 14.1546C173.886 14.1546 172.567 15.373 172.379 16.9194ZM188.057 24.3469C185.892 24.3469 184.667 23.0582 184.667 20.8792V6.77399H187.728V20.598C187.728 21.301 188.081 21.6758 188.717 21.6758H189.211V24.3469H188.057ZM193.683 10.3823C192.577 10.3823 191.8 9.70281 191.8 8.60157C191.8 7.5472 192.577 6.84428 193.683 6.84428C194.79 6.84428 195.567 7.5472 195.567 8.60157C195.567 9.70281 194.79 10.3823 193.683 10.3823ZM192.153 24.3469V12.0224H195.214V24.3469H192.153ZM198.932 24.3469V12.0224H201.852V13.522H202.017C202.511 12.6082 203.735 11.7178 205.501 11.7178C208.279 11.7178 209.974 13.6626 209.974 16.2868V24.3469H206.913V17.0834C206.913 15.5839 205.948 14.5764 204.536 14.5764C203.052 14.5764 201.993 15.7479 201.993 17.2943V24.3469H198.932Z" fill="white"/>
</svg>
