<svg width="244" height="137" viewBox="0 0 244 137" fill="none" xmlns="http://www.w3.org/2000/svg">
<path d="M42.974 118.045L33.3384 136.26H36.4689L38.5831 132.153H51.0647L53.1789 136.26H56.3095L46.6738 118.045H42.974ZM39.9654 129.592L44.8442 120.404L44.9256 120.566L49.6824 129.592H39.9654Z" fill="white"/>
<path d="M73.1416 118.045V136.26H75.9876V121.054L76.1502 121.217L90.1361 136.26H93.8359V118.045H90.9493V133.292L90.7866 133.129L76.7601 118.045H73.1416Z" fill="white"/>
<path d="M119.368 123.697H113.636V126.258H119.368V136.26H122.255V126.258H127.988V123.697H122.255V120.607H131.037V118.045H110.586V120.607H119.368V123.697Z" fill="white"/>
<path d="M150.674 128.454H161.448V125.892H150.674V120.607H166.896V118.045H147.828V136.26H166.896V133.698H150.674V128.454Z" fill="white"/>
<path d="M234.305 118.045H230.565L220.929 136.26H224.06L226.174 132.153H238.656L238.696 132.194L240.77 136.26H243.9L234.305 118.045ZM227.597 129.592L232.476 120.404L232.557 120.566L237.314 129.592H227.597Z" fill="white"/>
<path d="M14.921 118.046H0V136.26H2.88663V129.226H14.921C18.011 129.226 20.5317 126.705 20.5317 123.616C20.491 120.566 18.011 118.046 14.921 118.046ZM14.921 126.665H2.88663V120.607H14.921C16.588 120.607 17.9296 121.949 17.9296 123.616C17.9296 125.323 16.588 126.665 14.921 126.665Z" fill="white"/>
<path d="M200.032 129.145C202.715 128.657 204.666 126.339 204.666 123.615C204.666 120.526 202.146 118.045 199.056 118.045H184.135V136.26H187.021V129.226H196.454L196.494 129.267L201.455 136.26H204.788L199.95 129.145H200.032ZM187.062 126.665V120.607H199.096C200.763 120.607 202.105 121.949 202.105 123.615C202.105 125.282 200.763 126.665 199.096 126.665H187.062Z" fill="white"/>
<path fill-rule="evenodd" clip-rule="evenodd" d="M165.06 0H78.4277V88.4659H165.06V0ZM156.351 8.70907H87.1369V79.7568H156.351V8.70907Z" fill="white"/>
<rect x="105.013" y="21.0851" width="6.41722" height="31.1693" fill="white"/>
<rect x="118.764" y="21.0851" width="6.41722" height="44.4621" fill="white"/>
<rect x="132.516" y="21.0851" width="6.41722" height="31.1693" fill="white"/>
</svg>
