<svg width="160" height="90" viewBox="0 0 160 90" fill="none" xmlns="http://www.w3.org/2000/svg">
<path d="M28.1072 77.6484L21.8047 89.5621H23.8523L25.2352 86.8762H33.3992L34.782 89.5621H36.8297L30.5272 77.6484H28.1072ZM26.1393 85.2008L29.3305 79.1908L29.3837 79.2972L32.495 85.2008H26.1393Z" fill="white"/>
<path d="M47.8359 77.6484V89.5621H49.6974V79.6163L49.8038 79.7227L58.9518 89.5621H61.3717V77.6484H59.4836V87.6208L59.3773 87.5144L50.2027 77.6484H47.8359Z" fill="white"/>
<path d="M78.0722 81.3449H74.3226V83.0202H78.0722V89.5621H79.9603V83.0202H83.7099V81.3449H79.9603V79.3238H85.7043V77.6484H72.3281V79.3238H78.0722V81.3449Z" fill="white"/>
<path d="M98.549 84.4562H105.596V82.7809H98.549V79.3238H109.16V77.6484H96.6875V89.5621H109.16V87.8867H98.549V84.4562Z" fill="white"/>
<path d="M153.249 77.6484H150.803L144.5 89.5621H146.548L147.93 86.8762H156.094L156.121 86.9028L157.477 89.5621H159.525L153.249 77.6484ZM148.861 85.2008L152.052 79.1908L152.106 79.2972L155.217 85.2008H148.861Z" fill="white"/>
<path d="M9.75959 77.6484H0V89.5621H1.8881V84.9615H9.75959C11.7807 84.9615 13.4294 83.3127 13.4294 81.2917C13.4028 79.2972 11.7807 77.6484 9.75959 77.6484ZM9.75959 83.2861H1.8881V79.3238H9.75959C10.8499 79.3238 11.7275 80.2014 11.7275 81.2917C11.7275 82.4086 10.8499 83.2861 9.75959 83.2861Z" fill="white"/>
<path d="M130.835 84.9083C132.59 84.5892 133.867 83.0734 133.867 81.2917C133.867 79.2706 132.218 77.6484 130.197 77.6484H120.438V89.5621H122.326V84.9615H128.495L128.522 84.9881L131.766 89.5621H133.947L130.782 84.9083H130.835ZM122.352 83.2861V79.3238H130.224C131.314 79.3238 132.192 80.2014 132.192 81.2917C132.192 82.382 131.314 83.2861 130.224 83.2861H122.352Z" fill="white"/>
<path fill-rule="evenodd" clip-rule="evenodd" d="M107.954 0.4375H51.2891V58.3015H107.954V0.4375ZM102.259 6.13389H56.9867V52.605H102.259V6.13389Z" fill="white"/>
<rect x="68.6797" y="14.2305" width="4.19739" height="20.3873" fill="white"/>
<rect x="77.6719" y="14.2305" width="4.19739" height="29.0819" fill="white"/>
<rect x="86.6641" y="14.2305" width="4.19739" height="20.3873" fill="white"/>
</svg>
