<svg width="178" height="48" viewBox="0 0 178 48" fill="none" xmlns="http://www.w3.org/2000/svg">
<path fill-rule="evenodd" clip-rule="evenodd" d="M10.4053 26.0317C12.9326 20.2633 15.4717 14.4999 17.97 8.71916C18.2459 8.08081 18.5613 7.84631 19.2644 7.85452C22.4394 7.8933 25.6154 7.8834 28.7907 7.86109C29.3862 7.85695 29.7706 7.94458 30.0394 8.5773C34.4367 18.9318 38.8621 29.2743 43.2765 39.6215C43.3257 39.7371 43.3116 39.8794 43.3411 40.1269C41.462 40.1269 39.6186 40.0867 37.7779 40.1446C36.9175 40.1716 36.8643 39.5287 36.6536 39.0346C33.1791 30.8787 29.6931 22.7276 26.2914 14.5417C25.8463 13.4708 25.3211 13.0915 24.2098 13.1901C23.0831 13.2901 22.028 12.9674 21.436 14.5659C20.0004 18.4427 18.2829 22.2161 16.6789 26.0313C14.5878 26.0314 12.4965 26.0316 10.4053 26.0317Z" fill="white"/>
<path fill-rule="evenodd" clip-rule="evenodd" d="M11.9975 31.6371C10.4987 31.6374 9.08685 31.6378 7.88021 31.6378C6.64975 34.4303 5.4184 37.224 4.13867 40.1278C6.19972 40.1278 8.02578 40.0982 9.8499 40.1446C10.4549 40.16 10.7495 39.9538 10.967 39.4333C12.054 36.8291 13.1645 34.2341 14.2672 31.6364C13.5061 31.6366 12.7448 31.6369 11.9975 31.6371Z" fill="white"/>
<path fill-rule="evenodd" clip-rule="evenodd" d="M75.6943 17.184C76.9132 14.3387 78.1379 11.496 79.3428 8.64466C79.4759 8.3298 79.628 8.21413 79.9671 8.21818C81.4984 8.23731 83.0302 8.23243 84.5616 8.22142C84.8488 8.21938 85.0342 8.2626 85.1638 8.57469C87.2847 13.682 89.419 18.7833 91.5481 23.887C91.5718 23.944 91.565 24.0142 91.5793 24.1363C90.673 24.1363 89.7839 24.1165 88.8961 24.145C88.4812 24.1584 88.4555 23.8413 88.3539 23.5975C86.6782 19.5747 84.9968 15.5542 83.3562 11.5166C83.1415 10.9884 82.8883 10.8013 82.3522 10.8499C81.8088 10.8993 81.3 10.7401 81.0145 11.5285C80.322 13.4407 79.4937 15.302 78.7201 17.1837C77.7116 17.1838 76.7029 17.1839 75.6943 17.184Z" fill="white"/>
<path fill-rule="evenodd" clip-rule="evenodd" d="M123.131 17.184C124.35 14.3387 125.574 11.496 126.779 8.64466C126.912 8.3298 127.064 8.21413 127.404 8.21818C128.935 8.23731 130.467 8.23243 131.998 8.22142C132.285 8.21938 132.471 8.2626 132.6 8.57469C134.721 13.682 136.856 18.7833 138.985 23.887C139.008 23.944 139.002 24.0142 139.016 24.1363C138.11 24.1363 137.22 24.1165 136.333 24.145C135.918 24.1584 135.892 23.8413 135.79 23.5975C134.115 19.5747 132.433 15.5542 130.793 11.5166C130.578 10.9884 130.325 10.8013 129.789 10.8499C129.245 10.8993 128.737 10.7401 128.451 11.5285C127.759 13.4407 126.93 15.302 126.157 17.1837C125.148 17.1838 124.139 17.1839 123.131 17.184Z" fill="white"/>
<path fill-rule="evenodd" clip-rule="evenodd" d="M62.2699 16.7767C63.1001 16.7767 63.6747 16.6999 63.9941 16.5463C64.3129 16.3926 64.4727 16.111 64.4727 15.7015V11.2727C64.4727 10.863 64.3129 10.5816 63.9941 10.4279C63.6747 10.2743 63.1001 10.1975 62.2699 10.1975H57.6093V16.7767H62.2699ZM57.6093 24.0727H54.417V8.07269H62.2382C63.6637 8.07269 64.7759 8.24344 65.5739 8.58478C66.3719 8.92633 66.9467 9.48516 67.2981 10.2614C67.6491 11.0384 67.8245 12.109 67.8245 13.4744C67.8245 15.386 67.4303 16.7511 66.6434 17.5703C65.856 18.3896 64.5471 18.7991 62.7169 18.7991H57.6093V24.0727Z" fill="white"/>
<path fill-rule="evenodd" clip-rule="evenodd" d="M101.397 16.3926H106.209C107.038 16.3926 107.611 16.3158 107.93 16.1622C108.249 16.0086 108.408 15.7271 108.408 15.3174V11.2727C108.408 10.863 108.249 10.5816 107.93 10.4279C107.611 10.2743 107.038 10.1975 106.209 10.1975H101.397V16.3926ZM109.237 24.0727L105.922 18.415H101.397V24.0727H98.21V8.07269H106.177C107.6 8.07269 108.711 8.24344 109.508 8.58478C110.304 8.92633 110.878 9.48516 111.229 10.2614C111.579 11.0384 111.754 12.1089 111.754 13.4743C111.754 14.7888 111.547 15.8166 111.133 16.559C110.719 17.3015 110.044 17.8178 109.109 18.1078L112.71 24.0727H109.237Z" fill="white"/>
<path fill-rule="evenodd" clip-rule="evenodd" d="M150.078 24.0727H146.885V8.07269H157.742L157.391 10.1975H150.078V15.3943H156.465V17.4167H150.078V24.0727Z" fill="white"/>
<mask id="mask0" mask-type="alpha" maskUnits="userSpaceOnUse" x="43" y="0" width="135" height="48">
<path d="M43.1221 48H177.124V0H43.1221V48Z" fill="white"/>
</mask>
<g mask="url(#mask0)">
<path fill-rule="evenodd" clip-rule="evenodd" d="M166.195 24.0727H169.329V8.07269H166.195V24.0727Z" fill="white"/>
<path fill-rule="evenodd" clip-rule="evenodd" d="M74.4373 19.8552C73.8442 21.2395 73.2506 22.6244 72.6338 24.0639C73.6272 24.0639 74.5074 24.0492 75.3867 24.0722C75.6783 24.0799 75.8203 23.9776 75.9252 23.7196C76.4491 22.4286 76.9844 21.1422 77.5159 19.8544C77.149 19.8546 76.7821 19.8547 76.4219 19.8548C75.6994 19.8549 75.0189 19.8552 74.4373 19.8552Z" fill="white"/>
<path fill-rule="evenodd" clip-rule="evenodd" d="M123.946 19.8548C123.219 19.8549 122.534 19.8552 121.95 19.8552C121.355 21.2395 120.761 22.6244 120.143 24.064C121.135 24.064 122.014 24.0493 122.892 24.0722C123.184 24.0798 123.326 23.978 123.43 23.7207C123.956 22.4293 124.492 21.1426 125.025 19.8544C124.663 19.8546 124.301 19.8546 123.946 19.8548Z" fill="white"/>
<path fill-rule="evenodd" clip-rule="evenodd" d="M63.1611 37.7427V35.3481C63.1611 34.585 63.3316 34.0301 63.6723 33.6835C64.0132 33.3368 64.5552 33.1636 65.2987 33.1636H66.5481C67.1814 33.1636 67.653 33.2984 67.9628 33.568C68.2725 33.8375 68.4445 34.27 68.479 34.8651C68.4928 35.0471 68.4032 35.138 68.2106 35.138C68.0454 35.138 67.9558 35.0471 67.9421 34.8651C67.9146 34.4381 67.7975 34.1388 67.591 33.9671C67.3845 33.7956 67.0368 33.7097 66.5481 33.7097H65.2987C64.8994 33.7097 64.5844 33.7623 64.3538 33.8673C64.1231 33.9723 63.9563 34.1421 63.8531 34.3767C63.7498 34.6113 63.6982 34.9351 63.6982 35.3481V37.7427C63.6982 38.156 63.7498 38.4797 63.8531 38.7142C63.9563 38.9488 64.1231 39.1185 64.3538 39.2236C64.5844 39.3285 64.9027 39.3812 65.3091 39.3812H66.5481C67.0368 39.3812 67.3845 39.2971 67.591 39.1291C67.7975 38.961 67.9146 38.6601 67.9421 38.226C67.9558 38.0438 68.0454 37.9528 68.2106 37.9528C68.4032 37.9528 68.4928 38.0473 68.479 38.2364C68.4445 38.8316 68.2725 39.2621 67.9628 39.5282C67.653 39.7943 67.1814 39.9272 66.5481 39.9272H65.3091C64.5655 39.9272 64.0216 39.7524 63.6775 39.4021C63.3332 39.0521 63.1611 38.4989 63.1611 37.7427Z" fill="white"/>
<path fill-rule="evenodd" clip-rule="evenodd" d="M81.2714 37.5537H84.1804L82.7259 34.0248L81.2714 37.5537ZM85.6042 39.6752C85.6042 39.7663 85.5461 39.8398 85.43 39.8957C85.3891 39.9167 85.3445 39.9272 85.2968 39.9272C85.2011 39.9272 85.133 39.8712 85.092 39.7592L84.4058 38.0998H84.375H81.0563L80.3701 39.7592C80.3222 39.8712 80.2472 39.9272 80.1447 39.9272C80.1104 39.9272 80.0661 39.9167 80.0116 39.8957C79.9023 39.8537 79.8477 39.7767 79.8477 39.6647C79.8477 39.6087 79.8544 39.5667 79.8681 39.5387L82.4084 33.3736C82.463 33.2336 82.5653 33.1636 82.7156 33.1636H82.7361C82.8727 33.1636 82.9718 33.2336 83.0331 33.3736L85.5734 39.5387C85.5939 39.5876 85.6042 39.6332 85.6042 39.6752Z" fill="white"/>
<path fill-rule="evenodd" clip-rule="evenodd" d="M101.028 34.9805C101.028 34.5395 100.931 34.2175 100.736 34.0143C100.541 33.8113 100.224 33.7097 99.7861 33.7097H97.651V36.5664H99.7861C100.224 36.5664 100.541 36.4667 100.736 36.2671C100.931 36.0676 101.028 35.7438 101.028 35.2956V34.9805ZM101.11 33.6256C101.411 33.9339 101.562 34.3856 101.562 34.9805V35.2956C101.562 35.8908 101.413 36.3424 101.116 36.6504C100.818 36.9587 100.375 37.1125 99.7861 37.1125H97.651V39.6541C97.651 39.8363 97.5619 39.9272 97.384 39.9272C97.206 39.9272 97.1172 39.8363 97.1172 39.6541V33.4367C97.1172 33.2546 97.206 33.1636 97.384 33.1636H99.7861C100.368 33.1636 100.809 33.3176 101.11 33.6256Z" fill="white"/>
<path fill-rule="evenodd" clip-rule="evenodd" d="M113.216 39.8537C113.17 39.8048 113.147 39.7381 113.147 39.6541V33.4367C113.147 33.3527 113.17 33.2862 113.216 33.2371C113.262 33.1883 113.324 33.1636 113.402 33.1636C113.481 33.1636 113.543 33.1883 113.589 33.2371C113.635 33.2862 113.658 33.3527 113.658 33.4367V39.6541C113.658 39.7381 113.635 39.8048 113.589 39.8537C113.543 39.9028 113.481 39.9272 113.402 39.9272C113.324 39.9272 113.262 39.9028 113.216 39.8537Z" fill="white"/>
<path fill-rule="evenodd" clip-rule="evenodd" d="M127.858 39.8486C127.806 39.7961 127.781 39.7316 127.781 39.6546V33.7088H125.584C125.509 33.7088 125.445 33.6827 125.394 33.6303C125.342 33.5777 125.316 33.5132 125.316 33.4362C125.316 33.3523 125.342 33.286 125.394 33.2369C125.445 33.1882 125.509 33.1636 125.584 33.1636H130.513C130.596 33.1636 130.661 33.1882 130.709 33.2369C130.757 33.286 130.781 33.3523 130.781 33.4362C130.781 33.5132 130.757 33.5777 130.709 33.6303C130.661 33.6827 130.596 33.7088 130.513 33.7088H128.317V39.6546C128.317 39.7316 128.293 39.7961 128.245 39.8486C128.197 39.9011 128.131 39.9272 128.049 39.9272C127.973 39.9272 127.91 39.9011 127.858 39.8486Z" fill="white"/>
<path fill-rule="evenodd" clip-rule="evenodd" d="M141.532 37.5537H144.441L142.987 34.0248L141.532 37.5537ZM145.865 39.6752C145.865 39.7663 145.807 39.8398 145.691 39.8957C145.65 39.9167 145.605 39.9272 145.558 39.9272C145.462 39.9272 145.394 39.8712 145.353 39.7592L144.666 38.0998H144.636H141.317L140.631 39.7592C140.583 39.8712 140.508 39.9272 140.405 39.9272C140.371 39.9272 140.327 39.9167 140.272 39.8957C140.163 39.8537 140.108 39.7767 140.108 39.6647C140.108 39.6087 140.115 39.5667 140.129 39.5387L142.669 33.3736C142.724 33.2336 142.826 33.1636 142.976 33.1636H142.997C143.133 33.1636 143.232 33.2336 143.294 33.3736L145.834 39.5387C145.855 39.5876 145.865 39.6332 145.865 39.6752Z" fill="white"/>
<path fill-rule="evenodd" clip-rule="evenodd" d="M157.451 39.6541V33.4367C157.451 33.2546 157.54 33.1636 157.718 33.1636C157.896 33.1636 157.985 33.2546 157.985 33.4367V39.3812H161.119C161.297 39.3812 161.386 39.4722 161.386 39.6541C161.386 39.8363 161.297 39.9272 161.119 39.9272H157.718C157.54 39.9272 157.451 39.8363 157.451 39.6541Z" fill="white"/>
</g>
</svg>
