<svg width="196" height="50" viewBox="0 0 196 50" fill="none" xmlns="http://www.w3.org/2000/svg">
<path fill-rule="evenodd" clip-rule="evenodd" d="M11.9219 27.1164C14.7051 21.1077 17.5014 15.1041 20.2528 9.08253C20.5566 8.41758 20.9039 8.17331 21.6783 8.18186C25.1748 8.22226 28.6725 8.21194 32.1694 8.1887C32.8251 8.18439 33.2485 8.27567 33.5445 8.93476C38.3872 19.7207 43.2608 30.4941 48.1223 41.2725C48.1765 41.3928 48.1609 41.5411 48.1935 41.7989C46.1241 41.7989 44.0939 41.757 42.0668 41.8174C41.1192 41.8455 41.0607 41.1758 40.8287 40.6611C37.0023 32.1654 33.1631 23.6746 29.4169 15.1477C28.9268 14.0322 28.3484 13.6371 27.1245 13.7397C25.8837 13.8439 24.7218 13.5078 24.0698 15.1729C22.4888 19.2112 20.5973 23.1419 18.8309 27.116C16.528 27.1161 14.2249 27.1163 11.9219 27.1164Z" fill="white"/>
<path fill-rule="evenodd" clip-rule="evenodd" d="M13.6782 32.9558C12.0276 32.9561 10.4728 32.9566 9.14392 32.9566C7.78884 35.8655 6.43278 38.7756 5.02344 41.8003C7.29322 41.8003 9.30423 41.7695 11.3131 41.8179C11.9794 41.8339 12.3038 41.6191 12.5433 41.0769C13.7404 38.3642 14.9634 35.6611 16.1777 32.9551C15.3396 32.9554 14.5012 32.9557 13.6782 32.9558Z" fill="white"/>
<path fill-rule="evenodd" clip-rule="evenodd" d="M83.8281 17.9C85.1705 14.9362 86.5191 11.975 87.8461 9.0049C87.9926 8.67692 88.1602 8.55644 88.5336 8.56065C90.22 8.58058 91.907 8.57549 93.5935 8.56403C93.9098 8.5619 94.114 8.60693 94.2567 8.93202C96.5923 14.2521 98.9429 19.566 101.288 24.8824C101.314 24.9417 101.306 25.0149 101.322 25.142C100.324 25.142 99.3447 25.1214 98.367 25.1511C97.91 25.165 97.8817 24.8347 97.7699 24.5808C95.9244 20.3904 94.0728 16.2023 92.266 11.9965C92.0296 11.4463 91.7506 11.2514 91.1603 11.302C90.5619 11.3534 90.0015 11.1876 89.6871 12.0089C88.9245 14.0008 88.0123 15.9396 87.1603 17.8998C86.0497 17.8999 84.9389 17.8999 83.8281 17.9Z" fill="white"/>
<path fill-rule="evenodd" clip-rule="evenodd" d="M136.07 17.9C137.413 14.9362 138.761 11.975 140.088 9.0049C140.235 8.67692 140.402 8.55644 140.776 8.56065C142.462 8.58058 144.149 8.57549 145.836 8.56403C146.152 8.5619 146.356 8.60693 146.499 8.93202C148.835 14.2521 151.185 19.566 153.53 24.8824C153.556 24.9417 153.548 25.0149 153.564 25.142C152.566 25.142 151.587 25.1214 150.609 25.1511C150.152 25.165 150.124 24.8347 150.012 24.5808C148.167 20.3904 146.315 16.2023 144.508 11.9965C144.272 11.4463 143.993 11.2514 143.403 11.302C142.804 11.3534 142.244 11.1876 141.929 12.0089C141.167 14.0008 140.254 15.9396 139.403 17.8998C138.292 17.8999 137.181 17.8999 136.07 17.9Z" fill="white"/>
<path fill-rule="evenodd" clip-rule="evenodd" d="M69.0389 17.4749C69.9531 17.4749 70.586 17.3949 70.9377 17.2348C71.2888 17.0748 71.4648 16.7814 71.4648 16.3549V11.7415C71.4648 11.3147 71.2888 11.0216 70.9377 10.8616C70.586 10.7015 69.9531 10.6215 69.0389 10.6215H63.9062V17.4749H69.0389ZM63.9062 25.0749H60.3906V8.4082H69.004C70.5739 8.4082 71.7987 8.58606 72.6775 8.94162C73.5564 9.29741 74.1893 9.87952 74.5763 10.6881C74.9629 11.4975 75.1561 12.6127 75.1561 14.0349C75.1561 16.0262 74.722 17.4482 73.8553 18.3015C72.9882 19.155 71.5467 19.5816 69.5312 19.5816H63.9062V25.0749Z" fill="white"/>
<path fill-rule="evenodd" clip-rule="evenodd" d="M112.135 17.0768H117.434C118.347 17.0768 118.979 16.9967 119.33 16.8367C119.68 16.6767 119.856 16.3835 119.856 15.9568V11.7435C119.856 11.3167 119.68 11.0236 119.33 10.8635C118.979 10.7035 118.347 10.6235 117.434 10.6235H112.135V17.0768ZM120.769 25.0768L117.118 19.1834H112.135V25.0768H108.625V8.41016H117.399C118.967 8.41016 120.189 8.58801 121.067 8.94358C121.944 9.29937 122.576 9.88148 122.962 10.6901C123.348 11.4994 123.541 12.6146 123.541 14.0368C123.541 15.4061 123.313 16.4767 122.857 17.2501C122.401 18.0235 121.658 18.5614 120.628 18.8634L124.594 25.0768H120.769Z" fill="white"/>
<path fill-rule="evenodd" clip-rule="evenodd" d="M165.743 25.0749H162.227V8.4082H174.183L173.796 10.6216H165.743V16.0349H172.777V18.1415H165.743V25.0749Z" fill="white"/>
<mask id="mask0_8012_88018" style="mask-type:alpha" maskUnits="userSpaceOnUse" x="47" y="0" width="149" height="50">
<path d="M47.9531 50H195.527V0H47.9531V50Z" fill="white"/>
</mask>
<g mask="url(#mask0_8012_88018)">
<path fill-rule="evenodd" clip-rule="evenodd" d="M183.492 25.0768H186.943V8.41016H183.492V25.0768Z" fill="white"/>
<path fill-rule="evenodd" clip-rule="evenodd" d="M82.4393 20.6824C81.7861 22.1244 81.1325 23.567 80.4531 25.0665C81.5472 25.0665 82.5165 25.0512 83.4849 25.0752C83.806 25.0831 83.9624 24.9766 84.0778 24.7079C84.6548 23.3631 85.2443 22.0231 85.8297 20.6816C85.4257 20.6818 85.0216 20.6819 84.6249 20.682C83.8292 20.6822 83.0798 20.6824 82.4393 20.6824Z" fill="white"/>
<path fill-rule="evenodd" clip-rule="evenodd" d="M136.962 20.682C136.161 20.6822 135.407 20.6824 134.764 20.6824C134.109 22.1244 133.454 23.567 132.773 25.0666C133.866 25.0666 134.835 25.0513 135.802 25.0752C136.123 25.0831 136.279 24.977 136.394 24.709C136.973 23.3638 137.563 22.0235 138.15 20.6816C137.752 20.6818 137.353 20.6819 136.962 20.682Z" fill="white"/>
<path fill-rule="evenodd" clip-rule="evenodd" d="M70.0234 39.3149V36.8205C70.0234 36.0256 70.2112 35.4476 70.5864 35.0866C70.9618 34.7254 71.5587 34.5449 72.3775 34.5449H73.7534C74.4509 34.5449 74.9703 34.6854 75.3114 34.9662C75.6525 35.247 75.8419 35.6974 75.8799 36.3173C75.895 36.5069 75.7965 36.6016 75.5843 36.6016C75.4024 36.6016 75.3037 36.5069 75.2886 36.3173C75.2583 35.8725 75.1294 35.5607 74.9019 35.3819C74.6746 35.2032 74.2917 35.1138 73.7534 35.1138H72.3775C71.9377 35.1138 71.5909 35.1686 71.3369 35.2779C71.0829 35.3874 70.8991 35.5642 70.7854 35.8086C70.6717 36.053 70.6149 36.3903 70.6149 36.8205V39.3149C70.6149 39.7454 70.6717 40.0825 70.7854 40.3268C70.8991 40.5712 71.0829 40.748 71.3369 40.8575C71.5909 40.9668 71.9414 41.0216 72.3889 41.0216H73.7534C74.2917 41.0216 74.6746 40.9341 74.9019 40.759C75.1294 40.5839 75.2583 40.2704 75.2886 39.8182C75.3037 39.6285 75.4024 39.5337 75.5843 39.5337C75.7965 39.5337 75.895 39.6321 75.8799 39.8291C75.8419 40.4491 75.6525 40.8976 75.3114 41.1747C74.9703 41.452 74.4509 41.5904 73.7534 41.5904H72.3889C71.5701 41.5904 70.9711 41.4082 70.5921 41.0434C70.2129 40.6788 70.0234 40.1026 70.0234 39.3149Z" fill="white"/>
<path fill-rule="evenodd" clip-rule="evenodd" d="M89.9663 39.1179H93.17L91.5682 35.442L89.9663 39.1179ZM94.738 41.3278C94.738 41.4228 94.674 41.4993 94.5462 41.5575C94.5011 41.5795 94.452 41.5904 94.3995 41.5904C94.2941 41.5904 94.2191 41.5321 94.1739 41.4154L93.4182 39.6868H93.3843H89.7295L88.9738 41.4154C88.921 41.5321 88.8384 41.5904 88.7256 41.5904C88.6878 41.5904 88.639 41.5795 88.579 41.5575C88.4586 41.5138 88.3984 41.4336 88.3984 41.3169C88.3984 41.2586 88.4059 41.2148 88.4209 41.1857L91.2185 34.7637C91.2787 34.6179 91.3914 34.5449 91.5568 34.5449H91.5794C91.7299 34.5449 91.8389 34.6179 91.9065 34.7637L94.7041 41.1857C94.7266 41.2366 94.738 41.2841 94.738 41.3278Z" fill="white"/>
<path fill-rule="evenodd" clip-rule="evenodd" d="M111.729 36.4376C111.729 35.9782 111.622 35.6427 111.407 35.4311C111.192 35.2196 110.843 35.1138 110.361 35.1138H108.01V38.0896H110.361C110.843 38.0896 111.192 37.9857 111.407 37.7778C111.622 37.5699 111.729 37.2327 111.729 36.7658V36.4376ZM111.819 35.0262C112.151 35.3474 112.317 35.8178 112.317 36.4376V36.7658C112.317 37.3858 112.153 37.8562 111.825 38.177C111.497 38.4982 111.009 38.6584 110.361 38.6584H108.01V41.3059C108.01 41.4957 107.912 41.5904 107.716 41.5904C107.52 41.5904 107.422 41.4957 107.422 41.3059V34.8294C107.422 34.6398 107.52 34.5449 107.716 34.5449H110.361C111.002 34.5449 111.488 34.7054 111.819 35.0262Z" fill="white"/>
<path fill-rule="evenodd" clip-rule="evenodd" d="M125.146 41.5138C125.095 41.4628 125.07 41.3934 125.07 41.3059V34.8294C125.07 34.7419 125.095 34.6727 125.146 34.6215C125.196 34.5706 125.265 34.5449 125.351 34.5449C125.438 34.5449 125.506 34.5706 125.556 34.6215C125.607 34.6727 125.632 34.7419 125.632 34.8294V41.3059C125.632 41.3934 125.607 41.4628 125.556 41.5138C125.506 41.5649 125.438 41.5904 125.351 41.5904C125.265 41.5904 125.196 41.5649 125.146 41.5138Z" fill="white"/>
<path fill-rule="evenodd" clip-rule="evenodd" d="M141.276 41.5085C141.219 41.4539 141.19 41.3866 141.19 41.3064V35.1128H138.772C138.688 35.1128 138.618 35.0856 138.562 35.031C138.505 34.9763 138.477 34.9092 138.477 34.829C138.477 34.7415 138.505 34.6724 138.562 34.6213C138.618 34.5706 138.688 34.5449 138.772 34.5449H144.2C144.291 34.5449 144.363 34.5706 144.415 34.6213C144.468 34.6724 144.495 34.7415 144.495 34.829C144.495 34.9092 144.468 34.9763 144.415 35.031C144.363 35.0856 144.291 35.1128 144.2 35.1128H141.781V41.3064C141.781 41.3866 141.754 41.4539 141.701 41.5085C141.649 41.5632 141.576 41.5904 141.486 41.5904C141.402 41.5904 141.332 41.5632 141.276 41.5085Z" fill="white"/>
<path fill-rule="evenodd" clip-rule="evenodd" d="M156.333 39.1179H159.537L157.935 35.442L156.333 39.1179ZM161.105 41.3278C161.105 41.4228 161.041 41.4993 160.913 41.5575C160.868 41.5795 160.819 41.5904 160.767 41.5904C160.661 41.5904 160.586 41.5321 160.541 41.4154L159.785 39.6868H159.751H156.096L155.341 41.4154C155.288 41.5321 155.205 41.5904 155.093 41.5904C155.055 41.5904 155.006 41.5795 154.946 41.5575C154.826 41.5138 154.766 41.4336 154.766 41.3169C154.766 41.2586 154.773 41.2148 154.788 41.1857L157.586 34.7637C157.646 34.6179 157.758 34.5449 157.924 34.5449H157.947C158.097 34.5449 158.206 34.6179 158.274 34.7637L161.071 41.1857C161.094 41.2366 161.105 41.2841 161.105 41.3278Z" fill="white"/>
<path fill-rule="evenodd" clip-rule="evenodd" d="M173.859 41.3059V34.8295C173.859 34.6398 173.957 34.5449 174.153 34.5449C174.349 34.5449 174.448 34.6398 174.448 34.8295V41.0216H177.899C178.095 41.0216 178.193 41.1164 178.193 41.3059C178.193 41.4957 178.095 41.5904 177.899 41.5904H174.153C173.957 41.5904 173.859 41.4957 173.859 41.3059Z" fill="white"/>
</g>
</svg>
