<svg width="248" height="73" viewBox="0 0 248 73" fill="none" xmlns="http://www.w3.org/2000/svg">
<path d="M16.4606 72.5735V41.8944L0.617188 56.5515L16.4606 72.5735Z" fill="white"/>
<path d="M0.617188 55.2461L15.1111 41.7757L3.43379 43.912L0.617188 55.2461Z" fill="white"/>
<path d="M4.72461 42.7253L15.4628 41.0043L8.3627 38.868L4.72461 42.7253Z" fill="white"/>
<path d="M6.83741 39.402C5.70297 40.5098 3.39875 42.7726 3.25801 42.9624L2.14307 40.2921L6.83741 39.402Z" fill="white"/>
<path d="M7.18907 38.5714C5.62429 38.8483 2.4009 39.4377 2.02539 39.5802V28.5428L7.18907 38.5714Z" fill="white"/>
<path d="M2.90576 28.5428L8.06943 38.334L9.65391 32.044L2.90576 28.5428Z" fill="white"/>
<path d="M11.4143 32.0439L2.6123 27.7713L10.7689 17.2087L21.2723 33.8834L11.4143 32.0439Z" fill="white"/>
<path d="M10.4165 16.378C7.81499 19.7208 2.57698 26.4659 2.43604 26.7033L7.42385 11.6306L10.4165 16.378Z" fill="white"/>
<path d="M10.7686 15.8438C10.1229 14.8746 8.62072 12.5327 7.77588 10.9187L23.0323 0.0592346L10.7686 15.8438Z" fill="white"/>
<path d="M31.541 72.5735V41.8944L47.3844 56.5515L31.541 72.5735Z" fill="white"/>
<path d="M47.3843 55.2461L32.8906 41.7757L44.5677 43.912L47.3843 55.2461Z" fill="white"/>
<path d="M43.277 42.7253L32.5386 41.0043L39.6389 38.868L43.277 42.7253Z" fill="white"/>
<path d="M41.1646 39.402C42.299 40.5098 44.6032 42.7726 44.7439 42.9624L45.8589 40.2921L41.1646 39.402Z" fill="white"/>
<path d="M40.812 38.5714C42.3768 38.8483 45.6004 39.4377 45.9759 39.5802V28.5428L40.812 38.5714Z" fill="white"/>
<path d="M45.0963 28.5428L39.9324 38.334L38.3481 32.044L45.0963 28.5428Z" fill="white"/>
<path d="M36.5877 32.0439L45.3895 27.7713L37.2331 17.2087L26.7295 33.8834L36.5877 32.0439Z" fill="white"/>
<path d="M37.585 16.378C40.1863 19.7208 45.4245 26.4659 45.5652 26.7033L40.5776 11.6306L37.585 16.378Z" fill="white"/>
<path d="M37.2327 15.8438C37.8781 14.8746 39.3804 12.5327 40.2254 10.9187L24.9688 0.0592346L37.2327 15.8438Z" fill="white"/>
<path d="M36.7638 16.4373L24.1477 0L11.2383 16.4968L22.2699 34.1208L18.8079 43.7933L24.0303 46.7603L29.1942 43.7933L25.732 34.1208L36.7638 16.4373Z" fill="white"/>
<path d="M121.375 49.6742H117.536L128.704 26.07L139.872 49.6742H136.033L128.704 33.4683L121.375 49.6742Z" fill="white"/>
<path d="M198.507 49.6742H194.667L205.834 26.07L217.004 49.6742H213.164L205.834 33.4683L198.507 49.6742Z" fill="white"/>
<path d="M182.451 49.6742H178.962V29.9454H173.726L170.584 26.7746H190.828L187.686 29.9454H182.451V49.6742Z" fill="white"/>
<path d="M227.124 25.3654V49.6741H230.615V34.1729L247.367 51.0833V26.7746H243.876V42.2757L227.124 25.3654Z" fill="white"/>
<path d="M98.3403 26.7746H101.132V50.0263H98.3403V26.7746Z" fill="white"/>
<path fill-rule="evenodd" clip-rule="evenodd" d="M103.924 26.7746H98.3403V40.8665H103.924C107.78 40.8665 110.905 37.712 110.905 33.8207C110.905 29.9294 107.78 26.7746 103.924 26.7746ZM104.622 30.2976H101.132V37.3436H104.622C106.55 37.3436 108.112 35.7663 108.112 33.8207C108.112 31.875 106.55 30.2976 104.622 30.2976Z" fill="white"/>
<path d="M150.691 26.7746H153.483V50.0263H150.691V26.7746Z" fill="white"/>
<path fill-rule="evenodd" clip-rule="evenodd" d="M156.275 26.7746H150.691V40.8665H156.275C160.131 40.8665 163.255 37.712 163.255 33.8207C163.255 29.9294 160.131 26.7746 156.275 26.7746ZM156.973 30.2976H153.483V37.3436H156.973C158.901 37.3436 160.464 35.7663 160.464 33.8207C160.464 31.875 158.901 30.2976 156.973 30.2976Z" fill="white"/>
<path d="M154.182 40.162H157.672L165.351 50.0263H161.86L154.182 40.162Z" fill="white"/>
<path d="M79.3277 50.0263C77.698 50.0263 76.2618 49.5552 75.0191 48.6133C73.7967 47.6713 72.9614 46.4829 72.5132 45.0485L74.9579 44.117C75.3653 45.1449 75.9665 45.9692 76.7609 46.5899C77.5554 47.1895 78.4518 47.4893 79.45 47.4893C80.5704 47.4893 81.4567 47.168 82.1086 46.5258C82.7605 45.862 83.0865 44.9306 83.0865 43.7316C83.0865 41.7833 81.6502 40.1562 78.7778 38.8501C77.9628 38.4861 77.2804 38.1435 76.7303 37.8225C76.1803 37.4799 75.5997 37.0517 74.9884 36.5377C74.3976 36.0025 73.9393 35.3815 73.6133 34.6751C73.3079 33.9472 73.1549 33.1335 73.1549 32.2344C73.1549 30.6928 73.6949 29.3974 74.7745 28.3484C75.8544 27.2992 77.2906 26.7746 79.0832 26.7746C80.5298 26.7746 81.7623 27.1494 82.7808 27.8986C83.8198 28.6266 84.4922 29.5794 84.7977 30.757L82.3836 31.5919C82.1188 30.9283 81.6911 30.3824 81.1003 29.9542C80.5093 29.5259 79.8066 29.3117 78.9916 29.3117C78.0341 29.3117 77.2703 29.5794 76.6998 30.1147C76.1293 30.6286 75.8442 31.3351 75.8442 32.2344C75.8442 32.7481 75.9459 33.2085 76.1496 33.6153C76.3739 34.022 76.7201 34.3967 77.1886 34.7393C77.6574 35.0818 78.0749 35.3602 78.4417 35.5742C78.8288 35.7885 79.3787 36.056 80.0918 36.3772C80.8659 36.7411 81.528 37.1052 82.0781 37.4691C82.6484 37.8331 83.2392 38.3042 83.8505 38.8823C84.4821 39.4602 84.9607 40.1562 85.2867 40.9698C85.6126 41.762 85.7755 42.6504 85.7755 43.6353C85.7755 45.6264 85.1746 47.1895 83.9727 48.3242C82.7707 49.4589 81.2223 50.0263 79.3277 50.0263Z" fill="white"/>
</svg>
