<svg width="190" height="66" viewBox="0 0 190 66" fill="none" xmlns="http://www.w3.org/2000/svg">
<path d="M14.3199 60.1304V37.1211L2.48438 48.1139L14.3199 60.1304Z" fill="white"/>
<path d="M2.48438 47.134L13.3118 37.0312L4.58848 38.6335L2.48438 47.134Z" fill="white"/>
<path d="M5.55469 37.7445L13.5765 36.4538L8.27247 34.8516L5.55469 37.7445Z" fill="white"/>
<path d="M7.13184 35.252C6.28437 36.0828 4.56304 37.7799 4.4579 37.9223L3.625 35.9195L7.13184 35.252Z" fill="white"/>
<path d="M7.39652 34.6289C6.22757 34.8366 3.81958 35.2786 3.53906 35.3855V27.1074L7.39652 34.6289Z" fill="white"/>
<path d="M4.19531 27.1074L8.05276 34.4508L9.23642 29.7333L4.19531 27.1074Z" fill="white"/>
<path d="M10.5519 29.7339L3.97656 26.5294L10.0698 18.6074L17.9162 31.1134L10.5519 29.7339Z" fill="white"/>
<path d="M9.80546 17.9824C7.86202 20.4895 3.94904 25.5483 3.84375 25.7263L7.56982 14.4219L9.80546 17.9824Z" fill="white"/>
<path d="M10.0716 17.5826C9.58928 16.8557 8.46706 15.0992 7.83594 13.8887L19.2331 5.74414L10.0716 17.5826Z" fill="white"/>
<path d="M25.5859 60.1304V37.1211L37.4215 48.1139L25.5859 60.1304Z" fill="white"/>
<path d="M37.421 47.134L26.5938 37.0312L35.3169 38.6335L37.421 47.134Z" fill="white"/>
<path d="M34.3579 37.7445L26.3359 36.4538L31.6401 34.8516L34.3579 37.7445Z" fill="white"/>
<path d="M32.7812 35.252C33.6287 36.0828 35.35 37.7799 35.4552 37.9223L36.2881 35.9195L32.7812 35.252Z" fill="white"/>
<path d="M32.5156 34.6289C33.6846 34.8366 36.0927 35.2786 36.3732 35.3855V27.1074L32.5156 34.6289Z" fill="white"/>
<path d="M35.713 27.1074L31.8554 34.4508L30.6719 29.7333L35.713 27.1074Z" fill="white"/>
<path d="M29.3566 29.7339L35.9319 26.5294L29.8388 18.6074L21.9922 31.1134L29.3566 29.7339Z" fill="white"/>
<path d="M30.1016 17.9824C32.0449 20.4895 35.958 25.5483 36.0631 25.7263L32.3372 14.4219L30.1016 17.9824Z" fill="white"/>
<path d="M29.8413 17.5826C30.3235 16.8557 31.4457 15.0992 32.077 13.8887L20.6797 5.74414L29.8413 17.5826Z" fill="white"/>
<path d="M29.4904 18.0272L20.0657 5.69922L10.4219 18.0718L18.6629 31.2898L16.0767 38.5442L19.978 40.7694L23.8356 38.5442L21.2492 31.2898L29.4904 18.0272Z" fill="white"/>
<path d="M92.6959 42.955H89.8281L98.1713 25.252L106.514 42.955H103.646L98.1713 30.8006L92.6959 42.955Z" fill="white"/>
<path d="M150.314 42.955H147.445L155.788 25.252L164.132 42.955H161.263L155.788 30.8006L150.314 42.955Z" fill="white"/>
<path d="M138.326 42.9559H135.719V28.1593H131.808L129.461 25.7812H144.584L142.237 28.1593H138.326V42.9559Z" fill="white"/>
<path d="M171.695 24.7246V42.9561H174.303V31.3302L186.818 44.013V25.7815H184.21V37.4073L171.695 24.7246Z" fill="white"/>
<path d="M75.4922 25.7812H77.578V43.22H75.4922V25.7812Z" fill="white"/>
<path fill-rule="evenodd" clip-rule="evenodd" d="M79.6637 25.7812H75.4922V36.3502H79.6637C82.5437 36.3502 84.8782 33.9843 84.8782 31.0658C84.8782 28.1473 82.5437 25.7812 79.6637 25.7812ZM80.1851 28.4234H77.5779V33.708H80.1851C81.625 33.708 82.7923 32.525 82.7923 31.0658C82.7923 29.6066 81.625 28.4234 80.1851 28.4234Z" fill="white"/>
<path d="M114.594 25.7812H116.68V43.22H114.594V25.7812Z" fill="white"/>
<path fill-rule="evenodd" clip-rule="evenodd" d="M118.765 25.7812H114.594V36.3502H118.765C121.645 36.3502 123.979 33.9843 123.979 31.0658C123.979 28.1473 121.645 25.7812 118.765 25.7812ZM119.287 28.4234H116.679V33.708H119.287C120.727 33.708 121.894 32.525 121.894 31.0658C121.894 29.6066 120.727 28.4234 119.287 28.4234Z" fill="white"/>
<path d="M117.203 35.8203H119.81L125.547 43.2186H122.939L117.203 35.8203Z" fill="white"/>
<path d="M61.286 43.22C60.0685 43.22 58.9956 42.8667 58.0673 42.1602C57.1541 41.4537 56.5301 40.5625 56.1953 39.4867L58.0216 38.788C58.326 39.5589 58.775 40.1772 59.3685 40.6427C59.962 41.0924 60.6317 41.3172 61.3774 41.3172C62.2144 41.3172 62.8764 41.0763 63.3634 40.5946C63.8504 40.0968 64.0939 39.3983 64.0939 38.499C64.0939 37.0377 63.021 35.8174 60.8752 34.8379C60.2664 34.5648 59.7566 34.3079 59.3456 34.0671C58.9348 33.8102 58.501 33.489 58.0444 33.1036C57.6031 32.7021 57.2606 32.2364 57.0171 31.7066C56.789 31.1607 56.6747 30.5504 56.6747 29.8761C56.6747 28.7199 57.0781 27.7483 57.8846 26.9616C58.6913 26.1747 59.7642 25.7812 61.1034 25.7812C62.184 25.7812 63.1048 26.0623 63.8656 26.6243C64.6418 27.1702 65.1441 27.8849 65.3723 28.768L63.5688 29.3942C63.371 28.8965 63.0515 28.4871 62.6102 28.1659C62.1687 27.8447 61.6438 27.6841 61.0349 27.6841C60.3196 27.6841 59.749 27.8849 59.3229 28.2863C58.8967 28.6717 58.6837 29.2016 58.6837 29.8761C58.6837 30.2614 58.7597 30.6067 58.9119 30.9117C59.0794 31.2168 59.338 31.4978 59.688 31.7547C60.0382 32.0117 60.3501 32.2204 60.6241 32.381C60.9133 32.5416 61.3241 32.7423 61.8568 32.9832C62.4351 33.2561 62.9297 33.5292 63.3407 33.8021C63.7667 34.0751 64.208 34.4285 64.6647 34.862C65.1365 35.2954 65.4941 35.8174 65.7376 36.4277C65.9811 37.0218 66.1027 37.6881 66.1027 38.4267C66.1027 39.9201 65.6538 41.0924 64.756 41.9434C63.858 42.7944 62.7014 43.22 61.286 43.22Z" fill="white"/>
</svg>
