<?xml version="1.0" encoding="utf-8"?>
<!-- Generator: Adobe Illustrator 26.0.2, SVG Export Plug-In . SVG Version: 6.00 Build 0)  -->
<svg version="1.1" id="Layer_1" xmlns="http://www.w3.org/2000/svg" xmlns:xlink="http://www.w3.org/1999/xlink" x="0px" y="0px"
	 viewBox="0 0 24 24" style="enable-background:new 0 0 24 24;" xml:space="preserve">
<path d="M20.8,5h-18C1.5,5,0.5,6,0.5,7.2v9c0,1.2,1,2.2,2.2,2.2h18c1.2,0,2.2-1,2.2-2.2v-9C23,6,22,5,20.8,5z"/>
<path d="M11.8,14c1.2,0,2.2-1,2.2-2.2s-1-2.2-2.2-2.2s-2.2,1-2.2,2.2S10.5,14,11.8,14z"/>
<line x1="18.5" y1="11.8" x2="18.5" y2="11.8"/>
<path d="M5,11.8L5,11.8L5,11.8z"/>
</svg>
