<svg width="522" height="128" viewBox="0 0 522 128" fill="none" xmlns="http://www.w3.org/2000/svg">
<path d="M83.3363 51.6364C83.3363 67.5684 70.4209 80.4838 54.489 80.4838C38.557 80.4838 25.6416 67.5684 25.6416 51.6364C25.6416 35.7045 38.557 22.7891 54.489 22.7891C70.4209 22.7891 83.3363 35.7045 83.3363 51.6364Z" fill="white"/>
<path fillRule="evenodd" clipRule="evenodd" d="M54.489 74.9852C67.3841 74.9852 77.8377 64.5316 77.8377 51.6364C77.8377 38.7413 67.3841 28.2877 54.489 28.2877C41.5938 28.2877 31.1402 38.7413 31.1402 51.6364C31.1402 64.5316 41.5938 74.9852 54.489 74.9852ZM54.489 80.4838C70.4209 80.4838 83.3363 67.5684 83.3363 51.6364C83.3363 35.7045 70.4209 22.7891 54.489 22.7891C38.557 22.7891 25.6416 35.7045 25.6416 51.6364C25.6416 67.5684 38.557 80.4838 54.489 80.4838Z" fill="url(#paint0_linear_10391_104138)"/>
<mask id="path-3-inside-1_10391_104138" fill="white">
<path fillRule="evenodd" clipRule="evenodd" d="M75.431 71.4759C80.3308 66.3055 83.3363 59.322 83.3363 51.6364C83.3363 35.7045 70.4209 22.7891 54.489 22.7891C38.557 22.7891 25.6416 35.7045 25.6416 51.6364C25.6416 59.3466 28.6664 66.3503 33.5941 71.5256C34.3198 63.1945 41.3339 56.6336 49.852 56.6336H59.1776C67.6765 56.6336 74.6816 63.1684 75.431 71.4759ZM54.5148 51.9708C48.7306 51.9708 44.0235 47.2638 44.0235 41.4796C44.0235 35.6954 48.7306 30.9883 54.5148 30.9883C60.299 30.9883 65.0061 35.6954 65.0061 41.4796C65.0061 47.2638 60.299 51.9708 54.5148 51.9708Z"/>
</mask>
<path fillRule="evenodd" clipRule="evenodd" d="M75.431 71.4759C80.3308 66.3055 83.3363 59.322 83.3363 51.6364C83.3363 35.7045 70.4209 22.7891 54.489 22.7891C38.557 22.7891 25.6416 35.7045 25.6416 51.6364C25.6416 59.3466 28.6664 66.3503 33.5941 71.5256C34.3198 63.1945 41.3339 56.6336 49.852 56.6336H59.1776C67.6765 56.6336 74.6816 63.1684 75.431 71.4759ZM54.5148 51.9708C48.7306 51.9708 44.0235 47.2638 44.0235 41.4796C44.0235 35.6954 48.7306 30.9883 54.5148 30.9883C60.299 30.9883 65.0061 35.6954 65.0061 41.4796C65.0061 47.2638 60.299 51.9708 54.5148 51.9708Z" fill="url(#paint1_linear_10391_104138)"/>
<path d="M75.431 71.4759L69.9547 71.9699L71.0483 84.0944L79.4221 75.2582L75.431 71.4759ZM33.5941 71.5256L29.612 75.3173L38.0146 84.1422L39.072 72.0028L33.5941 71.5256ZM77.8377 51.6364C77.8377 57.8595 75.4104 63.5039 71.4399 67.6936L79.4221 75.2582C85.2512 69.1072 88.8349 60.7844 88.8349 51.6364H77.8377ZM54.489 28.2877C67.3841 28.2877 77.8377 38.7413 77.8377 51.6364H88.8349C88.8349 32.6677 73.4577 17.2905 54.489 17.2905V28.2877ZM31.1402 51.6364C31.1402 38.7413 41.5938 28.2877 54.489 28.2877V17.2905C35.5202 17.2905 20.143 32.6677 20.143 51.6364H31.1402ZM37.5763 67.7339C33.5831 63.5401 31.1402 57.8794 31.1402 51.6364H20.143C20.143 60.8139 23.7498 69.1606 29.612 75.3173L37.5763 67.7339ZM49.852 51.135C38.4544 51.135 29.087 59.9039 28.1163 71.0485L39.072 72.0028C39.5526 66.485 44.2135 62.1322 49.852 62.1322V51.135ZM59.1776 51.135H49.852V62.1322H59.1776V51.135ZM80.9074 70.9819C79.9049 59.8688 70.5502 51.135 59.1776 51.135V62.1322C64.8028 62.1322 69.4583 66.468 69.9547 71.9699L80.9074 70.9819ZM38.5249 41.4796C38.5249 50.3006 45.6938 57.4695 54.5148 57.4695V46.4722C51.7674 46.4722 49.5221 44.227 49.5221 41.4796H38.5249ZM54.5148 25.4897C45.6938 25.4897 38.5249 32.6586 38.5249 41.4796H49.5221C49.5221 38.7322 51.7674 36.4869 54.5148 36.4869V25.4897ZM70.5047 41.4796C70.5047 32.6586 63.3358 25.4897 54.5148 25.4897V36.4869C57.2622 36.4869 59.5075 38.7322 59.5075 41.4796H70.5047ZM54.5148 57.4695C63.3358 57.4695 70.5047 50.3006 70.5047 41.4796H59.5075C59.5075 44.227 57.2622 46.4722 54.5148 46.4722V57.4695Z" fill="url(#paint2_linear_10391_104138)" mask="url(#path-3-inside-1_10391_104138)"/>
<path fillRule="evenodd" clipRule="evenodd" d="M199.476 42.9375C199.476 42.5233 199.14 42.1875 198.726 42.1875L196.83 42.1875C196.415 42.1875 196.08 42.5233 196.08 42.9375C196.08 43.3517 196.415 43.6875 196.83 43.6875L198.726 43.6875C199.14 43.6875 199.476 43.3517 199.476 42.9375ZM191.512 42.9375C191.512 42.5233 191.176 42.1875 190.762 42.1875L186.97 42.1875C186.556 42.1875 186.22 42.5233 186.22 42.9375C186.22 43.3517 186.556 43.6875 186.97 43.6875L190.762 43.6875C191.176 43.6875 191.512 43.3517 191.512 42.9375ZM181.653 42.9375C181.653 42.5233 181.317 42.1875 180.903 42.1875L177.111 42.1875C176.697 42.1875 176.361 42.5233 176.361 42.9375C176.361 43.3517 176.697 43.6875 177.111 43.6875L180.903 43.6875C181.317 43.6875 181.653 43.3517 181.653 42.9375ZM171.794 42.9375C171.794 42.5233 171.458 42.1875 171.044 42.1875L167.252 42.1875C166.837 42.1875 166.502 42.5233 166.502 42.9375C166.502 43.3517 166.837 43.6875 167.252 43.6875L171.044 43.6875C171.458 43.6875 171.794 43.3517 171.794 42.9375ZM161.934 42.9375C161.934 42.5233 161.598 42.1875 161.184 42.1875L157.392 42.1875C156.978 42.1875 156.642 42.5233 156.642 42.9375C156.642 43.3517 156.978 43.6875 157.392 43.6875L161.184 43.6875C161.598 43.6875 161.934 43.3517 161.934 42.9375ZM152.075 42.9375C152.075 42.5233 151.739 42.1875 151.325 42.1875L147.45 42.1875C147.036 42.1875 146.7 42.5233 146.7 42.9375C146.7 43.3517 147.036 43.6875 147.45 43.6875L151.325 43.6875C151.739 43.6875 152.075 43.3517 152.075 42.9375ZM141.869 42.9375C141.869 42.5233 141.533 42.1875 141.119 42.1875L137.162 42.1875C136.748 42.1875 136.412 42.5233 136.412 42.9375C136.412 43.3517 136.748 43.6875 137.162 43.6875L141.119 43.6875C141.533 43.6875 141.869 43.3517 141.869 42.9375ZM131.581 42.9375C131.581 42.5233 131.245 42.1875 130.831 42.1875L126.874 42.1875C126.46 42.1875 126.124 42.5233 126.124 42.9375C126.124 43.3517 126.46 43.6875 126.874 43.6875L130.831 43.6875C131.245 43.6875 131.581 43.3517 131.581 42.9375ZM121.293 42.9375C121.293 42.5233 120.957 42.1875 120.543 42.1875L116.586 42.1875C116.172 42.1875 115.836 42.5233 115.836 42.9375C115.836 43.3517 116.172 43.6875 116.586 43.6875L120.543 43.6875C120.957 43.6875 121.293 43.3517 121.293 42.9375ZM111.005 42.9375C111.005 42.5233 110.669 42.1875 110.255 42.1875L106.298 42.1875C105.884 42.1875 105.548 42.5233 105.548 42.9375C105.548 43.3517 105.884 43.6875 106.298 43.6875L110.255 43.6875C110.669 43.6875 111.005 43.3517 111.005 42.9375ZM100.717 42.9375C100.717 42.5233 100.381 42.1875 99.9672 42.1875L97.9887 42.1875C97.5745 42.1875 97.2387 42.5233 97.2387 42.9375C97.2387 43.3517 97.5745 43.6875 97.9887 43.6875L99.9672 43.6875C100.381 43.6875 100.717 43.3517 100.717 42.9375Z" fill="url(#paint3_linear_10391_104138)"/>
<path fillRule="evenodd" clipRule="evenodd" d="M196.697 50.3024C196.992 50.621 197.489 50.6404 197.807 50.3459L205.671 43.0749C205.835 42.9237 205.926 42.7102 205.923 42.4876C205.92 42.2649 205.823 42.054 205.655 41.9072L197.791 35.0189C197.465 34.733 196.969 34.7658 196.683 35.0922C196.397 35.4185 196.43 35.9148 196.756 36.2006L203.964 42.5139L196.741 49.1924C196.422 49.4869 196.403 49.9839 196.697 50.3024Z" fill="#33F9FF"/>
<path fillRule="evenodd" clipRule="evenodd" d="M407.36 52.0938C407.36 52.508 407.025 52.8437 406.61 52.8437L404.499 52.8437C404.085 52.8437 403.749 52.508 403.749 52.0937C403.749 51.6795 404.085 51.3437 404.499 51.3437L406.61 51.3437C407.025 51.3437 407.36 51.6795 407.36 52.0938ZM398.492 52.0937C398.492 52.508 398.156 52.8437 397.742 52.8437L393.519 52.8437C393.105 52.8437 392.769 52.508 392.769 52.0937C392.769 51.6795 393.105 51.3437 393.519 51.3437L397.742 51.3437C398.156 51.3437 398.492 51.6795 398.492 52.0937ZM387.512 52.0937C387.512 52.508 387.177 52.8437 386.762 52.8437L382.539 52.8437C382.125 52.8437 381.789 52.508 381.789 52.0937C381.789 51.6795 382.125 51.3437 382.539 51.3437L386.762 51.3437C387.177 51.3437 387.512 51.6795 387.512 52.0937ZM376.533 52.0937C376.533 52.508 376.197 52.8437 375.783 52.8437L371.56 52.8437C371.145 52.8437 370.81 52.508 370.81 52.0937C370.81 51.6795 371.145 51.3437 371.56 51.3437L375.783 51.3437C376.197 51.3437 376.533 51.6795 376.533 52.0937ZM365.553 52.0937C365.553 52.508 365.217 52.8437 364.803 52.8437L360.488 52.8437C360.074 52.8437 359.738 52.508 359.738 52.0937C359.738 51.6795 360.074 51.3437 360.488 51.3437L364.803 51.3437C365.217 51.3437 365.553 51.6795 365.553 52.0937ZM354.188 52.0937C354.188 52.508 353.852 52.8437 353.438 52.8437L349.031 52.8437C348.617 52.8437 348.281 52.508 348.281 52.0937C348.281 51.6795 348.617 51.3437 349.031 51.3437L353.438 51.3437C353.852 51.3437 354.188 51.6795 354.188 52.0937ZM342.73 52.0937C342.73 52.508 342.395 52.8437 341.98 52.8437L337.574 52.8437C337.16 52.8437 336.824 52.508 336.824 52.0937C336.824 51.6795 337.16 51.3437 337.574 51.3437L341.98 51.3437C342.395 51.3437 342.73 51.6795 342.73 52.0937ZM331.273 52.0937C331.273 52.508 330.938 52.8437 330.523 52.8437L326.117 52.8437C325.703 52.8437 325.367 52.508 325.367 52.0937C325.367 51.6795 325.703 51.3437 326.117 51.3437L330.523 51.3437C330.938 51.3437 331.273 51.6795 331.273 52.0937ZM319.816 52.0937C319.816 52.508 319.48 52.8437 319.066 52.8437L316.863 52.8437C316.449 52.8437 316.113 52.508 316.113 52.0937C316.113 51.6795 316.449 51.3437 316.863 51.3437L319.066 51.3437C319.48 51.3437 319.816 51.6795 319.816 52.0937Z" fill="url(#paint4_linear_10391_104138)"/>
<path fillRule="evenodd" clipRule="evenodd" d="M404.608 59.4369C404.889 59.741 405.363 59.7596 405.667 59.4784L413.531 52.2074C413.688 52.063 413.775 51.8592 413.772 51.6466C413.769 51.434 413.676 51.2326 413.516 51.0925L405.652 44.2041C405.341 43.9312 404.867 43.9626 404.594 44.2741C404.321 44.5857 404.352 45.0596 404.664 45.3325L411.901 51.6717L404.649 58.377C404.345 58.6582 404.326 59.1328 404.608 59.4369Z" fill="#33F9FF"/>
<path fillRule="evenodd" clipRule="evenodd" d="M450.86 87.3536C450.86 87.7678 450.525 88.1036 450.11 88.1036L448.242 88.1036C447.828 88.1036 447.492 87.7678 447.492 87.3536C447.492 86.9394 447.828 86.6036 448.242 86.6036L450.11 86.6036C450.525 86.6036 450.86 86.9394 450.86 87.3536ZM443.015 87.3536C443.015 87.7678 442.679 88.1036 442.265 88.1036L438.529 88.1036C438.115 88.1036 437.779 87.7678 437.779 87.3536C437.779 86.9394 438.115 86.6036 438.529 86.6036L442.265 86.6036C442.679 86.6036 443.015 86.9394 443.015 87.3536ZM433.302 87.3536C433.302 87.7678 432.966 88.1036 432.552 88.1036L428.816 88.1036C428.402 88.1036 428.066 87.7678 428.066 87.3536C428.066 86.9394 428.402 86.6036 428.816 86.6036L432.552 86.6036C432.966 86.6036 433.302 86.9394 433.302 87.3536ZM423.589 87.3536C423.589 87.7678 423.253 88.1036 422.839 88.1036L419.103 88.1036C418.689 88.1036 418.353 87.7678 418.353 87.3536C418.353 86.9394 418.689 86.6036 419.103 86.6036L422.839 86.6036C423.253 86.6036 423.589 86.9394 423.589 87.3536ZM413.876 87.3536C413.876 87.7678 413.54 88.1036 413.126 88.1036L409.39 88.1036C408.975 88.1036 408.64 87.7678 408.64 87.3536C408.64 86.9394 408.975 86.6036 409.39 86.6036L413.126 86.6036C413.54 86.6036 413.876 86.9394 413.876 87.3536ZM404.162 87.3536C404.162 87.7678 403.827 88.1036 403.412 88.1036L399.677 88.1036C399.262 88.1036 398.927 87.7678 398.927 87.3536C398.927 86.9394 399.262 86.6036 399.677 86.6036L403.412 86.6036C403.827 86.6036 404.162 86.9394 404.162 87.3536ZM394.449 87.3536C394.449 87.7678 394.113 88.1036 393.699 88.1036L389.963 88.1036C389.549 88.1036 389.213 87.7678 389.213 87.3536C389.213 86.9394 389.549 86.6036 389.963 86.6036L393.699 86.6036C394.113 86.6036 394.449 86.9394 394.449 87.3536ZM384.736 87.3536C384.736 87.7678 384.4 88.1036 383.986 88.1036L380.25 88.1036C379.836 88.1036 379.5 87.7678 379.5 87.3536C379.5 86.9394 379.836 86.6036 380.25 86.6036L383.986 86.6036C384.4 86.6036 384.736 86.9394 384.736 87.3536ZM375.023 87.3536C375.023 87.7678 374.687 88.1036 374.273 88.1036L370.537 88.1036C370.123 88.1036 369.787 87.7678 369.787 87.3536C369.787 86.9394 370.123 86.6036 370.537 86.6036L374.273 86.6036C374.687 86.6036 375.023 86.9394 375.023 87.3536ZM365.31 87.3536C365.31 87.7678 364.974 88.1036 364.56 88.1036L362.692 88.1036C362.493 88.1036 362.302 88.0246 362.161 87.8839C362.021 87.7433 361.942 87.5525 361.942 87.3536L361.942 85.0935C361.942 84.6793 362.277 84.3435 362.692 84.3435C363.106 84.3435 363.442 84.6793 363.442 85.0935L363.442 86.6036L364.56 86.6036C364.974 86.6036 365.31 86.9394 365.31 87.3536ZM363.222 51.5654C363.363 51.706 363.442 51.8968 363.442 52.0957L363.442 54.3558C363.442 54.77 363.106 55.1058 362.692 55.1058C362.277 55.1058 361.942 54.77 361.942 54.3558L361.942 52.8457L360.488 52.8457C360.074 52.8457 359.738 52.5099 359.738 52.0957C359.738 51.6815 360.074 51.3457 360.488 51.3457L362.692 51.3457C362.891 51.3457 363.081 51.4247 363.222 51.5654ZM362.692 60.8382C363.106 60.8382 363.442 61.174 363.442 61.5882L363.442 66.1085C363.442 66.5227 363.106 66.8585 362.692 66.8585C362.277 66.8585 361.942 66.5227 361.942 66.1085L361.942 61.5882C361.942 61.174 362.277 60.8382 362.692 60.8382ZM362.692 72.5908C363.106 72.5908 363.442 72.9266 363.442 73.3408L363.442 77.8611C363.442 78.2753 363.106 78.6111 362.692 78.6111C362.277 78.6111 361.942 78.2753 361.942 77.8611L361.942 73.3408C361.942 72.9266 362.277 72.5908 362.692 72.5908ZM354.188 52.0957C354.188 52.5099 353.852 52.8457 353.438 52.8457L349.031 52.8457C348.617 52.8457 348.281 52.5099 348.281 52.0957C348.281 51.6815 348.617 51.3457 349.031 51.3457L353.438 51.3457C353.852 51.3457 354.188 51.6815 354.188 52.0957ZM342.731 52.0957C342.731 52.5099 342.395 52.8457 341.981 52.8457L337.574 52.8457C337.16 52.8457 336.824 52.5099 336.824 52.0957C336.824 51.6815 337.16 51.3457 337.574 51.3457L341.981 51.3457C342.395 51.3457 342.731 51.6815 342.731 52.0957ZM331.273 52.0957C331.273 52.5099 330.938 52.8457 330.523 52.8457L326.117 52.8457C325.703 52.8457 325.367 52.5099 325.367 52.0957C325.367 51.6815 325.703 51.3457 326.117 51.3457L330.523 51.3457C330.938 51.3457 331.273 51.6815 331.273 52.0957ZM319.816 52.0957C319.816 52.5099 319.48 52.8457 319.066 52.8457L316.863 52.8457C316.449 52.8457 316.113 52.5099 316.113 52.0957C316.113 51.6815 316.449 51.3457 316.863 51.3457L319.066 51.3457C319.48 51.3457 319.816 51.6815 319.816 52.0957Z" fill="url(#paint5_linear_10391_104138)"/>
<path fillRule="evenodd" clipRule="evenodd" d="M448.186 95.1517C448.467 95.4559 448.941 95.4745 449.245 95.1933L457.11 87.9222C457.266 87.7779 457.353 87.574 457.35 87.3614C457.347 87.1488 457.255 86.9474 457.095 86.8074L449.231 79.919C448.919 79.6461 448.445 79.6774 448.172 79.989C447.899 80.3006 447.931 80.7744 448.242 81.0473L455.479 87.3866L448.227 94.0919C447.923 94.3731 447.904 94.8476 448.186 95.1517Z" fill="#33F9FF"/>
<path fillRule="evenodd" clipRule="evenodd" d="M450.402 16.8359C450.402 17.2502 450.067 17.5859 449.652 17.5859L447.794 17.5859C447.38 17.5859 447.044 17.2502 447.044 16.8359C447.044 16.4217 447.38 16.0859 447.794 16.0859L449.652 16.0859C450.067 16.0859 450.402 16.4217 450.402 16.8359ZM442.598 16.8359C442.598 17.2502 442.262 17.5859 441.848 17.5859L438.132 17.5859C437.718 17.5859 437.382 17.2502 437.382 16.8359C437.382 16.4217 437.718 16.0859 438.132 16.0859L441.848 16.0859C442.262 16.0859 442.598 16.4217 442.598 16.8359ZM432.936 16.8359C432.936 17.2502 432.6 17.5859 432.186 17.5859L428.47 17.5859C428.055 17.5859 427.72 17.2502 427.72 16.8359C427.72 16.4217 428.055 16.0859 428.47 16.0859L432.186 16.0859C432.6 16.0859 432.936 16.4217 432.936 16.8359ZM423.274 16.8359C423.274 17.2502 422.938 17.5859 422.524 17.5859L418.807 17.5859C418.393 17.5859 418.057 17.2502 418.057 16.8359C418.057 16.4217 418.393 16.0859 418.807 16.0859L422.524 16.0859C422.938 16.0859 423.274 16.4217 423.274 16.8359ZM413.611 16.8359C413.611 17.2502 413.276 17.5859 412.861 17.5859L409.145 17.5859C408.731 17.5859 408.395 17.2502 408.395 16.8359C408.395 16.4217 408.731 16.0859 409.145 16.0859L412.861 16.0859C413.276 16.0859 413.611 16.4217 413.611 16.8359ZM403.949 16.8359C403.949 17.2502 403.613 17.5859 403.199 17.5859L399.483 17.5859C399.069 17.5859 398.733 17.2502 398.733 16.8359C398.733 16.4217 399.069 16.0859 399.483 16.0859L403.199 16.0859C403.613 16.0859 403.949 16.4217 403.949 16.8359ZM394.287 16.8359C394.287 17.2502 393.951 17.5859 393.537 17.5859L389.821 17.5859C389.406 17.5859 389.071 17.2502 389.071 16.8359C389.071 16.4217 389.406 16.0859 389.821 16.0859L393.537 16.0859C393.951 16.0859 394.287 16.4217 394.287 16.8359ZM384.624 16.8359C384.624 17.2502 384.289 17.5859 383.874 17.5859L380.158 17.5859C379.744 17.5859 379.408 17.2502 379.408 16.8359C379.408 16.4217 379.744 16.0859 380.158 16.0859L383.874 16.0859C384.289 16.0859 384.624 16.4217 384.624 16.8359ZM374.962 16.8359C374.962 17.2502 374.626 17.5859 374.212 17.5859L370.496 17.5859C370.082 17.5859 369.746 17.2502 369.746 16.8359C369.746 16.4217 370.082 16.0859 370.496 16.0859L374.212 16.0859C374.626 16.0859 374.962 16.4217 374.962 16.8359ZM365.3 16.8359C365.3 17.2502 364.964 17.5859 364.55 17.5859L363.442 17.5859L363.442 19.096C363.442 19.5103 363.106 19.846 362.692 19.846C362.278 19.846 361.942 19.5103 361.942 19.096L361.942 16.8359C361.942 16.4217 362.278 16.0859 362.692 16.0859L364.55 16.0859C364.964 16.0859 365.3 16.4217 365.3 16.8359ZM362.692 25.5784C363.106 25.5784 363.442 25.9142 363.442 26.3284L363.442 30.8486C363.442 31.2628 363.106 31.5986 362.692 31.5986C362.278 31.5986 361.942 31.2628 361.942 30.8486L361.942 26.3284C361.942 25.9142 362.278 25.5784 362.692 25.5784ZM362.692 37.331C363.106 37.331 363.442 37.6668 363.442 38.081L363.442 42.6012C363.442 43.0154 363.106 43.3512 362.692 43.3512C362.278 43.3512 361.942 43.0154 361.942 42.6012L361.942 38.081C361.942 37.6668 362.278 37.331 362.692 37.331ZM362.692 49.0836C363.106 49.0836 363.442 49.4194 363.442 49.8336L363.442 52.0937C363.442 52.5079 363.106 52.8437 362.692 52.8437L360.488 52.8437C360.074 52.8437 359.738 52.5079 359.738 52.0937C359.738 51.6795 360.074 51.3437 360.488 51.3437L361.942 51.3437L361.942 49.8336C361.942 49.4194 362.278 49.0836 362.692 49.0836ZM354.188 52.0937C354.188 52.5079 353.852 52.8437 353.438 52.8437L349.031 52.8437C348.617 52.8437 348.281 52.5079 348.281 52.0937C348.281 51.6795 348.617 51.3437 349.031 51.3437L353.438 51.3437C353.852 51.3437 354.188 51.6795 354.188 52.0937ZM342.731 52.0937C342.731 52.5079 342.395 52.8437 341.981 52.8437L337.574 52.8437C337.16 52.8437 336.824 52.5079 336.824 52.0937C336.824 51.6795 337.16 51.3437 337.574 51.3437L341.981 51.3437C342.395 51.3437 342.731 51.6795 342.731 52.0937ZM331.274 52.0937C331.274 52.5079 330.938 52.8437 330.524 52.8437L326.117 52.8437C325.703 52.8437 325.367 52.5079 325.367 52.0937C325.367 51.6795 325.703 51.3437 326.117 51.3437L330.524 51.3437C330.938 51.3437 331.274 51.6795 331.274 52.0937ZM319.817 52.0937C319.817 52.5079 319.481 52.8437 319.067 52.8437L316.863 52.8437C316.449 52.8437 316.113 52.5079 316.113 52.0937C316.113 51.6795 316.449 51.3437 316.863 51.3437L319.067 51.3437C319.481 51.3437 319.817 51.6795 319.817 52.0937Z" fill="url(#paint6_linear_10391_104138)"/>
<path fillRule="evenodd" clipRule="evenodd" d="M448.186 24.642C448.467 24.9461 448.941 24.9647 449.245 24.6835L457.11 17.4124C457.266 17.2681 457.353 17.0643 457.35 16.8517C457.347 16.6391 457.255 16.4377 457.095 16.2976L449.231 9.40922C448.919 9.1363 448.445 9.16763 448.172 9.47922C447.899 9.7908 447.931 10.2646 448.242 10.5376L455.479 16.8768L448.227 23.5821C447.923 23.8633 447.904 24.3378 448.186 24.642Z" fill="#33F9FF"/>
<path fillRule="evenodd" clipRule="evenodd" d="M103.649 62.168C103.649 61.7538 103.985 61.418 104.399 61.418H106.295C106.71 61.418 107.045 61.7538 107.045 62.168C107.045 62.5822 106.71 62.918 106.295 62.918H104.399C103.985 62.918 103.649 62.5822 103.649 62.168ZM111.613 62.168C111.613 61.7538 111.949 61.418 112.363 61.418H116.155C116.569 61.418 116.905 61.7538 116.905 62.168C116.905 62.5822 116.569 62.918 116.155 62.918H112.363C111.949 62.918 111.613 62.5822 111.613 62.168ZM121.472 62.168C121.472 61.7538 121.808 61.418 122.222 61.418H126.014C126.428 61.418 126.764 61.7538 126.764 62.168C126.764 62.5822 126.428 62.918 126.014 62.918H122.222C121.808 62.918 121.472 62.5822 121.472 62.168ZM131.331 62.168C131.331 61.7538 131.667 61.418 132.081 61.418H135.873C136.288 61.418 136.623 61.7538 136.623 62.168C136.623 62.5822 136.288 62.918 135.873 62.918H132.081C131.667 62.918 131.331 62.5822 131.331 62.168ZM141.191 62.168C141.191 61.7538 141.527 61.418 141.941 61.418H145.733C146.147 61.418 146.483 61.7538 146.483 62.168C146.483 62.5822 146.147 62.918 145.733 62.918H141.941C141.527 62.918 141.191 62.5822 141.191 62.168ZM151.05 62.168C151.05 61.7538 151.386 61.418 151.8 61.418H155.675C156.089 61.418 156.425 61.7538 156.425 62.168C156.425 62.5822 156.089 62.918 155.675 62.918H151.8C151.386 62.918 151.05 62.5822 151.05 62.168ZM161.256 62.168C161.256 61.7538 161.592 61.418 162.006 61.418L165.963 61.418C166.377 61.418 166.713 61.7538 166.713 62.168C166.713 62.5822 166.377 62.918 165.963 62.918H162.006C161.592 62.918 161.256 62.5822 161.256 62.168ZM171.544 62.168C171.544 61.7538 171.88 61.418 172.294 61.418H176.251C176.665 61.418 177.001 61.7538 177.001 62.168C177.001 62.5822 176.665 62.918 176.251 62.918H172.294C171.88 62.918 171.544 62.5822 171.544 62.168ZM181.832 62.168C181.832 61.7538 182.168 61.418 182.582 61.418H186.539C186.953 61.418 187.289 61.7538 187.289 62.168C187.289 62.5822 186.953 62.918 186.539 62.918H182.582C182.168 62.918 181.832 62.5822 181.832 62.168ZM192.12 62.168C192.12 61.7538 192.456 61.418 192.87 61.418H196.827C197.241 61.418 197.577 61.7538 197.577 62.168C197.577 62.5822 197.241 62.918 196.827 62.918H192.87C192.456 62.918 192.12 62.5822 192.12 62.168ZM202.408 62.168C202.408 61.7538 202.744 61.418 203.158 61.418H205.136C205.55 61.418 205.886 61.7538 205.886 62.168C205.886 62.5822 205.55 62.918 205.136 62.918H203.158C202.744 62.918 202.408 62.5822 202.408 62.168Z" fill="url(#paint7_linear_10391_104138)"/>
<path fillRule="evenodd" clipRule="evenodd" d="M106.395 69.9196C106.114 70.2236 105.639 70.2419 105.335 69.9606L97.4801 62.6895C97.3242 62.5452 97.2368 62.3415 97.2396 62.129C97.2425 61.9166 97.3353 61.7153 97.4951 61.5752L105.35 54.6868C105.662 54.4137 106.136 54.4448 106.409 54.7562C106.682 55.0677 106.651 55.5415 106.339 55.8146L99.1099 62.1542L106.354 68.8598C106.658 69.1411 106.676 69.6156 106.395 69.9196Z" fill="#4D9FFF"/>
<path d="M1.15355 113.712H2.76901V121.353H6.62814V122.789H1.15355V113.712ZM7.90694 116.635H9.44547V122.789H7.90694V116.635ZM7.68898 114.545C7.68898 114.297 7.77873 114.084 7.95823 113.904C8.14627 113.716 8.38132 113.622 8.66338 113.622C8.94545 113.622 9.1805 113.712 9.36854 113.891C9.56513 114.062 9.66343 114.28 9.66343 114.545C9.66343 114.81 9.56513 115.032 9.36854 115.212C9.1805 115.383 8.94545 115.468 8.66338 115.468C8.38132 115.468 8.14627 115.378 7.95823 115.199C7.77873 115.011 7.68898 114.793 7.68898 114.545ZM17.825 125.866H16.2865V121.969H16.2609C16.0643 122.276 15.7822 122.52 15.4147 122.699C15.0557 122.879 14.6582 122.969 14.2223 122.969C13.7522 122.969 13.3291 122.883 12.953 122.712C12.5855 122.533 12.2692 122.298 12.0043 122.007C11.7478 121.708 11.547 121.362 11.4017 120.968C11.2649 120.567 11.1965 120.139 11.1965 119.686C11.1965 119.233 11.2692 118.81 11.4145 118.417C11.5598 118.024 11.7649 117.682 12.0299 117.391C12.2949 117.101 12.6111 116.874 12.9787 116.712C13.3462 116.541 13.7479 116.455 14.1838 116.455C14.4659 116.455 14.7181 116.49 14.9403 116.558C15.1711 116.618 15.3762 116.699 15.5557 116.802C15.7352 116.896 15.8848 117.007 16.0044 117.135C16.1326 117.255 16.2352 117.374 16.3121 117.494H16.3506V116.635H17.825V125.866ZM12.7607 119.686C12.7607 119.926 12.7949 120.165 12.8633 120.404C12.9402 120.644 13.0513 120.857 13.1966 121.045C13.3419 121.233 13.5257 121.387 13.7479 121.507C13.9702 121.627 14.2309 121.686 14.53 121.686C14.8121 121.686 15.0642 121.631 15.2865 121.52C15.5087 121.4 15.6967 121.246 15.8506 121.058C16.013 120.87 16.1326 120.661 16.2096 120.43C16.295 120.191 16.3378 119.951 16.3378 119.712C16.3378 119.473 16.295 119.233 16.2096 118.994C16.1326 118.755 16.013 118.541 15.8506 118.353C15.6967 118.165 15.5087 118.011 15.2865 117.891C15.0642 117.772 14.8121 117.712 14.53 117.712C14.2309 117.712 13.9702 117.772 13.7479 117.891C13.5257 118.003 13.3419 118.152 13.1966 118.34C13.0513 118.528 12.9402 118.742 12.8633 118.981C12.7949 119.212 12.7607 119.447 12.7607 119.686ZM25.5412 122.789H24.0796V121.802H24.054C23.9172 122.11 23.6779 122.383 23.336 122.622C23.0026 122.853 22.6052 122.969 22.1436 122.969C21.7419 122.969 21.3957 122.9 21.1051 122.763C20.8231 122.618 20.588 122.43 20.4 122.199C20.2205 121.969 20.088 121.704 20.0025 121.404C19.917 121.105 19.8743 120.798 19.8743 120.481V116.635H21.4128V120.045C21.4128 120.225 21.4256 120.413 21.4513 120.609C21.4769 120.806 21.5325 120.986 21.618 121.148C21.7034 121.302 21.8188 121.43 21.9641 121.533C22.118 121.635 22.3188 121.686 22.5667 121.686C22.806 121.686 23.0155 121.639 23.1949 121.545C23.383 121.443 23.5326 121.315 23.6437 121.161C23.7633 121.007 23.8531 120.832 23.9129 120.635C23.9728 120.43 24.0027 120.225 24.0027 120.02V116.635H25.5412V122.789ZM27.6699 116.635H29.2084V122.789H27.6699V116.635ZM27.4519 114.545C27.4519 114.297 27.5417 114.084 27.7212 113.904C27.9092 113.716 28.1443 113.622 28.4263 113.622C28.7084 113.622 28.9435 113.712 29.1315 113.891C29.3281 114.062 29.4264 114.28 29.4264 114.545C29.4264 114.81 29.3281 115.032 29.1315 115.212C28.9435 115.383 28.7084 115.468 28.4263 115.468C28.1443 115.468 27.9092 115.378 27.7212 115.199C27.5417 115.011 27.4519 114.793 27.4519 114.545ZM37.588 122.789H36.1264V121.866H36.1007C35.8871 122.225 35.5879 122.498 35.2033 122.686C34.8272 122.875 34.4212 122.969 33.9853 122.969C33.5152 122.969 33.0921 122.883 32.716 122.712C32.3484 122.533 32.0322 122.298 31.7672 122.007C31.5108 121.708 31.3099 121.362 31.1646 120.968C31.0279 120.567 30.9595 120.139 30.9595 119.686C30.9595 119.233 31.0321 118.81 31.1775 118.417C31.3228 118.024 31.5279 117.682 31.7929 117.391C32.0578 117.101 32.3741 116.874 32.7416 116.712C33.1092 116.541 33.5109 116.455 33.9468 116.455C34.2289 116.455 34.481 116.49 34.7032 116.558C34.9255 116.618 35.1178 116.695 35.2802 116.789C35.4511 116.883 35.5964 116.985 35.7161 117.097C35.8358 117.208 35.9341 117.314 36.011 117.417H36.0495V113.096H37.588V122.789ZM32.5237 119.686C32.5237 119.926 32.5579 120.165 32.6262 120.404C32.7032 120.644 32.8143 120.857 32.9596 121.045C33.1049 121.233 33.2887 121.387 33.5109 121.507C33.7331 121.627 33.9938 121.686 34.293 121.686C34.575 121.686 34.8272 121.631 35.0494 121.52C35.2716 121.4 35.4597 121.246 35.6135 121.058C35.7759 120.87 35.8956 120.661 35.9725 120.43C36.058 120.191 36.1007 119.951 36.1007 119.712C36.1007 119.473 36.058 119.233 35.9725 118.994C35.8956 118.755 35.7759 118.541 35.6135 118.353C35.4597 118.165 35.2716 118.011 35.0494 117.891C34.8272 117.772 34.575 117.712 34.293 117.712C33.9938 117.712 33.7331 117.772 33.5109 117.891C33.2887 118.003 33.1049 118.152 32.9596 118.34C32.8143 118.528 32.7032 118.742 32.6262 118.981C32.5579 119.212 32.5237 119.447 32.5237 119.686ZM39.7392 116.635H41.2777V122.789H39.7392V116.635ZM39.5213 114.545C39.5213 114.297 39.611 114.084 39.7905 113.904C39.9785 113.716 40.2136 113.622 40.4957 113.622C40.7777 113.622 41.0128 113.712 41.2008 113.891C41.3974 114.062 41.4957 114.28 41.4957 114.545C41.4957 114.81 41.3974 115.032 41.2008 115.212C41.0128 115.383 40.7777 115.468 40.4957 115.468C40.2136 115.468 39.9785 115.378 39.7905 115.199C39.611 115.011 39.5213 114.793 39.5213 114.545ZM42.516 117.866V116.635H43.5929V114.853H45.1058V116.635H46.6444V117.866H45.1058V120.725C45.1058 120.998 45.1528 121.225 45.2469 121.404C45.3494 121.584 45.5717 121.674 45.9136 121.674C46.0161 121.674 46.1272 121.665 46.2469 121.648C46.3666 121.622 46.4734 121.588 46.5674 121.545L46.6187 122.751C46.482 122.802 46.3196 122.84 46.1315 122.866C45.9435 122.9 45.764 122.917 45.593 122.917C45.1828 122.917 44.8494 122.862 44.593 122.751C44.3366 122.631 44.1314 122.473 43.9776 122.276C43.8323 122.071 43.7297 121.84 43.6699 121.584C43.6186 121.319 43.5929 121.037 43.5929 120.738V117.866H42.516ZM47.0911 116.635H48.7963L50.5143 121.11H50.5399L52.0657 116.635H53.6683L50.7579 124.11C50.6468 124.392 50.5271 124.64 50.3989 124.853C50.2707 125.075 50.1169 125.259 49.9374 125.405C49.7579 125.558 49.5442 125.674 49.2963 125.751C49.057 125.828 48.7664 125.866 48.4245 125.866C48.2963 125.866 48.1638 125.858 48.027 125.84C47.8988 125.832 47.7663 125.811 47.6296 125.776L47.7578 124.443C47.8603 124.477 47.9586 124.499 48.0527 124.507C48.1552 124.524 48.2493 124.533 48.3347 124.533C48.4971 124.533 48.6339 124.511 48.745 124.469C48.8561 124.434 48.9501 124.375 49.0271 124.289C49.104 124.212 49.1724 124.114 49.2322 123.994C49.292 123.875 49.3561 123.734 49.4245 123.571L49.7322 122.789L47.0911 116.635ZM58.3825 113.712H61.3442C61.8656 113.712 62.3357 113.759 62.7545 113.853C63.1733 113.947 63.5323 114.101 63.8315 114.314C64.1306 114.528 64.3614 114.802 64.5238 115.135C64.6862 115.468 64.7674 115.87 64.7674 116.34C64.7674 116.844 64.6734 117.267 64.4853 117.609C64.2973 117.951 64.0409 118.229 63.7161 118.443C63.3998 118.648 63.028 118.797 62.6007 118.891C62.1733 118.985 61.7203 119.032 61.2416 119.032H59.998V122.789H58.3825V113.712ZM61.1262 117.673C61.3912 117.673 61.6433 117.656 61.8827 117.622C62.122 117.579 62.3357 117.511 62.5237 117.417C62.7118 117.314 62.8613 117.178 62.9725 117.007C63.0836 116.836 63.1391 116.614 63.1391 116.34C63.1391 116.075 63.0836 115.861 62.9725 115.699C62.8613 115.528 62.7118 115.396 62.5237 115.302C62.3442 115.208 62.1348 115.148 61.8955 115.122C61.6647 115.088 61.4254 115.071 61.1775 115.071H59.998V117.673H61.1262ZM65.7989 116.635H67.2733V117.661H67.299C67.4699 117.302 67.7092 117.011 68.0169 116.789C68.3246 116.567 68.6836 116.455 69.0939 116.455C69.1537 116.455 69.2178 116.46 69.2862 116.468C69.3546 116.468 69.4144 116.477 69.4657 116.494V117.904C69.3632 117.879 69.2734 117.862 69.1965 117.853C69.1281 117.844 69.0597 117.84 68.9913 117.84C68.6409 117.84 68.3588 117.904 68.1452 118.032C67.9315 118.161 67.7648 118.315 67.6451 118.494C67.5255 118.674 67.4443 118.857 67.4015 119.045C67.3588 119.233 67.3374 119.383 67.3374 119.494V122.789H65.7989V116.635ZM70.1411 119.686C70.1411 119.199 70.2266 118.759 70.3976 118.366C70.577 117.964 70.8164 117.622 71.1155 117.34C71.4147 117.058 71.7694 116.84 72.1797 116.686C72.59 116.532 73.0259 116.455 73.4874 116.455C73.949 116.455 74.3849 116.532 74.7952 116.686C75.2054 116.84 75.5602 117.058 75.8593 117.34C76.1585 117.622 76.3935 117.964 76.5645 118.366C76.744 118.759 76.8337 119.199 76.8337 119.686C76.8337 120.174 76.744 120.618 76.5645 121.02C76.3935 121.421 76.1585 121.768 75.8593 122.058C75.5602 122.34 75.2054 122.563 74.7952 122.725C74.3849 122.887 73.949 122.969 73.4874 122.969C73.0259 122.969 72.59 122.887 72.1797 122.725C71.7694 122.563 71.4147 122.34 71.1155 122.058C70.8164 121.768 70.577 121.421 70.3976 121.02C70.2266 120.618 70.1411 120.174 70.1411 119.686ZM71.7053 119.686C71.7053 119.926 71.7395 120.165 71.8079 120.404C71.8848 120.644 71.9959 120.857 72.1412 121.045C72.2865 121.233 72.4703 121.387 72.6925 121.507C72.9148 121.627 73.1797 121.686 73.4874 121.686C73.7951 121.686 74.0601 121.627 74.2823 121.507C74.5046 121.387 74.6883 121.233 74.8336 121.045C74.9789 120.857 75.0858 120.644 75.1542 120.404C75.2311 120.165 75.2696 119.926 75.2696 119.686C75.2696 119.447 75.2311 119.212 75.1542 118.981C75.0858 118.742 74.9789 118.528 74.8336 118.34C74.6883 118.152 74.5046 118.003 74.2823 117.891C74.0601 117.772 73.7951 117.712 73.4874 117.712C73.1797 117.712 72.9148 117.772 72.6925 117.891C72.4703 118.003 72.2865 118.152 72.1412 118.34C71.9959 118.528 71.8848 118.742 71.8079 118.981C71.7395 119.212 71.7053 119.447 71.7053 119.686ZM77.6588 116.635H79.3383L80.9538 121.122H80.9794L82.6077 116.635H84.236L81.7872 122.789H80.1461L77.6588 116.635ZM85.4373 116.635H86.9758V122.789H85.4373V116.635ZM85.2193 114.545C85.2193 114.297 85.309 114.084 85.4885 113.904C85.6766 113.716 85.9116 113.622 86.1937 113.622C86.4758 113.622 86.7108 113.712 86.8989 113.891C87.0954 114.062 87.1937 114.28 87.1937 114.545C87.1937 114.81 87.0954 115.032 86.8989 115.212C86.7108 115.383 86.4758 115.468 86.1937 115.468C85.9116 115.468 85.6766 115.378 85.4885 115.199C85.309 115.011 85.2193 114.793 85.2193 114.545ZM95.3553 122.789H93.8937V121.866H93.8681C93.6544 122.225 93.3553 122.498 92.9706 122.686C92.5945 122.875 92.1885 122.969 91.7526 122.969C91.2825 122.969 90.8594 122.883 90.4833 122.712C90.1158 122.533 89.7995 122.298 89.5346 122.007C89.2782 121.708 89.0773 121.362 88.932 120.968C88.7952 120.567 88.7269 120.139 88.7269 119.686C88.7269 119.233 88.7995 118.81 88.9448 118.417C89.0901 118.024 89.2953 117.682 89.5602 117.391C89.8252 117.101 90.1414 116.874 90.509 116.712C90.8765 116.541 91.2782 116.455 91.7142 116.455C91.9962 116.455 92.2484 116.49 92.4706 116.558C92.6928 116.618 92.8851 116.695 93.0475 116.789C93.2185 116.883 93.3638 116.985 93.4835 117.097C93.6031 117.208 93.7014 117.314 93.7783 117.417H93.8168V113.096H95.3553V122.789ZM90.291 119.686C90.291 119.926 90.3252 120.165 90.3936 120.404C90.4705 120.644 90.5816 120.857 90.7269 121.045C90.8722 121.233 91.056 121.387 91.2782 121.507C91.5005 121.627 91.7612 121.686 92.0603 121.686C92.3424 121.686 92.5945 121.631 92.8168 121.52C93.039 121.4 93.227 121.246 93.3809 121.058C93.5433 120.87 93.663 120.661 93.7399 120.43C93.8254 120.191 93.8681 119.951 93.8681 119.712C93.8681 119.473 93.8254 119.233 93.7399 118.994C93.663 118.755 93.5433 118.541 93.3809 118.353C93.227 118.165 93.039 118.011 92.8168 117.891C92.5945 117.772 92.3424 117.712 92.0603 117.712C91.7612 117.712 91.5005 117.772 91.2782 117.891C91.056 118.003 90.8722 118.152 90.7269 118.34C90.5816 118.528 90.4705 118.742 90.3936 118.981C90.3252 119.212 90.291 119.447 90.291 119.686ZM101.814 119.097C101.814 118.9 101.785 118.712 101.725 118.532C101.673 118.353 101.588 118.195 101.468 118.058C101.349 117.921 101.195 117.814 101.007 117.738C100.827 117.652 100.614 117.609 100.366 117.609C99.9041 117.609 99.5109 117.75 99.1861 118.032C98.8699 118.306 98.6947 118.661 98.6605 119.097H101.814ZM103.353 119.789C103.353 119.857 103.353 119.926 103.353 119.994C103.353 120.062 103.349 120.131 103.34 120.199H98.6605C98.6776 120.421 98.7331 120.627 98.8271 120.815C98.9297 120.994 99.0622 121.152 99.2246 121.289C99.387 121.417 99.5708 121.52 99.7759 121.597C99.981 121.674 100.195 121.712 100.417 121.712C100.802 121.712 101.126 121.644 101.391 121.507C101.656 121.362 101.874 121.165 102.045 120.917L103.071 121.738C102.464 122.558 101.584 122.969 100.43 122.969C99.9511 122.969 99.5109 122.896 99.1092 122.751C98.7075 122.597 98.357 122.383 98.0579 122.11C97.7673 121.836 97.5365 121.503 97.3655 121.11C97.2031 120.708 97.1219 120.255 97.1219 119.75C97.1219 119.255 97.2031 118.806 97.3655 118.404C97.5365 117.994 97.7673 117.648 98.0579 117.366C98.3485 117.075 98.6904 116.853 99.0836 116.699C99.4853 116.537 99.9169 116.455 100.378 116.455C100.806 116.455 101.199 116.528 101.558 116.673C101.926 116.81 102.242 117.02 102.507 117.302C102.772 117.575 102.977 117.921 103.122 118.34C103.276 118.75 103.353 119.233 103.353 119.789ZM105.099 116.635H106.574V117.661H106.6C106.77 117.302 107.01 117.011 107.317 116.789C107.625 116.567 107.984 116.455 108.394 116.455C108.454 116.455 108.518 116.46 108.587 116.468C108.655 116.468 108.715 116.477 108.766 116.494V117.904C108.664 117.879 108.574 117.862 108.497 117.853C108.429 117.844 108.36 117.84 108.292 117.84C107.941 117.84 107.659 117.904 107.446 118.032C107.232 118.161 107.065 118.315 106.946 118.494C106.826 118.674 106.745 118.857 106.702 119.045C106.659 119.233 106.638 119.383 106.638 119.494V122.789H105.099V116.635Z" fill="white"/>
<path d="M421.309 113.923H427.169V115.333H422.925V117.82H426.925V119.179H422.925V123H421.309V113.923ZM428.639 116.846H430.177V123H428.639V116.846ZM428.421 114.756C428.421 114.508 428.51 114.295 428.69 114.115C428.878 113.927 429.113 113.833 429.395 113.833C429.677 113.833 429.912 113.923 430.1 114.102C430.297 114.273 430.395 114.491 430.395 114.756C430.395 115.021 430.297 115.243 430.1 115.423C429.912 115.594 429.677 115.679 429.395 115.679C429.113 115.679 428.878 115.589 428.69 115.41C428.51 115.222 428.421 115.004 428.421 114.756ZM433.864 119.731L431.646 116.846H433.492L434.826 118.756L436.198 116.846H437.967L435.762 119.731L438.275 123H436.403L434.8 120.756L433.185 123H431.364L433.864 119.731ZM443.651 119.308C443.651 119.111 443.621 118.923 443.561 118.743C443.51 118.564 443.425 118.406 443.305 118.269C443.185 118.132 443.031 118.025 442.843 117.949C442.664 117.863 442.45 117.82 442.202 117.82C441.741 117.82 441.348 117.961 441.023 118.243C440.707 118.517 440.531 118.872 440.497 119.308H443.651ZM445.19 120C445.19 120.068 445.19 120.137 445.19 120.205C445.19 120.273 445.185 120.342 445.177 120.41H440.497C440.514 120.632 440.57 120.838 440.664 121.026C440.766 121.205 440.899 121.363 441.061 121.5C441.224 121.628 441.407 121.731 441.613 121.808C441.818 121.885 442.031 121.923 442.254 121.923C442.638 121.923 442.963 121.855 443.228 121.718C443.493 121.573 443.711 121.376 443.882 121.128L444.908 121.949C444.301 122.769 443.42 123.179 442.266 123.179C441.788 123.179 441.348 123.107 440.946 122.962C440.544 122.808 440.194 122.594 439.895 122.32C439.604 122.047 439.373 121.714 439.202 121.32C439.04 120.919 438.959 120.466 438.959 119.961C438.959 119.466 439.04 119.017 439.202 118.615C439.373 118.205 439.604 117.859 439.895 117.577C440.185 117.286 440.527 117.064 440.92 116.91C441.322 116.748 441.754 116.666 442.215 116.666C442.643 116.666 443.036 116.739 443.395 116.884C443.762 117.021 444.078 117.231 444.343 117.513C444.608 117.786 444.814 118.132 444.959 118.551C445.113 118.961 445.19 119.444 445.19 120ZM453.193 123H451.731V122.077H451.706C451.492 122.436 451.193 122.709 450.808 122.897C450.432 123.085 450.026 123.179 449.59 123.179C449.12 123.179 448.697 123.094 448.321 122.923C447.953 122.744 447.637 122.509 447.372 122.218C447.116 121.919 446.915 121.573 446.769 121.179C446.633 120.778 446.564 120.35 446.564 119.897C446.564 119.444 446.637 119.021 446.782 118.628C446.928 118.235 447.133 117.893 447.398 117.602C447.663 117.312 447.979 117.085 448.346 116.923C448.714 116.752 449.116 116.666 449.552 116.666C449.834 116.666 450.086 116.701 450.308 116.769C450.53 116.829 450.723 116.906 450.885 117C451.056 117.094 451.201 117.196 451.321 117.307C451.441 117.419 451.539 117.525 451.616 117.628H451.654V113.307H453.193V123ZM448.128 119.897C448.128 120.137 448.163 120.376 448.231 120.615C448.308 120.855 448.419 121.068 448.564 121.256C448.71 121.444 448.893 121.598 449.116 121.718C449.338 121.838 449.599 121.897 449.898 121.897C450.18 121.897 450.432 121.842 450.654 121.731C450.876 121.611 451.064 121.457 451.218 121.269C451.381 121.081 451.5 120.872 451.577 120.641C451.663 120.402 451.706 120.162 451.706 119.923C451.706 119.684 451.663 119.444 451.577 119.205C451.5 118.966 451.381 118.752 451.218 118.564C451.064 118.376 450.876 118.222 450.654 118.102C450.432 117.983 450.18 117.923 449.898 117.923C449.599 117.923 449.338 117.983 449.116 118.102C448.893 118.213 448.71 118.363 448.564 118.551C448.419 118.739 448.308 118.953 448.231 119.192C448.163 119.423 448.128 119.658 448.128 119.897ZM458.857 113.923H462.011C462.438 113.923 462.853 113.97 463.255 114.064C463.656 114.149 464.011 114.295 464.319 114.5C464.635 114.705 464.887 114.974 465.075 115.307C465.263 115.641 465.357 116.047 465.357 116.525C465.357 117.184 465.169 117.722 464.793 118.141C464.426 118.551 463.921 118.829 463.28 118.974L465.703 123H463.755L461.652 119.154H460.472V123H458.857V113.923ZM461.793 117.833C462.024 117.833 462.255 117.816 462.485 117.782C462.716 117.748 462.921 117.684 463.101 117.59C463.289 117.495 463.443 117.363 463.562 117.192C463.682 117.013 463.742 116.786 463.742 116.513C463.742 116.265 463.686 116.064 463.575 115.91C463.464 115.748 463.323 115.619 463.152 115.525C462.981 115.431 462.784 115.367 462.562 115.333C462.349 115.299 462.139 115.282 461.934 115.282H460.472V117.833H461.793ZM470.77 122.218H470.732C470.578 122.491 470.33 122.718 469.988 122.897C469.646 123.068 469.257 123.154 468.821 123.154C468.573 123.154 468.313 123.12 468.039 123.051C467.774 122.991 467.526 122.889 467.296 122.744C467.073 122.59 466.885 122.393 466.731 122.154C466.586 121.906 466.514 121.603 466.514 121.244C466.514 120.782 466.642 120.414 466.898 120.141C467.163 119.867 467.501 119.658 467.911 119.513C468.321 119.367 468.774 119.273 469.27 119.231C469.774 119.179 470.266 119.154 470.744 119.154V119C470.744 118.615 470.603 118.333 470.321 118.154C470.048 117.966 469.719 117.872 469.334 117.872C469.009 117.872 468.697 117.94 468.398 118.077C468.099 118.213 467.851 118.38 467.655 118.577L466.86 117.641C467.21 117.316 467.612 117.072 468.065 116.91C468.526 116.748 468.992 116.666 469.462 116.666C470.009 116.666 470.458 116.743 470.809 116.897C471.168 117.051 471.45 117.252 471.655 117.5C471.86 117.748 472.001 118.025 472.078 118.333C472.163 118.641 472.206 118.949 472.206 119.256V123H470.77V122.218ZM470.744 120.192H470.398C470.15 120.192 469.89 120.205 469.616 120.231C469.343 120.248 469.091 120.295 468.86 120.372C468.629 120.44 468.437 120.543 468.283 120.679C468.129 120.808 468.052 120.987 468.052 121.218C468.052 121.363 468.082 121.487 468.142 121.59C468.21 121.684 468.296 121.761 468.398 121.82C468.501 121.88 468.616 121.923 468.744 121.949C468.873 121.974 469.001 121.987 469.129 121.987C469.659 121.987 470.061 121.846 470.334 121.564C470.608 121.282 470.744 120.897 470.744 120.41V120.192ZM473.245 118.077V116.846H474.322V115.064H475.835V116.846H477.373V118.077H475.835V120.936C475.835 121.209 475.882 121.436 475.976 121.615C476.079 121.795 476.301 121.885 476.643 121.885C476.745 121.885 476.856 121.876 476.976 121.859C477.096 121.833 477.203 121.799 477.297 121.756L477.348 122.962C477.211 123.013 477.049 123.051 476.861 123.077C476.673 123.111 476.493 123.128 476.322 123.128C475.912 123.128 475.579 123.073 475.322 122.962C475.066 122.842 474.861 122.684 474.707 122.487C474.561 122.282 474.459 122.051 474.399 121.795C474.348 121.53 474.322 121.248 474.322 120.949V118.077H473.245ZM483.077 119.308C483.077 119.111 483.047 118.923 482.987 118.743C482.936 118.564 482.85 118.406 482.731 118.269C482.611 118.132 482.457 118.025 482.269 117.949C482.09 117.863 481.876 117.82 481.628 117.82C481.166 117.82 480.773 117.961 480.449 118.243C480.132 118.517 479.957 118.872 479.923 119.308H483.077ZM484.615 120C484.615 120.068 484.615 120.137 484.615 120.205C484.615 120.273 484.611 120.342 484.603 120.41H479.923C479.94 120.632 479.996 120.838 480.09 121.026C480.192 121.205 480.325 121.363 480.487 121.5C480.649 121.628 480.833 121.731 481.038 121.808C481.243 121.885 481.457 121.923 481.679 121.923C482.064 121.923 482.389 121.855 482.654 121.718C482.919 121.573 483.137 121.376 483.308 121.128L484.333 121.949C483.726 122.769 482.846 123.179 481.692 123.179C481.214 123.179 480.773 123.107 480.372 122.962C479.97 122.808 479.619 122.594 479.32 122.32C479.03 122.047 478.799 121.714 478.628 121.32C478.466 120.919 478.384 120.466 478.384 119.961C478.384 119.466 478.466 119.017 478.628 118.615C478.799 118.205 479.03 117.859 479.32 117.577C479.611 117.286 479.953 117.064 480.346 116.91C480.748 116.748 481.179 116.666 481.641 116.666C482.068 116.666 482.461 116.739 482.82 116.884C483.188 117.021 483.504 117.231 483.769 117.513C484.034 117.786 484.239 118.132 484.385 118.551C484.538 118.961 484.615 119.444 484.615 120ZM489.9 113.923H492.862C493.383 113.923 493.854 113.97 494.272 114.064C494.691 114.158 495.05 114.312 495.349 114.525C495.649 114.739 495.879 115.012 496.042 115.346C496.204 115.679 496.285 116.081 496.285 116.551C496.285 117.055 496.191 117.478 496.003 117.82C495.815 118.162 495.559 118.44 495.234 118.654C494.918 118.859 494.546 119.008 494.119 119.102C493.691 119.196 493.238 119.243 492.76 119.243H491.516V123H489.9V113.923ZM492.644 117.884C492.909 117.884 493.161 117.867 493.401 117.833C493.64 117.79 493.854 117.722 494.042 117.628C494.23 117.525 494.379 117.389 494.49 117.218C494.601 117.047 494.657 116.825 494.657 116.551C494.657 116.286 494.601 116.072 494.49 115.91C494.379 115.739 494.23 115.607 494.042 115.513C493.862 115.418 493.653 115.359 493.413 115.333C493.183 115.299 492.943 115.282 492.695 115.282H491.516V117.884H492.644ZM496.707 119.897C496.707 119.41 496.793 118.97 496.964 118.577C497.143 118.175 497.383 117.833 497.682 117.551C497.981 117.269 498.336 117.051 498.746 116.897C499.156 116.743 499.592 116.666 500.054 116.666C500.515 116.666 500.951 116.743 501.361 116.897C501.772 117.051 502.126 117.269 502.426 117.551C502.725 117.833 502.96 118.175 503.131 118.577C503.31 118.97 503.4 119.41 503.4 119.897C503.4 120.385 503.31 120.829 503.131 121.231C502.96 121.632 502.725 121.979 502.426 122.269C502.126 122.551 501.772 122.773 501.361 122.936C500.951 123.098 500.515 123.179 500.054 123.179C499.592 123.179 499.156 123.098 498.746 122.936C498.336 122.773 497.981 122.551 497.682 122.269C497.383 121.979 497.143 121.632 496.964 121.231C496.793 120.829 496.707 120.385 496.707 119.897ZM498.272 119.897C498.272 120.137 498.306 120.376 498.374 120.615C498.451 120.855 498.562 121.068 498.707 121.256C498.853 121.444 499.037 121.598 499.259 121.718C499.481 121.838 499.746 121.897 500.054 121.897C500.361 121.897 500.626 121.838 500.849 121.718C501.071 121.598 501.255 121.444 501.4 121.256C501.545 121.068 501.652 120.855 501.72 120.615C501.797 120.376 501.836 120.137 501.836 119.897C501.836 119.658 501.797 119.423 501.72 119.192C501.652 118.953 501.545 118.739 501.4 118.551C501.255 118.363 501.071 118.213 500.849 118.102C500.626 117.983 500.361 117.923 500.054 117.923C499.746 117.923 499.481 117.983 499.259 118.102C499.037 118.213 498.853 118.363 498.707 118.551C498.562 118.739 498.451 118.953 498.374 119.192C498.306 119.423 498.272 119.658 498.272 119.897ZM504.789 119.897C504.789 119.41 504.875 118.97 505.046 118.577C505.225 118.175 505.464 117.833 505.764 117.551C506.063 117.269 506.417 117.051 506.828 116.897C507.238 116.743 507.674 116.666 508.135 116.666C508.597 116.666 509.033 116.743 509.443 116.897C509.854 117.051 510.208 117.269 510.507 117.551C510.807 117.833 511.042 118.175 511.213 118.577C511.392 118.97 511.482 119.41 511.482 119.897C511.482 120.385 511.392 120.829 511.213 121.231C511.042 121.632 510.807 121.979 510.507 122.269C510.208 122.551 509.854 122.773 509.443 122.936C509.033 123.098 508.597 123.179 508.135 123.179C507.674 123.179 507.238 123.098 506.828 122.936C506.417 122.773 506.063 122.551 505.764 122.269C505.464 121.979 505.225 121.632 505.046 121.231C504.875 120.829 504.789 120.385 504.789 119.897ZM506.353 119.897C506.353 120.137 506.388 120.376 506.456 120.615C506.533 120.855 506.644 121.068 506.789 121.256C506.935 121.444 507.118 121.598 507.341 121.718C507.563 121.838 507.828 121.897 508.135 121.897C508.443 121.897 508.708 121.838 508.93 121.718C509.153 121.598 509.336 121.444 509.482 121.256C509.627 121.068 509.734 120.855 509.802 120.615C509.879 120.376 509.918 120.137 509.918 119.897C509.918 119.658 509.879 119.423 509.802 119.192C509.734 118.953 509.627 118.739 509.482 118.551C509.336 118.363 509.153 118.213 508.93 118.102C508.708 117.983 508.443 117.923 508.135 117.923C507.828 117.923 507.563 117.983 507.341 118.102C507.118 118.213 506.935 118.363 506.789 118.551C506.644 118.739 506.533 118.953 506.456 119.192C506.388 119.423 506.353 119.658 506.353 119.897ZM513.256 113.307H514.794V123H513.256V113.307ZM520.289 118.487C520.152 118.307 519.964 118.154 519.725 118.025C519.485 117.889 519.225 117.82 518.943 117.82C518.695 117.82 518.468 117.872 518.263 117.974C518.058 118.077 517.956 118.248 517.956 118.487C517.956 118.726 518.067 118.897 518.289 119C518.52 119.094 518.853 119.192 519.289 119.295C519.52 119.346 519.75 119.414 519.981 119.5C520.221 119.585 520.434 119.701 520.622 119.846C520.819 119.983 520.977 120.158 521.097 120.372C521.216 120.577 521.276 120.829 521.276 121.128C521.276 121.504 521.204 121.825 521.058 122.09C520.921 122.346 520.733 122.556 520.494 122.718C520.263 122.88 519.99 122.996 519.674 123.064C519.366 123.141 519.045 123.179 518.712 123.179C518.233 123.179 517.767 123.094 517.314 122.923C516.861 122.744 516.485 122.491 516.186 122.167L517.199 121.218C517.37 121.44 517.592 121.624 517.866 121.769C518.139 121.914 518.443 121.987 518.776 121.987C518.887 121.987 518.998 121.974 519.109 121.949C519.229 121.923 519.336 121.885 519.43 121.833C519.532 121.773 519.614 121.697 519.674 121.603C519.733 121.508 519.763 121.393 519.763 121.256C519.763 121 519.644 120.816 519.404 120.705C519.174 120.594 518.823 120.483 518.353 120.372C518.122 120.32 517.896 120.256 517.673 120.179C517.46 120.094 517.267 119.987 517.096 119.859C516.926 119.722 516.789 119.555 516.686 119.359C516.584 119.162 516.532 118.919 516.532 118.628C516.532 118.286 516.601 117.991 516.738 117.743C516.883 117.495 517.071 117.295 517.302 117.141C517.532 116.978 517.793 116.859 518.084 116.782C518.374 116.705 518.673 116.666 518.981 116.666C519.426 116.666 519.857 116.743 520.276 116.897C520.703 117.051 521.041 117.286 521.289 117.602L520.289 118.487Z" fill="white"/>
<path d="M482.172 63.5997L493.612 60.2406L505.052 63.5997L512.86 72.6105L514.557 84.4122L509.604 95.2579L499.573 101.704H487.65L477.62 95.2579L472.667 84.4122L474.364 72.6105L482.172 63.5997Z" fill="url(#paint8_linear_10391_104138)" fill-opacity="0.5" stroke="url(#paint9_linear_10391_104138)" stroke-width="1.57103"/>
<path d="M438.213 35.209L449.653 31.8499L461.093 35.209L468.901 44.2199L470.598 56.0216L465.645 66.8672L455.614 73.3133H443.691L433.661 66.8672L428.708 56.0216L430.405 44.2199L438.213 35.209Z" fill="url(#paint10_linear_10391_104138)" fill-opacity="0.5" stroke="url(#paint11_linear_10391_104138)" stroke-width="1.57103"/>
<path d="M482.172 5.90436L493.612 2.54524L505.052 5.90436L512.86 14.9152L514.557 26.7169L509.604 37.5625L499.573 44.0086H487.65L477.62 37.5625L472.667 26.7169L474.364 14.9152L482.172 5.90436Z" fill="url(#paint12_linear_10391_104138)" fill-opacity="0.5" stroke="url(#paint13_linear_10391_104138)" stroke-width="1.57103"/>
<path d="M219.79 25.5391H302.211V78.6549H219.79V25.5391Z" fill="#33F8FF" fill-opacity="0.1"/>
<path fillRule="evenodd" clipRule="evenodd" d="M218.874 24.623H221.621C222.127 24.623 222.537 25.0331 222.537 25.5388C222.537 26.0446 222.127 26.4546 221.621 26.4546H220.706V27.3094C220.706 27.8151 220.296 28.2252 219.79 28.2252C219.284 28.2252 218.874 27.8151 218.874 27.3094V24.623ZM226.2 25.5388C226.2 25.0331 226.61 24.623 227.116 24.623H230.779C231.285 24.623 231.695 25.0331 231.695 25.5388C231.695 26.0446 231.285 26.4546 230.779 26.4546H227.116C226.61 26.4546 226.2 26.0446 226.2 25.5388ZM235.358 25.5388C235.358 25.0331 235.768 24.623 236.274 24.623H239.937C240.443 24.623 240.853 25.0331 240.853 25.5388C240.853 26.0446 240.443 26.4546 239.937 26.4546H236.274C235.768 26.4546 235.358 26.0446 235.358 25.5388ZM244.516 25.5388C244.516 25.0331 244.926 24.623 245.432 24.623H249.095C249.601 24.623 250.011 25.0331 250.011 25.5388C250.011 26.0446 249.601 26.4546 249.095 26.4546H245.432C244.926 26.4546 244.516 26.0446 244.516 25.5388ZM253.674 25.5388C253.674 25.0331 254.084 24.623 254.59 24.623H258.253C258.759 24.623 259.169 25.0331 259.169 25.5388C259.169 26.0446 258.759 26.4546 258.253 26.4546H254.59C254.084 26.4546 253.674 26.0446 253.674 25.5388ZM262.832 25.5388C262.832 25.0331 263.242 24.623 263.748 24.623H267.411C267.917 24.623 268.327 25.0331 268.327 25.5388C268.327 26.0446 267.917 26.4546 267.411 26.4546H263.748C263.242 26.4546 262.832 26.0446 262.832 25.5388ZM271.99 25.5388C271.99 25.0331 272.4 24.623 272.906 24.623H276.569C277.075 24.623 277.485 25.0331 277.485 25.5388C277.485 26.0446 277.075 26.4546 276.569 26.4546H272.906C272.4 26.4546 271.99 26.0446 271.99 25.5388ZM281.148 25.5388C281.148 25.0331 281.558 24.623 282.063 24.623H285.727C286.232 24.623 286.642 25.0331 286.642 25.5388C286.642 26.0446 286.232 26.4546 285.727 26.4546H282.063C281.558 26.4546 281.148 26.0446 281.148 25.5388ZM290.306 25.5388C290.306 25.0331 290.716 24.623 291.221 24.623H294.885C295.39 24.623 295.8 25.0331 295.8 25.5388C295.8 26.0446 295.39 26.4546 294.885 26.4546H291.221C290.716 26.4546 290.306 26.0446 290.306 25.5388ZM299.463 25.5388C299.463 25.0331 299.874 24.623 300.379 24.623H303.127V27.3094C303.127 27.8151 302.717 28.2251 302.211 28.2251C301.705 28.2251 301.295 27.8151 301.295 27.3094V26.4546H300.379C299.874 26.4546 299.463 26.0446 299.463 25.5388ZM302.211 31.7051C302.717 31.7051 303.127 32.1152 303.127 32.6209V36.162C303.127 36.6678 302.717 37.0778 302.211 37.0778C301.705 37.0778 301.295 36.6678 301.295 36.162V32.6209C301.295 32.1152 301.705 31.7051 302.211 31.7051ZM219.79 31.7052C220.296 31.7052 220.706 32.1152 220.706 32.6209V36.162C220.706 36.6678 220.296 37.0778 219.79 37.0778C219.284 37.0778 218.874 36.6678 218.874 36.162V32.6209C218.874 32.1152 219.284 31.7052 219.79 31.7052ZM302.211 40.5578C302.717 40.5578 303.127 40.9678 303.127 41.4736V45.0146C303.127 45.5204 302.717 45.9304 302.211 45.9304C301.705 45.9304 301.295 45.5204 301.295 45.0146V41.4736C301.295 40.9678 301.705 40.5578 302.211 40.5578ZM219.79 40.5578C220.296 40.5578 220.706 40.9678 220.706 41.4736V45.0146C220.706 45.5204 220.296 45.9304 219.79 45.9304C219.284 45.9304 218.874 45.5204 218.874 45.0146V41.4736C218.874 40.9678 219.284 40.5578 219.79 40.5578ZM302.211 49.4104C302.717 49.4104 303.127 49.8204 303.127 50.3262V53.8673C303.127 54.373 302.717 54.783 302.211 54.783C301.705 54.783 301.295 54.373 301.295 53.8673V50.3262C301.295 49.8204 301.705 49.4104 302.211 49.4104ZM219.79 49.4104C220.296 49.4104 220.706 49.8204 220.706 50.3262V53.8673C220.706 54.373 220.296 54.783 219.79 54.783C219.284 54.783 218.874 54.373 218.874 53.8673V50.3262C218.874 49.8204 219.284 49.4104 219.79 49.4104ZM302.211 58.263C302.717 58.263 303.127 58.6731 303.127 59.1788V62.7199C303.127 63.2257 302.717 63.6357 302.211 63.6357C301.705 63.6357 301.295 63.2257 301.295 62.7199V59.1788C301.295 58.6731 301.705 58.263 302.211 58.263ZM219.79 58.2631C220.296 58.2631 220.706 58.6731 220.706 59.1788V62.7199C220.706 63.2257 220.296 63.6357 219.79 63.6357C219.284 63.6357 218.874 63.2257 218.874 62.7199V59.1788C218.874 58.6731 219.284 58.2631 219.79 58.2631ZM302.211 67.1157C302.717 67.1157 303.127 67.5257 303.127 68.0315V71.5725C303.127 72.0783 302.717 72.4883 302.211 72.4883C301.705 72.4883 301.295 72.0783 301.295 71.5725V68.0315C301.295 67.5257 301.705 67.1157 302.211 67.1157ZM219.79 67.1157C220.296 67.1157 220.706 67.5257 220.706 68.0315V71.5725C220.706 72.0783 220.296 72.4883 219.79 72.4883C219.284 72.4883 218.874 72.0783 218.874 71.5725V68.0315C218.874 67.5257 219.284 67.1157 219.79 67.1157ZM302.211 75.9683C302.717 75.9683 303.127 76.3783 303.127 76.8841V79.5704H300.379C299.874 79.5704 299.463 79.1604 299.463 78.6546C299.463 78.1489 299.874 77.7388 300.379 77.7388H301.295V76.8841C301.295 76.3783 301.705 75.9683 302.211 75.9683ZM219.79 75.9683C220.296 75.9683 220.706 76.3783 220.706 76.8841V77.7388H221.621C222.127 77.7388 222.537 78.1489 222.537 78.6546C222.537 79.1604 222.127 79.5704 221.621 79.5704H218.874V76.8841C218.874 76.3783 219.284 75.9683 219.79 75.9683ZM226.2 78.6546C226.2 78.1489 226.61 77.7388 227.116 77.7388H230.779C231.285 77.7388 231.695 78.1489 231.695 78.6546C231.695 79.1604 231.285 79.5704 230.779 79.5704H227.116C226.61 79.5704 226.2 79.1604 226.2 78.6546ZM235.358 78.6546C235.358 78.1489 235.768 77.7388 236.274 77.7388H239.937C240.443 77.7388 240.853 78.1489 240.853 78.6546C240.853 79.1604 240.443 79.5704 239.937 79.5704H236.274C235.768 79.5704 235.358 79.1604 235.358 78.6546ZM244.516 78.6546C244.516 78.1489 244.926 77.7388 245.432 77.7388H249.095C249.601 77.7388 250.011 78.1489 250.011 78.6546C250.011 79.1604 249.601 79.5704 249.095 79.5704H245.432C244.926 79.5704 244.516 79.1604 244.516 78.6546ZM253.674 78.6546C253.674 78.1489 254.084 77.7388 254.59 77.7388H258.253C258.759 77.7388 259.169 78.1489 259.169 78.6546C259.169 79.1604 258.759 79.5704 258.253 79.5704H254.59C254.084 79.5704 253.674 79.1604 253.674 78.6546ZM262.832 78.6546C262.832 78.1489 263.242 77.7388 263.748 77.7388H267.411C267.917 77.7388 268.327 78.1489 268.327 78.6546C268.327 79.1604 267.917 79.5704 267.411 79.5704H263.748C263.242 79.5704 262.832 79.1604 262.832 78.6546ZM271.99 78.6546C271.99 78.1489 272.4 77.7388 272.906 77.7388H276.569C277.075 77.7388 277.485 78.1489 277.485 78.6546C277.485 79.1604 277.075 79.5704 276.569 79.5704H272.906C272.4 79.5704 271.99 79.1604 271.99 78.6546ZM281.148 78.6546C281.148 78.1489 281.558 77.7388 282.063 77.7388H285.727C286.232 77.7388 286.642 78.1489 286.642 78.6546C286.642 79.1604 286.232 79.5704 285.727 79.5704H282.063C281.558 79.5704 281.148 79.1604 281.148 78.6546ZM290.306 78.6546C290.306 78.1489 290.716 77.7388 291.221 77.7388H294.885C295.39 77.7388 295.8 78.1489 295.8 78.6546C295.8 79.1604 295.39 79.5704 294.885 79.5704H291.221C290.716 79.5704 290.306 79.1604 290.306 78.6546Z" fill="url(#paint14_linear_10391_104138)"/>
<path d="M211.872 116.635H213.334V117.622H213.36C213.496 117.314 213.731 117.045 214.065 116.814C214.407 116.575 214.808 116.455 215.27 116.455C215.672 116.455 216.013 116.528 216.296 116.673C216.586 116.81 216.821 116.994 217.001 117.225C217.189 117.456 217.325 117.72 217.411 118.02C217.496 118.319 217.539 118.626 217.539 118.943V122.789H216.001V119.379C216.001 119.199 215.988 119.011 215.962 118.815C215.937 118.618 215.881 118.443 215.796 118.289C215.71 118.126 215.59 117.994 215.437 117.891C215.291 117.789 215.095 117.738 214.847 117.738C214.599 117.738 214.385 117.789 214.206 117.891C214.026 117.985 213.877 118.109 213.757 118.263C213.646 118.417 213.56 118.597 213.501 118.802C213.441 118.998 213.411 119.199 213.411 119.404V122.789H211.872V116.635ZM218.745 113.712H220.514L222.271 120.379H222.296L224.296 113.712H225.963L227.925 120.379H227.95L229.745 113.712H231.463L228.809 122.789H227.245L225.117 115.981H225.091L222.963 122.789H221.399L218.745 113.712ZM232.795 113.712H236.334C236.676 113.712 237.014 113.754 237.347 113.84C237.68 113.917 237.975 114.049 238.232 114.237C238.497 114.417 238.71 114.652 238.873 114.943C239.035 115.233 239.116 115.584 239.116 115.994C239.116 116.507 238.971 116.93 238.68 117.263C238.39 117.597 238.009 117.836 237.539 117.981V118.007C238.112 118.084 238.582 118.306 238.95 118.674C239.317 119.041 239.501 119.533 239.501 120.148C239.501 120.644 239.403 121.062 239.206 121.404C239.009 121.738 238.749 122.007 238.424 122.212C238.108 122.417 237.74 122.567 237.321 122.661C236.911 122.746 236.492 122.789 236.065 122.789H232.795V113.712ZM234.411 117.404H235.847C236.385 117.404 236.796 117.297 237.078 117.084C237.36 116.87 237.501 116.567 237.501 116.173C237.501 115.763 237.355 115.473 237.065 115.302C236.774 115.131 236.321 115.045 235.706 115.045H234.411V117.404ZM234.411 121.43H235.86C236.065 121.43 236.287 121.417 236.526 121.392C236.766 121.357 236.984 121.293 237.18 121.199C237.385 121.105 237.552 120.968 237.68 120.789C237.817 120.609 237.885 120.37 237.885 120.071C237.885 119.592 237.723 119.259 237.398 119.071C237.073 118.883 236.582 118.789 235.924 118.789H234.411V121.43ZM243.186 115.122H240.404V113.712H247.584V115.122H244.802V122.789H243.186V115.122ZM255.06 115.84C254.82 115.515 254.508 115.28 254.124 115.135C253.739 114.981 253.363 114.904 252.996 114.904C252.525 114.904 252.098 114.99 251.713 115.161C251.329 115.331 250.996 115.567 250.713 115.866C250.44 116.165 250.226 116.515 250.072 116.917C249.927 117.319 249.854 117.755 249.854 118.225C249.854 118.721 249.927 119.174 250.072 119.584C250.218 119.994 250.423 120.349 250.688 120.648C250.961 120.939 251.286 121.165 251.662 121.327C252.038 121.49 252.461 121.571 252.931 121.571C253.419 121.571 253.85 121.477 254.226 121.289C254.603 121.092 254.906 120.836 255.137 120.52L256.432 121.43C256.03 121.934 255.538 122.328 254.957 122.61C254.376 122.883 253.696 123.02 252.919 123.02C252.209 123.02 251.555 122.904 250.957 122.674C250.367 122.434 249.859 122.105 249.431 121.686C249.004 121.259 248.671 120.755 248.431 120.174C248.192 119.584 248.072 118.934 248.072 118.225C248.072 117.498 248.196 116.844 248.444 116.263C248.701 115.673 249.047 115.173 249.483 114.763C249.927 114.353 250.448 114.037 251.047 113.814C251.645 113.592 252.295 113.481 252.996 113.481C253.286 113.481 253.59 113.511 253.906 113.571C254.222 113.622 254.526 113.707 254.816 113.827C255.107 113.938 255.38 114.079 255.637 114.25C255.893 114.421 256.111 114.626 256.291 114.866L255.06 115.84ZM263.774 113.712H265.172L269.082 122.789H267.236L266.39 120.712H262.454L261.633 122.789H259.826L263.774 113.712ZM265.826 119.327L264.428 115.635L263.005 119.327H265.826ZM274.365 118.34C274.246 118.169 274.066 118.028 273.827 117.917C273.587 117.797 273.344 117.738 273.096 117.738C272.814 117.738 272.566 117.797 272.352 117.917C272.139 118.028 271.959 118.178 271.814 118.366C271.677 118.554 271.575 118.768 271.506 119.007C271.438 119.238 271.404 119.473 271.404 119.712C271.404 119.951 271.438 120.191 271.506 120.43C271.583 120.661 271.694 120.87 271.84 121.058C271.985 121.246 272.164 121.4 272.378 121.52C272.6 121.631 272.857 121.686 273.147 121.686C273.387 121.686 273.626 121.639 273.865 121.545C274.105 121.451 274.297 121.315 274.442 121.135L275.404 122.11C275.147 122.383 274.818 122.597 274.417 122.751C274.023 122.896 273.596 122.969 273.134 122.969C272.681 122.969 272.25 122.896 271.84 122.751C271.438 122.605 271.083 122.392 270.775 122.11C270.476 121.827 270.237 121.486 270.057 121.084C269.886 120.682 269.801 120.225 269.801 119.712C269.801 119.216 269.886 118.768 270.057 118.366C270.237 117.964 270.476 117.622 270.775 117.34C271.075 117.058 271.421 116.84 271.814 116.686C272.216 116.532 272.643 116.455 273.096 116.455C273.549 116.455 273.985 116.541 274.404 116.712C274.831 116.883 275.169 117.118 275.417 117.417L274.365 118.34ZM280.882 118.34C280.762 118.169 280.583 118.028 280.344 117.917C280.104 117.797 279.861 117.738 279.613 117.738C279.331 117.738 279.083 117.797 278.869 117.917C278.655 118.028 278.476 118.178 278.331 118.366C278.194 118.554 278.091 118.768 278.023 119.007C277.955 119.238 277.92 119.473 277.92 119.712C277.92 119.951 277.955 120.191 278.023 120.43C278.1 120.661 278.211 120.87 278.356 121.058C278.502 121.246 278.681 121.4 278.895 121.52C279.117 121.631 279.373 121.686 279.664 121.686C279.903 121.686 280.143 121.639 280.382 121.545C280.621 121.451 280.814 121.315 280.959 121.135L281.92 122.11C281.664 122.383 281.335 122.597 280.933 122.751C280.54 122.896 280.113 122.969 279.651 122.969C279.198 122.969 278.767 122.896 278.356 122.751C277.955 122.605 277.6 122.392 277.292 122.11C276.993 121.827 276.754 121.486 276.574 121.084C276.403 120.682 276.318 120.225 276.318 119.712C276.318 119.216 276.403 118.768 276.574 118.366C276.754 117.964 276.993 117.622 277.292 117.34C277.591 117.058 277.937 116.84 278.331 116.686C278.732 116.532 279.16 116.455 279.613 116.455C280.066 116.455 280.502 116.541 280.92 116.712C281.348 116.883 281.685 117.118 281.933 117.417L280.882 118.34ZM282.834 119.686C282.834 119.199 282.92 118.759 283.091 118.366C283.27 117.964 283.51 117.622 283.809 117.34C284.108 117.058 284.463 116.84 284.873 116.686C285.283 116.532 285.719 116.455 286.181 116.455C286.642 116.455 287.078 116.532 287.488 116.686C287.899 116.84 288.253 117.058 288.553 117.34C288.852 117.622 289.087 117.964 289.258 118.366C289.437 118.759 289.527 119.199 289.527 119.686C289.527 120.174 289.437 120.618 289.258 121.02C289.087 121.421 288.852 121.768 288.553 122.058C288.253 122.34 287.899 122.563 287.488 122.725C287.078 122.887 286.642 122.969 286.181 122.969C285.719 122.969 285.283 122.887 284.873 122.725C284.463 122.563 284.108 122.34 283.809 122.058C283.51 121.768 283.27 121.421 283.091 121.02C282.92 120.618 282.834 120.174 282.834 119.686ZM284.399 119.686C284.399 119.926 284.433 120.165 284.501 120.404C284.578 120.644 284.689 120.857 284.834 121.045C284.98 121.233 285.164 121.387 285.386 121.507C285.608 121.627 285.873 121.686 286.181 121.686C286.488 121.686 286.753 121.627 286.976 121.507C287.198 121.387 287.382 121.233 287.527 121.045C287.672 120.857 287.779 120.644 287.847 120.404C287.924 120.165 287.963 119.926 287.963 119.686C287.963 119.447 287.924 119.212 287.847 118.981C287.779 118.742 287.672 118.528 287.527 118.34C287.382 118.152 287.198 118.003 286.976 117.891C286.753 117.772 286.488 117.712 286.181 117.712C285.873 117.712 285.608 117.772 285.386 117.891C285.164 118.003 284.98 118.152 284.834 118.34C284.689 118.528 284.578 118.742 284.501 118.981C284.433 119.212 284.399 119.447 284.399 119.686ZM296.891 122.789H295.429V121.802H295.404C295.267 122.11 295.027 122.383 294.686 122.622C294.352 122.853 293.955 122.969 293.493 122.969C293.091 122.969 292.745 122.9 292.455 122.763C292.173 122.618 291.938 122.43 291.75 122.199C291.57 121.969 291.438 121.704 291.352 121.404C291.267 121.105 291.224 120.798 291.224 120.481V116.635H292.762V120.045C292.762 120.225 292.775 120.413 292.801 120.609C292.826 120.806 292.882 120.986 292.968 121.148C293.053 121.302 293.168 121.43 293.314 121.533C293.468 121.635 293.668 121.686 293.916 121.686C294.156 121.686 294.365 121.639 294.545 121.545C294.733 121.443 294.882 121.315 294.993 121.161C295.113 121.007 295.203 120.832 295.262 120.635C295.322 120.43 295.352 120.225 295.352 120.02V116.635H296.891V122.789ZM298.994 116.635H300.455V117.622H300.481C300.618 117.314 300.853 117.045 301.186 116.814C301.528 116.575 301.93 116.455 302.391 116.455C302.793 116.455 303.135 116.528 303.417 116.673C303.708 116.81 303.943 116.994 304.122 117.225C304.31 117.456 304.447 117.72 304.533 118.02C304.618 118.319 304.661 118.626 304.661 118.943V122.789H303.122V119.379C303.122 119.199 303.109 119.011 303.084 118.815C303.058 118.618 303.003 118.443 302.917 118.289C302.832 118.126 302.712 117.994 302.558 117.891C302.413 117.789 302.216 117.738 301.968 117.738C301.72 117.738 301.507 117.789 301.327 117.891C301.148 117.985 300.998 118.109 300.879 118.263C300.767 118.417 300.682 118.597 300.622 118.802C300.562 118.998 300.532 119.199 300.532 119.404V122.789H298.994V116.635ZM305.828 117.866V116.635H306.905V114.853H308.418V116.635H309.956V117.866H308.418V120.725C308.418 120.998 308.465 121.225 308.559 121.404C308.661 121.584 308.884 121.674 309.225 121.674C309.328 121.674 309.439 121.665 309.559 121.648C309.678 121.622 309.785 121.588 309.879 121.545L309.931 122.751C309.794 122.802 309.631 122.84 309.443 122.866C309.255 122.9 309.076 122.917 308.905 122.917C308.495 122.917 308.161 122.862 307.905 122.751C307.648 122.631 307.443 122.473 307.289 122.276C307.144 122.071 307.042 121.84 306.982 121.584C306.93 121.319 306.905 121.037 306.905 120.738V117.866H305.828Z" fill="white"/>
<path d="M149.298 24.1765H150.815L152.32 29.891H152.342L154.057 24.1765H155.485L157.167 29.891H157.189L158.727 24.1765H160.2L157.925 31.957H156.584L154.76 26.1216H154.738L152.914 31.957H151.573L149.298 24.1765ZM161.671 24.1765H164.705C164.998 24.1765 165.287 24.2131 165.573 24.2864C165.858 24.3523 166.111 24.4659 166.331 24.6271C166.558 24.7809 166.741 24.9824 166.88 25.2315C167.02 25.4806 167.089 25.7809 167.089 26.1326C167.089 26.5722 166.965 26.9348 166.716 27.2206C166.467 27.5063 166.141 27.7114 165.738 27.836V27.858C166.228 27.9239 166.631 28.1144 166.946 28.4294C167.261 28.7444 167.419 29.1657 167.419 29.6932C167.419 30.1181 167.335 30.4771 167.166 30.7702C166.998 31.0559 166.774 31.2867 166.496 31.4625C166.225 31.6383 165.91 31.7665 165.551 31.8471C165.199 31.9204 164.84 31.957 164.474 31.957H161.671V24.1765ZM163.056 27.3415H164.287C164.749 27.3415 165.1 27.2499 165.342 27.0667C165.584 26.8836 165.705 26.6235 165.705 26.2865C165.705 25.9348 165.58 25.6857 165.331 25.5392C165.082 25.3927 164.694 25.3194 164.166 25.3194H163.056V27.3415ZM163.056 30.7921H164.298C164.474 30.7921 164.664 30.7812 164.869 30.7592C165.075 30.7299 165.261 30.6749 165.43 30.5943C165.606 30.5137 165.749 30.3965 165.858 30.2427C165.976 30.0888 166.034 29.8837 166.034 29.6273C166.034 29.217 165.895 28.9313 165.617 28.7701C165.338 28.6089 164.917 28.5283 164.353 28.5283H163.056V30.7921ZM170.908 25.3853H168.523V24.1765H174.677V25.3853H172.292V31.957H170.908V25.3853ZM181.415 26.0007C181.209 25.7223 180.942 25.5209 180.612 25.3963C180.283 25.2644 179.96 25.1985 179.645 25.1985C179.242 25.1985 178.876 25.2718 178.546 25.4183C178.217 25.5648 177.931 25.7663 177.689 26.0227C177.455 26.2791 177.272 26.5795 177.14 26.9239C177.015 27.2682 176.953 27.6418 176.953 28.0448C176.953 28.4697 177.015 28.858 177.14 29.2097C177.264 29.5613 177.44 29.8654 177.667 30.1218C177.902 30.3709 178.18 30.565 178.502 30.7042C178.825 30.8434 179.187 30.913 179.59 30.913C180.008 30.913 180.378 30.8324 180.7 30.6713C181.023 30.5028 181.283 30.283 181.481 30.0119L182.59 30.7921C182.246 31.2244 181.825 31.5614 181.327 31.8032C180.828 32.0376 180.246 32.1548 179.579 32.1548C178.971 32.1548 178.411 32.0559 177.898 31.8581C177.392 31.653 176.957 31.3709 176.59 31.0119C176.224 30.6456 175.938 30.2134 175.733 29.7152C175.528 29.2097 175.425 28.6529 175.425 28.0448C175.425 27.422 175.532 26.8616 175.744 26.3634C175.964 25.8579 176.261 25.4293 176.634 25.0776C177.015 24.726 177.462 24.4549 177.975 24.2644C178.488 24.0739 179.045 23.9787 179.645 23.9787C179.894 23.9787 180.154 24.0043 180.426 24.0556C180.697 24.0996 180.957 24.1728 181.206 24.2754C181.455 24.3706 181.689 24.4915 181.909 24.638C182.129 24.7846 182.316 24.9604 182.47 25.1655L181.415 26.0007Z" fill="white"/>
<path d="M146.789 75.8911H148.042V76.7373H148.064C148.181 76.4735 148.383 76.2427 148.668 76.0449C148.962 75.8398 149.306 75.7372 149.701 75.7372C150.046 75.7372 150.339 75.7995 150.581 75.924C150.83 76.0413 151.031 76.1988 151.185 76.3966C151.346 76.5944 151.463 76.8215 151.537 77.0779C151.61 77.3344 151.647 77.5981 151.647 77.8692V81.166H150.328V78.2428C150.328 78.089 150.317 77.9278 150.295 77.7593C150.273 77.5908 150.225 77.4406 150.152 77.3087C150.079 77.1695 149.976 77.056 149.844 76.968C149.72 76.8801 149.551 76.8362 149.339 76.8362C149.126 76.8362 148.943 76.8801 148.789 76.968C148.636 77.0486 148.507 77.1549 148.405 77.2867C148.309 77.4186 148.236 77.5725 148.185 77.7483C148.134 77.9168 148.108 78.089 148.108 78.2648V81.166H146.789V75.8911ZM153.01 73.3855H154.526L156.032 79.1H156.054L157.768 73.3855H159.197L160.878 79.1H160.9L162.439 73.3855H163.911L161.636 81.166H160.296L158.471 75.3306H158.449L156.625 81.166H155.284L153.01 73.3855ZM165.383 73.3855H168.416C168.709 73.3855 168.998 73.4221 169.284 73.4954C169.57 73.5613 169.823 73.6749 170.042 73.836C170.269 73.9899 170.453 74.1914 170.592 74.4405C170.731 74.6896 170.801 74.9899 170.801 75.3416C170.801 75.7812 170.676 76.1438 170.427 76.4296C170.178 76.7153 169.852 76.9204 169.449 77.045V77.0669C169.94 77.1329 170.343 77.3234 170.658 77.6384C170.973 77.9534 171.13 78.3747 171.13 78.9022C171.13 79.3271 171.046 79.6861 170.878 79.9792C170.709 80.2649 170.486 80.4957 170.207 80.6715C169.936 80.8473 169.621 80.9755 169.262 81.0561C168.91 81.1294 168.551 81.166 168.185 81.166H165.383V73.3855ZM166.767 76.5504H167.998C168.46 76.5504 168.812 76.4589 169.053 76.2757C169.295 76.0925 169.416 75.8325 169.416 75.4954C169.416 75.1438 169.291 74.8947 169.042 74.7482C168.793 74.6016 168.405 74.5284 167.877 74.5284H166.767V76.5504ZM166.767 80.0011H168.009C168.185 80.0011 168.376 79.9901 168.581 79.9682C168.786 79.9389 168.973 79.8839 169.141 79.8033C169.317 79.7227 169.46 79.6055 169.57 79.4517C169.687 79.2978 169.746 79.0927 169.746 78.8362C169.746 78.426 169.606 78.1402 169.328 77.9791C169.05 77.8179 168.628 77.7373 168.064 77.7373H166.767V80.0011ZM174.619 74.5943H172.234V73.3855H178.388V74.5943H176.004V81.166H174.619V74.5943ZM185.126 75.2097C184.921 74.9313 184.653 74.7298 184.324 74.6053C183.994 74.4734 183.672 74.4075 183.357 74.4075C182.954 74.4075 182.587 74.4808 182.258 74.6273C181.928 74.7738 181.642 74.9753 181.4 75.2317C181.166 75.4881 180.983 75.7885 180.851 76.1328C180.726 76.4772 180.664 76.8508 180.664 77.2538C180.664 77.6787 180.726 78.067 180.851 78.4186C180.976 78.7703 181.151 79.0744 181.378 79.3308C181.613 79.5799 181.891 79.774 182.214 79.9132C182.536 80.0524 182.899 80.122 183.302 80.122C183.719 80.122 184.089 80.0414 184.412 79.8802C184.734 79.7117 184.994 79.492 185.192 79.2209L186.302 80.0011C185.957 80.4334 185.536 80.7704 185.038 81.0122C184.54 81.2466 183.957 81.3638 183.291 81.3638C182.683 81.3638 182.122 81.2649 181.609 81.0671C181.104 80.862 180.668 80.5799 180.302 80.2209C179.935 79.8546 179.649 79.4224 179.444 78.9242C179.239 78.4186 179.137 77.8618 179.137 77.2538C179.137 76.631 179.243 76.0706 179.455 75.5724C179.675 75.0669 179.972 74.6383 180.345 74.2866C180.726 73.9349 181.173 73.6639 181.686 73.4734C182.199 73.2829 182.756 73.1877 183.357 73.1877C183.606 73.1877 183.866 73.2133 184.137 73.2646C184.408 73.3085 184.668 73.3818 184.917 73.4844C185.166 73.5796 185.401 73.7005 185.62 73.847C185.84 73.9936 186.027 74.1694 186.181 74.3745L185.126 75.2097Z" fill="white"/>
<g clip-path="url(#clip0_10391_104138)">
<path d="M144.653 28.2833C144.653 32.3296 141.373 35.6097 137.326 35.6097C133.28 35.6097 130 32.3296 130 28.2833C130 24.2371 133.28 20.957 137.326 20.957C141.373 20.957 144.653 24.2371 144.653 28.2833Z" fill="white"/>
<path d="M141.948 24.0309L141.546 24.4332C142.506 25.483 143.038 26.8541 143.038 28.2767C143.038 29.6993 142.506 31.0704 141.546 32.1203L141.948 32.5226C143.016 31.3645 143.609 29.8471 143.609 28.272C143.609 26.6969 143.016 25.1795 141.948 24.0215V24.0309Z" fill="#21B9BA"/>
<path d="M133.487 24.0666C134.537 23.1066 135.908 22.5742 137.33 22.5742C138.753 22.5742 140.124 23.1066 141.174 24.0666L141.576 23.6643C140.418 22.5966 138.901 22.0039 137.326 22.0039C135.751 22.0039 134.233 22.5966 133.075 23.6643L133.487 24.0666Z" fill="#21B9BA"/>
<path d="M133.11 32.1264C132.151 31.0768 131.619 29.7065 131.619 28.2849C131.619 26.8632 132.151 25.4929 133.11 24.4433L132.707 24.041C131.64 25.1991 131.047 26.7165 131.047 28.2916C131.047 29.8667 131.64 31.3841 132.707 32.5421L133.11 32.1264Z" fill="#21B9BA"/>
<path d="M141.168 32.498C140.119 33.4581 138.748 33.9904 137.325 33.9904C135.902 33.9904 134.531 33.4581 133.481 32.498L133.079 32.9004C134.237 33.968 135.755 34.5607 137.33 34.5607C138.905 34.5607 140.422 33.968 141.58 32.9004L141.168 32.498Z" fill="#21B9BA"/>
<path d="M139.866 26.9411C139.786 26.1016 139.061 25.82 138.145 25.7341V24.5781H137.437V25.7127C137.251 25.7127 137.061 25.7127 136.871 25.7127V24.5781H136.169V25.7422H134.732V26.4999C134.732 26.4999 135.255 26.4905 135.247 26.4999C135.342 26.4895 135.436 26.5162 135.511 26.5742C135.586 26.6322 135.636 26.7171 135.65 26.811V29.9974C135.648 30.0305 135.639 30.0629 135.624 30.0926C135.61 30.1223 135.589 30.1488 135.564 30.1704C135.539 30.1925 135.51 30.2093 135.479 30.2199C135.448 30.2305 135.414 30.2347 135.382 30.2321C135.391 30.2402 134.867 30.2321 134.867 30.2321L134.732 31.0783H136.155V32.2612H136.863V31.0958H137.429V32.2558H138.139V31.0864C139.335 31.014 140.169 30.7189 140.274 29.5991C140.358 28.6979 139.934 28.2956 139.257 28.1333C139.669 27.9308 139.924 27.5553 139.866 26.9411ZM138.874 29.4597C138.874 30.3394 137.366 30.2388 136.886 30.2388V28.6778C137.366 28.6791 138.874 28.541 138.874 29.4597ZM138.545 27.2603C138.545 28.0649 137.287 27.967 136.888 27.967V26.5482C137.287 26.5482 138.545 26.4221 138.545 27.2603Z" fill="#014250"/>
<path d="M137.325 35.6097C135.876 35.6094 134.46 35.1795 133.255 34.3744C132.051 33.5693 131.112 32.425 130.557 31.0864C130.003 29.7477 129.858 28.2748 130.141 26.8537C130.424 25.4327 131.121 24.1274 132.146 23.1029C133.17 22.0783 134.476 21.3806 135.897 21.0979C137.318 20.8151 138.791 20.9601 140.129 21.5145C141.468 22.0688 142.612 23.0076 143.417 24.2122C144.222 25.4168 144.652 26.8331 144.653 28.282C144.653 29.2443 144.463 30.1973 144.095 31.0864C143.727 31.9755 143.187 32.7834 142.507 33.4638C141.826 34.1443 141.018 34.6841 140.129 35.0522C139.24 35.4204 138.287 35.6098 137.325 35.6097ZM137.325 21.5283C135.99 21.5294 134.686 21.9262 133.576 22.6685C132.467 23.4108 131.602 24.4654 131.092 25.6989C130.582 26.9324 130.449 28.2895 130.71 29.5987C130.97 30.9078 131.614 32.1102 132.558 33.0539C133.502 33.9977 134.704 34.6403 136.014 34.9007C137.323 35.161 138.68 35.0274 139.913 34.5167C141.147 34.006 142.201 33.1411 142.943 32.0314C143.685 30.9216 144.081 29.6169 144.081 28.282C144.082 27.3948 143.907 26.5162 143.568 25.6965C143.228 24.8767 142.731 24.1319 142.103 23.5047C141.476 22.8775 140.731 22.3801 139.911 22.0409C139.091 21.7018 138.212 21.5276 137.325 21.5283Z" fill="#014250"/>
</g>
<path d="M139.787 81.2099C138.446 82.7087 136.496 83.652 134.326 83.652C130.28 83.652 127 80.3719 127 76.3257C127 74.3844 127.755 72.6195 128.987 71.3086L139.787 81.2099Z" fill="url(#paint15_radial_10391_104138)"/>
<path d="M141.652 76.3263C141.652 78.2027 140.946 79.9144 139.786 81.2105L134.326 76.3263L128.986 71.3092C130.323 69.8877 132.22 69 134.325 69C138.371 69 141.652 72.2801 141.652 76.3263Z" fill="url(#paint16_radial_10391_104138)"/>
<mask id="mask0_10391_104138" style="mask-type:luminance" maskUnits="userSpaceOnUse" x="128" y="70" width="13" height="13">
<path d="M140.431 70.2227H128.221V82.4332H140.431V70.2227Z" fill="white"/>
</mask>
<g mask="url(#mask0_10391_104138)">
<path d="M138.178 72.7852L137.843 73.1204C138.643 73.9953 139.086 75.1379 139.086 76.3234C139.086 77.5089 138.643 78.6515 137.843 79.5263L138.178 79.8616C139.068 78.8965 139.562 77.632 139.562 76.3195C139.562 75.0069 139.068 73.7424 138.178 72.7773V72.7852Z" fill="white"/>
<path d="M131.126 72.8146C132.001 72.0146 133.144 71.571 134.329 71.571C135.515 71.571 136.657 72.0146 137.532 72.8146L137.867 72.4793C136.902 71.5897 135.638 71.0957 134.325 71.0957C133.013 71.0957 131.748 71.5897 130.783 72.4793L131.126 72.8146Z" fill="white"/>
<path d="M130.813 79.5308C130.014 78.6561 129.571 77.5142 129.571 76.3295C129.571 75.1448 130.014 74.0029 130.813 73.1282L130.477 72.793C129.588 73.758 129.094 75.0225 129.094 76.3351C129.094 77.6477 129.588 78.9122 130.477 79.8772L130.813 79.5308Z" fill="white"/>
<path d="M137.528 79.8398C136.653 80.6398 135.511 81.0835 134.325 81.0835C133.14 81.0835 131.997 80.6398 131.122 79.8398L130.787 80.1751C131.752 81.0648 133.017 81.5587 134.329 81.5587C135.642 81.5587 136.906 81.0648 137.871 80.1751L137.528 79.8398Z" fill="white"/>
<path d="M136.442 75.2094C136.375 74.5098 135.772 74.2751 135.008 74.2036V73.2402H134.418V74.1857C134.263 74.1857 134.104 74.1857 133.947 74.1857V73.2402H133.361V74.2103H132.164V74.8417C132.164 74.8417 132.6 74.8339 132.593 74.8417C132.672 74.8331 132.751 74.8553 132.813 74.9036C132.876 74.952 132.917 75.0228 132.928 75.101V77.7563C132.927 77.7839 132.92 77.8109 132.907 77.8357C132.895 77.8604 132.878 77.8824 132.857 77.9005C132.836 77.9188 132.812 77.9329 132.786 77.9417C132.76 77.9506 132.732 77.954 132.705 77.9519C132.713 77.9586 132.276 77.9519 132.276 77.9519L132.164 78.6571H133.35V79.6428H133.94V78.6716H134.411V79.6383H135.003V78.6638C136 78.6034 136.695 78.3576 136.782 77.4244C136.852 76.6734 136.499 76.3381 135.935 76.2029C136.278 76.0341 136.49 75.7212 136.442 75.2094ZM135.615 77.3082C135.615 78.0413 134.359 77.9575 133.959 77.9575V76.6566C134.359 76.6577 135.615 76.5426 135.615 77.3082ZM135.341 75.4754C135.341 76.1459 134.293 76.0643 133.96 76.0643V74.8819C134.293 74.8819 135.341 74.7769 135.341 75.4754Z" fill="white"/>
<path d="M134.325 82.4332C133.117 82.4329 131.937 82.0747 130.933 81.4038C129.93 80.7329 129.147 79.7793 128.685 78.6638C128.223 77.5482 128.102 76.3208 128.338 75.1366C128.574 73.9524 129.155 72.8646 130.009 72.0109C130.863 71.1571 131.95 70.5756 133.135 70.34C134.319 70.1044 135.546 70.2252 136.662 70.6872C137.777 71.1491 138.731 71.9315 139.402 72.9353C140.073 73.9392 140.431 75.1194 140.431 76.3268C140.431 77.1287 140.274 77.9229 139.967 78.6638C139.66 79.4047 139.21 80.078 138.643 80.645C138.076 81.2121 137.403 81.6618 136.662 81.9687C135.921 82.2755 135.127 82.4333 134.325 82.4332ZM134.325 70.6987C133.212 70.6996 132.125 71.0303 131.201 71.6489C130.276 72.2675 129.556 73.1463 129.131 74.1742C128.705 75.2022 128.595 76.3331 128.812 77.4241C129.029 78.515 129.565 79.517 130.352 80.3034C131.139 81.0898 132.141 81.6254 133.232 81.8424C134.323 82.0593 135.454 81.9479 136.482 81.5224C137.509 81.0968 138.388 80.3761 139.006 79.4512C139.624 78.5265 139.955 77.4392 139.955 76.3268C139.955 75.5875 139.81 74.8553 139.527 74.1722C139.244 73.4891 138.83 72.8684 138.307 72.3457C137.784 71.823 137.163 71.4085 136.48 71.1259C135.796 70.8433 135.064 70.6982 134.325 70.6987Z" fill="white"/>
</g>
<g clip-path="url(#clip1_10391_104138)">
<path d="M349.147 37.4409C349.147 43.0044 344.637 47.5146 339.074 47.5146C333.51 47.5146 329 43.0044 329 37.4409C329 31.8773 333.51 27.3672 339.074 27.3672C344.637 27.3672 349.147 31.8773 349.147 37.4409Z" fill="white"/>
<path d="M345.428 31.5949L344.875 32.1481C346.195 33.5917 346.927 35.4769 346.927 37.433C346.927 39.3891 346.195 41.2743 344.875 42.7178L345.428 43.271C346.896 41.6787 347.711 39.5923 347.711 37.4265C347.711 35.2608 346.896 33.1743 345.428 31.582V31.5949Z" fill="#21B9BA"/>
<path d="M333.795 31.6428C335.238 30.3228 337.123 29.5908 339.079 29.5908C341.036 29.5908 342.921 30.3228 344.364 31.6428L344.918 31.0897C343.325 29.6217 341.239 28.8066 339.073 28.8066C336.907 28.8066 334.821 29.6217 333.229 31.0897L333.795 31.6428Z" fill="#21B9BA"/>
<path d="M333.276 42.7228C331.957 41.2796 331.226 39.3955 331.226 37.4408C331.226 35.486 331.957 33.6019 333.276 32.1587L332.722 31.6055C331.254 33.1978 330.439 35.2842 330.439 37.45C330.439 39.6157 331.254 41.7022 332.722 43.2945L333.276 42.7228Z" fill="#21B9BA"/>
<path d="M344.356 43.2363C342.913 44.5563 341.028 45.2884 339.071 45.2884C337.115 45.2884 335.23 44.5563 333.787 43.2363L333.233 43.7895C334.826 45.2575 336.912 46.0725 339.078 46.0725C341.244 46.0725 343.33 45.2575 344.922 43.7895L344.356 43.2363Z" fill="#21B9BA"/>
<path d="M342.567 35.5948C342.456 34.4405 341.46 34.0532 340.201 33.9352V32.3457H339.227V33.9057C338.971 33.9057 338.709 33.9057 338.449 33.9057V32.3457H337.483V33.9463H335.508V34.9881C335.508 34.9881 336.227 34.9752 336.216 34.9881C336.346 34.9739 336.476 35.0105 336.579 35.0903C336.682 35.1701 336.75 35.2868 336.769 35.4159V39.7972C336.766 39.8428 336.754 39.8873 336.734 39.9281C336.714 39.969 336.686 40.0054 336.651 40.0351C336.617 40.0654 336.577 40.0886 336.534 40.1031C336.491 40.1177 336.446 40.1234 336.4 40.1199C336.413 40.131 335.692 40.1199 335.692 40.1199L335.508 41.2835H337.464V42.9099H338.438V41.3075H339.216V42.9025H340.192V41.2946C341.836 41.195 342.983 40.7893 343.127 39.2496C343.243 38.0104 342.661 37.4572 341.729 37.2341C342.296 36.9557 342.646 36.4393 342.567 35.5948ZM341.202 39.0578C341.202 40.2675 339.129 40.1292 338.469 40.1292V37.9828C339.129 37.9846 341.202 37.7947 341.202 39.0578ZM340.75 36.0337C340.75 37.1401 339.021 37.0055 338.471 37.0055V35.0545C339.021 35.0545 340.75 34.8812 340.75 36.0337Z" fill="#014250"/>
<path d="M339.072 47.5146C337.08 47.5142 335.132 46.9231 333.476 45.8161C331.82 44.709 330.529 43.1357 329.766 41.2951C329.004 39.4544 328.805 37.4291 329.194 35.4751C329.582 33.5212 330.542 31.7264 331.951 30.3177C333.359 28.909 335.154 27.9496 337.108 27.5608C339.062 27.1721 341.087 27.3714 342.928 28.1337C344.769 28.8959 346.342 30.1868 347.449 31.8431C348.556 33.4994 349.147 35.4468 349.147 37.439C349.148 38.7622 348.887 40.0725 348.381 41.2951C347.875 42.5176 347.133 43.6284 346.197 44.564C345.261 45.4997 344.15 46.2418 342.928 46.7481C341.705 47.2544 340.395 47.5148 339.072 47.5146ZM339.072 28.1527C337.236 28.1542 335.443 28.6997 333.917 29.7205C332.392 30.7412 331.203 32.1912 330.501 33.8873C329.8 35.5834 329.617 37.4494 329.976 39.2495C330.334 41.0495 331.219 42.7028 332.517 44.0004C333.815 45.298 335.469 46.1817 337.269 46.5397C339.069 46.8977 340.935 46.7139 342.631 46.0117C344.326 45.3095 345.776 44.1203 346.796 42.5944C347.816 41.0685 348.361 39.2745 348.362 37.439C348.362 36.2191 348.122 35.011 347.656 33.8839C347.189 32.7568 346.505 31.7327 345.642 30.8702C344.779 30.0078 343.755 29.3239 342.627 28.8576C341.5 28.3913 340.292 28.1518 339.072 28.1527Z" fill="#014250"/>
</g>
<path d="M271.923 61.8612C269.24 64.8589 265.341 66.7454 261.001 66.7454C252.909 66.7454 246.349 60.1852 246.349 52.0928C246.349 48.2103 247.859 44.6805 250.323 42.0586L271.923 61.8612Z" fill="url(#paint17_radial_10391_104138)"/>
<path d="M275.652 52.094C275.652 55.8468 274.241 59.2702 271.921 61.8625L261.001 52.094L250.321 42.0598C252.994 39.2168 256.789 37.4414 260.999 37.4414C269.092 37.4414 275.652 44.0016 275.652 52.094Z" fill="url(#paint18_radial_10391_104138)"/>
<mask id="mask1_10391_104138" style="mask-type:luminance" maskUnits="userSpaceOnUse" x="248" y="39" width="26" height="26">
<path d="M273.212 39.8828H248.791V64.3039H273.212V39.8828Z" fill="white"/>
</mask>
<g mask="url(#mask1_10391_104138)">
<path d="M268.705 45.0078L268.034 45.6784C269.634 47.4281 270.521 49.7133 270.521 52.0842C270.521 54.4553 269.634 56.7405 268.034 58.4901L268.705 59.1607C270.484 57.2306 271.472 54.7015 271.472 52.0764C271.472 49.4513 270.484 46.9223 268.705 44.9922V45.0078Z" fill="white"/>
<path d="M254.602 45.0648C256.352 43.4648 258.637 42.5775 261.008 42.5775C263.379 42.5775 265.664 43.4648 267.414 45.0648L268.085 44.3942C266.154 42.6149 263.625 41.627 261 41.627C258.375 41.627 255.846 42.6149 253.916 44.3942L254.602 45.0648Z" fill="white"/>
<path d="M253.975 58.4971C252.377 56.7477 251.491 54.464 251.491 52.0945C251.491 49.7251 252.377 47.4414 253.975 45.692L253.304 45.0215C251.525 46.9516 250.537 49.4806 250.537 52.1058C250.537 54.7309 251.525 57.26 253.304 59.19L253.975 58.4971Z" fill="white"/>
<path d="M267.405 59.1172C265.655 60.7171 263.37 61.6045 260.999 61.6045C258.628 61.6045 256.343 60.7171 254.593 59.1172L253.923 59.7877C255.853 61.5671 258.382 62.5549 261.007 62.5549C263.632 62.5549 266.161 61.5671 268.091 59.7877L267.405 59.1172Z" fill="white"/>
<path d="M265.234 49.8563C265.1 48.4571 263.893 47.9877 262.366 47.8447V45.918H261.186V47.8089C260.875 47.8089 260.558 47.8089 260.243 47.8089V45.918H259.072V47.8581H256.678V49.1209C256.678 49.1209 257.549 49.1053 257.536 49.1209C257.693 49.1036 257.851 49.148 257.976 49.2448C258.101 49.3415 258.184 49.483 258.207 49.6395V54.9501C258.203 55.0053 258.189 55.0593 258.164 55.1089C258.14 55.1583 258.105 55.2024 258.064 55.2385C258.022 55.2752 257.974 55.3032 257.922 55.321C257.87 55.3387 257.815 55.3455 257.76 55.3413C257.775 55.3547 256.901 55.3413 256.901 55.3413L256.678 56.7517H259.049V58.7231H260.229V56.7807H261.173V58.7141H262.355V56.7651C264.349 56.6443 265.739 56.1526 265.913 54.2864C266.054 52.7843 265.348 52.1137 264.219 51.8433C264.905 51.5058 265.33 50.88 265.234 49.8563ZM263.58 54.0539C263.58 55.5201 261.068 55.3525 260.267 55.3525V52.7508C261.068 52.753 263.58 52.5228 263.58 54.0539ZM263.032 50.3883C263.032 51.7293 260.936 51.5661 260.27 51.5661V49.2014C260.936 49.2014 263.032 48.9913 263.032 50.3883Z" fill="white"/>
<path d="M260.999 64.3039C258.584 64.3034 256.224 63.587 254.216 62.245C252.209 60.9032 250.644 58.9962 249.72 56.7651C248.796 54.534 248.555 52.0791 249.026 49.7107C249.497 47.3422 250.66 45.1667 252.367 43.4592C254.075 41.7517 256.25 40.5888 258.619 40.1175C260.987 39.6463 263.442 39.888 265.673 40.8119C267.904 41.7358 269.811 43.3005 271.153 45.3081C272.495 47.3158 273.212 49.6763 273.212 52.0911C273.212 53.695 272.897 55.2832 272.283 56.7651C271.669 58.247 270.77 59.5934 269.636 60.7275C268.502 61.8616 267.155 62.7612 265.673 63.3749C264.191 63.9885 262.603 64.3041 260.999 64.3039ZM260.999 40.835C258.774 40.8367 256.6 41.498 254.751 42.7353C252.902 43.9725 251.461 45.7301 250.611 47.786C249.761 49.8418 249.539 52.1037 249.974 54.2856C250.408 56.4675 251.48 58.4715 253.054 60.0443C254.627 61.6172 256.632 62.6883 258.814 63.1223C260.996 63.5561 263.258 63.3334 265.313 62.4823C267.369 61.6311 269.126 60.1896 270.362 58.34C271.599 56.4905 272.259 54.3159 272.26 52.0911C272.26 50.6124 271.97 49.1481 271.404 47.7819C270.838 46.4156 270.009 45.1743 268.963 44.1289C267.917 43.0835 266.675 42.2545 265.309 41.6893C263.942 41.1241 262.478 40.8338 260.999 40.835Z" fill="white"/>
</g>
<defs>
<linearGradient id="paint0_linear_10391_104138" x1="54.489" y1="22.7891" x2="54.489" y2="80.4838" gradientUnits="userSpaceOnUse">
<stop stop-color="#2BCAD0"/>
<stop offset="1" stop-color="#8BA4E5"/>
</linearGradient>
<linearGradient id="paint1_linear_10391_104138" x1="54.489" y1="22.7891" x2="54.489" y2="71.5256" gradientUnits="userSpaceOnUse">
<stop stop-color="#2BCAD0"/>
<stop offset="1" stop-color="#8BA4E5"/>
</linearGradient>
<linearGradient id="paint2_linear_10391_104138" x1="54.489" y1="22.7891" x2="54.489" y2="71.5256" gradientUnits="userSpaceOnUse">
<stop stop-color="#2BCAD0"/>
<stop offset="1" stop-color="#8BA4E5"/>
</linearGradient>
<linearGradient id="paint3_linear_10391_104138" x1="198.726" y1="42.4375" x2="97.9887" y2="42.4375" gradientUnits="userSpaceOnUse">
<stop stop-color="#33F8FF"/>
<stop offset="1" stop-color="#8F9BB3"/>
</linearGradient>
<linearGradient id="paint4_linear_10391_104138" x1="406.61" y1="52.5938" x2="316.863" y2="52.5937" gradientUnits="userSpaceOnUse">
<stop offset="0.0319181" stop-color="#33F8FF"/>
<stop offset="1" stop-color="#8F9BB3"/>
</linearGradient>
<linearGradient id="paint5_linear_10391_104138" x1="450.11" y1="69.7247" x2="316.863" y2="69.7246" gradientUnits="userSpaceOnUse">
<stop offset="0.0148017" stop-color="#33F8FF"/>
<stop offset="1" stop-color="#8F9BB3"/>
</linearGradient>
<linearGradient id="paint6_linear_10391_104138" x1="449.652" y1="34.4648" x2="316.863" y2="34.4648" gradientUnits="userSpaceOnUse">
<stop offset="0.00672806" stop-color="#33F8FF"/>
<stop offset="1" stop-color="#8F9BB3"/>
</linearGradient>
<linearGradient id="paint7_linear_10391_104138" x1="104.399" y1="61.668" x2="205.136" y2="61.668" gradientUnits="userSpaceOnUse">
<stop stop-color="#4D9FFF"/>
<stop offset="1" stop-color="#8BA4E5"/>
</linearGradient>
<linearGradient id="paint8_linear_10391_104138" x1="544.125" y1="105.151" x2="543.281" y2="59.7513" gradientUnits="userSpaceOnUse">
<stop stop-color="#BFC9F5" stop-opacity="0.5"/>
<stop offset="0.0001" stop-color="#8EA1F5" stop-opacity="0.5"/>
<stop offset="1" stop-color="#26CBCF"/>
</linearGradient>
<linearGradient id="paint9_linear_10391_104138" x1="544.125" y1="105.151" x2="543.281" y2="59.7513" gradientUnits="userSpaceOnUse">
<stop stop-color="#BFC9F5" stop-opacity="0.5"/>
<stop offset="0.0001" stop-color="#8EA1F5" stop-opacity="0.5"/>
<stop offset="1" stop-color="#26CBCF"/>
</linearGradient>
<linearGradient id="paint10_linear_10391_104138" x1="500.166" y1="76.7606" x2="499.322" y2="31.3606" gradientUnits="userSpaceOnUse">
<stop stop-color="#BFC9F5" stop-opacity="0.5"/>
<stop offset="0.0001" stop-color="#8EA1F5" stop-opacity="0.5"/>
<stop offset="1" stop-color="#26CBCF"/>
</linearGradient>
<linearGradient id="paint11_linear_10391_104138" x1="500.166" y1="76.7606" x2="499.322" y2="31.3606" gradientUnits="userSpaceOnUse">
<stop stop-color="#BFC9F5" stop-opacity="0.5"/>
<stop offset="0.0001" stop-color="#8EA1F5" stop-opacity="0.5"/>
<stop offset="1" stop-color="#26CBCF"/>
</linearGradient>
<linearGradient id="paint12_linear_10391_104138" x1="544.125" y1="47.4559" x2="543.281" y2="2.05596" gradientUnits="userSpaceOnUse">
<stop stop-color="#BFC9F5" stop-opacity="0.5"/>
<stop offset="0.0001" stop-color="#8EA1F5" stop-opacity="0.5"/>
<stop offset="1" stop-color="#26CBCF"/>
</linearGradient>
<linearGradient id="paint13_linear_10391_104138" x1="544.125" y1="47.4559" x2="543.281" y2="2.05596" gradientUnits="userSpaceOnUse">
<stop stop-color="#BFC9F5" stop-opacity="0.5"/>
<stop offset="0.0001" stop-color="#8EA1F5" stop-opacity="0.5"/>
<stop offset="1" stop-color="#26CBCF"/>
</linearGradient>
<linearGradient id="paint14_linear_10391_104138" x1="261" y1="24.623" x2="261" y2="79.5704" gradientUnits="userSpaceOnUse">
<stop stop-color="#2BCAD0"/>
<stop offset="1" stop-color="#8BC1E5"/>
</linearGradient>
<radialGradient id="paint15_radial_10391_104138" cx="0" cy="0" r="1" gradientUnits="userSpaceOnUse" gradientTransform="translate(129.448 72.0562) rotate(43.8088) scale(13.0866 13.114)">
<stop stop-color="#2EE1E8"/>
<stop offset="1" stop-color="#209C9A"/>
</radialGradient>
<radialGradient id="paint16_radial_10391_104138" cx="0" cy="0" r="1" gradientUnits="userSpaceOnUse" gradientTransform="translate(139.516 78.7684) rotate(-138.366) scale(11.0276)">
<stop stop-color="#2EDFE6"/>
<stop offset="1" stop-color="#209D9B"/>
</radialGradient>
<radialGradient id="paint17_radial_10391_104138" cx="0" cy="0" r="1" gradientUnits="userSpaceOnUse" gradientTransform="translate(251.246 43.5539) rotate(43.8088) scale(26.1733 26.2281)">
<stop stop-color="#2EE1E8"/>
<stop offset="1" stop-color="#209C9A"/>
</radialGradient>
<radialGradient id="paint18_radial_10391_104138" cx="0" cy="0" r="1" gradientUnits="userSpaceOnUse" gradientTransform="translate(271.38 56.9782) rotate(-138.366) scale(22.0551)">
<stop stop-color="#2EDFE6"/>
<stop offset="1" stop-color="#209D9B"/>
</radialGradient>
<clipPath id="clip0_10391_104138">
<rect width="14.6526" height="14.6526" fill="white" transform="translate(130 20.957)"/>
</clipPath>
<clipPath id="clip1_10391_104138">
<rect width="20.1474" height="20.1474" fill="white" transform="translate(329 27.3672)"/>
</clipPath>
</defs>
</svg>
