<svg width="19" height="19" viewBox="0 0 19 19" fill="none" xmlns="http://www.w3.org/2000/svg">
<path fill-rule="evenodd" clip-rule="evenodd" d="M9.49991 0.341797L16.3305 5.65447L18.6131 14.024L9.49991 18.5806L0.386719 14.024L2.66932 5.65447L9.49991 0.341797ZM3.87447 6.47764L5.40332 10.5546L8.46102 6.47764H3.87447ZM9.49991 6.82394L6.2888 11.1054H12.711L9.49991 6.82394ZM12.7793 12.1443H6.2205L9.49991 17.0634L12.7793 12.1443ZM7.98271 16.6605L5.07206 12.2945L2.16142 13.7499L7.98271 16.6605ZM1.80673 12.7657L3.20304 7.64592L4.59934 11.3694L1.80673 12.7657ZM11.0171 16.6605L16.8384 13.7499L13.9277 12.2945L11.0171 16.6605ZM14.4005 11.3694L17.1931 12.7657L15.7968 7.64592L14.4005 11.3694ZM14.361 5.43875L10.0194 2.06194V5.43875H14.361ZM10.5388 6.47764L13.5965 10.5546L15.1253 6.47764H10.5388ZM8.98046 5.43875V2.06194L4.63885 5.43875H8.98046Z" fill="#E6EAEB"/>
</svg>
