<svg xmlns="http://www.w3.org/2000/svg" fill="none" viewBox="0 0 99 96">
<rect width="99" height="96" rx="48" fill="white"/>
<g clip-path="url(#clip0_2433_51701)">
<path d="M87.126 46.1875C87.126 27.0416 70.2819 11.5195 49.5032 11.5195C28.7245 11.5195 11.8809 27.0412 11.8809 46.1875C11.8809 46.6233 11.8927 47.0558 11.9095 47.4872C11.8913 47.9187 11.8818 48.3506 11.8809 48.7825C11.8809 65.8627 25.9754 80.4309 43.2545 82.8795C42.9481 80.9352 41.643 72.5105 42.2505 65.5812C41.6102 65.3275 41.1011 64.9944 41.1011 64.9944C41.7979 64.7014 42.2972 63.7015 42.6315 62.721C42.7708 61.9836 42.9395 61.2882 43.1439 60.6506L43.1661 60.5848L43.1759 60.5222L43.18 60.5432C43.3837 59.9086 43.6141 59.2823 43.8707 58.6659C43.0432 58.3737 42.7511 57.5985 42.7511 57.5985C43.4303 57.547 44.3323 56.7628 45.1565 55.8596C45.5448 54.9984 45.9092 54.1272 46.2494 53.2472C44.9542 53.3733 44.3303 53.0636 44.3303 53.0636C45.5223 53.0636 47.7008 48.9601 47.838 48.7004C48.5725 46.3493 49.0645 44.3645 49.5393 42.5756C49.6519 42.1507 49.7844 41.7309 49.9362 41.3176C46.3674 41.5182 43.7392 39.7226 40.6226 38.5026C40.6378 38.5339 40.6529 38.5648 40.6681 38.5926C40.6681 38.5926 39.9455 38.3817 39.0909 38.051C38.8067 37.94 37.2926 37.3401 37.0309 37.5526C36.2718 38.1739 36.3881 37.9955 35.3317 37.7866C34.7803 37.6775 34.1433 37.3865 33.6566 36.9318C33.6278 36.9089 33.5998 36.8851 33.5727 36.8604C33.4334 36.8207 33.3117 36.7553 33.2621 36.6427C33.248 36.6103 33.2402 36.5756 33.2392 36.5404C33.1707 36.4887 33.1152 36.4225 33.077 36.347C33.0643 36.3335 33.0521 36.3197 33.0405 36.3053C32.7468 35.9489 33.2658 35.8553 33.0999 35.5096C33.077 35.4612 33.0196 35.4093 32.9434 35.3518C32.7489 35.3589 32.4855 35.3883 32.3237 35.3312C32.211 35.3106 31.7551 35.127 31.7264 34.8348C31.7133 34.7119 31.776 34.6203 31.8468 34.5041C31.8943 34.3658 31.9632 34.2464 31.9935 34.1739L31.9992 34.1497V34.1132C31.9632 33.6533 31.9669 33.1791 32.4285 32.7327C32.4379 32.653 32.4666 32.5439 32.5064 32.4175C32.5918 32.0725 32.7328 31.7427 32.9242 31.4401C32.9893 31.324 33.054 31.2221 33.113 31.1495C33.2392 31.0027 33.3806 30.8688 33.535 30.7499C33.724 30.5932 33.9322 30.4595 34.1548 30.3518C34.3145 30.267 34.4939 30.1821 34.6943 30.1008C34.8376 30.0438 35.1293 29.9676 35.5279 29.8776C37.6506 29.3186 40.9884 28.9225 44.1472 28.1042C44.2619 28.0748 44.3839 28.061 44.5134 28.0594C44.9353 27.9539 45.2688 27.8572 45.4769 27.7719C47.8856 26.7982 50.436 27.5075 52.0991 27.3172C51.3192 26.6717 50.69 25.8379 49.9837 24.8987C48.6639 23.1403 49.1923 23.042 48.1698 21.6939C48.0363 21.5175 47.5841 20.9347 47.6914 20.2738C47.7008 20.2198 47.7733 19.7718 48.006 19.7286C48.1756 19.6973 48.353 19.8912 48.4562 20.0105C49.0625 20.7131 49.3238 21.3585 49.5868 21.7546C49.942 22.289 50.3024 22.3791 51.0464 22.9C51.3171 23.0853 51.5722 23.2912 51.8091 23.5158C51.0328 22.3049 50.5429 21.3549 50.413 20.0953C50.3729 19.706 50.2967 18.9083 50.64 18.7735C51.132 18.5796 52.2097 19.8654 52.843 20.6195C53.8979 21.8775 53.9093 22.2581 54.8609 23.4226C55.8625 24.6477 56.0018 24.4158 57.0222 25.6318C57.6572 26.3898 58.0844 27.0523 58.4162 27.6736C59.1888 27.9971 59.8623 28.4729 60.36 29.1477C60.36 29.1477 62.5172 31.9746 63.6125 32.0991C63.6125 32.0991 63.2172 31.9817 62.2525 32.4746C62.2558 32.4817 62.2579 32.4884 62.2615 32.4956C62.357 32.6875 63.1771 34.2448 64.8423 35.127C64.8423 35.127 64.2073 35.3887 63.4938 35.6028C63.7293 36.4113 63.9343 37.228 64.1082 38.051C64.2966 38.9542 64.4474 39.8471 64.5658 40.707L64.583 40.6202C64.8824 42.7068 64.9357 44.4858 64.8996 45.8886C64.8939 46.0809 64.8824 46.2743 64.8673 46.4666C64.6748 48.9248 64.0603 51.3647 63.5663 53.7856C63.2209 55.4806 62.7961 57.1882 62.8453 58.9204C62.8928 60.626 63.2861 62.3063 63.7531 63.9533C63.9497 64.6511 64.1766 65.4084 64.4515 66.1747C65.0676 66.6854 65.7275 67.0244 66.4063 67.0363C66.4063 67.0363 66.6828 68.1801 65.485 68.5294C65.5518 68.6492 65.6149 68.7701 65.6833 68.8863C66.7197 69.5555 69.4028 71.0677 71.5485 70.3378C71.5485 70.3378 71.9664 71.5609 71.8328 72.5679C73.5964 72.6005 75.2206 72.2349 76.9439 72.34C83.2565 66.1799 87.167 57.8725 87.126 48.7167C87.1242 48.2957 87.115 47.8749 87.0986 47.4543C87.115 47.034 87.126 46.6118 87.126 46.1875Z" fill="#1F1F1F"/>
<path d="M57.6122 25.582C56.0863 28.0394 56.1219 28.2963 53.2458 29.5872C53.2173 29.4406 53.1833 29.295 53.1438 29.1507C53.0859 28.9485 53.0172 28.7494 52.9382 28.554L43.999 30.7061C44.033 30.9099 44.0784 31.1153 44.1366 31.3206C44.1575 31.3936 44.1858 31.465 44.2087 31.5363C43.2682 31.9471 38.5855 29.8006 37.8224 29.0972H36.2969C37.4431 29.3878 42.3694 32.6933 44.6638 32.5803C45.7834 34.5864 47.9758 35.7366 50.0588 35.2355C52.0771 34.7502 53.3667 32.8637 53.363 30.6942C56.9019 29.1995 56.8495 28.3942 58.3754 26.9879L57.6122 25.582Z" fill="#1F1F1F"/>
</g>
<defs>
<clipPath id="clip0_2433_51701">
<rect width="75.24" height="71.36" fill="white" transform="translate(11.8809 11.5195)"/>
</clipPath>
</defs>
</svg>