<svg width="80" height="80" viewBox="0 0 80 80" fill="none" xmlns="http://www.w3.org/2000/svg">
<circle cx="40" cy="40" r="39.5" stroke="#004453"/>
<circle cx="40" cy="40" r="37" stroke="#33F8FF" stroke-width="4"/>
<path d="M39.858 7.15863L47.9239 14.963L59.0854 13.3934L61.0038 24.4677L70.9445 29.7432L66.0178 39.8583L70.9445 49.9298L61.0038 55.2054L59.0854 66.2797L47.9239 64.7101L39.858 72.558L31.7921 64.7101L20.6306 66.2797L18.7122 55.2054L8.77148 49.9298L13.6982 39.8583L8.77148 29.7432L18.7122 24.4677L20.6306 13.3934L31.7921 14.963L39.858 7.15863Z" stroke="#089CA3" stroke-width="0.5" stroke-miterlimit="10"/>
<path d="M66.3665 20.6746L64.7533 31.8361L72.5576 39.9456L64.7097 48.0115L66.2357 59.1294L55.1614 61.0478L49.8858 70.9885L39.7707 66.0182L29.6556 70.9013L24.4236 60.9606L13.3493 58.9986L14.9625 47.8371L7.1582 39.7276L15.0061 31.7053L13.4365 20.5438L24.5544 18.6254L29.83 8.72827L39.9451 13.6986L50.0602 8.77187L55.2922 18.7126L66.3665 20.6746Z" stroke="#089CA3" stroke-width="0.5" stroke-miterlimit="10"/>
<path d="M59.3595 25.5015L58.2465 33.7384L64.083 39.7057L58.3208 45.712L59.539 53.9567L51.3435 55.4595L47.5001 62.8197L39.9894 59.2075L32.5426 62.9256L28.5782 55.5799L20.3565 54.2152L21.4955 45.9592L15.6589 39.9918L21.4212 33.9855L20.2029 25.7408L28.3725 24.2571L32.2419 16.8778L39.7526 20.4901L47.1994 16.772L51.1638 24.1176L59.3595 25.5015Z" stroke="#089CA3" stroke-width="0.5" stroke-miterlimit="10"/>
<path d="M62.9378 47.2449L55.573 51.1833L54.1631 59.3981L45.9071 58.2591L39.9466 64.0505L33.9403 58.2883L25.6956 59.5065L24.2188 51.2918L16.8655 47.4033L20.4969 39.9186L16.8048 32.4526L24.1696 28.5142L25.5795 20.2994L33.8095 21.4575L39.7769 15.621L45.8023 21.4092L54.021 20.2101L55.4978 28.4249L62.8771 32.2942L59.2457 39.779L62.9378 47.2449Z" stroke="#089CA3" stroke-width="0.5" stroke-miterlimit="10"/>
</svg>
