<svg xmlns="http://www.w3.org/2000/svg" fill="none" viewBox="0 0.33 17 17">
<path d="M12.4838 1.03951C13.424 0.098808 14.9498 0.098808 15.89 1.03951L16.2948 1.44501C17.2351 2.38582 17.2351 3.91111 16.2948 4.85125L9.6966 11.4523C9.4055 11.74 9.04748 11.9508 8.65266 12.0645L5.3067 13.0214C5.02564 13.1017 4.7245 13.0214 4.51705 12.7872C4.31295 12.6099 4.23264 12.3088 4.31295 12.0277L5.26989 8.68205C5.38365 8.28726 5.59445 7.92928 5.8822 7.6382L12.4838 1.03951ZM14.7256 2.17504C14.4412 1.86155 13.9326 1.86155 13.6181 2.17504L12.6444 3.1483L14.1869 4.69066L15.1606 3.68695C15.4751 3.40257 15.4751 2.89402 15.1606 2.58053L14.7256 2.17504ZM6.81573 9.12368L6.2536 11.0809L8.21099 10.5188C8.34483 10.482 8.46194 10.4118 8.55897 10.3147L13.0526 5.82484L11.5101 4.28248L7.01983 8.77573C6.9228 8.87276 6.85253 8.98986 6.81573 9.12368ZM6.69193 2.34533C7.13694 2.34533 7.49496 2.70499 7.49496 3.1483C7.49496 3.59327 7.13694 3.95126 6.69193 3.95126H2.94445C2.20532 3.95126 1.60606 4.55014 1.60606 5.28953V14.3898C1.60606 15.1292 2.20532 15.7281 2.94445 15.7281H12.0455C12.7849 15.7281 13.3839 15.1292 13.3839 14.3898V10.6426C13.3839 10.1976 13.7419 9.83966 14.1869 9.83966C14.6319 9.83966 14.9899 10.1976 14.9899 10.6426V14.3898C14.9899 16.0158 13.6716 17.334 12.0455 17.334H2.94445C1.31831 17.334 0 16.0158 0 14.3898V5.28953C0 3.66353 1.31831 2.34533 2.94445 2.34533H6.69193Z" fill="#798398"/>
</svg>