<svg width="72" height="72" viewBox="0 0 72 72" fill="none" xmlns="http://www.w3.org/2000/svg">
<path d="M36 4.5C18.6047 4.5 4.5 18.6047 4.5 36C4.5 53.3953 18.6047 67.5 36 67.5C53.3953 67.5 67.5 53.3953 67.5 36C67.5 18.6047 53.3953 4.5 36 4.5ZM46.132 36.4852L30.7758 47.6578C30.6916 47.7183 30.5924 47.7544 30.489 47.7622C30.3856 47.77 30.2821 47.7491 30.1898 47.7019C30.0975 47.6546 30.02 47.5829 29.9659 47.4945C29.9117 47.4061 29.883 47.3044 29.8828 47.2008V24.8695C29.8825 24.7657 29.9109 24.6637 29.965 24.575C30.019 24.4863 30.0966 24.4143 30.189 24.367C30.2815 24.3196 30.3853 24.2988 30.4888 24.3069C30.5924 24.3149 30.6917 24.3515 30.7758 24.4125L46.132 35.5781C46.2046 35.6294 46.2638 35.6974 46.3046 35.7763C46.3455 35.8552 46.3668 35.9428 46.3668 36.0316C46.3668 36.1205 46.3455 36.2081 46.3046 36.287C46.2638 36.3659 46.2046 36.4339 46.132 36.4852V36.4852Z" fill="#F8FAFA"/>
</svg>
