<svg width="40" height="40" viewBox="0 0 40 40" fill="none" xmlns="http://www.w3.org/2000/svg">
<circle cx="20" cy="20" r="20" fill="#F8FAFA"/>
<path d="M25.7144 23.5715H27.1429V27.143H25.7144V23.5715Z" fill="#004453"/>
<path d="M22.8569 20H24.2855V27.1429H22.8569V20Z" fill="#004453"/>
<path d="M16.4284 27.1429C15.4815 27.1417 14.5738 26.7651 13.9042 26.0956C13.2347 25.426 12.8581 24.5183 12.8569 23.5714H14.2855C14.2855 23.9952 14.4112 24.4095 14.6466 24.7619C14.8821 25.1143 15.2168 25.389 15.6083 25.5512C15.9999 25.7134 16.4307 25.7558 16.8464 25.6731C17.2621 25.5904 17.6439 25.3863 17.9436 25.0867C18.2433 24.787 18.4474 24.4052 18.53 23.9895C18.6127 23.5738 18.5703 23.1429 18.4081 22.7514C18.2459 22.3598 17.9713 22.0252 17.6189 21.7897C17.2665 21.5542 16.8522 21.4286 16.4284 21.4286V20C17.3756 20 18.284 20.3763 18.9537 21.046C19.6235 21.7158 19.9998 22.6242 19.9998 23.5714C19.9998 24.5186 19.6235 25.427 18.9537 26.0968C18.284 26.7666 17.3756 27.1429 16.4284 27.1429Z" fill="#004453"/>
<path d="M28.5714 10H11.4286C11.0498 10.0004 10.6867 10.151 10.4188 10.4188C10.151 10.6867 10.0004 11.0498 10 11.4286V28.5714C10.0004 28.9502 10.151 29.3133 10.4188 29.5812C10.6867 29.849 11.0498 29.9996 11.4286 30H28.5714C28.9501 29.9994 29.3132 29.8487 29.581 29.581C29.8487 29.3132 29.9994 28.9501 30 28.5714V11.4286C29.9996 11.0498 29.849 10.6867 29.5812 10.4188C29.3133 10.151 28.9502 10.0004 28.5714 10ZM28.5714 16.4286H18.5714V11.4286H28.5714V16.4286ZM17.1429 11.4286V16.4286H11.4286V11.4286H17.1429ZM11.4286 28.5714V17.8571H28.5714L28.5729 28.5714H11.4286Z" fill="#004453"/>
<path d="M38 20L33.2353 25L32 23.7037L35.5294 20L32 16.2963L33.2353 15L38 20Z" fill="#024A59"/>
<path d="M2 20L6.76471 15L8 16.2963L4.47059 20L8 23.7037L6.76471 25L2 20Z" fill="#024A59"/>
</svg>
