<svg width="12" height="13" viewBox="0 0 12 13" fill="none" xmlns="http://www.w3.org/2000/svg">
<path d="M10.0834 11.7497H3.66675V3.58301H10.0834V11.7497ZM10.0834 2.41634H3.66675C3.35733 2.41634 3.06058 2.53926 2.84179 2.75805C2.623 2.97684 2.50008 3.27359 2.50008 3.58301V11.7497C2.50008 12.0591 2.623 12.3558 2.84179 12.5746C3.06058 12.7934 3.35733 12.9163 3.66675 12.9163H10.0834C10.3928 12.9163 10.6896 12.7934 10.9084 12.5746C11.1272 12.3558 11.2501 12.0591 11.2501 11.7497V3.58301C11.2501 3.27359 11.1272 2.97684 10.9084 2.75805C10.6896 2.53926 10.3928 2.41634 10.0834 2.41634ZM8.33342 0.0830078H1.33341C1.024 0.0830078 0.727249 0.205924 0.508457 0.424717C0.289664 0.643509 0.166748 0.940255 0.166748 1.24967V9.41634H1.33341V1.24967H8.33342V0.0830078Z" fill="#8F9BB3"/>
</svg>
