<svg width="36" height="37" viewBox="0 0 36 37" fill="none" xmlns="http://www.w3.org/2000/svg">
<path d="M25.5 0.969727C22.8105 0.969727 20.373 1.47373 18.468 2.42323C16.5645 3.37273 15 4.91923 15 6.96973V12.9697C15 13.1632 15.0645 13.3507 15.0945 13.5322C13.593 13.1507 12.0492 12.9617 10.5 12.9697C7.8105 12.9697 5.373 13.4737 3.468 14.4232C1.5645 15.3727 0 16.9192 0 18.9697V30.9697C0 33.0202 1.5645 34.5667 3.4695 35.5162C5.373 36.4657 7.8105 36.9697 10.5 36.9697C13.1895 36.9697 15.627 36.4657 17.532 35.5162C19.434 34.5667 21 33.0202 21 30.9697V30.3607C22.4674 30.7574 23.98 30.9621 25.5 30.9697C28.1895 30.9697 30.627 30.4657 32.532 29.5162C34.434 28.5667 36 27.0202 36 24.9697V6.96973C36 4.91923 34.4355 3.37273 32.5305 2.42323C30.6285 1.47373 28.191 0.969727 25.5 0.969727ZM25.5 3.96973C27.7845 3.96973 29.8185 4.46173 31.1715 5.14123C32.526 5.82073 33 6.53623 33 6.96973C33 7.40473 32.526 8.11873 31.1715 8.79823C29.82 9.47773 27.7845 9.96973 25.5 9.96973C23.2155 9.96973 21.1815 9.47773 19.8285 8.79823C18.474 8.11873 18 7.40323 18 6.96973C18 6.53473 18.474 5.82073 19.8285 5.14123C21.18 4.46173 23.2155 3.96973 25.5 3.96973ZM18 11.2357C18.1575 11.3227 18.3045 11.4352 18.4695 11.5162C20.373 12.4657 22.8105 12.9697 25.5 12.9697C28.1895 12.9697 30.627 12.4657 32.532 11.5162C32.6955 11.4352 32.8425 11.3227 33 11.2357V12.9697C33 13.4047 32.526 14.1187 31.1715 14.7982C29.8185 15.4777 27.7845 15.9697 25.5 15.9697C23.2155 15.9697 21.1815 15.4777 19.8285 14.7982C18.474 14.1187 18 13.4032 18 12.9697V11.2357ZM10.5 15.9697C12.7845 15.9697 14.8185 16.4617 16.1715 17.1412C17.526 17.8207 18 18.5362 18 18.9697C18 19.4047 17.526 20.1187 16.1715 20.7982C14.8185 21.4777 12.7845 21.9697 10.5 21.9697C8.2155 21.9697 6.1815 21.4777 4.8285 20.7982C3.474 20.1187 3 19.4032 3 18.9697C3 18.5347 3.474 17.8207 4.8285 17.1412C6.18 16.4617 8.2155 15.9697 10.5 15.9697ZM33 17.2357V18.9697C33 19.4047 32.526 20.1187 31.1715 20.7982C29.8185 21.4777 27.7845 21.9697 25.5 21.9697C23.972 21.978 22.4526 21.7405 21 21.2662V18.9697C21 18.7762 20.9355 18.5887 20.9055 18.4072C22.3005 18.7702 23.847 18.9697 25.5 18.9697C28.1895 18.9697 30.627 18.4657 32.532 17.5162C32.6955 17.4352 32.8425 17.3227 33 17.2357ZM3 23.2357C3.1575 23.3227 3.3045 23.4352 3.4695 23.5162C5.373 24.4657 7.8105 24.9697 10.5 24.9697C13.1895 24.9697 15.627 24.4657 17.532 23.5162C17.6955 23.4352 17.8425 23.3227 18 23.2357V24.9697C18 25.4047 17.526 26.1187 16.1715 26.7982C14.8185 27.4777 12.7845 27.9697 10.5 27.9697C8.2155 27.9697 6.1815 27.4777 4.8285 26.7982C3.474 26.1187 3 25.4032 3 24.9697V23.2357ZM33 23.2357V24.9697C33 25.4047 32.526 26.1187 31.1715 26.7982C29.8185 27.4777 27.7845 27.9697 25.5 27.9697C23.7945 27.9697 22.254 27.7297 21 27.3127V24.4072C22.377 24.7702 23.877 24.9697 25.5 24.9697C28.1895 24.9697 30.627 24.4657 32.532 23.5162C32.6955 23.4352 32.8425 23.3227 33 23.2357ZM3 29.2357C3.1575 29.3227 3.3045 29.4352 3.4695 29.5162C5.373 30.4657 7.8105 30.9697 10.5 30.9697C13.1895 30.9697 15.627 30.4657 17.532 29.5162C17.6955 29.4352 17.8425 29.3227 18 29.2357V30.9697C18 31.4047 17.526 32.1187 16.1715 32.7982C14.8185 33.4777 12.7845 33.9697 10.5 33.9697C8.2155 33.9697 6.1815 33.4777 4.8285 32.7982C3.474 32.1187 3 31.4032 3 30.9697V29.2357Z" fill="#E6EAEB"/>
</svg>
