<svg width="36" height="37" viewBox="0 0 36 37" fill="none" xmlns="http://www.w3.org/2000/svg">
<path d="M18 0.998291C8.07508 0.998291 0 9.07337 0 18.9983C0 28.9232 8.07508 36.9983 18 36.9983C27.9249 36.9983 36 28.9232 36 18.9983C36 9.07337 27.9249 0.998291 18 0.998291ZM16.4423 3.85475C16.5018 3.84921 16.5558 3.85891 16.6154 3.85475V19.5604L17.0045 19.9938L27.7782 30.7246C25.1405 32.9303 21.7218 34.2291 18 34.2291C9.57323 34.2291 2.76923 27.4251 2.76923 18.9983C2.76451 15.2278 4.16107 11.5901 6.68775 8.7914C9.21443 5.99273 12.6909 4.23282 16.4423 3.85337V3.85475ZM19.3846 3.85475C22.9274 4.17112 26.2463 5.72229 28.7615 8.23723C31.2767 10.7522 32.8282 14.071 33.1449 17.6137H19.3846V3.85475ZM21.3757 20.3829H33.1449C32.8569 23.5578 31.6565 26.4683 29.7249 28.7778L21.3757 20.3829Z" fill="#E6EAEB"/>
</svg>
