<svg width="74" height="22" viewBox="0 0 74 22" fill="none" xmlns="http://www.w3.org/2000/svg">
<rect y="1" width="74" height="20" rx="10" fill="#1C4E5C"/>
<circle cx="10" cy="11" r="8" fill="#FF3D71"/>
<path fill-rule="evenodd" clip-rule="evenodd" d="M13.9992 8.23064L12.7685 7L9.99978 9.76876L7.23126 7.00023L6.00061 8.23088L8.76914 10.9994L6 13.7685L7.23064 14.9992L9.99978 12.23L12.7692 14.9994L13.9998 13.7688L11.2304 10.9994L13.9992 8.23064Z" fill="white"/>
<path d="M21.936 6.504H24.948C25.5 6.504 26.056 6.576 26.616 6.72C27.176 6.864 27.68 7.104 28.128 7.44C28.576 7.768 28.94 8.204 29.22 8.748C29.5 9.284 29.64 9.952 29.64 10.752C29.64 11.496 29.5 12.136 29.22 12.672C28.94 13.208 28.576 13.648 28.128 13.992C27.68 14.336 27.176 14.592 26.616 14.76C26.056 14.92 25.5 15 24.948 15H21.936V6.504ZM24.708 13.68C25.1 13.68 25.492 13.636 25.884 13.548C26.276 13.452 26.628 13.296 26.94 13.08C27.26 12.856 27.52 12.556 27.72 12.18C27.92 11.804 28.02 11.328 28.02 10.752C28.02 10.144 27.92 9.648 27.72 9.264C27.52 8.88 27.26 8.58 26.94 8.364C26.628 8.148 26.276 8 25.884 7.92C25.492 7.84 25.1 7.8 24.708 7.8H23.448V13.68H24.708ZM31.0521 9.24H32.4921V15H31.0521V9.24ZM30.8481 7.284C30.8481 7.052 30.9321 6.852 31.1001 6.684C31.2761 6.508 31.4961 6.42 31.7601 6.42C32.0241 6.42 32.2441 6.504 32.4201 6.672C32.6041 6.832 32.6961 7.036 32.6961 7.284C32.6961 7.532 32.6041 7.74 32.4201 7.908C32.2441 8.068 32.0241 8.148 31.7601 8.148C31.4961 8.148 31.2761 8.064 31.1001 7.896C30.9321 7.72 30.8481 7.516 30.8481 7.284ZM37.395 10.776C37.267 10.608 37.091 10.464 36.867 10.344C36.643 10.216 36.399 10.152 36.135 10.152C35.903 10.152 35.691 10.2 35.499 10.296C35.307 10.392 35.211 10.552 35.211 10.776C35.211 11 35.315 11.16 35.523 11.256C35.739 11.344 36.051 11.436 36.459 11.532C36.675 11.58 36.891 11.644 37.107 11.724C37.331 11.804 37.531 11.912 37.707 12.048C37.891 12.176 38.039 12.34 38.151 12.54C38.263 12.732 38.319 12.968 38.319 13.248C38.319 13.6 38.251 13.9 38.115 14.148C37.987 14.388 37.811 14.584 37.587 14.736C37.371 14.888 37.115 14.996 36.819 15.06C36.531 15.132 36.231 15.168 35.919 15.168C35.471 15.168 35.035 15.088 34.611 14.928C34.187 14.76 33.835 14.524 33.555 14.22L34.503 13.332C34.663 13.54 34.871 13.712 35.127 13.848C35.383 13.984 35.667 14.052 35.979 14.052C36.083 14.052 36.187 14.04 36.291 14.016C36.403 13.992 36.503 13.956 36.591 13.908C36.687 13.852 36.763 13.78 36.819 13.692C36.875 13.604 36.903 13.496 36.903 13.368C36.903 13.128 36.791 12.956 36.567 12.852C36.351 12.748 36.023 12.644 35.583 12.54C35.367 12.492 35.155 12.432 34.947 12.36C34.747 12.28 34.567 12.18 34.407 12.06C34.247 11.932 34.119 11.776 34.023 11.592C33.927 11.408 33.879 11.18 33.879 10.908C33.879 10.588 33.943 10.312 34.071 10.08C34.207 9.848 34.383 9.66 34.599 9.516C34.815 9.364 35.059 9.252 35.331 9.18C35.603 9.108 35.883 9.072 36.171 9.072C36.587 9.072 36.991 9.144 37.383 9.288C37.783 9.432 38.099 9.652 38.331 9.948L37.395 10.776ZM43.147 14.268H43.111C42.967 14.524 42.735 14.736 42.415 14.904C42.095 15.064 41.731 15.144 41.323 15.144C41.091 15.144 40.847 15.112 40.591 15.048C40.343 14.992 40.111 14.896 39.895 14.76C39.687 14.616 39.511 14.432 39.367 14.208C39.231 13.976 39.163 13.692 39.163 13.356C39.163 12.924 39.283 12.58 39.523 12.324C39.771 12.068 40.087 11.872 40.471 11.736C40.855 11.6 41.279 11.512 41.743 11.472C42.215 11.424 42.675 11.4 43.123 11.4V11.256C43.123 10.896 42.991 10.632 42.727 10.464C42.471 10.288 42.163 10.2 41.803 10.2C41.499 10.2 41.207 10.264 40.927 10.392C40.647 10.52 40.415 10.676 40.231 10.86L39.487 9.984C39.815 9.68 40.191 9.452 40.615 9.3C41.047 9.148 41.483 9.072 41.923 9.072C42.435 9.072 42.855 9.144 43.183 9.288C43.519 9.432 43.783 9.62 43.975 9.852C44.167 10.084 44.299 10.344 44.371 10.632C44.451 10.92 44.491 11.208 44.491 11.496V15H43.147V14.268ZM43.123 12.372H42.799C42.567 12.372 42.323 12.384 42.067 12.408C41.811 12.424 41.575 12.468 41.359 12.54C41.143 12.604 40.963 12.7 40.819 12.828C40.675 12.948 40.603 13.116 40.603 13.332C40.603 13.468 40.631 13.584 40.687 13.68C40.751 13.768 40.831 13.84 40.927 13.896C41.023 13.952 41.131 13.992 41.251 14.016C41.371 14.04 41.491 14.052 41.611 14.052C42.107 14.052 42.483 13.92 42.739 13.656C42.995 13.392 43.123 13.032 43.123 12.576V12.372ZM47.6327 5.928V9.972H47.6687C47.7407 9.876 47.8327 9.776 47.9447 9.672C48.0567 9.568 48.1887 9.472 48.3407 9.384C48.5007 9.296 48.6847 9.224 48.8927 9.168C49.1007 9.104 49.3367 9.072 49.6007 9.072C50.0087 9.072 50.3847 9.152 50.7287 9.312C51.0727 9.464 51.3687 9.676 51.6167 9.948C51.8647 10.22 52.0567 10.54 52.1927 10.908C52.3287 11.276 52.3967 11.672 52.3967 12.096C52.3967 12.52 52.3287 12.92 52.1927 13.296C52.0647 13.664 51.8767 13.988 51.6287 14.268C51.3887 14.54 51.0927 14.76 50.7407 14.928C50.3967 15.088 50.0047 15.168 49.5647 15.168C49.1567 15.168 48.7727 15.08 48.4127 14.904C48.0607 14.728 47.7847 14.472 47.5847 14.136H47.5607V15H46.1927V5.928H47.6327ZM50.9327 12.096C50.9327 11.872 50.8967 11.652 50.8247 11.436C50.7607 11.212 50.6607 11.012 50.5247 10.836C50.3887 10.66 50.2167 10.52 50.0087 10.416C49.8007 10.304 49.5567 10.248 49.2767 10.248C49.0127 10.248 48.7767 10.304 48.5687 10.416C48.3607 10.528 48.1807 10.672 48.0287 10.848C47.8847 11.024 47.7727 11.224 47.6927 11.448C47.6207 11.672 47.5847 11.896 47.5847 12.12C47.5847 12.344 47.6207 12.568 47.6927 12.792C47.7727 13.008 47.8847 13.204 48.0287 13.38C48.1807 13.556 48.3607 13.7 48.5687 13.812C48.7767 13.916 49.0127 13.968 49.2767 13.968C49.5567 13.968 49.8007 13.912 50.0087 13.8C50.2167 13.688 50.3887 13.544 50.5247 13.368C50.6607 13.192 50.7607 12.992 50.8247 12.768C50.8967 12.544 50.9327 12.32 50.9327 12.096ZM53.8099 5.928H55.2499V15H53.8099V5.928ZM61.0528 11.544C61.0528 11.36 61.0248 11.184 60.9688 11.016C60.9208 10.848 60.8408 10.7 60.7288 10.572C60.6168 10.444 60.4728 10.344 60.2968 10.272C60.1288 10.192 59.9288 10.152 59.6968 10.152C59.2648 10.152 58.8968 10.284 58.5928 10.548C58.2968 10.804 58.1328 11.136 58.1008 11.544H61.0528ZM62.4928 12.192C62.4928 12.256 62.4928 12.32 62.4928 12.384C62.4928 12.448 62.4888 12.512 62.4808 12.576H58.1008C58.1168 12.784 58.1688 12.976 58.2568 13.152C58.3528 13.32 58.4768 13.468 58.6288 13.596C58.7808 13.716 58.9528 13.812 59.1448 13.884C59.3368 13.956 59.5368 13.992 59.7448 13.992C60.1048 13.992 60.4088 13.928 60.6568 13.8C60.9048 13.664 61.1088 13.48 61.2688 13.248L62.2288 14.016C61.6608 14.784 60.8368 15.168 59.7568 15.168C59.3088 15.168 58.8968 15.1 58.5208 14.964C58.1448 14.82 57.8168 14.62 57.5368 14.364C57.2648 14.108 57.0488 13.796 56.8888 13.428C56.7368 13.052 56.6608 12.628 56.6608 12.156C56.6608 11.692 56.7368 11.272 56.8888 10.896C57.0488 10.512 57.2648 10.188 57.5368 9.924C57.8088 9.652 58.1288 9.444 58.4968 9.3C58.8728 9.148 59.2768 9.072 59.7088 9.072C60.1088 9.072 60.4768 9.14 60.8128 9.276C61.1568 9.404 61.4528 9.6 61.7008 9.864C61.9488 10.12 62.1408 10.444 62.2768 10.836C62.4208 11.22 62.4928 11.672 62.4928 12.192Z" fill="#F8FAFA"/>
</svg>
