<svg width="44" height="44" viewBox="0 0 44 44" fill="none" xmlns="http://www.w3.org/2000/svg">
<rect width="44" height="44" rx="22" fill="white"/>
<path fill-rule="evenodd" clip-rule="evenodd" d="M11.9845 9.16675H30.411C30.782 9.1677 31.1492 9.24171 31.4916 9.38458C31.834 9.52744 32.145 9.73634 32.4066 9.99936C32.6683 10.2624 32.8756 10.5744 33.0167 10.9175C33.1578 11.2607 33.23 11.6282 33.229 11.9992V36.6667L30.2706 34.0528L28.6076 32.5128L26.8461 30.8758L27.577 33.4217H11.9845C10.4315 33.4217 9.16651 32.1567 9.16651 30.5892V11.9992C9.16556 11.6282 9.2377 11.2607 9.3788 10.9175C9.51991 10.5744 9.72722 10.2624 9.98889 9.99936C10.2506 9.73634 10.5615 9.52744 10.9039 9.38458C11.2463 9.24171 11.6135 9.1677 11.9845 9.16675ZM24.196 26.0083C24.607 26.5337 25.102 27.1242 25.102 27.1242C28.09 27.0289 29.2694 25.1013 29.3085 25.0373C29.3092 25.0362 29.3095 25.0357 29.3095 25.0357C29.3095 20.6082 27.3295 17.0202 27.3295 17.0202C25.351 15.5337 23.4665 15.5757 23.4665 15.5757L23.274 15.7957C25.6115 16.5107 26.6985 17.5412 26.6985 17.5412C24.5913 16.3805 22.1671 15.9274 19.783 16.2487C19.7152 16.2487 19.6562 16.2585 19.5915 16.2692C19.5775 16.2715 19.5632 16.2739 19.5485 16.2762C19.0665 16.3182 17.8985 16.4977 16.428 17.1432C15.9199 17.3762 15.616 17.5412 15.616 17.5412C15.616 17.5412 16.758 16.4557 19.233 15.7392L19.0955 15.5742C19.0955 15.5742 17.2124 15.5323 15.2324 17.0187C15.2324 17.0187 13.2524 20.6067 13.2524 25.0342C13.2524 25.0342 14.406 27.0273 17.444 27.1242C17.444 27.1242 17.9535 26.5033 18.366 25.9823C16.619 25.4598 15.959 24.3598 15.959 24.3598C15.959 24.3598 16.0965 24.4553 16.344 24.5914C16.3595 24.6097 16.3788 24.6245 16.4005 24.6348C16.4194 24.6476 16.4384 24.657 16.4575 24.6665C16.4792 24.6772 16.5012 24.6881 16.5235 24.7042C16.8464 24.8826 17.1816 25.0378 17.5265 25.1689C18.1805 25.428 18.8568 25.6267 19.547 25.7623C21.4151 26.121 23.3474 25.9206 25.102 25.1862C25.584 25.0067 26.1195 24.7433 26.684 24.3728C26.684 24.3728 25.9965 25.4989 24.196 26.0083ZM17.3072 22.2311C17.3072 21.3916 17.9252 20.7041 18.7097 20.7041C19.4927 20.7041 20.1266 21.3901 20.1107 22.2311C20.1107 23.0676 19.4927 23.758 18.7097 23.758C17.9397 23.758 17.3072 23.0676 17.3072 22.2311ZM22.3266 22.2311C22.3266 21.3916 22.9447 20.7041 23.7291 20.7041C24.5122 20.7041 25.1287 21.3901 25.1302 22.2311C25.1302 23.0676 24.5122 23.758 23.7291 23.758C22.9591 23.758 22.3266 23.0676 22.3266 22.2311Z" fill="#1C4E5C"/>
</svg>
