<svg width="40" height="40" viewBox="0 0 40 40" fill="none" xmlns="http://www.w3.org/2000/svg">
<circle cx="20" cy="20" r="20" fill="#F8FAFA"/>
<path fill-rule="evenodd" clip-rule="evenodd" d="M32.1875 9.75H21.875L21.2187 10.0313L20 11.2312L18.7812 10.0313L18.125 9.75H7.8125L6.875 10.6875V29.4375L7.8125 30.375H17.7312L19.3438 31.9687H20.6563L22.2688 30.375H32.1875L33.125 29.4375V10.6875L32.1875 9.75ZM19.0625 29.1L18.725 28.7812L18.125 28.5H8.75V11.625H17.7312L19.1188 13.0125L19.0625 29.1ZM31.25 28.5H21.875L21.2187 28.7812L20.9563 29.025V12.9375L22.2688 11.625H31.25V28.5ZM16.25 15.375H10.625V17.25H16.25V15.375ZM16.25 22.875H10.625V24.75H16.25V22.875ZM10.625 19.125H16.25V21H10.625V19.125ZM29.375 15.375H23.75V17.25H29.375V15.375ZM23.75 19.125H29.375V21H23.75V19.125ZM23.75 22.875H29.375V24.75H23.75V22.875Z" fill="#024958"/>
</svg>
