<svg width="28" height="28" viewBox="0 0 28 28" fill="none" xmlns="http://www.w3.org/2000/svg">
<rect width="28" height="28" rx="14" fill="#13BBC2"/>
<path d="M14.0005 7C14.9287 7 15.819 7.36875 16.4754 8.02513C17.1317 8.6815 17.5005 9.57174 17.5005 10.5C17.5005 11.4283 17.1317 12.3185 16.4754 12.9749C15.819 13.6313 14.9287 14 14.0005 14C13.0722 14 12.182 13.6313 11.5256 12.9749C10.8692 12.3185 10.5005 11.4283 10.5005 10.5C10.5005 9.57174 10.8692 8.6815 11.5256 8.02513C12.182 7.36875 13.0722 7 14.0005 7ZM14.0005 15.75C17.868 15.75 21.0005 17.3162 21.0005 19.25V21H7.00049V19.25C7.00049 17.3162 10.133 15.75 14.0005 15.75Z" fill="#F8FAFA"/>
</svg>
