<svg xmlns="http://www.w3.org/2000/svg" fill="none" viewBox="0 0 146 146">
<path fill-rule="evenodd" clip-rule="evenodd" d="M54.75 146C54.75 146 57.9082 139.681 60.2823 130.988C62.1203 124.257 63.4883 116.103 62.5569 108.355C62.1777 105.2 61.4172 102.113 60.152 99.2161L0 146L45.917 86.9613C42.8282 86.2699 39.3367 85.9739 35.6925 85.952C28.0548 85.9061 19.7464 87.0642 13.0688 88.309C5.48167 89.7235 0 91.25 0 91.25L27.375 54.75H54.75L100.375 9.125L146 0L136.875 45.625L91.25 91.25V118.625L54.75 146ZM70.8232 123.082L82.5595 114.28V87.6503L128.869 41.3405L134.922 11.0782L104.66 17.1307L58.3497 63.4405H31.7202L20.5655 78.3135C29.1949 77.1805 39.4163 76.6006 47.8153 78.4806L61.1932 81.4752L49.5367 96.4627L63.6412 85.4929L68.1159 95.7376C72.0317 104.702 72.0664 114.587 70.8232 123.082Z" fill="url(#paint0_linear_13534_112611)"/>
<defs>
<linearGradient id="paint0_linear_13534_112611" x1="147.5" y1="-6.76506e-06" x2="45.7212" y2="172.912" gradientUnits="userSpaceOnUse">
<stop stop-color="#60CAEC"/>
<stop offset="0.479167" stop-color="#5CA7F8"/>
<stop offset="0.791673" stop-color="#A98CFC"/>
</linearGradient>
</defs>
</svg>