<svg width="24" height="24" viewBox="0 0 24 24" fill="none" xmlns="http://www.w3.org/2000/svg">
<path d="M12 24C5.37225 24 0 18.6278 0 12C0 5.37225 5.37225 0 12 0C18.6278 0 24 5.37225 24 12C24 18.6278 18.6278 24 12 24ZM11.8125 20.625C14.1497 20.625 16.3912 19.6965 18.0439 18.0439C19.6965 16.3912 20.625 14.1497 20.625 11.8125C20.625 6.945 16.68 3 11.8125 3C6.945 3 3 6.945 3 11.8125C3 16.68 6.945 20.625 11.8125 20.625ZM11.2875 8.5425V7.9875C11.2875 7.84727 11.3432 7.71278 11.4424 7.61362C11.5415 7.51446 11.676 7.45875 11.8162 7.45875C11.9565 7.45875 12.091 7.51446 12.1901 7.61362C12.2893 7.71278 12.345 7.84727 12.345 7.9875V8.505C12.7626 8.53514 13.16 8.69639 13.4806 8.96576C13.8011 9.23512 14.0284 9.59883 14.13 10.005C14.1481 10.0855 14.1339 10.1699 14.0904 10.24C14.0469 10.3101 13.9776 10.3604 13.8975 10.38H13.545C13.4316 10.3794 13.3207 10.3467 13.2251 10.2856C13.1295 10.2246 13.0532 10.1377 13.005 10.035C12.8861 9.82942 12.7102 9.66267 12.4986 9.55487C12.287 9.44706 12.0487 9.40283 11.8125 9.4275C11.0625 9.4275 10.6125 9.8925 10.6125 10.3125C10.6125 10.7325 10.965 10.98 11.715 11.1675L12.465 11.3325C13.7625 11.61 14.31 12.1575 14.31 13.11C14.3022 13.6221 14.0948 14.1109 13.732 14.4723C13.3692 14.8337 12.8796 15.0392 12.3675 15.045V15.6825C12.3675 15.8227 12.3118 15.9572 12.2126 16.0564C12.1135 16.1555 11.979 16.2113 11.8387 16.2113C11.6985 16.2113 11.564 16.1555 11.4649 16.0564C11.3657 15.9572 11.31 15.8227 11.31 15.6825V15.0525C10.8571 15.0456 10.4193 14.8887 10.0651 14.6065C9.7109 14.3242 9.46029 13.9324 9.3525 13.4925C9.34599 13.4585 9.34626 13.4236 9.3533 13.3897C9.36035 13.3558 9.37402 13.3236 9.39354 13.2951C9.41306 13.2665 9.43803 13.2421 9.46703 13.2232C9.49603 13.2043 9.52847 13.1913 9.5625 13.185H10.005C10.1011 13.1857 10.195 13.2136 10.2759 13.2653C10.3569 13.317 10.4215 13.3906 10.4625 13.4775C10.6008 13.7065 10.8007 13.892 11.0395 14.0127C11.2782 14.1334 11.5461 14.1844 11.8125 14.16C12.5625 14.16 13.14 13.71 13.14 13.2525C13.14 12.795 12.81 12.525 12.0075 12.3375L11.1825 12.1425C10.005 11.895 9.45 11.3025 9.45 10.395C9.46999 9.91265 9.66956 9.4552 10.0095 9.11245C10.3495 8.7697 10.8053 8.56641 11.2875 8.5425ZM5.205 11.8125C5.20586 10.4269 5.64328 9.07679 6.45512 7.95393C7.26697 6.83108 8.41197 5.99257 9.7275 5.5575C9.77525 5.54061 9.82637 5.53549 9.87653 5.54257C9.92668 5.54965 9.97439 5.56871 10.0156 5.59815C10.0568 5.62759 10.0903 5.66654 10.1133 5.71169C10.1363 5.75683 10.148 5.80685 10.1475 5.8575V6.03C10.1473 6.16856 10.1058 6.30391 10.0283 6.41878C9.9508 6.53366 9.84087 6.62285 9.7125 6.675C8.6922 7.08683 7.81826 7.79417 7.20284 8.70624C6.58742 9.6183 6.25861 10.6935 6.25861 11.7938C6.25861 12.894 6.58742 13.9692 7.20284 14.8813C7.81826 15.7933 8.6922 16.5007 9.7125 16.9125C9.84147 16.966 9.95165 17.0565 10.0291 17.1727C10.1065 17.2888 10.1477 17.4254 10.1475 17.565V17.7225C10.1475 17.812 10.1119 17.8979 10.0486 17.9611C9.98536 18.0244 9.89951 18.06 9.81 18.06H9.705C8.39489 17.6215 7.25565 16.7825 6.44819 15.6614C5.64073 14.5404 5.20586 13.1941 5.205 11.8125ZM18.42 11.8125C18.4212 13.1944 17.9882 14.5418 17.182 15.6642C16.3759 16.7866 15.2374 17.6273 13.9275 18.0675C13.8748 18.0853 13.8187 18.0903 13.7636 18.0822C13.7086 18.0741 13.6563 18.0531 13.611 18.0209C13.5656 17.9887 13.5285 17.9463 13.5027 17.897C13.4769 17.8478 13.4631 17.7931 13.4625 17.7375V17.61C13.4663 17.4675 13.5107 17.329 13.5904 17.2108C13.6701 17.0925 13.7818 16.9995 13.9125 16.9425C14.9305 16.5295 15.802 15.8221 16.4157 14.9109C17.0293 13.9997 17.3571 12.9261 17.3571 11.8275C17.3571 10.7289 17.0293 9.65534 16.4157 8.74413C15.802 7.83292 14.9305 7.12553 13.9125 6.7125C13.7793 6.65611 13.6652 6.56237 13.584 6.44261C13.5028 6.32284 13.458 6.18215 13.455 6.0375V5.925C13.455 5.73 13.6125 5.5725 13.8075 5.5725H13.92C15.2289 6.0106 16.3673 6.84849 17.1746 7.96801C17.982 9.08754 18.4176 10.4322 18.42 11.8125Z" fill="#3366FF"/>
</svg>
