<svg width="423" height="706" viewBox="0 0 423 706" fill="none" xmlns="http://www.w3.org/2000/svg">
<path d="M377.966 0.652254L45.0379 0.652254C42.2998 0.652254 39.6738 1.73997 37.7377 3.67612L3.67613 37.7377C1.73997 39.6738 0.652254 42.2998 0.652254 45.038L0.652254 660.298C0.652254 663.036 1.73997 665.662 3.67612 667.598L37.7377 701.66C39.6738 703.596 42.2998 704.684 45.0379 704.684H377.966C380.704 704.684 383.33 703.596 385.266 701.66L419.328 667.598C421.264 665.662 422.352 663.036 422.352 660.298L422.352 45.0379C422.352 42.2998 421.264 39.6738 419.328 37.7377L385.266 3.67613C383.33 1.73997 380.704 0.652254 377.966 0.652254Z" stroke="url(#paint0_linear_2707_54158)" stroke-width="0.695491"/>
<path d="M1 45.038C1 42.3921 2.05108 39.8545 3.92202 37.9836L37.9836 3.92202C39.8545 2.05108 42.392 1 45.0379 1L377.966 1C380.612 1 383.149 2.05108 385.02 3.92202L419.082 37.9836C420.953 39.8545 422.004 42.392 422.004 45.0379L422.004 660.298C422.004 662.944 420.953 665.481 419.082 667.352L385.02 701.414C383.149 703.285 380.612 704.336 377.966 704.336H45.0379C42.392 704.336 39.8545 703.285 37.9836 701.414L3.92202 667.352C2.05108 665.481 1 662.944 1 660.298L1 45.038Z" fill="url(#paint1_linear_2707_54158)" fill-opacity="0.5"/>
<g clip-path="url(#clip0_2707_54158)">
<rect x="17.9619" y="12.9709" width="387.084" height="674.404" rx="29.9292" fill="url(#paint2_linear_2707_54158)"/>
<g filter="url(#filter0_f_2707_54158)">
<ellipse cx="83.4527" cy="146.879" rx="83.4527" ry="146.879" transform="matrix(0.796487 0.604656 -0.158437 0.987369 167.981 179.343)" fill="#5CFFCE"/>
</g>
<g style="mix-blend-mode:hard-light" filter="url(#filter1_f_2707_54158)">
<ellipse cx="72.8596" cy="128.292" rx="72.8596" ry="128.292" transform="matrix(0.796487 0.604656 -0.158437 0.987369 262.05 151.333)" fill="#C15CFF"/>
</g>
<g style="mix-blend-mode:overlay" filter="url(#filter2_f_2707_54158)">
<ellipse cx="110.065" cy="193.118" rx="110.065" ry="193.118" transform="matrix(0.796487 0.604656 -0.158437 0.987369 40.25 126.56)" fill="#5C9DFF"/>
</g>
<g style="mix-blend-mode:lighten" filter="url(#filter3_f_2707_54158)">
<ellipse cx="45.9885" cy="79.7843" rx="45.9885" ry="79.7843" transform="matrix(0.796487 0.604656 -0.158437 0.987369 223.087 356.749)" fill="#FF8F50"/>
</g>
<g style="mix-blend-mode:overlay" filter="url(#filter4_f_2707_54158)">
<path d="M272.304 346.183C272.304 380.066 265.989 410.73 255.789 432.916C245.581 455.12 231.522 468.753 216.07 468.753C200.618 468.753 186.559 455.12 176.351 432.916C166.151 410.73 159.836 380.066 159.836 346.183C159.836 312.3 166.151 281.636 176.351 259.45C186.559 237.246 200.618 223.614 216.07 223.614C231.522 223.614 245.581 237.246 255.789 259.45C265.989 281.636 272.304 312.3 272.304 346.183Z" stroke="white" stroke-width="0.435916"/>
<path d="M352.077 346.657C352.077 404.497 341.298 456.851 323.88 494.736C306.454 532.641 282.423 555.983 255.957 555.983C229.49 555.983 205.46 532.641 188.033 494.736C170.615 456.851 159.836 404.497 159.836 346.657C159.836 288.817 170.615 236.463 188.033 198.578C205.46 160.673 229.49 137.33 255.957 137.33C282.423 137.33 306.454 160.673 323.88 198.578C341.298 236.463 352.077 288.817 352.077 346.657Z" stroke="white" stroke-width="0.435916"/>
<g style="mix-blend-mode:color-dodge" filter="url(#filter5_dd_2707_54158)">
<ellipse cx="209.511" cy="346.183" rx="266.37" ry="474.876" fill="white" fill-opacity="0.5"/>
<path d="M475.663 346.183C475.663 477.286 445.855 595.967 397.673 681.865C349.487 767.769 282.953 820.841 209.511 820.841C136.069 820.841 69.5355 767.769 21.3496 681.865C-26.8324 595.967 -56.6404 477.286 -56.6404 346.183C-56.6404 215.08 -26.8324 96.3986 21.3496 10.5011C69.5355 -75.4033 136.069 -128.476 209.511 -128.476C282.953 -128.476 349.487 -75.4033 397.673 10.5011C445.855 96.3986 475.663 215.08 475.663 346.183Z" stroke="white" stroke-width="0.435916"/>
</g>
<path d="M272.307 347.131C272.307 405.102 261.503 457.574 244.046 495.545C226.58 533.536 202.495 556.932 175.968 556.932C149.442 556.932 125.357 533.536 107.891 495.545C90.4335 457.574 79.6301 405.102 79.6301 347.131C79.6301 289.16 90.4335 236.688 107.891 198.716C125.357 160.726 149.442 137.33 175.968 137.33C202.495 137.33 226.58 160.726 244.046 198.716C261.503 236.688 272.307 289.16 272.307 347.131Z" stroke="white" stroke-width="0.435916"/>
</g>
<g filter="url(#filter6_f_2707_54158)">
<ellipse cx="134.186" cy="341.035" rx="161.119" ry="161.618" transform="rotate(19.2401 134.186 341.035)" fill="#5CFFCE"/>
</g>
<g style="mix-blend-mode:hard-light" filter="url(#filter7_f_2707_54158)">
<ellipse cx="336.896" cy="285.514" rx="140.667" ry="141.166" transform="rotate(19.2401 336.896 285.514)" fill="#C15CFF"/>
</g>
<g style="mix-blend-mode:overlay" filter="url(#filter8_f_2707_54158)">
<circle cx="-126.401" cy="350.466" r="212.497" transform="rotate(19.2401 -126.401 350.466)" fill="#5C9DFF"/>
</g>
<g style="mix-blend-mode:lighten" filter="url(#filter9_f_2707_54158)">
<ellipse cx="216.33" cy="434.159" rx="88.7881" ry="87.7905" transform="rotate(19.2401 216.33 434.159)" fill="#FF8F50"/>
</g>
<g filter="url(#filter10_f_2707_54158)">
<ellipse cx="63.2334" cy="442.031" rx="161.119" ry="161.618" transform="rotate(79.2401 63.2334 442.031)" fill="#5CFFCE"/>
</g>
<g style="mix-blend-mode:hard-light" filter="url(#filter11_f_2707_54158)">
<ellipse cx="212.67" cy="589.821" rx="140.667" ry="141.166" transform="rotate(79.2401 212.67 589.821)" fill="#C15CFF"/>
</g>
<g style="mix-blend-mode:overlay" filter="url(#filter12_f_2707_54158)">
<circle cx="-75.2261" cy="221.071" r="212.497" transform="rotate(79.2401 -75.2261 221.071)" fill="#5C9DFF"/>
</g>
<g style="mix-blend-mode:lighten" filter="url(#filter13_f_2707_54158)">
<ellipse cx="23.6602" cy="559.732" rx="88.7881" ry="87.7905" transform="rotate(79.2401 23.6602 559.732)" fill="#FF8F50"/>
</g>
<path opacity="0.0526316" d="M-60.4518 251.511C-60.4736 247.039 -59.3085 242.757 -57.0897 239.155L92.737 -4.11161C95.7385 -8.98496 100.472 -12.3005 105.978 -13.3859L308.977 -53.4024C316.956 -54.9754 325.475 -51.6699 331.156 -44.7965L475.689 130.064C479.609 134.807 481.807 140.812 481.836 146.862L483.309 448.833C483.331 453.305 482.166 457.587 479.947 461.19L330.12 704.456C327.119 709.329 322.385 712.645 316.879 713.73L113.881 753.747C105.901 755.32 97.382 752.014 91.7008 745.141L-52.8317 570.28C-56.7518 565.537 -58.9495 559.532 -58.979 553.483L-60.4518 251.511Z" stroke="url(#paint3_linear_2707_54158)" stroke-width="1.49646"/>
<path opacity="0.105263" d="M-47.6402 232.386C-47.402 227.797 -45.9468 223.496 -43.4483 219.996L115.236 -2.24697C118.56 -6.90187 123.509 -9.83231 129.07 -10.438L328.536 -32.1659C336.396 -33.0221 344.445 -29.1383 349.601 -22.0023L480.445 159.091C484.093 164.14 485.949 170.353 485.632 176.459L470.498 467.962C470.26 472.551 468.805 476.852 466.306 480.351L307.622 702.595C304.298 707.25 299.349 710.18 293.788 710.786L94.3224 732.514C86.4624 733.37 78.4126 729.486 73.2567 722.35L-57.5874 541.257C-61.2354 536.208 -63.0909 529.995 -62.7739 523.889L-47.6402 232.386Z" stroke="url(#paint4_linear_2707_54158)" stroke-width="1.49646"/>
<path opacity="0.157895" d="M-33.9494 214.93C-33.4361 210.224 -31.6747 205.911 -28.8853 202.531L136.925 1.59361C140.565 -2.81763 145.709 -5.34549 151.293 -5.46675L346.145 -9.69813C353.821 -9.8648 361.354 -5.47733 365.969 1.84787L483.14 187.811C486.498 193.14 487.997 199.538 487.327 205.679L456.814 485.418C456.301 490.124 454.539 494.436 451.75 497.817L285.94 698.754C282.3 703.165 277.155 705.693 271.571 705.814L76.7193 710.046C69.0439 710.212 61.5109 705.825 56.8955 698.5L-60.2752 512.537C-63.633 507.207 -65.1322 500.81 -64.4623 494.669L-33.9494 214.93Z" stroke="url(#paint5_linear_2707_54158)" stroke-width="1.49646"/>
<path opacity="0.210526" d="M-19.5196 199.193C-18.7144 194.375 -16.6287 190.061 -13.5372 186.819L157.679 7.2814C161.628 3.14068 166.945 1.03227 172.519 1.39717L361.744 13.7845C369.177 14.2712 376.16 19.0856 380.23 26.5293L483.826 216.027C486.877 221.609 488.007 228.163 486.978 234.317L442.383 501.153C441.578 505.971 439.492 510.285 436.4 513.527L265.184 693.064C261.235 697.205 255.918 699.313 250.344 698.948L61.1192 686.561C53.6861 686.074 46.7032 681.26 42.6337 673.816L-60.9624 484.318C-64.0139 478.736 -65.1435 472.183 -64.115 466.029L-19.5196 199.193Z" stroke="url(#paint6_linear_2707_54158)" stroke-width="1.49646"/>
<path opacity="0.263158" d="M-4.47732 185.212C-3.36174 180.289 -0.932691 175.989 2.47159 172.91L177.401 14.6795C181.648 10.8378 187.114 9.1649 192.644 10.0141L375.3 38.0629C382.442 39.1595 388.855 44.325 392.381 51.8212L482.584 243.552C485.314 249.357 486.063 256.035 484.671 262.177L427.346 515.134C426.231 520.057 423.802 524.358 420.397 527.437L245.468 685.667C241.221 689.509 235.755 691.182 230.225 690.332L47.5686 662.284C40.4272 661.187 34.0142 656.021 30.4875 648.525L-59.7147 456.794C-62.4455 450.989 -63.1941 444.311 -61.8024 438.169L-4.47732 185.212Z" stroke="url(#paint7_linear_2707_54158)" stroke-width="1.49646"/>
<path opacity="0.315789" d="M11.0341 173.007C12.4796 167.991 15.2716 163.723 18.9979 160.835L195.989 23.6386C200.521 20.1256 206.109 18.9028 211.561 20.2308L386.782 62.9099C393.591 64.5684 399.427 70.0126 402.421 77.501L479.49 270.203C481.888 276.199 482.246 282.97 480.488 289.071L411.829 527.339C410.384 532.356 407.592 536.623 403.865 539.511L226.874 676.708C222.343 680.221 216.755 681.444 211.303 680.116L36.0811 637.436C29.272 635.778 23.4368 630.334 20.4419 622.845L-56.6263 430.143C-59.0243 424.147 -59.3824 417.377 -57.6244 411.276L11.0341 173.007Z" stroke="url(#paint8_linear_2707_54158)" stroke-width="1.49646"/>
<path opacity="0.368421" d="M26.8899 162.585C28.6853 157.49 31.8595 153.28 35.9148 150.615L213.37 34.0049C218.17 30.8508 223.851 30.0909 229.192 31.8886L396.194 88.1003C402.638 90.2695 407.898 95.925 410.378 103.352L474.649 295.81C476.704 301.965 476.665 308.792 474.54 314.822L395.974 537.761C394.178 542.856 391.004 547.065 386.949 549.73L209.494 666.341C204.694 669.495 199.012 670.255 193.672 668.457L26.6701 612.245C20.2255 610.076 14.9656 604.42 12.4855 596.994L-51.7852 404.535C-53.8406 398.38 -53.8016 391.553 -51.6765 385.523L26.8899 162.585Z" stroke="url(#paint9_linear_2707_54158)" stroke-width="1.49646"/>
<path opacity="0.421053" d="M42.9533 153.939C45.1184 148.787 48.6929 144.664 53.0809 142.26L229.471 45.6215C234.519 42.8562 240.263 42.5701 245.46 44.8248L403.541 113.411C409.597 116.039 414.292 121.845 416.28 129.164L468.163 320.217C469.869 326.498 469.429 333.344 466.938 339.271L379.906 546.409C377.74 551.562 374.166 555.684 369.778 558.088L193.388 654.727C188.34 657.492 182.596 657.778 177.399 655.523L19.3179 586.937C13.2617 584.309 8.56652 578.503 6.57886 571.184L-45.3042 380.131C-47.0099 373.85 -46.5699 367.004 -44.0795 361.077L42.9533 153.939Z" stroke="url(#paint10_linear_2707_54158)" stroke-width="1.49646"/>
<path opacity="0.473684" d="M59.0988 147.047C61.6521 141.861 65.6427 137.863 70.3628 135.76L244.24 58.3217C249.51 55.9746 255.285 56.1704 260.307 58.8664L408.856 138.619C414.508 141.653 418.655 147.556 420.176 154.729L460.151 343.275C461.503 349.648 460.661 356.474 457.811 362.264L363.755 553.3C361.201 558.486 357.211 562.485 352.491 564.587L178.614 642.025C173.344 644.372 167.568 644.177 162.547 641.481L13.9972 561.728C8.34588 558.694 4.19826 552.791 2.67747 545.619L-37.298 357.072C-38.6493 350.699 -37.8079 343.873 -34.9571 338.083L59.0988 147.047Z" stroke="url(#paint11_linear_2707_54158)" stroke-width="1.49646"/>
<path opacity="0.526316" d="M75.2135 141.876C78.1714 136.687 82.5906 132.853 87.6369 131.097L257.644 71.942C263.108 70.0405 268.881 70.7237 273.697 73.8419L412.197 163.508C417.434 166.898 421.055 172.851 422.137 179.846L450.751 364.851C451.746 371.285 450.506 378.052 447.303 383.67L347.656 558.47C344.698 563.658 340.279 567.492 335.232 569.248L165.225 628.403C159.761 630.305 153.989 629.621 149.172 626.503L10.6722 536.837C5.43561 533.447 1.81385 527.494 0.732002 520.499L-27.8814 335.494C-28.8764 329.06 -27.6368 322.294 -24.4338 316.675L75.2135 141.876Z" stroke="url(#paint12_linear_2707_54158)" stroke-width="1.49646"/>
<path opacity="0.578947" d="M91.158 138.381C94.5337 133.225 99.389 129.602 104.749 128.239L269.633 86.3181C275.259 84.8875 280.994 86.0604 285.577 89.5791L413.605 187.873C418.423 191.572 421.543 197.536 422.215 204.328L440.073 384.83C440.712 391.292 439.081 397.961 435.538 403.373L331.706 561.966C328.33 567.122 323.475 570.745 318.114 572.108L153.231 614.029C147.604 615.459 141.87 614.287 137.287 610.768L9.2587 512.474C4.44103 508.775 1.32047 502.811 0.648477 496.019L-17.2094 315.517C-17.8487 309.055 -16.2176 302.386 -12.6744 296.974L91.158 138.381Z" stroke="url(#paint13_linear_2707_54158)" stroke-width="1.49646"/>
<path opacity="0.631579" d="M106.828 136.503C110.631 131.42 115.924 128.059 121.579 127.137L280.198 101.28C285.95 100.343 291.611 102.004 295.935 105.899L413.168 211.511C417.567 215.474 420.212 221.416 420.504 227.987L428.268 403.105C428.555 409.564 426.543 416.097 422.675 421.268L316.026 563.842C312.223 568.925 306.93 572.286 301.275 573.208L142.656 599.065C136.904 600.002 131.243 598.341 126.919 594.446L9.68642 488.834C5.28737 484.871 2.6418 478.929 2.35044 472.358L-5.41413 297.24C-5.70052 290.781 -3.68849 284.248 0.179398 279.077L106.828 136.503Z" stroke="url(#paint14_linear_2707_54158)" stroke-width="1.49646"/>
<path opacity="0.684211" d="M122.133 136.178C126.366 131.211 132.091 128.167 138.015 127.734L289.347 116.668C295.187 116.241 300.738 118.387 304.779 122.633L410.992 234.238C414.976 238.424 417.173 244.318 417.113 250.655L415.496 419.59C415.434 426.018 413.055 432.379 408.882 437.276L300.734 564.169C296.501 569.136 290.776 572.18 284.852 572.613L133.52 583.679C127.68 584.106 122.129 581.961 118.088 577.714L11.8752 466.109C7.89095 461.923 5.69379 456.03 5.75444 449.693L7.37127 280.757C7.43279 274.33 9.81179 267.968 13.985 263.071L122.133 136.178Z" stroke="url(#paint15_linear_2707_54158)" stroke-width="1.49646"/>
<path opacity="0.736842" d="M136.949 137.327C141.611 132.523 147.754 129.853 153.911 129.954L297.064 132.316C302.949 132.413 308.353 135.035 312.09 139.605L407.161 255.875C410.737 260.248 412.511 266.072 412.126 272.166L401.883 434.211C401.481 440.58 398.752 446.736 394.296 451.327L285.905 563.02C281.244 567.824 275.1 570.494 268.943 570.392L125.79 568.031C119.905 567.933 114.501 565.312 110.764 560.742L15.6932 444.471C12.1176 440.098 10.3427 434.275 10.728 428.181L20.971 266.136C21.3736 259.767 24.1024 253.611 28.5581 249.02L136.949 137.327Z" stroke="url(#paint16_linear_2707_54158)" stroke-width="1.49646"/>
<path opacity="0.789474" d="M151.207 139.867C156.289 135.274 162.828 133.035 169.176 133.714L303.388 148.068C309.274 148.698 314.495 151.783 317.908 156.649L401.816 276.265C404.991 280.791 406.369 286.527 405.685 292.374L387.607 446.912C386.872 453.198 383.813 459.119 379.101 463.377L271.652 560.481C266.57 565.074 260.031 567.313 253.684 566.634L119.471 552.28C113.585 551.65 108.364 548.565 104.951 543.7L21.0427 424.083C17.8678 419.557 16.4905 413.821 17.1745 407.974L35.252 253.436C35.9873 247.15 39.046 241.229 43.7579 236.971L151.207 139.867Z" stroke="url(#paint17_linear_2707_54158)" stroke-width="1.49646"/>
<path opacity="0.842105" d="M164.811 143.707C170.298 139.373 177.201 137.621 183.69 138.915L308.336 163.77C314.177 164.934 319.179 168.468 322.251 173.6L395.076 295.26C397.859 299.909 398.862 305.543 397.903 311.142L372.812 457.655C371.753 463.835 368.387 469.494 363.448 473.395L258.044 556.642C252.557 560.976 245.654 562.728 239.165 561.434L114.52 536.579C108.679 535.415 103.676 531.881 100.604 526.749L27.7792 405.089C24.9967 400.44 23.9937 394.806 24.9524 389.207L50.0434 242.694C51.1018 236.514 54.4681 230.855 59.4074 226.954L164.811 143.707Z" stroke="url(#paint18_linear_2707_54158)" stroke-width="1.49646"/>
<path opacity="0.894737" d="M177.691 148.752C183.563 144.723 190.79 143.51 197.364 145.45L311.952 179.272C317.702 180.969 322.451 184.932 325.166 190.301L387.087 312.732C389.485 317.476 390.135 322.998 388.924 328.347L357.662 466.417C356.291 472.471 352.641 477.844 347.506 481.368L245.164 551.597C239.292 555.626 232.065 556.839 225.49 554.899L110.903 521.077C105.153 519.38 100.404 515.416 97.689 510.048L35.7683 387.616C33.3695 382.873 32.7196 377.351 33.9307 372.002L65.1929 233.932C66.5638 227.877 70.2136 222.504 75.3489 218.98L177.691 148.752Z" stroke="url(#paint19_linear_2707_54158)" stroke-width="1.49646"/>
<path opacity="0.947368" d="M189.782 154.901C196.012 151.218 203.518 150.592 210.116 153.203L314.292 194.433C319.904 196.654 324.365 201.025 326.709 206.6L378.001 328.573C380.025 333.384 380.341 338.783 378.898 343.883L342.32 473.193C340.648 479.104 336.741 484.173 331.442 487.305L233.085 545.448C226.855 549.131 219.349 549.757 212.751 547.146L108.575 505.916C102.963 503.695 98.5021 499.324 96.1576 493.749L44.8655 371.776C42.8423 366.965 42.5261 361.566 43.9689 356.466L80.5466 227.156C82.2186 221.245 86.1264 216.176 91.4249 213.043L189.782 154.901Z" stroke="url(#paint20_linear_2707_54158)" stroke-width="1.49646"/>
<path d="M201.001 162.049C207.56 158.749 215.293 158.749 221.852 162.049L315.396 209.118C320.824 211.849 324.963 216.601 326.924 222.352L367.957 342.687C369.612 347.54 369.612 352.805 367.957 357.659L326.924 477.994C324.963 483.745 320.824 488.497 315.396 491.228L221.852 538.296C215.293 541.596 207.56 541.596 201.001 538.296L107.457 491.228C102.029 488.497 97.8895 483.745 95.9285 477.994L54.8959 357.659C53.2409 352.805 53.2409 347.54 54.8959 342.687L95.9285 222.352C97.8895 216.601 102.029 211.849 107.457 209.118L201.001 162.049Z" stroke="url(#paint21_linear_2707_54158)" stroke-width="1.49646"/>
<path fill-rule="evenodd" clip-rule="evenodd" d="M57.8682 85.2852C57.8682 83.6976 58.4988 82.1751 59.6214 81.0525L84.0489 56.625C85.1714 55.5025 86.6939 54.8718 88.2815 54.8718L334.728 54.8718C336.315 54.8718 337.838 55.5025 338.96 56.625L363.388 81.0525C364.51 82.1751 365.141 83.6976 365.141 85.2851L365.141 619.052C365.141 620.639 364.51 622.162 363.388 623.284L338.96 647.712C337.838 648.834 336.315 649.465 334.728 649.465H88.2815C86.6939 649.465 85.1714 648.834 84.0489 647.712L59.6214 623.284C58.4988 622.162 57.8682 620.639 57.8682 619.052L57.8682 85.2852ZM188.56 569.808H234.449V572.801H188.56V569.808ZM165.196 523.904L211.008 497.455L256.82 523.904V576.804L211.008 603.253L165.196 576.804V523.904ZM211.008 489L264.142 519.677V581.031L211.008 611.708L157.874 581.031V519.677L211.008 489ZM222.959 544.912H224.196C224.892 544.912 225.576 544.86 226.246 544.756C226.942 544.627 227.573 544.406 228.141 544.095C228.708 543.784 229.159 543.369 229.494 542.851C229.855 542.306 230.035 541.607 230.035 540.751C230.035 540.129 229.919 539.572 229.687 539.079C229.455 538.586 229.133 538.172 228.721 537.835C228.334 537.498 227.87 537.238 227.328 537.057C226.813 536.876 226.272 536.785 225.704 536.785C224.57 536.785 223.629 537.109 222.882 537.757C222.134 538.405 221.618 539.26 221.335 540.323L216.965 539.196C217.197 538.262 217.584 537.42 218.125 536.668C218.692 535.891 219.363 535.229 220.136 534.685C220.935 534.115 221.825 533.674 222.804 533.363C223.784 533.052 224.815 532.896 225.898 532.896C227.084 532.896 228.205 533.065 229.262 533.402C230.345 533.713 231.286 534.193 232.085 534.841C232.91 535.463 233.554 536.24 234.018 537.174C234.482 538.107 234.714 539.196 234.714 540.44C234.714 541.918 234.263 543.24 233.361 544.406C232.484 545.547 231.298 546.299 229.803 546.661V546.739C231.479 547.076 232.832 547.841 233.863 549.033C234.92 550.2 235.449 551.639 235.449 553.35C235.449 554.775 235.165 556.02 234.598 557.083C234.057 558.145 233.322 559.027 232.394 559.727C231.492 560.427 230.474 560.945 229.339 561.282C228.205 561.645 227.058 561.826 225.898 561.826C224.738 561.826 223.642 561.697 222.611 561.438C221.58 561.204 220.626 560.828 219.749 560.31C218.899 559.791 218.138 559.117 217.468 558.288C216.823 557.458 216.321 556.473 215.96 555.333L220.291 553.972C220.626 555.061 221.245 555.981 222.147 556.733C223.075 557.484 224.274 557.86 225.743 557.86C226.336 557.86 226.929 557.782 227.522 557.627C228.141 557.445 228.682 557.173 229.146 556.81C229.636 556.447 230.022 555.981 230.306 555.41C230.615 554.84 230.77 554.14 230.77 553.311C230.77 552.429 230.551 551.691 230.113 551.094C229.7 550.472 229.172 549.993 228.527 549.656C227.883 549.293 227.161 549.033 226.362 548.878C225.588 548.722 224.841 548.645 224.119 548.645H222.959V544.912ZM187.565 533.596H193.017L200.557 554.788H200.712L208.33 533.596H213.589L202.607 561.126H198.392L187.565 533.596ZM245.617 96.6876H253.259V179.97L245.617 172.342V96.6876ZM237.975 96.6876L230.333 96.6876V157.079L237.975 164.707V96.6876ZM215.048 96.6876H222.69V149.449L215.048 141.82V96.6876ZM199.758 126.876V179.959H207.4V134.504L199.758 126.876ZM184.478 179.96V111.621L192.12 119.249V179.96H184.478ZM169.193 96.3706V180.572H176.819V103.982L169.193 96.3706ZM242.155 243.699V241.903H230.033L239.91 232.027H242.155V230.231H223V232.027H237.216L227.34 241.903H223V243.699H242.155ZM225.394 252.292L223 254.687V261.57L225.394 263.965H239.76L242.155 261.57V254.687L239.76 252.292H225.394ZM224.796 260.672V255.585L226.292 254.088H238.862L240.359 255.585V260.672L238.862 262.169H226.292L224.796 260.672ZM240.359 282.804H242.155V270.833H240.359V275.92H223V277.716H240.359V282.804ZM240.359 294.394V296.938H242.155V290.054H240.359V292.598L224.796 292.598V290.054H223V296.938H224.796V294.394H240.359ZM225.394 305.149L223 307.543V314.427L225.394 316.822H239.76L242.155 314.427V307.543L239.76 305.149H225.394ZM224.796 313.529V308.441L226.292 306.945H238.862L240.359 308.441V313.529L238.862 315.026H226.292L224.796 313.529ZM242.155 339.299V337.504H230.033L239.91 327.627H242.155V325.831H223V327.627H237.216L227.34 337.504H223V339.299H242.155ZM237.366 359.963L242.155 355.174V353.079L237.366 348.29H223V350.086H230.482V358.167H223V359.963H237.366ZM232.278 358.167V350.086H236.468L240.359 353.977V354.276L236.468 358.167H232.278ZM242.155 368.972H223V378.25H224.796V370.768H242.155V368.972ZM242.155 424.99V423.194H229.734L225.669 419.129L229.734 415.114H242.155V413.318H228.836L223 419.154L228.836 424.99H242.155ZM225.394 433.579L223 435.973V442.857L225.394 445.251H230.782L232.577 443.456L234.373 445.251H239.76L242.155 442.857V435.973L239.76 433.579H237.366V435.375H238.862L240.359 436.871V441.959L238.862 443.456H234.972L233.475 441.959V435.973H231.679V441.959L230.183 443.456H226.292L224.796 441.959V436.871L226.292 435.375H227.789V433.579H225.394ZM182.394 250.898L180 253.292V260.176L182.394 262.57H187.183L190.475 259.278V255.088L192.87 252.694H195.862L197.359 254.19V259.278L195.862 260.774H194.366V262.57H196.76L199.155 260.176V253.292L196.76 250.898H191.972L188.679 254.19V258.38L186.285 260.774H183.292L181.796 259.278V254.19L183.292 252.694H184.789V250.898H182.394ZM197.359 282.724H199.155V270.752H197.359V275.84H180V277.636H197.359V282.724ZM197.359 295.51V298.054H199.155V291.171H197.359V293.715H181.796V291.171H180V298.054H181.796V295.51H197.359ZM196.76 319.533L199.155 317.139V307.861H180V309.656H187.482V317.139L189.877 319.533H196.76ZM195.862 317.737H190.775L189.278 316.241V309.656H197.359V316.241L195.862 317.737ZM191.373 355.178H196.76L199.155 352.783V343.505H180V352.783L182.394 355.178H187.782L189.577 353.382L191.373 355.178ZM195.862 353.382H191.972L190.475 351.885V345.301H197.359V351.885L195.862 353.382ZM187.183 353.382H183.292L181.796 351.885V345.301H188.679V351.885L187.183 353.382ZM199.155 367.18V365.384H180V374.662H181.796V367.18H199.155ZM197.359 387.907V390.451H199.155V383.568H197.359V386.112H181.796V383.568H180V390.451H181.796V387.907H197.359ZM197.359 410.882H199.155V398.911H197.359V403.999H180V405.794H197.359V410.882ZM185.088 418.83H180V430.503H181.796V420.626H184.19L194.067 430.503H199.155V418.83H197.359V428.707H194.965L185.088 418.83Z" fill="url(#paint22_linear_2707_54158)"/>
</g>
<path fill-rule="evenodd" clip-rule="evenodd" d="M3.92202 37.9836C2.05108 39.8545 1 42.3921 1 45.038V660.298C1 662.944 2.05108 665.481 3.92202 667.352L37.9836 701.414C39.8545 703.285 42.392 704.336 45.0379 704.336H377.966C380.612 704.336 383.149 703.285 385.02 701.414L419.082 667.352C420.953 665.481 422.004 662.944 422.004 660.298V45.0379C422.004 42.392 420.953 39.8545 419.082 37.9836L385.02 3.92202C383.149 2.05108 380.612 1 377.966 1H45.0379C42.392 1 39.8545 2.05108 37.9836 3.92202L3.92202 37.9836ZM17.9619 47.8878L47.8911 17.9586H375.117L405.046 47.8878V657.446L375.117 687.375H47.8911L17.9619 657.446V47.8878Z" fill="url(#paint23_linear_2707_54158)"/>
<defs>
<filter id="filter0_f_2707_54158" x="18.6788" y="99.1763" width="385.001" height="551.3" filterUnits="userSpaceOnUse" color-interpolation-filters="sRGB">
<feFlood flood-opacity="0" result="BackgroundImageFix"/>
<feBlend mode="normal" in="SourceGraphic" in2="BackgroundImageFix" result="shape"/>
<feGaussianBlur stdDeviation="61.0283" result="effect1_foregroundBlur_2707_54158"/>
</filter>
<filter id="filter1_f_2707_54158" x="151.067" y="100.726" width="297.377" height="442.668" filterUnits="userSpaceOnUse" color-interpolation-filters="sRGB">
<feFlood flood-opacity="0" result="BackgroundImageFix"/>
<feBlend mode="normal" in="SourceGraphic" in2="BackgroundImageFix" result="shape"/>
<feGaussianBlur stdDeviation="43.5916" result="effect1_foregroundBlur_2707_54158"/>
</filter>
<filter id="filter2_f_2707_54158" x="-82.7419" y="94.5926" width="360.119" height="578.395" filterUnits="userSpaceOnUse" color-interpolation-filters="sRGB">
<feFlood flood-opacity="0" result="BackgroundImageFix"/>
<feBlend mode="normal" in="SourceGraphic" in2="BackgroundImageFix" result="shape"/>
<feGaussianBlur stdDeviation="43.5916" result="effect1_foregroundBlur_2707_54158"/>
</filter>
<filter id="filter3_f_2707_54158" x="121.132" y="292.587" width="251.886" height="341.493" filterUnits="userSpaceOnUse" color-interpolation-filters="sRGB">
<feFlood flood-opacity="0" result="BackgroundImageFix"/>
<feBlend mode="normal" in="SourceGraphic" in2="BackgroundImageFix" result="shape"/>
<feGaussianBlur stdDeviation="43.5916" result="effect1_foregroundBlur_2707_54158"/>
</filter>
<filter id="filter4_f_2707_54158" x="-93.469" y="-165.304" width="605.961" height="1022.97" filterUnits="userSpaceOnUse" color-interpolation-filters="sRGB">
<feFlood flood-opacity="0" result="BackgroundImageFix"/>
<feBlend mode="normal" in="SourceGraphic" in2="BackgroundImageFix" result="shape"/>
<feGaussianBlur stdDeviation="18.3053" result="effect1_foregroundBlur_2707_54158"/>
</filter>
<filter id="filter5_dd_2707_54158" x="-76.9105" y="-150.054" width="578.946" height="1002.93" filterUnits="userSpaceOnUse" color-interpolation-filters="sRGB">
<feFlood flood-opacity="0" result="BackgroundImageFix"/>
<feColorMatrix in="SourceAlpha" type="matrix" values="0 0 0 0 0 0 0 0 0 0 0 0 0 0 0 0 0 0 127 0" result="hardAlpha"/>
<feOffset dx="-5.231" dy="-6.53875"/>
<feGaussianBlur stdDeviation="7.41058"/>
<feColorMatrix type="matrix" values="0 0 0 0 1 0 0 0 0 1 0 0 0 0 1 0 0 0 0.4 0"/>
<feBlend mode="normal" in2="BackgroundImageFix" result="effect1_dropShadow_2707_54158"/>
<feColorMatrix in="SourceAlpha" type="matrix" values="0 0 0 0 0 0 0 0 0 0 0 0 0 0 0 0 0 0 127 0" result="hardAlpha"/>
<feOffset dx="5.66691" dy="11.3338"/>
<feGaussianBlur stdDeviation="10.244"/>
<feColorMatrix type="matrix" values="0 0 0 0 0 0 0 0 0 0 0 0 0 0 0 0 0 0 0.25 0"/>
<feBlend mode="normal" in2="effect1_dropShadow_2707_54158" result="effect2_dropShadow_2707_54158"/>
<feBlend mode="normal" in="SourceGraphic" in2="effect2_dropShadow_2707_54158" result="shape"/>
</filter>
<filter id="filter6_f_2707_54158" x="-306.369" y="-99.9116" width="881.112" height="881.893" filterUnits="userSpaceOnUse" color-interpolation-filters="sRGB">
<feFlood flood-opacity="0" result="BackgroundImageFix"/>
<feBlend mode="normal" in="SourceGraphic" in2="BackgroundImageFix" result="shape"/>
<feGaussianBlur stdDeviation="139.67" result="effect1_foregroundBlur_2707_54158"/>
</filter>
<filter id="filter7_f_2707_54158" x="-3.39217" y="-55.1641" width="680.575" height="681.357" filterUnits="userSpaceOnUse" color-interpolation-filters="sRGB">
<feFlood flood-opacity="0" result="BackgroundImageFix"/>
<feBlend mode="normal" in="SourceGraphic" in2="BackgroundImageFix" result="shape"/>
<feGaussianBlur stdDeviation="99.764" result="effect1_foregroundBlur_2707_54158"/>
</filter>
<filter id="filter8_f_2707_54158" x="-538.484" y="-61.6168" width="824.166" height="824.166" filterUnits="userSpaceOnUse" color-interpolation-filters="sRGB">
<feFlood flood-opacity="0" result="BackgroundImageFix"/>
<feBlend mode="normal" in="SourceGraphic" in2="BackgroundImageFix" result="shape"/>
<feGaussianBlur stdDeviation="99.764" result="effect1_foregroundBlur_2707_54158"/>
</filter>
<filter id="filter9_f_2707_54158" x="-71.9019" y="146.708" width="576.464" height="574.902" filterUnits="userSpaceOnUse" color-interpolation-filters="sRGB">
<feFlood flood-opacity="0" result="BackgroundImageFix"/>
<feBlend mode="normal" in="SourceGraphic" in2="BackgroundImageFix" result="shape"/>
<feGaussianBlur stdDeviation="99.764" result="effect1_foregroundBlur_2707_54158"/>
</filter>
<filter id="filter10_f_2707_54158" x="-377.736" y="1.52667" width="881.938" height="881.01" filterUnits="userSpaceOnUse" color-interpolation-filters="sRGB">
<feFlood flood-opacity="0" result="BackgroundImageFix"/>
<feBlend mode="normal" in="SourceGraphic" in2="BackgroundImageFix" result="shape"/>
<feGaussianBlur stdDeviation="139.67" result="effect1_foregroundBlur_2707_54158"/>
</filter>
<filter id="filter11_f_2707_54158" x="-128.032" y="249.582" width="681.404" height="680.476" filterUnits="userSpaceOnUse" color-interpolation-filters="sRGB">
<feFlood flood-opacity="0" result="BackgroundImageFix"/>
<feBlend mode="normal" in="SourceGraphic" in2="BackgroundImageFix" result="shape"/>
<feGaussianBlur stdDeviation="99.764" result="effect1_foregroundBlur_2707_54158"/>
</filter>
<filter id="filter12_f_2707_54158" x="-487.29" y="-190.993" width="824.127" height="824.128" filterUnits="userSpaceOnUse" color-interpolation-filters="sRGB">
<feFlood flood-opacity="0" result="BackgroundImageFix"/>
<feBlend mode="normal" in="SourceGraphic" in2="BackgroundImageFix" result="shape"/>
<feGaussianBlur stdDeviation="99.764" result="effect1_foregroundBlur_2707_54158"/>
</filter>
<filter id="filter13_f_2707_54158" x="-263.71" y="271.434" width="574.739" height="576.595" filterUnits="userSpaceOnUse" color-interpolation-filters="sRGB">
<feFlood flood-opacity="0" result="BackgroundImageFix"/>
<feBlend mode="normal" in="SourceGraphic" in2="BackgroundImageFix" result="shape"/>
<feGaussianBlur stdDeviation="99.764" result="effect1_foregroundBlur_2707_54158"/>
</filter>
<linearGradient id="paint0_linear_2707_54158" x1="392.33" y1="0.999997" x2="48.757" y2="703.91" gradientUnits="userSpaceOnUse">
<stop stop-color="#C0C0C0"/>
<stop offset="1" stop-color="white" stop-opacity="0.33"/>
</linearGradient>
<linearGradient id="paint1_linear_2707_54158" x1="400.661" y1="525.111" x2="-28.7003" y2="537.769" gradientUnits="userSpaceOnUse">
<stop offset="0.114706" stop-color="#004453"/>
<stop offset="1" stop-color="#002B36"/>
</linearGradient>
<linearGradient id="paint2_linear_2707_54158" x1="652.233" y1="325.649" x2="-7.98243" y2="315.541" gradientUnits="userSpaceOnUse">
<stop stop-color="#BFC9F5" stop-opacity="0.5"/>
<stop offset="0.0001" stop-color="#8EA1F5" stop-opacity="0.5"/>
<stop offset="1" stop-color="#26CBCF"/>
</linearGradient>
<linearGradient id="paint3_linear_2707_54158" x1="-61.2109" y1="244.386" x2="500.081" y2="397.108" gradientUnits="userSpaceOnUse">
<stop offset="0.551687" stop-color="white"/>
<stop offset="1" stop-color="#F6E7FF"/>
</linearGradient>
<linearGradient id="paint4_linear_2707_54158" x1="-47.9777" y1="225.017" x2="493.538" y2="408.231" gradientUnits="userSpaceOnUse">
<stop offset="0.551687" stop-color="white"/>
<stop offset="1" stop-color="#F6E7FF"/>
</linearGradient>
<linearGradient id="paint5_linear_2707_54158" x1="-33.8377" y1="207.321" x2="486.58" y2="419.875" gradientUnits="userSpaceOnUse">
<stop offset="0.551687" stop-color="white"/>
<stop offset="1" stop-color="#F6E7FF"/>
</linearGradient>
<linearGradient id="paint6_linear_2707_54158" x1="-18.9284" y1="191.351" x2="478.979" y2="432.078" gradientUnits="userSpaceOnUse">
<stop offset="0.551687" stop-color="white"/>
<stop offset="1" stop-color="#F6E7FF"/>
</linearGradient>
<linearGradient id="paint7_linear_2707_54158" x1="-3.37398" y1="177.151" x2="470.512" y2="444.82" gradientUnits="userSpaceOnUse">
<stop offset="0.551687" stop-color="white"/>
<stop offset="1" stop-color="#F6E7FF"/>
</linearGradient>
<linearGradient id="paint8_linear_2707_54158" x1="12.6838" y1="164.745" x2="460.939" y2="458.018" gradientUnits="userSpaceOnUse">
<stop offset="0.551687" stop-color="white"/>
<stop offset="1" stop-color="#F6E7FF"/>
</linearGradient>
<linearGradient id="paint9_linear_2707_54158" x1="29.121" y1="154.147" x2="450.046" y2="471.527" gradientUnits="userSpaceOnUse">
<stop offset="0.551687" stop-color="white"/>
<stop offset="1" stop-color="#F6E7FF"/>
</linearGradient>
<linearGradient id="paint10_linear_2707_54158" x1="45.8004" y1="145.359" x2="437.63" y2="485.139" gradientUnits="userSpaceOnUse">
<stop offset="0.551687" stop-color="white"/>
<stop offset="1" stop-color="#F6E7FF"/>
</linearGradient>
<linearGradient id="paint11_linear_2707_54158" x1="62.5949" y1="138.364" x2="423.536" y2="498.578" gradientUnits="userSpaceOnUse">
<stop offset="0.551687" stop-color="white"/>
<stop offset="1" stop-color="#F6E7FF"/>
</linearGradient>
<linearGradient id="paint12_linear_2707_54158" x1="79.3885" y1="133.139" x2="407.671" y2="511.515" gradientUnits="userSpaceOnUse">
<stop offset="0.551687" stop-color="white"/>
<stop offset="1" stop-color="#F6E7FF"/>
</linearGradient>
<linearGradient id="paint13_linear_2707_54158" x1="96.0371" y1="129.647" x2="389.982" y2="523.573" gradientUnits="userSpaceOnUse">
<stop offset="0.551687" stop-color="white"/>
<stop offset="1" stop-color="#F6E7FF"/>
</linearGradient>
<linearGradient id="paint14_linear_2707_54158" x1="112.43" y1="127.837" x2="370.537" y2="534.339" gradientUnits="userSpaceOnUse">
<stop offset="0.551687" stop-color="white"/>
<stop offset="1" stop-color="#F6E7FF"/>
</linearGradient>
<linearGradient id="paint15_linear_2707_54158" x1="128.469" y1="127.651" x2="349.509" y2="543.395" gradientUnits="userSpaceOnUse">
<stop offset="0.551687" stop-color="white"/>
<stop offset="1" stop-color="#F6E7FF"/>
</linearGradient>
<linearGradient id="paint16_linear_2707_54158" x1="144.02" y1="129.015" x2="327.142" y2="550.336" gradientUnits="userSpaceOnUse">
<stop offset="0.551687" stop-color="white"/>
<stop offset="1" stop-color="#F6E7FF"/>
</linearGradient>
<linearGradient id="paint17_linear_2707_54158" x1="159.005" y1="131.849" x2="303.835" y2="554.809" gradientUnits="userSpaceOnUse">
<stop offset="0.551687" stop-color="white"/>
<stop offset="1" stop-color="#F6E7FF"/>
</linearGradient>
<linearGradient id="paint18_linear_2707_54158" x1="173.317" y1="136.064" x2="280.045" y2="556.542" gradientUnits="userSpaceOnUse">
<stop offset="0.551687" stop-color="white"/>
<stop offset="1" stop-color="#F6E7FF"/>
</linearGradient>
<linearGradient id="paint19_linear_2707_54158" x1="186.876" y1="141.56" x2="256.325" y2="555.374" gradientUnits="userSpaceOnUse">
<stop offset="0.551687" stop-color="white"/>
<stop offset="1" stop-color="#F6E7FF"/>
</linearGradient>
<linearGradient id="paint20_linear_2707_54158" x1="199.608" y1="148.232" x2="233.264" y2="551.282" gradientUnits="userSpaceOnUse">
<stop offset="0.551687" stop-color="white"/>
<stop offset="1" stop-color="#F6E7FF"/>
</linearGradient>
<linearGradient id="paint21_linear_2707_54158" x1="211.426" y1="155.966" x2="211.426" y2="544.38" gradientUnits="userSpaceOnUse">
<stop offset="0.551687" stop-color="white"/>
<stop offset="1" stop-color="#F6E7FF"/>
</linearGradient>
<linearGradient id="paint22_linear_2707_54158" x1="211.505" y1="54.8718" x2="211.505" y2="649.465" gradientUnits="userSpaceOnUse">
<stop stop-color="#041D2E"/>
<stop offset="1" stop-color="#012E3A"/>
</linearGradient>
<linearGradient id="paint23_linear_2707_54158" x1="211.502" y1="1" x2="211.502" y2="704.336" gradientUnits="userSpaceOnUse">
<stop stop-color="#061D30"/>
<stop offset="1" stop-color="#012F3A"/>
</linearGradient>
<clipPath id="clip0_2707_54158">
<rect x="17.9619" y="12.9702" width="387.084" height="674.404" rx="29.9292" fill="white"/>
</clipPath>
</defs>
</svg>
