<svg xmlns="http://www.w3.org/2000/svg" fill="none" viewBox="0 0 97 96">
<rect width="97" height="96" rx="48" fill="#0E0E36"/>
<path d="M45.4713 51.5768C44.3566 52.2027 43.343 52.968 42.4448 53.8741C41.202 55.1261 40.2216 56.6065 39.5211 58.2607C39.1448 59.1448 38.8712 60.0635 38.6925 61.0118C37.4512 60.9946 36.1878 60.7489 34.9007 60.2685C34.5655 60.1448 34.2302 60.004 33.8918 59.8475C32.2078 59.0697 30.6803 58.0118 29.3094 56.6754C27.9416 55.342 26.8253 53.7677 25.9572 51.957C25.0938 50.1433 24.6621 48.2043 24.6621 46.1401V28.4985L29.2952 31.3326L34.0073 28.4531V46.1401C34.0073 46.8725 34.1955 47.5705 34.5749 48.2387C34.9513 48.9023 35.4004 49.4876 35.9222 49.9774C36.4392 50.4719 36.9642 50.8569 37.4987 51.1448C38.0379 51.4328 38.4775 51.5768 38.8238 51.5768H45.4713Z" fill="url(#paint0_linear_2433_51729)"/>
<path d="M50.4278 61.8836C49.9534 62.3578 49.7178 62.9493 49.7178 63.6473C49.7178 64.3108 49.9534 64.8868 50.4278 65.3609C50.8974 65.8382 51.4667 66.0761 52.1244 66.0761H71.4331L62.0847 75.519H52.1244C50.5211 75.519 48.9999 75.206 47.572 74.5879C46.1363 73.9666 44.8871 73.1199 43.8182 72.037C42.7445 70.9587 41.9033 69.6927 41.2913 68.2467C40.6762 66.7991 40.3679 65.2686 40.3679 63.6473C40.3679 61.9932 40.6762 60.4439 41.2913 58.9979C41.9033 57.5503 42.7445 56.2858 43.8182 55.2076C44.8871 54.1293 46.1347 53.278 47.572 52.6567C48.9999 52.0385 50.5211 51.7255 52.1244 51.7255H60.6695C61.3321 51.7255 61.8966 51.4892 62.3709 51.0104C62.8406 50.5362 63.0762 49.9618 63.0762 49.2967C63.0762 48.5988 62.8406 48.0057 62.3709 47.5331C61.8966 47.0558 61.3321 46.8179 60.6695 46.8179H38.9258V37.375H60.6711C62.2776 37.375 63.7956 37.688 65.2283 38.3061C66.6609 38.9274 67.9085 39.7788 68.9821 40.857C70.0511 41.9399 70.8923 43.2013 71.509 44.6473C72.1209 46.0949 72.4277 47.6426 72.4277 49.2967C72.4277 50.9165 72.1193 52.4486 71.509 53.8961C70.8939 55.3437 70.0511 56.6082 68.9821 57.6864C67.9085 58.7694 66.6609 59.616 65.2283 60.2373C63.7956 60.8555 62.2792 61.1684 60.6711 61.1684H52.126C51.4667 61.1684 50.899 61.4063 50.4278 61.8836Z" fill="url(#paint1_linear_2433_51729)"/>
<path d="M45.4691 51.5781C44.3543 52.2041 43.3407 52.9694 42.4426 53.8755C41.1997 55.1274 40.2193 56.6079 39.5188 58.262C39.1425 59.1462 38.869 60.0648 38.6903 61.0132C37.449 60.996 36.1856 60.7503 34.8984 60.2698C35.4424 57.9772 36.7074 54.1431 39.4145 51.5781H45.4691Z" fill="url(#paint2_linear_2433_51729)"/>
<path d="M34.0265 26.7526L29.2559 24.5101V18.7057V18.5586L34.0265 26.7526Z" fill="url(#paint3_linear_2433_51729)"/>
<path d="M29.2927 18.5938V18.7424V24.5452L24.5742 26.7315L29.2927 18.5938Z" fill="url(#paint4_linear_2433_51729)"/>
<path d="M29.293 24.4219V29.6097L34.0288 26.7505L29.293 24.4219Z" fill="url(#paint5_linear_2433_51729)"/>
<path d="M29.3101 24.4023V29.5901L24.5742 26.731L29.3101 24.4023Z" fill="url(#paint6_linear_2433_51729)"/>
<defs>
<linearGradient id="paint0_linear_2433_51729" x1="15.2242" y1="33.1947" x2="55.5713" y2="57.3921" gradientUnits="userSpaceOnUse">
<stop offset="0.004587" stop-color="#142E77"/>
<stop offset="0.5183" stop-color="#1F7CB6"/>
<stop offset="1" stop-color="#3CEDFC"/>
</linearGradient>
<linearGradient id="paint1_linear_2433_51729" x1="15.6374" y1="32.5036" x2="55.9844" y2="56.701" gradientUnits="userSpaceOnUse">
<stop offset="0.004587" stop-color="#142E77"/>
<stop offset="0.5183" stop-color="#1F7CB6"/>
<stop offset="1" stop-color="#3CEDFC"/>
</linearGradient>
<linearGradient id="paint2_linear_2433_51729" x1="43.4404" y1="57.6988" x2="37.3523" y2="54.3105" gradientUnits="userSpaceOnUse">
<stop offset="1e-05" stop-color="#0A207A"/>
<stop offset="1" stop-color="#2865C3" stop-opacity="0"/>
</linearGradient>
<linearGradient id="paint3_linear_2433_51729" x1="26.568" y1="19.9546" x2="37.845" y2="26.7178" gradientUnits="userSpaceOnUse">
<stop offset="0.004587" stop-color="#142E77"/>
<stop offset="0.5183" stop-color="#1F7CB6"/>
<stop offset="1" stop-color="#3CEDFC"/>
</linearGradient>
<linearGradient id="paint4_linear_2433_51729" x1="31.9689" y1="19.998" x2="20.7913" y2="26.7016" gradientUnits="userSpaceOnUse">
<stop offset="0.004587" stop-color="#142E77"/>
<stop offset="0.5183" stop-color="#1F7CB6"/>
<stop offset="1" stop-color="#3CEDFC"/>
</linearGradient>
<linearGradient id="paint5_linear_2433_51729" x1="27.3766" y1="25.6628" x2="34.5175" y2="29.9454" gradientUnits="userSpaceOnUse">
<stop offset="0.004587" stop-color="#142E77"/>
<stop offset="0.5183" stop-color="#1F7CB6"/>
<stop offset="1" stop-color="#3CEDFC"/>
</linearGradient>
<linearGradient id="paint6_linear_2433_51729" x1="31.2261" y1="25.6442" x2="24.0853" y2="29.9268" gradientUnits="userSpaceOnUse">
<stop offset="0.004587" stop-color="#142E77"/>
<stop offset="0.5183" stop-color="#1F7CB6"/>
<stop offset="1" stop-color="#3CEDFC"/>
</linearGradient>
</defs>
</svg>