<svg width="32" height="32" viewBox="0 0 32 32" fill="none" xmlns="http://www.w3.org/2000/svg">
<circle cx="16" cy="16" r="16" fill="#E7E8F2"/>
<circle cx="15.9991" cy="16.0004" r="10.6898" fill="white"/>
<path fill-rule="evenodd" clip-rule="evenodd" d="M16.7453 26.6639C22.6347 26.2521 27.0752 21.1439 26.6634 15.2544C26.2515 9.365 21.1434 4.92452 15.2539 5.33635C15.2327 5.33783 15.2115 5.33938 15.1903 5.34098L16.7561 6.65749L18.5333 5.63272L19.5933 7.34503L21.5639 6.92598L22.0512 8.90551L24.0888 9.12135L23.9397 11.1399L25.7786 11.9569L25.013 13.8549L26.5324 15.2277L25.232 16.7657L26.2362 18.5004L24.4986 19.5843L24.918 21.5894L22.9668 22.0696L22.7627 24.069L20.7214 23.926L19.887 25.8041L18.0125 25.0403L16.6725 26.5399L15.1072 25.2164L13.3275 26.2343L12.2673 24.5218L10.2977 24.9406L9.81056 22.9616L7.77203 22.7457L7.92118 20.7263L6.08295 19.9096L6.85096 18.0151L5.32894 16.6399C5.33107 16.6752 5.33336 16.7105 5.33583 16.7458C5.74766 22.6352 10.8558 27.0757 16.7453 26.6639ZM5.32888 16.6388L6.63001 15.1084L5.63303 13.3794C5.37064 14.4181 5.26131 15.5137 5.32888 16.6388ZM5.63846 13.358L7.35568 12.2869L6.93882 10.3265C6.35694 11.2541 5.91445 12.275 5.63846 13.358ZM6.97642 10.267L8.89492 9.7961L9.09472 7.83862C8.27093 8.53672 7.55616 9.35613 6.97642 10.267ZM9.13997 7.80049L11.1427 7.94071L11.9656 6.09754C10.9302 6.51912 9.97928 7.09716 9.13997 7.80049ZM11.9953 6.08551L13.844 6.83875L15.1899 5.34101C14.0634 5.42644 12.9906 5.68379 11.9953 6.08551Z" fill="url(#paint0_linear)" fill-opacity="0.4"/>
<path fill-rule="evenodd" clip-rule="evenodd" d="M11.8524 25.8524C17.2937 28.143 23.5617 25.5889 25.8524 20.1476C28.1431 14.7063 25.589 8.4383 20.1477 6.14763C20.128 6.13937 20.1084 6.13118 20.0888 6.12305L20.8919 8.00457L22.9403 7.89223L23.1133 9.89862L25.0609 10.4141L24.6023 12.4005L26.3231 13.5127L25.279 15.2467L26.5512 16.8058L25.0114 18.1538L25.7476 20.0646L23.893 20.8501L24.0062 22.8513L21.9664 23.0343L21.4357 25.0128L19.4777 24.5607L18.3932 26.2527L16.6362 25.2039L15.044 26.5031L13.716 24.9755L11.8434 25.7088L11.044 23.8213L8.9964 23.9264L8.82335 21.9197L6.87667 21.4045L7.33519 19.4187L5.61357 18.306L6.65811 16.5713L5.38638 15.0128L6.92681 13.6689L6.18932 11.7548C6.17529 11.7872 6.1614 11.8197 6.14766 11.8524C3.85699 17.2937 6.41109 23.5617 11.8524 25.8524ZM6.18974 11.7538L8.04156 10.9753L7.93226 8.98252C7.2293 9.79098 6.63724 10.7193 6.18974 11.7538ZM7.94676 8.96588L9.96259 8.78509L10.4754 6.84759C9.53752 7.41268 8.68189 8.12397 7.94676 8.96588ZM10.5358 6.81146L12.4603 7.25718L13.5221 5.60061C12.4719 5.85174 11.4643 6.26034 10.5358 6.81146ZM13.5797 5.587L15.3036 6.61605L16.8698 5.34273C15.7556 5.25159 14.6461 5.33821 13.5797 5.587ZM16.9017 5.34539L18.2114 6.85193L20.0884 6.1229C19.0446 5.69069 17.9711 5.43611 16.9017 5.34539Z" fill="url(#paint1_linear)" fill-opacity="0.4"/>
<path fill-rule="evenodd" clip-rule="evenodd" d="M21.2146 10.7852H20.2665V20.17L21.2146 21.1164V10.7852Z" fill="#1F9B99"/>
<path fill-rule="evenodd" clip-rule="evenodd" d="M19.3177 10.7852H18.3696V18.2775L19.3177 19.2238V10.7852Z" fill="#1F9B99"/>
<path fill-rule="evenodd" clip-rule="evenodd" d="M17.4217 10.7852H16.4736V16.3846L17.4217 17.3309V10.7852Z" fill="#1F9B99"/>
<path fill-rule="evenodd" clip-rule="evenodd" d="M14.5775 14.5332V21.1168H15.5256V15.4795L14.5775 14.5332Z" fill="#2DE1E8"/>
<path fill-rule="evenodd" clip-rule="evenodd" d="M12.6808 12.6387V21.1173H13.6289V13.585L12.6808 12.6387Z" fill="#2DE1E8"/>
<path fill-rule="evenodd" clip-rule="evenodd" d="M10.8233 10.7852H10.7849V21.116H11.733V11.6932L10.8233 10.7852Z" fill="#2DE1E8"/>
<defs>
<linearGradient id="paint0_linear" x1="6.63632" y1="7.31111" x2="25.939" y2="24.5182" gradientUnits="userSpaceOnUse">
<stop stop-color="#2DE1E8"/>
<stop offset="1" stop-color="#1F9B99"/>
</linearGradient>
<linearGradient id="paint1_linear" x1="11.5665" y1="4.0203" x2="21.0249" y2="28.0872" gradientUnits="userSpaceOnUse">
<stop stop-color="#2DE1E8"/>
<stop offset="1" stop-color="#1F9B99"/>
</linearGradient>
</defs>
</svg>
