<svg width="24" height="24" viewBox="0 0 24 24" fill="none" xmlns="http://www.w3.org/2000/svg">
<path d="M12 24C18.6276 24 24 18.6276 24 12C24 5.3724 18.6276 0 12 0C5.3724 0 0 5.3724 0 12C0 18.6276 5.3724 24 12 24Z" fill="#070A0E"/>
<path fill-rule="evenodd" clip-rule="evenodd" d="M6.93192 16.0237C6.57312 15.8041 6.35352 15.4141 6.35352 14.9941V12.6493C6.35352 12.3709 6.58032 12.1453 6.85872 12.1465C6.94752 12.1465 7.03512 12.1705 7.11192 12.2149L12.4027 15.3001C12.7123 15.4801 12.9031 15.8113 12.9031 16.1701V18.5989C12.9043 18.9325 12.6343 19.2037 12.3007 19.2037C12.1891 19.2037 12.0787 19.1725 11.9839 19.1149L6.93192 16.0237ZM14.8183 11.5729C15.1279 11.7529 15.3175 12.0853 15.3187 12.4429V17.3725C15.3187 17.5177 15.2407 17.6521 15.1135 17.7229L13.9555 18.3745C13.9411 18.3829 13.9255 18.3889 13.9087 18.3937V15.6565C13.9087 15.3025 13.7227 14.9737 13.4179 14.7913L8.77152 12.0121V8.92213C8.77152 8.64373 8.99832 8.41813 9.27672 8.41933C9.36552 8.41933 9.45312 8.44333 9.52992 8.48773L14.8183 11.5729ZM17.1343 7.93213C17.4451 8.11213 17.6359 8.44453 17.6359 8.80333V16.0033C17.6347 16.1509 17.5531 16.2865 17.4235 16.3573L16.3255 16.9501V11.9377C16.3255 11.5837 16.1395 11.2561 15.8371 11.0737L11.0875 8.22493V5.29453C11.0875 5.20573 11.1115 5.11813 11.1547 5.04133C11.2951 4.80133 11.6035 4.71973 11.8435 4.85893L17.1343 7.93213Z" fill="#00D395"/>
</svg>
