<svg width="32" height="32" viewBox="0 0 32 32" fill="none" xmlns="http://www.w3.org/2000/svg">
<circle cx="16" cy="16" r="14" stroke="#FFAA00" stroke-width="4"/>
<path fill-rule="evenodd" clip-rule="evenodd" d="M15.4348 9.33398H9.91729V13.7628H8V15.3493H9.91729V17.0145H8V18.601H9.91729V22.976H15.4348C18.7529 22.976 21.2773 21.1894 22.2486 18.601H24V17.0145H22.6327C22.6662 16.7332 22.6833 16.446 22.6833 16.1539V16.1149C22.6833 15.8554 22.6698 15.6 22.6432 15.3493H24V13.7628H22.2813C21.3349 11.1379 18.7909 9.33398 15.4348 9.33398ZM11.4598 21.5528V18.601H20.5585C19.7102 20.3706 17.8877 21.5528 15.4348 21.5528H11.4598ZM11.4598 17.0145H21.0311C21.0681 16.7474 21.0871 16.473 21.0871 16.1928V16.1539C21.0871 15.88 21.069 15.6113 21.0335 15.3493H11.4598V17.0145ZM20.5702 13.7628C19.727 11.9683 17.899 10.7549 15.4348 10.7549H11.4598V13.7628H20.5702Z" fill="#FFAA00"/>
</svg>
