<svg width="192" height="192" viewBox="0 0 192 192" fill="none" xmlns="http://www.w3.org/2000/svg">
<path fill-rule="evenodd" clip-rule="evenodd" d="M96 192C42.978 192 0 149.022 0 96C0 42.978 42.978 0 96 0C149.022 0 192 42.978 192 96C192 149.022 149.022 192 96 192Z" fill="#00A3FF"/>
<path d="M54.2235 88.6141L53.0736 90.3783C40.1034 110.274 43.0003 136.332 60.0381 153.026C70.0612 162.847 83.1978 167.758 96.3348 167.759C96.3348 167.759 96.3348 167.759 54.2235 88.6141Z" fill="white"/>
<path opacity="0.6" d="M96.3312 112.668L54.2198 88.6141C96.3312 167.759 96.3312 167.759 96.3312 167.759C96.3312 150.522 96.3312 130.77 96.3312 112.668Z" fill="white"/>
<path opacity="0.6" d="M138.491 88.6141L139.641 90.3783C152.611 110.274 149.714 136.332 132.676 153.026C122.653 162.847 109.517 167.758 96.3798 167.759C96.3798 167.759 96.3798 167.759 138.491 88.6141Z" fill="white"/>
<path opacity="0.2" d="M96.3749 112.668L138.486 88.6141C96.3753 167.759 96.3749 167.759 96.3749 167.759C96.3749 150.522 96.3749 130.77 96.3749 112.668Z" fill="white"/>
<path opacity="0.2" d="M96.3821 58.9232V100.41L132.656 79.68L96.3821 58.9232Z" fill="white"/>
<path opacity="0.6" d="M96.3882 58.9232L60.0879 79.6796L96.3882 100.41V58.9232Z" fill="white"/>
<path d="M96.3882 24.033L60.0879 79.693L96.3882 58.8784V24.033Z" fill="white"/>
<path opacity="0.6" d="M96.3821 58.8724L132.684 79.6877L96.3821 24V58.8724Z" fill="white"/>
</svg>
