<svg width="276" height="254" viewBox="0 0 276 254" fill="none" xmlns="http://www.w3.org/2000/svg">
<path d="M55.7456 71.2231L138.415 35.6116L222.357 71.2231L138.415 109.378L55.7456 71.2231Z" fill="#F8FAFA"/>
<path d="M54.3138 71.4375L137.303 109.857L137.303 224.857L52.8032 185.857L54.3138 71.4375Z" fill="white"/>
<path d="M221.346 72.7879L138.357 111.207L138.357 226.207L222.857 187.207L221.346 72.7879Z" fill="url(#paint0_linear)"/>
<path d="M167.667 64.8638L152.405 58.5046L109.163 78.8541L124.425 85.2133L167.667 64.8638Z" fill="white"/>
<path d="M119.337 16.5339L151.133 2.5437V41.9707L119.337 55.961V16.5339Z" fill="white"/>
<g filter="url(#filter0_d)">
<path d="M224.15 69.4586L153.36 37.9424V1.67208C153.36 1.10484 153.077 0.578302 152.599 0.270516C152.121 -0.0398123 151.526 -0.0855992 151.009 0.145876L118.511 14.6143C117.908 14.8839 117.517 15.4817 117.517 16.1431V40.4276L52.3121 69.4586C51.3048 69.9088 50.6587 70.9059 50.6587 72.0048V188.03C50.6587 189.134 51.3048 190.131 52.3121 190.581L137.095 228.329C137.459 228.489 137.846 228.573 138.232 228.573C138.614 228.573 139.008 228.492 139.364 228.329L224.15 190.581C225.158 190.131 225.804 189.134 225.804 188.03V72.0048C225.806 70.9059 225.16 69.9088 224.15 69.4586ZM120.864 17.2292L150.015 4.24883V40.5853L120.864 53.5631V17.2292ZM136.559 221.983L56.237 186.221V75.0801L136.559 110.844V221.983ZM138.232 107.924L88.1576 85.6313L58.9307 72.6153L117.517 46.5324V56.1424C117.517 56.7097 117.804 57.2362 118.28 57.5465C118.557 57.7246 118.873 57.8162 119.193 57.8162C119.425 57.8162 119.656 57.7678 119.872 57.6712L151.915 43.4062L217.534 72.6178L188.302 85.6338L138.232 107.924ZM220.225 186.221L139.906 221.983V110.844L220.225 75.0801V186.221Z" fill="url(#paint1_linear)"/>
</g>
<g opacity="0.8">
<path d="M61.9166 183.255L64.9766 184.614C65.1242 184.677 65.2793 184.713 65.4294 184.713C65.8568 184.713 66.2637 184.464 66.4494 184.051C66.7013 183.484 66.4469 182.828 65.8822 182.579L63.4886 181.51V178.888C63.4886 178.275 62.9875 177.774 62.3745 177.774C61.7589 177.774 61.2603 178.275 61.2603 178.888V182.233C61.2552 182.675 61.5147 183.077 61.9166 183.255Z" fill="url(#paint2_linear)"/>
<path d="M62.3715 173.095C62.987 173.095 63.4856 172.599 63.4856 171.981V165.075C63.4856 164.46 62.9845 163.961 62.3715 163.961C61.7559 163.961 61.2573 164.46 61.2573 165.075V171.981C61.2548 172.599 61.7559 173.095 62.3715 173.095Z" fill="url(#paint3_linear)"/>
<path d="M62.3715 159.281C62.987 159.281 63.4856 158.785 63.4856 158.167V151.258C63.4856 150.645 62.9845 150.144 62.3715 150.144C61.7559 150.144 61.2573 150.645 61.2573 151.258V158.167C61.2548 158.785 61.7559 159.281 62.3715 159.281Z" fill="url(#paint4_linear)"/>
<path d="M62.3715 145.469C62.987 145.469 63.4856 144.973 63.4856 144.355V137.446C63.4856 136.833 62.9845 136.332 62.3715 136.332C61.7559 136.332 61.2573 136.833 61.2573 137.446V144.355C61.2548 144.97 61.7559 145.469 62.3715 145.469Z" fill="url(#paint5_linear)"/>
<path d="M62.3715 104.027C62.987 104.027 63.4856 103.526 63.4856 102.913V96.0046C63.4856 95.3891 62.9845 94.8905 62.3715 94.8905C61.7559 94.8905 61.2573 95.3891 61.2573 96.0046V102.913C61.2548 103.529 61.7559 104.027 62.3715 104.027Z" fill="url(#paint6_linear)"/>
<path d="M62.3715 117.842C62.987 117.842 63.4856 117.343 63.4856 116.728V109.819C63.4856 109.201 62.9845 108.705 62.3715 108.705C61.7559 108.705 61.2573 109.201 61.2573 109.819V116.728C61.2548 117.343 61.7559 117.842 62.3715 117.842Z" fill="url(#paint7_linear)"/>
<path d="M62.3715 131.654C62.987 131.654 63.4856 131.158 63.4856 130.54V123.636C63.4856 123.018 62.9845 122.522 62.3715 122.522C61.7559 122.522 61.2573 123.018 61.2573 123.636V130.54C61.2548 131.158 61.7559 131.654 62.3715 131.654Z" fill="url(#paint8_linear)"/>
<path d="M62.3717 90.2127C62.9872 90.2127 63.4858 89.7116 63.4858 89.0986V87.4681L64.9738 88.1294C65.536 88.3812 66.1974 88.1269 66.4466 87.5622C66.6985 87 66.4441 86.3412 65.8794 86.0919L62.8219 84.7285C62.4785 84.5759 62.0766 84.6064 61.7612 84.8125C61.4432 85.021 61.2524 85.3695 61.2524 85.7485V89.096C61.255 89.7116 61.7561 90.2127 62.3717 90.2127Z" fill="url(#paint9_linear)"/>
<path d="M112.278 109.193L119.036 112.205C119.181 112.268 119.336 112.302 119.489 112.302C119.914 112.302 120.323 112.052 120.509 111.638C120.758 111.075 120.506 110.414 119.942 110.165L113.186 107.153C112.621 106.904 111.962 107.158 111.713 107.72C111.464 108.283 111.715 108.944 112.278 109.193Z" fill="url(#paint10_linear)"/>
<path d="M71.7318 91.1387L78.4903 94.1478C78.6379 94.214 78.793 94.2445 78.9431 94.2445C79.3704 94.2445 79.7774 93.9978 79.9631 93.5806C80.215 93.0184 79.9606 92.3622 79.3959 92.1078L72.6399 89.1012C72.0752 88.8493 71.4189 89.1037 71.1671 89.6659C70.9153 90.2306 71.1696 90.8894 71.7318 91.1387Z" fill="url(#paint11_linear)"/>
<path d="M98.7649 103.175L105.523 106.187C105.668 106.253 105.824 106.283 105.976 106.283C106.404 106.283 106.811 106.034 106.996 105.622C107.248 105.06 106.994 104.398 106.429 104.149L99.673 101.14C99.1083 100.888 98.452 101.14 98.2002 101.702C97.9509 102.262 98.2027 102.926 98.7649 103.175Z" fill="url(#paint12_linear)"/>
<path d="M85.2463 97.1564L92.0049 100.166C92.1499 100.229 92.305 100.262 92.4576 100.262C92.885 100.262 93.292 100.015 93.4777 99.6009C93.7295 99.0387 93.4751 98.3799 92.9104 98.1281L86.1544 95.1214C85.5897 94.8671 84.9334 95.1214 84.6816 95.6861C84.4323 96.2483 84.6842 96.9046 85.2463 97.1564Z" fill="url(#paint13_linear)"/>
<path d="M125.795 115.212L128.191 116.277V118.902C128.191 119.515 128.69 120.017 129.305 120.017C129.921 120.017 130.42 119.515 130.42 118.902V115.555C130.42 115.11 130.16 114.713 129.758 114.535L126.701 113.169C126.139 112.92 125.48 113.174 125.228 113.736C124.981 114.298 125.233 114.957 125.795 115.212Z" fill="url(#paint14_linear)"/>
<path d="M129.307 138.504C128.691 138.504 128.193 139.003 128.193 139.619V146.525C128.193 147.143 128.691 147.639 129.307 147.639C129.923 147.639 130.421 147.143 130.421 146.525V139.621C130.424 139.005 129.923 138.504 129.307 138.504Z" fill="url(#paint15_linear)"/>
<path d="M129.307 124.689C128.691 124.689 128.193 125.19 128.193 125.806V132.712C128.193 133.33 128.691 133.826 129.307 133.826C129.923 133.826 130.421 133.33 130.421 132.712V125.806C130.424 125.19 129.923 124.689 129.307 124.689Z" fill="url(#paint16_linear)"/>
<path d="M129.307 193.76C128.691 193.76 128.193 194.262 128.193 194.875V201.783C128.193 202.396 128.691 202.897 129.307 202.897C129.923 202.897 130.421 202.396 130.421 201.783V194.875C130.424 194.262 129.923 193.76 129.307 193.76Z" fill="url(#paint17_linear)"/>
<path d="M129.307 166.133C128.691 166.133 128.193 166.634 128.193 167.247V174.156C128.193 174.774 128.691 175.27 129.307 175.27C129.923 175.27 130.421 174.774 130.421 174.156V167.247C130.424 166.634 129.923 166.133 129.307 166.133Z" fill="url(#paint18_linear)"/>
<path d="M129.307 152.319C128.691 152.319 128.193 152.82 128.193 153.433V160.339C128.193 160.96 128.691 161.456 129.307 161.456C129.923 161.456 130.421 160.96 130.421 160.339V153.433C130.424 152.82 129.923 152.319 129.307 152.319Z" fill="url(#paint19_linear)"/>
<path d="M129.307 179.946C128.691 179.946 128.193 180.447 128.193 181.06V187.969C128.193 188.582 128.691 189.083 129.307 189.083C129.923 189.083 130.421 188.582 130.421 187.969V181.06C130.424 180.45 129.923 179.946 129.307 179.946Z" fill="url(#paint20_linear)"/>
<path d="M125.795 211.694L128.853 213.057C129 213.123 129.153 213.154 129.308 213.154C129.519 213.154 129.733 213.095 129.916 212.976C130.231 212.767 130.422 212.419 130.422 212.04V208.695C130.422 208.077 129.923 207.581 129.308 207.581C128.692 207.581 128.194 208.077 128.194 208.695V210.325L126.706 209.661C126.141 209.407 125.485 209.661 125.233 210.223C124.981 210.788 125.233 211.444 125.795 211.694Z" fill="url(#paint21_linear)"/>
<path d="M106.429 200.629L99.673 197.622C99.1083 197.368 98.452 197.622 98.2002 198.189C97.9509 198.751 98.2027 199.408 98.7649 199.662L105.523 202.669C105.668 202.735 105.824 202.765 105.976 202.765C106.404 202.765 106.811 202.521 106.996 202.101C107.245 201.542 106.994 200.883 106.429 200.629Z" fill="url(#paint22_linear)"/>
<path d="M92.9144 194.61L86.1584 191.604C85.5937 191.349 84.9375 191.609 84.6856 192.171C84.4338 192.733 84.6882 193.389 85.2503 193.644L92.0089 196.65C92.1539 196.716 92.309 196.747 92.4617 196.747C92.889 196.747 93.296 196.503 93.4817 196.083C93.731 195.523 93.4791 194.865 92.9144 194.61Z" fill="url(#paint23_linear)"/>
<path d="M119.945 206.65L113.189 203.64C112.624 203.389 111.968 203.64 111.716 204.205C111.467 204.772 111.718 205.429 112.28 205.678L119.039 208.69C119.184 208.753 119.339 208.786 119.492 208.786C119.917 208.786 120.326 208.54 120.512 208.122C120.761 207.56 120.509 206.901 119.945 206.65Z" fill="url(#paint24_linear)"/>
<path d="M71.7318 187.625L78.4903 190.635C78.6379 190.698 78.793 190.729 78.9431 190.729C79.3704 190.729 79.7774 190.484 79.9631 190.067C80.215 189.503 79.9631 188.849 79.3959 188.6L72.6399 185.585C72.0752 185.334 71.4164 185.59 71.1671 186.153C70.9153 186.717 71.1696 187.374 71.7318 187.625Z" fill="url(#paint25_linear)"/>
</g>
<g opacity="0.8">
<path d="M147.156 120.019C147.771 120.019 148.272 119.518 148.272 118.905V116.28L150.666 115.214C151.228 114.96 151.48 114.303 151.233 113.741C150.979 113.179 150.325 112.925 149.758 113.174L146.703 114.54C146.301 114.718 146.042 115.115 146.042 115.56V118.907C146.042 119.518 146.54 120.019 147.156 120.019Z" fill="white"/>
<path d="M170.491 106.281C170.641 106.281 170.793 106.25 170.944 106.184L177.7 103.173C178.262 102.923 178.514 102.262 178.267 101.697C178.012 101.135 177.359 100.883 176.791 101.135L170.035 104.144C169.473 104.393 169.221 105.055 169.468 105.617C169.656 106.032 170.063 106.281 170.491 106.281Z" fill="white"/>
<path d="M184.002 100.262C184.152 100.262 184.305 100.232 184.455 100.166L191.211 97.1566C191.778 96.9048 192.03 96.2485 191.778 95.6838C191.529 95.1191 190.87 94.8673 190.308 95.1191L183.547 98.1258C182.985 98.3776 182.733 99.0364 182.985 99.5986C183.168 100.016 183.575 100.262 184.002 100.262Z" fill="white"/>
<path d="M197.523 94.2445C197.673 94.2445 197.826 94.214 197.976 94.1478L204.732 91.1387C205.294 90.8868 205.546 90.2306 205.299 89.6659C205.045 89.1037 204.391 88.8493 203.824 89.1012L197.068 92.1078C196.506 92.3622 196.254 93.0184 196.5 93.5806C196.686 93.9978 197.096 94.2445 197.523 94.2445Z" fill="white"/>
<path d="M156.971 112.299C157.121 112.299 157.274 112.269 157.424 112.203L164.18 109.191C164.742 108.942 164.999 108.28 164.747 107.718C164.493 107.156 163.839 106.904 163.277 107.151L156.516 110.163C155.954 110.412 155.702 111.073 155.954 111.635C156.137 112.052 156.544 112.299 156.971 112.299Z" fill="white"/>
<path d="M211.486 88.1293L212.977 87.468V89.0984C212.977 89.714 213.473 90.2126 214.091 90.2126C214.709 90.2126 215.208 89.7115 215.208 89.0984V85.751C215.208 85.372 215.014 85.0209 214.702 84.8149C214.384 84.6089 213.987 84.5783 213.638 84.731L210.578 86.0944C210.016 86.3436 209.764 87.0025 210.016 87.5646C210.263 88.1268 210.924 88.3811 211.486 88.1293Z" fill="white"/>
<path d="M214.088 122.519C213.473 122.519 212.974 123.015 212.974 123.634V130.537C212.974 131.155 213.47 131.651 214.088 131.651C214.706 131.651 215.205 131.155 215.205 130.537V123.634C215.207 123.018 214.704 122.519 214.088 122.519Z" fill="white"/>
<path d="M214.088 150.144C213.473 150.144 212.974 150.645 212.974 151.258V158.167C212.974 158.785 213.47 159.281 214.088 159.281C214.706 159.281 215.205 158.785 215.205 158.167V151.258C215.207 150.645 214.704 150.144 214.088 150.144Z" fill="white"/>
<path d="M214.088 136.33C213.473 136.33 212.974 136.831 212.974 137.444V144.352C212.974 144.97 213.47 145.466 214.088 145.466C214.706 145.466 215.205 144.97 215.205 144.352V137.444C215.207 136.831 214.704 136.33 214.088 136.33Z" fill="white"/>
<path d="M214.088 94.8905C213.473 94.8905 212.974 95.3891 212.974 96.0046V102.913C212.974 103.529 213.47 104.027 214.088 104.027C214.706 104.027 215.205 103.526 215.205 102.913V96.0046C215.207 95.3891 214.704 94.8905 214.088 94.8905Z" fill="white"/>
<path d="M214.088 108.705C213.473 108.705 212.974 109.201 212.974 109.819V116.728C212.974 117.343 213.47 117.842 214.088 117.842C214.706 117.842 215.205 117.343 215.205 116.728V109.819C215.207 109.201 214.704 108.705 214.088 108.705Z" fill="white"/>
<path d="M214.088 163.958C213.473 163.958 212.974 164.457 212.974 165.073V171.979C212.974 172.597 213.47 173.093 214.088 173.093C214.706 173.093 215.205 172.597 215.205 171.979V165.073C215.207 164.46 214.704 163.958 214.088 163.958Z" fill="white"/>
<path d="M211.034 184.715C211.184 184.715 211.341 184.68 211.486 184.616L214.546 183.258C214.948 183.08 215.208 182.675 215.208 182.238V178.893C215.208 178.28 214.707 177.779 214.091 177.779C213.476 177.779 212.977 178.28 212.977 178.893V181.515L210.578 182.584C210.016 182.833 209.764 183.489 210.016 184.056C210.199 184.466 210.606 184.715 211.034 184.715Z" fill="white"/>
<path d="M156.971 208.783C157.121 208.783 157.274 208.75 157.424 208.686L164.18 205.675C164.747 205.425 164.999 204.769 164.747 204.205C164.493 203.637 163.839 203.388 163.277 203.637L156.516 206.646C155.954 206.901 155.702 207.557 155.954 208.119C156.137 208.539 156.544 208.783 156.971 208.783Z" fill="white"/>
<path d="M190.308 191.604L183.547 194.61C182.985 194.865 182.733 195.521 182.985 196.083C183.168 196.503 183.575 196.747 184.002 196.747C184.152 196.747 184.305 196.716 184.455 196.65L191.211 193.644C191.778 193.389 192.03 192.733 191.778 192.171C191.529 191.609 190.868 191.352 190.308 191.604Z" fill="white"/>
<path d="M176.789 197.624L170.033 200.631C169.471 200.885 169.22 201.542 169.466 202.104C169.654 202.523 170.061 202.768 170.489 202.768C170.639 202.768 170.791 202.737 170.942 202.671L177.698 199.664C178.26 199.41 178.512 198.754 178.265 198.192C178.013 197.624 177.357 197.37 176.789 197.624Z" fill="white"/>
<path d="M203.821 185.585L197.065 188.599C196.503 188.848 196.251 189.502 196.497 190.069C196.686 190.484 197.093 190.728 197.52 190.728C197.67 190.728 197.823 190.698 197.973 190.634L204.729 187.625C205.291 187.373 205.543 186.717 205.296 186.152C205.044 185.59 204.388 185.336 203.821 185.585Z" fill="white"/>
<path d="M146.55 212.976C146.733 213.095 146.941 213.154 147.155 213.154C147.31 213.154 147.463 213.123 147.608 213.057L150.668 211.694C151.23 211.444 151.482 210.788 151.235 210.221C150.981 209.659 150.327 209.407 149.76 209.659L148.274 210.323V208.692C148.274 208.074 147.773 207.578 147.158 207.578C146.542 207.578 146.043 208.074 146.043 208.692V212.037C146.041 212.419 146.232 212.767 146.55 212.976Z" fill="white"/>
<path d="M147.156 189.085C147.771 189.085 148.272 188.584 148.272 187.971V181.063C148.272 180.45 147.771 179.948 147.156 179.948C146.54 179.948 146.042 180.45 146.042 181.063V187.971C146.042 188.584 146.54 189.085 147.156 189.085Z" fill="white"/>
<path d="M147.156 202.9C147.771 202.9 148.272 202.399 148.272 201.786V194.877C148.272 194.264 147.771 193.763 147.156 193.763C146.54 193.763 146.042 194.264 146.042 194.877V201.786C146.042 202.399 146.54 202.9 147.156 202.9Z" fill="white"/>
<path d="M147.156 147.641C147.771 147.641 148.272 147.145 148.272 146.527V139.621C148.272 139.005 147.771 138.507 147.156 138.507C146.54 138.507 146.042 139.005 146.042 139.621V146.527C146.042 147.145 146.54 147.641 147.156 147.641Z" fill="white"/>
<path d="M147.156 175.273C147.771 175.273 148.272 174.777 148.272 174.159V167.251C148.272 166.638 147.771 166.136 147.156 166.136C146.54 166.136 146.042 166.638 146.042 167.251V174.159C146.042 174.775 146.54 175.273 147.156 175.273Z" fill="white"/>
<path d="M147.156 133.829C147.771 133.829 148.272 133.333 148.272 132.715V125.808C148.272 125.193 147.771 124.692 147.156 124.692C146.54 124.692 146.042 125.193 146.042 125.808V132.715C146.042 133.33 146.54 133.829 147.156 133.829Z" fill="white"/>
<path d="M147.156 161.458C147.771 161.458 148.272 160.962 148.272 160.342V153.435C148.272 152.822 147.771 152.321 147.156 152.321C146.54 152.321 146.042 152.822 146.042 153.435V160.342C146.042 160.962 146.54 161.458 147.156 161.458Z" fill="white"/>
</g>
<g opacity="0.8">
<path d="M79.4656 70.194C79.2137 69.6293 78.5549 69.3749 77.9928 69.6268L74.9353 70.9902C74.5334 71.1682 74.2739 71.5676 74.2739 72.0076C74.2739 72.4477 74.5334 72.8496 74.9353 73.0276L77.9928 74.3885C78.1403 74.4547 78.2929 74.4877 78.4456 74.4877C78.8704 74.4877 79.2799 74.2384 79.4656 73.8264C79.7149 73.2617 79.463 72.6029 78.9009 72.3536L78.1327 72.0102L78.9009 71.6693C79.463 71.415 79.7149 70.7561 79.4656 70.194Z" fill="url(#paint26_linear)"/>
<path d="M90.598 64.0125L84.2947 66.8208C83.73 67.07 83.4782 67.7289 83.7275 68.2935C83.9132 68.7082 84.3202 68.9549 84.7475 68.9549C84.9001 68.9549 85.0553 68.9244 85.2003 68.8582L91.5035 66.05C92.0657 65.8007 92.32 65.1419 92.0707 64.5772C91.8189 64.0176 91.1601 63.7633 90.598 64.0125Z" fill="url(#paint27_linear)"/>
<path d="M103.202 58.4012L96.8987 61.2094C96.3365 61.4587 96.0847 62.1201 96.334 62.6822C96.5197 63.0994 96.9266 63.3436 97.354 63.3436C97.5066 63.3436 97.6592 63.3131 97.8068 63.2469L104.113 60.4387C104.675 60.1869 104.927 59.5306 104.677 58.9659C104.425 58.4038 103.767 58.1494 103.202 58.4012Z" fill="url(#paint28_linear)"/>
<path d="M109.963 57.7297C110.113 57.7297 110.269 57.6992 110.416 57.633L116.717 54.8248C117.282 54.573 117.533 53.9167 117.284 53.352C117.035 52.7899 116.373 52.5355 115.811 52.7873L109.508 55.593C108.946 55.8448 108.694 56.5036 108.943 57.0658C109.126 57.483 109.533 57.7297 109.963 57.7297Z" fill="url(#paint29_linear)"/>
<path d="M184.957 66.0527L191.263 68.8609C191.408 68.9245 191.561 68.9576 191.716 68.9576C192.143 68.9576 192.55 68.7083 192.733 68.2962C192.983 67.7315 192.733 67.0727 192.166 66.8235L185.865 64.0152C185.298 63.7634 184.644 64.0178 184.39 64.5799C184.143 65.1421 184.395 65.8009 184.957 66.0527Z" fill="url(#paint30_linear)"/>
<path d="M147.136 49.2136L153.442 52.0219C153.592 52.088 153.744 52.1185 153.894 52.1185C154.322 52.1185 154.729 51.8718 154.917 51.4572C155.166 50.895 154.912 50.2362 154.35 49.9844L148.044 47.1787C147.482 46.9269 146.823 47.1787 146.574 47.7434C146.322 48.3056 146.574 48.9618 147.136 49.2136Z" fill="url(#paint31_linear)"/>
<path d="M159.744 54.8274L166.05 57.6356C166.195 57.7017 166.348 57.7323 166.503 57.7323C166.93 57.7323 167.337 57.4855 167.52 57.0684C167.775 56.5062 167.52 55.8474 166.953 55.5956L160.653 52.7899C160.085 52.5381 159.426 52.7924 159.177 53.3546C158.93 53.9167 159.182 54.5756 159.744 54.8274Z" fill="url(#paint32_linear)"/>
<path d="M179.561 61.2069L173.258 58.4012C172.696 58.1494 172.037 58.4038 171.788 58.9659C171.533 59.5306 171.788 60.1869 172.355 60.4387L178.656 63.2469C178.806 63.3131 178.958 63.3436 179.108 63.3436C179.536 63.3436 179.948 63.0968 180.126 62.6822C180.375 62.1175 180.123 61.4562 179.561 61.2069Z" fill="url(#paint33_linear)"/>
<path d="M196.996 73.8233C197.184 74.2379 197.591 74.4847 198.018 74.4847C198.168 74.4847 198.321 74.4516 198.471 74.3855L201.531 73.0246C201.928 72.8466 202.187 72.4446 202.187 72.0046C202.187 71.5645 201.928 71.1652 201.531 70.9871L198.471 69.6237C197.909 69.3744 197.25 69.6263 196.996 70.191C196.746 70.7531 197.001 71.4119 197.563 71.6637L198.334 72.0046L197.563 72.348C197.001 72.5973 196.746 73.2586 196.996 73.8233Z" fill="url(#paint34_linear)"/>
<path d="M153.442 91.9957L147.136 94.8014C146.574 95.0507 146.322 95.7095 146.574 96.2742C146.757 96.6888 147.164 96.933 147.591 96.933C147.746 96.933 147.894 96.9024 148.044 96.8338L154.35 94.0281C154.912 93.7788 155.164 93.12 154.917 92.5553C154.663 91.9957 154.001 91.7439 153.442 91.9957Z" fill="url(#paint35_linear)"/>
<path d="M166.05 86.3816L159.744 89.1898C159.182 89.4391 158.93 90.0979 159.177 90.6626C159.36 91.0772 159.767 91.324 160.2 91.324C160.35 91.324 160.502 91.2934 160.653 91.2273L166.953 88.4191C167.52 88.1698 167.772 87.5084 167.52 86.9463C167.271 86.3816 166.61 86.1298 166.05 86.3816Z" fill="url(#paint36_linear)"/>
<path d="M192.733 75.7214C192.484 75.1567 191.825 74.9049 191.263 75.1567L184.957 77.9624C184.395 78.2117 184.143 78.8705 184.39 79.4352C184.573 79.8498 184.98 80.0991 185.408 80.0991C185.563 80.0991 185.715 80.066 185.865 79.9999L192.166 77.1917C192.733 76.9424 192.98 76.2861 192.733 75.7214Z" fill="url(#paint37_linear)"/>
<path d="M178.654 80.7705L172.354 83.5762C171.787 83.8255 171.535 84.4843 171.787 85.049C171.97 85.4636 172.377 85.7104 172.804 85.7104C172.954 85.7104 173.107 85.6798 173.257 85.6137L179.563 82.8055C180.125 82.5537 180.377 81.8948 180.125 81.3327C179.875 80.7705 179.219 80.5162 178.654 80.7705Z" fill="url(#paint38_linear)"/>
<path d="M140.835 97.607L138.233 98.7644L135.631 97.6045C135.064 97.3527 134.41 97.6045 134.158 98.1692C133.906 98.7339 134.161 99.3927 134.723 99.642L137.778 101.005C137.928 101.069 138.081 101.102 138.236 101.102C138.391 101.102 138.544 101.069 138.689 101.005L141.744 99.642C142.311 99.3927 142.563 98.7339 142.311 98.1692C142.059 97.607 141.398 97.3552 140.835 97.607Z" fill="url(#paint39_linear)"/>
<path d="M91.5046 77.9623L85.2014 75.1566C84.6392 74.9022 83.9804 75.1566 83.7286 75.7213C83.4767 76.286 83.7311 76.9423 84.2958 77.1941L90.599 80.0023C90.7466 80.0659 90.8992 80.1015 91.0518 80.1015C91.4792 80.1015 91.8861 79.8522 92.0718 79.4376C92.3237 78.8729 92.0693 78.2116 91.5046 77.9623Z" fill="url(#paint40_linear)"/>
<path d="M116.718 89.1898L110.417 86.3816C109.853 86.1298 109.194 86.3816 108.944 86.9463C108.693 87.5084 108.947 88.1698 109.509 88.4191L115.812 91.2273C115.96 91.2909 116.115 91.324 116.265 91.324C116.692 91.324 117.099 91.0772 117.285 90.6626C117.534 90.0979 117.283 89.4365 116.718 89.1898Z" fill="url(#paint41_linear)"/>
<path d="M104.113 83.5762L97.8068 80.7705C97.2446 80.5161 96.5858 80.7705 96.334 81.3352C96.0847 81.8973 96.3365 82.5562 96.8987 82.808L103.202 85.6162C103.349 85.6798 103.505 85.7129 103.655 85.7129C104.082 85.7129 104.489 85.4661 104.675 85.0515C104.927 84.4843 104.675 83.8229 104.113 83.5762Z" fill="url(#paint42_linear)"/>
<path d="M129.325 94.8013L123.022 91.9931C122.46 91.7413 121.801 91.9931 121.549 92.5552C121.297 93.1199 121.549 93.7787 122.117 94.028L128.417 96.8337C128.565 96.9024 128.722 96.9329 128.87 96.9329C129.297 96.9329 129.707 96.6862 129.89 96.2741C130.139 95.7094 129.89 95.0506 129.325 94.8013Z" fill="url(#paint43_linear)"/>
</g>
<path d="M168.551 64.3431L153.628 57.6991C153.34 57.5693 153.007 57.5719 152.719 57.7016L108.279 77.7789C107.877 77.962 107.62 78.3588 107.623 78.7989C107.623 79.2389 107.882 79.6357 108.284 79.8138L122.877 86.3129C123.019 86.379 123.175 86.4121 123.33 86.4121C123.485 86.4121 123.64 86.379 123.785 86.3129L168.551 66.3832C168.953 66.2051 169.213 65.8032 169.213 65.3657C169.213 64.9231 168.953 64.5237 168.551 64.3431ZM123.33 84.0719L111.464 78.7912L153.18 59.9426L165.351 65.3632L123.33 84.0719Z" fill="#013D4A"/>
<path d="M118.103 78.2625C117.903 78.3515 117.775 78.5499 117.778 78.7738C117.778 78.99 117.905 79.1935 118.109 79.28L123.104 81.5057C123.176 81.5362 123.254 81.554 123.331 81.554C123.41 81.554 123.486 81.5362 123.56 81.5057L158.67 65.8722C158.874 65.7832 158.998 65.5823 158.998 65.3635C158.998 65.1422 158.874 64.9413 158.67 64.8522L153.415 62.512C153.265 62.4485 153.102 62.4485 152.957 62.512L118.103 78.2625Z" fill="#013D4A"/>
<path d="M143.258 22.8031C143.427 22.8829 143.572 22.9915 143.686 23.1225C143.799 23.2536 143.878 23.4046 143.918 23.5669C143.958 23.7293 143.959 23.8997 143.92 24.0685C143.881 24.2373 143.802 24.4011 143.69 24.5506L136.445 34.2001C136.333 34.3498 136.189 34.4823 136.021 34.5899C135.852 34.6976 135.663 34.7784 135.464 34.8276C135.265 34.8768 135.06 34.8935 134.861 34.8768C134.662 34.86 134.472 34.8101 134.303 34.73L128.85 32.1503C128.681 32.0703 128.535 31.9617 128.422 31.8306C128.309 31.6995 128.23 31.5485 128.19 31.3863C128.15 31.224 128.149 31.0536 128.188 30.8849C128.227 30.7161 128.305 30.5523 128.417 30.4028C128.53 30.2533 128.674 30.121 128.842 30.0134C129.011 29.9059 129.2 29.8252 129.399 29.776C129.598 29.7268 129.803 29.71 130.002 29.7267C130.201 29.7433 130.39 29.793 130.559 29.873L134.727 31.8463L141.116 23.333C141.228 23.1833 141.372 23.0508 141.541 22.9431C141.709 22.8355 141.898 22.7547 142.097 22.7055C142.296 22.6563 142.501 22.6396 142.7 22.6563C142.899 22.6731 143.089 22.723 143.258 22.8031Z" fill="#13BBC2"/>
<defs>
<filter id="filter0_d" x="49.6587" y="0" width="177.145" height="232.573" filterUnits="userSpaceOnUse" color-interpolation-filters="sRGB">
<feFlood flood-opacity="0" result="BackgroundImageFix"/>
<feColorMatrix in="SourceAlpha" type="matrix" values="0 0 0 0 0 0 0 0 0 0 0 0 0 0 0 0 0 0 127 0" result="hardAlpha"/>
<feOffset dy="3"/>
<feGaussianBlur stdDeviation="0.5"/>
<feComposite in2="hardAlpha" operator="out"/>
<feColorMatrix type="matrix" values="0 0 0 0 0.684126 0 0 0 0 0.682951 0 0 0 0 0.741667 0 0 0 0.48 0"/>
<feBlend mode="normal" in2="BackgroundImageFix" result="effect1_dropShadow"/>
<feBlend mode="normal" in="SourceGraphic" in2="effect1_dropShadow" result="shape"/>
</filter>
<linearGradient id="paint0_linear" x1="198.253" y1="208.303" x2="131.536" y2="122.22" gradientUnits="userSpaceOnUse">
<stop stop-color="#49E0E6"/>
<stop offset="1" stop-color="#21B3B4"/>
</linearGradient>
<linearGradient id="paint1_linear" x1="176.782" y1="211.479" x2="70.7135" y2="48.0952" gradientUnits="userSpaceOnUse">
<stop stop-color="#49E0E6"/>
<stop offset="1" stop-color="#21B3B4"/>
</linearGradient>
<linearGradient id="paint2_linear" x1="69.9225" y1="180.991" x2="60.9075" y2="180.808" gradientUnits="userSpaceOnUse">
<stop stop-color="#BFC9F5" stop-opacity="0.5"/>
<stop offset="0.0001" stop-color="#8EA1F5" stop-opacity="0.5"/>
<stop offset="1" stop-color="#26CBCF"/>
</linearGradient>
<linearGradient id="paint3_linear" x1="64.9085" y1="168.196" x2="61.1072" y2="168.171" gradientUnits="userSpaceOnUse">
<stop stop-color="#BFC9F5" stop-opacity="0.5"/>
<stop offset="0.0001" stop-color="#8EA1F5" stop-opacity="0.5"/>
<stop offset="1" stop-color="#26CBCF"/>
</linearGradient>
<linearGradient id="paint4_linear" x1="64.9085" y1="154.38" x2="61.1072" y2="154.356" gradientUnits="userSpaceOnUse">
<stop stop-color="#BFC9F5" stop-opacity="0.5"/>
<stop offset="0.0001" stop-color="#8EA1F5" stop-opacity="0.5"/>
<stop offset="1" stop-color="#26CBCF"/>
</linearGradient>
<linearGradient id="paint5_linear" x1="64.9085" y1="140.568" x2="61.1072" y2="140.543" gradientUnits="userSpaceOnUse">
<stop stop-color="#BFC9F5" stop-opacity="0.5"/>
<stop offset="0.0001" stop-color="#8EA1F5" stop-opacity="0.5"/>
<stop offset="1" stop-color="#26CBCF"/>
</linearGradient>
<linearGradient id="paint6_linear" x1="64.9085" y1="99.1267" x2="61.1072" y2="99.102" gradientUnits="userSpaceOnUse">
<stop stop-color="#BFC9F5" stop-opacity="0.5"/>
<stop offset="0.0001" stop-color="#8EA1F5" stop-opacity="0.5"/>
<stop offset="1" stop-color="#26CBCF"/>
</linearGradient>
<linearGradient id="paint7_linear" x1="64.9085" y1="112.941" x2="61.1072" y2="112.916" gradientUnits="userSpaceOnUse">
<stop stop-color="#BFC9F5" stop-opacity="0.5"/>
<stop offset="0.0001" stop-color="#8EA1F5" stop-opacity="0.5"/>
<stop offset="1" stop-color="#26CBCF"/>
</linearGradient>
<linearGradient id="paint8_linear" x1="64.9085" y1="126.756" x2="61.1072" y2="126.731" gradientUnits="userSpaceOnUse">
<stop stop-color="#BFC9F5" stop-opacity="0.5"/>
<stop offset="0.0001" stop-color="#8EA1F5" stop-opacity="0.5"/>
<stop offset="1" stop-color="#26CBCF"/>
</linearGradient>
<linearGradient id="paint9_linear" x1="69.9229" y1="87.2197" x2="60.9014" y2="86.9915" gradientUnits="userSpaceOnUse">
<stop stop-color="#BFC9F5" stop-opacity="0.5"/>
<stop offset="0.0001" stop-color="#8EA1F5" stop-opacity="0.5"/>
<stop offset="1" stop-color="#26CBCF"/>
</linearGradient>
<linearGradient id="paint10_linear" x1="126.345" y1="109.489" x2="111.043" y2="108.789" gradientUnits="userSpaceOnUse">
<stop stop-color="#BFC9F5" stop-opacity="0.5"/>
<stop offset="0.0001" stop-color="#8EA1F5" stop-opacity="0.5"/>
<stop offset="1" stop-color="#26CBCF"/>
</linearGradient>
<linearGradient id="paint11_linear" x1="85.8016" y1="91.4336" x2="70.4957" y2="90.7332" gradientUnits="userSpaceOnUse">
<stop stop-color="#BFC9F5" stop-opacity="0.5"/>
<stop offset="0.0001" stop-color="#8EA1F5" stop-opacity="0.5"/>
<stop offset="1" stop-color="#26CBCF"/>
</linearGradient>
<linearGradient id="paint12_linear" x1="112.834" y1="103.472" x2="97.5299" y2="102.772" gradientUnits="userSpaceOnUse">
<stop stop-color="#BFC9F5" stop-opacity="0.5"/>
<stop offset="0.0001" stop-color="#8EA1F5" stop-opacity="0.5"/>
<stop offset="1" stop-color="#26CBCF"/>
</linearGradient>
<linearGradient id="paint13_linear" x1="99.3154" y1="97.4519" x2="84.0114" y2="96.7515" gradientUnits="userSpaceOnUse">
<stop stop-color="#BFC9F5" stop-opacity="0.5"/>
<stop offset="0.0001" stop-color="#8EA1F5" stop-opacity="0.5"/>
<stop offset="1" stop-color="#26CBCF"/>
</linearGradient>
<linearGradient id="paint14_linear" x1="133.795" y1="116.292" x2="124.781" y2="116.109" gradientUnits="userSpaceOnUse">
<stop stop-color="#BFC9F5" stop-opacity="0.5"/>
<stop offset="0.0001" stop-color="#8EA1F5" stop-opacity="0.5"/>
<stop offset="1" stop-color="#26CBCF"/>
</linearGradient>
<linearGradient id="paint15_linear" x1="131.844" y1="142.739" x2="128.043" y2="142.715" gradientUnits="userSpaceOnUse">
<stop stop-color="#BFC9F5" stop-opacity="0.5"/>
<stop offset="0.0001" stop-color="#8EA1F5" stop-opacity="0.5"/>
<stop offset="1" stop-color="#26CBCF"/>
</linearGradient>
<linearGradient id="paint16_linear" x1="131.844" y1="128.925" x2="128.043" y2="128.901" gradientUnits="userSpaceOnUse">
<stop stop-color="#BFC9F5" stop-opacity="0.5"/>
<stop offset="0.0001" stop-color="#8EA1F5" stop-opacity="0.5"/>
<stop offset="1" stop-color="#26CBCF"/>
</linearGradient>
<linearGradient id="paint17_linear" x1="131.844" y1="197.997" x2="128.043" y2="197.972" gradientUnits="userSpaceOnUse">
<stop stop-color="#BFC9F5" stop-opacity="0.5"/>
<stop offset="0.0001" stop-color="#8EA1F5" stop-opacity="0.5"/>
<stop offset="1" stop-color="#26CBCF"/>
</linearGradient>
<linearGradient id="paint18_linear" x1="131.844" y1="170.369" x2="128.043" y2="170.345" gradientUnits="userSpaceOnUse">
<stop stop-color="#BFC9F5" stop-opacity="0.5"/>
<stop offset="0.0001" stop-color="#8EA1F5" stop-opacity="0.5"/>
<stop offset="1" stop-color="#26CBCF"/>
</linearGradient>
<linearGradient id="paint19_linear" x1="131.844" y1="156.555" x2="128.043" y2="156.53" gradientUnits="userSpaceOnUse">
<stop stop-color="#BFC9F5" stop-opacity="0.5"/>
<stop offset="0.0001" stop-color="#8EA1F5" stop-opacity="0.5"/>
<stop offset="1" stop-color="#26CBCF"/>
</linearGradient>
<linearGradient id="paint20_linear" x1="131.844" y1="184.182" x2="128.043" y2="184.158" gradientUnits="userSpaceOnUse">
<stop stop-color="#BFC9F5" stop-opacity="0.5"/>
<stop offset="0.0001" stop-color="#8EA1F5" stop-opacity="0.5"/>
<stop offset="1" stop-color="#26CBCF"/>
</linearGradient>
<linearGradient id="paint21_linear" x1="133.798" y1="210.164" x2="124.785" y2="209.936" gradientUnits="userSpaceOnUse">
<stop stop-color="#BFC9F5" stop-opacity="0.5"/>
<stop offset="0.0001" stop-color="#8EA1F5" stop-opacity="0.5"/>
<stop offset="1" stop-color="#26CBCF"/>
</linearGradient>
<linearGradient id="paint22_linear" x1="112.832" y1="199.954" x2="97.53" y2="199.254" gradientUnits="userSpaceOnUse">
<stop stop-color="#BFC9F5" stop-opacity="0.5"/>
<stop offset="0.0001" stop-color="#8EA1F5" stop-opacity="0.5"/>
<stop offset="1" stop-color="#26CBCF"/>
</linearGradient>
<linearGradient id="paint23_linear" x1="99.3183" y1="193.936" x2="84.0143" y2="193.235" gradientUnits="userSpaceOnUse">
<stop stop-color="#BFC9F5" stop-opacity="0.5"/>
<stop offset="0.0001" stop-color="#8EA1F5" stop-opacity="0.5"/>
<stop offset="1" stop-color="#26CBCF"/>
</linearGradient>
<linearGradient id="paint24_linear" x1="126.348" y1="205.974" x2="111.046" y2="205.274" gradientUnits="userSpaceOnUse">
<stop stop-color="#BFC9F5" stop-opacity="0.5"/>
<stop offset="0.0001" stop-color="#8EA1F5" stop-opacity="0.5"/>
<stop offset="1" stop-color="#26CBCF"/>
</linearGradient>
<linearGradient id="paint25_linear" x1="85.8022" y1="187.918" x2="70.4957" y2="187.217" gradientUnits="userSpaceOnUse">
<stop stop-color="#BFC9F5" stop-opacity="0.5"/>
<stop offset="0.0001" stop-color="#8EA1F5" stop-opacity="0.5"/>
<stop offset="1" stop-color="#26CBCF"/>
</linearGradient>
<linearGradient id="paint26_linear" x1="82.9385" y1="71.8283" x2="73.9247" y2="71.5719" gradientUnits="userSpaceOnUse">
<stop stop-color="#BFC9F5" stop-opacity="0.5"/>
<stop offset="0.0001" stop-color="#8EA1F5" stop-opacity="0.5"/>
<stop offset="1" stop-color="#26CBCF"/>
</linearGradient>
<linearGradient id="paint27_linear" x1="97.6169" y1="66.2526" x2="83.0855" y2="65.5959" gradientUnits="userSpaceOnUse">
<stop stop-color="#BFC9F5" stop-opacity="0.5"/>
<stop offset="0.0001" stop-color="#8EA1F5" stop-opacity="0.5"/>
<stop offset="1" stop-color="#26CBCF"/>
</linearGradient>
<linearGradient id="paint28_linear" x1="110.224" y1="60.6405" x2="95.6919" y2="59.9839" gradientUnits="userSpaceOnUse">
<stop stop-color="#BFC9F5" stop-opacity="0.5"/>
<stop offset="0.0001" stop-color="#8EA1F5" stop-opacity="0.5"/>
<stop offset="1" stop-color="#26CBCF"/>
</linearGradient>
<linearGradient id="paint29_linear" x1="122.829" y1="55.0266" x2="108.301" y2="54.3704" gradientUnits="userSpaceOnUse">
<stop stop-color="#BFC9F5" stop-opacity="0.5"/>
<stop offset="0.0001" stop-color="#8EA1F5" stop-opacity="0.5"/>
<stop offset="1" stop-color="#26CBCF"/>
</linearGradient>
<linearGradient id="paint30_linear" x1="198.28" y1="66.2545" x2="183.75" y2="65.5981" gradientUnits="userSpaceOnUse">
<stop stop-color="#BFC9F5" stop-opacity="0.5"/>
<stop offset="0.0001" stop-color="#8EA1F5" stop-opacity="0.5"/>
<stop offset="1" stop-color="#26CBCF"/>
</linearGradient>
<linearGradient id="paint31_linear" x1="160.464" y1="49.4166" x2="145.93" y2="48.7596" gradientUnits="userSpaceOnUse">
<stop stop-color="#BFC9F5" stop-opacity="0.5"/>
<stop offset="0.0001" stop-color="#8EA1F5" stop-opacity="0.5"/>
<stop offset="1" stop-color="#26CBCF"/>
</linearGradient>
<linearGradient id="paint32_linear" x1="173.071" y1="55.0292" x2="158.537" y2="54.3725" gradientUnits="userSpaceOnUse">
<stop stop-color="#BFC9F5" stop-opacity="0.5"/>
<stop offset="0.0001" stop-color="#8EA1F5" stop-opacity="0.5"/>
<stop offset="1" stop-color="#26CBCF"/>
</linearGradient>
<linearGradient id="paint33_linear" x1="185.671" y1="60.6405" x2="171.143" y2="59.9843" gradientUnits="userSpaceOnUse">
<stop stop-color="#BFC9F5" stop-opacity="0.5"/>
<stop offset="0.0001" stop-color="#8EA1F5" stop-opacity="0.5"/>
<stop offset="1" stop-color="#26CBCF"/>
</linearGradient>
<linearGradient id="paint34_linear" x1="205.564" y1="71.8259" x2="196.551" y2="71.5694" gradientUnits="userSpaceOnUse">
<stop stop-color="#BFC9F5" stop-opacity="0.5"/>
<stop offset="0.0001" stop-color="#8EA1F5" stop-opacity="0.5"/>
<stop offset="1" stop-color="#26CBCF"/>
</linearGradient>
<linearGradient id="paint35_linear" x1="160.462" y1="94.2324" x2="145.93" y2="93.5752" gradientUnits="userSpaceOnUse">
<stop stop-color="#BFC9F5" stop-opacity="0.5"/>
<stop offset="0.0001" stop-color="#8EA1F5" stop-opacity="0.5"/>
<stop offset="1" stop-color="#26CBCF"/>
</linearGradient>
<linearGradient id="paint36_linear" x1="173.069" y1="88.6207" x2="158.537" y2="87.9642" gradientUnits="userSpaceOnUse">
<stop stop-color="#BFC9F5" stop-opacity="0.5"/>
<stop offset="0.0001" stop-color="#8EA1F5" stop-opacity="0.5"/>
<stop offset="1" stop-color="#26CBCF"/>
</linearGradient>
<linearGradient id="paint37_linear" x1="198.278" y1="77.3958" x2="183.75" y2="76.7396" gradientUnits="userSpaceOnUse">
<stop stop-color="#BFC9F5" stop-opacity="0.5"/>
<stop offset="0.0001" stop-color="#8EA1F5" stop-opacity="0.5"/>
<stop offset="1" stop-color="#26CBCF"/>
</linearGradient>
<linearGradient id="paint38_linear" x1="185.672" y1="83.0078" x2="171.143" y2="82.3515" gradientUnits="userSpaceOnUse">
<stop stop-color="#BFC9F5" stop-opacity="0.5"/>
<stop offset="0.0001" stop-color="#8EA1F5" stop-opacity="0.5"/>
<stop offset="1" stop-color="#26CBCF"/>
</linearGradient>
<linearGradient id="paint39_linear" x1="147.739" y1="99.1737" x2="133.553" y2="98.2951" gradientUnits="userSpaceOnUse">
<stop stop-color="#BFC9F5" stop-opacity="0.5"/>
<stop offset="0.0001" stop-color="#8EA1F5" stop-opacity="0.5"/>
<stop offset="1" stop-color="#26CBCF"/>
</linearGradient>
<linearGradient id="paint40_linear" x1="97.6211" y1="77.3963" x2="83.0853" y2="76.7399" gradientUnits="userSpaceOnUse">
<stop stop-color="#BFC9F5" stop-opacity="0.5"/>
<stop offset="0.0001" stop-color="#8EA1F5" stop-opacity="0.5"/>
<stop offset="1" stop-color="#26CBCF"/>
</linearGradient>
<linearGradient id="paint41_linear" x1="122.831" y1="88.6207" x2="108.301" y2="87.9644" gradientUnits="userSpaceOnUse">
<stop stop-color="#BFC9F5" stop-opacity="0.5"/>
<stop offset="0.0001" stop-color="#8EA1F5" stop-opacity="0.5"/>
<stop offset="1" stop-color="#26CBCF"/>
</linearGradient>
<linearGradient id="paint42_linear" x1="110.222" y1="83.009" x2="95.692" y2="82.3528" gradientUnits="userSpaceOnUse">
<stop stop-color="#BFC9F5" stop-opacity="0.5"/>
<stop offset="0.0001" stop-color="#8EA1F5" stop-opacity="0.5"/>
<stop offset="1" stop-color="#26CBCF"/>
</linearGradient>
<linearGradient id="paint43_linear" x1="135.437" y1="94.231" x2="120.906" y2="93.5742" gradientUnits="userSpaceOnUse">
<stop stop-color="#BFC9F5" stop-opacity="0.5"/>
<stop offset="0.0001" stop-color="#8EA1F5" stop-opacity="0.5"/>
<stop offset="1" stop-color="#26CBCF"/>
</linearGradient>
</defs>
</svg>
