<svg width="412" height="252" viewBox="0 0 412 252" fill="none" xmlns="http://www.w3.org/2000/svg">
<g filter="url(#filter0_dd)">
<g clip-path="url(#clip0)">
<rect x="26" y="23" width="364" height="204" rx="10" fill="#202225"/>
<path d="M47.6401 32.7246C47.6401 31.0576 48.9915 29.7062 50.6585 29.7062H389.819V227.498H47.6401V32.7246Z" fill="#36393F" fill-opacity="0.5"/>
<rect x="396" y="34" width="379" height="11" transform="rotate(180 396 34)" fill="#36393F"/>
<rect x="117.222" y="40.9927" width="202.527" height="186.454" fill="#36393F"/>
<ellipse cx="300.603" cy="28.7331" rx="3.34653" ry="3.16011" transform="rotate(180 300.603 28.7331)" fill="#41444B"/>
<rect x="293.104" y="31.0167" width="43.2367" height="4.56731" rx="2.28365" transform="rotate(180 293.104 31.0167)" fill="#41444B"/>
<rect x="247.072" y="31.5431" width="1.14298" height="5.85383" rx="0.571492" transform="rotate(180 247.072 31.5431)" fill="#41444B"/>
<rect x="242.092" y="30.1241" width="75.3928" height="3.16222" rx="1.58111" transform="rotate(180 242.092 30.1241)" fill="#41444B"/>
<rect x="319.749" y="40.9927" width="70.0704" height="186.454" fill="#2F3136"/>
<rect x="47.6401" y="68.6375" width="69.5813" height="142.627" fill="#2F3136"/>
<rect x="47.6401" y="211.264" width="69.5813" height="16.1827" fill="#292B2F"/>
<rect x="29.9448" y="40" width="14.0269" height="14.0269" rx="4.02455" fill="#5964F2"/>
<rect opacity="0.5" x="29.9448" y="59.0575" width="14.0269" height="14.0269" rx="7.01343" fill="#E7528C"/>
<rect opacity="0.5" x="29.9448" y="78.1151" width="14.0269" height="14.0269" rx="7.01343" fill="#60D1F4"/>
<rect opacity="0.5" x="29.9448" y="97.1726" width="14.0269" height="14.0269" rx="7.01343" fill="#A733EE"/>
<rect opacity="0.5" x="29.9448" y="116.23" width="14.0269" height="14.0269" rx="7.01343" fill="#DF8E8E"/>
<rect opacity="0.5" x="29.9448" y="135.288" width="14.0269" height="14.0269" rx="7.01343" fill="#D4D816"/>
<rect opacity="0.5" x="29.9448" y="154.345" width="14.0269" height="14.0269" rx="7.01343" fill="#69F977"/>
<rect opacity="0.5" x="29.9448" y="173.403" width="14.0269" height="14.0269" rx="7.01343" fill="#4077E3"/>
<rect x="29.9448" y="192.46" width="14.0269" height="14.0269" rx="7.01343" fill="#36393F"/>
<rect x="29.9448" y="211.518" width="14.0269" height="14.0269" rx="7.01343" fill="#36393F"/>
<circle cx="58.5326" cy="79.53" r="3.34653" fill="#41444B"/>
<rect x="66.0322" y="77.1117" width="43.2367" height="4.83673" rx="2.41837" fill="#41444B"/>
<circle cx="58.5326" cy="94.6747" r="3.34653" fill="#41444B"/>
<rect x="66.0322" y="92.2563" width="43.2367" height="4.83673" rx="2.41837" fill="#41444B"/>
<circle cx="58.5326" cy="109.819" r="3.34653" fill="#41444B"/>
<rect x="66.0322" y="107.401" width="43.2367" height="4.83673" rx="2.41837" fill="#41444B"/>
<circle cx="58.5326" cy="124.964" r="3.34653" fill="#41444B"/>
<rect x="66.0322" y="122.546" width="43.2367" height="4.83673" rx="2.41837" fill="#41444B"/>
<circle cx="58.5326" cy="140.108" r="3.34653" fill="#41444B"/>
<rect x="66.0322" y="137.69" width="43.2367" height="4.83673" rx="2.41837" fill="#41444B"/>
<circle cx="58.5326" cy="155.253" r="3.34653" fill="#41444B"/>
<rect x="66.0322" y="152.835" width="43.2367" height="4.83673" rx="2.41837" fill="#41444B"/>
<circle cx="58.5326" cy="170.398" r="3.34653" fill="#41444B"/>
<rect x="66.0322" y="167.979" width="43.2367" height="4.83673" rx="2.41837" fill="#41444B"/>
<circle cx="331.089" cy="54.446" r="3.34653" fill="#41444B"/>
<rect x="338.589" y="52.0277" width="43.2367" height="4.83673" rx="2.41837" fill="#41444B"/>
<circle cx="331.089" cy="69.5907" r="3.34653" fill="#41444B"/>
<rect x="338.589" y="67.1722" width="43.2367" height="4.83673" rx="2.41837" fill="#41444B"/>
<circle cx="331.089" cy="84.7352" r="3.34653" fill="#41444B"/>
<rect x="338.589" y="82.3168" width="43.2367" height="4.83673" rx="2.41837" fill="#41444B"/>
<circle cx="331.089" cy="99.8799" r="3.34653" fill="#41444B"/>
<rect x="338.589" y="97.4614" width="43.2367" height="4.83673" rx="2.41837" fill="#41444B"/>
<circle cx="331.089" cy="115.024" r="3.34653" fill="#41444B"/>
<rect x="338.589" y="112.606" width="43.2367" height="4.83673" rx="2.41837" fill="#41444B"/>
<circle cx="331.089" cy="130.169" r="3.34653" fill="#41444B"/>
<rect x="338.589" y="127.751" width="43.2367" height="4.83673" rx="2.41837" fill="#41444B"/>
<circle cx="331.089" cy="145.314" r="3.34653" fill="#41444B"/>
<rect x="338.589" y="142.895" width="43.2367" height="4.83673" rx="2.41837" fill="#41444B"/>
<rect x="51.2646" y="214.613" width="9.48611" height="9.48611" rx="4.74305" fill="#36393F"/>
<rect x="66.0327" y="216.937" width="43.2367" height="4.83673" rx="2.41837" fill="#36393F"/>
<rect x="123.603" y="205.404" width="190.254" height="16.3696" rx="3.01841" fill="#41444B"/>
<circle cx="143.184" cy="66.052" r="15.7807" fill="#41444B"/>
<rect x="169.146" y="50.1338" width="109.435" height="17.0386" rx="8.51928" fill="#41444B"/>
<rect x="170.285" y="74.6552" width="135.683" height="4.87474" rx="2.43737" fill="#41444B"/>
<circle cx="136.076" cy="105.072" r="8.6725" fill="#41444B"/>
<rect x="148.948" y="99.3069" width="58.9274" height="6.11143" rx="3.05571" fill="#41444B"/>
<rect x="148.948" y="110.047" width="91.6306" height="2.83913" rx="1.41957" fill="#41444B"/>
<circle cx="136.076" cy="127.448" r="8.6725" fill="#41444B"/>
<rect x="148.948" y="121.683" width="58.9274" height="6.11143" rx="3.05571" fill="#41444B"/>
<rect x="148.948" y="132.422" width="91.6306" height="36.0398" rx="3.01841" fill="#41444B"/>
<circle cx="136.076" cy="182.165" r="8.6725" fill="#41444B"/>
<rect x="148.948" y="176.4" width="58.9274" height="6.11143" rx="3.05571" fill="#41444B"/>
<rect x="148.948" y="187.14" width="91.6306" height="2.83913" rx="1.41957" fill="#41444B"/>
<rect x="139.058" y="31.6102" width="72.4458" height="5.75456" rx="1.20736" transform="rotate(180 139.058 31.6102)" fill="#41444B"/>
<rect x="45.5015" y="31.6102" width="5.7551" height="5.75456" rx="2.87728" transform="rotate(180 45.5015 31.6102)" fill="#41444B"/>
<rect x="54.4761" y="31.6102" width="5.7551" height="5.75456" rx="2.87728" transform="rotate(180 54.4761 31.6102)" fill="#41444B"/>
<rect x="63.4512" y="31.6102" width="5.7551" height="5.75456" rx="2.87728" transform="rotate(180 63.4512 31.6102)" fill="#3BA55D"/>
<g style="mix-blend-mode:hard-light" opacity="0.4">
<rect x="26" y="23" width="364" height="204" rx="10" fill="url(#paint0_linear)"/>
</g>
</g>
</g>
<defs>
<filter id="filter0_dd" x="0" y="0" width="412" height="252" filterUnits="userSpaceOnUse" color-interpolation-filters="sRGB">
<feFlood flood-opacity="0" result="BackgroundImageFix"/>
<feColorMatrix in="SourceAlpha" type="matrix" values="0 0 0 0 0 0 0 0 0 0 0 0 0 0 0 0 0 0 127 0" result="hardAlpha"/>
<feOffset dy="4"/>
<feGaussianBlur stdDeviation="8"/>
<feColorMatrix type="matrix" values="0 0 0 0 0.112778 0 0 0 0 0.45487 0 0 0 0 0.466667 0 0 0 0.4 0"/>
<feBlend mode="normal" in2="BackgroundImageFix" result="effect1_dropShadow"/>
<feColorMatrix in="SourceAlpha" type="matrix" values="0 0 0 0 0 0 0 0 0 0 0 0 0 0 0 0 0 0 127 0" result="hardAlpha"/>
<feOffset dx="-2" dy="1"/>
<feGaussianBlur stdDeviation="12"/>
<feColorMatrix type="matrix" values="0 0 0 0 0.08 0 0 0 0 0.16 0 0 0 0 0.4 0 0 0 0.2 0"/>
<feBlend mode="normal" in2="effect1_dropShadow" result="effect2_dropShadow"/>
<feBlend mode="normal" in="SourceGraphic" in2="effect2_dropShadow" result="shape"/>
</filter>
<linearGradient id="paint0_linear" x1="288.12" y1="211.744" x2="234.5" y2="19.4164" gradientUnits="userSpaceOnUse">
<stop stop-color="#49E0E6"/>
<stop offset="1" stop-color="#21B3B4"/>
</linearGradient>
<clipPath id="clip0">
<rect x="26" y="23" width="364" height="204" rx="10" fill="white"/>
</clipPath>
</defs>
</svg>
