<svg width="180" height="316" viewBox="0 0 180 316" fill="none" xmlns="http://www.w3.org/2000/svg">
<path d="M86 94V167.5" stroke="#40D6DA" stroke-width="2" stroke-dasharray="2 6"/>
<path d="M45 124V197.5" stroke="#40D6DA" stroke-width="2" stroke-dasharray="2 6"/>
<g filter="url(#filter0_d)">
<path d="M178.5 51L84 0L1.5 58.5V77.5L96.5 129L178.5 71V51Z" fill="white"/>
</g>
<path d="M72.9847 84.0199L74.258 86.9752C74.273 87.009 74.303 87.024 74.3236 87.0521C74.3367 87.0709 74.3311 87.0934 74.3461 87.1102L76.8889 89.8162C76.9058 89.8349 76.9302 89.8274 76.9489 89.8425C76.9677 89.8575 76.9677 89.8856 76.9883 89.8968L80.5981 92.0721C80.6169 92.0815 80.6375 92.0796 80.6544 92.0871C80.6675 92.0927 80.6694 92.1077 80.6825 92.1133L85.0724 93.6698C85.0949 93.6773 85.1155 93.6773 85.1399 93.681C85.1474 93.6829 85.1493 93.6923 85.1568 93.6923L90.0792 94.4724C90.1055 94.4761 90.128 94.478 90.1524 94.478C90.1543 94.478 90.1543 94.478 90.1561 94.478L95.2417 94.4367C95.2417 94.4367 95.2417 94.4367 95.2436 94.4367C95.2661 94.4367 95.2886 94.4349 95.313 94.4311L100.153 93.6529C100.16 93.6529 100.162 93.6435 100.17 93.6417C100.192 93.6379 100.213 93.6379 100.235 93.6304L104.625 92.0702C104.638 92.0665 104.642 92.0496 104.653 92.044C104.674 92.0365 104.695 92.0383 104.714 92.0271L108.243 89.8537C108.263 89.8406 108.265 89.8143 108.282 89.8012C108.301 89.7862 108.323 89.7918 108.34 89.7749L110.881 87.069C110.896 87.0521 110.89 87.0296 110.902 87.0146C110.924 86.9865 110.952 86.9715 110.967 86.9377L112.28 83.943C112.295 83.9092 112.274 83.8792 112.282 83.8455C112.289 83.8117 112.321 83.7892 112.321 83.7536V74.565V71.4484C112.321 71.4127 112.289 71.3902 112.282 71.3565C112.274 71.3227 112.295 71.2927 112.28 71.259L110.967 68.2624C110.954 68.2324 110.922 68.2248 110.906 68.2023C110.889 68.1798 110.894 68.1461 110.872 68.1236L108.248 65.457C108.233 65.442 108.211 65.4476 108.196 65.4345C108.181 65.4214 108.179 65.397 108.16 65.3876L104.631 63.2142C104.616 63.2049 104.597 63.2143 104.58 63.2068C104.565 63.1992 104.56 63.1786 104.543 63.173L100.155 61.6147C100.14 61.6091 100.125 61.6203 100.112 61.6166C100.095 61.6128 100.087 61.5959 100.072 61.5922L95.1499 60.8121C95.1349 60.8102 95.1255 60.8215 95.1124 60.8215C95.0974 60.8215 95.0898 60.8065 95.0748 60.8065H90.0286C90.0136 60.8065 90.0061 60.8196 89.9911 60.8215C89.9761 60.8233 89.9667 60.8102 89.9517 60.814L85.1118 61.5941C85.0949 61.5959 85.0874 61.6128 85.0724 61.6184C85.0555 61.6222 85.0405 61.6109 85.0255 61.6166L80.6356 63.218C80.6206 63.2236 80.6169 63.2424 80.6019 63.2499C80.5869 63.2555 80.57 63.248 80.5568 63.2555L76.9077 65.4289C76.8852 65.442 76.8833 65.4701 76.8645 65.487C76.8458 65.502 76.8195 65.4983 76.8026 65.517L74.3424 68.223C74.3236 68.2455 74.3311 68.2736 74.3161 68.2961C74.2992 68.3205 74.2692 68.328 74.2561 68.3542L72.9828 71.349C72.9697 71.3809 72.9884 71.4127 72.9828 71.4465C72.9753 71.4784 72.9453 71.4971 72.9453 71.5327V74.61V80.7232V83.8399C72.9453 83.8755 72.9753 83.8961 72.9828 83.9299C72.9903 83.9636 72.9716 83.988 72.9847 84.0199ZM75.0906 68.7855L77.4458 66.1959L81.0013 64.0787L85.3105 62.5073L90.0642 61.7403H95.0373L99.8848 62.5092L104.183 64.0356L107.622 66.1546L110.146 68.718L111.384 71.544V74.4637L110.144 77.2541L107.697 79.8587L104.265 81.974L99.9579 83.5436L95.2042 84.3105H90.1861L85.3499 83.5829L81.0444 82.0565L77.5321 79.9394L75.0868 77.3384L73.8829 74.5069V71.6246L75.0906 68.7855Z" fill="url(#paint0_linear)"/>
<path d="M0.999495 79.5043L94.9764 129.057C95.2502 129.201 95.5521 129.273 95.8521 129.273C96.2347 129.273 96.6135 129.156 96.9379 128.926L177.914 71.4145C178.409 71.062 178.703 70.4919 178.703 69.8862V51.4696C178.703 50.7739 178.319 50.1364 177.704 49.8119L83.7232 0.217862C83.0969 -0.114053 82.3374 -0.0634214 81.7617 0.347253L0.78947 57.8979C0.29441 58.2505 0 58.8187 0 59.4262V77.8447C0 78.5423 0.384421 79.1799 0.999495 79.5043ZM38.294 37.7317L43.0589 36.9235H48.0677L52.9114 37.7317L57.2131 39.2188L60.6485 41.3753L63.0976 43.9012L64.3746 46.7291V49.6488L63.1707 52.4804L60.7311 55.0382L57.2544 57.1985L52.992 58.7249L48.1483 59.5331H43.2221L38.3784 58.7662L34.0747 57.2397L30.5624 55.1245L28.1134 52.5198L26.8739 49.7313V46.8097L28.1153 43.98L30.4799 41.4184L33.9922 39.2638L38.294 37.7317ZM25.9756 46.5209C25.9606 46.5528 25.9794 46.5847 25.9737 46.6184C25.9662 46.6522 25.9344 46.6747 25.9344 46.7103V49.8288V55.8989V59.0156C25.9344 59.0512 25.9644 59.0737 25.9737 59.1074C25.9794 59.1412 25.9606 59.1731 25.9756 59.2068L27.2883 62.1603C27.3033 62.1941 27.3333 62.2091 27.3539 62.2372C27.3652 62.2541 27.3595 62.2766 27.3745 62.2916L29.9173 64.9994C29.9342 65.0163 29.9567 65.0107 29.9755 65.0257C29.9924 65.0406 29.9942 65.065 30.0149 65.0782L33.6247 67.2928C33.6453 67.304 33.6659 67.3022 33.6866 67.3116C33.6997 67.3172 33.7034 67.3341 33.7166 67.3378L38.1065 68.8567C38.129 68.8642 38.1477 68.8624 38.1683 68.868C38.1758 68.868 38.1777 68.8755 38.1833 68.8774L43.1058 69.6987C43.1321 69.7025 43.1564 69.7043 43.1827 69.7043C43.1846 69.7043 43.1846 69.7043 43.1864 69.7043L48.1895 69.665C48.2158 69.665 48.2383 69.6631 48.2627 69.6593L53.1851 68.838C53.1926 68.8361 53.1945 68.8286 53.2001 68.8267C53.2226 68.823 53.2414 68.823 53.262 68.8155L57.6107 67.2984C57.6238 67.2928 57.6276 67.2759 57.6407 67.2722C57.6613 67.2609 57.6838 67.2647 57.7044 67.2534L61.273 65.0369C61.2936 65.0257 61.2936 64.9994 61.3105 64.9844C61.3274 64.9713 61.3499 64.9769 61.3649 64.9619L63.9058 62.2953C63.9208 62.2803 63.9152 62.2559 63.9283 62.2391C63.9508 62.2091 63.9846 62.1903 63.9996 62.1528L65.2728 59.1187C65.286 59.0868 65.2672 59.0568 65.2728 59.0249C65.2803 58.993 65.3103 58.9724 65.3103 58.9387V49.7501V46.6334C65.3103 46.5959 65.2785 46.5734 65.271 46.5397C65.2635 46.5059 65.2822 46.4722 65.2672 46.4403L63.9133 43.4437C63.9002 43.4174 63.8721 43.4118 63.8552 43.3874C63.8383 43.3631 63.8439 43.333 63.8233 43.3105L61.2805 40.6871C61.2655 40.6721 61.2411 40.6758 61.228 40.6627C61.2111 40.6496 61.2111 40.6252 61.1924 40.6158L57.6632 38.3993C57.6463 38.3881 57.6257 38.3993 57.6088 38.3899C57.5919 38.3806 57.5863 38.3599 57.5694 38.3524L53.1814 36.8335C53.1664 36.8279 53.1533 36.8391 53.1401 36.8354C53.1251 36.8316 53.1195 36.8166 53.1045 36.8129L48.182 35.9915C48.167 35.9897 48.1558 36.0009 48.1427 36.0009C48.1295 36.0009 48.1202 35.9859 48.1052 35.9859H43.0177C43.0027 35.9859 42.9933 36.0009 42.9783 36.0009C42.9633 36.0009 42.952 35.9897 42.9389 35.9915L38.099 36.8129C38.084 36.8148 38.0765 36.8316 38.0615 36.8354C38.0465 36.8391 38.0333 36.8279 38.0202 36.8335L35.7774 37.6305L67.6413 14.9834L66.4224 17.7662C66.4074 17.8 66.4261 17.8337 66.4205 17.8694C66.4111 17.905 66.3811 17.9294 66.3811 17.9687L66.4636 21.0385L66.3811 27.1386C66.3811 27.1424 66.3849 27.1442 66.3849 27.148C66.3849 27.1517 66.3811 27.1536 66.3811 27.1574L66.4636 30.2346C66.4655 30.2702 66.4955 30.289 66.503 30.3209C66.5105 30.3509 66.4917 30.3809 66.5049 30.409L67.8175 33.4037C67.8325 33.4375 67.8607 33.4525 67.8813 33.4806C67.8944 33.4975 67.8888 33.5219 67.9038 33.5369L70.4466 36.2428C70.4635 36.2597 70.4878 36.2541 70.5066 36.2691C70.5254 36.2841 70.5272 36.3103 70.546 36.3235L74.1558 38.4968C74.1745 38.5081 74.1952 38.5043 74.2139 38.5118C74.2252 38.5175 74.2289 38.5325 74.2402 38.5362L78.6301 40.0964C78.6545 40.1058 78.6751 40.1039 78.6995 40.1095C78.707 40.1095 78.7088 40.117 78.7163 40.1189L83.5563 40.8577C83.5807 40.8615 83.6032 40.8634 83.6276 40.8634H88.715C88.7394 40.8634 88.7638 40.8615 88.7882 40.8577L93.7106 40.0776C93.7181 40.0776 93.72 40.0683 93.7275 40.0683C93.7519 40.0645 93.7725 40.0645 93.795 40.057L98.1831 38.4987C98.1962 38.495 98.1999 38.4781 98.2131 38.4725C98.2337 38.4631 98.2562 38.4668 98.2749 38.4537L101.804 36.2372C101.825 36.2259 101.825 36.1997 101.842 36.1866C101.858 36.1734 101.881 36.1791 101.894 36.1641L104.437 33.4975C104.452 33.4825 104.446 33.4581 104.459 33.4412C104.484 33.4094 104.516 33.3906 104.533 33.3531L105.763 30.3584C105.776 30.3265 105.757 30.2965 105.763 30.2646C105.768 30.2327 105.798 30.214 105.798 30.1802V20.9504V17.8731C105.798 17.8375 105.766 17.815 105.759 17.7812C105.753 17.7475 105.772 17.7156 105.757 17.6837L104.846 15.6022L136.042 32.0648L135.718 32.0123C135.703 32.0104 135.693 32.0217 135.678 32.0217C135.663 32.0217 135.656 32.0067 135.641 32.0067H130.555C130.54 32.0067 130.531 32.0217 130.518 32.0217C130.503 32.0217 130.491 32.0104 130.478 32.0123L125.556 32.8337C125.539 32.8355 125.531 32.8524 125.516 32.858C125.499 32.8618 125.484 32.8505 125.471 32.8562L121.081 34.4557C121.065 34.4614 121.061 34.482 121.044 34.4895C121.029 34.497 121.01 34.4876 120.997 34.497L117.468 36.6704C117.447 36.6816 117.447 36.7079 117.428 36.7229C117.412 36.736 117.387 36.7323 117.37 36.7491L114.829 39.457C114.809 39.4795 114.814 39.5113 114.798 39.5376C114.781 39.562 114.751 39.5695 114.738 39.5995L113.507 42.5942C113.494 42.6261 113.513 42.6561 113.507 42.688C113.502 42.7198 113.472 42.7386 113.472 42.7724V45.8496V51.9628V55.0401C113.472 55.0757 113.504 55.0982 113.511 55.132C113.517 55.1657 113.498 55.1957 113.513 55.2276L114.824 58.2223C114.839 58.2542 114.867 58.2692 114.888 58.2973C114.899 58.3161 114.893 58.3367 114.908 58.3536L117.412 61.0596C117.428 61.0783 117.453 61.0708 117.473 61.0877C117.492 61.1027 117.494 61.1308 117.515 61.1439L121.164 63.3173C121.183 63.3286 121.203 63.3248 121.222 63.3342C121.235 63.3398 121.237 63.353 121.25 63.3586L125.64 64.8775C125.663 64.885 125.683 64.885 125.706 64.8888C125.711 64.8888 125.713 64.8963 125.719 64.8963L130.559 65.6764C130.585 65.6801 130.609 65.682 130.634 65.682H135.68C135.704 65.682 135.729 65.6801 135.753 65.6764L140.676 64.8963C140.683 64.8963 140.687 64.8869 140.693 64.885C140.717 64.8813 140.739 64.8813 140.764 64.8738L145.152 63.2742C145.165 63.2704 145.167 63.2554 145.18 63.2498C145.199 63.2404 145.219 63.2442 145.236 63.2329L148.765 61.0577C148.786 61.0446 148.786 61.0183 148.805 61.0052C148.824 60.992 148.846 60.9977 148.863 60.9789L151.406 58.273C151.421 58.2561 151.415 58.2336 151.428 58.2148C151.449 58.1867 151.477 58.1717 151.492 58.1379L152.803 55.1432C152.818 55.1113 152.799 55.0795 152.805 55.0476C152.812 55.0138 152.844 54.9913 152.844 54.9557V45.7671C152.844 45.7652 152.842 45.7633 152.842 45.7615C152.842 45.7596 152.844 45.7577 152.844 45.7558L152.763 42.6786C152.763 42.6448 152.731 42.6223 152.724 42.5923C152.718 42.5605 152.735 42.5323 152.722 42.5023L151.792 40.3814L174.647 52.4429L95.8165 108.473L95.3571 108.231C95.5446 108.079 95.599 107.818 95.4659 107.614C95.3233 107.398 95.0346 107.342 94.8151 107.483L94.4457 107.728C94.4401 107.732 94.4401 107.741 94.4345 107.745L4.16113 60.1032L27.202 43.7268L25.9756 46.5209ZM103.623 15.1447L104.861 17.9706V20.8566L103.698 23.6863L101.253 26.2891L97.823 28.4025L93.5212 29.9721L88.6775 30.7372H83.6632L78.9057 30.0114L74.5983 28.44L71.0879 26.3679L68.6408 23.7632L67.3994 20.9297L67.3225 18.0456L68.5582 15.2253L71.0092 12.6169L74.4371 10.5035L78.7407 8.93579L83.5844 8.16882H88.5988L91.6348 8.632L103.272 14.7734L103.623 15.1447ZM88.7057 7.23683C88.6925 7.23496 88.6813 7.24621 88.6682 7.24621C88.655 7.24433 88.6457 7.2312 88.6325 7.2312H83.545C83.53 7.2312 83.5225 7.24433 83.5094 7.24621C83.4944 7.24621 83.4832 7.23496 83.47 7.23683L78.5476 8.01692C78.5307 8.0188 78.5232 8.03755 78.5082 8.04318C78.4913 8.04693 78.4763 8.03568 78.4613 8.0413L76.3085 8.82515L82.9937 4.07332L89.107 7.29871L88.7057 7.23683ZM150.59 39.9595L151.831 42.793L151.906 45.6771L150.672 48.4955L148.222 51.104L144.792 53.2174L140.49 54.7438L135.646 55.552H130.679L125.916 54.7438L121.606 53.253L118.055 51.1396L115.651 48.578L114.413 45.754V42.8661L115.576 40.0364L118.017 37.4355L121.449 35.3221L125.756 33.7544L130.596 32.948H135.603L138.634 33.4356L150.2 39.5395L150.59 39.9595ZM95.3833 109.303V125.031L3.75045 76.7158V60.947L95.3833 109.303Z" fill="url(#paint1_linear)"/>
<g filter="url(#filter1_d)">
<path d="M178.5 234L84 183L1.5 241.5V260.5L96.5 312L178.5 254V234Z" fill="white"/>
</g>
<path d="M2 262.302C2 262.328 2.02438 262.343 2.02813 262.37C2.0375 262.43 2.06188 262.475 2.09376 262.527C2.12752 262.582 2.15377 262.625 2.2044 262.66C2.22503 262.677 2.22878 262.703 2.25128 262.717L96.2695 312.307C96.3388 312.344 96.4157 312.361 96.4889 312.361C96.5807 312.361 96.667 312.329 96.742 312.281C96.7495 312.277 96.757 312.277 96.7608 312.273L177.737 254.724C177.748 254.715 177.748 254.698 177.759 254.687C177.804 254.648 177.821 254.595 177.851 254.541C177.881 254.486 177.913 254.441 177.917 254.379C177.919 254.364 177.934 254.355 177.934 254.34V199.171C177.934 199.145 177.909 199.13 177.906 199.103C177.898 199.055 177.885 199.017 177.862 198.972C177.851 198.948 177.862 198.921 177.847 198.899C177.838 198.888 177.821 198.888 177.812 198.878C177.787 198.848 177.759 198.833 177.729 198.811C177.707 198.796 177.705 198.768 177.682 198.755L83.7036 149.121C83.6792 149.108 83.6529 149.121 83.6267 149.115C83.5667 149.095 83.5161 149.095 83.4542 149.099C83.3923 149.102 83.3435 149.11 83.2892 149.138C83.2648 149.149 83.2366 149.138 83.2123 149.155L2.1969 206.747C2.18565 206.754 2.18565 206.771 2.17627 206.782C2.14627 206.807 2.13314 206.833 2.11064 206.865C2.09564 206.886 2.06751 206.887 2.05438 206.91C2.04125 206.934 2.05438 206.961 2.04688 206.987C2.03563 207.024 2.01875 207.052 2.015 207.09C2.015 207.105 2 207.114 2 207.129V262.302ZM83.5198 150.085L94.2273 155.741C94.2236 155.741 94.2217 155.741 94.2198 155.741C94.2048 155.737 94.1973 155.722 94.1823 155.718L89.303 154.897C89.2899 154.895 89.2767 154.906 89.2636 154.906C89.2486 154.906 89.2392 154.891 89.2242 154.891C89.2242 154.891 89.2224 154.891 89.2205 154.891L84.133 154.931C84.118 154.931 84.1105 154.944 84.0955 154.946C84.0824 154.946 84.0711 154.934 84.058 154.936L79.1768 155.758C79.1618 155.759 79.1562 155.776 79.1412 155.78C79.128 155.782 79.1149 155.773 79.1018 155.778L74.7119 157.297C74.695 157.303 74.6894 157.323 74.6725 157.333C74.6556 157.34 74.6369 157.331 74.6219 157.34L71.0533 159.514C71.0327 159.527 71.0308 159.553 71.0139 159.568C70.9971 159.583 70.9708 159.579 70.9539 159.596L68.4524 162.304C68.4336 162.325 68.4392 162.355 68.4242 162.379C68.4092 162.401 68.3792 162.407 68.3661 162.433L67.0535 165.428C67.0385 165.462 67.0572 165.496 67.0516 165.529C67.0441 165.563 67.0141 165.586 67.0141 165.623L67.0535 168.738L67.0141 174.802C67.0141 174.804 67.0159 174.804 67.0159 174.806C67.0159 174.808 67.0141 174.808 67.0141 174.81L67.0535 177.928C67.0535 177.962 67.0835 177.985 67.091 178.016C67.0966 178.048 67.0797 178.08 67.0928 178.11L68.4055 181.105C68.4205 181.141 68.4542 181.157 68.4767 181.187C68.488 181.202 68.4824 181.225 68.4974 181.24L71.0402 183.907C71.0552 183.923 71.0796 183.918 71.0964 183.931C71.1133 183.946 71.1152 183.97 71.1358 183.983L74.7044 186.157C74.7231 186.168 74.7438 186.164 74.7644 186.174C74.7756 186.179 74.7794 186.194 74.7925 186.2L79.2218 187.758C79.2424 187.766 79.263 187.764 79.2837 187.769C79.2893 187.769 79.293 187.777 79.2987 187.779L84.1799 188.6C84.2061 188.604 84.2305 188.606 84.2586 188.606H89.3049C89.3311 188.606 89.3555 188.604 89.3836 188.6L94.2648 187.779C94.2705 187.779 94.2723 187.771 94.2798 187.769C94.3024 187.766 94.323 187.766 94.3455 187.758L98.6923 186.2C98.7073 186.196 98.7091 186.179 98.7223 186.174C98.741 186.166 98.7616 186.168 98.7804 186.157L102.39 183.942C102.411 183.929 102.413 183.903 102.43 183.886C102.446 183.873 102.471 183.878 102.488 183.86L104.989 181.152C105.004 181.137 104.999 181.112 105.01 181.097C105.032 181.069 105.061 181.052 105.076 181.019L106.351 178.024C106.364 177.992 106.343 177.962 106.351 177.928C106.358 177.896 106.388 177.876 106.388 177.84V168.652V165.535C106.388 165.499 106.358 165.477 106.351 165.443C106.343 165.409 106.362 165.377 106.347 165.344L105.034 162.39C105.021 162.362 104.991 162.356 104.974 162.334C104.959 162.31 104.965 162.28 104.944 162.257L103.302 160.536L141.067 180.48L136.266 179.715C136.251 179.714 136.24 179.725 136.227 179.725C136.214 179.725 136.204 179.71 136.191 179.71H131.107C131.092 179.71 131.083 179.725 131.068 179.725C131.053 179.725 131.042 179.714 131.029 179.715L126.149 180.537C126.132 180.539 126.127 180.555 126.11 180.559C126.095 180.563 126.082 180.552 126.069 180.557L121.718 182.116C121.701 182.121 121.698 182.142 121.681 182.149C121.666 182.157 121.647 182.149 121.634 182.157L118.065 184.33C118.045 184.342 118.045 184.37 118.026 184.383C118.007 184.396 117.983 184.392 117.968 184.409L115.427 187.117C115.404 187.139 115.412 187.171 115.395 187.196C115.378 187.22 115.348 187.228 115.335 187.254L114.063 190.249C114.048 190.28 114.067 190.31 114.062 190.344C114.054 190.376 114.024 190.397 114.024 190.432V193.549V199.619V202.738C114.024 202.773 114.056 202.794 114.063 202.828C114.069 202.861 114.05 202.893 114.063 202.925L115.378 205.92C115.393 205.955 115.425 205.972 115.447 206.002C115.459 206.017 115.453 206.04 115.468 206.055L118.011 208.721C118.026 208.738 118.05 208.733 118.067 208.746C118.086 208.761 118.088 208.787 118.106 208.8L121.716 210.974C121.735 210.985 121.756 210.981 121.774 210.99C121.786 210.994 121.789 211.009 121.801 211.015L126.192 212.573C126.213 212.581 126.234 212.581 126.256 212.584C126.264 212.586 126.266 212.594 126.273 212.596L131.156 213.376C131.181 213.379 131.203 213.381 131.229 213.381H136.317C136.343 213.381 136.367 213.379 136.394 213.376L141.277 212.554C141.284 212.554 141.288 212.547 141.294 212.545C141.316 212.541 141.335 212.541 141.357 212.534L145.745 210.975C145.757 210.972 145.76 210.957 145.772 210.951C145.794 210.944 145.815 210.945 145.834 210.934L149.365 208.761C149.385 208.748 149.385 208.721 149.404 208.706C149.421 208.693 149.443 208.699 149.46 208.682L152.001 205.974C152.016 205.959 152.011 205.937 152.024 205.92C152.044 205.892 152.074 205.875 152.089 205.841L153.4 202.846C153.415 202.814 153.396 202.783 153.404 202.749C153.411 202.715 153.441 202.694 153.441 202.659V193.47L153.439 193.468C153.439 193.466 153.441 193.466 153.441 193.465L153.402 190.348C153.402 190.314 153.372 190.292 153.364 190.26C153.357 190.228 153.376 190.196 153.361 190.166L152.05 187.171C152.037 187.143 152.005 187.138 151.988 187.113C151.973 187.089 151.979 187.059 151.958 187.036L150.415 185.418L176.57 199.233L96.4514 256.133L95.9751 255.88C96.1626 255.713 96.1907 255.429 96.0276 255.234C95.8607 255.036 95.5663 255.008 95.3656 255.173L95.1199 255.377C95.1049 255.388 95.1087 255.407 95.0975 255.418L3.36141 207.069L83.5198 150.085ZM104.213 162.842L105.454 165.632V168.554L104.25 171.386L101.85 173.985L98.336 176.1L94.0717 177.628L89.2674 178.436L84.2999 178.478L79.4993 177.67L75.1525 176.141L71.6796 174.024L69.2381 171.464L67.9948 168.631L67.9573 165.711L69.1987 162.88L71.6009 160.279L75.07 158.165L79.3756 156.676L84.1818 155.868L89.1905 155.829L93.9929 156.637L98.2947 158.124L101.771 160.281L104.213 162.842ZM151.221 187.619L152.464 190.453L152.502 193.373L151.266 196.2L148.819 198.803L145.382 200.92L141.089 202.443L136.277 203.212L131.269 203.251L126.466 202.484L122.166 200.96L118.648 198.841L116.203 196.238L114.964 193.448V190.526L116.167 187.696L118.607 185.095L122.082 182.98L126.348 181.452L131.151 180.644H136.157L140.965 181.411L145.262 182.937L148.783 185.058L151.221 187.619ZM2.93761 207.906L96.0201 256.963V311.118L2.93761 262.017V207.906Z" fill="url(#paint2_linear)"/>
<path d="M26.5677 206.769C26.5733 206.803 26.5565 206.835 26.5696 206.869L27.9235 209.905C27.9385 209.939 27.9685 209.955 27.991 209.984C28.0022 209.999 27.9966 210.021 28.0098 210.034L30.5132 212.701C30.5282 212.718 30.5544 212.712 30.5713 212.727C30.5901 212.742 30.5901 212.77 30.6126 212.783L34.2224 214.957C34.2411 214.968 34.2618 214.964 34.2805 214.972C34.2918 214.977 34.2936 214.99 34.3068 214.996L38.6535 216.554C38.676 216.562 38.6985 216.562 38.7229 216.566C38.7304 216.566 38.7323 216.575 38.7398 216.575L43.6623 217.355C43.6866 217.359 43.711 217.361 43.7354 217.361H48.7797C48.806 217.361 48.8304 217.359 48.8585 217.355L53.7416 216.534C53.7472 216.534 53.751 216.526 53.7566 216.524C53.7791 216.521 53.7978 216.521 53.8204 216.513L58.2103 214.955C58.2234 214.951 58.2271 214.934 58.2403 214.928C58.2609 214.919 58.2815 214.923 58.3021 214.912L61.8707 212.695C61.8913 212.682 61.8913 212.656 61.9101 212.641C61.927 212.628 61.9495 212.633 61.9663 212.616L64.4679 209.95C64.481 209.935 64.4754 209.912 64.4866 209.897C64.5091 209.869 64.541 209.852 64.556 209.819L65.8687 206.824C65.8818 206.79 65.8649 206.758 65.8706 206.726C65.8781 206.693 65.9081 206.67 65.9081 206.636V197.406V194.37C65.9081 194.335 65.8781 194.312 65.8706 194.28C65.8649 194.247 65.8818 194.213 65.8687 194.179L64.5148 191.145C64.5035 191.119 64.4716 191.111 64.4548 191.089C64.4398 191.066 64.4473 191.036 64.4266 191.016L61.9232 188.349C61.9082 188.332 61.8819 188.336 61.8651 188.323C61.8463 188.308 61.8463 188.283 61.8257 188.27L58.2159 186.054C58.199 186.044 58.1784 186.054 58.1634 186.044C58.1465 186.037 58.1409 186.016 58.124 186.009L53.6947 184.49C53.6816 184.486 53.6666 184.495 53.6535 184.492C53.6385 184.488 53.6328 184.471 53.616 184.469L48.7329 183.691C48.7179 183.689 48.7085 183.7 48.6935 183.7C48.6785 183.7 48.671 183.685 48.6579 183.685H43.6529C43.6379 183.685 43.6285 183.7 43.6135 183.7C43.6004 183.7 43.5872 183.689 43.5741 183.691L38.6929 184.512C38.6779 184.514 38.6723 184.531 38.6573 184.535C38.6442 184.537 38.631 184.527 38.6179 184.533L34.228 186.05C34.2092 186.056 34.2036 186.078 34.1867 186.088C34.168 186.097 34.1474 186.088 34.1305 186.097L30.5619 188.353C30.5432 188.364 30.5432 188.388 30.5263 188.403C30.5094 188.415 30.4869 188.411 30.4738 188.426L27.931 191.093C27.9104 191.115 27.916 191.147 27.901 191.171C27.8841 191.196 27.8522 191.203 27.8391 191.231L26.5677 194.185C26.5546 194.217 26.5733 194.249 26.5658 194.28C26.5583 194.314 26.5283 194.335 26.5283 194.37V197.489V203.6V206.678C26.5302 206.713 26.5602 206.734 26.5677 206.769ZM28.668 191.679L31.1114 189.12L34.5899 186.92L38.8879 185.435L43.6923 184.627H48.6166L53.4284 185.394L57.7658 186.881L61.28 189.037L63.684 191.597L64.9667 194.472V197.311L63.7234 200.182L61.3213 202.741L57.8446 204.9L53.5428 206.426L48.7385 207.233H43.7729L38.9273 206.424L34.6668 204.937L31.1526 202.783L28.7467 200.26L27.4659 197.39V194.466L28.668 191.679Z" fill="url(#paint3_linear)"/>
<path d="M73.5397 231.689L74.8936 234.682C74.9086 234.716 74.9386 234.731 74.9611 234.759C74.9724 234.776 74.9668 234.796 74.9799 234.81L77.5227 237.517C77.5377 237.534 77.5639 237.53 77.5827 237.544C77.6015 237.56 77.6033 237.585 77.624 237.6L81.1925 239.732C81.2113 239.743 81.2319 239.741 81.2506 239.751C81.2638 239.754 81.2656 239.769 81.2788 239.773L85.7081 241.333C85.7287 241.341 85.7493 241.339 85.7699 241.345C85.7756 241.345 85.7793 241.352 85.7849 241.352L90.668 242.174C90.6943 242.179 90.7187 242.181 90.7468 242.181H95.7911C95.8193 242.181 95.8418 242.179 95.8699 242.174L100.749 241.352C100.757 241.352 100.76 241.345 100.768 241.343C100.79 241.337 100.811 241.339 100.834 241.33L105.222 239.728C105.235 239.724 105.237 239.709 105.25 239.704C105.269 239.696 105.289 239.698 105.306 239.687L108.875 237.515C108.895 237.502 108.895 237.476 108.914 237.461C108.933 237.446 108.957 237.454 108.972 237.435L111.517 234.729C111.532 234.714 111.524 234.69 111.537 234.675C111.56 234.645 111.59 234.628 111.605 234.592L112.876 231.595C112.891 231.564 112.873 231.534 112.878 231.502C112.886 231.468 112.916 231.447 112.916 231.412V222.225V219.106C112.916 219.069 112.884 219.046 112.876 219.011C112.869 218.977 112.888 218.943 112.873 218.911L111.517 215.96C111.506 215.934 111.477 215.93 111.462 215.907C111.447 215.885 111.453 215.855 111.432 215.832L108.891 213.124C108.875 213.108 108.85 213.111 108.831 213.098C108.815 213.083 108.813 213.057 108.792 213.046L105.224 210.872C105.207 210.863 105.188 210.872 105.175 210.865C105.158 210.857 105.154 210.837 105.137 210.831L100.749 209.273C100.732 209.267 100.717 209.278 100.702 209.275C100.685 209.271 100.678 209.254 100.663 209.25L95.7405 208.511C95.7274 208.509 95.718 208.521 95.703 208.519C95.6918 208.519 95.6824 208.506 95.6693 208.506H90.6211C90.608 208.506 90.5986 208.519 90.5855 208.521C90.5705 208.521 90.5593 208.509 90.5461 208.511L85.6649 209.29C85.648 209.291 85.6424 209.31 85.6255 209.314C85.6105 209.318 85.5974 209.306 85.5824 209.312L81.1925 210.87C81.1756 210.876 81.17 210.897 81.155 210.904C81.1381 210.912 81.1194 210.904 81.1063 210.912L77.5377 213.087C77.5171 213.098 77.5171 213.126 77.4983 213.139C77.4796 213.154 77.4533 213.149 77.4364 213.168L74.9349 215.873C74.9143 215.894 74.9218 215.926 74.9068 215.95C74.8899 215.973 74.8617 215.979 74.8486 216.005L73.536 219C73.5228 219.033 73.5397 219.065 73.5341 219.097C73.5266 219.131 73.4966 219.153 73.4966 219.187V222.306V228.417V231.494C73.4966 231.532 73.5266 231.552 73.536 231.586C73.5435 231.62 73.5228 231.655 73.5397 231.689ZM75.6775 216.455L78.0834 213.852L81.5544 211.737L85.8562 210.21L90.6605 209.443H95.6336L100.475 210.169L104.773 211.695L108.248 213.811L110.697 216.417L111.976 219.206V222.129L110.776 224.957L108.329 227.558L104.856 229.675L100.547 231.203L95.748 232.049H90.7843L85.98 231.241L81.6332 229.713L78.1603 227.597L75.7169 225.036L74.4361 222.202V219.285L75.6775 216.455Z" fill="url(#paint4_linear)"/>
<path d="M133 118V191.5" stroke="#40D6DA" stroke-width="2" stroke-dasharray="2 6"/>
<path d="M92 148V221.5" stroke="#40D6DA" stroke-width="2" stroke-dasharray="2 6"/>
<defs>
<filter id="filter0_d" x="0.5" y="0" width="179" height="133" filterUnits="userSpaceOnUse" color-interpolation-filters="sRGB">
<feFlood flood-opacity="0" result="BackgroundImageFix"/>
<feColorMatrix in="SourceAlpha" type="matrix" values="0 0 0 0 0 0 0 0 0 0 0 0 0 0 0 0 0 0 127 0" result="hardAlpha"/>
<feOffset dy="3"/>
<feGaussianBlur stdDeviation="0.5"/>
<feComposite in2="hardAlpha" operator="out"/>
<feColorMatrix type="matrix" values="0 0 0 0 0.684126 0 0 0 0 0.682951 0 0 0 0 0.741667 0 0 0 0.48 0"/>
<feBlend mode="normal" in2="BackgroundImageFix" result="effect1_dropShadow"/>
<feBlend mode="normal" in="SourceGraphic" in2="effect1_dropShadow" result="shape"/>
</filter>
<filter id="filter1_d" x="0.5" y="183" width="179" height="133" filterUnits="userSpaceOnUse" color-interpolation-filters="sRGB">
<feFlood flood-opacity="0" result="BackgroundImageFix"/>
<feColorMatrix in="SourceAlpha" type="matrix" values="0 0 0 0 0 0 0 0 0 0 0 0 0 0 0 0 0 0 127 0" result="hardAlpha"/>
<feOffset dy="3"/>
<feGaussianBlur stdDeviation="0.5"/>
<feComposite in2="hardAlpha" operator="out"/>
<feColorMatrix type="matrix" values="0 0 0 0 0.684126 0 0 0 0 0.682951 0 0 0 0 0.741667 0 0 0 0.48 0"/>
<feBlend mode="normal" in2="BackgroundImageFix" result="effect1_dropShadow"/>
<feBlend mode="normal" in="SourceGraphic" in2="effect1_dropShadow" result="shape"/>
</filter>
<linearGradient id="paint0_linear" x1="101.3" y1="91.9598" x2="88.9769" y2="62.9898" gradientUnits="userSpaceOnUse">
<stop stop-color="#49E0E6"/>
<stop offset="1" stop-color="#21B3B4"/>
</linearGradient>
<linearGradient id="paint1_linear" x1="128.686" y1="119.605" x2="86.8387" y2="3.31517" gradientUnits="userSpaceOnUse">
<stop stop-color="#49E0E6"/>
<stop offset="1" stop-color="#21B3B4"/>
</linearGradient>
<linearGradient id="paint2_linear" x1="128.691" y1="300.151" x2="65.5656" y2="163.406" gradientUnits="userSpaceOnUse">
<stop stop-color="#49E0E6"/>
<stop offset="1" stop-color="#21B3B4"/>
</linearGradient>
<linearGradient id="paint3_linear" x1="54.886" y1="214.842" x2="42.5611" y2="185.869" gradientUnits="userSpaceOnUse">
<stop stop-color="#49E0E6"/>
<stop offset="1" stop-color="#21B3B4"/>
</linearGradient>
<linearGradient id="paint4_linear" x1="101.883" y1="239.663" x2="89.5663" y2="210.681" gradientUnits="userSpaceOnUse">
<stop stop-color="#49E0E6"/>
<stop offset="1" stop-color="#21B3B4"/>
</linearGradient>
</defs>
</svg>
