<svg width="408" height="217" viewBox="0 0 408 217" fill="none" xmlns="http://www.w3.org/2000/svg">
<g filter="url(#filter0_d)">
<path opacity="0.8" fill-rule="evenodd" clip-rule="evenodd" d="M10.2 0.120605H353.974C359.055 0.120605 363.174 4.2396 363.174 9.32063V203.176C363.174 208.257 359.055 212.376 353.974 212.376H10.2C5.11899 212.376 1 208.257 1 203.176V9.32063C1 4.2396 5.11899 0.120605 10.2 0.120605Z" fill="url(#paint0_linear)"/>
<path fill-rule="evenodd" clip-rule="evenodd" d="M1.07616 22.7849L1 8.9971C1 4.11495 5.15074 0.120605 10.224 0.120605H353.947C359.02 0.120605 363.171 4.11495 363.171 8.9971L363.041 22.7849H1.07616Z" fill="#F6F8F8"/>
</g>
<path fill-rule="evenodd" clip-rule="evenodd" d="M16.7357 15.6251C19.0399 15.6251 20.9079 13.7571 20.9079 11.4529C20.9079 9.1486 19.0399 7.28064 16.7357 7.28064C14.4314 7.28064 12.5635 9.1486 12.5635 11.4529C12.5635 13.7571 14.4314 15.6251 16.7357 15.6251Z" fill="#95B2BA"/>
<path fill-rule="evenodd" clip-rule="evenodd" d="M33.1468 15.6249C35.4511 15.6249 37.319 13.757 37.319 11.4527C37.319 9.14848 35.4511 7.28052 33.1468 7.28052C30.8426 7.28052 28.9746 9.14848 28.9746 11.4527C28.9746 13.757 30.8426 15.6249 33.1468 15.6249Z" fill="#95B2BA"/>
<path fill-rule="evenodd" clip-rule="evenodd" d="M49.558 15.6249C51.8622 15.6249 53.7302 13.757 53.7302 11.4527C53.7302 9.14848 51.8622 7.28052 49.558 7.28052C47.2537 7.28052 45.3857 9.14848 45.3857 11.4527C45.3857 13.757 47.2537 15.6249 49.558 15.6249Z" fill="#95B2BA"/>
<path fill-rule="evenodd" clip-rule="evenodd" d="M7.64404 28.0254H356.427V203.499H7.64404V28.0254Z" fill="url(#paint1_linear)"/>
<g filter="url(#filter1_d)">
<path fill-rule="evenodd" clip-rule="evenodd" d="M104.166 57H177.16C178.455 57.019 179.495 58.0742 179.495 59.3693C179.495 60.6643 178.455 61.7195 177.16 61.7385H104.166C102.871 61.7195 101.832 60.6643 101.832 59.3693C101.832 58.0742 102.871 57.019 104.166 57Z" fill="url(#paint2_linear)"/>
<path fill-rule="evenodd" clip-rule="evenodd" d="M77.3347 64.0118H139.63C140.925 64.0309 141.965 65.086 141.965 66.3811C141.965 67.6762 140.925 68.7313 139.63 68.7504H77.3347C76.0398 68.7313 75 67.6762 75 66.3811C75 65.086 76.0398 64.0309 77.3347 64.0118Z" fill="url(#paint3_linear)"/>
<path fill-rule="evenodd" clip-rule="evenodd" d="M148.076 64.0118H256.57C257.865 64.0309 258.904 65.086 258.904 66.3811C258.904 67.6762 257.865 68.7313 256.57 68.7504H148.076C146.781 68.7313 145.741 67.6762 145.741 66.3811C145.741 65.086 146.781 64.0309 148.076 64.0118Z" fill="url(#paint4_linear)"/>
<path fill-rule="evenodd" clip-rule="evenodd" d="M84.4548 91.6758H151.18C152.474 91.6948 153.514 92.75 153.514 94.045C153.514 95.3401 152.474 96.3953 151.18 96.4143H84.4548C83.1599 96.3953 82.1201 95.3401 82.1201 94.045C82.1201 92.75 83.1599 91.6948 84.4548 91.6758Z" fill="url(#paint5_linear)"/>
<path fill-rule="evenodd" clip-rule="evenodd" d="M98.4587 101.101H209.65C210.945 101.12 211.984 102.175 211.984 103.47C211.984 104.765 210.945 105.82 209.65 105.839H98.4587C97.1638 105.82 96.124 104.765 96.124 103.47C96.124 102.175 97.1638 101.12 98.4587 101.101Z" fill="url(#paint6_linear)"/>
<path fill-rule="evenodd" clip-rule="evenodd" d="M227.67 101.101H293.384C294.679 101.12 295.719 102.175 295.719 103.47C295.719 104.765 294.679 105.82 293.384 105.839H227.67C226.375 105.82 225.335 104.765 225.335 103.47C225.335 102.175 226.375 101.12 227.67 101.101Z" fill="url(#paint7_linear)"/>
<path fill-rule="evenodd" clip-rule="evenodd" d="M88.7859 109.196H225.345C226.64 109.215 227.68 110.271 227.68 111.566C227.68 112.861 226.64 113.916 225.345 113.935H88.7859C87.491 113.916 86.4512 112.861 86.4512 111.566C86.4512 110.271 87.491 109.215 88.7859 109.196Z" fill="url(#paint8_linear)"/>
<path fill-rule="evenodd" clip-rule="evenodd" d="M238.931 109.196H260.716C262.01 109.215 263.05 110.271 263.05 111.566C263.05 112.861 262.01 113.916 260.716 113.935H238.931C237.636 113.916 236.597 112.861 236.597 111.566C236.597 110.271 237.636 109.215 238.931 109.196Z" fill="url(#paint9_linear)"/>
<path fill-rule="evenodd" clip-rule="evenodd" d="M268.897 64.0118H331.193C332.488 64.0309 333.527 65.086 333.527 66.3811C333.527 67.6762 332.488 68.7313 331.193 68.7504H268.897C267.602 68.7313 266.562 67.6762 266.562 66.3811C266.562 65.086 267.602 64.0309 268.897 64.0118Z" fill="url(#paint10_linear)"/>
<path fill-rule="evenodd" clip-rule="evenodd" d="M284.423 81.8695H323.307C324.602 81.8885 325.642 82.9437 325.642 84.2388C325.642 85.5338 324.602 86.589 323.307 86.608H284.423C283.128 86.589 282.088 85.5338 282.088 84.2388C282.088 82.9437 283.128 81.8885 284.423 81.8695Z" fill="#FF3D71"/>
<path fill-rule="evenodd" clip-rule="evenodd" d="M275.197 111.362H374.112C375.407 111.381 376.447 112.436 376.447 113.732C376.447 115.027 375.407 116.082 374.112 116.101H275.197C273.902 116.082 272.862 115.027 272.862 113.732C272.862 112.436 273.902 111.381 275.197 111.362Z" fill="url(#paint11_linear)"/>
<path fill-rule="evenodd" clip-rule="evenodd" d="M128.158 81.1812H264.717C266.012 81.2002 267.052 82.2553 267.052 83.5504C267.052 84.8455 266.012 85.9007 264.717 85.9197H128.158C126.864 85.9007 125.824 84.8455 125.824 83.5504C125.824 82.2553 126.864 81.2002 128.158 81.1812Z" fill="url(#paint12_linear)"/>
<path fill-rule="evenodd" clip-rule="evenodd" d="M84.4548 134.195H151.18C152.474 134.214 153.514 135.269 153.514 136.564C153.514 137.859 152.474 138.914 151.18 138.933H84.4548C83.1599 138.914 82.1201 137.859 82.1201 136.564C82.1201 135.269 83.1599 134.214 84.4548 134.195Z" fill="url(#paint13_linear)"/>
<path fill-rule="evenodd" clip-rule="evenodd" d="M98.4587 143.619H209.65C210.945 143.638 211.984 144.693 211.984 145.989C211.984 147.284 210.945 148.339 209.65 148.358H98.4587C97.1638 148.339 96.124 147.284 96.124 145.989C96.124 144.693 97.1638 143.638 98.4587 143.619Z" fill="url(#paint14_linear)"/>
<path fill-rule="evenodd" clip-rule="evenodd" d="M88.7859 151.715H225.345C226.64 151.734 227.68 152.79 227.68 154.085C227.68 155.38 226.64 156.435 225.345 156.454H88.7859C87.491 156.435 86.4512 155.38 86.4512 154.085C86.4512 152.79 87.491 151.734 88.7859 151.715Z" fill="url(#paint15_linear)"/>
<path fill-rule="evenodd" clip-rule="evenodd" d="M77.3347 174.643H139.63C140.925 174.662 141.965 175.717 141.965 177.012C141.965 178.307 140.925 179.362 139.63 179.381H77.3347C76.0398 179.362 75 178.307 75 177.012C75 175.717 76.0398 174.662 77.3347 174.643Z" fill="url(#paint16_linear)"/>
</g>
<path fill-rule="evenodd" clip-rule="evenodd" d="M22.7694 65.7612C23.999 65.7612 24.9958 66.758 24.9958 67.9876V68.2733C24.9958 69.503 23.999 70.4998 22.7694 70.4998C21.5398 70.4998 20.543 69.503 20.543 68.2733V67.9876C20.543 66.758 21.5398 65.7612 22.7694 65.7612Z" fill="#E5E8F5"/>
<path fill-rule="evenodd" clip-rule="evenodd" d="M22.7694 37C23.999 37 24.9958 37.9968 24.9958 39.2264V39.5121C24.9958 40.7417 23.999 41.7385 22.7694 41.7385C21.5398 41.7385 20.543 40.7417 20.543 39.5121V39.2264C20.543 37.9968 21.5398 37 22.7694 37Z" fill="#E5E8F5"/>
<path fill-rule="evenodd" clip-rule="evenodd" d="M22.7694 72.2473C23.999 72.2473 24.9958 73.2441 24.9958 74.4737V74.7594C24.9958 75.989 23.999 76.9858 22.7694 76.9858C21.5398 76.9858 20.543 75.989 20.543 74.7594V74.4737C20.543 73.2441 21.5398 72.2473 22.7694 72.2473Z" fill="#E5E8F5"/>
<path fill-rule="evenodd" clip-rule="evenodd" d="M22.7694 90.4697C23.999 90.4697 24.9958 91.4665 24.9958 92.6961V92.9818C24.9958 94.2115 23.999 95.2083 22.7694 95.2083C21.5398 95.2083 20.543 94.2115 20.543 92.9818V92.6961C20.543 91.4665 21.5398 90.4697 22.7694 90.4697Z" fill="#E5E8F5"/>
<path fill-rule="evenodd" clip-rule="evenodd" d="M22.7694 100.192C23.999 100.192 24.9958 101.188 24.9958 102.418V102.704C24.9958 103.933 23.999 104.93 22.7694 104.93C21.5398 104.93 20.543 103.933 20.543 102.704V102.418C20.543 101.188 21.5398 100.192 22.7694 100.192Z" fill="#E5E8F5"/>
<path fill-rule="evenodd" clip-rule="evenodd" d="M22.7694 109.832C23.999 109.832 24.9958 110.828 24.9958 112.058V112.344C24.9958 113.573 23.999 114.57 22.7694 114.57C21.5398 114.57 20.543 113.573 20.543 112.344V112.058C20.543 110.828 21.5398 109.832 22.7694 109.832Z" fill="#E5E8F5"/>
<path fill-rule="evenodd" clip-rule="evenodd" d="M22.7694 117.246C23.999 117.246 24.9958 118.243 24.9958 119.472V119.758C24.9958 120.988 23.999 121.985 22.7694 121.985C21.5398 121.985 20.543 120.988 20.543 119.758V119.472C20.543 118.243 21.5398 117.246 22.7694 117.246Z" fill="#E5E8F5"/>
<path fill-rule="evenodd" clip-rule="evenodd" d="M22.7694 133.065C23.999 133.065 24.9958 134.061 24.9958 135.291V135.577C24.9958 136.806 23.999 137.803 22.7694 137.803C21.5398 137.803 20.543 136.806 20.543 135.577V135.291C20.543 134.061 21.5398 133.065 22.7694 133.065Z" fill="#E5E8F5"/>
<path fill-rule="evenodd" clip-rule="evenodd" d="M22.7694 142.622C23.999 142.622 24.9958 143.619 24.9958 144.848V145.134C24.9958 146.364 23.999 147.36 22.7694 147.36C21.5398 147.36 20.543 146.364 20.543 145.134V144.848C20.543 143.619 21.5398 142.622 22.7694 142.622Z" fill="#E5E8F5"/>
<path fill-rule="evenodd" clip-rule="evenodd" d="M22.7694 152.1C23.999 152.1 24.9958 153.096 24.9958 154.326V154.612C24.9958 155.841 23.999 156.838 22.7694 156.838C21.5398 156.838 20.543 155.841 20.543 154.612V154.326C20.543 153.096 21.5398 152.1 22.7694 152.1Z" fill="#E5E8F5"/>
<path fill-rule="evenodd" clip-rule="evenodd" d="M22.7694 159.447C23.999 159.447 24.9958 160.443 24.9958 161.673V161.959C24.9958 163.188 23.999 164.185 22.7694 164.185C21.5398 164.185 20.543 163.188 20.543 161.959V161.673C20.543 160.443 21.5398 159.447 22.7694 159.447Z" fill="#E5E8F5"/>
<path fill-rule="evenodd" clip-rule="evenodd" d="M22.7694 176.16C23.999 176.16 24.9958 177.156 24.9958 178.386V178.672C24.9958 179.901 23.999 180.898 22.7694 180.898C21.5398 180.898 20.543 179.901 20.543 178.672V178.386C20.543 177.156 21.5398 176.16 22.7694 176.16Z" fill="#E5E8F5"/>
<path fill-rule="evenodd" clip-rule="evenodd" d="M22.7694 183.731C23.999 183.731 24.9958 184.728 24.9958 185.957V186.243C24.9958 187.473 23.999 188.469 22.7694 188.469C21.5398 188.469 20.543 187.473 20.543 186.243V185.957C20.543 184.728 21.5398 183.731 22.7694 183.731Z" fill="#E5E8F5"/>
<g filter="url(#filter2_d)">
<path fill-rule="evenodd" clip-rule="evenodd" d="M34.0134 81.6306H72.8978C74.1928 81.6496 75.2326 82.7048 75.2326 83.9999C75.2326 85.295 74.1928 86.3501 72.8978 86.3691H34.0134C32.7185 86.3501 31.6787 85.295 31.6787 83.9999C31.6787 82.7048 32.7185 81.6496 34.0134 81.6306Z" fill="#33F8FF"/>
</g>
<path fill-rule="evenodd" clip-rule="evenodd" d="M52.3347 188H125.329C126.624 188.019 127.663 189.074 127.663 190.369C127.663 191.664 126.624 192.72 125.329 192.739H52.3347C51.0398 192.72 50 191.664 50 190.369C50 189.074 51.0398 188.019 52.3347 188Z" fill="#26C6DA"/>
<g filter="url(#filter3_d)">
<path fill-rule="evenodd" clip-rule="evenodd" d="M34.0134 162.149H72.8978C74.1928 162.168 75.2326 163.224 75.2326 164.519C75.2326 165.814 74.1928 166.869 72.8978 166.888H34.0134C32.7185 166.869 31.6787 165.814 31.6787 164.519C31.6787 163.224 32.7185 162.168 34.0134 162.149Z" fill="#33F8FF"/>
</g>
<g filter="url(#filter4_d)">
<path opacity="0.8" fill-rule="evenodd" clip-rule="evenodd" d="M271.889 50.3308H396.889C399.711 50.3308 402 52.6191 402 55.4419V142.836C402 145.658 399.711 147.947 396.889 147.947H271.889C269.067 147.947 266.778 145.658 266.778 142.836V55.4419C266.778 52.6191 269.067 50.3308 271.889 50.3308Z" fill="#EDEFF0"/>
<path fill-rule="evenodd" clip-rule="evenodd" d="M266.778 60.3157V55.0983C266.786 52.4017 268.97 50.2176 271.667 50.2095H397.11C399.807 50.2173 401.991 52.4015 401.999 55.0983V60.3157H266.778Z" fill="#F6F8F8"/>
<path fill-rule="evenodd" clip-rule="evenodd" d="M277.481 57.5511C278.828 57.5511 279.921 56.4589 279.921 55.1115C279.921 53.7642 278.828 52.672 277.481 52.672C276.134 52.672 275.042 53.7642 275.042 55.1115C275.042 56.4589 276.134 57.5511 277.481 57.5511Z" fill="#95B2BA"/>
<path fill-rule="evenodd" clip-rule="evenodd" d="M287.077 57.5511C288.424 57.5511 289.516 56.4589 289.516 55.1115C289.516 53.7642 288.424 52.672 287.077 52.672C285.729 52.672 284.637 53.7642 284.637 55.1115C284.637 56.4589 285.729 57.5511 287.077 57.5511Z" fill="#95B2BA"/>
<path fill-rule="evenodd" clip-rule="evenodd" d="M296.672 57.5511C298.019 57.5511 299.112 56.4589 299.112 55.1115C299.112 53.7642 298.019 52.672 296.672 52.672C295.325 52.672 294.232 53.7642 294.232 55.1115C294.232 56.4589 295.325 57.5511 296.672 57.5511Z" fill="#95B2BA"/>
<path opacity="0.7" fill-rule="evenodd" clip-rule="evenodd" d="M273.422 67.1971H395.252V139.071H273.422V67.1971Z" fill="#37CCCF"/>
<path fill-rule="evenodd" clip-rule="evenodd" d="M335.279 129.943C335.279 129.943 312.779 120.875 312.779 109.792V81.9817C325.781 85.5145 335.268 79.3429 335.268 79.3429C335.268 79.3429 343.483 85.6225 357.757 81.9817V109.792C357.757 120.874 335.279 129.943 335.279 129.943Z" fill="white"/>
<path fill-rule="evenodd" clip-rule="evenodd" d="M335.534 124.321C335.534 124.321 317.89 117.286 317.89 108.69V87.7748C328.084 90.5152 335.523 85.4762 335.523 85.4762C335.523 85.4762 341.965 90.5969 353.156 87.7748V108.69C353.159 117.286 335.534 124.321 335.534 124.321Z" fill="white"/>
<path fill-rule="evenodd" clip-rule="evenodd" d="M334.786 125.614L335.325 125.828L335.865 125.612C336.623 125.308 354.432 118.068 354.432 108.556V85.6718L352.623 86.1299C342.316 88.7374 336.461 84.2795 336.222 84.093L335.387 83.4318L334.503 84.0255C329.517 86.9054 323.583 87.6654 318.032 86.1355L316.201 85.6419V108.558C316.201 118.071 334.026 125.31 334.786 125.614ZM319.108 108.556V89.364C324.612 90.4487 330.321 89.5976 335.269 86.955C337.327 88.2262 342.99 90.9757 351.528 89.3503V108.556C351.528 114.597 340.312 120.591 335.326 122.692C330.337 120.592 319.108 114.597 319.108 108.556Z" fill="#33F8FF"/>
</g>
<path d="M39.7256 66.7461C36.5615 65.8584 34.9795 63.8149 34.9795 60.6157V57.9922C34.9795 56.1377 34.1973 55.2104 32.6328 55.2104V52.4814C34.1621 52.4814 34.9443 51.6069 34.9795 49.8579V47.063C34.9795 45.437 35.375 44.123 36.166 43.1211C36.957 42.1191 38.1436 41.394 39.7256 40.9458L40.4639 43.0684C39.7959 43.3145 39.2905 43.7451 38.9478 44.3604C38.605 44.9668 38.4248 45.8105 38.4072 46.8916V49.6602C38.4072 51.6465 37.6206 53.0396 36.0474 53.8394C37.6206 54.6479 38.4072 56.0498 38.4072 58.0449V60.8398C38.4512 62.8965 39.1367 64.1533 40.4639 64.6104L39.7256 66.7461Z" fill="#33F8FF"/>
<path d="M161.448 193.61C162.784 193.136 163.47 191.861 163.505 189.787V186.992C163.505 185.006 164.309 183.626 165.917 182.853C164.309 182.079 163.505 180.677 163.505 178.647V175.892C163.47 173.844 162.784 172.569 161.448 172.068L162.187 169.946C163.76 170.385 164.942 171.106 165.733 172.108C166.524 173.101 166.924 174.406 166.933 176.023V178.858C166.968 180.607 167.75 181.481 169.279 181.481V184.21C167.715 184.21 166.933 185.129 166.933 186.966V189.827C166.862 192.903 165.28 194.876 162.187 195.746L161.448 193.61Z" fill="#33F8FF"/>
<defs>
<filter id="filter0_d" x="0" y="0.120605" width="364.174" height="216.255" filterUnits="userSpaceOnUse" color-interpolation-filters="sRGB">
<feFlood flood-opacity="0" result="BackgroundImageFix"/>
<feColorMatrix in="SourceAlpha" type="matrix" values="0 0 0 0 0 0 0 0 0 0 0 0 0 0 0 0 0 0 127 0" result="hardAlpha"/>
<feOffset dy="3"/>
<feGaussianBlur stdDeviation="0.5"/>
<feComposite in2="hardAlpha" operator="out"/>
<feColorMatrix type="matrix" values="0 0 0 0 0.682353 0 0 0 0 0.682353 0 0 0 0 0.741176 0 0 0 0.48 0"/>
<feBlend mode="normal" in2="BackgroundImageFix" result="effect1_dropShadow"/>
<feBlend mode="normal" in="SourceGraphic" in2="effect1_dropShadow" result="shape"/>
</filter>
<filter id="filter1_d" x="72.9556" y="57" width="305.536" height="126.47" filterUnits="userSpaceOnUse" color-interpolation-filters="sRGB">
<feFlood flood-opacity="0" result="BackgroundImageFix"/>
<feColorMatrix in="SourceAlpha" type="matrix" values="0 0 0 0 0 0 0 0 0 0 0 0 0 0 0 0 0 0 127 0" result="hardAlpha"/>
<feOffset dy="2.04445"/>
<feGaussianBlur stdDeviation="1.02222"/>
<feComposite in2="hardAlpha" operator="out"/>
<feColorMatrix type="matrix" values="0 0 0 0 0 0 0 0 0 0 0 0 0 0 0 0 0 0 0.25 0"/>
<feBlend mode="normal" in2="BackgroundImageFix" result="effect1_dropShadow"/>
<feBlend mode="normal" in="SourceGraphic" in2="effect1_dropShadow" result="shape"/>
</filter>
<filter id="filter2_d" x="27.6787" y="81.6306" width="51.5538" height="12.7385" filterUnits="userSpaceOnUse" color-interpolation-filters="sRGB">
<feFlood flood-opacity="0" result="BackgroundImageFix"/>
<feColorMatrix in="SourceAlpha" type="matrix" values="0 0 0 0 0 0 0 0 0 0 0 0 0 0 0 0 0 0 127 0" result="hardAlpha"/>
<feOffset dy="4"/>
<feGaussianBlur stdDeviation="2"/>
<feComposite in2="hardAlpha" operator="out"/>
<feColorMatrix type="matrix" values="0 0 0 0 0 0 0 0 0 0 0 0 0 0 0 0 0 0 0.25 0"/>
<feBlend mode="normal" in2="BackgroundImageFix" result="effect1_dropShadow"/>
<feBlend mode="normal" in="SourceGraphic" in2="effect1_dropShadow" result="shape"/>
</filter>
<filter id="filter3_d" x="27.6787" y="162.149" width="51.5538" height="12.7385" filterUnits="userSpaceOnUse" color-interpolation-filters="sRGB">
<feFlood flood-opacity="0" result="BackgroundImageFix"/>
<feColorMatrix in="SourceAlpha" type="matrix" values="0 0 0 0 0 0 0 0 0 0 0 0 0 0 0 0 0 0 127 0" result="hardAlpha"/>
<feOffset dy="4"/>
<feGaussianBlur stdDeviation="2"/>
<feComposite in2="hardAlpha" operator="out"/>
<feColorMatrix type="matrix" values="0 0 0 0 0 0 0 0 0 0 0 0 0 0 0 0 0 0 0.25 0"/>
<feBlend mode="normal" in2="BackgroundImageFix" result="effect1_dropShadow"/>
<feBlend mode="normal" in="SourceGraphic" in2="effect1_dropShadow" result="shape"/>
</filter>
<filter id="filter4_d" x="261.667" y="47.1428" width="145.444" height="107.959" filterUnits="userSpaceOnUse" color-interpolation-filters="sRGB">
<feFlood flood-opacity="0" result="BackgroundImageFix"/>
<feColorMatrix in="SourceAlpha" type="matrix" values="0 0 0 0 0 0 0 0 0 0 0 0 0 0 0 0 0 0 127 0" result="hardAlpha"/>
<feOffset dy="2.04445"/>
<feGaussianBlur stdDeviation="2.55556"/>
<feColorMatrix type="matrix" values="0 0 0 0 0.0784314 0 0 0 0 0.164706 0 0 0 0 0.290196 0 0 0 0.07 0"/>
<feBlend mode="normal" in2="BackgroundImageFix" result="effect1_dropShadow"/>
<feBlend mode="normal" in="SourceGraphic" in2="effect1_dropShadow" result="shape"/>
</filter>
<linearGradient id="paint0_linear" x1="182.087" y1="0.120605" x2="182.087" y2="212.376" gradientUnits="userSpaceOnUse">
<stop stop-color="#E6EAEB"/>
<stop offset="1" stop-color="#F8FAFA"/>
</linearGradient>
<linearGradient id="paint1_linear" x1="783" y1="62" x2="175.484" y2="-533.79" gradientUnits="userSpaceOnUse">
<stop stop-color="#21B9BA"/>
<stop offset="1" stop-color="#014250"/>
</linearGradient>
<linearGradient id="paint2_linear" x1="229.09" y1="59.197" x2="117.858" y2="10.5649" gradientUnits="userSpaceOnUse">
<stop stop-color="#BFC9F5" stop-opacity="0.5"/>
<stop offset="0.0001" stop-color="#8EA1F5" stop-opacity="0.5"/>
<stop offset="1" stop-color="#26CBCF"/>
</linearGradient>
<linearGradient id="paint3_linear" x1="184.728" y1="66.2088" x2="84.7004" y2="28.5002" gradientUnits="userSpaceOnUse">
<stop stop-color="#BFC9F5" stop-opacity="0.5"/>
<stop offset="0.0001" stop-color="#8EA1F5" stop-opacity="0.5"/>
<stop offset="1" stop-color="#26CBCF"/>
</linearGradient>
<linearGradient id="paint4_linear" x1="331.169" y1="66.2088" x2="193.844" y2="-21.2756" gradientUnits="userSpaceOnUse">
<stop stop-color="#BFC9F5" stop-opacity="0.5"/>
<stop offset="0.0001" stop-color="#8EA1F5" stop-opacity="0.5"/>
<stop offset="1" stop-color="#26CBCF"/>
</linearGradient>
<linearGradient id="paint5_linear" x1="199.106" y1="93.8727" x2="94.2454" y2="51.7274" gradientUnits="userSpaceOnUse">
<stop stop-color="#BFC9F5" stop-opacity="0.5"/>
<stop offset="0.0001" stop-color="#8EA1F5" stop-opacity="0.5"/>
<stop offset="1" stop-color="#26CBCF"/>
</linearGradient>
<linearGradient id="paint6_linear" x1="285.971" y1="103.298" x2="147.304" y2="12.853" gradientUnits="userSpaceOnUse">
<stop stop-color="#BFC9F5" stop-opacity="0.5"/>
<stop offset="0.0001" stop-color="#8EA1F5" stop-opacity="0.5"/>
<stop offset="1" stop-color="#26CBCF"/>
</linearGradient>
<linearGradient id="paint7_linear" x1="340.665" y1="103.298" x2="236.883" y2="62.1764" gradientUnits="userSpaceOnUse">
<stop stop-color="#BFC9F5" stop-opacity="0.5"/>
<stop offset="0.0001" stop-color="#8EA1F5" stop-opacity="0.5"/>
<stop offset="1" stop-color="#26CBCF"/>
</linearGradient>
<linearGradient id="paint8_linear" x1="317.866" y1="111.393" x2="170.243" y2="-5.97512" gradientUnits="userSpaceOnUse">
<stop stop-color="#BFC9F5" stop-opacity="0.5"/>
<stop offset="0.0001" stop-color="#8EA1F5" stop-opacity="0.5"/>
<stop offset="1" stop-color="#26CBCF"/>
</linearGradient>
<linearGradient id="paint9_linear" x1="279.943" y1="111.393" x2="235.792" y2="104.818" gradientUnits="userSpaceOnUse">
<stop stop-color="#BFC9F5" stop-opacity="0.5"/>
<stop offset="0.0001" stop-color="#8EA1F5" stop-opacity="0.5"/>
<stop offset="1" stop-color="#26CBCF"/>
</linearGradient>
<linearGradient id="paint10_linear" x1="376.29" y1="66.2088" x2="276.263" y2="28.5002" gradientUnits="userSpaceOnUse">
<stop stop-color="#BFC9F5" stop-opacity="0.5"/>
<stop offset="0.0001" stop-color="#8EA1F5" stop-opacity="0.5"/>
<stop offset="1" stop-color="#26CBCF"/>
</linearGradient>
<linearGradient id="paint11_linear" x1="442.595" y1="113.559" x2="310.721" y2="36.6592" gradientUnits="userSpaceOnUse">
<stop stop-color="#BFC9F5" stop-opacity="0.5"/>
<stop offset="0.0001" stop-color="#8EA1F5" stop-opacity="0.5"/>
<stop offset="1" stop-color="#26CBCF"/>
</linearGradient>
<linearGradient id="paint12_linear" x1="357.239" y1="83.3781" x2="209.616" y2="-33.9904" gradientUnits="userSpaceOnUse">
<stop stop-color="#BFC9F5" stop-opacity="0.5"/>
<stop offset="0.0001" stop-color="#8EA1F5" stop-opacity="0.5"/>
<stop offset="1" stop-color="#26CBCF"/>
</linearGradient>
<linearGradient id="paint13_linear" x1="199.106" y1="136.392" x2="94.2454" y2="94.2462" gradientUnits="userSpaceOnUse">
<stop stop-color="#BFC9F5" stop-opacity="0.5"/>
<stop offset="0.0001" stop-color="#8EA1F5" stop-opacity="0.5"/>
<stop offset="1" stop-color="#26CBCF"/>
</linearGradient>
<linearGradient id="paint14_linear" x1="285.971" y1="145.816" x2="147.304" y2="55.3714" gradientUnits="userSpaceOnUse">
<stop stop-color="#BFC9F5" stop-opacity="0.5"/>
<stop offset="0.0001" stop-color="#8EA1F5" stop-opacity="0.5"/>
<stop offset="1" stop-color="#26CBCF"/>
</linearGradient>
<linearGradient id="paint15_linear" x1="317.866" y1="153.912" x2="170.243" y2="36.5438" gradientUnits="userSpaceOnUse">
<stop stop-color="#BFC9F5" stop-opacity="0.5"/>
<stop offset="0.0001" stop-color="#8EA1F5" stop-opacity="0.5"/>
<stop offset="1" stop-color="#26CBCF"/>
</linearGradient>
<linearGradient id="paint16_linear" x1="184.728" y1="176.84" x2="84.7004" y2="139.131" gradientUnits="userSpaceOnUse">
<stop stop-color="#BFC9F5" stop-opacity="0.5"/>
<stop offset="0.0001" stop-color="#8EA1F5" stop-opacity="0.5"/>
<stop offset="1" stop-color="#26CBCF"/>
</linearGradient>
</defs>
</svg>
