<svg width="308" height="411" viewBox="0 0 308 411" fill="none" xmlns="http://www.w3.org/2000/svg">
<mask id="mask0" style="mask-type:alpha" maskUnits="userSpaceOnUse" x="0" y="103" width="308" height="308">
<circle cx="154" cy="257" r="154" fill="#C4C4C4" fill-opacity="0.2"/>
</mask>
<g mask="url(#mask0)">
<path d="M478.859 119.045C378.101 134.286 220.132 165.132 300.497 262.502C402.767 386.414 652.684 353.952 541.687 449.591" stroke="url(#paint0_linear)" stroke-width="3.5"/>
<path d="M443.334 113.14C342.576 128.381 184.606 159.227 264.971 256.598C367.242 380.509 617.158 348.047 506.162 443.686" stroke="url(#paint1_linear)" stroke-width="3.5"/>
<path d="M407.824 107.135C307.066 122.377 149.096 153.222 229.462 250.593C331.732 374.504 581.649 342.043 470.652 437.682" stroke="url(#paint2_linear)" stroke-width="3.5"/>
<path d="M372.27 101.4C271.512 116.641 113.543 147.487 193.908 244.858C296.178 368.769 546.095 336.307 435.098 431.946" stroke="url(#paint3_linear)" stroke-width="3.5"/>
<path d="M336.634 96.2018C235.876 111.443 77.9064 142.289 158.272 239.66C260.542 363.571 510.459 331.109 399.462 426.748" stroke="url(#paint4_linear)" stroke-width="3.5"/>
<path d="M300.899 91.7333C200.141 106.975 42.1711 137.82 122.536 235.191C224.807 359.102 474.723 326.641 363.727 422.279" stroke="url(#paint5_linear)" stroke-width="3.5"/>
<path d="M265.068 88.1237C164.31 103.365 6.34001 134.211 86.7052 231.581C188.976 355.493 438.892 323.031 327.896 418.67" stroke="url(#paint6_linear)" stroke-width="3.5"/>
<path d="M228.93 85.4225C128.173 100.664 -29.7972 131.509 50.568 228.88C152.838 352.791 402.755 320.33 291.759 415.969" stroke="url(#paint7_linear)" stroke-width="3.5"/>
<path d="M192.978 83.3433C92.2199 98.5849 -65.7498 129.43 14.6154 226.801C116.886 350.712 366.802 318.251 255.806 413.889" stroke="url(#paint8_linear)" stroke-width="3.5"/>
<path d="M156.998 81.7833C56.2404 97.025 -101.729 127.87 -21.3641 225.241C80.9063 349.152 330.823 316.691 219.826 412.33" stroke="url(#paint9_linear)" stroke-width="3.5"/>
<path d="M120.997 80.8146C20.2394 96.0562 -137.73 126.902 -57.3651 224.272C44.9053 348.184 294.822 315.722 183.825 411.361" stroke="url(#paint10_linear)" stroke-width="3.5"/>
<path d="M84.9855 80.5255C-15.7723 95.7672 -173.742 126.612 -93.3768 223.983C8.89356 347.894 258.81 315.433 147.814 411.072" stroke="url(#paint11_linear)" stroke-width="3.5"/>
<path d="M48.9763 81.0309C-51.7816 96.2725 -209.751 127.118 -129.386 224.489C-27.1157 348.4 222.801 315.939 111.804 411.577" stroke="url(#paint12_linear)" stroke-width="3.5"/>
<path d="M12.9919 82.4803C-87.7659 97.722 -245.736 128.567 -165.37 225.938C-63.1001 349.849 186.817 317.388 75.8201 413.027" stroke="url(#paint13_linear)" stroke-width="3.5"/>
<path d="M-22.928 85.0768C-123.686 100.318 -281.656 131.164 -201.29 228.535C-99.02 352.446 150.897 319.984 39.9002 415.623" stroke="url(#paint14_linear)" stroke-width="3.5"/>
<path d="M-58.7161 89.1051C-159.474 104.347 -317.444 135.192 -237.078 232.563C-134.808 356.474 115.109 324.013 4.11211 419.651" stroke="url(#paint15_linear)" stroke-width="3.5"/>
</g>
<g filter="url(#filter0_d)">
<path d="M167.701 321.693L156 294.834V355.034L206.791 339.752L238.664 307.8L248.97 271.87L262 277.237L245.081 250.842L224.764 277.237L237.399 271.87L228.345 297.613L203.444 321.776L187.673 324.008L167.701 321.693Z" fill="#21B9BA"/>
<path d="M240.747 311.968L248.97 271.87L238.664 307.8L206.791 339.752L156 355.034V368L173.121 360.128L212.498 343.457L240.747 311.968Z" fill="#21B9BA"/>
<path d="M248.97 271.87L262 277.237L245.081 250.842L224.764 277.237L237.399 271.87L228.345 297.613L203.444 321.776L187.673 324.008L167.701 321.693L156 294.834V355.034M248.97 271.87L240.747 311.968L212.498 343.457L173.121 360.128L156 368V355.034M248.97 271.87L238.664 307.8L206.791 339.752L156 355.034" stroke="#F8FAFA" stroke-width="0.828363"/>
<path d="M167.701 321.693L156 294.834V355.034L206.791 339.752L238.664 307.8L248.97 271.87L262 277.237L245.081 250.842L224.764 277.237L237.399 271.87L228.345 297.613L203.444 321.776L187.673 324.008L167.701 321.693Z" fill="url(#paint16_linear)"/>
<path d="M248.97 271.87L262 277.237L245.081 250.842L224.764 277.237L237.399 271.87L228.345 297.613L203.444 321.776L187.673 324.008L167.701 321.693L156 294.834V355.034M248.97 271.87L240.747 311.968L212.498 343.457L173.121 360.128L156 368V355.034M248.97 271.87L238.664 307.8L206.791 339.752L156 355.034" stroke="#F8FAFA" stroke-width="0.828363"/>
<path d="M140.299 321.693L152 294.834V355.034L101.209 339.752L69.3362 307.8L59.0296 271.87L46 277.237L62.9193 250.842L83.2358 277.237L70.6008 271.87L79.655 297.613L104.556 321.776L120.327 324.008L140.299 321.693Z" fill="#21B9BA"/>
<path d="M67.2534 311.968L59.0296 271.87L69.3362 307.8L101.209 339.752L152 355.034V368L134.879 360.128L95.5023 343.457L67.2534 311.968Z" fill="#21B9BA"/>
<path d="M59.0296 271.87L46 277.237L62.9193 250.842L83.2358 277.237L70.6008 271.87L79.655 297.613L104.556 321.776L120.327 324.008L140.299 321.693L152 294.834V355.034M59.0296 271.87L67.2534 311.968L95.5023 343.457L134.879 360.128L152 368V355.034M59.0296 271.87L69.3362 307.8L101.209 339.752L152 355.034" stroke="#F8FAFA" stroke-width="0.828363"/>
<path d="M140.299 321.693L152 294.834V355.034L101.209 339.752L69.3362 307.8L59.0296 271.87L46 277.237L62.9193 250.842L83.2358 277.237L70.6008 271.87L79.655 297.613L104.556 321.776L120.327 324.008L140.299 321.693Z" fill="url(#paint17_linear)"/>
<path d="M59.0296 271.87L46 277.237L62.9193 250.842L83.2358 277.237L70.6008 271.87L79.655 297.613L104.556 321.776L120.327 324.008L140.299 321.693L152 294.834V355.034M59.0296 271.87L67.2534 311.968L95.5023 343.457L134.879 360.128L152 368V355.034M59.0296 271.87L69.3362 307.8L101.209 339.752L152 355.034" stroke="#F8FAFA" stroke-width="0.828363"/>
<mask id="path-26-outside-1" maskUnits="userSpaceOnUse" x="88.1045" y="137" width="131" height="221" fill="black">
<rect fill="white" x="88.1045" y="137" width="131" height="221"/>
<path fill-rule="evenodd" clip-rule="evenodd" d="M167.472 145.066L152.829 139L138.185 145.066L132.12 159.709L138.185 174.353L148.687 178.702V204H110.626V201.541L99.8652 195.329L89.1045 201.541V213.967L99.8652 220.179L110.626 213.967V212H148.687V356.031H157.799V212H195.828V213.967L206.589 220.179L217.35 213.967V201.541L206.589 195.328L195.828 201.541V204H157.799V178.36L167.472 174.353L173.538 159.709L167.472 145.066ZM162.122 150.416L152.829 146.567L143.536 150.416L139.687 159.709L143.536 169.002L152.829 172.851L162.122 169.002L165.972 159.709L162.122 150.416ZM206.589 199.868L213.418 203.811V211.696L206.589 215.639L199.76 211.696V203.811L206.589 199.868ZM106.694 203.811L99.8651 199.868L93.0362 203.811V211.696L99.8651 215.639L106.694 211.696V203.811Z"/>
</mask>
<path fill-rule="evenodd" clip-rule="evenodd" d="M167.472 145.066L152.829 139L138.185 145.066L132.12 159.709L138.185 174.353L148.687 178.702V204H110.626V201.541L99.8652 195.329L89.1045 201.541V213.967L99.8652 220.179L110.626 213.967V212H148.687V356.031H157.799V212H195.828V213.967L206.589 220.179L217.35 213.967V201.541L206.589 195.328L195.828 201.541V204H157.799V178.36L167.472 174.353L173.538 159.709L167.472 145.066ZM162.122 150.416L152.829 146.567L143.536 150.416L139.687 159.709L143.536 169.002L152.829 172.851L162.122 169.002L165.972 159.709L162.122 150.416ZM206.589 199.868L213.418 203.811V211.696L206.589 215.639L199.76 211.696V203.811L206.589 199.868ZM106.694 203.811L99.8651 199.868L93.0362 203.811V211.696L99.8651 215.639L106.694 211.696V203.811Z" fill="url(#paint18_linear)"/>
<path d="M152.829 139L153.211 138.076L152.829 137.918L152.446 138.076L152.829 139ZM167.472 145.066L168.396 144.683L168.238 144.3L167.855 144.142L167.472 145.066ZM138.185 145.066L137.802 144.142L137.42 144.3L137.261 144.683L138.185 145.066ZM132.12 159.709L131.196 159.326L131.037 159.709L131.196 160.092L132.12 159.709ZM138.185 174.353L137.261 174.735L137.42 175.118L137.802 175.276L138.185 174.353ZM148.687 178.702H149.687V178.034L149.069 177.779L148.687 178.702ZM148.687 204V205H149.687V204H148.687ZM110.626 204H109.626V205H110.626V204ZM110.626 201.541H111.626V200.964L111.126 200.675L110.626 201.541ZM99.8652 195.329L100.365 194.463L99.8652 194.174L99.3652 194.463L99.8652 195.329ZM89.1045 201.541L88.6045 200.675L88.1045 200.964V201.541H89.1045ZM89.1045 213.967H88.1045V214.544L88.6045 214.833L89.1045 213.967ZM99.8652 220.179L99.3652 221.046L99.8652 221.334L100.365 221.046L99.8652 220.179ZM110.626 213.967L111.126 214.833L111.626 214.544V213.967H110.626ZM110.626 212V211H109.626V212H110.626ZM148.687 212H149.687V211H148.687V212ZM148.687 356.031H147.687V357.031H148.687V356.031ZM157.799 356.031V357.031H158.799V356.031H157.799ZM157.799 212V211H156.799V212H157.799ZM195.828 212H196.828V211H195.828V212ZM195.828 213.967H194.828V214.544L195.328 214.833L195.828 213.967ZM206.589 220.179L206.089 221.045L206.589 221.334L207.089 221.045L206.589 220.179ZM217.35 213.967L217.85 214.833L218.35 214.544V213.967H217.35ZM217.35 201.541H218.35V200.964L217.85 200.675L217.35 201.541ZM206.589 195.328L207.089 194.462L206.589 194.174L206.089 194.462L206.589 195.328ZM195.828 201.541L195.328 200.675L194.828 200.964V201.541H195.828ZM195.828 204V205H196.828V204H195.828ZM157.799 204H156.799V205H157.799V204ZM157.799 178.36L157.416 177.436L156.799 177.691V178.36H157.799ZM167.472 174.353L167.855 175.276L168.238 175.118L168.396 174.735L167.472 174.353ZM173.538 159.709L174.462 160.092L174.62 159.709L174.462 159.326L173.538 159.709ZM152.829 146.567L153.212 145.643L152.829 145.484L152.447 145.643L152.829 146.567ZM162.122 150.416L163.046 150.033L162.888 149.651L162.505 149.492L162.122 150.416ZM143.536 150.416L143.154 149.492L142.771 149.651L142.612 150.033L143.536 150.416ZM139.687 159.709L138.763 159.326L138.605 159.709L138.763 160.092L139.687 159.709ZM143.536 169.002L142.612 169.385L142.771 169.767L143.154 169.926L143.536 169.002ZM152.829 172.851L152.447 173.775L152.829 173.934L153.212 173.775L152.829 172.851ZM162.122 169.002L162.505 169.926L162.888 169.767L163.046 169.385L162.122 169.002ZM165.972 159.709L166.895 160.092L167.054 159.709L166.895 159.326L165.972 159.709ZM213.418 203.811H214.418V203.234L213.918 202.945L213.418 203.811ZM206.589 199.868L207.089 199.002L206.589 198.714L206.089 199.002L206.589 199.868ZM213.418 211.696L213.918 212.562L214.418 212.274V211.696H213.418ZM206.589 215.639L206.089 216.505L206.589 216.794L207.089 216.505L206.589 215.639ZM199.76 211.696H198.76V212.274L199.26 212.562L199.76 211.696ZM199.76 203.811L199.26 202.945L198.76 203.234V203.811H199.76ZM99.8651 199.868L100.365 199.002L99.8651 198.714L99.3651 199.002L99.8651 199.868ZM106.694 203.811H107.694V203.234L107.194 202.945L106.694 203.811ZM93.0362 203.811L92.5362 202.945L92.0362 203.234V203.811H93.0362ZM93.0362 211.696H92.0362V212.274L92.5362 212.563L93.0362 211.696ZM99.8651 215.639L99.3651 216.505L99.8651 216.794L100.365 216.505L99.8651 215.639ZM106.694 211.696L107.194 212.563L107.694 212.274V211.696H106.694ZM152.446 139.924L167.09 145.989L167.855 144.142L153.211 138.076L152.446 139.924ZM138.568 145.989L153.211 139.924L152.446 138.076L137.802 144.142L138.568 145.989ZM133.044 160.092L139.109 145.448L137.261 144.683L131.196 159.326L133.044 160.092ZM139.109 173.97L133.044 159.326L131.196 160.092L137.261 174.735L139.109 173.97ZM149.069 177.779L138.568 173.429L137.802 175.276L148.304 179.626L149.069 177.779ZM149.687 204V178.702H147.687V204H149.687ZM110.626 205H148.687V203H110.626V205ZM109.626 201.541V204H111.626V201.541H109.626ZM99.3652 196.195L110.126 202.407L111.126 200.675L100.365 194.463L99.3652 196.195ZM89.6045 202.407L100.365 196.195L99.3652 194.463L88.6045 200.675L89.6045 202.407ZM90.1045 213.967V201.541H88.1045V213.967H90.1045ZM100.365 219.313L89.6045 213.101L88.6045 214.833L99.3652 221.046L100.365 219.313ZM110.126 213.101L99.3652 219.313L100.365 221.046L111.126 214.833L110.126 213.101ZM109.626 212V213.967H111.626V212H109.626ZM148.687 211H110.626V213H148.687V211ZM149.687 356.031V212H147.687V356.031H149.687ZM157.799 355.031H148.687V357.031H157.799V355.031ZM156.799 212V356.031H158.799V212H156.799ZM195.828 211H157.799V213H195.828V211ZM194.828 212V213.967H196.828V212H194.828ZM195.328 214.833L206.089 221.045L207.089 219.313L196.328 213.101L195.328 214.833ZM207.089 221.045L217.85 214.833L216.85 213.101L206.089 219.313L207.089 221.045ZM218.35 213.967V201.541H216.35V213.967H218.35ZM217.85 200.675L207.089 194.462L206.089 196.194L216.85 202.407L217.85 200.675ZM206.089 194.462L195.328 200.675L196.328 202.407L207.089 196.194L206.089 194.462ZM194.828 201.541V204H196.828V201.541H194.828ZM157.799 205H195.828V203H157.799V205ZM156.799 178.36V204H158.799V178.36H156.799ZM167.09 173.429L157.416 177.436L158.181 179.283L167.855 175.276L167.09 173.429ZM172.614 159.326L166.548 173.97L168.396 174.735L174.462 160.092L172.614 159.326ZM166.548 145.448L172.614 160.092L174.462 159.326L168.396 144.683L166.548 145.448ZM152.447 147.491L161.74 151.34L162.505 149.492L153.212 145.643L152.447 147.491ZM143.919 151.34L153.212 147.491L152.447 145.643L143.154 149.492L143.919 151.34ZM140.611 160.092L144.46 150.799L142.612 150.033L138.763 159.326L140.611 160.092ZM144.46 168.619L140.611 159.326L138.763 160.092L142.612 169.385L144.46 168.619ZM153.212 171.927L143.919 168.078L143.154 169.926L152.447 173.775L153.212 171.927ZM161.74 168.078L152.447 171.927L153.212 173.775L162.505 169.926L161.74 168.078ZM165.048 159.326L161.198 168.619L163.046 169.385L166.895 160.092L165.048 159.326ZM161.198 150.799L165.048 160.092L166.895 159.326L163.046 150.033L161.198 150.799ZM213.918 202.945L207.089 199.002L206.089 200.734L212.918 204.677L213.918 202.945ZM214.418 211.696V203.811H212.418V211.696H214.418ZM207.089 216.505L213.918 212.562L212.918 210.83L206.089 214.773L207.089 216.505ZM199.26 212.562L206.089 216.505L207.089 214.773L200.26 210.83L199.26 212.562ZM198.76 203.811V211.696H200.76V203.811H198.76ZM206.089 199.002L199.26 202.945L200.26 204.677L207.089 200.734L206.089 199.002ZM99.3651 200.734L106.194 204.677L107.194 202.945L100.365 199.002L99.3651 200.734ZM93.5362 204.677L100.365 200.734L99.3651 199.002L92.5362 202.945L93.5362 204.677ZM94.0362 211.696V203.811H92.0362V211.696H94.0362ZM100.365 214.773L93.5362 210.83L92.5362 212.563L99.3651 216.505L100.365 214.773ZM106.194 210.83L99.3651 214.773L100.365 216.505L107.194 212.563L106.194 210.83ZM105.694 203.811V211.696H107.694V203.811H105.694Z" fill="white" mask="url(#path-26-outside-1)"/>
<path d="M136.676 346.676H139.575H168.154H171.467V364.982L154.072 374.37L136.676 364.982V346.676Z" fill="url(#paint19_linear)" stroke="white" stroke-width="0.828363"/>
</g>
<path d="M150.157 135.903L150.157 138.732C150.228 140.358 151.076 141.772 152.42 142.409C152.42 140.004 152.349 139.934 152.42 139.722C152.278 139.439 152.137 139.015 152.207 138.661L152.207 135.833C152.207 135.408 152.278 135.055 152.49 134.701C152.42 134.489 152.49 134.418 152.49 132.014C151.076 132.863 150.157 134.348 150.157 135.903Z" fill="#33C7CA"/>
<path d="M150.157 120.506L150.157 123.335C150.228 124.961 151.076 126.375 152.42 127.012C152.42 124.607 152.349 124.537 152.42 124.325C152.278 124.042 152.137 123.618 152.207 123.264L152.207 120.436C152.207 120.011 152.278 119.658 152.49 119.304C152.42 119.092 152.49 119.021 152.49 116.617C151.076 117.466 150.157 118.951 150.157 120.506Z" fill="#33C7CA"/>
<path d="M150.157 105.109L150.157 107.938C150.228 109.564 151.076 110.978 152.42 111.615C152.42 109.211 152.349 109.14 152.42 108.928C152.278 108.645 152.137 108.221 152.207 107.867L152.207 105.039C152.207 104.614 152.278 104.261 152.49 103.907C152.42 103.695 152.49 103.624 152.49 101.22C151.076 102.069 150.157 103.554 150.157 105.109Z" fill="#33C7CA"/>
<path d="M150.157 89.7124L150.157 92.5409C150.228 94.1672 151.076 95.5814 152.42 96.2178C152.42 93.8137 152.349 93.743 152.42 93.5308C152.278 93.248 152.137 92.8237 152.207 92.4702L152.207 89.6417C152.207 89.2175 152.278 88.8639 152.49 88.5104C152.42 88.2982 152.49 88.2275 152.49 85.8234C151.076 86.6719 150.157 88.1568 150.157 89.7124Z" fill="#33C7CA"/>
<path d="M150.157 74.3156L150.157 77.144C150.228 78.7704 151.076 80.1846 152.42 80.821C152.42 78.4168 152.349 78.3461 152.42 78.134C152.278 77.8511 152.137 77.4269 152.207 77.0733L152.207 74.2449C152.207 73.8206 152.278 73.4671 152.49 73.1135C152.42 72.9014 152.49 72.8307 152.49 70.4265C151.076 71.275 150.157 72.76 150.157 74.3156Z" fill="#33C7CA"/>
<path d="M150.157 58.9186L150.157 61.747C150.228 63.3734 151.076 64.7876 152.42 65.424C152.42 63.0198 152.349 62.9491 152.42 62.737C152.278 62.4542 152.137 62.0299 152.207 61.6763L152.207 58.8479C152.207 58.4236 152.278 58.0701 152.49 57.7165C152.42 57.5044 152.49 57.4337 152.49 55.0295C151.076 55.8781 150.157 57.363 150.157 58.9186Z" fill="#33C7CA"/>
<path d="M150.157 43.5218L150.157 46.3502C150.228 47.9765 151.076 49.3908 152.42 50.0272C152.42 47.623 152.349 47.5523 152.42 47.3401C152.278 47.0573 152.137 46.633 152.207 46.2795L152.207 43.4511C152.207 43.0268 152.278 42.6732 152.49 42.3197C152.42 42.1076 152.49 42.0368 152.49 39.6327C151.076 40.4812 150.157 41.9661 150.157 43.5218Z" fill="#33C7CA"/>
<path d="M150.157 28.1248L150.157 30.9532C150.228 32.5796 151.076 33.9938 152.42 34.6302C152.42 32.226 152.349 32.1553 152.42 31.9432C152.278 31.6603 152.137 31.2361 152.207 30.8825L152.207 28.0541C152.207 27.6298 152.278 27.2763 152.49 26.9227C152.42 26.7106 152.49 26.6399 152.49 24.2357C151.076 25.0842 150.157 26.5692 150.157 28.1248Z" fill="#33C7CA"/>
<path d="M150.157 12.7279L150.157 15.5564C150.228 17.1827 151.076 18.5969 152.42 19.2333C152.42 16.8292 152.349 16.7585 152.42 16.5463C152.278 16.2635 152.137 15.8392 152.207 15.4857L152.207 12.6572C152.207 12.233 152.278 11.8794 152.49 11.5259C152.42 11.3137 152.49 11.243 152.49 8.83886C151.076 9.68739 150.157 11.1723 150.157 12.7279Z" fill="#33C7CA"/>
<path d="M154.4 135.479C154.965 135.479 155.39 135.055 155.39 134.489L155.39 124.59C155.39 124.024 154.965 123.6 154.4 123.6C153.834 123.6 153.41 124.024 153.41 124.59V134.489C153.41 135.055 153.834 135.479 154.4 135.479Z" fill="#33C7CA"/>
<path d="M154.4 120.082C154.965 120.082 155.39 119.658 155.39 119.092L155.39 109.193C155.39 108.627 154.965 108.203 154.4 108.203C153.834 108.203 153.41 108.627 153.41 109.193V119.092C153.41 119.658 153.834 120.082 154.4 120.082Z" fill="#33C7CA"/>
<path d="M154.4 104.685C154.965 104.685 155.39 104.261 155.39 103.695L155.39 93.7957C155.39 93.23 154.965 92.8058 154.4 92.8058C153.834 92.8058 153.41 93.2301 153.41 93.7957V103.695C153.41 104.261 153.834 104.685 154.4 104.685Z" fill="#33C7CA"/>
<path d="M154.4 89.2882C154.965 89.2882 155.39 88.8639 155.39 88.2983L155.39 78.3988C155.39 77.8331 154.965 77.4088 154.4 77.4088C153.834 77.4088 153.41 77.8331 153.41 78.3988V88.2983C153.41 88.8639 153.834 89.2882 154.4 89.2882Z" fill="#33C7CA"/>
<path d="M154.4 73.8914C154.965 73.8914 155.39 73.4671 155.39 72.9014L155.39 63.0019C155.39 62.4362 154.965 62.012 154.4 62.012C153.834 62.012 153.41 62.4362 153.41 63.0019V72.9014C153.41 73.4671 153.834 73.8914 154.4 73.8914Z" fill="#33C7CA"/>
<path d="M154.4 58.4944C154.965 58.4944 155.39 58.0701 155.39 57.5044L155.39 47.6049C155.39 47.0393 154.965 46.615 154.4 46.615C153.834 46.615 153.41 47.0393 153.41 47.6049V57.5044C153.41 58.0701 153.834 58.4944 154.4 58.4944Z" fill="#33C7CA"/>
<path d="M154.4 43.0975C154.965 43.0975 155.39 42.6733 155.39 42.1076L155.39 32.2081C155.39 31.6424 154.965 31.2181 154.4 31.2181C153.834 31.2181 153.41 31.6424 153.41 32.2081V42.1076C153.41 42.6733 153.834 43.0975 154.4 43.0975Z" fill="#33C7CA"/>
<path d="M154.4 27.7006C154.965 27.7006 155.39 27.2763 155.39 26.7106L155.39 16.8111C155.39 16.2454 154.965 15.8212 154.4 15.8212C153.834 15.8212 153.41 16.2454 153.41 16.8111V26.7106C153.41 27.2763 153.834 27.7006 154.4 27.7006Z" fill="#33C7CA"/>
<path d="M154.4 12.3037C154.965 12.3037 155.39 11.8794 155.39 11.3138L155.39 1.41426C155.39 0.84858 154.965 0.424316 154.4 0.424316C153.834 0.424315 153.41 0.848581 153.41 1.41427V11.3138C153.41 11.8794 153.834 12.3037 154.4 12.3037Z" fill="#33C7CA"/>
<path d="M154.4 150.894C154.965 150.894 155.39 150.47 155.39 149.904L155.39 140.146C155.39 139.58 154.965 139.156 154.4 139.156C153.834 139.156 153.41 139.58 153.41 140.146L153.41 149.904C153.41 150.47 153.834 150.894 154.4 150.894Z" fill="#33C7CA"/>
<path d="M158.642 138.732V135.903C158.572 134.277 157.723 132.863 156.45 132.156C156.45 134.56 156.521 134.63 156.45 134.843C156.592 135.125 156.733 135.55 156.662 135.903V138.732C156.662 139.156 156.592 139.51 156.38 139.863C156.45 140.075 156.38 140.146 156.38 142.55C157.723 141.772 158.642 140.429 158.642 138.732Z" fill="#33C7CA"/>
<path d="M158.642 123.335V120.506C158.572 118.88 157.723 117.466 156.45 116.759C156.45 119.163 156.521 119.233 156.45 119.446C156.592 119.728 156.733 120.153 156.662 120.506V123.335C156.662 123.759 156.592 124.113 156.38 124.466C156.45 124.678 156.38 124.749 156.38 127.153C157.723 126.375 158.642 125.032 158.642 123.335Z" fill="#33C7CA"/>
<path d="M158.642 107.938V105.109C158.572 103.483 157.723 102.069 156.45 101.362C156.45 103.766 156.521 103.837 156.45 104.049C156.592 104.332 156.733 104.756 156.662 105.109V107.938C156.662 108.362 156.592 108.716 156.38 109.069C156.45 109.281 156.38 109.352 156.38 111.756C157.723 110.978 158.642 109.635 158.642 107.938Z" fill="#33C7CA"/>
<path d="M158.642 92.5409V89.7125C158.572 88.0861 157.723 86.6719 156.45 85.9648C156.45 88.369 156.521 88.4397 156.45 88.6518C156.592 88.9346 156.733 89.3589 156.662 89.7125V92.5409C156.662 92.9652 156.592 93.3187 156.38 93.6723C156.45 93.8844 156.38 93.9551 156.38 96.3593C157.723 95.5814 158.642 94.2379 158.642 92.5409Z" fill="#33C7CA"/>
<path d="M158.642 77.144V74.3156C158.572 72.6893 157.723 71.2751 156.45 70.5679C156.45 72.9721 156.521 73.0428 156.45 73.255C156.592 73.5378 156.733 73.9621 156.662 74.3156V77.144C156.662 77.5683 156.592 77.9219 156.38 78.2754C156.45 78.4875 156.38 78.5583 156.38 80.9624C157.723 80.1846 158.642 78.8411 158.642 77.144Z" fill="#33C7CA"/>
<path d="M158.642 61.7471V58.9186C158.572 57.2923 157.723 55.8781 156.45 55.171C156.45 57.5751 156.521 57.6458 156.45 57.858C156.592 58.1408 156.733 58.5651 156.662 58.9186V61.7471C156.662 62.1713 156.592 62.5249 156.38 62.8784C156.45 63.0906 156.38 63.1613 156.38 65.5654C157.723 64.7876 158.642 63.4441 158.642 61.7471Z" fill="#33C7CA"/>
<path d="M158.642 46.3502V43.5218C158.572 41.8954 157.723 40.4812 156.45 39.7741C156.45 42.1783 156.521 42.249 156.45 42.4611C156.592 42.744 156.733 43.1682 156.662 43.5218V46.3502C156.662 46.7745 156.592 47.128 156.38 47.4816C156.45 47.6937 156.38 47.7644 156.38 50.1686C157.723 49.3908 158.642 48.0473 158.642 46.3502Z" fill="#33C7CA"/>
<path d="M158.642 30.9532V28.1248C158.572 26.4985 157.723 25.0843 156.45 24.3772C156.45 26.7813 156.521 26.852 156.45 27.0642C156.592 27.347 156.733 27.7713 156.662 28.1248V30.9532C156.662 31.3775 156.592 31.7311 156.38 32.0846C156.45 32.2967 156.38 32.3675 156.38 34.7716C157.723 33.9938 158.642 32.6503 158.642 30.9532Z" fill="#33C7CA"/>
<path d="M158.642 15.5564V12.728C158.572 11.1016 157.723 9.68741 156.45 8.9803C156.45 11.3845 156.521 11.4552 156.45 11.6673C156.592 11.9501 156.733 12.3744 156.662 12.728V15.5564C156.662 15.9807 156.592 16.3342 156.38 16.6878C156.45 16.8999 156.38 16.9706 156.38 19.3748C157.723 18.597 158.642 17.2534 158.642 15.5564Z" fill="#33C7CA"/>
<defs>
<filter id="filter0_d" x="43.9414" y="137.918" width="220.117" height="240.923" filterUnits="userSpaceOnUse" color-interpolation-filters="sRGB">
<feFlood flood-opacity="0" result="BackgroundImageFix"/>
<feColorMatrix in="SourceAlpha" type="matrix" values="0 0 0 0 0 0 0 0 0 0 0 0 0 0 0 0 0 0 127 0" result="hardAlpha"/>
<feOffset dy="3"/>
<feGaussianBlur stdDeviation="0.5"/>
<feComposite in2="hardAlpha" operator="out"/>
<feColorMatrix type="matrix" values="0 0 0 0 0.684126 0 0 0 0 0.682951 0 0 0 0 0.741667 0 0 0 0.48 0"/>
<feBlend mode="normal" in2="BackgroundImageFix" result="effect1_dropShadow"/>
<feBlend mode="normal" in="SourceGraphic" in2="effect1_dropShadow" result="shape"/>
</filter>
<linearGradient id="paint0_linear" x1="488.063" y1="424.871" x2="344.23" y2="170.274" gradientUnits="userSpaceOnUse">
<stop stop-color="#49E0E6"/>
<stop offset="0.385417" stop-color="#21B3B4"/>
<stop offset="1" stop-color="#21B3B4"/>
</linearGradient>
<linearGradient id="paint1_linear" x1="452.538" y1="418.966" x2="308.705" y2="164.37" gradientUnits="userSpaceOnUse">
<stop stop-color="#49E0E6"/>
<stop offset="0.385417" stop-color="#21B3B4"/>
<stop offset="1" stop-color="#21B3B4"/>
</linearGradient>
<linearGradient id="paint2_linear" x1="417.028" y1="412.961" x2="273.195" y2="158.365" gradientUnits="userSpaceOnUse">
<stop stop-color="#49E0E6"/>
<stop offset="0.385417" stop-color="#21B3B4"/>
<stop offset="1" stop-color="#21B3B4"/>
</linearGradient>
<linearGradient id="paint3_linear" x1="381.475" y1="407.226" x2="237.642" y2="152.63" gradientUnits="userSpaceOnUse">
<stop stop-color="#49E0E6"/>
<stop offset="0.385417" stop-color="#21B3B4"/>
<stop offset="1" stop-color="#21B3B4"/>
</linearGradient>
<linearGradient id="paint4_linear" x1="345.838" y1="402.028" x2="202.005" y2="147.432" gradientUnits="userSpaceOnUse">
<stop stop-color="#49E0E6"/>
<stop offset="0.385417" stop-color="#21B3B4"/>
<stop offset="1" stop-color="#21B3B4"/>
</linearGradient>
<linearGradient id="paint5_linear" x1="310.103" y1="397.559" x2="166.27" y2="142.963" gradientUnits="userSpaceOnUse">
<stop stop-color="#49E0E6"/>
<stop offset="0.385417" stop-color="#21B3B4"/>
<stop offset="1" stop-color="#21B3B4"/>
</linearGradient>
<linearGradient id="paint6_linear" x1="274.272" y1="393.95" x2="130.439" y2="139.353" gradientUnits="userSpaceOnUse">
<stop stop-color="#49E0E6"/>
<stop offset="0.385417" stop-color="#21B3B4"/>
<stop offset="1" stop-color="#21B3B4"/>
</linearGradient>
<linearGradient id="paint7_linear" x1="238.135" y1="391.248" x2="94.3018" y2="136.652" gradientUnits="userSpaceOnUse">
<stop stop-color="#49E0E6"/>
<stop offset="0.385417" stop-color="#21B3B4"/>
<stop offset="1" stop-color="#21B3B4"/>
</linearGradient>
<linearGradient id="paint8_linear" x1="202.182" y1="389.169" x2="58.3491" y2="134.573" gradientUnits="userSpaceOnUse">
<stop stop-color="#49E0E6"/>
<stop offset="0.385417" stop-color="#21B3B4"/>
<stop offset="1" stop-color="#21B3B4"/>
</linearGradient>
<linearGradient id="paint9_linear" x1="166.203" y1="387.609" x2="22.3696" y2="133.013" gradientUnits="userSpaceOnUse">
<stop stop-color="#49E0E6"/>
<stop offset="0.385417" stop-color="#21B3B4"/>
<stop offset="1" stop-color="#21B3B4"/>
</linearGradient>
<linearGradient id="paint10_linear" x1="130.202" y1="386.64" x2="-13.6313" y2="132.044" gradientUnits="userSpaceOnUse">
<stop stop-color="#49E0E6"/>
<stop offset="0.385417" stop-color="#21B3B4"/>
<stop offset="1" stop-color="#21B3B4"/>
</linearGradient>
<linearGradient id="paint11_linear" x1="94.1899" y1="386.351" x2="-49.6431" y2="131.755" gradientUnits="userSpaceOnUse">
<stop stop-color="#49E0E6"/>
<stop offset="0.385417" stop-color="#21B3B4"/>
<stop offset="1" stop-color="#21B3B4"/>
</linearGradient>
<linearGradient id="paint12_linear" x1="58.1807" y1="386.857" x2="-85.6523" y2="132.261" gradientUnits="userSpaceOnUse">
<stop stop-color="#49E0E6"/>
<stop offset="0.385417" stop-color="#21B3B4"/>
<stop offset="1" stop-color="#21B3B4"/>
</linearGradient>
<linearGradient id="paint13_linear" x1="22.1963" y1="388.306" x2="-121.637" y2="133.71" gradientUnits="userSpaceOnUse">
<stop stop-color="#49E0E6"/>
<stop offset="0.385417" stop-color="#21B3B4"/>
<stop offset="1" stop-color="#21B3B4"/>
</linearGradient>
<linearGradient id="paint14_linear" x1="-13.7236" y1="390.903" x2="-157.557" y2="136.307" gradientUnits="userSpaceOnUse">
<stop stop-color="#49E0E6"/>
<stop offset="0.385417" stop-color="#21B3B4"/>
<stop offset="1" stop-color="#21B3B4"/>
</linearGradient>
<linearGradient id="paint15_linear" x1="-49.5117" y1="394.931" x2="-193.345" y2="140.335" gradientUnits="userSpaceOnUse">
<stop stop-color="#49E0E6"/>
<stop offset="0.385417" stop-color="#21B3B4"/>
<stop offset="1" stop-color="#21B3B4"/>
</linearGradient>
<linearGradient id="paint16_linear" x1="232.332" y1="359.238" x2="182.075" y2="267.831" gradientUnits="userSpaceOnUse">
<stop stop-color="#49E0E6"/>
<stop offset="1" stop-color="#21B3B4"/>
</linearGradient>
<linearGradient id="paint17_linear" x1="75.6685" y1="359.238" x2="125.925" y2="267.831" gradientUnits="userSpaceOnUse">
<stop stop-color="#49E0E6"/>
<stop offset="1" stop-color="#21B3B4"/>
</linearGradient>
<linearGradient id="paint18_linear" x1="192.5" y1="491" x2="99.5324" y2="165.79" gradientUnits="userSpaceOnUse">
<stop stop-color="#49E0E6"/>
<stop offset="1" stop-color="#21B3B4"/>
</linearGradient>
<linearGradient id="paint19_linear" x1="140.818" y1="337.564" x2="151.172" y2="374.426" gradientUnits="userSpaceOnUse">
<stop stop-color="#49E0E6"/>
<stop offset="0.990608" stop-color="#21B3B4"/>
</linearGradient>
</defs>
</svg>
