<svg width="283" height="283" viewBox="0 0 283 283" fill="none" xmlns="http://www.w3.org/2000/svg">
<mask id="mask0" style="mask-type:alpha" maskUnits="userSpaceOnUse" x="0" y="0" width="283" height="283">
<circle cx="141.5" cy="141.5" r="141.5" fill="#C4C4C4"/>
</mask>
<g mask="url(#mask0)">
<path opacity="0.4" d="M388.129 -57.2974H-120.076V2.49137C-88.1884 -3.4875 -79.22 -7.47342 -31.3891 -3.4875C28.3997 1.49489 54.3082 37.3681 186.84 38.3646C292.865 39.1618 365.21 7.47376 388.129 -8.4699V-57.2974Z" fill="url(#paint0_linear)"/>
<path opacity="0.4" d="M388.128 -8.96851V82.2093C358.026 104.384 257.589 126.553 157.692 105.399C104.679 93.363 45.8376 99.6477 -25.9089 73.7293C-97.6554 47.811 -120.076 61.2833 -120.076 61.2833V1.99276C-88.1888 -3.98611 -79.2205 -7.97203 -31.3896 -3.98611C28.3992 0.996283 54.3077 36.8695 186.839 37.866C292.865 38.6632 365.209 6.97516 388.128 -8.96851Z" fill="url(#paint1_linear)"/>
<path opacity="0.4" d="M388.128 155.949V82.2094C358.026 104.384 257.589 126.553 157.692 105.399C104.679 93.3631 45.8376 99.6478 -25.9089 73.7294C-97.6554 47.811 -120.076 61.2833 -120.076 61.2833V207.018C-88.1888 201.039 -79.2205 189.58 -31.3896 193.566C28.3992 198.549 54.3077 157.942 186.839 158.938C292.865 159.735 365.209 171.892 388.128 155.949Z" fill="url(#paint2_linear)"/>
<path d="M186.935 102.975V115.63L305.6 146.443L314.862 148.848L384.641 158.287V111.08L347.195 94.5367L345.003 93.4034L338.296 89.9403L337.146 89.9057L326.401 89.5609L322.242 84.8383L311.537 82.0083L310.629 81.2377L301.316 73.3569L299.935 72.1837L293.096 71.0503L283.875 63.8717L272.279 64.8038L268.851 67.5361L263.956 71.4297L253.251 74.0703L239.572 84.2284L233.918 88.4276L212.509 91.6429L186.935 102.975Z" fill="white"/>
<path d="M186.932 102.975L212.507 91.6401L233.918 88.4294L253.248 74.0721L263.953 71.4282L272.281 64.8029L283.878 63.8729L278.097 68.7829L280.988 71.4282L278.097 73.1275H272.578L271.091 75.2048L282.392 80.6848L279.716 82.3841H271.091H269.009L282.392 90.5061L273.47 94.6627L280.013 99.3854L273.767 101.085L275.552 104.297L283.878 110.153L281.501 116.252L186.932 115.631V102.975Z" fill="#2DE1E8"/>
<path d="M109.996 123.475L87.0665 115.357L58.706 119.111L10.5448 110.153L2.76766 86.441L-24.884 91.4201L-40.3932 86.441L-113.599 97.3983V351.093H109.996V123.475Z" fill="white"/>
<path d="M18.9896 95.7961L23.7826 97.5858L29.4107 94.7086L39.7296 95.7961L43.9514 97.5858V99.1363L49.814 96.9221L60.8363 104.115L54.035 121.876L37.9924 131.352L-0.138184 117.914L6.66245 106.314L18.9896 95.7961Z" fill="white"/>
<path d="M17.8211 123.08C4.36196 121.552 -9.422 120.83 -23.2432 120.499L-20.6975 116.765L-4.51136 110.199L0.539465 102.806L7.2936 100.24L18.9889 95.7948L18.9883 95.7975L15.0754 107.323L13.3847 109.203L11.8356 110.263L9.98277 114.201L12.9742 110.762L15.0754 110.341L16.6585 108.323L24.5779 113.317L17.8211 123.08Z" fill="#2DE1E8"/>
<path d="M10.5449 133.592L99.5418 129.079L154.084 99.5143L118.173 70.1036H109.671V73.5268L103.16 77.1049L102.258 80.376L100.451 79.4406L95.3831 80.376L93.9336 82.0879V79.9056L90.5456 79.4406L83.2633 83.4883L81.6357 86.2831L59.2083 96.8677L50.1603 99.2028L47.2672 102.469L39.852 103.715L27.7329 113.206H24.6551L10.5449 133.592Z" fill="white"/>
<path d="M384.642 140.895L257.949 106.507L251.423 98.1051L247.601 96.7041V94.4866L245.053 92.5036H241.869L228.494 84.2176L214.642 79.4331L213.845 76.1653L209.865 74.1817V68.3449L206.202 67.5292V63.3274H204.292L202.701 58.5429L203.497 55.6252L195.853 53.9917V50.8408L190.6 48.9734V43.0218L179.772 33.5685L168.786 35.7867L156.208 45.0055L146.655 48.7403L137.419 60.6435L138.534 63.6781L133.916 68.8127L134.714 82.2339L128.345 89.0027L126.91 92.5036L116.244 100.323L108.123 112.576L64.1782 129.614L9.24759 138.366L-25.0359 157.392L-52.2104 170.15V351.093H384.402L384.642 140.895Z" fill="white"/>
<path d="M181.608 126.581C170.762 125.889 165.912 125.862 149.532 125.862C139.24 125.862 134.419 125.862 124.321 125.862C114.827 125.862 114.739 124.252 112.27 124.347C97.5354 124.911 83.3608 126.053 69.3164 127.623L108.123 112.576L116.244 100.323L126.911 92.5039L128.345 89.003L134.714 82.2342L134.116 72.1605L133.971 69.7297L133.917 68.813L138.534 63.6784L137.42 60.6439L146.655 48.7406L156.208 45.0058L168.786 35.787L179.773 33.5689L171.016 41.3879V44.1893L168.15 49.0907H165.284L162.417 51.6583V55.6256L167.832 53.7582L168.786 59.828H171.095V71.0305L172.927 72.8972L171.095 76.6313L166.876 78.7326L162.417 84.8005L157.005 92.0369L165.284 86.9017L163.692 92.0369L171.334 86.2029L171.971 80.1336L176.11 82.2342L176.748 85.7352L179.773 88.5353V92.0369L182.161 90.1695L185.028 93.4366V100.673L180.887 106.507L188.531 105.108L184.853 123.344L181.114 116.253L181.608 124.347" fill="#2DE1E8"/>
<path d="M83.2431 91.7L79.5641 92.7549L76.5853 97.1248H74.3087C74.3087 97.1248 69.0539 100.59 69.0539 101.042C69.0539 101.493 57.3174 111.289 57.3174 111.289L59.2067 105.412H57.3174L59.2067 101.194L57.3174 101.847V99.234L53.4637 103.454L51.3617 104.056L49.9607 107.07L48.5597 106.918L42.2526 114.452V111.59L38.2242 114.452L36.8225 113.247L32.2686 115.357L32.9707 109.102L32.9714 109.101L39.8504 103.714L47.2669 102.469L50.1613 99.2015L59.2067 96.8677L81.6355 86.2858L83.2637 83.4857L90.546 79.4406V83.7149L83.2431 91.7Z" fill="#2DE1E8"/>
<path d="M68.1587 112.443L80.1629 107.198L89.3093 99.9148L90.5456 100.786L91.6789 98.1637L94.2213 97.3964L93.8818 100.351L89.3093 108.075L100.997 101.845L108.786 93.3587L110.65 85.4918L115.395 80.5393V77.3326L118.173 70.1035H109.671V73.5274L103.16 77.1048L102.258 80.3759L100.491 86.946L95.2397 88.6978L91.6789 94.7099L87.1057 95.541L68.1587 112.443Z" fill="#2DE1E8"/>
<path d="M-67.2899 120.325C-70.3118 120.325 -73.3264 120.3 -76.3335 120.227L-72.0899 115.359L-44.4393 104.493L-27.5796 97.4012L-24.8824 91.4203L-24.8818 91.419L-20.6388 90.655L-15.2405 89.6838L2.76854 86.4432L-21.511 103.556L-28.7182 104.648L-30.0302 107.369L-35.4889 108.422L-37.0302 105.661L-39.0444 109.101L-47.8889 120.236C-48.5128 120.236 -49.1345 120.235 -49.7579 120.235C-55.6337 120.235 -61.4759 120.325 -67.2899 120.325Z" fill="#2DE1E8"/>
<g filter="url(#filter0_d)">
<path d="M127.963 125.677L84.0317 267.911H75.8548V254.793L125.635 125.677H127.963ZM63.2347 212.068L50.6323 231.733V245.733H69.5226L83.7479 212.068H63.2347ZM97.654 179.753H85.5349L79.4422 188.378V194.534H90.8207L97.654 179.753ZM105.405 157.491H98.9532L95.7472 162.063V165.331H101.796L105.405 157.491ZM111.378 142.022H106.607L104.266 145.4V147.805H108.735L111.378 142.022ZM116.039 131.275H113.817L112.655 132.868V134.022H114.779L116.039 131.275ZM150.64 125.677L194.549 267.911H202.765V254.793L152.981 125.677H150.64ZM215.346 212.068H194.872L209.058 245.733H228.006V231.733L215.346 212.068ZM187.822 194.534H199.218V188.378L193.13 179.753H180.971L187.822 194.534ZM176.86 165.335H182.869V162.068L179.64 157.496H173.211L176.86 165.335ZM174.381 147.805V145.4L171.978 142.022H167.251L169.934 147.805H174.381ZM165.965 134.018V132.864L164.821 131.27H162.577L163.836 134.018H165.965ZM138.162 179.753H117.928L114.824 194.534H138.166H140.507H163.788L160.701 179.753H140.507H138.162ZM140.503 157.491H138.162H123.799L121.892 165.335H138.162H140.503H156.688L154.844 157.491H140.503ZM140.964 142.022H137.661H127.164L125.639 147.805H137.661H140.964H152.986L151.46 142.022H140.964ZM140.964 134.018H147.438L146.977 131.27H140.969H137.665H131.656L131.235 134.018H137.665H140.964ZM140.503 212.068H138.162H108.092L98.4743 245.933H138.162H140.503H180.146L170.488 212.068H140.503Z" fill="url(#paint3_linear)"/>
</g>
</g>
<defs>
<filter id="filter0_d" x="49.1986" y="125.677" width="180.241" height="147.968" filterUnits="userSpaceOnUse" color-interpolation-filters="sRGB">
<feFlood flood-opacity="0" result="BackgroundImageFix"/>
<feColorMatrix in="SourceAlpha" type="matrix" values="0 0 0 0 0 0 0 0 0 0 0 0 0 0 0 0 0 0 127 0" result="hardAlpha"/>
<feOffset dy="4.30122"/>
<feGaussianBlur stdDeviation="0.716871"/>
<feComposite in2="hardAlpha" operator="out"/>
<feColorMatrix type="matrix" values="0 0 0 0 0.684126 0 0 0 0 0.682951 0 0 0 0 0.741667 0 0 0 0.48 0"/>
<feBlend mode="normal" in2="BackgroundImageFix" result="effect1_dropShadow"/>
<feBlend mode="normal" in="SourceGraphic" in2="effect1_dropShadow" result="shape"/>
</filter>
<linearGradient id="paint0_linear" x1="405.567" y1="-22.4206" x2="-23.6158" y2="-68.967" gradientUnits="userSpaceOnUse">
<stop offset="0.175624" stop-color="#2DE1E8"/>
<stop offset="0.989583" stop-color="#CBF2F3"/>
</linearGradient>
<linearGradient id="paint1_linear" x1="-137.515" y1="52.3149" x2="426.169" y2="111.92" gradientUnits="userSpaceOnUse">
<stop offset="0.28125" stop-color="#49C7D7"/>
<stop offset="0.546875" stop-color="#C3F1F2"/>
<stop offset="1" stop-color="#26CBCF"/>
</linearGradient>
<linearGradient id="paint2_linear" x1="712.661" y1="126.974" x2="-147.246" y2="48.8586" gradientUnits="userSpaceOnUse">
<stop stop-color="#BFC9F5" stop-opacity="0.5"/>
<stop offset="0.0001" stop-color="#8EA1F5" stop-opacity="0.5"/>
<stop offset="1" stop-color="#26CBCF"/>
</linearGradient>
<linearGradient id="paint3_linear" x1="94.9358" y1="85.8945" x2="-3.26045" y2="298.419" gradientUnits="userSpaceOnUse">
<stop stop-color="#49E0E6"/>
<stop offset="1" stop-color="#21B3B4"/>
</linearGradient>
</defs>
</svg>
