<svg width="19" height="24" viewBox="0 0 19 24" fill="none" xmlns="http://www.w3.org/2000/svg">
<path d="M12.764 4.01667H14.4167C14.5449 4.01667 14.6678 4.06759 14.7584 4.15823C14.8491 4.24887 14.9 4.37181 14.9 4.5V13.25V13.35H15H16.1667H16.2667V13.25V4.5C16.2667 4.00935 16.0718 3.53879 15.7248 3.19185C15.3779 2.84491 14.9073 2.65 14.4167 2.65H12.764C12.7394 2.19579 12.5481 1.76515 12.2248 1.44185C11.8779 1.09491 11.4073 0.9 10.9167 0.9H6.25C5.75935 0.9 5.28879 1.09491 4.94185 1.44185C4.61855 1.76515 4.42727 2.19579 4.4027 2.65H2.75C2.25935 2.65 1.78879 2.84491 1.44185 3.19185C1.09491 3.53879 0.9 4.00935 0.9 4.5V20.8333C0.9 21.324 1.09491 21.7945 1.44185 22.1415C1.78879 22.4884 2.25935 22.6833 2.75 22.6833H9.75H9.85V22.5833V21.4167V21.3167H9.75H2.75C2.62181 21.3167 2.49887 21.2657 2.40823 21.1751C2.31759 21.0845 2.26667 20.9615 2.26667 20.8333V4.5C2.26667 4.37181 2.31759 4.24887 2.40823 4.15823C2.49887 4.06759 2.62181 4.01667 2.75 4.01667H4.4027C4.42727 4.47088 4.61855 4.90152 4.94185 5.22481C5.28879 5.57176 5.75935 5.76667 6.25 5.76667H10.9167C11.4073 5.76667 11.8779 5.57176 12.2248 5.22481C12.5481 4.90152 12.7394 4.47088 12.764 4.01667ZM8 7.9H7.9V8V9.65H6.25H6.15V9.75V10.9167V11.0167H6.25H7.9V12.6667V12.7667H8H9.16667H9.26667V12.6667V11.0167H10.9167H11.0167V10.9167V9.75V9.65H10.9167H9.26667V8V7.9H9.16667H8ZM11.6 15.6833H17.2333V18.9608C17.2333 19.4245 17.1187 19.881 16.8999 20.2899C16.681 20.6987 16.3646 21.0471 15.9788 21.3043L15.9788 21.3043L14.4167 22.3464L12.8546 21.3037L12.8545 21.3037C12.4687 21.0465 12.1523 20.6981 11.9334 20.2893C11.7146 19.8805 11.6001 19.4239 11.6 18.9603V15.6833ZM14.3165 20.1498L14.3165 20.1498L16.6498 17.8165L16.7205 17.7458L16.6498 17.675L15.825 16.8502L15.7542 16.7795L15.6835 16.8502L13.8333 18.7004L13.1498 18.0169L13.0791 17.9462L13.0084 18.0169L12.1835 18.8417L12.1128 18.9124L12.1835 18.9831L13.3502 20.1498L13.3502 20.1498C13.4784 20.2779 13.6521 20.3499 13.8333 20.3499C14.0145 20.3499 14.1883 20.2779 14.3165 20.1498ZM5.76667 2.75C5.76667 2.62181 5.81759 2.49887 5.90823 2.40823C5.99887 2.31759 6.12181 2.26667 6.25 2.26667H10.9167C11.0449 2.26667 11.1678 2.31759 11.2584 2.40823C11.3491 2.49887 11.4 2.62181 11.4 2.75V3.91667C11.4 4.04485 11.3491 4.16779 11.2584 4.25843C11.1678 4.34908 11.0449 4.4 10.9167 4.4H6.25C6.12181 4.4 5.99887 4.34908 5.90823 4.25843C5.81759 4.16779 5.76667 4.04485 5.76667 3.91667V2.75ZM10.4335 14.5168C10.3053 14.645 10.2333 14.8188 10.2333 15V18.9608C10.2335 19.6494 10.4035 20.3273 10.7285 20.9343C11.0534 21.5414 11.5232 22.0588 12.0961 22.4408L14.0374 23.7358C14.1497 23.8107 14.2817 23.8507 14.4167 23.8507C14.5517 23.8507 14.6836 23.8107 14.7959 23.7358L16.7372 22.4408C17.3102 22.0588 17.78 21.5412 18.105 20.9341C18.4299 20.3269 18.6 19.6489 18.6 18.9603V15C18.6 14.8188 18.528 14.645 18.3999 14.5168C18.2717 14.3887 18.0979 14.3167 17.9167 14.3167H10.9167C10.7354 14.3167 10.5616 14.3887 10.4335 14.5168Z" fill="#004453" stroke="#004453" stroke-width="0.2"/>
</svg>
