<svg width="18" height="18" viewBox="0 0 18 18" fill="none" xmlns="http://www.w3.org/2000/svg">
<path d="M1 9C1 7.7782 3.05418 6.80183 5.35137 6.80183C6.41101 6.80183 7.44326 6.99939 8.25229 7.33686M1 9C1 10.6282 3.44773 11.171 5.35137 11.1982C7.31057 11.2261 9.82555 10.316 9.86157 9M1 9C1 10.1329 1 10.768 1 11.9009M9.86157 9C9.82186 10.4506 9.8344 9.99235 9.817 10.6282M9.86157 9C9.83756 8.31598 9.19715 7.731 8.25229 7.33686M9.78216 11.9009C9.74245 13.3516 7.28289 14.1131 5.35137 14.0991C3.44759 14.0853 1 13.3771 1 11.9009M9.78216 11.9009C9.76474 12.537 9.7451 13.2545 9.73733 13.5384M9.78216 11.9009C9.78216 11.9009 9.80339 11.1252 9.817 10.6282M1 11.9009C1 13.0338 1 14.8018 1 14.8018C1 16.1299 3.46846 17 5.35137 17C7.23429 17 9.73733 16.267 9.73733 14.7909C9.73733 14.7909 9.71825 14.2354 9.73733 13.5384M8.25229 3.19817C8.25229 1.77339 10.6998 1 12.6037 1C14.5075 1 16.955 1.77339 16.955 3.19817M8.25229 3.19817C8.25229 4.6743 10.6998 5.39634 12.6037 5.39634C14.5075 5.39634 16.955 4.76689 16.955 3.19817M8.25229 3.19817C8.25229 4.19082 8.25229 4.96621 8.25229 6.09908M16.955 3.19817C16.955 4.33105 16.955 4.96621 16.955 6.09908M9.73733 13.5384C10.428 13.835 11.2344 14.0991 12.6037 14.0991C14.5075 14.0991 16.955 13.5384 16.955 11.9009C16.955 11.9009 16.955 10.1329 16.955 9M16.955 9C16.955 10.6282 14.2767 11.1982 12.6037 11.1982C10.9306 11.1982 10.1862 10.9339 9.817 10.6282M16.955 9C16.955 7.86712 16.955 7.23196 16.955 6.09908M16.955 6.09908C16.955 7.57522 14.5075 8.29725 12.6037 8.29725C10.6998 8.29725 8.25229 7.57522 8.25229 6.09908M8.25229 6.09908V7.33686" stroke="#E6EAEB" stroke-width="1.06367"/>
</svg>
