<svg xmlns="http://www.w3.org/2000/svg" fill="none" viewBox="0 0 24.99 28.02">
<path fill-rule="evenodd" clip-rule="evenodd" d="M2.47522 3.86523H18.6601C18.9859 3.86607 19.3085 3.93108 19.6092 4.05656C19.91 4.18204 20.1831 4.36553 20.4129 4.59656C20.6428 4.82759 20.8249 5.10162 20.9488 5.40302C21.0727 5.70441 21.1361 6.02727 21.1353 6.35316V28.0198L18.5367 25.7239L17.076 24.3712L15.5289 22.9334L16.1709 25.1696H2.47522C1.11112 25.1696 8.16252e-06 24.0585 8.16252e-06 22.6816V6.35316C-0.000827651 6.02727 0.0625326 5.70441 0.186471 5.40302C0.31041 5.10162 0.4925 4.82759 0.722345 4.59656C0.952189 4.36553 1.22529 4.18204 1.52605 4.05656C1.8268 3.93108 2.14933 3.86607 2.47522 3.86523ZM13.2011 18.658C13.5622 19.1195 13.9969 19.6382 13.9969 19.6382C16.6214 19.5544 17.6574 17.8613 17.6917 17.8051C17.6923 17.8042 17.6926 17.8037 17.6926 17.8037C17.6926 13.9148 15.9535 10.7633 15.9535 10.7633C14.2156 9.45765 12.5604 9.49452 12.5604 9.49452L12.3913 9.68776C14.4444 10.3158 15.3992 11.2209 15.3992 11.2209C13.5484 10.2014 11.419 9.80347 9.32495 10.0857C9.26539 10.0857 9.21357 10.0943 9.15677 10.1037C9.14445 10.1057 9.13191 10.1078 9.119 10.1098C8.69565 10.1467 7.66972 10.3043 6.37809 10.8713C5.93186 11.076 5.66489 11.2209 5.66489 11.2209C5.66489 11.2209 6.66794 10.2675 8.84185 9.63818L8.72108 9.49325C8.72108 9.49325 7.06713 9.45638 5.328 10.762C5.328 10.762 3.58887 13.9135 3.58887 17.8024C3.58887 17.8024 4.60209 19.553 7.27053 19.6382C7.27053 19.6382 7.71803 19.0928 8.08035 18.6351C6.5459 18.1762 5.96619 17.21 5.96619 17.21C5.96619 17.21 6.08696 17.2939 6.30435 17.4134C6.31799 17.4295 6.33489 17.4425 6.35393 17.4515C6.37059 17.4629 6.38725 17.4711 6.40404 17.4794C6.42312 17.4888 6.44238 17.4984 6.46199 17.5126C6.74567 17.6692 7.04007 17.8056 7.343 17.9207C7.91738 18.1483 8.51145 18.3228 9.11772 18.4419C10.7585 18.7569 12.4557 18.5809 13.9969 17.9359C14.4203 17.7783 14.8907 17.5469 15.3865 17.2214C15.3865 17.2214 14.7826 18.2105 13.2011 18.658ZM7.14844 15.3412C7.14844 14.6039 7.69128 14 8.38032 14C9.06809 14 9.62492 14.6026 9.61093 15.3412C9.61093 16.076 9.06809 16.6824 8.38032 16.6824C7.70399 16.6824 7.14844 16.076 7.14844 15.3412ZM11.5573 15.3412C11.5573 14.6039 12.1001 14 12.7892 14C13.4769 14 14.0185 14.6026 14.0198 15.3412C14.0198 16.076 13.4769 16.6824 12.7892 16.6824C12.1128 16.6824 11.5573 16.076 11.5573 15.3412Z" fill="#1C4E5C" fill-opacity="0.2"/>
<path fill-rule="evenodd" clip-rule="evenodd" d="M6.33459 0H22.5194C22.8453 0.000833675 23.1678 0.0658471 23.4686 0.191328C23.7694 0.316809 24.0425 0.500301 24.2723 0.731326C24.5021 0.962351 24.6842 1.23639 24.8082 1.53778C24.9321 1.83918 24.9955 2.16204 24.9946 2.48792V24.1546L22.3961 21.8586L20.9354 20.506L19.3882 19.0681L20.0302 21.3043H6.33459C4.97049 21.3043 3.85938 20.1932 3.85938 18.8164V2.48792C3.85855 2.16204 3.92191 1.83918 4.04585 1.53778C4.16979 1.23639 4.35187 0.962351 4.58172 0.731326C4.81156 0.500301 5.08466 0.316809 5.38542 0.191328C5.68618 0.0658471 6.00871 0.000833675 6.33459 0ZM17.0605 14.7928C17.4215 15.2542 17.8563 15.7729 17.8563 15.7729C20.4808 15.6892 21.5167 13.996 21.5511 13.9399C21.5517 13.9389 21.552 13.9384 21.552 13.9385C21.552 10.0496 19.8128 6.89804 19.8128 6.89804C18.075 5.59242 16.4198 5.62929 16.4198 5.62929L16.2507 5.82252C18.3038 6.45054 19.2586 7.3557 19.2586 7.3557C17.4078 6.33621 15.2784 5.93823 13.1843 6.22044C13.1248 6.22044 13.0729 6.22903 13.0161 6.23844C13.0038 6.24048 12.9913 6.24256 12.9784 6.24459C12.555 6.28146 11.5291 6.4391 10.2375 7.0061C9.79124 7.21078 9.52427 7.3557 9.52427 7.3557C9.52427 7.3557 10.5273 6.40223 12.7012 5.77294L12.5805 5.62802C12.5805 5.62802 10.9265 5.59115 9.18737 6.89677C9.18737 6.89677 7.44824 10.0483 7.44824 13.9372C7.44824 13.9372 8.46146 15.6878 11.1299 15.7729C11.1299 15.7729 11.5774 15.2276 11.9397 14.7699C10.4053 14.311 9.82556 13.3448 9.82556 13.3448C9.82556 13.3448 9.94634 13.4287 10.1637 13.5482C10.1774 13.5643 10.1943 13.5773 10.2133 13.5863C10.23 13.5976 10.2466 13.6059 10.2634 13.6142C10.2825 13.6236 10.3018 13.6331 10.3214 13.6473C10.605 13.804 10.8994 13.9403 11.2024 14.0554C11.7768 14.2831 12.3708 14.4576 12.9771 14.5766C14.6179 14.8917 16.3151 14.7157 17.8563 14.0707C18.2797 13.913 18.75 13.6817 19.2458 13.3562C19.2458 13.3562 18.642 14.3453 17.0605 14.7928ZM11.0078 11.474C11.0078 10.7367 11.5507 10.1328 12.2397 10.1328C12.9275 10.1328 13.4843 10.7354 13.4703 11.474C13.4703 12.2088 12.9275 12.8152 12.2397 12.8152C11.5634 12.8152 11.0078 12.2088 11.0078 11.474ZM15.4167 11.474C15.4167 10.7367 15.9595 10.1328 16.6485 10.1328C17.3363 10.1328 17.8779 10.7354 17.8792 11.474C17.8792 12.2088 17.3363 12.8152 16.6485 12.8152C15.9722 12.8152 15.4167 12.2088 15.4167 11.474Z" fill="#1C4E5C"/>
</svg>