<svg xmlns="http://www.w3.org/2000/svg" fill="none" viewBox="0 0 30.15 26.16">
<path fill-rule="evenodd" clip-rule="evenodd" d="M25.0653 4.1582H14.8535L14.2037 4.43671L12.9968 5.62499L11.79 4.43671L11.1401 4.1582H0.928343L0 5.08655V23.6534L0.928343 24.5818H10.7502L12.347 26.1599H13.6466L15.2434 24.5818H25.0653L25.9936 23.6534V5.08655L25.0653 4.1582ZM12.0685 23.3192L11.7343 23.0036L11.1401 22.7251H1.85669V6.01489H10.7502L12.1242 7.38884L12.0685 23.3192ZM24.1369 22.7251H14.8535L14.2037 23.0036L13.9437 23.2449V7.31457L15.2434 6.01489H24.1369V22.7251ZM9.28343 9.72826H3.71337V11.5849H9.28343V9.72826ZM9.28343 17.155H3.71337V19.0117H9.28343V17.155ZM3.71337 13.4416H9.28343V15.2983H3.71337V13.4416ZM22.2802 9.72826H16.7102V11.5849H22.2802V9.72826ZM16.7102 13.4416H22.2802V15.2983H16.7102V13.4416ZM16.7102 17.155H22.2802V19.0117H16.7102V17.155Z" fill="#1C4E5C" fill-opacity="0.2"/>
<path fill-rule="evenodd" clip-rule="evenodd" d="M29.2215 0H19.0097L18.3599 0.278503L17.1531 1.46678L15.9462 0.278503L15.2964 0H5.08459L4.15625 0.928343V19.4952L5.08459 20.4236H14.9065L16.5032 22.0017H17.8029L19.3996 20.4236H29.2215L30.1499 19.4952V0.928343L29.2215 0ZM16.2247 19.161L15.8905 18.8454L15.2964 18.5669H6.01294V1.85669H14.9065L16.2804 3.23063L16.2247 19.161ZM28.2932 18.5669H19.0097L18.3599 18.8454L18.1 19.0867V3.15637L19.3996 1.85669H28.2932V18.5669ZM13.4397 5.57006H7.86962V7.42675H13.4397V5.57006ZM13.4397 12.9968H7.86962V14.8535H13.4397V12.9968ZM7.86962 9.28343H13.4397V11.1401H7.86962V9.28343ZM26.4365 5.57006H20.8664V7.42675H26.4365V5.57006ZM20.8664 9.28343H26.4365V11.1401H20.8664V9.28343ZM20.8664 12.9968H26.4365V14.8535H20.8664V12.9968Z" fill="#1C4E5C"/>
</svg>