<svg xmlns="http://www.w3.org/2000/svg" fill="none" viewBox="0 0 27 27">
<g opacity="0.2" clip-path="url(#clip0_8000_87743)">
<path d="M11.5933 4C5.35095 4 0.101562 9.0582 0.101562 15.2995V27L11.5915 26.9892C17.8302 26.9892 22.891 21.7362 22.891 15.4971C22.891 9.25802 17.8263 4 11.5933 4Z" fill="#1C4E5C"/>
<path d="M11.7059 8.375C9.23811 8.37644 6.9532 9.67594 5.69072 11.7963C4.42823 13.9166 4.37433 16.5447 5.54877 18.7149L4.28125 22.7917L8.83202 21.7639C9.78444 22.1935 10.8209 22.4046 11.8655 22.3818C12.9101 22.3589 13.9363 22.1026 14.869 21.6317C15.8017 21.1608 16.6173 20.4871 17.2559 19.6602C17.8945 18.8332 18.34 17.8738 18.5597 16.8524C18.7795 15.8309 18.7679 14.7732 18.5259 13.7568C18.2838 12.7403 17.8175 11.7909 17.161 10.9781C16.5044 10.1653 15.6744 9.50967 14.7316 9.05925C13.7888 8.60883 12.7572 8.37504 11.7124 8.375H11.7059Z" fill="#BFCBCE"/>
<path d="M17.2626 11.1175C19.2047 13.6637 19.1716 17.2032 17.1821 19.7127C15.1926 22.2222 11.7545 23.0621 8.83202 21.7525L4.28125 22.7936L8.91359 22.2463C11.9848 24.0453 15.9171 23.254 18.0525 20.4063C20.1879 17.5586 19.8479 13.5624 17.2619 11.1172L17.2626 11.1175Z" fill="#40626B"/>
<path d="M15.9732 9.82458C18.1704 12.154 18.5068 15.6774 16.7904 18.3813C15.074 21.0852 11.7422 22.2791 8.69941 21.2815L4.28125 22.7923L8.83202 21.7619C12.0736 23.226 15.8973 22.0279 17.723 18.9753C19.5486 15.9228 18.796 11.9873 15.9728 9.82422L15.9732 9.82458Z" fill="#80979D"/>
<path d="M5.96744 18.8684C5.35293 17.385 5.2667 15.7356 5.7232 14.1962C6.17971 12.6569 7.15122 11.3211 8.47506 10.4126C9.79889 9.50409 11.3947 9.07798 12.9952 9.20562C14.5957 9.33327 16.1038 10.0069 17.2669 11.1138C16.1956 9.7124 14.6351 8.7668 12.8969 8.46594C11.1588 8.16507 9.37121 8.5311 7.89123 9.49088C6.41125 10.4507 5.3479 11.9335 4.91364 13.6432C4.47939 15.3529 4.7062 17.1634 5.54877 18.7131L4.28125 22.7899L5.96744 18.8684Z" fill="#80979D"/>
<path d="M5.5516 18.7123C4.78889 17.3017 4.5333 15.6721 4.82754 14.0957C5.12179 12.5194 5.94803 11.0917 7.16825 10.0512C8.38847 9.01075 9.92877 8.42049 11.5318 8.37904C13.1349 8.3376 14.7036 8.84749 15.976 9.82352C14.7626 8.54879 13.1138 7.77756 11.3576 7.66324C9.60147 7.54892 7.86661 8.09991 6.49822 9.20658C5.12983 10.3133 4.22818 11.8945 3.97267 13.6358C3.71716 15.377 4.1265 17.1506 5.11927 18.6038L4.28624 22.7912L5.5516 18.7123Z" fill="#40626B"/>
</g>
<g clip-path="url(#clip1_8000_87743)">
<path d="M15.5933 0C9.35095 0 4.10156 5.0582 4.10156 11.2995V23L15.5915 22.9892C21.8302 22.9892 26.891 17.7362 26.891 11.4971C26.891 5.25802 21.8263 0 15.5933 0Z" fill="#1C4E5C"/>
<path d="M15.7059 4.375C13.2381 4.37644 10.9532 5.67594 9.69072 7.79625C8.42823 9.91656 8.37433 12.5447 9.54877 14.7149L8.28125 18.7917L12.832 17.7639C13.7844 18.1935 14.8209 18.4046 15.8655 18.3818C16.9101 18.3589 17.9363 18.1026 18.869 17.6317C19.8017 17.1608 20.6173 16.4871 21.2559 15.6602C21.8945 14.8332 22.34 13.8738 22.5597 12.8524C22.7795 11.8309 22.7679 10.7732 22.5259 9.75676C22.2838 8.74034 21.8175 7.79094 21.161 6.97813C20.5044 6.16531 19.6744 5.50967 18.7316 5.05925C17.7888 4.60883 16.7572 4.37504 15.7124 4.375H15.7059Z" fill="#BFCBCE"/>
<path d="M21.2626 7.11755C23.2047 9.66372 23.1716 13.2032 21.1821 15.7127C19.1926 18.2222 15.7545 19.0621 12.832 17.7525L8.28125 18.7936L12.9136 18.2463C15.9848 20.0453 19.9171 19.254 22.0525 16.4063C24.1879 13.5586 23.8479 9.56238 21.2619 7.11719L21.2626 7.11755Z" fill="#40626B"/>
<path d="M19.9732 5.82458C22.1704 8.15405 22.5068 11.6774 20.7904 14.3813C19.074 17.0852 15.7422 18.2791 12.6994 17.2815L8.28125 18.7923L12.832 17.7619C16.0736 19.226 19.8973 18.0279 21.723 14.9753C23.5486 11.9228 22.796 7.9873 19.9728 5.82422L19.9732 5.82458Z" fill="#80979D"/>
<path d="M9.96744 14.8684C9.35293 13.385 9.2667 11.7356 9.7232 10.1962C10.1797 8.65691 11.1512 7.32114 12.4751 6.41261C13.7989 5.50409 15.3947 5.07798 16.9952 5.20562C18.5957 5.33327 20.1038 6.00693 21.2669 7.1138C20.1956 5.7124 18.6351 4.7668 16.8969 4.46594C15.1588 4.16507 13.3712 4.5311 11.8912 5.49088C10.4112 6.45067 9.3479 7.93353 8.91364 9.6432C8.47939 11.3529 8.7062 13.1634 9.54877 14.7131L8.28125 18.7899L9.96744 14.8684Z" fill="#80979D"/>
<path d="M9.5516 14.7123C8.78889 13.3017 8.5333 11.6721 8.82754 10.0957C9.12179 8.51936 9.94803 7.09169 11.1683 6.05122C12.3885 5.01075 13.9288 4.42049 15.5318 4.37904C17.1349 4.3376 18.7036 4.84749 19.976 5.82352C18.7626 4.54879 17.1138 3.77756 15.3576 3.66324C13.6015 3.54892 11.8666 4.09991 10.4982 5.20658C9.12983 6.31326 8.22818 7.89451 7.97267 9.63575C7.71716 11.377 8.1265 13.1506 9.11927 14.6038L8.28624 18.7912L9.5516 14.7123Z" fill="#40626B"/>
</g>
<defs>
<clipPath id="clip0_8000_87743">
<rect width="23" height="23" fill="white" transform="translate(0 4)"/>
</clipPath>
<clipPath id="clip1_8000_87743">
<rect width="23" height="23" fill="white" transform="translate(4)"/>
</clipPath>
</defs>
</svg>