<svg width="41" height="40" viewBox="0 0 41 40" fill="none" xmlns="http://www.w3.org/2000/svg">
<path d="M20.5 0.75C9.62793 0.75 0.8125 9.36953 0.8125 20C0.8125 30.6305 9.62793 39.25 20.5 39.25C31.3721 39.25 40.1875 30.6305 40.1875 20C40.1875 9.36953 31.3721 0.75 20.5 0.75ZM29.9614 15.2605C29.9746 15.4625 29.9746 15.673 29.9746 15.8793C29.9746 22.1871 25.0615 29.4531 16.0835 29.4531C13.3149 29.4531 10.7485 28.6668 8.58643 27.3133C8.98193 27.3563 9.35986 27.3734 9.76416 27.3734C12.0493 27.3734 14.1499 26.6172 15.8242 25.3367C13.6797 25.2938 11.8779 23.9188 11.2627 22.0281C12.0142 22.1355 12.6909 22.1355 13.4644 21.9422C12.3601 21.7228 11.3676 21.1364 10.6554 20.2827C9.94327 19.4289 9.55536 18.3603 9.55762 17.2586V17.1984C10.2036 17.5551 10.9639 17.7742 11.7593 17.8043C11.0906 17.3686 10.5422 16.7782 10.1628 16.0857C9.78334 15.3931 9.58453 14.6197 9.58398 13.834C9.58398 12.9445 9.82129 12.1324 10.2476 11.4277C11.4732 12.903 13.0026 14.1096 14.7364 14.9691C16.4702 15.8285 18.3696 16.3217 20.311 16.4164C19.6211 13.1723 22.0996 10.5469 25.0791 10.5469C26.4854 10.5469 27.751 11.1227 28.6431 12.0508C29.7461 11.8488 30.8008 11.4449 31.7412 10.9035C31.3765 12.0078 30.6118 12.9402 29.5967 13.5289C30.5811 13.4258 31.5303 13.1594 32.4092 12.7855C31.7456 13.7395 30.915 14.5859 29.9614 15.2605Z" fill="white"/>
</svg>
