<svg width="54" height="54" viewBox="0 0 54 54" fill="none" xmlns="http://www.w3.org/2000/svg">
<path d="M27 54C41.9121 54 54 41.9121 54 27C54 12.0879 41.9121 0 27 0C12.0879 0 0 12.0879 0 27C0 41.9121 12.0879 54 27 54Z" fill="url(#paint0_linear)"/>
<path fill-rule="evenodd" clip-rule="evenodd" d="M15.5983 36.0529C14.791 35.5588 14.2969 34.6813 14.2969 33.7363V28.4605C14.2969 27.8341 14.8072 27.3265 15.4336 27.3292C15.6334 27.3292 15.8305 27.3832 16.0033 27.4831L27.9076 34.4248C28.6042 34.8298 29.0335 35.575 29.0335 36.3823V41.8471C29.0362 42.5977 28.4287 43.2079 27.6781 43.2079C27.427 43.2079 27.1786 43.1377 26.9653 43.0081L15.5983 36.0529ZM33.3427 26.0386C34.0393 26.4436 34.4659 27.1915 34.4686 27.9961V39.0877C34.4686 39.4144 34.2931 39.7168 34.0069 39.8761L31.4014 41.3422C31.369 41.3611 31.3339 41.3746 31.2961 41.3854V35.2267C31.2961 34.4302 30.8776 33.6904 30.1918 33.28L19.7374 27.0268V20.0743C19.7374 19.4479 20.2477 18.9403 20.8741 18.943C21.0739 18.943 21.271 18.997 21.4438 19.0969L33.3427 26.0386ZM38.5537 17.8468C39.253 18.2518 39.6823 18.9997 39.6823 19.807V36.007C39.6796 36.3391 39.496 36.6442 39.2044 36.8035L36.7339 38.1373V26.8594C36.7339 26.0629 36.3154 25.3258 35.635 24.9154L24.9484 18.5056V11.9122C24.9484 11.7124 25.0024 11.5153 25.0996 11.3425C25.4155 10.8025 26.1094 10.6189 26.6494 10.9321L38.5537 17.8468Z" fill="white"/>
<defs>
<linearGradient id="paint0_linear" x1="23.7356" y1="2.99128" x2="30.7321" y2="50.4259" gradientUnits="userSpaceOnUse">
<stop stop-color="#27D3A2"/>
<stop offset="1" stop-color="#9388FD"/>
</linearGradient>
</defs>
</svg>
