<svg xmlns="http://www.w3.org/2000/svg" fill="none" viewBox="2 1 80 80">
<g filter="url(#filter0_d_9021_88720)">
<circle cx="42" cy="41" r="40" fill="#013D4A"/>
</g>
<path fill-rule="evenodd" clip-rule="evenodd" d="M42.1613 69.0009C57.7194 69.0009 70.3226 56.4576 70.3226 40.9594C70.3226 25.4612 57.7194 12.918 42.1613 12.918C26.6032 12.918 14 25.4612 14 40.9594C14 56.4576 26.6032 69.0009 42.1613 69.0009ZM42.1613 59.3522C53.5584 59.3522 62.7245 50.186 62.7245 38.909C62.7245 27.6322 53.4981 22.9285 42.1613 22.9285C30.7641 22.9285 21.5981 27.5719 21.5981 38.909C21.5378 50.2463 30.7641 59.3522 42.1613 59.3522Z" fill="#F8FAFA"/>
<path fill-rule="evenodd" clip-rule="evenodd" d="M29.9792 42.2329C31.1852 42.2329 32.2707 41.7503 33.115 41.0268C33.537 41.8108 34.0798 42.6549 34.5622 43.4992C35.6477 45.3084 36.8537 47.1778 37.9392 48.5647C38.4818 49.2884 39.0849 49.9518 39.6276 50.4342C40.11 50.8564 40.9542 51.4593 41.9191 51.4593C42.884 51.4593 43.7281 50.8564 44.2106 50.4342C44.8136 49.9518 45.4167 49.2884 45.9593 48.625C47.1051 47.2381 48.3714 45.3686 49.5172 43.5595C50.0599 42.6549 50.6027 41.8108 51.085 40.9665C51.9293 41.7503 53.0751 42.2932 54.2811 42.2932C56.8138 42.2932 58.9243 40.2428 58.9243 37.71C58.9243 35.1773 56.8741 33.127 54.2811 33.127C52.2308 33.127 50.4218 34.5139 49.879 36.3833C49.7584 36.5642 49.6378 36.8054 49.5172 37.0467C48.7935 38.3734 47.7683 40.1222 46.683 41.8711C45.5976 43.6198 44.3915 45.3686 43.3663 46.5747C42.8235 47.1778 42.4015 47.6602 42.0397 47.9618C41.9794 48.0221 41.9191 48.0221 41.9191 48.0824C41.8588 48.0824 41.8588 48.0221 41.7985 47.9618C41.4366 47.6602 41.0145 47.2381 40.5322 46.5747C39.5673 45.3084 38.4215 43.6198 37.3964 41.8711C36.3712 40.1222 35.4065 38.3734 34.6828 37.0467C34.5622 36.8658 34.5019 36.6848 34.4416 36.5642C33.8988 34.5742 32.0898 33.127 29.9792 33.127C27.4465 33.127 25.3359 35.1773 25.3359 37.71C25.3359 40.1825 27.3862 42.2329 29.9792 42.2329Z" fill="#F8FAFA"/>
<defs>
<filter id="filter0_d_9021_88720" x="0" y="0" width="86" height="86" filterUnits="userSpaceOnUse" color-interpolation-filters="sRGB">
<feFlood flood-opacity="0" result="BackgroundImageFix"/>
<feColorMatrix in="SourceAlpha" type="matrix" values="0 0 0 0 0 0 0 0 0 0 0 0 0 0 0 0 0 0 127 0" result="hardAlpha"/>
<feOffset dx="1" dy="2"/>
<feGaussianBlur stdDeviation="1.5"/>
<feColorMatrix type="matrix" values="0 0 0 0 0.08 0 0 0 0 0.16 0 0 0 0 0.4 0 0 0 0.2 0"/>
<feBlend mode="normal" in2="BackgroundImageFix" result="effect1_dropShadow_9021_88720"/>
<feBlend mode="normal" in="SourceGraphic" in2="effect1_dropShadow_9021_88720" result="shape"/>
</filter>
</defs>
</svg>