<svg width="102" height="23" viewBox="0 0 102 23" fill="none" xmlns="http://www.w3.org/2000/svg">
<path fill-rule="evenodd" clip-rule="evenodd" d="M5.68069 9.7793L12.719 16.9724L19.6822 9.85613L25.3914 15.6908L18.758 22.4701L17.0516 20.7726L22.0239 15.6908L19.6822 13.2976L12.719 20.4139L5.68069 13.2208L3.36745 15.5849L8.41544 20.7439L6.70898 22.4415L0 15.5849L5.68069 9.7793Z" fill="white"/>
<path fill-rule="evenodd" clip-rule="evenodd" d="M19.7107 13.2205L12.6723 6.0275L5.70924 13.1438L0 7.30898L6.63335 0.529785L8.3398 2.2273L3.36744 7.30898L5.70924 9.7023L12.6723 2.58599L19.7107 9.77907L22.0239 7.41489L16.9759 2.25592L18.6824 0.558402L25.3914 7.41489L19.7107 13.2205Z" fill="white"/>
<path fill-rule="evenodd" clip-rule="evenodd" d="M11.6216 22.301V17.769H13.92V22.301H11.6216Z" fill="white"/>
<path fill-rule="evenodd" clip-rule="evenodd" d="M11.6216 5.23064V0.69873H13.92V5.23064H11.6216Z" fill="white"/>
<path d="M33.1364 5.88013H30.8462V17.4571H33.1364V5.88013Z" fill="white"/>
<path d="M44.7533 8.9353C43.7123 8.9353 42.7193 9.38556 42.2229 10.3664C41.7104 9.38556 40.7494 8.9353 39.6283 8.9353C38.6193 8.9353 37.8506 9.32121 37.4502 10.0126L37.21 9.09614H35.1279V17.4573H37.3701V12.7782C37.3701 11.5402 38.0108 10.9452 38.9557 10.9452C39.8525 10.9452 40.4612 11.508 40.4612 12.8747V17.4573H42.6232V12.8265C42.6553 11.5241 43.3279 10.9452 44.2088 10.9452C45.1217 10.9452 45.7143 11.508 45.7143 12.7622V17.4733H47.9725V12.312C47.9725 9.99653 46.4189 8.9353 44.7533 8.9353Z" fill="white"/>
<path d="M59.3769 8.9353C58.3356 8.9353 57.3429 9.38556 56.8465 10.3664C56.3338 9.38556 55.3727 8.9353 54.2518 8.9353C53.2429 8.9353 52.4741 9.32121 52.0737 10.0126L51.8335 9.09614H49.7515V17.4573H51.9937V12.7782C51.9937 11.5402 52.6342 10.9452 53.5792 10.9452C54.4761 10.9452 55.0847 11.508 55.0847 12.8747V17.4573H57.2469V12.8265C57.2785 11.5241 57.9516 10.9452 58.8325 10.9452C59.7451 10.9452 60.338 11.508 60.338 12.7622V17.4733H62.5962V12.312C62.5962 9.99653 61.0427 8.9353 59.3769 8.9353Z" fill="white"/>
<path d="M69.8367 9.09619V13.6787C69.8367 14.9168 69.2601 15.6564 68.155 15.6725C67.098 15.7047 66.4254 15.0776 66.4254 13.7752V9.09619H64.2954V14.0646C64.2954 16.2031 65.5281 17.6181 67.6587 17.6181C68.6514 17.6181 69.372 17.1679 69.8045 16.5408L69.9169 17.4573H71.9667V9.09619H69.8367Z" fill="white"/>
<path d="M78.5465 8.9353C77.2974 8.9353 76.4645 9.4016 76.032 10.093L75.9038 9.09614H73.8218V17.4573H76.0641V13.0355C76.0641 11.6848 76.7045 10.8648 77.8898 10.8648C78.9791 10.8648 79.6358 11.5723 79.6358 12.9551V17.4573H81.894V12.4888C81.894 10.3503 80.6765 8.9353 78.5465 8.9353Z" fill="white"/>
<path d="M91.6994 13.1481C91.6994 10.5915 90.0494 8.9353 87.5671 8.9353C85.0847 8.9353 83.4194 10.6719 83.4194 13.2767C83.4194 15.8976 85.0847 17.6341 87.5834 17.6341C89.6813 17.6341 91.2669 16.4604 91.6351 14.7238H89.3769C89.1211 15.4474 88.4643 15.8172 87.6472 15.8172C86.5743 15.8172 85.7093 15.1258 85.6776 13.8877H91.6994V13.1481ZM87.5671 10.688C88.544 10.688 89.3611 11.2507 89.4571 12.4084H85.6934C85.7894 11.2507 86.6065 10.688 87.5671 10.688Z" fill="white"/>
<path d="M92.5752 9.0961V11.0577H93.8565V17.4573H96.1146V11.0577H98.0205V9.0961H96.1146V8.2439C96.1146 7.64897 96.2745 7.19877 97.1876 7.19877H98.0205V5.36572H96.6912C94.5928 5.36572 93.8565 6.39481 93.8565 8.01877V9.0961H92.5752Z" fill="white"/>
<path d="M99.5015 7.80975H101.775L101.808 5.36572H99.5336L99.5015 7.80975ZM99.5336 17.4573H101.775V9.0961H99.5336V17.4573Z" fill="white"/>
</svg>
