<svg width="36" height="36" viewBox="0 0 36 36" fill="none" xmlns="http://www.w3.org/2000/svg">
<path d="M34.2001 5.01141C34.0467 4.9962 33.8922 4.9962 33.7388 5.01141H2.23883C2.03694 5.0144 1.83639 5.04354 1.64258 5.09804L17.8988 20.6804L34.2001 5.01141Z" fill="#062F39"/>
<path d="M35.865 6.5166L19.485 22.218C19.0634 22.6214 18.4932 22.8478 17.8987 22.8478C17.3043 22.8478 16.7341 22.6214 16.3125 22.218L0.0787501 6.63572C0.0288444 6.81227 0.00238352 6.99419 0 7.17714V28.8343C0 29.4087 0.237053 29.9595 0.65901 30.3657C1.08097 30.7718 1.65326 31 2.25 31H33.75C34.3467 31 34.919 30.7718 35.341 30.3657C35.7629 29.9595 36 29.4087 36 28.8343V7.17714C35.991 6.95154 35.9455 6.72866 35.865 6.5166V6.5166ZM3.79125 28.8343H2.2275V27.2858L10.4062 19.4784L11.9925 21.0052L3.79125 28.8343ZM33.7275 28.8343H32.1525L23.9512 21.0052L25.5375 19.4784L33.7162 27.2858L33.7275 28.8343Z" fill="#062F39"/>
</svg>
