<svg width="44" height="44" viewBox="0 0 44 44" fill="none" xmlns="http://www.w3.org/2000/svg">
<rect width="44" height="44" rx="22" fill="white"/>
<path fill-rule="evenodd" clip-rule="evenodd" d="M11.985 9.16666H30.4115C30.7825 9.16761 31.1497 9.24162 31.4921 9.38448C31.8345 9.52734 32.1454 9.73625 32.4071 9.99927C32.6688 10.2623 32.8761 10.5743 33.0172 10.9174C33.1583 11.2606 33.2304 11.6281 33.2295 11.9992V36.6667L30.2711 34.0527L28.6081 32.5127L26.8466 30.8757L27.5775 33.4217H11.985C10.432 33.4217 9.167 32.1567 9.167 30.5892V11.9992C9.16605 11.6281 9.23819 11.2606 9.37929 10.9174C9.52039 10.5743 9.7277 10.2623 9.98938 9.99927C10.2511 9.73625 10.562 9.52734 10.9044 9.38448C11.2468 9.24162 11.614 9.16761 11.985 9.16666ZM24.1965 26.0082C24.6075 26.5336 25.1025 27.1242 25.1025 27.1242C28.0905 27.0288 29.2699 25.1012 29.309 25.0372C29.3097 25.0361 29.31 25.0356 29.31 25.0356C29.31 20.6081 27.33 17.0201 27.33 17.0201C25.3515 15.5336 23.467 15.5756 23.467 15.5756L23.2745 15.7956C25.612 16.5106 26.699 17.5411 26.699 17.5411C24.5918 16.3804 22.1676 15.9273 19.7834 16.2486C19.7156 16.2486 19.6566 16.2584 19.592 16.2691C19.578 16.2714 19.5637 16.2738 19.549 16.2761C19.067 16.3181 17.899 16.4976 16.4284 17.1431C15.9204 17.3761 15.6165 17.5411 15.6165 17.5411C15.6165 17.5411 16.7584 16.4556 19.2334 15.7392L19.0959 15.5742C19.0959 15.5742 17.2129 15.5322 15.2329 17.0186C15.2329 17.0186 13.2529 20.6067 13.2529 25.0342C13.2529 25.0342 14.4065 27.0272 17.4445 27.1242C17.4445 27.1242 17.954 26.5032 18.3665 25.9822C16.6195 25.4597 15.9595 24.3597 15.9595 24.3597C15.9595 24.3597 16.097 24.4552 16.3445 24.5913C16.36 24.6096 16.3793 24.6244 16.4009 24.6347C16.4199 24.6476 16.4389 24.6569 16.458 24.6664C16.4797 24.6771 16.5016 24.688 16.524 24.7042C16.8469 24.8825 17.1821 25.0377 17.527 25.1688C18.1809 25.428 18.8573 25.6266 19.5475 25.7622C21.4155 26.1209 23.3479 25.9205 25.1025 25.1861C25.5845 25.0067 26.12 24.7432 26.6845 24.3727C26.6845 24.3727 25.997 25.4988 24.1965 26.0082ZM17.3077 22.231C17.3077 21.3915 17.9257 20.704 18.7102 20.704C19.4932 20.704 20.1271 21.3901 20.1112 22.231C20.1112 23.0676 19.4932 23.758 18.7102 23.758C17.9402 23.758 17.3077 23.0676 17.3077 22.231ZM22.3271 22.231C22.3271 21.3915 22.9452 20.704 23.7296 20.704C24.5127 20.704 25.1292 21.3901 25.1307 22.231C25.1307 23.0676 24.5127 23.758 23.7296 23.758C22.9596 23.758 22.3271 23.0676 22.3271 22.231Z" fill="#012E3A"/>
</svg>
