<svg xmlns="http://www.w3.org/2000/svg" fill="none" viewBox="2 1 80 80">
<g filter="url(#filter0_d_9021_88737)">
<circle cx="42" cy="41" r="40" fill="#013D4A"/>
</g>
<path fill-rule="evenodd" clip-rule="evenodd" d="M42.6061 25.4052L56.1929 11.8184L64.5559 20.1814L48.5196 36.2177V52.7705H36.6926V36.2177L20.6562 20.1814L29.0192 11.8184L42.6061 25.4052Z" fill="#F8FAFA"/>
<path d="M69.3063 37.4746C70.3867 41.5067 70.5397 45.7312 69.754 49.8309C68.9682 53.9306 67.2641 57.7991 64.7695 61.146C62.2748 64.493 59.0545 67.2314 55.3502 69.1557C51.6459 71.0801 47.5538 72.1404 43.3811 72.2571C39.2084 72.3738 35.0634 71.5439 31.2573 69.8295C27.4513 68.1152 24.0829 65.5611 21.4051 62.3588C18.7273 59.1565 16.8096 55.3893 15.796 51.3399C14.7824 47.2905 14.6991 43.0641 15.5525 38.9779L26.2958 41.2215C25.7813 43.6852 25.8315 46.2334 26.4426 48.6749C27.0538 51.1163 28.21 53.3877 29.8245 55.3184C31.439 57.2491 33.4698 58.789 35.7646 59.8226C38.0594 60.8562 40.5584 61.3566 43.0743 61.2863C45.5901 61.2159 48.0573 60.5766 50.2907 59.4164C52.5241 58.2562 54.4657 56.6051 55.9698 54.5872C57.4738 52.5693 58.5013 50.2369 58.975 47.765C59.4488 45.2932 59.3565 42.7462 58.7051 40.3152L69.3063 37.4746Z" fill="#013D4A"/>
<path fill-rule="evenodd" clip-rule="evenodd" d="M69.3063 37.4746C69.3071 37.4779 69.308 37.4811 69.3089 37.4844C69.9454 39.8635 70.2592 42.3095 70.2477 44.7573C70.2398 46.4549 70.0755 48.1533 69.754 49.8309C68.9682 53.9306 67.2641 57.7991 64.7695 61.146C62.2748 64.493 59.0545 67.2314 55.3502 69.1557C51.6459 71.0801 47.5538 72.1404 43.3811 72.2571C39.2084 72.3738 35.0634 71.5439 31.2573 69.8295C27.4513 68.1152 24.0829 65.5611 21.4051 62.3588C18.7273 59.1565 16.8096 55.3893 15.796 51.3399C15.3812 49.6829 15.1222 47.9963 15.0195 46.3018C14.8711 43.8559 15.0482 41.3936 15.552 38.9802C15.5521 38.9794 15.5523 38.9787 15.5525 38.9779L26.2958 41.2215C25.7813 43.6852 25.8315 46.2334 26.4426 48.6749C27.0538 51.1163 28.21 53.3877 29.8245 55.3184C31.439 57.2491 33.4698 58.789 35.7646 59.8226C38.0594 60.8562 40.5584 61.3566 43.0743 61.2863C45.5901 61.2159 48.0573 60.5766 50.2907 59.4164C52.5241 58.2562 54.4657 56.6051 55.9698 54.5872C57.4738 52.5693 58.5013 50.2369 58.975 47.765C59.4488 45.2932 59.3565 42.7462 58.7051 40.3152L69.3063 37.4746Z" fill="#F8FAFA"/>
<defs>
<filter id="filter0_d_9021_88737" x="0" y="0" width="86" height="86" filterUnits="userSpaceOnUse" color-interpolation-filters="sRGB">
<feFlood flood-opacity="0" result="BackgroundImageFix"/>
<feColorMatrix in="SourceAlpha" type="matrix" values="0 0 0 0 0 0 0 0 0 0 0 0 0 0 0 0 0 0 127 0" result="hardAlpha"/>
<feOffset dx="1" dy="2"/>
<feGaussianBlur stdDeviation="1.5"/>
<feColorMatrix type="matrix" values="0 0 0 0 0.08 0 0 0 0 0.16 0 0 0 0 0.4 0 0 0 0.2 0"/>
<feBlend mode="normal" in2="BackgroundImageFix" result="effect1_dropShadow_9021_88737"/>
<feBlend mode="normal" in="SourceGraphic" in2="effect1_dropShadow_9021_88737" result="shape"/>
</filter>
</defs>
</svg>