<svg width="36" height="36" viewBox="0 0 36 36" fill="none" xmlns="http://www.w3.org/2000/svg">
<path d="M18 36C27.9411 36 36 27.9411 36 18C36 8.05887 27.9411 0 18 0C8.05887 0 0 8.05887 0 18C0 27.9411 8.05887 36 18 36Z" fill="#062F39"/>
<path fill-rule="evenodd" clip-rule="evenodd" d="M8.14753 17.81C13.3949 15.5238 16.894 14.0166 18.6447 13.2884C23.6435 11.2092 24.6822 10.8481 25.3592 10.8361C25.5081 10.8335 25.8411 10.8704 26.0567 11.0454C26.2388 11.1932 26.2889 11.3928 26.3129 11.5329C26.3369 11.673 26.3668 11.9921 26.343 12.2415C26.0721 15.0877 24.9 21.9947 24.3037 25.1825C24.0514 26.5314 23.5546 26.9837 23.0736 27.0279C22.0283 27.1241 21.2345 26.3371 20.2221 25.6735C18.6379 24.635 17.7429 23.9885 16.2051 22.9752C14.428 21.8041 15.58 21.1604 16.5928 20.1084C16.8579 19.8332 21.4635 15.644 21.5526 15.264C21.5637 15.2165 21.5741 15.0393 21.4688 14.9458C21.3636 14.8522 21.2083 14.8842 21.0962 14.9096C20.9373 14.9457 18.4064 16.6185 13.5037 19.928C12.7853 20.4213 12.1346 20.6616 11.5516 20.649C10.9089 20.6352 9.67265 20.2857 8.7536 19.9869C7.62635 19.6205 6.73043 19.4268 6.80845 18.8045C6.84908 18.4803 7.29544 18.1488 8.14753 17.81Z" fill="white"/>
</svg>
