<svg width="40" height="38" viewBox="0 0 40 38" fill="none" xmlns="http://www.w3.org/2000/svg">
<path d="M19.9828 0.278597C9.35664 0.2743 0.75 8.87664 0.75 19.4942C0.75 27.8903 6.13398 35.0274 13.632 37.6485C14.6418 37.902 14.4871 37.1845 14.4871 36.6946V33.3645C8.65625 34.0477 8.41992 30.1891 8.02891 29.5446C7.23828 28.1954 5.36914 27.8516 5.92773 27.2071C7.25547 26.5239 8.60898 27.379 10.1773 29.695C11.3117 31.3751 13.5246 31.0915 14.6461 30.8122C14.891 29.8024 15.4152 28.9001 16.1371 28.1997C10.0957 27.1169 7.57773 23.4302 7.57773 19.0473C7.57773 16.9204 8.27812 14.9653 9.65312 13.3884C8.77656 10.7888 9.73477 8.56297 9.86367 8.23211C12.3602 8.00867 14.9555 10.0196 15.1574 10.1786C16.5754 9.79618 18.1953 9.59422 20.0086 9.59422C21.8305 9.59422 23.4547 9.80477 24.8855 10.1915C25.3711 9.82196 27.7773 8.09461 30.0977 8.30516C30.2223 8.63602 31.159 10.8102 30.334 13.3755C31.7262 14.9567 32.4352 16.929 32.4352 19.0602C32.4352 23.4516 29.9 27.1427 23.8414 28.2083C24.3603 28.7186 24.7724 29.3272 25.0535 29.9986C25.3346 30.67 25.479 31.3906 25.4785 32.1184V36.9524C25.5129 37.3391 25.4785 37.7216 26.123 37.7216C33.7328 35.1563 39.2113 27.9677 39.2113 19.4985C39.2113 8.87664 30.6004 0.278597 19.9828 0.278597Z" fill="#062F39"/>
</svg>
