<svg xmlns="http://www.w3.org/2000/svg" fill="none" viewBox="2 1 80 80">
<g filter="url(#filter0_d_9021_88729)">
<circle cx="42" cy="41" r="40" fill="#013D4A"/>
</g>
<path d="M67.9109 31.7206L56.6547 15.3457C54.8868 12.7792 50.8892 14.1417 51.0199 17.2598C51.1395 20.1021 52.2018 23.1106 54.7439 26.8025C54.7451 26.8045 54.7456 26.8069 54.7453 26.8092C54.7451 26.8116 54.7441 26.8138 54.7424 26.8155C54.7408 26.8173 54.7387 26.8184 54.7364 26.8189C54.7341 26.8193 54.7317 26.819 54.7295 26.818C53.6894 26.0426 38.0102 14.268 19.3724 20.5374H19.3514C17.2944 21.3084 16.2443 22.9909 16.7649 24.9637C17.2468 26.7903 19.1198 27.8869 20.9819 27.5778C24.9407 26.9188 28.8696 26.6053 32.7332 26.9442C36.5968 27.2832 40.3762 28.2735 43.8953 30.0025C47.4144 31.7316 50.6023 34.1785 53.5321 36.9809C56.8275 40.1301 60.9159 46.8459 60.9159 46.8459C61.1555 47.2715 61.5378 47.5988 61.9952 47.77C62.4526 47.9413 62.9558 47.9455 63.416 47.7819C64.5236 47.3854 65.0398 46.1082 64.6233 45.0127C63.7547 42.7228 62.6915 40.5116 61.4454 38.4032C61.4436 38.4012 61.4426 38.3986 61.4425 38.3959C61.4425 38.3932 61.4435 38.3906 61.4452 38.3885C61.447 38.3865 61.4495 38.3851 61.4522 38.3848C61.4548 38.3844 61.4576 38.3851 61.4598 38.3866C62.8377 38.905 64.1127 39.5507 65.6213 39.1974C66.852 38.9083 67.932 38.0709 68.4337 36.899C68.797 36.0632 68.9397 35.1482 68.8482 34.2415C68.7566 33.3348 68.4339 32.4668 67.9109 31.7206Z" fill="#F8FAFA"/>
<path d="M15.9597 49.6921L27.279 66.1589C29.0513 68.7331 32.9747 67.3219 32.854 64.2005C32.7432 61.3449 31.6832 58.3242 29.1289 54.6135C29.1211 54.6024 29.1289 54.588 29.1422 54.5958C30.1845 55.3712 45.8681 67.1447 64.4982 60.8763C64.5056 60.8768 64.513 60.8768 64.5203 60.8763C66.5773 60.1076 67.6219 58.4284 67.1057 56.4534C66.6249 54.6279 64.7519 53.5313 62.891 53.8415C58.931 54.5061 55.0032 54.8129 51.1385 54.4739C47.2738 54.135 43.4955 53.1447 39.9775 51.4167C36.4595 49.6888 33.2705 47.2397 30.3407 44.4384C27.0464 41.2892 22.9569 34.5734 22.9569 34.5734C22.7089 34.1311 22.3072 33.7952 21.828 33.6294C21.3488 33.4636 20.8254 33.4795 20.3572 33.6739C19.3026 34.117 18.8518 35.3631 19.2561 36.4309C20.1233 38.7134 21.1838 40.9176 22.4263 43.0194C22.4276 43.0216 22.4281 43.024 22.4279 43.0265C22.4278 43.029 22.4268 43.0314 22.4253 43.0333C22.4237 43.0352 22.4216 43.0366 22.4192 43.0373C22.4168 43.038 22.4143 43.0379 22.4119 43.0371C21.0339 42.5187 19.7535 41.873 18.2503 42.2263C17.0197 42.5099 15.9386 43.3517 15.4413 44.5203C15.0786 45.3548 14.9358 46.2684 15.0266 47.1738C15.1173 48.0791 15.4386 48.9462 15.9597 49.6921Z" fill="#F8FAFA"/>
<defs>
<filter id="filter0_d_9021_88729" x="0" y="0" width="86" height="86" filterUnits="userSpaceOnUse" color-interpolation-filters="sRGB">
<feFlood flood-opacity="0" result="BackgroundImageFix"/>
<feColorMatrix in="SourceAlpha" type="matrix" values="0 0 0 0 0 0 0 0 0 0 0 0 0 0 0 0 0 0 127 0" result="hardAlpha"/>
<feOffset dx="1" dy="2"/>
<feGaussianBlur stdDeviation="1.5"/>
<feColorMatrix type="matrix" values="0 0 0 0 0.08 0 0 0 0 0.16 0 0 0 0 0.4 0 0 0 0.2 0"/>
<feBlend mode="normal" in2="BackgroundImageFix" result="effect1_dropShadow_9021_88729"/>
<feBlend mode="normal" in="SourceGraphic" in2="effect1_dropShadow_9021_88729" result="shape"/>
</filter>
</defs>
</svg>