<svg xmlns="http://www.w3.org/2000/svg" fill="none" viewBox="0 0 24 19">
<path d="M21.534 4.73705C21.5473 4.94 21.5473 5.15159 21.5473 5.35886C21.5473 11.698 16.5977 19 7.55285 19C4.7637 19 2.1782 18.2098 0 16.8495C0.39845 16.8927 0.779193 16.91 1.1865 16.91C3.48866 16.91 5.60487 16.15 7.29164 14.8632C5.13116 14.82 3.31599 13.4382 2.69618 11.5382C3.45324 11.6461 4.13503 11.6461 4.91422 11.4518C3.80178 11.2314 2.80188 10.6421 2.08441 9.78406C1.36694 8.92604 0.976145 7.85221 0.978418 6.745V6.68454C1.62922 7.04295 2.39513 7.26318 3.19646 7.29341C2.52282 6.85552 1.97037 6.26227 1.5881 5.56627C1.20582 4.87026 1.00553 4.093 1.00498 3.30341C1.00498 2.40955 1.24405 1.59341 1.67349 0.885227C2.90826 2.36782 4.44906 3.58039 6.19575 4.44412C7.94244 5.30786 9.85593 5.80344 11.8118 5.89864C11.1168 2.63841 13.6137 0 16.6154 0C18.0321 0 19.3071 0.578636 20.2059 1.51136C21.3171 1.30841 22.3796 0.902499 23.3271 0.358408C22.9596 1.46818 22.1893 2.40523 21.1666 2.99682C22.1583 2.89318 23.1146 2.62545 24 2.24977C23.3315 3.20841 22.4947 4.05909 21.534 4.73705Z" fill="#33F8FF"/>
</svg>