<svg xmlns="http://www.w3.org/2000/svg" fill="none" viewBox="0 0 32 26">
<path d="M24.2374 9.73393C24.2524 9.96537 24.2524 10.2067 24.2524 10.443C24.2524 17.6718 18.6814 25.9987 8.50104 25.9987C5.36174 25.9987 2.45165 25.0976 0 23.5464C0.448472 23.5957 0.877014 23.6154 1.33545 23.6154C3.92663 23.6154 6.30851 22.7487 8.20704 21.2813C5.77533 21.232 3.73229 19.6563 3.03466 17.4896C3.88676 17.6127 4.65415 17.6127 5.53116 17.3911C4.27906 17.1397 3.15363 16.4677 2.34609 15.4893C1.53855 14.5109 1.09869 13.2863 1.10125 12.0237V11.9548C1.83375 12.3635 2.69582 12.6146 3.59775 12.6491C2.83954 12.1497 2.21774 11.4732 1.78747 10.6795C1.3572 9.88583 1.13176 8.99949 1.13115 8.09908C1.13115 7.07976 1.40023 6.14908 1.88359 5.3415C3.27336 7.03217 5.0076 8.41493 6.97357 9.39989C8.93954 10.3849 11.0933 10.95 13.2947 11.0585C12.5124 7.34074 15.3228 4.33203 18.7013 4.33203C20.2959 4.33203 21.731 4.99188 22.7425 6.05552C23.9933 5.82408 25.1892 5.3612 26.2556 4.74074C25.842 6.00627 24.9749 7.07483 23.8238 7.74945C24.94 7.63127 26.0164 7.32597 27.013 6.89756C26.2605 7.99074 25.3188 8.96082 24.2374 9.73393Z" fill="#33F8FF" fill-opacity="0.2"/>
<path d="M29.2257 5.4019C29.2407 5.63333 29.2407 5.87462 29.2407 6.11099C29.2407 13.3398 23.6696 21.6667 13.4893 21.6667C10.35 21.6667 7.43993 20.7655 4.98828 19.2144C5.43675 19.2636 5.8653 19.2833 6.32373 19.2833C8.91491 19.2833 11.2968 18.4167 13.1953 16.9492C10.7636 16.9 8.72057 15.3242 8.02294 13.1576C8.87504 13.2807 9.64243 13.2807 10.5194 13.0591C9.26734 12.8077 8.14191 12.1357 7.33437 11.1573C6.52683 10.1788 6.08697 8.95428 6.08953 7.69167V7.62273C6.82204 8.03144 7.6841 8.28258 8.58603 8.31705C7.82782 7.8177 7.20602 7.14119 6.77575 6.3475C6.34548 5.5538 6.12004 4.66745 6.11943 3.76705C6.11943 2.74773 6.38851 1.81705 6.87187 1.00947C8.26164 2.70014 9.99588 4.0829 11.9619 5.06786C13.9278 6.05283 16.0815 6.61795 18.283 6.72652C17.5007 3.00871 20.3111 0 23.6896 0C25.2841 0 26.7193 0.659848 27.7308 1.72348C28.9816 1.49205 30.1775 1.02917 31.2438 0.408711C30.8303 1.67424 29.9632 2.7428 28.8121 3.41742C29.9283 3.29924 31.0047 2.99394 32.0013 2.56553C31.2488 3.65871 30.307 4.62879 29.2257 5.4019Z" fill="#33F8FF"/>
</svg>