<svg xmlns="http://www.w3.org/2000/svg" fill="none" viewBox="0 0 31.42 26">
<path d="M24.3006 9.73393C24.3155 9.96537 24.3155 10.2067 24.3155 10.443C24.3155 17.6718 18.73 25.9987 8.52318 25.9987C5.3757 25.9987 2.45803 25.0976 0 23.5464C0.44964 23.5957 0.879298 23.6154 1.33893 23.6154C3.93685 23.6154 6.32494 22.7487 8.22842 21.2813C5.79037 21.232 3.74201 19.6563 3.04257 17.4896C3.89688 17.6127 4.66627 17.6127 5.54556 17.3911C4.2902 17.1397 3.16185 16.4677 2.3522 15.4893C1.54255 14.5109 1.10155 13.2863 1.10412 12.0237V11.9548C1.83853 12.3635 2.70284 12.6146 3.60712 12.6491C2.84694 12.1497 2.22351 11.4732 1.79212 10.6795C1.36073 9.88583 1.13471 8.99949 1.13409 8.09908C1.13409 7.07976 1.40388 6.14908 1.88849 5.3415C3.28189 7.03217 5.02064 8.41493 6.99173 9.39989C8.96282 10.3849 11.1221 10.95 13.3293 11.0585C12.545 7.34074 15.3627 4.33203 18.75 4.33203C20.3487 4.33203 21.7876 4.99188 22.8018 6.05552C24.0558 5.82408 25.2548 5.3612 26.3239 4.74074C25.9093 6.00627 25.04 7.07483 23.8859 7.74945C25.005 7.63127 26.0841 7.32597 27.0833 6.89756C26.3289 7.99074 25.3847 8.96082 24.3006 9.73393Z" fill="#1C4E5C" fill-opacity="0.2"/>
<path d="M28.6365 5.4019C28.6515 5.63333 28.6515 5.87462 28.6515 6.11099C28.6515 13.3398 23.066 21.6667 12.8591 21.6667C9.71164 21.6667 6.79397 20.7655 4.33594 19.2144C4.78558 19.2636 5.21524 19.2833 5.67487 19.2833C8.27279 19.2833 10.6609 18.4167 12.5644 16.9492C10.1263 16.9 8.07794 15.3242 7.3785 13.1576C8.23282 13.2807 9.00221 13.2807 9.8815 13.0591C8.62614 12.8077 7.49778 12.1357 6.68814 11.1573C5.87849 10.1788 5.43749 8.95428 5.44005 7.69167V7.62273C6.17447 8.03144 7.03878 8.28258 7.94305 8.31705C7.18287 7.8177 6.55945 7.14119 6.12806 6.3475C5.69667 5.5538 5.47065 4.66745 5.47003 3.76705C5.47003 2.74773 5.73982 1.81705 6.22443 1.00947C7.61783 2.70014 9.35658 4.0829 11.3277 5.06786C13.2988 6.05283 15.4581 6.61795 17.6653 6.72652C16.8809 3.00871 19.6986 0 23.0859 0C24.6847 0 26.1235 0.659848 27.1377 1.72348C28.3917 1.49205 29.5907 1.02917 30.6599 0.408711C30.2452 1.67424 29.3759 2.7428 28.2218 3.41742C29.3409 3.29924 30.4201 2.99394 31.4193 2.56553C30.6649 3.65871 29.7206 4.62879 28.6365 5.4019Z" fill="#1C4E5C"/>
</svg>