<svg xmlns="http://www.w3.org/2000/svg" fill="none" viewBox="0 0 34 26.07">
<path d="M11.7867 19.9142L19.4333 15.2999L11.7867 10.6856V19.9142ZM28.8184 7.87087C29.0099 8.59377 29.1425 9.56277 29.2309 10.7933C29.3341 12.0237 29.3783 13.085 29.3783 14.0079L29.4667 15.2999C29.4667 18.6683 29.2309 21.1446 28.8184 22.7289C28.4501 24.1132 27.5955 25.0052 26.2695 25.3898C25.5771 25.5897 24.31 25.7282 22.3652 25.8204C20.4499 25.9281 18.6966 25.9743 17.0759 25.9743L14.7333 26.0665C8.56007 26.0665 4.71467 25.8204 3.19713 25.3898C1.87113 25.0052 1.0166 24.1132 0.648267 22.7289C0.456733 22.006 0.324133 21.037 0.235733 19.8065C0.1326 18.576 0.0883999 17.5147 0.0883999 16.5919L0 15.2999C0 11.9314 0.235733 9.45511 0.648267 7.87087C1.0166 6.48658 1.87113 5.59449 3.19713 5.20997C3.8896 5.01001 5.15667 4.87158 7.10147 4.7793C9.0168 4.67163 10.7701 4.62549 12.3907 4.62549L14.7333 4.5332C20.9066 4.5332 24.752 4.7793 26.2695 5.20997C27.5955 5.59449 28.4501 6.48658 28.8184 7.87087Z" fill="#1C4E5C" fill-opacity="0.2"/>
<path d="M16.3179 15.381L23.9645 10.7667L16.3179 6.15238V15.381ZM33.3496 3.33767C33.5412 4.06057 33.6738 5.02957 33.7622 6.26005C33.8653 7.49052 33.9095 8.55181 33.9095 9.47467L33.9979 10.7667C33.9979 14.1351 33.7622 16.6114 33.3496 18.1957C32.9813 19.58 32.1268 20.472 30.8008 20.8566C30.1083 21.0565 28.8413 21.195 26.8965 21.2872C24.9811 21.3949 23.2278 21.441 21.6072 21.441L19.2646 21.5333C13.0913 21.5333 9.24592 21.2872 7.72838 20.8566C6.40238 20.472 5.54785 19.58 5.17952 18.1957C4.98798 17.4728 4.85538 16.5038 4.76698 15.2733C4.66385 14.0428 4.61965 12.9815 4.61965 12.0587L4.53125 10.7667C4.53125 7.39824 4.76698 4.92191 5.17952 3.33767C5.54785 1.95338 6.40238 1.06129 7.72838 0.676762C8.42085 0.47681 9.68792 0.338381 11.6327 0.246095C13.548 0.138428 15.3013 0.0922856 16.922 0.0922856L19.2646 0C25.4379 0 29.2833 0.246095 30.8008 0.676762C32.1268 1.06129 32.9813 1.95338 33.3496 3.33767Z" fill="#1C4E5C"/>
</svg>