<svg width="24" height="24" viewBox="0 0 24 24" fill="none" xmlns="http://www.w3.org/2000/svg">
<path fill-rule="evenodd" clip-rule="evenodd" d="M13.9105 4.92566C15.8214 5.49652 17.4422 6.73932 18.499 8.37987C18.5502 8.37664 18.6018 8.375 18.6538 8.375C19.992 8.375 21.0769 9.45985 21.0769 10.7981C21.0769 11.7169 20.5654 12.5163 19.8116 12.9271C19.795 14.8481 19.1238 16.6128 18.01 18.0091C18.1517 18.317 18.2307 18.6596 18.2307 19.0207C18.2307 20.359 17.1458 21.4438 15.8076 21.4438C15.1351 21.4438 14.5266 21.1698 14.0876 20.7274C13.2846 20.9872 12.4279 21.1276 11.5385 21.1276C10.6047 21.1276 9.70697 20.9728 8.86965 20.6877C8.42808 21.1534 7.80349 21.4438 7.11106 21.4438C5.77283 21.4438 4.68799 20.359 4.68799 19.0207C4.68799 18.6104 4.78998 18.2239 4.96999 17.8852C3.91438 16.5091 3.28147 14.7917 3.26533 12.9272C2.51151 12.5164 2 11.717 2 10.7981C2 9.45985 3.08485 8.375 4.42307 8.375C4.47511 8.375 4.52677 8.37664 4.578 8.37987C5.63475 6.73929 7.25569 5.49647 9.16659 4.92562C9.39603 3.82602 10.3708 3 11.5385 3C12.7063 3 13.6811 3.82604 13.9105 4.92566ZM10.1155 5.42307C10.1155 5.42921 10.1155 5.43534 10.1156 5.44146C10.1168 5.53471 10.127 5.6258 10.1453 5.71389C10.1453 5.7139 10.1453 5.71391 10.1452 5.71391C10.2795 6.36036 10.8523 6.84614 11.5385 6.84614C12.2248 6.84614 12.7976 6.36038 12.9319 5.71393C12.9318 5.71393 12.9318 5.71392 12.9318 5.71392C12.9498 5.62725 12.96 5.5377 12.9614 5.44604C12.9616 5.4384 12.9616 5.43074 12.9616 5.42307C12.9616 4.63713 12.3245 4 11.5385 4C10.7526 4 10.1155 4.63713 10.1155 5.42307ZM13.8991 5.97225C13.6503 7.04593 12.6879 7.84614 11.5385 7.84614C10.3892 7.84614 9.42675 7.04591 9.17797 5.97221C7.71402 6.47423 6.46092 7.43023 5.58669 8.67217C6.33729 9.08389 6.84614 9.88155 6.84614 10.7981C6.84614 12.1363 5.7613 13.2211 4.42307 13.2211C4.37298 13.2211 4.32323 13.2196 4.27389 13.2166C4.34487 14.6625 4.83806 15.9975 5.63277 17.1007C6.04185 16.7853 6.55454 16.5977 7.11106 16.5977C8.44928 16.5977 9.53413 17.6825 9.53413 19.0207C9.53413 19.2967 9.48799 19.5619 9.40301 19.809C10.0783 20.0161 10.7954 20.1276 11.5385 20.1276C12.2293 20.1276 12.8975 20.0313 13.5306 19.8514C13.4361 19.5923 13.3845 19.3125 13.3845 19.0207C13.3845 17.6825 14.4694 16.5977 15.8076 16.5977C16.4101 16.5977 16.9613 16.8176 17.3852 17.1815C18.2145 16.0629 18.7304 14.698 18.8031 13.2166C18.7537 13.2196 18.7039 13.2211 18.6538 13.2211C17.3156 13.2211 16.2307 12.1363 16.2307 10.7981C16.2307 9.88152 16.7396 9.08382 17.4902 8.67212C16.616 7.43024 15.363 6.47428 13.8991 5.97225ZM18.0092 9.52904C17.5472 9.76417 17.2307 10.2442 17.2307 10.7981C17.2307 11.584 17.8678 12.2211 18.6538 12.2211C18.6978 12.2211 18.7413 12.2191 18.7843 12.2152C18.7893 12.2148 18.7943 12.2143 18.7993 12.2138C19.173 12.1758 19.5039 11.9933 19.7353 11.723C19.9482 11.4743 20.0769 11.1512 20.0769 10.7981C20.0769 10.1593 19.656 9.61879 19.0764 9.4388C19.0654 9.4354 19.0544 9.43213 19.0434 9.42899C18.9196 9.39382 18.7889 9.375 18.6538 9.375C18.4218 9.375 18.2027 9.43054 18.0092 9.52904ZM15.1667 20.2917C15.1668 20.2916 15.167 20.2915 15.1671 20.2914C14.8473 20.13 14.5967 19.8513 14.4717 19.5119C14.4717 19.5119 14.4716 19.5119 14.4716 19.5119C14.4153 19.3588 14.3845 19.1934 14.3845 19.0207C14.3845 18.2348 15.0217 17.5977 15.8076 17.5977C16.5935 17.5977 17.2307 18.2348 17.2307 19.0207C17.2307 19.8067 16.5935 20.4438 15.8076 20.4438C15.577 20.4438 15.3593 20.389 15.1667 20.2917ZM8.46832 19.4497C8.51107 19.3144 8.53413 19.1702 8.53413 19.0207C8.53413 18.2348 7.897 17.5977 7.11106 17.5977C6.32512 17.5977 5.68799 18.2348 5.68799 19.0207C5.68799 19.8067 6.32512 20.4438 7.11106 20.4438C7.37227 20.4438 7.61704 20.3734 7.82745 20.2506C7.82732 20.2505 7.82718 20.2505 7.82704 20.2504C8.12937 20.074 8.3608 19.7894 8.46819 19.4497C8.46824 19.4497 8.46828 19.4497 8.46832 19.4497ZM4.29268 12.2152C4.33562 12.2191 4.37911 12.2211 4.42307 12.2211C5.20901 12.2211 5.84614 11.584 5.84614 10.7981C5.84614 10.0121 5.20901 9.375 4.42307 9.375C3.63713 9.375 3 10.0121 3 10.7981C3 11.1513 3.12866 11.4744 3.34167 11.7232C3.34169 11.723 3.3417 11.7229 3.34172 11.7228C3.57622 11.9966 3.91292 12.1803 4.29272 12.2148C4.29271 12.215 4.2927 12.2151 4.29268 12.2152Z" fill="#012E3A"/>
</svg>

