<svg width="14" height="13" viewBox="0 0 14 13" fill="none" xmlns="http://www.w3.org/2000/svg">
<path d="M13.3893 7.97727H0.152378C0.0686843 7.97727 0.000207845 8.04375 0.000207845 8.125V9.23295C0.000207845 9.3142 0.0686843 9.38068 0.152378 9.38068H11.664L8.91927 12.7599C8.84128 12.856 8.91166 13 9.0391 13H10.4181C10.5113 13 10.5988 12.9594 10.6578 12.8874L13.8686 8.93381C14.1824 8.54602 13.899 7.97727 13.3893 7.97727ZM13.8477 3.61932H2.33602L5.08078 0.240057C5.15877 0.144034 5.08839 0 4.96095 0H3.58191C3.4887 0 3.40121 0.0406251 3.34224 0.112642L0.131454 4.06619C-0.182396 4.45398 0.10102 5.02273 0.608887 5.02273H7.22828H13.8477C13.9314 5.02273 13.9998 4.95625 13.9998 4.875V3.76705C13.9998 3.6858 13.9314 3.61932 13.8477 3.61932Z" fill="white"/>
</svg>
