<svg xmlns="http://www.w3.org/2000/svg" fill="none" viewBox="0 0 522 102">
<g clip-path="url(#clip0_10359_103632)">
<path d="M164.695 38.6364C164.695 54.5684 151.779 67.4838 135.847 67.4838C119.915 67.4838 107 54.5684 107 38.6364C107 22.7045 119.915 9.78906 135.847 9.78906C151.779 9.78906 164.695 22.7045 164.695 38.6364Z" fill="white"/>
<path fill-rule="evenodd" clip-rule="evenodd" d="M135.847 61.9852C148.743 61.9852 159.196 51.5316 159.196 38.6364C159.196 25.7413 148.743 15.2877 135.847 15.2877C122.952 15.2877 112.499 25.7413 112.499 38.6364C112.499 51.5316 122.952 61.9852 135.847 61.9852ZM135.847 67.4838C151.779 67.4838 164.695 54.5684 164.695 38.6364C164.695 22.7045 151.779 9.78906 135.847 9.78906C119.915 9.78906 107 22.7045 107 38.6364C107 54.5684 119.915 67.4838 135.847 67.4838Z" fill="url(#paint0_linear_10359_103632)"/>
<mask id="path-3-inside-1_10359_103632" fill="white">
<path fill-rule="evenodd" clip-rule="evenodd" d="M156.789 58.4759C161.689 53.3055 164.695 46.322 164.695 38.6364C164.695 22.7045 151.779 9.78906 135.847 9.78906C119.915 9.78906 107 22.7045 107 38.6364C107 46.3466 110.025 53.3503 114.953 58.5256C115.678 50.1945 122.692 43.6336 131.21 43.6336H140.536C149.035 43.6336 156.04 50.1684 156.789 58.4759ZM135.873 38.9708C130.089 38.9708 125.382 34.2638 125.382 28.4796C125.382 22.6954 130.089 17.9883 135.873 17.9883C141.657 17.9883 146.364 22.6954 146.364 28.4796C146.364 34.2638 141.657 38.9708 135.873 38.9708Z"/>
</mask>
<path fill-rule="evenodd" clip-rule="evenodd" d="M156.789 58.4759C161.689 53.3055 164.695 46.322 164.695 38.6364C164.695 22.7045 151.779 9.78906 135.847 9.78906C119.915 9.78906 107 22.7045 107 38.6364C107 46.3466 110.025 53.3503 114.953 58.5256C115.678 50.1945 122.692 43.6336 131.21 43.6336H140.536C149.035 43.6336 156.04 50.1684 156.789 58.4759ZM135.873 38.9708C130.089 38.9708 125.382 34.2638 125.382 28.4796C125.382 22.6954 130.089 17.9883 135.873 17.9883C141.657 17.9883 146.364 22.6954 146.364 28.4796C146.364 34.2638 141.657 38.9708 135.873 38.9708Z" fill="url(#paint1_linear_10359_103632)"/>
<path d="M156.789 58.4759L151.313 58.9699L152.407 71.0944L160.781 62.2582L156.789 58.4759ZM114.953 58.5256L110.97 62.3173L119.373 71.1422L120.43 59.0028L114.953 58.5256ZM159.196 38.6364C159.196 44.8595 156.769 50.5039 152.798 54.6936L160.781 62.2582C166.61 56.1072 170.193 47.7844 170.193 38.6364H159.196ZM135.847 15.2877C148.743 15.2877 159.196 25.7413 159.196 38.6364H170.193C170.193 19.6677 154.816 4.29046 135.847 4.29046V15.2877ZM112.499 38.6364C112.499 25.7413 122.952 15.2877 135.847 15.2877V4.29046C116.879 4.29046 101.501 19.6677 101.501 38.6364H112.499ZM118.935 54.7339C114.941 50.5401 112.499 44.8794 112.499 38.6364H101.501C101.501 47.8139 105.108 56.1606 110.97 62.3173L118.935 54.7339ZM131.21 38.135C119.813 38.135 110.445 46.9039 109.475 58.0485L120.43 59.0028C120.911 53.485 125.572 49.1322 131.21 49.1322V38.135ZM140.536 38.135H131.21V49.1322H140.536V38.135ZM162.266 57.9819C161.263 46.8688 151.909 38.135 140.536 38.135V49.1322C146.161 49.1322 150.817 53.468 151.313 58.9699L162.266 57.9819ZM119.883 28.4796C119.883 37.3006 127.052 44.4695 135.873 44.4695V33.4722C133.126 33.4722 130.881 31.227 130.881 28.4796H119.883ZM135.873 12.4897C127.052 12.4897 119.883 19.6586 119.883 28.4796H130.881C130.881 25.7322 133.126 23.4869 135.873 23.4869V12.4897ZM151.863 28.4796C151.863 19.6586 144.694 12.4897 135.873 12.4897V23.4869C138.621 23.4869 140.866 25.7322 140.866 28.4796H151.863ZM135.873 44.4695C144.694 44.4695 151.863 37.3006 151.863 28.4796H140.866C140.866 31.227 138.621 33.4722 135.873 33.4722V44.4695Z" fill="url(#paint2_linear_10359_103632)" mask="url(#path-3-inside-1_10359_103632)"/>
<path fill-rule="evenodd" clip-rule="evenodd" d="M336.883 29.9391C336.883 29.5053 336.531 29.1536 336.097 29.1536L334.201 29.1536C333.767 29.1536 333.416 29.5053 333.416 29.9391C333.416 30.3729 333.767 30.7246 334.201 30.7246L336.097 30.7246C336.531 30.7246 336.883 30.3729 336.883 29.9391ZM328.919 29.9391C328.919 29.5053 328.568 29.1536 328.134 29.1536L324.342 29.1536C323.908 29.1536 323.556 29.5053 323.556 29.9391C323.556 30.3729 323.908 30.7246 324.342 30.7246L328.134 30.7246C328.568 30.7246 328.919 30.3729 328.919 29.9391ZM319.06 29.9391C319.06 29.5053 318.708 29.1536 318.275 29.1536L314.483 29.1536C314.049 29.1536 313.697 29.5053 313.697 29.9391C313.697 30.3729 314.049 30.7246 314.483 30.7246L318.275 30.7246C318.708 30.7246 319.06 30.3729 319.06 29.9391ZM309.201 29.9391C309.201 29.5053 308.849 29.1536 308.415 29.1536L304.623 29.1536C304.189 29.1536 303.838 29.5053 303.838 29.9391C303.838 30.3729 304.189 30.7246 304.623 30.7246L308.415 30.7246C308.849 30.7246 309.201 30.3729 309.201 29.9391ZM299.341 29.9391C299.341 29.5053 298.99 29.1536 298.556 29.1536L294.764 29.1536C294.33 29.1536 293.978 29.5053 293.978 29.9391C293.978 30.3729 294.33 30.7246 294.764 30.7246L298.556 30.7246C298.99 30.7246 299.341 30.3729 299.341 29.9391ZM289.482 29.9391C289.482 29.5053 289.13 29.1536 288.697 29.1536L284.922 29.1536C284.488 29.1536 284.137 29.5053 284.137 29.9391C284.137 30.3729 284.488 30.7246 284.922 30.7246L288.697 30.7246C289.13 30.7246 289.482 30.3729 289.482 29.9391ZM279.697 29.9391C279.697 29.5053 279.345 29.1536 278.911 29.1536L275.155 29.1536C274.721 29.1536 274.369 29.5053 274.369 29.9391C274.369 30.3729 274.721 30.7246 275.155 30.7246L278.911 30.7246C279.345 30.7246 279.697 30.3729 279.697 29.9391ZM269.93 29.9391C269.93 29.5053 269.578 29.1536 269.144 29.1536L265.387 29.1536C264.954 29.1536 264.602 29.5053 264.602 29.9391C264.602 30.3729 264.954 30.7246 265.387 30.7246L269.144 30.7246C269.578 30.7246 269.93 30.3729 269.93 29.9391ZM260.162 29.9391C260.162 29.5053 259.81 29.1536 259.377 29.1536L255.62 29.1536C255.186 29.1536 254.834 29.5053 254.834 29.9391C254.834 30.3729 255.186 30.7246 255.62 30.7246L259.377 30.7246C259.81 30.7246 260.162 30.3729 260.162 29.9391ZM250.395 29.9391C250.395 29.5053 250.043 29.1536 249.609 29.1536L245.853 29.1536C245.419 29.1536 245.067 29.5053 245.067 29.9391C245.067 30.3729 245.419 30.7246 245.853 30.7246L249.609 30.7246C250.043 30.7246 250.395 30.3729 250.395 29.9391ZM240.627 29.9391C240.627 29.5053 240.276 29.1536 239.842 29.1536L236.085 29.1536C235.651 29.1536 235.3 29.5053 235.3 29.9391C235.3 30.3729 235.651 30.7246 236.085 30.7246L239.842 30.7246C240.276 30.7246 240.627 30.3729 240.627 29.9391ZM230.86 29.9391C230.86 29.5053 230.508 29.1536 230.074 29.1536L226.318 29.1536C225.884 29.1536 225.532 29.5053 225.532 29.9391C225.532 30.3729 225.884 30.7246 226.318 30.7246L230.074 30.7246C230.508 30.7246 230.86 30.3729 230.86 29.9391ZM221.093 29.9391C221.093 29.5053 220.741 29.1536 220.307 29.1536L216.55 29.1536C216.116 29.1536 215.765 29.5053 215.765 29.9391C215.765 30.3729 216.116 30.7246 216.55 30.7246L220.307 30.7246C220.741 30.7246 221.093 30.3729 221.093 29.9391ZM211.325 29.9391C211.325 29.5053 210.973 29.1536 210.54 29.1536L206.783 29.1536C206.349 29.1536 205.997 29.5053 205.997 29.9391C205.997 30.3729 206.349 30.7246 206.783 30.7246L210.54 30.7246C210.973 30.7246 211.325 30.3729 211.325 29.9391ZM201.558 29.9391C201.558 29.5053 201.206 29.1536 200.772 29.1536L197.016 29.1536C196.582 29.1536 196.23 29.5053 196.23 29.9391C196.23 30.3729 196.582 30.7246 197.016 30.7246L200.772 30.7246C201.206 30.7246 201.558 30.3729 201.558 29.9391ZM191.79 29.9391C191.79 29.5053 191.439 29.1536 191.005 29.1536L187.248 29.1536C186.814 29.1536 186.463 29.5053 186.463 29.9391C186.463 30.3729 186.814 30.7246 187.248 30.7246L191.005 30.7246C191.439 30.7246 191.79 30.3729 191.79 29.9391ZM182.023 29.9391C182.023 29.5053 181.671 29.1536 181.237 29.1536L179.359 29.1536C178.925 29.1536 178.573 29.5053 178.573 29.9391C178.573 30.3729 178.925 30.7246 179.359 30.7246L181.237 30.7246C181.671 30.7246 182.023 30.3729 182.023 29.9391Z" fill="url(#paint3_linear_10359_103632)"/>
<path fill-rule="evenodd" clip-rule="evenodd" d="M334.068 37.3024C334.363 37.621 334.86 37.6404 335.178 37.3459L343.042 30.0749C343.206 29.9237 343.297 29.7102 343.294 29.4876C343.291 29.2649 343.194 29.054 343.027 28.9072L335.162 22.0189C334.836 21.733 334.34 21.7658 334.054 22.0922C333.768 22.4185 333.801 22.9148 334.127 23.2006L341.335 29.5139L334.112 36.1924C333.793 36.4869 333.774 36.9839 334.068 37.3024Z" fill="#063642"/>
<path fill-rule="evenodd" clip-rule="evenodd" d="M184.973 49.1676C184.973 48.7338 185.324 48.3821 185.758 48.3821H187.654C188.088 48.3821 188.44 48.7338 188.44 49.1676C188.44 49.6014 188.088 49.9531 187.654 49.9531H185.758C185.324 49.9531 184.973 49.6014 184.973 49.1676ZM192.936 49.1676C192.936 48.7338 193.288 48.3821 193.721 48.3821H197.514C197.947 48.3821 198.299 48.7338 198.299 49.1676C198.299 49.6014 197.947 49.9531 197.514 49.9531H193.721C193.288 49.9531 192.936 49.6014 192.936 49.1676ZM202.795 49.1676C202.795 48.7338 203.147 48.3821 203.581 48.3821H207.373C207.807 48.3821 208.158 48.7338 208.158 49.1676C208.158 49.6014 207.807 49.9531 207.373 49.9531H203.581C203.147 49.9531 202.795 49.6014 202.795 49.1676ZM212.655 49.1676C212.655 48.7338 213.006 48.3821 213.44 48.3821H217.232C217.666 48.3821 218.018 48.7338 218.018 49.1676C218.018 49.6014 217.666 49.9531 217.232 49.9531H213.44C213.006 49.9531 212.655 49.6014 212.655 49.1676ZM222.514 49.1676C222.514 48.7338 222.866 48.3821 223.3 48.3821H227.092C227.525 48.3821 227.877 48.7338 227.877 49.1676C227.877 49.6014 227.525 49.9531 227.092 49.9531H223.3C222.866 49.9531 222.514 49.6014 222.514 49.1676ZM232.373 49.1676C232.373 48.7338 232.725 48.3821 233.159 48.3821H236.931C237.365 48.3821 237.716 48.7338 237.716 49.1676C237.716 49.6014 237.365 49.9531 236.931 49.9531H233.159C232.725 49.9531 232.373 49.6014 232.373 49.1676ZM242.148 49.1676C242.148 48.7338 242.5 48.3821 242.934 48.3821L246.686 48.3821C247.12 48.3821 247.471 48.7338 247.471 49.1676C247.471 49.6014 247.12 49.9531 246.686 49.9531L242.934 49.9531C242.5 49.9531 242.148 49.6014 242.148 49.1676ZM251.903 49.1676C251.903 48.7338 252.255 48.3821 252.689 48.3821H256.441C256.875 48.3821 257.226 48.7338 257.226 49.1676C257.226 49.6014 256.875 49.9531 256.441 49.9531H252.689C252.255 49.9531 251.903 49.6014 251.903 49.1676ZM261.658 49.1676C261.658 48.7338 262.01 48.3821 262.444 48.3821H266.196C266.63 48.3821 266.981 48.7338 266.981 49.1676C266.981 49.6014 266.63 49.9531 266.196 49.9531H262.444C262.01 49.9531 261.658 49.6014 261.658 49.1676ZM271.413 49.1676C271.413 48.7338 271.765 48.3821 272.199 48.3821H275.951C276.385 48.3821 276.736 48.7338 276.736 49.1676C276.736 49.6014 276.385 49.9531 275.951 49.9531H272.199C271.765 49.9531 271.413 49.6014 271.413 49.1676ZM281.168 49.1676C281.168 48.7338 281.52 48.3821 281.954 48.3821H285.706C286.14 48.3821 286.491 48.7338 286.491 49.1676C286.491 49.6014 286.14 49.9531 285.706 49.9531H281.954C281.52 49.9531 281.168 49.6014 281.168 49.1676ZM290.923 49.1676C290.923 48.7338 291.275 48.3821 291.709 48.3821H295.461C295.895 48.3821 296.246 48.7338 296.246 49.1676C296.246 49.6014 295.895 49.9531 295.461 49.9531H291.709C291.275 49.9531 290.923 49.6014 290.923 49.1676ZM300.678 49.1676C300.678 48.7338 301.03 48.3821 301.464 48.3821H305.216C305.65 48.3821 306.001 48.7338 306.001 49.1676C306.001 49.6014 305.65 49.9531 305.216 49.9531H301.464C301.03 49.9531 300.678 49.6014 300.678 49.1676ZM310.433 49.1676C310.433 48.7338 310.785 48.3821 311.219 48.3821H314.971C315.405 48.3821 315.756 48.7338 315.756 49.1676C315.756 49.6014 315.405 49.9531 314.971 49.9531H311.219C310.785 49.9531 310.433 49.6014 310.433 49.1676ZM320.188 49.1676C320.188 48.7338 320.54 48.3821 320.974 48.3821H324.726C325.16 48.3821 325.511 48.7338 325.511 49.1676C325.511 49.6014 325.16 49.9531 324.726 49.9531H320.974C320.54 49.9531 320.188 49.6014 320.188 49.1676ZM329.943 49.1676C329.943 48.7338 330.295 48.3821 330.729 48.3821H334.481C334.915 48.3821 335.266 48.7338 335.266 49.1676C335.266 49.6014 334.915 49.9531 334.481 49.9531H330.729C330.295 49.9531 329.943 49.6014 329.943 49.1676ZM339.698 49.1676C339.698 48.7338 340.05 48.3821 340.484 48.3821H342.36C342.794 48.3821 343.145 48.7338 343.145 49.1676C343.145 49.6014 342.794 49.9531 342.36 49.9531H340.484C340.05 49.9531 339.698 49.6014 339.698 49.1676Z" fill="url(#paint4_linear_10359_103632)"/>
<path fill-rule="evenodd" clip-rule="evenodd" d="M187.807 56.2226C187.529 56.5561 187.034 56.6017 186.7 56.3243L178.845 49.7917C178.663 49.6401 178.559 49.4144 178.562 49.1774C178.565 48.9403 178.675 48.7174 178.861 48.5707L186.717 42.382C187.057 42.1135 187.551 42.1721 187.82 42.5128C188.088 42.8536 188.03 43.3475 187.689 43.616L180.596 49.2042L187.705 55.1164C188.039 55.3938 188.084 55.889 187.807 56.2226Z" fill="#27C1C7"/>
<path d="M261.092 11.1765H263.85C264.355 11.1765 264.865 11.2424 265.377 11.3743C265.89 11.5062 266.352 11.726 266.762 12.0337C267.172 12.334 267.506 12.7333 267.762 13.2315C268.019 13.7224 268.147 14.3341 268.147 15.0668C268.147 15.7481 268.019 16.3342 267.762 16.8251C267.506 17.3159 267.172 17.7189 266.762 18.0339C266.352 18.3489 265.89 18.5834 265.377 18.7372C264.865 18.8838 264.355 18.957 263.85 18.957H261.092V11.1765ZM263.63 17.7482C263.989 17.7482 264.348 17.7079 264.707 17.6273C265.066 17.5394 265.388 17.3965 265.674 17.1987C265.967 16.9936 266.205 16.7188 266.388 16.3745C266.572 16.0302 266.663 15.5943 266.663 15.0668C266.663 14.51 266.572 14.0557 266.388 13.7041C266.205 13.3524 265.967 13.0777 265.674 12.8799C265.388 12.682 265.066 12.5465 264.707 12.4732C264.348 12.4 263.989 12.3633 263.63 12.3633H262.476V17.7482H263.63ZM272.205 11.1765H273.403L276.754 18.957H275.172L274.447 17.1767H271.073L270.37 18.957H268.82L272.205 11.1765ZM273.963 15.9899L272.765 12.8249L271.545 15.9899H273.963ZM278.074 11.1765H279.458V18.957H278.074V11.1765Z" fill="#012E3A"/>
<path d="M259.645 62.9461H258.645V61.8911H259.645V61.1108C259.645 60.7958 259.678 60.4954 259.743 60.2097C259.817 59.9166 259.934 59.6602 260.095 59.4404C260.264 59.2206 260.483 59.0485 260.755 58.9239C261.026 58.792 261.366 58.7261 261.777 58.7261C261.923 58.7261 262.044 58.7334 262.139 58.7481C262.242 58.7554 262.344 58.7737 262.447 58.803L262.359 59.924C262.286 59.902 262.205 59.8837 262.117 59.869C262.037 59.8544 261.949 59.847 261.853 59.847C261.663 59.847 261.509 59.8837 261.392 59.9569C261.275 60.0302 261.183 60.1254 261.117 60.2426C261.059 60.3599 261.018 60.4881 260.996 60.6273C260.974 60.7665 260.963 60.902 260.963 61.0339V61.8911H262.183V62.9461H260.963V67.166H259.645V62.9461ZM263.614 59.3855H266.373C266.878 59.3855 267.387 59.4514 267.9 59.5833C268.413 59.7152 268.874 59.9349 269.285 60.2426C269.695 60.543 270.028 60.9423 270.285 61.4405C270.541 61.9314 270.669 62.5431 270.669 63.2757C270.669 63.9571 270.541 64.5432 270.285 65.0341C270.028 65.5249 269.695 65.9279 269.285 66.2429C268.874 66.5579 268.413 66.7924 267.9 66.9462C267.387 67.0928 266.878 67.166 266.373 67.166H263.614V59.3855ZM266.153 65.9572C266.512 65.9572 266.871 65.9169 267.23 65.8363C267.589 65.7484 267.911 65.6055 268.197 65.4077C268.49 65.2026 268.728 64.9278 268.911 64.5835C269.094 64.2392 269.186 63.8032 269.186 63.2757C269.186 62.7189 269.094 62.2647 268.911 61.913C268.728 61.5614 268.49 61.2866 268.197 61.0888C267.911 60.891 267.589 60.7555 267.23 60.6822C266.871 60.609 266.512 60.5723 266.153 60.5723H264.999V65.9572H266.153ZM274.727 59.3855H275.925L279.277 67.166H277.695L276.969 65.3857H273.595L272.892 67.166H271.343L274.727 59.3855ZM276.486 64.1989L275.288 61.0339L274.068 64.1989H276.486ZM280.596 59.3855H281.981V67.166H280.596V59.3855Z" fill="#012E3A"/>
<path d="M115.206 87.9227H116.822V95.564H120.681V97H115.206V87.9227ZM126.042 93.3075C126.042 93.1109 126.012 92.9229 125.952 92.7434C125.901 92.5639 125.816 92.4058 125.696 92.269C125.576 92.1323 125.423 92.0254 125.234 91.9485C125.055 91.863 124.841 91.8203 124.593 91.8203C124.132 91.8203 123.739 91.9613 123.414 92.2434C123.098 92.5169 122.922 92.8716 122.888 93.3075H126.042ZM127.581 93.9999C127.581 94.0683 127.581 94.1366 127.581 94.205C127.581 94.2734 127.576 94.3418 127.568 94.4101H122.888C122.905 94.6324 122.961 94.8375 123.055 95.0256C123.157 95.2051 123.29 95.3632 123.452 95.4999C123.615 95.6281 123.799 95.7307 124.004 95.8076C124.209 95.8846 124.422 95.923 124.645 95.923C125.029 95.923 125.354 95.8547 125.619 95.7179C125.884 95.5726 126.102 95.376 126.273 95.1281L127.299 95.9487C126.692 96.7692 125.811 97.1795 124.658 97.1795C124.179 97.1795 123.739 97.1068 123.337 96.9615C122.935 96.8077 122.585 96.594 122.286 96.3205C121.995 96.047 121.764 95.7136 121.593 95.3204C121.431 94.9187 121.35 94.4657 121.35 93.9614C121.35 93.4657 121.431 93.0169 121.593 92.6152C121.764 92.2049 121.995 91.8588 122.286 91.5767C122.576 91.2861 122.918 91.0639 123.311 90.91C123.713 90.7476 124.145 90.6664 124.606 90.6664C125.034 90.6664 125.427 90.7391 125.786 90.8844C126.153 91.0211 126.47 91.2305 126.735 91.5126C127 91.7861 127.205 92.1323 127.35 92.5511C127.504 92.9614 127.581 93.4443 127.581 93.9999ZM129.327 90.8459H130.789V91.8331H130.814C130.951 91.5254 131.186 91.2562 131.52 91.0254C131.862 90.7861 132.263 90.6664 132.725 90.6664C133.127 90.6664 133.468 90.7391 133.75 90.8844C134.041 91.0211 134.276 91.2049 134.456 91.4357C134.644 91.6664 134.78 91.9314 134.866 92.2306C134.951 92.5297 134.994 92.8374 134.994 93.1537V97H133.456V93.5896C133.456 93.4101 133.443 93.2221 133.417 93.0255C133.391 92.8289 133.336 92.6537 133.25 92.4998C133.165 92.3374 133.045 92.2049 132.891 92.1024C132.746 91.9998 132.55 91.9485 132.302 91.9485C132.054 91.9485 131.84 91.9998 131.661 92.1024C131.481 92.1964 131.332 92.3203 131.212 92.4742C131.101 92.628 131.015 92.8075 130.955 93.0127C130.896 93.2092 130.866 93.4101 130.866 93.6152V97H129.327V90.8459ZM143.303 97H141.841V96.0769H141.815C141.602 96.4359 141.302 96.7094 140.918 96.8974C140.542 97.0855 140.136 97.1795 139.7 97.1795C139.23 97.1795 138.807 97.094 138.431 96.9231C138.063 96.7436 137.747 96.5085 137.482 96.2179C137.225 95.9188 137.025 95.5726 136.879 95.1794C136.742 94.7777 136.674 94.3503 136.674 93.8973C136.674 93.4443 136.747 93.0212 136.892 92.628C137.037 92.2348 137.242 91.8929 137.507 91.6023C137.772 91.3117 138.089 91.0852 138.456 90.9228C138.824 90.7519 139.225 90.6664 139.661 90.6664C139.943 90.6664 140.196 90.7006 140.418 90.769C140.64 90.8288 140.832 90.9057 140.995 90.9997C141.166 91.0938 141.311 91.1963 141.431 91.3075C141.55 91.4186 141.649 91.5254 141.726 91.628H141.764V87.3073H143.303V97ZM138.238 93.8973C138.238 94.1366 138.272 94.376 138.341 94.6153C138.418 94.8546 138.529 95.0683 138.674 95.2563C138.819 95.4444 139.003 95.5982 139.225 95.7179C139.448 95.8376 139.708 95.8974 140.008 95.8974C140.29 95.8974 140.542 95.8418 140.764 95.7307C140.986 95.6111 141.174 95.4572 141.328 95.2692C141.491 95.0811 141.61 94.8717 141.687 94.6409C141.773 94.4016 141.815 94.1623 141.815 93.9229C141.815 93.6836 141.773 93.4443 141.687 93.205C141.61 92.9656 141.491 92.752 141.328 92.5639C141.174 92.3759 140.986 92.222 140.764 92.1024C140.542 91.9827 140.29 91.9229 140.008 91.9229C139.708 91.9229 139.448 91.9827 139.225 92.1024C139.003 92.2135 138.819 92.3631 138.674 92.5511C138.529 92.7391 138.418 92.9528 138.341 93.1921C138.272 93.4229 138.238 93.658 138.238 93.8973ZM149.762 93.3075C149.762 93.1109 149.732 92.9229 149.672 92.7434C149.621 92.5639 149.535 92.4058 149.416 92.269C149.296 92.1323 149.142 92.0254 148.954 91.9485C148.774 91.863 148.561 91.8203 148.313 91.8203C147.851 91.8203 147.458 91.9613 147.133 92.2434C146.817 92.5169 146.642 92.8716 146.608 93.3075H149.762ZM151.3 93.9999C151.3 94.0683 151.3 94.1366 151.3 94.205C151.3 94.2734 151.296 94.3418 151.287 94.4101H146.608C146.625 94.6324 146.68 94.8375 146.774 95.0256C146.877 95.2051 147.009 95.3632 147.172 95.4999C147.334 95.6281 147.518 95.7307 147.723 95.8076C147.928 95.8846 148.142 95.923 148.364 95.923C148.749 95.923 149.074 95.8547 149.339 95.7179C149.604 95.5726 149.822 95.376 149.992 95.1281L151.018 95.9487C150.411 96.7692 149.531 97.1795 148.377 97.1795C147.898 97.1795 147.458 97.1068 147.056 96.9615C146.655 96.8077 146.304 96.594 146.005 96.3205C145.714 96.047 145.484 95.7136 145.313 95.3204C145.15 94.9187 145.069 94.4657 145.069 93.9614C145.069 93.4657 145.15 93.0169 145.313 92.6152C145.484 92.2049 145.714 91.8588 146.005 91.5767C146.296 91.2861 146.638 91.0639 147.031 90.91C147.433 90.7476 147.864 90.6664 148.326 90.6664C148.753 90.6664 149.146 90.7391 149.505 90.8844C149.873 91.0211 150.189 91.2305 150.454 91.5126C150.719 91.7861 150.924 92.1323 151.069 92.5511C151.223 92.9614 151.3 93.4443 151.3 93.9999ZM153.047 90.8459H154.521V91.8716H154.547C154.718 91.5126 154.957 91.222 155.265 90.9997C155.572 90.7775 155.931 90.6664 156.342 90.6664C156.402 90.6664 156.466 90.6707 156.534 90.6792C156.602 90.6792 156.662 90.6878 156.713 90.7049V92.1152C156.611 92.0895 156.521 92.0724 156.444 92.0639C156.376 92.0553 156.307 92.0511 156.239 92.0511C155.889 92.0511 155.607 92.1152 155.393 92.2434C155.179 92.3716 155.013 92.5255 154.893 92.7049C154.773 92.8844 154.692 93.0682 154.649 93.2563C154.607 93.4443 154.585 93.5939 154.585 93.705V97H153.047V90.8459Z" fill="#012E3A"/>
<path d="M339.286 88.1336H345.145V89.5439H340.901V92.0312H344.902V93.3903H340.901V97.2109H339.286V88.1336ZM346.615 91.0568H348.154V97.2109H346.615V91.0568ZM346.397 88.967C346.397 88.7191 346.487 88.5054 346.667 88.3259C346.855 88.1379 347.09 88.0439 347.372 88.0439C347.654 88.0439 347.889 88.1336 348.077 88.3131C348.273 88.4841 348.372 88.702 348.372 88.967C348.372 89.232 348.273 89.4542 348.077 89.6337C347.889 89.8046 347.654 89.8901 347.372 89.8901C347.09 89.8901 346.855 89.8004 346.667 89.6209C346.487 89.4328 346.397 89.2149 346.397 88.967ZM351.841 93.9416L349.623 91.0568H351.469L352.802 92.9672L354.174 91.0568H355.944L353.738 93.9416L356.251 97.2109H354.379L352.777 94.9673L351.161 97.2109H349.341L351.841 93.9416ZM361.628 93.5185C361.628 93.3219 361.598 93.1338 361.538 92.9543C361.487 92.7749 361.401 92.6167 361.282 92.48C361.162 92.3432 361.008 92.2364 360.82 92.1594C360.641 92.074 360.427 92.0312 360.179 92.0312C359.717 92.0312 359.324 92.1723 358.999 92.4543C358.683 92.7278 358.508 93.0826 358.474 93.5185H361.628ZM363.166 94.2108C363.166 94.2792 363.166 94.3476 363.166 94.4159C363.166 94.4843 363.162 94.5527 363.153 94.6211H358.474C358.491 94.8433 358.546 95.0485 358.64 95.2365C358.743 95.416 358.875 95.5741 359.038 95.7109C359.2 95.8391 359.384 95.9417 359.589 96.0186C359.794 96.0955 360.008 96.134 360.23 96.134C360.615 96.134 360.94 96.0656 361.205 95.9288C361.47 95.7835 361.688 95.5869 361.859 95.3391L362.884 96.1596C362.277 96.9802 361.397 97.3904 360.243 97.3904C359.764 97.3904 359.324 97.3178 358.922 97.1725C358.521 97.0186 358.17 96.8049 357.871 96.5314C357.581 96.2579 357.35 95.9246 357.179 95.5314C357.016 95.1297 356.935 94.6766 356.935 94.1723C356.935 93.6766 357.016 93.2279 357.179 92.8261C357.35 92.4159 357.581 92.0697 357.871 91.7876C358.162 91.497 358.504 91.2748 358.897 91.1209C359.299 90.9585 359.73 90.8773 360.192 90.8773C360.619 90.8773 361.012 90.95 361.371 91.0953C361.739 91.2321 362.055 91.4415 362.32 91.7235C362.585 91.997 362.79 92.3432 362.935 92.762C363.089 93.1723 363.166 93.6552 363.166 94.2108ZM371.169 97.2109H369.708V96.2878H369.682C369.468 96.6468 369.169 96.9203 368.785 97.1084C368.409 97.2964 368.003 97.3904 367.567 97.3904C367.097 97.3904 366.673 97.305 366.297 97.134C365.93 96.9545 365.614 96.7195 365.349 96.4289C365.092 96.1297 364.891 95.7835 364.746 95.3903C364.609 94.9886 364.541 94.5613 364.541 94.1082C364.541 93.6552 364.614 93.2321 364.759 92.839C364.904 92.4458 365.109 92.1039 365.374 91.8133C365.639 91.5227 365.956 91.2962 366.323 91.1338C366.691 90.9628 367.092 90.8773 367.528 90.8773C367.81 90.8773 368.062 90.9115 368.285 90.9799C368.507 91.0397 368.699 91.1167 368.862 91.2107C369.033 91.3047 369.178 91.4073 369.298 91.5184C369.417 91.6295 369.515 91.7363 369.592 91.8389H369.631V87.5182H371.169V97.2109ZM366.105 94.1082C366.105 94.3476 366.139 94.5869 366.208 94.8262C366.285 95.0655 366.396 95.2792 366.541 95.4673C366.686 95.6553 366.87 95.8092 367.092 95.9288C367.315 96.0485 367.575 96.1083 367.874 96.1083C368.156 96.1083 368.409 96.0528 368.631 95.9417C368.853 95.822 369.041 95.6681 369.195 95.4801C369.357 95.2921 369.477 95.0826 369.554 94.8519C369.639 94.6125 369.682 94.3732 369.682 94.1339C369.682 93.8946 369.639 93.6552 369.554 93.4159C369.477 93.1766 369.357 92.9629 369.195 92.7749C369.041 92.5868 368.853 92.433 368.631 92.3133C368.409 92.1936 368.156 92.1338 367.874 92.1338C367.575 92.1338 367.315 92.1936 367.092 92.3133C366.87 92.4244 366.686 92.574 366.541 92.762C366.396 92.9501 366.285 93.1638 366.208 93.4031C366.139 93.6339 366.105 93.8689 366.105 94.1082ZM376.834 88.1336H379.988C380.415 88.1336 380.829 88.1806 381.231 88.2747C381.633 88.3601 381.988 88.5054 382.295 88.7106C382.612 88.9157 382.864 89.185 383.052 89.5183C383.24 89.8517 383.334 90.2577 383.334 90.7363C383.334 91.3945 383.146 91.9329 382.77 92.3518C382.402 92.762 381.898 93.0398 381.257 93.1851L383.68 97.2109H381.731L379.629 93.3646H378.449V97.2109H376.834V88.1336ZM379.77 92.0441C380 92.0441 380.231 92.027 380.462 91.9928C380.693 91.9586 380.898 91.8945 381.077 91.8005C381.265 91.7064 381.419 91.5739 381.539 91.403C381.659 91.2235 381.718 90.997 381.718 90.7235C381.718 90.4756 381.663 90.2747 381.552 90.1209C381.441 89.9585 381.3 89.8303 381.129 89.7363C380.958 89.6422 380.761 89.5781 380.539 89.5439C380.325 89.5098 380.116 89.4927 379.911 89.4927H378.449V92.0441H379.77ZM388.747 96.4289H388.708C388.554 96.7024 388.307 96.9289 387.965 97.1084C387.623 97.2793 387.234 97.3648 386.798 97.3648C386.55 97.3648 386.289 97.3306 386.016 97.2622C385.751 97.2024 385.503 97.0998 385.272 96.9545C385.05 96.8007 384.862 96.6041 384.708 96.3647C384.563 96.1169 384.49 95.8134 384.49 95.4545C384.49 94.9929 384.618 94.6254 384.875 94.3518C385.14 94.0783 385.477 93.8689 385.888 93.7236C386.298 93.5783 386.751 93.4843 387.247 93.4415C387.751 93.3903 388.242 93.3646 388.721 93.3646V93.2108C388.721 92.8261 388.58 92.5441 388.298 92.3646C388.025 92.1765 387.695 92.0825 387.311 92.0825C386.986 92.0825 386.674 92.1509 386.375 92.2877C386.076 92.4244 385.828 92.5911 385.631 92.7877L384.836 91.8517C385.187 91.5269 385.589 91.2833 386.042 91.1209C386.503 90.9585 386.969 90.8773 387.439 90.8773C387.986 90.8773 388.435 90.9543 388.785 91.1081C389.144 91.262 389.426 91.4628 389.631 91.7107C389.837 91.9586 389.978 92.2364 390.055 92.5441C390.14 92.8518 390.183 93.1595 390.183 93.4672V97.2109H388.747V96.4289ZM388.721 94.4031H388.375C388.127 94.4031 387.866 94.4159 387.593 94.4416C387.319 94.4587 387.067 94.5057 386.836 94.5826C386.606 94.651 386.413 94.7536 386.259 94.8903C386.106 95.0185 386.029 95.198 386.029 95.4288C386.029 95.5741 386.059 95.6981 386.118 95.8006C386.187 95.8946 386.272 95.9716 386.375 96.0314C386.477 96.0912 386.593 96.134 386.721 96.1596C386.849 96.1853 386.977 96.1981 387.106 96.1981C387.636 96.1981 388.037 96.057 388.311 95.775C388.584 95.4929 388.721 95.1083 388.721 94.6211V94.4031ZM391.222 92.2877V91.0568H392.299V89.2747H393.812V91.0568H395.35V92.2877H393.812V95.1467C393.812 95.4203 393.859 95.6468 393.953 95.8263C394.055 96.0058 394.277 96.0955 394.619 96.0955C394.722 96.0955 394.833 96.087 394.953 96.0699C395.072 96.0442 395.179 96.01 395.273 95.9673L395.324 97.1725C395.188 97.2238 395.025 97.2622 394.837 97.2879C394.649 97.3221 394.47 97.3391 394.299 97.3391C393.889 97.3391 393.555 97.2836 393.299 97.1725C393.042 97.0528 392.837 96.8947 392.683 96.6981C392.538 96.493 392.435 96.2622 392.376 96.0058C392.324 95.7408 392.299 95.4587 392.299 95.1596V92.2877H391.222ZM401.053 93.5185C401.053 93.3219 401.024 93.1338 400.964 92.9543C400.912 92.7749 400.827 92.6167 400.707 92.48C400.588 92.3432 400.434 92.2364 400.246 92.1594C400.066 92.074 399.853 92.0312 399.605 92.0312C399.143 92.0312 398.75 92.1723 398.425 92.4543C398.109 92.7278 397.934 93.0826 397.899 93.5185H401.053ZM402.592 94.2108C402.592 94.2792 402.592 94.3476 402.592 94.4159C402.592 94.4843 402.588 94.5527 402.579 94.6211H397.899C397.917 94.8433 397.972 95.0485 398.066 95.2365C398.169 95.416 398.301 95.5741 398.464 95.7109C398.626 95.8391 398.81 95.9417 399.015 96.0186C399.22 96.0955 399.434 96.134 399.656 96.134C400.041 96.134 400.365 96.0656 400.63 95.9288C400.895 95.7835 401.113 95.5869 401.284 95.3391L402.31 96.1596C401.703 96.9802 400.823 97.3904 399.669 97.3904C399.19 97.3904 398.75 97.3178 398.348 97.1725C397.947 97.0186 397.596 96.8049 397.297 96.5314C397.006 96.2579 396.776 95.9246 396.605 95.5314C396.442 95.1297 396.361 94.6766 396.361 94.1723C396.361 93.6766 396.442 93.2279 396.605 92.8261C396.776 92.4159 397.006 92.0697 397.297 91.7876C397.588 91.497 397.929 91.2748 398.323 91.1209C398.724 90.9585 399.156 90.8773 399.618 90.8773C400.045 90.8773 400.438 90.95 400.797 91.0953C401.165 91.2321 401.481 91.4415 401.746 91.7235C402.011 91.997 402.216 92.3432 402.361 92.762C402.515 93.1723 402.592 93.6552 402.592 94.2108ZM407.877 88.1336H410.839C411.36 88.1336 411.83 88.1806 412.249 88.2747C412.668 88.3687 413.027 88.5225 413.326 88.7362C413.625 88.9499 413.856 89.2234 414.018 89.5568C414.181 89.8901 414.262 90.2918 414.262 90.7619C414.262 91.2662 414.168 91.6893 413.98 92.0312C413.792 92.3731 413.535 92.6509 413.211 92.8646C412.894 93.0697 412.523 93.2193 412.095 93.3133C411.668 93.4074 411.215 93.4544 410.736 93.4544H409.493V97.2109H407.877V88.1336ZM410.621 92.0953C410.886 92.0953 411.138 92.0782 411.377 92.0441C411.617 92.0013 411.83 91.9329 412.018 91.8389C412.206 91.7363 412.356 91.5996 412.467 91.4286C412.578 91.2577 412.634 91.0355 412.634 90.7619C412.634 90.497 412.578 90.2833 412.467 90.1209C412.356 89.9499 412.206 89.8175 412.018 89.7234C411.839 89.6294 411.629 89.5696 411.39 89.5439C411.159 89.5098 410.92 89.4927 410.672 89.4927H409.493V92.0953H410.621ZM414.684 94.1082C414.684 93.621 414.77 93.1809 414.94 92.7877C415.12 92.3859 415.359 92.0441 415.658 91.762C415.958 91.4799 416.312 91.262 416.723 91.1081C417.133 90.9543 417.569 90.8773 418.03 90.8773C418.492 90.8773 418.928 90.9543 419.338 91.1081C419.748 91.262 420.103 91.4799 420.402 91.762C420.701 92.0441 420.936 92.3859 421.107 92.7877C421.287 93.1809 421.377 93.621 421.377 94.1082C421.377 94.5954 421.287 95.0399 421.107 95.4416C420.936 95.8434 420.701 96.1895 420.402 96.4801C420.103 96.7622 419.748 96.9844 419.338 97.1468C418.928 97.3092 418.492 97.3904 418.03 97.3904C417.569 97.3904 417.133 97.3092 416.723 97.1468C416.312 96.9844 415.958 96.7622 415.658 96.4801C415.359 96.1895 415.12 95.8434 414.94 95.4416C414.77 95.0399 414.684 94.5954 414.684 94.1082ZM416.248 94.1082C416.248 94.3476 416.282 94.5869 416.351 94.8262C416.428 95.0655 416.539 95.2792 416.684 95.4673C416.829 95.6553 417.013 95.8092 417.235 95.9288C417.458 96.0485 417.723 96.1083 418.03 96.1083C418.338 96.1083 418.603 96.0485 418.825 95.9288C419.047 95.8092 419.231 95.6553 419.377 95.4673C419.522 95.2792 419.629 95.0655 419.697 94.8262C419.774 94.5869 419.812 94.3476 419.812 94.1082C419.812 93.8689 419.774 93.6339 419.697 93.4031C419.629 93.1638 419.522 92.9501 419.377 92.762C419.231 92.574 419.047 92.4244 418.825 92.3133C418.603 92.1936 418.338 92.1338 418.03 92.1338C417.723 92.1338 417.458 92.1936 417.235 92.3133C417.013 92.4244 416.829 92.574 416.684 92.762C416.539 92.9501 416.428 93.1638 416.351 93.4031C416.282 93.6339 416.248 93.8689 416.248 94.1082ZM422.766 94.1082C422.766 93.621 422.851 93.1809 423.022 92.7877C423.202 92.3859 423.441 92.0441 423.74 91.762C424.039 91.4799 424.394 91.262 424.804 91.1081C425.215 90.9543 425.651 90.8773 426.112 90.8773C426.574 90.8773 427.01 90.9543 427.42 91.1081C427.83 91.262 428.185 91.4799 428.484 91.762C428.783 92.0441 429.018 92.3859 429.189 92.7877C429.369 93.1809 429.458 93.621 429.458 94.1082C429.458 94.5954 429.369 95.0399 429.189 95.4416C429.018 95.8434 428.783 96.1895 428.484 96.4801C428.185 96.7622 427.83 96.9844 427.42 97.1468C427.01 97.3092 426.574 97.3904 426.112 97.3904C425.651 97.3904 425.215 97.3092 424.804 97.1468C424.394 96.9844 424.039 96.7622 423.74 96.4801C423.441 96.1895 423.202 95.8434 423.022 95.4416C422.851 95.0399 422.766 94.5954 422.766 94.1082ZM424.33 94.1082C424.33 94.3476 424.364 94.5869 424.433 94.8262C424.509 95.0655 424.621 95.2792 424.766 95.4673C424.911 95.6553 425.095 95.8092 425.317 95.9288C425.539 96.0485 425.804 96.1083 426.112 96.1083C426.42 96.1083 426.685 96.0485 426.907 95.9288C427.129 95.8092 427.313 95.6553 427.458 95.4673C427.604 95.2792 427.71 95.0655 427.779 94.8262C427.856 94.5869 427.894 94.3476 427.894 94.1082C427.894 93.8689 427.856 93.6339 427.779 93.4031C427.71 93.1638 427.604 92.9501 427.458 92.762C427.313 92.574 427.129 92.4244 426.907 92.3133C426.685 92.1936 426.42 92.1338 426.112 92.1338C425.804 92.1338 425.539 92.1936 425.317 92.3133C425.095 92.4244 424.911 92.574 424.766 92.762C424.621 92.9501 424.509 93.1638 424.433 93.4031C424.364 93.6339 424.33 93.8689 424.33 94.1082ZM431.232 87.5182H432.771V97.2109H431.232V87.5182Z" fill="#012E3A"/>
<path d="M370.757 15.2899L385.984 10.8187L401.212 15.2899L411.605 27.2839L413.863 42.9928L407.271 57.429L393.92 66.0092H378.049L364.698 57.429L358.105 42.9928L360.364 27.2839L370.757 15.2899Z" fill="url(#paint5_linear_10359_103632)" fill-opacity="0.5" stroke="url(#paint6_linear_10359_103632)" stroke-width="1.57103"/>
<g clip-path="url(#clip1_10359_103632)">
<circle cx="247.326" cy="15.2833" r="7.32632" fill="#FFAA00"/>
<path fill-rule="evenodd" clip-rule="evenodd" d="M247.329 11.6211H244.382V13.9995H243.357V14.8516H244.382V15.7458H243.357V16.5979H244.382V18.9474H247.329C249.102 18.9474 250.45 17.9879 250.969 16.5979H251.905V15.7458H251.174C251.192 15.5948 251.201 15.4405 251.201 15.2836V15.2627C251.201 15.1233 251.194 14.9862 251.18 14.8516H251.905V13.9995H250.987C250.481 12.5899 249.122 11.6211 247.329 11.6211ZM245.206 18.1831V16.5979H250.066C249.613 17.5482 248.64 18.1831 247.329 18.1831H245.206ZM245.206 15.7458H250.319C250.339 15.6024 250.349 15.455 250.349 15.3046V15.2836C250.349 15.1365 250.339 14.9923 250.32 14.8516H245.206V15.7458ZM250.073 13.9995C249.622 13.0358 248.646 12.3842 247.329 12.3842H245.206V13.9995H250.073Z" fill="white"/>
</g>
<path d="M253.012 63.8224C253.012 67.8686 249.732 71.1487 245.686 71.1487C241.639 71.1487 238.359 67.8686 238.359 63.8224C238.359 59.7762 241.639 56.4961 245.686 56.4961C249.732 56.4961 253.012 59.7762 253.012 63.8224Z" fill="url(#paint7_linear_10359_103632)"/>
<path d="M252.502 63.7861C252.502 67.5706 249.434 70.6385 245.649 70.6385C241.865 70.6385 238.797 67.5706 238.797 63.7861C238.797 60.0016 241.865 56.9336 245.649 56.9336C249.434 56.9336 252.502 60.0016 252.502 63.7861Z" fill="url(#paint8_linear_10359_103632)"/>
<g style="mix-blend-mode:lighten" opacity="0.7">
<path d="M245.65 56.5371C247.092 56.5371 248.502 56.9647 249.7 57.7657C250.899 58.5667 251.834 59.7052 252.385 61.0373C252.937 62.3693 253.081 63.8351 252.8 65.2492C252.519 66.6633 251.825 67.9622 250.805 68.9817L245.65 63.827V56.5371Z" fill="url(#paint9_radial_10359_103632)"/>
</g>
<path fill-rule="evenodd" clip-rule="evenodd" d="M245.689 60.1602H242.741V62.5386H241.717V63.3906H242.741V64.2849H241.717V65.1369H242.741V67.4865H245.689C247.461 67.4865 248.81 66.527 249.329 65.1369H250.264V64.2849H249.534C249.552 64.1338 249.561 63.9796 249.561 63.8227V63.8018C249.561 63.6624 249.554 63.5252 249.539 63.3906H250.264V62.5386H249.346C248.84 61.1289 247.481 60.1602 245.689 60.1602ZM243.565 66.7222V65.1369H248.426C247.972 66.0873 246.999 66.7222 245.689 66.7222H243.565ZM243.565 64.2849H248.678C248.698 64.1414 248.708 63.9941 248.708 63.8436V63.8227C248.708 63.6756 248.698 63.5313 248.679 63.3906H243.565V64.2849ZM248.432 62.5386C247.981 61.5749 247.005 60.9232 245.689 60.9232H243.565V62.5386H248.432Z" fill="white"/>
</g>
<defs>
<linearGradient id="paint0_linear_10359_103632" x1="190.956" y1="38.8873" x2="93.312" y2="38.8873" gradientUnits="userSpaceOnUse">
<stop stop-color="#053542"/>
<stop offset="1" stop-color="#06657E"/>
</linearGradient>
<linearGradient id="paint1_linear_10359_103632" x1="190.956" y1="34.3692" x2="93.312" y2="34.3692" gradientUnits="userSpaceOnUse">
<stop stop-color="#053542"/>
<stop offset="1" stop-color="#06657E"/>
</linearGradient>
<linearGradient id="paint2_linear_10359_103632" x1="190.956" y1="34.3692" x2="93.312" y2="34.3692" gradientUnits="userSpaceOnUse">
<stop stop-color="#053542"/>
<stop offset="1" stop-color="#06657E"/>
</linearGradient>
<linearGradient id="paint3_linear_10359_103632" x1="336.732" y1="30.2456" x2="235.159" y2="30.2494" gradientUnits="userSpaceOnUse">
<stop offset="0.239095" stop-color="#053542"/>
<stop offset="1" stop-color="#09809F"/>
</linearGradient>
<linearGradient id="paint4_linear_10359_103632" x1="185.758" y1="48.6676" x2="286.495" y2="48.6676" gradientUnits="userSpaceOnUse">
<stop offset="0.129846" stop-color="#27C1C7"/>
<stop offset="1" stop-color="#62BAE0"/>
</linearGradient>
<linearGradient id="paint5_linear_10359_103632" x1="452.598" y1="70.3048" x2="451.485" y2="10.4344" gradientUnits="userSpaceOnUse">
<stop stop-color="#BFC9F5" stop-opacity="0.5"/>
<stop offset="0.0001" stop-color="#8EA1F5" stop-opacity="0.5"/>
<stop offset="1" stop-color="#26CBCF"/>
</linearGradient>
<linearGradient id="paint6_linear_10359_103632" x1="452.598" y1="70.3048" x2="451.485" y2="10.4344" gradientUnits="userSpaceOnUse">
<stop stop-color="#BFC9F5" stop-opacity="0.5"/>
<stop offset="0.0001" stop-color="#8EA1F5" stop-opacity="0.5"/>
<stop offset="1" stop-color="#26CBCF"/>
</linearGradient>
<linearGradient id="paint7_linear_10359_103632" x1="245.686" y1="56.4961" x2="245.686" y2="71.1487" gradientUnits="userSpaceOnUse">
<stop stop-color="#2BCAD0"/>
<stop offset="1" stop-color="#8BC1E5"/>
</linearGradient>
<linearGradient id="paint8_linear_10359_103632" x1="258.74" y1="63.8457" x2="235.545" y2="63.8457" gradientUnits="userSpaceOnUse">
<stop offset="0.239095" stop-color="#053542"/>
<stop offset="1" stop-color="#06657E"/>
</linearGradient>
<radialGradient id="paint9_radial_10359_103632" cx="0" cy="0" r="1" gradientUnits="userSpaceOnUse" gradientTransform="translate(245.65 63.827) rotate(-45) scale(7.28987)">
<stop stop-color="#33F8FF"/>
<stop offset="1" stop-color="#065368"/>
</radialGradient>
<clipPath id="clip0_10359_103632">
<rect width="522" height="102" fill="white"/>
</clipPath>
<clipPath id="clip1_10359_103632">
<rect width="14.6526" height="14.6526" fill="white" transform="translate(240 7.95703)"/>
</clipPath>
</defs>
</svg>