<svg width="522" height="102" viewBox="0 0 522 102" fill="none" xmlns="http://www.w3.org/2000/svg">
<g clip-path="url(#clip0_10359_103677)">
<path d="M164.695 38.6364C164.695 54.5684 151.779 67.4838 135.847 67.4838C119.915 67.4838 107 54.5684 107 38.6364C107 22.7045 119.915 9.78906 135.847 9.78906C151.779 9.78906 164.695 22.7045 164.695 38.6364Z" fill="white"/>
<path fillRule="evenodd" clipRule="evenodd" d="M135.847 61.9852C148.743 61.9852 159.196 51.5316 159.196 38.6364C159.196 25.7413 148.743 15.2877 135.847 15.2877C122.952 15.2877 112.499 25.7413 112.499 38.6364C112.499 51.5316 122.952 61.9852 135.847 61.9852ZM135.847 67.4838C151.779 67.4838 164.695 54.5684 164.695 38.6364C164.695 22.7045 151.779 9.78906 135.847 9.78906C119.915 9.78906 107 22.7045 107 38.6364C107 54.5684 119.915 67.4838 135.847 67.4838Z" fill="url(#paint0_linear_10359_103677)"/>
<mask id="path-3-inside-1_10359_103677" fill="white">
<path fillRule="evenodd" clipRule="evenodd" d="M156.789 58.4759C161.689 53.3055 164.695 46.322 164.695 38.6364C164.695 22.7045 151.779 9.78906 135.847 9.78906C119.915 9.78906 107 22.7045 107 38.6364C107 46.3466 110.025 53.3503 114.953 58.5256C115.678 50.1945 122.692 43.6336 131.21 43.6336H140.536C149.035 43.6336 156.04 50.1684 156.789 58.4759ZM135.873 38.9708C130.089 38.9708 125.382 34.2638 125.382 28.4796C125.382 22.6954 130.089 17.9883 135.873 17.9883C141.657 17.9883 146.364 22.6954 146.364 28.4796C146.364 34.2638 141.657 38.9708 135.873 38.9708Z"/>
</mask>
<path fillRule="evenodd" clipRule="evenodd" d="M156.789 58.4759C161.689 53.3055 164.695 46.322 164.695 38.6364C164.695 22.7045 151.779 9.78906 135.847 9.78906C119.915 9.78906 107 22.7045 107 38.6364C107 46.3466 110.025 53.3503 114.953 58.5256C115.678 50.1945 122.692 43.6336 131.21 43.6336H140.536C149.035 43.6336 156.04 50.1684 156.789 58.4759ZM135.873 38.9708C130.089 38.9708 125.382 34.2638 125.382 28.4796C125.382 22.6954 130.089 17.9883 135.873 17.9883C141.657 17.9883 146.364 22.6954 146.364 28.4796C146.364 34.2638 141.657 38.9708 135.873 38.9708Z" fill="url(#paint1_linear_10359_103677)"/>
<path d="M156.789 58.4759L151.313 58.9699L152.407 71.0944L160.781 62.2582L156.789 58.4759ZM114.953 58.5256L110.97 62.3173L119.373 71.1422L120.43 59.0028L114.953 58.5256ZM159.196 38.6364C159.196 44.8595 156.769 50.5039 152.798 54.6936L160.781 62.2582C166.61 56.1072 170.193 47.7844 170.193 38.6364H159.196ZM135.847 15.2877C148.743 15.2877 159.196 25.7413 159.196 38.6364H170.193C170.193 19.6677 154.816 4.29046 135.847 4.29046V15.2877ZM112.499 38.6364C112.499 25.7413 122.952 15.2877 135.847 15.2877V4.29046C116.879 4.29046 101.501 19.6677 101.501 38.6364H112.499ZM118.935 54.7339C114.941 50.5401 112.499 44.8794 112.499 38.6364H101.501C101.501 47.8139 105.108 56.1606 110.97 62.3173L118.935 54.7339ZM131.21 38.135C119.813 38.135 110.445 46.9039 109.475 58.0485L120.43 59.0028C120.911 53.485 125.572 49.1322 131.21 49.1322V38.135ZM140.536 38.135H131.21V49.1322H140.536V38.135ZM162.266 57.9819C161.263 46.8688 151.909 38.135 140.536 38.135V49.1322C146.161 49.1322 150.817 53.468 151.313 58.9699L162.266 57.9819ZM119.883 28.4796C119.883 37.3006 127.052 44.4695 135.873 44.4695V33.4722C133.126 33.4722 130.881 31.227 130.881 28.4796H119.883ZM135.873 12.4897C127.052 12.4897 119.883 19.6586 119.883 28.4796H130.881C130.881 25.7322 133.126 23.4869 135.873 23.4869V12.4897ZM151.863 28.4796C151.863 19.6586 144.694 12.4897 135.873 12.4897V23.4869C138.621 23.4869 140.866 25.7322 140.866 28.4796H151.863ZM135.873 44.4695C144.694 44.4695 151.863 37.3006 151.863 28.4796H140.866C140.866 31.227 138.621 33.4722 135.873 33.4722V44.4695Z" fill="url(#paint2_linear_10359_103677)" mask="url(#path-3-inside-1_10359_103677)"/>
<path fillRule="evenodd" clipRule="evenodd" d="M336.883 29.9391C336.883 29.5053 336.531 29.1536 336.097 29.1536L334.201 29.1536C333.767 29.1536 333.416 29.5053 333.416 29.9391C333.416 30.3729 333.767 30.7246 334.201 30.7246L336.097 30.7246C336.531 30.7246 336.883 30.3729 336.883 29.9391ZM328.919 29.9391C328.919 29.5053 328.568 29.1536 328.134 29.1536L324.342 29.1536C323.908 29.1536 323.556 29.5053 323.556 29.9391C323.556 30.3729 323.908 30.7246 324.342 30.7246L328.134 30.7246C328.568 30.7246 328.919 30.3729 328.919 29.9391ZM319.06 29.9391C319.06 29.5053 318.708 29.1536 318.275 29.1536L314.483 29.1536C314.049 29.1536 313.697 29.5053 313.697 29.9391C313.697 30.3729 314.049 30.7246 314.483 30.7246L318.275 30.7246C318.708 30.7246 319.06 30.3729 319.06 29.9391ZM309.201 29.9391C309.201 29.5053 308.849 29.1536 308.415 29.1536L304.623 29.1536C304.189 29.1536 303.838 29.5053 303.838 29.9391C303.838 30.3729 304.189 30.7246 304.623 30.7246L308.415 30.7246C308.849 30.7246 309.201 30.3729 309.201 29.9391ZM299.341 29.9391C299.341 29.5053 298.99 29.1536 298.556 29.1536L294.764 29.1536C294.33 29.1536 293.978 29.5053 293.978 29.9391C293.978 30.3729 294.33 30.7246 294.764 30.7246L298.556 30.7246C298.99 30.7246 299.341 30.3729 299.341 29.9391ZM289.482 29.9391C289.482 29.5053 289.13 29.1536 288.697 29.1536L284.922 29.1536C284.488 29.1536 284.137 29.5053 284.137 29.9391C284.137 30.3729 284.488 30.7246 284.922 30.7246L288.697 30.7246C289.13 30.7246 289.482 30.3729 289.482 29.9391ZM279.697 29.9391C279.697 29.5053 279.345 29.1536 278.911 29.1536L275.155 29.1536C274.721 29.1536 274.369 29.5053 274.369 29.9391C274.369 30.3729 274.721 30.7246 275.155 30.7246L278.911 30.7246C279.345 30.7246 279.697 30.3729 279.697 29.9391ZM269.93 29.9391C269.93 29.5053 269.578 29.1536 269.144 29.1536L265.387 29.1536C264.954 29.1536 264.602 29.5053 264.602 29.9391C264.602 30.3729 264.954 30.7246 265.387 30.7246L269.144 30.7246C269.578 30.7246 269.93 30.3729 269.93 29.9391ZM260.162 29.9391C260.162 29.5053 259.81 29.1536 259.377 29.1536L255.62 29.1536C255.186 29.1536 254.834 29.5053 254.834 29.9391C254.834 30.3729 255.186 30.7246 255.62 30.7246L259.377 30.7246C259.81 30.7246 260.162 30.3729 260.162 29.9391ZM250.395 29.9391C250.395 29.5053 250.043 29.1536 249.609 29.1536L245.853 29.1536C245.419 29.1536 245.067 29.5053 245.067 29.9391C245.067 30.3729 245.419 30.7246 245.853 30.7246L249.609 30.7246C250.043 30.7246 250.395 30.3729 250.395 29.9391ZM240.627 29.9391C240.627 29.5053 240.276 29.1536 239.842 29.1536L236.085 29.1536C235.651 29.1536 235.3 29.5053 235.3 29.9391C235.3 30.3729 235.651 30.7246 236.085 30.7246L239.842 30.7246C240.276 30.7246 240.627 30.3729 240.627 29.9391ZM230.86 29.9391C230.86 29.5053 230.508 29.1536 230.074 29.1536L226.318 29.1536C225.884 29.1536 225.532 29.5053 225.532 29.9391C225.532 30.3729 225.884 30.7246 226.318 30.7246L230.074 30.7246C230.508 30.7246 230.86 30.3729 230.86 29.9391ZM221.093 29.9391C221.093 29.5053 220.741 29.1536 220.307 29.1536L216.55 29.1536C216.116 29.1536 215.765 29.5053 215.765 29.9391C215.765 30.3729 216.116 30.7246 216.55 30.7246L220.307 30.7246C220.741 30.7246 221.093 30.3729 221.093 29.9391ZM211.325 29.9391C211.325 29.5053 210.973 29.1536 210.54 29.1536L206.783 29.1536C206.349 29.1536 205.997 29.5053 205.997 29.9391C205.997 30.3729 206.349 30.7246 206.783 30.7246L210.54 30.7246C210.973 30.7246 211.325 30.3729 211.325 29.9391ZM201.558 29.9391C201.558 29.5053 201.206 29.1536 200.772 29.1536L197.016 29.1536C196.582 29.1536 196.23 29.5053 196.23 29.9391C196.23 30.3729 196.582 30.7246 197.016 30.7246L200.772 30.7246C201.206 30.7246 201.558 30.3729 201.558 29.9391ZM191.79 29.9391C191.79 29.5053 191.439 29.1536 191.005 29.1536L187.248 29.1536C186.814 29.1536 186.463 29.5053 186.463 29.9391C186.463 30.3729 186.814 30.7246 187.248 30.7246L191.005 30.7246C191.439 30.7246 191.79 30.3729 191.79 29.9391ZM182.023 29.9391C182.023 29.5053 181.671 29.1536 181.237 29.1536L179.359 29.1536C178.925 29.1536 178.573 29.5053 178.573 29.9391C178.573 30.3729 178.925 30.7246 179.359 30.7246L181.237 30.7246C181.671 30.7246 182.023 30.3729 182.023 29.9391Z" fill="url(#paint3_linear_10359_103677)"/>
<path fillRule="evenodd" clipRule="evenodd" d="M334.068 37.3024C334.363 37.621 334.86 37.6404 335.178 37.3459L343.042 30.0749C343.206 29.9237 343.297 29.7102 343.294 29.4876C343.291 29.2649 343.194 29.054 343.027 28.9072L335.162 22.0189C334.836 21.733 334.34 21.7658 334.054 22.0922C333.768 22.4185 333.801 22.9148 334.127 23.2006L341.335 29.5139L334.112 36.1924C333.793 36.4869 333.774 36.9839 334.068 37.3024Z" fill="#063642"/>
<path fillRule="evenodd" clipRule="evenodd" d="M184.973 49.1676C184.973 48.7338 185.324 48.3821 185.758 48.3821H187.654C188.088 48.3821 188.44 48.7338 188.44 49.1676C188.44 49.6014 188.088 49.9531 187.654 49.9531H185.758C185.324 49.9531 184.973 49.6014 184.973 49.1676ZM192.936 49.1676C192.936 48.7338 193.288 48.3821 193.721 48.3821H197.514C197.947 48.3821 198.299 48.7338 198.299 49.1676C198.299 49.6014 197.947 49.9531 197.514 49.9531H193.721C193.288 49.9531 192.936 49.6014 192.936 49.1676ZM202.795 49.1676C202.795 48.7338 203.147 48.3821 203.581 48.3821H207.373C207.807 48.3821 208.158 48.7338 208.158 49.1676C208.158 49.6014 207.807 49.9531 207.373 49.9531H203.581C203.147 49.9531 202.795 49.6014 202.795 49.1676ZM212.655 49.1676C212.655 48.7338 213.006 48.3821 213.44 48.3821H217.232C217.666 48.3821 218.018 48.7338 218.018 49.1676C218.018 49.6014 217.666 49.9531 217.232 49.9531H213.44C213.006 49.9531 212.655 49.6014 212.655 49.1676ZM222.514 49.1676C222.514 48.7338 222.866 48.3821 223.3 48.3821H227.092C227.525 48.3821 227.877 48.7338 227.877 49.1676C227.877 49.6014 227.525 49.9531 227.092 49.9531H223.3C222.866 49.9531 222.514 49.6014 222.514 49.1676ZM232.373 49.1676C232.373 48.7338 232.725 48.3821 233.159 48.3821H236.931C237.365 48.3821 237.716 48.7338 237.716 49.1676C237.716 49.6014 237.365 49.9531 236.931 49.9531H233.159C232.725 49.9531 232.373 49.6014 232.373 49.1676ZM242.148 49.1676C242.148 48.7338 242.5 48.3821 242.934 48.3821L246.686 48.3821C247.12 48.3821 247.471 48.7338 247.471 49.1676C247.471 49.6014 247.12 49.9531 246.686 49.9531L242.934 49.9531C242.5 49.9531 242.148 49.6014 242.148 49.1676ZM251.903 49.1676C251.903 48.7338 252.255 48.3821 252.689 48.3821H256.441C256.875 48.3821 257.226 48.7338 257.226 49.1676C257.226 49.6014 256.875 49.9531 256.441 49.9531H252.689C252.255 49.9531 251.903 49.6014 251.903 49.1676ZM261.658 49.1676C261.658 48.7338 262.01 48.3821 262.444 48.3821H266.196C266.63 48.3821 266.981 48.7338 266.981 49.1676C266.981 49.6014 266.63 49.9531 266.196 49.9531H262.444C262.01 49.9531 261.658 49.6014 261.658 49.1676ZM271.413 49.1676C271.413 48.7338 271.765 48.3821 272.199 48.3821H275.951C276.385 48.3821 276.736 48.7338 276.736 49.1676C276.736 49.6014 276.385 49.9531 275.951 49.9531H272.199C271.765 49.9531 271.413 49.6014 271.413 49.1676ZM281.168 49.1676C281.168 48.7338 281.52 48.3821 281.954 48.3821H285.706C286.14 48.3821 286.491 48.7338 286.491 49.1676C286.491 49.6014 286.14 49.9531 285.706 49.9531H281.954C281.52 49.9531 281.168 49.6014 281.168 49.1676ZM290.923 49.1676C290.923 48.7338 291.275 48.3821 291.709 48.3821H295.461C295.895 48.3821 296.246 48.7338 296.246 49.1676C296.246 49.6014 295.895 49.9531 295.461 49.9531H291.709C291.275 49.9531 290.923 49.6014 290.923 49.1676ZM300.678 49.1676C300.678 48.7338 301.03 48.3821 301.464 48.3821H305.216C305.65 48.3821 306.001 48.7338 306.001 49.1676C306.001 49.6014 305.65 49.9531 305.216 49.9531H301.464C301.03 49.9531 300.678 49.6014 300.678 49.1676ZM310.433 49.1676C310.433 48.7338 310.785 48.3821 311.219 48.3821H314.971C315.405 48.3821 315.756 48.7338 315.756 49.1676C315.756 49.6014 315.405 49.9531 314.971 49.9531H311.219C310.785 49.9531 310.433 49.6014 310.433 49.1676ZM320.188 49.1676C320.188 48.7338 320.54 48.3821 320.974 48.3821H324.726C325.16 48.3821 325.511 48.7338 325.511 49.1676C325.511 49.6014 325.16 49.9531 324.726 49.9531H320.974C320.54 49.9531 320.188 49.6014 320.188 49.1676ZM329.943 49.1676C329.943 48.7338 330.295 48.3821 330.729 48.3821H334.481C334.915 48.3821 335.266 48.7338 335.266 49.1676C335.266 49.6014 334.915 49.9531 334.481 49.9531H330.729C330.295 49.9531 329.943 49.6014 329.943 49.1676ZM339.698 49.1676C339.698 48.7338 340.05 48.3821 340.484 48.3821H342.36C342.794 48.3821 343.145 48.7338 343.145 49.1676C343.145 49.6014 342.794 49.9531 342.36 49.9531H340.484C340.05 49.9531 339.698 49.6014 339.698 49.1676Z" fill="url(#paint4_linear_10359_103677)"/>
<path fillRule="evenodd" clipRule="evenodd" d="M187.807 56.2226C187.529 56.5561 187.034 56.6017 186.7 56.3243L178.845 49.7917C178.663 49.6401 178.559 49.4144 178.562 49.1774C178.565 48.9403 178.675 48.7174 178.861 48.5707L186.717 42.382C187.057 42.1135 187.551 42.1721 187.82 42.5128C188.088 42.8536 188.03 43.3475 187.689 43.616L180.596 49.2042L187.705 55.1164C188.039 55.3938 188.084 55.889 187.807 56.2226Z" fill="#27C1C7"/>
<path d="M255.3 11.1765H256.817L258.322 16.891H258.344L260.059 11.1765H261.487L263.169 16.891H263.191L264.729 11.1765H266.202L263.927 18.957H262.586L260.762 13.1216H260.74L258.916 18.957H257.575L255.3 11.1765ZM267.673 11.1765H270.707C271 11.1765 271.289 11.2131 271.575 11.2864C271.86 11.3523 272.113 11.4659 272.333 11.6271C272.56 11.7809 272.743 11.9824 272.882 12.2315C273.022 12.4806 273.091 12.7809 273.091 13.1326C273.091 13.5722 272.967 13.9348 272.718 14.2206C272.469 14.5063 272.142 14.7114 271.74 14.836V14.858C272.23 14.9239 272.633 15.1144 272.948 15.4294C273.263 15.7444 273.421 16.1657 273.421 16.6932C273.421 17.1181 273.337 17.4771 273.168 17.7702C273 18.0559 272.776 18.2867 272.498 18.4625C272.227 18.6383 271.912 18.7665 271.553 18.8471C271.201 18.9204 270.842 18.957 270.476 18.957H267.673V11.1765ZM269.058 14.3415H270.289C270.75 14.3415 271.102 14.2499 271.344 14.0667C271.586 13.8836 271.707 13.6235 271.707 13.2865C271.707 12.9348 271.582 12.6857 271.333 12.5392C271.084 12.3927 270.696 12.3194 270.168 12.3194H269.058V14.3415ZM269.058 17.7921H270.3C270.476 17.7921 270.666 17.7812 270.871 17.7592C271.077 17.7299 271.263 17.6749 271.432 17.5943C271.608 17.5137 271.751 17.3965 271.86 17.2427C271.978 17.0888 272.036 16.8837 272.036 16.6273C272.036 16.217 271.897 15.9313 271.619 15.7701C271.34 15.6089 270.919 15.5283 270.355 15.5283H269.058V17.7921ZM276.91 12.3853H274.525V11.1765H280.679V12.3853H278.294V18.957H276.91V12.3853ZM287.417 13.0007C287.211 12.7223 286.944 12.5209 286.614 12.3963C286.285 12.2644 285.962 12.1985 285.647 12.1985C285.244 12.1985 284.878 12.2718 284.548 12.4183C284.219 12.5648 283.933 12.7663 283.691 13.0227C283.457 13.2791 283.274 13.5795 283.142 13.9239C283.017 14.2682 282.955 14.6418 282.955 15.0448C282.955 15.4697 283.017 15.858 283.142 16.2097C283.266 16.5613 283.442 16.8654 283.669 17.1218C283.904 17.3709 284.182 17.565 284.504 17.7042C284.827 17.8434 285.189 17.913 285.592 17.913C286.01 17.913 286.38 17.8324 286.702 17.6713C287.025 17.5028 287.285 17.283 287.482 17.0119L288.592 17.7921C288.248 18.2244 287.827 18.5614 287.329 18.8032C286.83 19.0376 286.248 19.1548 285.581 19.1548C284.973 19.1548 284.413 19.0559 283.9 18.8581C283.394 18.653 282.958 18.3709 282.592 18.0119C282.226 17.6456 281.94 17.2134 281.735 16.7152C281.53 16.2097 281.427 15.6529 281.427 15.0448C281.427 14.422 281.534 13.8616 281.746 13.3634C281.966 12.8579 282.262 12.4293 282.636 12.0776C283.017 11.726 283.464 11.4549 283.977 11.2644C284.49 11.0739 285.046 10.9787 285.647 10.9787C285.896 10.9787 286.156 11.0043 286.427 11.0556C286.699 11.0996 286.959 11.1728 287.208 11.2754C287.457 11.3706 287.691 11.4915 287.911 11.638C288.131 11.7846 288.318 11.9604 288.472 12.1655L287.417 13.0007Z" fill="#012E3A"/>
<path d="M252.645 62.9461H251.645V61.8911H252.645V61.1108C252.645 60.7958 252.678 60.4954 252.743 60.2097C252.817 59.9166 252.934 59.6602 253.095 59.4404C253.264 59.2206 253.483 59.0485 253.755 58.9239C254.026 58.792 254.366 58.7261 254.777 58.7261C254.923 58.7261 255.044 58.7334 255.139 58.7481C255.242 58.7554 255.344 58.7737 255.447 58.803L255.359 59.924C255.286 59.902 255.205 59.8837 255.117 59.869C255.037 59.8544 254.949 59.847 254.853 59.847C254.663 59.847 254.509 59.8837 254.392 59.9569C254.275 60.0302 254.183 60.1254 254.117 60.2426C254.059 60.3599 254.018 60.4881 253.996 60.6273C253.974 60.7665 253.963 60.902 253.963 61.0339V61.8911H255.183V62.9461H253.963V67.166H252.645V62.9461ZM255.823 59.3855H257.339L258.845 65.1H258.867L260.581 59.3855H262.01L263.691 65.1H263.713L265.252 59.3855H266.724L264.45 67.166H263.109L261.285 61.3306H261.263L259.438 67.166H258.098L255.823 59.3855ZM268.196 59.3855H271.229C271.522 59.3855 271.812 59.4221 272.097 59.4954C272.383 59.5613 272.636 59.6749 272.856 59.836C273.083 59.9899 273.266 60.1914 273.405 60.4405C273.544 60.6896 273.614 60.9899 273.614 61.3416C273.614 61.7812 273.489 62.1438 273.24 62.4296C272.991 62.7153 272.665 62.9204 272.262 63.045V63.0669C272.753 63.1329 273.156 63.3234 273.471 63.6384C273.786 63.9534 273.944 64.3747 273.944 64.9022C273.944 65.3271 273.859 65.6861 273.691 65.9792C273.522 66.2649 273.299 66.4957 273.02 66.6715C272.749 66.8473 272.434 66.9755 272.075 67.0561C271.724 67.1294 271.365 67.166 270.998 67.166H268.196V59.3855ZM269.581 62.5504H270.812C271.273 62.5504 271.625 62.4589 271.867 62.2757C272.108 62.0925 272.229 61.8325 272.229 61.4954C272.229 61.1438 272.105 60.8947 271.856 60.7482C271.606 60.6016 271.218 60.5284 270.691 60.5284H269.581V62.5504ZM269.581 66.0011H270.823C270.998 66.0011 271.189 65.9901 271.394 65.9682C271.599 65.9389 271.786 65.8839 271.954 65.8033C272.13 65.7227 272.273 65.6055 272.383 65.4517C272.5 65.2978 272.559 65.0927 272.559 64.8362C272.559 64.426 272.42 64.1402 272.141 63.9791C271.863 63.8179 271.442 63.7373 270.877 63.7373H269.581V66.0011ZM277.432 60.5943H275.048V59.3855H281.202V60.5943H278.817V67.166H277.432V60.5943ZM287.939 61.2097C287.734 60.9313 287.467 60.7298 287.137 60.6053C286.807 60.4734 286.485 60.4075 286.17 60.4075C285.767 60.4075 285.401 60.4808 285.071 60.6273C284.741 60.7738 284.455 60.9753 284.214 61.2317C283.979 61.4881 283.796 61.7885 283.664 62.1328C283.54 62.4772 283.477 62.8508 283.477 63.2538C283.477 63.6787 283.54 64.067 283.664 64.4186C283.789 64.7703 283.965 65.0744 284.192 65.3308C284.426 65.5799 284.705 65.774 285.027 65.9132C285.349 66.0524 285.712 66.122 286.115 66.122C286.533 66.122 286.902 66.0414 287.225 65.8802C287.547 65.7117 287.807 65.492 288.005 65.2209L289.115 66.0011C288.771 66.4334 288.349 66.7704 287.851 67.0122C287.353 67.2466 286.771 67.3638 286.104 67.3638C285.496 67.3638 284.935 67.2649 284.423 67.0671C283.917 66.862 283.481 66.5799 283.115 66.2209C282.748 65.8546 282.463 65.4224 282.258 64.9242C282.052 64.4186 281.95 63.8618 281.95 63.2538C281.95 62.631 282.056 62.0706 282.269 61.5724C282.488 61.0669 282.785 60.6383 283.159 60.2866C283.54 59.9349 283.987 59.6639 284.499 59.4734C285.012 59.2829 285.569 59.1877 286.17 59.1877C286.419 59.1877 286.679 59.2133 286.95 59.2646C287.221 59.3085 287.481 59.3818 287.73 59.4844C287.979 59.5796 288.214 59.7005 288.434 59.847C288.653 59.9936 288.84 60.1694 288.994 60.3745L287.939 61.2097Z" fill="#012E3A"/>
<path d="M82.1536 87.9227H83.769V95.564H87.6281V97H82.1536V87.9227ZM88.9069 90.8459H90.4455V97H88.9069V90.8459ZM88.689 88.7561C88.689 88.5082 88.7787 88.2945 88.9582 88.115C89.1463 87.927 89.3813 87.8329 89.6634 87.8329C89.9454 87.8329 90.1805 87.9227 90.3685 88.1022C90.5651 88.2731 90.6634 88.4911 90.6634 88.7561C90.6634 89.021 90.5651 89.2433 90.3685 89.4228C90.1805 89.5937 89.9454 89.6792 89.6634 89.6792C89.3813 89.6792 89.1463 89.5894 88.9582 89.4099C88.7787 89.2219 88.689 89.0039 88.689 88.7561ZM98.825 100.077H97.2865V96.1795H97.2609C97.0643 96.4872 96.7822 96.7308 96.4147 96.9103C96.0557 97.0897 95.6582 97.1795 95.2223 97.1795C94.7522 97.1795 94.3291 97.094 93.953 96.9231C93.5855 96.7436 93.2692 96.5085 93.0043 96.2179C92.7478 95.9188 92.547 95.5726 92.4017 95.1794C92.2649 94.7777 92.1965 94.3503 92.1965 93.8973C92.1965 93.4443 92.2692 93.0212 92.4145 92.628C92.5598 92.2348 92.7649 91.8929 93.0299 91.6023C93.2949 91.3117 93.6111 91.0852 93.9787 90.9228C94.3462 90.7519 94.7479 90.6664 95.1838 90.6664C95.4659 90.6664 95.7181 90.7006 95.9403 90.769C96.1711 90.8288 96.3762 90.91 96.5557 91.0126C96.7352 91.1066 96.8848 91.2177 97.0044 91.3459C97.1326 91.4656 97.2352 91.5852 97.3121 91.7049H97.3506V90.8459H98.825V100.077ZM93.7607 93.8973C93.7607 94.1366 93.7949 94.376 93.8633 94.6153C93.9402 94.8546 94.0513 95.0683 94.1966 95.2563C94.3419 95.4444 94.5257 95.5982 94.7479 95.7179C94.9702 95.8376 95.2309 95.8974 95.53 95.8974C95.8121 95.8974 96.0642 95.8418 96.2865 95.7307C96.5087 95.6111 96.6967 95.4572 96.8506 95.2692C97.013 95.0811 97.1326 94.8717 97.2096 94.6409C97.295 94.4016 97.3378 94.1623 97.3378 93.9229C97.3378 93.6836 97.295 93.4443 97.2096 93.205C97.1326 92.9656 97.013 92.752 96.8506 92.5639C96.6967 92.3759 96.5087 92.222 96.2865 92.1024C96.0642 91.9827 95.8121 91.9229 95.53 91.9229C95.2309 91.9229 94.9702 91.9827 94.7479 92.1024C94.5257 92.2135 94.3419 92.3631 94.1966 92.5511C94.0513 92.7391 93.9402 92.9528 93.8633 93.1921C93.7949 93.4229 93.7607 93.658 93.7607 93.8973ZM106.541 97H105.08V96.0128H105.054C104.917 96.3205 104.678 96.594 104.336 96.8333C104.003 97.0641 103.605 97.1795 103.144 97.1795C102.742 97.1795 102.396 97.1111 102.105 96.9744C101.823 96.8291 101.588 96.641 101.4 96.4102C101.22 96.1795 101.088 95.9145 101.003 95.6153C100.917 95.3162 100.874 95.0085 100.874 94.6922V90.8459H102.413V94.2563C102.413 94.4358 102.426 94.6238 102.451 94.8204C102.477 95.017 102.532 95.1965 102.618 95.3589C102.703 95.5128 102.819 95.641 102.964 95.7435C103.118 95.8461 103.319 95.8974 103.567 95.8974C103.806 95.8974 104.015 95.8504 104.195 95.7564C104.383 95.6538 104.533 95.5256 104.644 95.3717C104.763 95.2179 104.853 95.0427 104.913 94.8461C104.973 94.6409 105.003 94.4358 105.003 94.2307V90.8459H106.541V97ZM108.67 90.8459H110.208V97H108.67V90.8459ZM108.452 88.7561C108.452 88.5082 108.542 88.2945 108.721 88.115C108.909 87.927 109.144 87.8329 109.426 87.8329C109.708 87.8329 109.943 87.9227 110.131 88.1022C110.328 88.2731 110.426 88.4911 110.426 88.7561C110.426 89.021 110.328 89.2433 110.131 89.4228C109.943 89.5937 109.708 89.6792 109.426 89.6792C109.144 89.6792 108.909 89.5894 108.721 89.4099C108.542 89.2219 108.452 89.0039 108.452 88.7561ZM118.588 97H117.126V96.0769H117.101C116.887 96.4359 116.588 96.7094 116.203 96.8974C115.827 97.0855 115.421 97.1795 114.985 97.1795C114.515 97.1795 114.092 97.094 113.716 96.9231C113.348 96.7436 113.032 96.5085 112.767 96.2179C112.511 95.9188 112.31 95.5726 112.165 95.1794C112.028 94.7777 111.959 94.3503 111.959 93.8973C111.959 93.4443 112.032 93.0212 112.177 92.628C112.323 92.2348 112.528 91.8929 112.793 91.6023C113.058 91.3117 113.374 91.0852 113.742 90.9228C114.109 90.7519 114.511 90.6664 114.947 90.6664C115.229 90.6664 115.481 90.7006 115.703 90.769C115.925 90.8288 116.118 90.9057 116.28 90.9997C116.451 91.0938 116.596 91.1963 116.716 91.3075C116.836 91.4186 116.934 91.5254 117.011 91.628H117.049V87.3073H118.588V97ZM113.524 93.8973C113.524 94.1366 113.558 94.376 113.626 94.6153C113.703 94.8546 113.814 95.0683 113.96 95.2563C114.105 95.4444 114.289 95.5982 114.511 95.7179C114.733 95.8376 114.994 95.8974 115.293 95.8974C115.575 95.8974 115.827 95.8418 116.049 95.7307C116.272 95.6111 116.46 95.4572 116.614 95.2692C116.776 95.0811 116.896 94.8717 116.973 94.6409C117.058 94.4016 117.101 94.1623 117.101 93.9229C117.101 93.6836 117.058 93.4443 116.973 93.205C116.896 92.9656 116.776 92.752 116.614 92.5639C116.46 92.3759 116.272 92.222 116.049 92.1024C115.827 91.9827 115.575 91.9229 115.293 91.9229C114.994 91.9229 114.733 91.9827 114.511 92.1024C114.289 92.2135 114.105 92.3631 113.96 92.5511C113.814 92.7391 113.703 92.9528 113.626 93.1921C113.558 93.4229 113.524 93.658 113.524 93.8973ZM120.739 90.8459H122.278V97H120.739V90.8459ZM120.521 88.7561C120.521 88.5082 120.611 88.2945 120.79 88.115C120.979 87.927 121.214 87.8329 121.496 87.8329C121.778 87.8329 122.013 87.9227 122.201 88.1022C122.397 88.2731 122.496 88.4911 122.496 88.7561C122.496 89.021 122.397 89.2433 122.201 89.4228C122.013 89.5937 121.778 89.6792 121.496 89.6792C121.214 89.6792 120.979 89.5894 120.79 89.4099C120.611 89.2219 120.521 89.0039 120.521 88.7561ZM123.516 92.0767V90.8459H124.593V89.0638H126.106V90.8459H127.644V92.0767H126.106V94.9358C126.106 95.2093 126.153 95.4358 126.247 95.6153C126.349 95.7948 126.572 95.8846 126.914 95.8846C127.016 95.8846 127.127 95.876 127.247 95.8589C127.367 95.8333 127.473 95.7991 127.567 95.7564L127.619 96.9615C127.482 97.0128 127.32 97.0513 127.132 97.0769C126.943 97.1111 126.764 97.1282 126.593 97.1282C126.183 97.1282 125.849 97.0727 125.593 96.9615C125.337 96.8419 125.131 96.6837 124.978 96.4872C124.832 96.282 124.73 96.0512 124.67 95.7948C124.619 95.5299 124.593 95.2478 124.593 94.9486V92.0767H123.516ZM128.091 90.8459H129.796L131.514 95.3204H131.54L133.066 90.8459H134.668L131.758 98.3206C131.647 98.6026 131.527 98.8505 131.399 99.0642C131.271 99.2864 131.117 99.4702 130.937 99.6155C130.758 99.7693 130.544 99.8847 130.296 99.9617C130.057 100.039 129.766 100.077 129.424 100.077C129.296 100.077 129.164 100.069 129.027 100.051C128.899 100.043 128.766 100.021 128.63 99.9873L128.758 98.6539C128.86 98.6881 128.959 98.7095 129.053 98.718C129.155 98.7351 129.249 98.7437 129.335 98.7437C129.497 98.7437 129.634 98.7223 129.745 98.6796C129.856 98.6454 129.95 98.5855 130.027 98.5001C130.104 98.4231 130.172 98.3248 130.232 98.2052C130.292 98.0855 130.356 97.9445 130.425 97.7821L130.732 97L128.091 90.8459ZM139.383 87.9227H142.344C142.866 87.9227 143.336 87.9697 143.755 88.0637C144.173 88.1577 144.532 88.3116 144.831 88.5253C145.131 88.739 145.361 89.0125 145.524 89.3458C145.686 89.6792 145.767 90.0809 145.767 90.551C145.767 91.0553 145.673 91.4784 145.485 91.8203C145.297 92.1622 145.041 92.44 144.716 92.6537C144.4 92.8588 144.028 93.0084 143.601 93.1024C143.173 93.1964 142.72 93.2434 142.242 93.2434H140.998V97H139.383V87.9227ZM142.126 91.8844C142.391 91.8844 142.643 91.8673 142.883 91.8331C143.122 91.7904 143.336 91.722 143.524 91.628C143.712 91.5254 143.861 91.3887 143.972 91.2177C144.084 91.0468 144.139 90.8245 144.139 90.551C144.139 90.286 144.084 90.0724 143.972 89.91C143.861 89.739 143.712 89.6065 143.524 89.5125C143.344 89.4185 143.135 89.3587 142.895 89.333C142.665 89.2988 142.425 89.2817 142.178 89.2817H140.998V91.8844H142.126ZM146.799 90.8459H148.273V91.8716H148.299C148.47 91.5126 148.709 91.222 149.017 90.9997C149.325 90.7775 149.684 90.6664 150.094 90.6664C150.154 90.6664 150.218 90.6707 150.286 90.6792C150.355 90.6792 150.414 90.6878 150.466 90.7049V92.1152C150.363 92.0895 150.273 92.0724 150.196 92.0639C150.128 92.0553 150.06 92.0511 149.991 92.0511C149.641 92.0511 149.359 92.1152 149.145 92.2434C148.931 92.3716 148.765 92.5255 148.645 92.7049C148.525 92.8844 148.444 93.0682 148.402 93.2563C148.359 93.4443 148.337 93.5939 148.337 93.705V97H146.799V90.8459ZM151.141 93.8973C151.141 93.4101 151.227 92.9699 151.398 92.5767C151.577 92.175 151.816 91.8331 152.116 91.5511C152.415 91.269 152.769 91.051 153.18 90.8972C153.59 90.7433 154.026 90.6664 154.487 90.6664C154.949 90.6664 155.385 90.7433 155.795 90.8972C156.205 91.051 156.56 91.269 156.859 91.5511C157.158 91.8331 157.394 92.175 157.564 92.5767C157.744 92.9699 157.834 93.4101 157.834 93.8973C157.834 94.3845 157.744 94.829 157.564 95.2307C157.394 95.6324 157.158 95.9786 156.859 96.2692C156.56 96.5513 156.205 96.7735 155.795 96.9359C155.385 97.0983 154.949 97.1795 154.487 97.1795C154.026 97.1795 153.59 97.0983 153.18 96.9359C152.769 96.7735 152.415 96.5513 152.116 96.2692C151.816 95.9786 151.577 95.6324 151.398 95.2307C151.227 94.829 151.141 94.3845 151.141 93.8973ZM152.705 93.8973C152.705 94.1366 152.739 94.376 152.808 94.6153C152.885 94.8546 152.996 95.0683 153.141 95.2563C153.287 95.4444 153.47 95.5982 153.693 95.7179C153.915 95.8376 154.18 95.8974 154.487 95.8974C154.795 95.8974 155.06 95.8376 155.282 95.7179C155.505 95.5982 155.688 95.4444 155.834 95.2563C155.979 95.0683 156.086 94.8546 156.154 94.6153C156.231 94.376 156.27 94.1366 156.27 93.8973C156.27 93.658 156.231 93.4229 156.154 93.1921C156.086 92.9528 155.979 92.7391 155.834 92.5511C155.688 92.3631 155.505 92.2135 155.282 92.1024C155.06 91.9827 154.795 91.9229 154.487 91.9229C154.18 91.9229 153.915 91.9827 153.693 92.1024C153.47 92.2135 153.287 92.3631 153.141 92.5511C152.996 92.7391 152.885 92.9528 152.808 93.1921C152.739 93.4229 152.705 93.658 152.705 93.8973ZM158.659 90.8459H160.338L161.954 95.3333H161.979L163.608 90.8459H165.236L162.787 97H161.146L158.659 90.8459ZM166.437 90.8459H167.976V97H166.437V90.8459ZM166.219 88.7561C166.219 88.5082 166.309 88.2945 166.489 88.115C166.677 87.927 166.912 87.8329 167.194 87.8329C167.476 87.8329 167.711 87.9227 167.899 88.1022C168.095 88.2731 168.194 88.4911 168.194 88.7561C168.194 89.021 168.095 89.2433 167.899 89.4228C167.711 89.5937 167.476 89.6792 167.194 89.6792C166.912 89.6792 166.677 89.5894 166.489 89.4099C166.309 89.2219 166.219 89.0039 166.219 88.7561ZM176.355 97H174.894V96.0769H174.868C174.654 96.4359 174.355 96.7094 173.971 96.8974C173.595 97.0855 173.189 97.1795 172.753 97.1795C172.283 97.1795 171.859 97.094 171.483 96.9231C171.116 96.7436 170.8 96.5085 170.535 96.2179C170.278 95.9188 170.077 95.5726 169.932 95.1794C169.795 94.7777 169.727 94.3503 169.727 93.8973C169.727 93.4443 169.8 93.0212 169.945 92.628C170.09 92.2348 170.295 91.8929 170.56 91.6023C170.825 91.3117 171.141 91.0852 171.509 90.9228C171.877 90.7519 172.278 90.6664 172.714 90.6664C172.996 90.6664 173.248 90.7006 173.471 90.769C173.693 90.8288 173.885 90.9057 174.048 90.9997C174.218 91.0938 174.364 91.1963 174.483 91.3075C174.603 91.4186 174.701 91.5254 174.778 91.628H174.817V87.3073H176.355V97ZM171.291 93.8973C171.291 94.1366 171.325 94.376 171.394 94.6153C171.471 94.8546 171.582 95.0683 171.727 95.2563C171.872 95.4444 172.056 95.5982 172.278 95.7179C172.5 95.8376 172.761 95.8974 173.06 95.8974C173.342 95.8974 173.595 95.8418 173.817 95.7307C174.039 95.6111 174.227 95.4572 174.381 95.2692C174.543 95.0811 174.663 94.8717 174.74 94.6409C174.825 94.4016 174.868 94.1623 174.868 93.9229C174.868 93.6836 174.825 93.4443 174.74 93.205C174.663 92.9656 174.543 92.752 174.381 92.5639C174.227 92.3759 174.039 92.222 173.817 92.1024C173.595 91.9827 173.342 91.9229 173.06 91.9229C172.761 91.9229 172.5 91.9827 172.278 92.1024C172.056 92.2135 171.872 92.3631 171.727 92.5511C171.582 92.7391 171.471 92.9528 171.394 93.1921C171.325 93.4229 171.291 93.658 171.291 93.8973ZM182.814 93.3075C182.814 93.1109 182.785 92.9229 182.725 92.7434C182.673 92.5639 182.588 92.4058 182.468 92.269C182.349 92.1323 182.195 92.0254 182.007 91.9485C181.827 91.863 181.614 91.8203 181.366 91.8203C180.904 91.8203 180.511 91.9613 180.186 92.2434C179.87 92.5169 179.695 92.8716 179.66 93.3075H182.814ZM184.353 93.9999C184.353 94.0683 184.353 94.1366 184.353 94.205C184.353 94.2734 184.349 94.3418 184.34 94.4101H179.66C179.678 94.6324 179.733 94.8375 179.827 95.0256C179.93 95.2051 180.062 95.3632 180.225 95.4999C180.387 95.6281 180.571 95.7307 180.776 95.8076C180.981 95.8846 181.195 95.923 181.417 95.923C181.802 95.923 182.126 95.8547 182.391 95.7179C182.656 95.5726 182.874 95.376 183.045 95.1281L184.071 95.9487C183.464 96.7692 182.584 97.1795 181.43 97.1795C180.951 97.1795 180.511 97.1068 180.109 96.9615C179.707 96.8077 179.357 96.594 179.058 96.3205C178.767 96.047 178.536 95.7136 178.366 95.3204C178.203 94.9187 178.122 94.4657 178.122 93.9614C178.122 93.4657 178.203 93.0169 178.366 92.6152C178.536 92.2049 178.767 91.8588 179.058 91.5767C179.348 91.2861 179.69 91.0639 180.084 90.91C180.485 90.7476 180.917 90.6664 181.378 90.6664C181.806 90.6664 182.199 90.7391 182.558 90.8844C182.926 91.0211 183.242 91.2305 183.507 91.5126C183.772 91.7861 183.977 92.1323 184.122 92.5511C184.276 92.9614 184.353 93.4443 184.353 93.9999ZM186.099 90.8459H187.574V91.8716H187.6C187.77 91.5126 188.01 91.222 188.317 90.9997C188.625 90.7775 188.984 90.6664 189.394 90.6664C189.454 90.6664 189.518 90.6707 189.587 90.6792C189.655 90.6792 189.715 90.6878 189.766 90.7049V92.1152C189.664 92.0895 189.574 92.0724 189.497 92.0639C189.429 92.0553 189.36 92.0511 189.292 92.0511C188.941 92.0511 188.659 92.1152 188.446 92.2434C188.232 92.3716 188.065 92.5255 187.946 92.7049C187.826 92.8844 187.745 93.0682 187.702 93.2563C187.659 93.4443 187.638 93.5939 187.638 93.705V97H186.099V90.8459Z" fill="#012E3A"/>
<path d="M339.286 88.1336H345.145V89.5439H340.901V92.0312H344.902V93.3903H340.901V97.2109H339.286V88.1336ZM346.615 91.0568H348.154V97.2109H346.615V91.0568ZM346.397 88.967C346.397 88.7191 346.487 88.5054 346.667 88.3259C346.855 88.1379 347.09 88.0439 347.372 88.0439C347.654 88.0439 347.889 88.1336 348.077 88.3131C348.273 88.4841 348.372 88.702 348.372 88.967C348.372 89.232 348.273 89.4542 348.077 89.6337C347.889 89.8046 347.654 89.8901 347.372 89.8901C347.09 89.8901 346.855 89.8004 346.667 89.6209C346.487 89.4328 346.397 89.2149 346.397 88.967ZM351.841 93.9416L349.623 91.0568H351.469L352.802 92.9672L354.174 91.0568H355.944L353.738 93.9416L356.251 97.2109H354.379L352.777 94.9673L351.161 97.2109H349.341L351.841 93.9416ZM361.628 93.5185C361.628 93.3219 361.598 93.1338 361.538 92.9543C361.487 92.7749 361.401 92.6167 361.282 92.48C361.162 92.3432 361.008 92.2364 360.82 92.1594C360.641 92.074 360.427 92.0312 360.179 92.0312C359.717 92.0312 359.324 92.1723 358.999 92.4543C358.683 92.7278 358.508 93.0826 358.474 93.5185H361.628ZM363.166 94.2108C363.166 94.2792 363.166 94.3476 363.166 94.4159C363.166 94.4843 363.162 94.5527 363.153 94.6211H358.474C358.491 94.8433 358.546 95.0485 358.64 95.2365C358.743 95.416 358.875 95.5741 359.038 95.7109C359.2 95.8391 359.384 95.9417 359.589 96.0186C359.794 96.0955 360.008 96.134 360.23 96.134C360.615 96.134 360.94 96.0656 361.205 95.9288C361.47 95.7835 361.688 95.5869 361.859 95.3391L362.884 96.1596C362.277 96.9802 361.397 97.3904 360.243 97.3904C359.764 97.3904 359.324 97.3178 358.922 97.1725C358.521 97.0186 358.17 96.8049 357.871 96.5314C357.581 96.2579 357.35 95.9246 357.179 95.5314C357.016 95.1297 356.935 94.6766 356.935 94.1723C356.935 93.6766 357.016 93.2279 357.179 92.8261C357.35 92.4159 357.581 92.0697 357.871 91.7876C358.162 91.497 358.504 91.2748 358.897 91.1209C359.299 90.9585 359.73 90.8773 360.192 90.8773C360.619 90.8773 361.012 90.95 361.371 91.0953C361.739 91.2321 362.055 91.4415 362.32 91.7235C362.585 91.997 362.79 92.3432 362.935 92.762C363.089 93.1723 363.166 93.6552 363.166 94.2108ZM371.169 97.2109H369.708V96.2878H369.682C369.468 96.6468 369.169 96.9203 368.785 97.1084C368.409 97.2964 368.003 97.3904 367.567 97.3904C367.097 97.3904 366.673 97.305 366.297 97.134C365.93 96.9545 365.614 96.7195 365.349 96.4289C365.092 96.1297 364.891 95.7835 364.746 95.3903C364.609 94.9886 364.541 94.5613 364.541 94.1082C364.541 93.6552 364.614 93.2321 364.759 92.839C364.904 92.4458 365.109 92.1039 365.374 91.8133C365.639 91.5227 365.956 91.2962 366.323 91.1338C366.691 90.9628 367.092 90.8773 367.528 90.8773C367.81 90.8773 368.062 90.9115 368.285 90.9799C368.507 91.0397 368.699 91.1167 368.862 91.2107C369.033 91.3047 369.178 91.4073 369.298 91.5184C369.417 91.6295 369.515 91.7363 369.592 91.8389H369.631V87.5182H371.169V97.2109ZM366.105 94.1082C366.105 94.3476 366.139 94.5869 366.208 94.8262C366.285 95.0655 366.396 95.2792 366.541 95.4673C366.686 95.6553 366.87 95.8092 367.092 95.9288C367.315 96.0485 367.575 96.1083 367.874 96.1083C368.156 96.1083 368.409 96.0528 368.631 95.9417C368.853 95.822 369.041 95.6681 369.195 95.4801C369.357 95.2921 369.477 95.0826 369.554 94.8519C369.639 94.6125 369.682 94.3732 369.682 94.1339C369.682 93.8946 369.639 93.6552 369.554 93.4159C369.477 93.1766 369.357 92.9629 369.195 92.7749C369.041 92.5868 368.853 92.433 368.631 92.3133C368.409 92.1936 368.156 92.1338 367.874 92.1338C367.575 92.1338 367.315 92.1936 367.092 92.3133C366.87 92.4244 366.686 92.574 366.541 92.762C366.396 92.9501 366.285 93.1638 366.208 93.4031C366.139 93.6339 366.105 93.8689 366.105 94.1082ZM376.834 88.1336H379.988C380.415 88.1336 380.829 88.1806 381.231 88.2747C381.633 88.3601 381.988 88.5054 382.295 88.7106C382.612 88.9157 382.864 89.185 383.052 89.5183C383.24 89.8517 383.334 90.2577 383.334 90.7363C383.334 91.3945 383.146 91.9329 382.77 92.3518C382.402 92.762 381.898 93.0398 381.257 93.1851L383.68 97.2109H381.731L379.629 93.3646H378.449V97.2109H376.834V88.1336ZM379.77 92.0441C380 92.0441 380.231 92.027 380.462 91.9928C380.693 91.9586 380.898 91.8945 381.077 91.8005C381.265 91.7064 381.419 91.5739 381.539 91.403C381.659 91.2235 381.718 90.997 381.718 90.7235C381.718 90.4756 381.663 90.2747 381.552 90.1209C381.441 89.9585 381.3 89.8303 381.129 89.7363C380.958 89.6422 380.761 89.5781 380.539 89.5439C380.325 89.5098 380.116 89.4927 379.911 89.4927H378.449V92.0441H379.77ZM388.747 96.4289H388.708C388.554 96.7024 388.307 96.9289 387.965 97.1084C387.623 97.2793 387.234 97.3648 386.798 97.3648C386.55 97.3648 386.289 97.3306 386.016 97.2622C385.751 97.2024 385.503 97.0998 385.272 96.9545C385.05 96.8007 384.862 96.6041 384.708 96.3647C384.563 96.1169 384.49 95.8134 384.49 95.4545C384.49 94.9929 384.618 94.6254 384.875 94.3518C385.14 94.0783 385.477 93.8689 385.888 93.7236C386.298 93.5783 386.751 93.4843 387.247 93.4415C387.751 93.3903 388.242 93.3646 388.721 93.3646V93.2108C388.721 92.8261 388.58 92.5441 388.298 92.3646C388.025 92.1765 387.695 92.0825 387.311 92.0825C386.986 92.0825 386.674 92.1509 386.375 92.2877C386.076 92.4244 385.828 92.5911 385.631 92.7877L384.836 91.8517C385.187 91.5269 385.589 91.2833 386.042 91.1209C386.503 90.9585 386.969 90.8773 387.439 90.8773C387.986 90.8773 388.435 90.9543 388.785 91.1081C389.144 91.262 389.426 91.4628 389.631 91.7107C389.837 91.9586 389.978 92.2364 390.055 92.5441C390.14 92.8518 390.183 93.1595 390.183 93.4672V97.2109H388.747V96.4289ZM388.721 94.4031H388.375C388.127 94.4031 387.866 94.4159 387.593 94.4416C387.319 94.4587 387.067 94.5057 386.836 94.5826C386.606 94.651 386.413 94.7536 386.259 94.8903C386.106 95.0185 386.029 95.198 386.029 95.4288C386.029 95.5741 386.059 95.6981 386.118 95.8006C386.187 95.8946 386.272 95.9716 386.375 96.0314C386.477 96.0912 386.593 96.134 386.721 96.1596C386.849 96.1853 386.977 96.1981 387.106 96.1981C387.636 96.1981 388.037 96.057 388.311 95.775C388.584 95.4929 388.721 95.1083 388.721 94.6211V94.4031ZM391.222 92.2877V91.0568H392.299V89.2747H393.812V91.0568H395.35V92.2877H393.812V95.1467C393.812 95.4203 393.859 95.6468 393.953 95.8263C394.055 96.0058 394.277 96.0955 394.619 96.0955C394.722 96.0955 394.833 96.087 394.953 96.0699C395.072 96.0442 395.179 96.01 395.273 95.9673L395.324 97.1725C395.188 97.2238 395.025 97.2622 394.837 97.2879C394.649 97.3221 394.47 97.3391 394.299 97.3391C393.889 97.3391 393.555 97.2836 393.299 97.1725C393.042 97.0528 392.837 96.8947 392.683 96.6981C392.538 96.493 392.435 96.2622 392.376 96.0058C392.324 95.7408 392.299 95.4587 392.299 95.1596V92.2877H391.222ZM401.053 93.5185C401.053 93.3219 401.024 93.1338 400.964 92.9543C400.912 92.7749 400.827 92.6167 400.707 92.48C400.588 92.3432 400.434 92.2364 400.246 92.1594C400.066 92.074 399.853 92.0312 399.605 92.0312C399.143 92.0312 398.75 92.1723 398.425 92.4543C398.109 92.7278 397.934 93.0826 397.899 93.5185H401.053ZM402.592 94.2108C402.592 94.2792 402.592 94.3476 402.592 94.4159C402.592 94.4843 402.588 94.5527 402.579 94.6211H397.899C397.917 94.8433 397.972 95.0485 398.066 95.2365C398.169 95.416 398.301 95.5741 398.464 95.7109C398.626 95.8391 398.81 95.9417 399.015 96.0186C399.22 96.0955 399.434 96.134 399.656 96.134C400.041 96.134 400.365 96.0656 400.63 95.9288C400.895 95.7835 401.113 95.5869 401.284 95.3391L402.31 96.1596C401.703 96.9802 400.823 97.3904 399.669 97.3904C399.19 97.3904 398.75 97.3178 398.348 97.1725C397.947 97.0186 397.596 96.8049 397.297 96.5314C397.006 96.2579 396.776 95.9246 396.605 95.5314C396.442 95.1297 396.361 94.6766 396.361 94.1723C396.361 93.6766 396.442 93.2279 396.605 92.8261C396.776 92.4159 397.006 92.0697 397.297 91.7876C397.588 91.497 397.929 91.2748 398.323 91.1209C398.724 90.9585 399.156 90.8773 399.618 90.8773C400.045 90.8773 400.438 90.95 400.797 91.0953C401.165 91.2321 401.481 91.4415 401.746 91.7235C402.011 91.997 402.216 92.3432 402.361 92.762C402.515 93.1723 402.592 93.6552 402.592 94.2108ZM407.877 88.1336H410.839C411.36 88.1336 411.83 88.1806 412.249 88.2747C412.668 88.3687 413.027 88.5225 413.326 88.7362C413.625 88.9499 413.856 89.2234 414.018 89.5568C414.181 89.8901 414.262 90.2918 414.262 90.7619C414.262 91.2662 414.168 91.6893 413.98 92.0312C413.792 92.3731 413.535 92.6509 413.211 92.8646C412.894 93.0697 412.523 93.2193 412.095 93.3133C411.668 93.4074 411.215 93.4544 410.736 93.4544H409.493V97.2109H407.877V88.1336ZM410.621 92.0953C410.886 92.0953 411.138 92.0782 411.377 92.0441C411.617 92.0013 411.83 91.9329 412.018 91.8389C412.206 91.7363 412.356 91.5996 412.467 91.4286C412.578 91.2577 412.634 91.0355 412.634 90.7619C412.634 90.497 412.578 90.2833 412.467 90.1209C412.356 89.9499 412.206 89.8175 412.018 89.7234C411.839 89.6294 411.629 89.5696 411.39 89.5439C411.159 89.5098 410.92 89.4927 410.672 89.4927H409.493V92.0953H410.621ZM414.684 94.1082C414.684 93.621 414.77 93.1809 414.94 92.7877C415.12 92.3859 415.359 92.0441 415.658 91.762C415.958 91.4799 416.312 91.262 416.723 91.1081C417.133 90.9543 417.569 90.8773 418.03 90.8773C418.492 90.8773 418.928 90.9543 419.338 91.1081C419.748 91.262 420.103 91.4799 420.402 91.762C420.701 92.0441 420.936 92.3859 421.107 92.7877C421.287 93.1809 421.377 93.621 421.377 94.1082C421.377 94.5954 421.287 95.0399 421.107 95.4416C420.936 95.8434 420.701 96.1895 420.402 96.4801C420.103 96.7622 419.748 96.9844 419.338 97.1468C418.928 97.3092 418.492 97.3904 418.03 97.3904C417.569 97.3904 417.133 97.3092 416.723 97.1468C416.312 96.9844 415.958 96.7622 415.658 96.4801C415.359 96.1895 415.12 95.8434 414.94 95.4416C414.77 95.0399 414.684 94.5954 414.684 94.1082ZM416.248 94.1082C416.248 94.3476 416.282 94.5869 416.351 94.8262C416.428 95.0655 416.539 95.2792 416.684 95.4673C416.829 95.6553 417.013 95.8092 417.235 95.9288C417.458 96.0485 417.723 96.1083 418.03 96.1083C418.338 96.1083 418.603 96.0485 418.825 95.9288C419.047 95.8092 419.231 95.6553 419.377 95.4673C419.522 95.2792 419.629 95.0655 419.697 94.8262C419.774 94.5869 419.812 94.3476 419.812 94.1082C419.812 93.8689 419.774 93.6339 419.697 93.4031C419.629 93.1638 419.522 92.9501 419.377 92.762C419.231 92.574 419.047 92.4244 418.825 92.3133C418.603 92.1936 418.338 92.1338 418.03 92.1338C417.723 92.1338 417.458 92.1936 417.235 92.3133C417.013 92.4244 416.829 92.574 416.684 92.762C416.539 92.9501 416.428 93.1638 416.351 93.4031C416.282 93.6339 416.248 93.8689 416.248 94.1082ZM422.766 94.1082C422.766 93.621 422.851 93.1809 423.022 92.7877C423.202 92.3859 423.441 92.0441 423.74 91.762C424.039 91.4799 424.394 91.262 424.804 91.1081C425.215 90.9543 425.651 90.8773 426.112 90.8773C426.574 90.8773 427.01 90.9543 427.42 91.1081C427.83 91.262 428.185 91.4799 428.484 91.762C428.783 92.0441 429.018 92.3859 429.189 92.7877C429.369 93.1809 429.458 93.621 429.458 94.1082C429.458 94.5954 429.369 95.0399 429.189 95.4416C429.018 95.8434 428.783 96.1895 428.484 96.4801C428.185 96.7622 427.83 96.9844 427.42 97.1468C427.01 97.3092 426.574 97.3904 426.112 97.3904C425.651 97.3904 425.215 97.3092 424.804 97.1468C424.394 96.9844 424.039 96.7622 423.74 96.4801C423.441 96.1895 423.202 95.8434 423.022 95.4416C422.851 95.0399 422.766 94.5954 422.766 94.1082ZM424.33 94.1082C424.33 94.3476 424.364 94.5869 424.433 94.8262C424.509 95.0655 424.621 95.2792 424.766 95.4673C424.911 95.6553 425.095 95.8092 425.317 95.9288C425.539 96.0485 425.804 96.1083 426.112 96.1083C426.42 96.1083 426.685 96.0485 426.907 95.9288C427.129 95.8092 427.313 95.6553 427.458 95.4673C427.604 95.2792 427.71 95.0655 427.779 94.8262C427.856 94.5869 427.894 94.3476 427.894 94.1082C427.894 93.8689 427.856 93.6339 427.779 93.4031C427.71 93.1638 427.604 92.9501 427.458 92.762C427.313 92.574 427.129 92.4244 426.907 92.3133C426.685 92.1936 426.42 92.1338 426.112 92.1338C425.804 92.1338 425.539 92.1936 425.317 92.3133C425.095 92.4244 424.911 92.574 424.766 92.762C424.621 92.9501 424.509 93.1638 424.433 93.4031C424.364 93.6339 424.33 93.8689 424.33 94.1082ZM431.232 87.5182H432.771V97.2109H431.232V87.5182Z" fill="#012E3A"/>
<path d="M370.757 15.2899L385.984 10.8187L401.212 15.2899L411.605 27.2839L413.863 42.9928L407.271 57.429L393.92 66.0092H378.049L364.698 57.429L358.105 42.9928L360.364 27.2839L370.757 15.2899Z" fill="url(#paint5_linear_10359_103677)" fill-opacity="0.5" stroke="url(#paint6_linear_10359_103677)" stroke-width="1.57103"/>
<g clip-path="url(#clip1_10359_103677)">
<path d="M249.653 15.2833C249.653 19.3296 246.373 22.6097 242.326 22.6097C238.28 22.6097 235 19.3296 235 15.2833C235 11.2371 238.28 7.95703 242.326 7.95703C246.373 7.95703 249.653 11.2371 249.653 15.2833Z" fill="white"/>
<path d="M246.947 11.0309L246.545 11.4332C247.505 12.483 248.037 13.8541 248.037 15.2767C248.037 16.6993 247.505 18.0704 246.545 19.1203L246.947 19.5226C248.015 18.3645 248.608 16.8471 248.608 15.272C248.608 13.6969 248.015 12.1795 246.947 11.0215V11.0309Z" fill="#21B9BA"/>
<path d="M238.486 11.0666C239.536 10.1066 240.907 9.57422 242.329 9.57422C243.752 9.57422 245.123 10.1066 246.173 11.0666L246.575 10.6643C245.417 9.59665 243.9 9.00391 242.325 9.00391C240.75 9.00391 239.232 9.59665 238.074 10.6643L238.486 11.0666Z" fill="#21B9BA"/>
<path d="M238.112 19.1264C237.153 18.0768 236.621 16.7065 236.621 15.2849C236.621 13.8632 237.153 12.4929 238.112 11.4433L237.709 11.041C236.642 12.1991 236.049 13.7165 236.049 15.2916C236.049 16.8667 236.642 18.3841 237.709 19.5421L238.112 19.1264Z" fill="#21B9BA"/>
<path d="M246.169 19.498C245.12 20.4581 243.749 20.9904 242.326 20.9904C240.903 20.9904 239.532 20.4581 238.482 19.498L238.08 19.9004C239.238 20.968 240.756 21.5607 242.331 21.5607C243.906 21.5607 245.423 20.968 246.581 19.9004L246.169 19.498Z" fill="#21B9BA"/>
<path d="M244.866 13.9411C244.786 13.1016 244.061 12.82 243.145 12.7341V11.5781H242.437V12.7127C242.251 12.7127 242.061 12.7127 241.871 12.7127V11.5781H241.169V12.7422H239.732V13.4999C239.732 13.4999 240.255 13.4905 240.247 13.4999C240.342 13.4895 240.436 13.5162 240.511 13.5742C240.586 13.6322 240.636 13.7171 240.65 13.811V16.9974C240.648 17.0305 240.639 17.0629 240.624 17.0926C240.61 17.1223 240.589 17.1488 240.564 17.1704C240.539 17.1925 240.51 17.2093 240.479 17.2199C240.448 17.2305 240.414 17.2347 240.382 17.2321C240.391 17.2402 239.867 17.2321 239.867 17.2321L239.732 18.0783H241.155V19.2612H241.863V18.0958H242.429V19.2558H243.139V18.0864C244.335 18.014 245.169 17.7189 245.274 16.5991C245.358 15.6979 244.934 15.2956 244.257 15.1333C244.669 14.9308 244.924 14.5553 244.866 13.9411ZM243.874 16.4597C243.874 17.3394 242.366 17.2388 241.886 17.2388V15.6778C242.366 15.6791 243.874 15.541 243.874 16.4597ZM243.545 14.2603C243.545 15.0649 242.287 14.967 241.888 14.967V13.5482C242.287 13.5482 243.545 13.4221 243.545 14.2603Z" fill="#014250"/>
<path d="M242.325 22.6097C240.876 22.6094 239.46 22.1795 238.255 21.3744C237.051 20.5693 236.112 19.425 235.557 18.0864C235.003 16.7477 234.858 15.2748 235.141 13.8537C235.424 12.4327 236.121 11.1274 237.146 10.1029C238.17 9.07834 239.476 8.3806 240.897 8.09787C242.318 7.81514 243.791 7.96012 245.129 8.51446C246.468 9.06881 247.612 10.0076 248.417 11.2122C249.222 12.4168 249.652 13.8331 249.653 15.282C249.653 16.2443 249.463 17.1973 249.095 18.0864C248.727 18.9755 248.187 19.7834 247.507 20.4638C246.826 21.1443 246.018 21.6841 245.129 22.0522C244.24 22.4204 243.287 22.6098 242.325 22.6097ZM242.325 8.52833C240.99 8.5294 239.686 8.92617 238.576 9.6685C237.467 10.4108 236.602 11.4654 236.092 12.6989C235.582 13.9324 235.449 15.2895 235.71 16.5987C235.97 17.9078 236.614 19.1102 237.558 20.0539C238.502 20.9977 239.704 21.6403 241.014 21.9007C242.323 22.161 243.68 22.0274 244.913 21.5167C246.147 21.006 247.201 20.1411 247.943 19.0314C248.685 17.9216 249.081 16.6169 249.081 15.282C249.082 14.3948 248.907 13.5162 248.568 12.6965C248.228 11.8767 247.731 11.1319 247.103 10.5047C246.476 9.87746 245.731 9.38006 244.911 9.04094C244.091 8.70182 243.212 8.52763 242.325 8.52833Z" fill="#014250"/>
</g>
<path d="M246.012 63.8224C246.012 67.8686 242.732 71.1487 238.686 71.1487C234.639 71.1487 231.359 67.8686 231.359 63.8224C231.359 59.7762 234.639 56.4961 238.686 56.4961C242.732 56.4961 246.012 59.7762 246.012 63.8224Z" fill="url(#paint7_linear_10359_103677)"/>
<path d="M245.502 63.7861C245.502 67.5706 242.434 70.6385 238.649 70.6385C234.865 70.6385 231.797 67.5706 231.797 63.7861C231.797 60.0016 234.865 56.9336 238.649 56.9336C242.434 56.9336 245.502 60.0016 245.502 63.7861Z" fill="url(#paint8_linear_10359_103677)"/>
<g style="mix-blend-mode:lighten" opacity="0.7">
<path d="M238.65 56.5371C240.092 56.5371 241.502 56.9647 242.7 57.7657C243.899 58.5667 244.834 59.7052 245.385 61.0373C245.937 62.3693 246.081 63.8351 245.8 65.2492C245.519 66.6633 244.825 67.9622 243.805 68.9817L238.65 63.827V56.5371Z" fill="url(#paint9_radial_10359_103677)"/>
</g>
<path d="M243.309 59.5699L242.906 59.9723C243.866 61.0221 244.399 62.3932 244.399 63.8158C244.399 65.2384 243.866 66.6095 242.906 67.6593L243.309 68.0616C244.376 66.9036 244.969 65.3862 244.969 63.8111C244.969 62.236 244.376 60.7186 243.309 59.5605V59.5699Z" fill="#E6EAEB"/>
<path d="M234.845 59.6057C235.895 58.6457 237.266 58.1133 238.689 58.1133C240.111 58.1133 241.483 58.6457 242.532 59.6057L242.935 59.2033C241.777 58.1357 240.259 57.543 238.684 57.543C237.109 57.543 235.592 58.1357 234.434 59.2033L234.845 59.6057Z" fill="#E6EAEB"/>
<path d="M234.471 67.6654C233.512 66.6158 232.98 65.2456 232.98 63.8239C232.98 62.4023 233.512 61.032 234.471 59.9824L234.069 59.5801C233.001 60.7381 232.408 62.2555 232.408 63.8306C232.408 65.4057 233.001 66.9231 234.069 68.0812L234.471 67.6654Z" fill="#E6EAEB"/>
<path d="M242.529 68.0371C241.479 68.9971 240.108 69.5295 238.685 69.5295C237.263 69.5295 235.892 68.9971 234.842 68.0371L234.439 68.4394C235.597 69.5071 237.115 70.0998 238.69 70.0998C240.265 70.0998 241.783 69.5071 242.941 68.4394L242.529 68.0371Z" fill="#E6EAEB"/>
<path d="M241.225 62.4802C241.145 61.6407 240.421 61.359 239.505 61.2732V60.1172H238.797V61.2517C238.61 61.2517 238.42 61.2517 238.231 61.2517V60.1172H237.528V61.2812H236.092V62.039C236.092 62.039 236.615 62.0296 236.607 62.039C236.701 62.0286 236.796 62.0552 236.871 62.1133C236.946 62.1713 236.995 62.2562 237.009 62.3501V65.5365C237.007 65.5696 236.998 65.602 236.984 65.6317C236.969 65.6614 236.948 65.6879 236.923 65.7095C236.899 65.7315 236.87 65.7484 236.838 65.759C236.807 65.7696 236.774 65.7737 236.741 65.7712C236.75 65.7792 236.226 65.7712 236.226 65.7712L236.092 66.6174H237.515V67.8002H238.223V66.6348H238.789V67.7949H239.498V66.6254C240.694 66.553 241.529 66.258 241.633 65.1382C241.718 64.237 241.294 63.8347 240.617 63.6724C241.028 63.4699 241.283 63.0944 241.225 62.4802ZM240.233 64.9987C240.233 65.8785 238.726 65.7779 238.246 65.7779V64.2169C238.726 64.2182 240.233 64.0801 240.233 64.9987ZM239.904 62.7993C239.904 63.604 238.647 63.5061 238.247 63.5061V62.0872C238.647 62.0872 239.904 61.9612 239.904 62.7993Z" fill="white"/>
</g>
<defs>
<linearGradient id="paint0_linear_10359_103677" x1="190.956" y1="38.8873" x2="93.312" y2="38.8873" gradientUnits="userSpaceOnUse">
<stop stop-color="#053542"/>
<stop offset="1" stop-color="#06657E"/>
</linearGradient>
<linearGradient id="paint1_linear_10359_103677" x1="190.956" y1="34.3692" x2="93.312" y2="34.3692" gradientUnits="userSpaceOnUse">
<stop stop-color="#053542"/>
<stop offset="1" stop-color="#06657E"/>
</linearGradient>
<linearGradient id="paint2_linear_10359_103677" x1="190.956" y1="34.3692" x2="93.312" y2="34.3692" gradientUnits="userSpaceOnUse">
<stop stop-color="#053542"/>
<stop offset="1" stop-color="#06657E"/>
</linearGradient>
<linearGradient id="paint3_linear_10359_103677" x1="336.732" y1="30.2456" x2="235.159" y2="30.2494" gradientUnits="userSpaceOnUse">
<stop offset="0.239095" stop-color="#053542"/>
<stop offset="1" stop-color="#09809F"/>
</linearGradient>
<linearGradient id="paint4_linear_10359_103677" x1="185.758" y1="48.6676" x2="286.495" y2="48.6676" gradientUnits="userSpaceOnUse">
<stop offset="0.129846" stop-color="#27C1C7"/>
<stop offset="1" stop-color="#62BAE0"/>
</linearGradient>
<linearGradient id="paint5_linear_10359_103677" x1="452.598" y1="70.3048" x2="451.485" y2="10.4344" gradientUnits="userSpaceOnUse">
<stop stop-color="#BFC9F5" stop-opacity="0.5"/>
<stop offset="0.0001" stop-color="#8EA1F5" stop-opacity="0.5"/>
<stop offset="1" stop-color="#26CBCF"/>
</linearGradient>
<linearGradient id="paint6_linear_10359_103677" x1="452.598" y1="70.3048" x2="451.485" y2="10.4344" gradientUnits="userSpaceOnUse">
<stop stop-color="#BFC9F5" stop-opacity="0.5"/>
<stop offset="0.0001" stop-color="#8EA1F5" stop-opacity="0.5"/>
<stop offset="1" stop-color="#26CBCF"/>
</linearGradient>
<linearGradient id="paint7_linear_10359_103677" x1="238.686" y1="56.4961" x2="238.686" y2="71.1487" gradientUnits="userSpaceOnUse">
<stop stop-color="#2BCAD0"/>
<stop offset="1" stop-color="#8BC1E5"/>
</linearGradient>
<linearGradient id="paint8_linear_10359_103677" x1="251.74" y1="63.8457" x2="228.545" y2="63.8457" gradientUnits="userSpaceOnUse">
<stop offset="0.239095" stop-color="#053542"/>
<stop offset="1" stop-color="#06657E"/>
</linearGradient>
<radialGradient id="paint9_radial_10359_103677" cx="0" cy="0" r="1" gradientUnits="userSpaceOnUse" gradientTransform="translate(238.65 63.827) rotate(-45) scale(7.28987)">
<stop stop-color="#33F8FF"/>
<stop offset="1" stop-color="#065368"/>
</radialGradient>
<clipPath id="clip0_10359_103677">
<rect width="522" height="102" fill="white"/>
</clipPath>
<clipPath id="clip1_10359_103677">
<rect width="14.6526" height="14.6526" fill="white" transform="translate(235 7.95703)"/>
</clipPath>
</defs>
</svg>
