<svg xmlns="http://www.w3.org/2000/svg" fill="none" viewBox="0 0 24.35 28">
<rect x="6.9668" y="16.3457" width="10.528" height="0.717815" fill="#012E3A"/>
<path fill-rule="evenodd" clip-rule="evenodd" d="M24.3478 7L12.1739 0L0 7V21L12.1739 28L24.3478 21V7Z" fill="#012E3A" fill-opacity="0.15"/>
<path fill-rule="evenodd" clip-rule="evenodd" d="M12.1739 1.00977L0.878062 7.50489V20.4951L12.1739 26.9902L23.4698 20.4951V7.50489L12.1739 1.00977ZM24.3478 7L12.1739 0L0 7V21L12.1739 28L24.3478 21V7Z" fill="#012E3A"/>
<path d="M6.73242 8.1299H7.98566L9.71887 12.9499H9.75443L11.5054 8.1299H12.7142L10.1899 14.3915H9.22113L6.73242 8.1299Z" fill="#012E3A"/>
<path d="M14.868 10.7035H15.1524C15.3124 10.7035 15.4695 10.6917 15.6235 10.6681C15.7835 10.6387 15.9287 10.5885 16.059 10.5178C16.1894 10.447 16.2931 10.3527 16.3701 10.2348C16.4531 10.111 16.4946 9.95177 16.4946 9.7572C16.4946 9.6157 16.4679 9.48893 16.4146 9.37691C16.3612 9.26488 16.2872 9.17055 16.1924 9.0939C16.1035 9.01725 15.9968 8.95829 15.8724 8.91702C15.7539 8.87574 15.6294 8.85511 15.4991 8.85511C15.2384 8.85511 15.0221 8.92881 14.8502 9.07621C14.6784 9.22361 14.5599 9.41818 14.4947 9.65992L13.4903 9.40344C13.5437 9.19118 13.6325 8.99956 13.757 8.82858C13.8873 8.65169 14.0414 8.50135 14.2192 8.37753C14.4029 8.24782 14.6073 8.14758 14.8325 8.07683C15.0576 8.00608 15.2947 7.9707 15.5435 7.9707C15.8161 7.9707 16.0739 8.00903 16.3168 8.08568C16.5657 8.15643 16.782 8.2655 16.9656 8.41291C17.1553 8.55441 17.3034 8.73129 17.4101 8.94355C17.5167 9.1558 17.57 9.40344 17.57 9.68645C17.57 10.0225 17.4663 10.3232 17.259 10.5885C17.0575 10.848 16.7849 11.019 16.4412 11.1015V11.1192C16.8264 11.1958 17.1375 11.3698 17.3745 11.641C17.6174 11.9063 17.7389 12.2335 17.7389 12.6227C17.7389 12.947 17.6737 13.23 17.5434 13.4717C17.4189 13.7134 17.2501 13.9139 17.0367 14.0731C16.8294 14.2323 16.5953 14.3502 16.3346 14.4269C16.0739 14.5094 15.8102 14.5507 15.5435 14.5507C15.2769 14.5507 15.025 14.5212 14.788 14.4622C14.551 14.4092 14.3318 14.3237 14.1303 14.2058C13.9347 14.0878 13.7599 13.9345 13.6059 13.7459C13.4577 13.5572 13.3422 13.3331 13.2592 13.0737L14.2547 12.7642C14.3318 13.0118 14.474 13.2211 14.6814 13.3921C14.8947 13.5631 15.1702 13.6486 15.508 13.6486C15.6443 13.6486 15.7805 13.6309 15.9168 13.5955C16.059 13.5542 16.1835 13.4923 16.2901 13.4098C16.4027 13.3272 16.4916 13.2211 16.5568 13.0914C16.6279 12.9617 16.6634 12.8025 16.6634 12.6138C16.6634 12.4134 16.6131 12.2453 16.5123 12.1097C16.4175 11.9682 16.2961 11.8591 16.1479 11.7825C15.9998 11.6999 15.8339 11.641 15.6502 11.6056C15.4724 11.5702 15.3006 11.5525 15.1347 11.5525H14.868V10.7035Z" fill="#012E3A"/>
<path d="M6.9668 18.7109H7.95738C8.05309 18.7109 8.1476 18.7229 8.24092 18.7468C8.33423 18.7684 8.41678 18.8054 8.48856 18.8581C8.56274 18.9083 8.62256 18.9741 8.66802 19.0555C8.71348 19.1368 8.73621 19.2349 8.73621 19.3498C8.73621 19.4934 8.69553 19.6118 8.61418 19.7051C8.53283 19.7984 8.42635 19.8654 8.29475 19.9061V19.9133C8.45507 19.9348 8.58667 19.997 8.68955 20.0999C8.79244 20.2028 8.84388 20.3404 8.84388 20.5127C8.84388 20.6514 8.81637 20.7687 8.76133 20.8644C8.7063 20.9577 8.63332 21.0331 8.5424 21.0905C8.45387 21.1479 8.35098 21.1898 8.23374 21.2161C8.11889 21.24 8.00165 21.252 7.88201 21.252H6.9668V18.7109ZM7.41902 19.7446H7.821C7.97174 19.7446 8.08659 19.7147 8.16555 19.6549C8.24451 19.595 8.28399 19.5101 8.28399 19.4C8.28399 19.2852 8.24331 19.2038 8.16196 19.156C8.08061 19.1081 7.95379 19.0842 7.78152 19.0842H7.41902V19.7446ZM7.41902 20.8716H7.82459C7.88201 20.8716 7.94422 20.868 8.01122 20.8608C8.07821 20.8512 8.13923 20.8333 8.19426 20.807C8.25169 20.7806 8.29834 20.7424 8.33423 20.6921C8.37252 20.6419 8.39166 20.5749 8.39166 20.4911C8.39166 20.3571 8.3462 20.2638 8.25527 20.2112C8.16435 20.1585 8.02677 20.1322 7.84253 20.1322H7.41902V20.8716Z" fill="#012E3A"/>
<path d="M9.93662 18.7109H11.6199V19.1057H10.3888V19.7518H11.5553V20.1322H10.3888V20.85H11.6845V21.252H9.93662V18.7109Z" fill="#012E3A"/>
<path d="M13.2865 19.1057H12.5077V18.7109H14.5175V19.1057H13.7387V21.252H13.2865V19.1057Z" fill="#012E3A"/>
<path d="M16.0421 18.7109H16.4333L17.528 21.252H17.0112L16.7743 20.6706H15.6725L15.4428 21.252H14.9367L16.0421 18.7109ZM16.6164 20.283L16.2252 19.2493L15.8268 20.283H16.6164Z" fill="#012E3A"/>
</svg>