<svg width="277" height="461" viewBox="0 0 277 461" fill="none" xmlns="http://www.w3.org/2000/svg">
<path d="M247.236 0.772852L29.7639 0.772852C27.9764 0.772852 26.262 1.48251 24.9975 2.74587L2.75023 24.9728C1.4842 26.2377 0.772852 27.9539 0.772852 29.7435L0.772852 431.256C0.772852 433.046 1.4842 434.762 2.75023 436.027L24.9975 458.254C26.262 459.518 27.9764 460.227 29.7639 460.227H247.236C249.024 460.227 250.738 459.518 252.003 458.254L274.25 436.027C275.516 434.762 276.227 433.046 276.227 431.257V29.7436C276.227 27.9539 275.516 26.2377 274.25 24.9728L252.003 2.74587C250.738 1.48251 249.024 0.772852 247.236 0.772852Z" stroke="url(#paint0_linear_4478_17951)" stroke-width="0.454295"/>
<path d="M1 29.7215C1 27.9912 1.6882 26.3318 2.91288 25.1094L25.1584 2.90446C26.3802 1.68494 28.0359 1 29.7621 1L247.238 1C248.964 1 250.62 1.68493 251.842 2.90446L274.087 25.1094C275.312 26.3318 276 27.9912 276 29.7215V430.859C276 432.59 275.312 434.249 274.087 435.472L251.842 457.676C250.62 458.896 248.964 459.581 247.238 459.581H29.7621C28.0359 459.581 26.3802 458.896 25.1584 457.676L2.91288 435.472C1.68821 434.249 1 432.59 1 430.859L1 29.7215Z" fill="url(#paint1_linear_4478_17951)" fill-opacity="0.5"/>
<g clip-path="url(#clip0_4478_17951)">
<rect x="12.0762" y="8.8125" width="252.844" height="440.521" rx="19.5498" fill="url(#paint2_linear_4478_17951)"/>
<g filter="url(#filter0_f_4478_17951)">
<ellipse cx="54.4931" cy="95.8558" rx="54.4931" ry="95.8558" transform="matrix(0.796753 0.604306 -0.158578 0.987346 110.07 117.388)" fill="#5CFFCE"/>
</g>
<g style="mix-blend-mode:hard-light" filter="url(#filter1_f_4478_17951)">
<ellipse cx="47.5761" cy="83.7259" rx="47.5761" ry="83.7259" transform="matrix(0.796753 0.604306 -0.158578 0.987346 171.516 99.1074)" fill="#C15CFF"/>
</g>
<g style="mix-blend-mode:overlay" filter="url(#filter2_f_4478_17951)">
<ellipse cx="71.8702" cy="126.033" rx="71.8702" ry="126.033" transform="matrix(0.796753 0.604306 -0.158578 0.987346 26.6367 82.9409)" fill="#5C9DFF"/>
</g>
<g style="mix-blend-mode:lighten" filter="url(#filter3_f_4478_17951)">
<ellipse cx="30.0303" cy="52.0698" rx="30.0303" ry="52.0698" transform="matrix(0.796753 0.604306 -0.158578 0.987346 146.064 233.163)" fill="#FF8F50"/>
</g>
<g style="mix-blend-mode:overlay" filter="url(#filter4_f_4478_17951)">
<path d="M178.214 226.268C178.214 248.38 174.089 268.392 167.426 282.87C160.758 297.361 151.575 306.257 141.482 306.257C131.388 306.257 122.205 297.361 115.537 282.87C108.874 268.392 104.75 248.38 104.75 226.268C104.75 204.156 108.874 184.144 115.537 169.666C122.205 155.175 131.388 146.279 141.482 146.279C151.575 146.279 160.758 155.175 167.426 169.666C174.089 184.144 178.214 204.156 178.214 226.268Z" stroke="white" stroke-width="0.284741"/>
<path d="M230.322 226.577C230.322 264.323 223.281 298.49 211.903 323.214C200.52 347.95 184.824 363.184 167.536 363.184C150.248 363.184 134.551 347.95 123.168 323.214C111.791 298.49 104.75 264.323 104.75 226.577C104.75 188.83 111.791 154.664 123.168 129.94C134.551 105.203 150.248 89.9695 167.536 89.9695C184.824 89.9695 200.52 105.203 211.903 129.94C223.281 154.664 230.322 188.83 230.322 226.577Z" stroke="white" stroke-width="0.284741"/>
<g style="mix-blend-mode:color-dodge" filter="url(#filter5_dd_4478_17951)">
<ellipse cx="137.198" cy="226.268" rx="173.993" ry="309.906" fill="white" fill-opacity="0.5"/>
<path d="M311.048 226.268C311.048 311.826 291.578 389.278 260.105 445.335C228.63 501.396 185.17 536.032 137.198 536.032C89.2256 536.032 45.7656 501.396 14.2906 445.335C-17.1819 389.278 -36.6526 311.826 -36.6526 226.268C-36.6526 140.709 -17.1819 63.2575 14.2906 7.2005C45.7656 -48.861 89.2256 -83.4963 137.198 -83.4963C185.17 -83.4963 228.63 -48.861 260.105 7.2005C291.578 63.2575 311.048 140.709 311.048 226.268Z" stroke="white" stroke-width="0.284741"/>
</g>
<path d="M178.218 226.886C178.218 264.718 171.161 298.962 159.758 323.742C148.349 348.534 132.617 363.803 115.289 363.803C97.9622 363.803 82.2298 348.534 70.8211 323.742C59.4179 298.962 52.3611 264.718 52.3611 226.886C52.3611 189.054 59.4179 154.811 70.8211 130.03C82.2298 105.238 97.9622 89.9695 115.289 89.9695C132.617 89.9695 148.349 105.238 159.758 130.03C171.161 154.811 178.218 189.054 178.218 226.886Z" stroke="white" stroke-width="0.284741"/>
</g>
<g filter="url(#filter6_f_4478_17951)">
<ellipse cx="87.9928" cy="223.103" rx="105.243" ry="105.569" transform="rotate(19.2401 87.9928 223.103)" fill="#5CFFCE"/>
</g>
<g style="mix-blend-mode:hard-light" filter="url(#filter7_f_4478_17951)">
<ellipse cx="220.403" cy="186.837" rx="91.8839" ry="92.2097" transform="rotate(19.2401 220.403 186.837)" fill="#C15CFF"/>
</g>
<g style="mix-blend-mode:overlay" filter="url(#filter8_f_4478_17951)">
<circle cx="-82.2241" cy="229.264" r="138.803" transform="rotate(19.2401 -82.2241 229.264)" fill="#5C9DFF"/>
</g>
<g style="mix-blend-mode:lighten" filter="url(#filter9_f_4478_17951)">
<ellipse cx="141.648" cy="283.933" rx="57.9976" ry="57.346" transform="rotate(19.2401 141.648 283.933)" fill="#FF8F50"/>
</g>
<g filter="url(#filter10_f_4478_17951)">
<ellipse cx="41.6504" cy="289.075" rx="105.243" ry="105.569" transform="rotate(79.2401 41.6504 289.075)" fill="#5CFFCE"/>
</g>
<g style="mix-blend-mode:hard-light" filter="url(#filter11_f_4478_17951)">
<ellipse cx="139.265" cy="385.611" rx="91.8839" ry="92.2097" transform="rotate(79.2401 139.265 385.611)" fill="#C15CFF"/>
</g>
<g style="mix-blend-mode:overlay" filter="url(#filter12_f_4478_17951)">
<circle cx="-48.793" cy="144.743" r="138.803" transform="rotate(79.2401 -48.793 144.743)" fill="#5C9DFF"/>
</g>
<g style="mix-blend-mode:lighten" filter="url(#filter13_f_4478_17951)">
<ellipse cx="15.8006" cy="365.958" rx="57.9976" ry="57.346" transform="rotate(79.2401 15.8006 365.958)" fill="#FF8F50"/>
</g>
<path opacity="0.0526316" fill-rule="evenodd" clip-rule="evenodd" d="M215.578 460.191L313.445 301.289C314.847 299.012 315.584 296.305 315.57 293.478L314.608 96.2305C314.589 92.4065 313.2 88.6106 310.722 85.6126L216.314 -28.6067C212.722 -32.9515 207.337 -35.041 202.293 -34.0467L69.6942 -7.90788C66.2138 -7.2218 63.2215 -5.12589 61.3241 -2.0453L-36.5427 156.856C-37.9453 159.134 -38.6818 161.841 -38.668 164.667L-37.706 361.915C-37.6873 365.739 -36.2981 369.535 -33.8201 372.533L60.5886 486.753C64.1798 491.097 69.5651 493.187 74.6091 492.193L207.208 466.054C210.688 465.368 213.681 463.272 215.578 460.191ZM314.25 301.89C315.746 299.461 316.532 296.573 316.517 293.558L315.555 96.31C315.535 92.2311 314.053 88.1821 311.41 84.9842L217.001 -29.2351C213.171 -33.8696 207.426 -36.0984 202.046 -35.0378L69.4472 -8.89893C65.7347 -8.16709 62.5429 -5.93149 60.5191 -2.64553L-37.3478 156.256C-38.8438 158.685 -39.6295 161.573 -39.6148 164.588L-38.6527 361.836C-38.6328 365.915 -37.151 369.964 -34.5078 373.162L59.9009 487.381C63.7316 492.015 69.4759 494.244 74.8562 493.184L207.455 467.045C211.167 466.313 214.359 464.077 216.383 460.791L314.25 301.89Z" fill="url(#paint3_linear_4478_17951)"/>
<path opacity="0.105263" fill-rule="evenodd" clip-rule="evenodd" d="M200.905 458.94L304.558 313.77C306.137 311.558 307.057 308.839 307.208 305.938L317.093 115.528C317.293 111.669 316.121 107.741 313.815 104.549L228.347 -13.7407C225.088 -18.2516 219.999 -20.7067 215.031 -20.1655L84.7399 -5.97281C81.2245 -5.58988 78.0959 -3.73745 75.995 -0.794951L-27.6578 144.375C-29.2371 146.587 -30.157 149.305 -30.3076 152.207L-40.193 342.616C-40.3933 346.476 -39.2204 350.404 -36.9144 353.595L48.553 471.885C51.8122 476.396 56.9008 478.851 61.8693 478.31L192.16 464.117C195.676 463.734 198.804 461.882 200.905 458.94ZM305.314 314.439C306.999 312.079 307.98 309.179 308.141 306.084L318.026 115.675C318.24 111.558 316.989 107.368 314.529 103.964L229.062 -14.3262C225.585 -19.1378 220.157 -21.7565 214.858 -21.1792L84.5665 -6.9866C80.8168 -6.57813 77.4797 -4.6022 75.2386 -1.46355L-28.4141 143.706C-30.0987 146.065 -31.0799 148.965 -31.2406 152.06L-41.126 342.47C-41.3397 346.587 -40.0886 350.776 -37.6288 354.181L47.8386 472.471C51.3151 477.282 56.7429 479.901 62.0426 479.324L192.334 465.131C196.083 464.723 199.42 462.747 201.662 459.608L305.314 314.439Z" fill="url(#paint4_linear_4478_17951)"/>
<path opacity="0.157895" fill-rule="evenodd" clip-rule="evenodd" d="M186.767 456.399L295.075 325.147C296.838 323.01 297.951 320.284 298.276 317.309L318.207 134.583C318.63 130.701 317.683 126.657 315.56 123.289L239.024 1.81733C236.107 -2.81317 231.345 -5.58661 226.493 -5.48125L99.2155 -2.7173C95.6856 -2.64064 92.4337 -1.04271 90.1326 1.74579L-18.1746 132.998C-19.9378 135.135 -21.0513 137.861 -21.3758 140.836L-41.3068 323.561C-41.7303 327.443 -40.7826 331.487 -38.66 334.856L37.8759 456.327C40.7934 460.958 45.5553 463.731 50.4071 463.626L177.685 460.862C181.214 460.785 184.466 459.187 186.767 456.399ZM295.777 325.879C297.657 323.6 298.845 320.692 299.191 317.519L319.122 134.793C319.574 130.652 318.563 126.339 316.299 122.745L239.763 1.27409C236.651 -3.66511 231.572 -6.62345 226.396 -6.51106L99.119 -3.7471C95.3538 -3.66533 91.8851 -1.96087 89.4307 1.01353L-18.8766 132.266C-20.7574 134.545 -21.9451 137.453 -22.2912 140.626L-42.2222 323.352C-42.6739 327.492 -41.6631 331.806 -39.3989 335.399L37.1369 456.871C40.249 461.81 45.3283 464.768 50.5036 464.656L177.781 461.892C181.546 461.81 185.015 460.106 187.469 457.131L295.777 325.879Z" fill="url(#paint5_linear_4478_17951)"/>
<path opacity="0.210526" fill-rule="evenodd" clip-rule="evenodd" d="M173.24 452.655L285.078 335.381C287.033 333.331 288.351 330.604 288.86 327.559L317.99 153.261C318.64 149.371 317.926 145.229 315.997 141.7L248.328 17.9198C245.756 13.2144 241.341 10.1711 236.643 9.86348L113.041 1.772C109.517 1.54135 106.156 2.87409 103.66 5.49156L-8.17853 122.766C-10.1327 124.815 -11.4512 127.542 -11.9602 130.587L-41.09 304.885C-41.7401 308.775 -41.026 312.918 -39.0971 316.446L28.572 440.226C31.1444 444.932 35.5585 447.975 40.2572 448.283L163.859 456.374C167.383 456.605 170.744 455.272 173.24 452.655ZM285.721 336.171C287.806 333.985 289.212 331.077 289.755 327.828L318.885 153.53C319.578 149.381 318.816 144.962 316.759 141.199L249.09 17.4183C246.346 12.3992 241.637 9.15294 236.626 8.82485L113.024 0.733367C109.265 0.487342 105.68 1.90895 103.017 4.70092L-8.82109 121.975C-10.9056 124.161 -12.312 127.07 -12.8549 130.318L-41.9846 304.616C-42.6781 308.765 -41.9165 313.184 -39.8589 316.948L27.8102 440.728C30.5541 445.747 35.2625 448.993 40.2744 449.321L163.876 457.413C167.635 457.659 171.22 456.237 173.882 453.445L285.721 336.171Z" fill="url(#paint6_linear_4478_17951)"/>
<path opacity="0.263158" fill-rule="evenodd" clip-rule="evenodd" d="M160.391 447.795L274.655 344.439C276.807 342.493 278.342 339.775 279.047 336.663L316.492 171.431C317.372 167.549 316.899 163.327 315.172 159.658L256.252 34.4188C254.023 29.6802 249.969 26.4149 245.455 25.7217L126.144 7.40025C122.648 6.86347 119.193 7.92098 116.508 10.3494L2.24404 113.705C0.0920921 115.652 -1.44338 118.37 -2.14858 121.482L-39.5933 286.714C-40.4731 290.596 -39.9999 294.818 -38.2736 298.487L20.6465 423.726C22.8758 428.465 26.9297 431.73 31.444 432.423L150.755 450.745C154.251 451.281 157.706 450.224 160.391 447.795ZM275.233 345.283C277.529 343.206 279.167 340.307 279.919 336.988L317.364 171.756C318.302 167.615 317.797 163.112 315.956 159.198L257.036 33.9588C254.658 28.9043 250.334 25.4213 245.518 24.6819L126.207 6.36038C122.479 5.78781 118.793 6.91582 115.929 9.50613L1.66539 112.862C-0.630025 114.938 -2.26785 117.838 -3.02007 121.157L-40.4648 286.389C-41.4032 290.53 -40.8985 295.033 -39.0572 298.947L19.863 424.186C22.2409 429.241 26.5651 432.724 31.3803 433.463L150.692 451.784C154.42 452.357 158.106 451.229 160.969 448.639L275.233 345.283Z" fill="url(#paint7_linear_4478_17951)"/>
<path opacity="0.315789" fill-rule="evenodd" clip-rule="evenodd" d="M148.282 441.921L263.892 352.304C266.248 350.478 268.013 347.781 268.927 344.61L313.774 188.973C314.886 185.116 314.659 180.836 313.143 177.046L262.802 51.1726C260.909 46.439 257.221 42.9976 252.916 41.9492L138.462 14.0711C135.015 13.2317 131.483 14.0047 128.618 16.2254L13.0076 105.842C10.6521 107.668 8.88724 110.365 7.97347 113.537L-36.8743 269.174C-37.9856 273.03 -37.7592 277.31 -36.2433 281.1L14.0976 406.974C15.9908 411.707 19.6794 415.149 23.9836 416.197L138.438 444.075C141.885 444.914 145.417 444.141 148.282 441.921ZM264.403 353.194C266.916 351.246 268.798 348.369 269.773 344.986L314.621 189.349C315.806 185.236 315.565 180.67 313.948 176.628L263.607 50.7542C261.588 45.705 257.653 42.0342 253.062 40.9159L138.607 13.0379C134.931 12.1424 131.163 12.967 128.107 15.3357L12.4968 104.952C9.9842 106.9 8.10168 109.777 7.12699 113.16L-37.7208 268.797C-38.9062 272.911 -38.6647 277.476 -37.0477 281.519L13.2932 407.392C15.3125 412.441 19.2471 416.112 23.8383 417.23L138.293 445.108C141.969 446.004 145.737 445.179 148.793 442.81L264.403 353.194Z" fill="url(#paint8_linear_4478_17951)"/>
<path opacity="0.368421" fill-rule="evenodd" clip-rule="evenodd" d="M136.965 435.129L252.879 358.959C255.443 357.274 257.449 354.613 258.584 351.392L309.904 205.769C311.247 201.957 311.272 197.642 309.972 193.751L267.991 68.0369C266.423 63.3421 263.098 59.7671 259.024 58.3958L149.939 21.6783C146.563 20.542 142.971 21.0223 139.937 23.0162L24.0233 99.1861C21.4598 100.871 19.4534 103.532 18.3184 106.752L-33.0012 252.376C-34.3446 256.188 -34.3692 260.503 -33.0699 264.394L8.91167 390.108C10.4795 394.803 13.8044 398.378 17.8782 399.749L126.964 436.466C130.34 437.603 133.931 437.122 136.965 435.129ZM253.319 359.888C256.053 358.091 258.194 355.253 259.404 351.818L310.724 206.194C312.157 202.128 312.183 197.525 310.797 193.375L268.816 67.6609C267.143 62.6531 263.597 58.8397 259.251 57.3771L150.166 20.6596C146.565 19.4474 142.734 19.9598 139.497 22.0866L23.5835 98.2566C20.8491 100.053 18.7089 102.892 17.4982 106.327L-33.8214 251.951C-35.2542 256.017 -35.2806 260.62 -33.8946 264.77L8.08696 390.484C9.75928 395.492 13.3059 399.305 17.6513 400.768L126.737 437.485C130.338 438.697 134.169 438.185 137.405 436.058L253.319 359.888Z" fill="url(#paint9_linear_4478_17951)"/>
<path opacity="0.421053" fill-rule="evenodd" clip-rule="evenodd" d="M126.482 427.525L241.701 364.4C244.474 362.881 246.734 360.275 248.102 357.018L304.952 221.715C306.527 217.969 306.805 213.641 305.727 209.671L271.836 84.8751C270.58 80.2483 267.612 76.5781 263.784 74.9172L160.525 30.1163C157.24 28.691 153.609 28.8719 150.418 30.6199L35.1999 93.7445C32.4261 95.2642 30.1666 97.8699 28.7979 101.127L-28.052 236.43C-29.6262 240.176 -29.9044 244.504 -28.8261 248.474L5.06392 373.27C6.32037 377.897 9.28833 381.567 13.1166 383.228L116.375 428.029C119.66 429.454 123.292 429.273 126.482 427.525ZM242.067 365.363C245.025 363.742 247.436 360.963 248.895 357.488L305.745 222.186C307.424 218.189 307.721 213.574 306.571 209.339L272.681 84.5426C271.341 79.6074 268.175 75.6926 264.091 73.9209L160.833 29.12C157.329 27.5997 153.455 27.7926 150.052 29.6572L34.8338 92.7818C31.8751 94.4028 29.4649 97.1822 28.0051 100.657L-28.8449 235.959C-30.5241 239.956 -30.8208 244.571 -29.6707 248.806L4.2194 373.602C5.55962 378.538 8.72544 382.452 12.8089 384.224L116.068 429.025C119.572 430.545 123.445 430.352 126.848 428.488L242.067 365.363Z" fill="url(#paint10_linear_4478_17951)"/>
<path opacity="0.473684" fill-rule="evenodd" clip-rule="evenodd" d="M116.874 419.216L230.451 368.633C233.434 367.304 235.957 364.776 237.571 361.498L299.008 236.713C300.81 233.053 301.342 228.738 300.488 224.709L274.376 101.551C273.415 97.0167 270.793 93.2855 267.221 91.3676L170.188 39.2732C167.014 37.5689 163.363 37.4452 160.031 38.9289L46.4549 89.5118C43.4712 90.8407 40.9486 93.3684 39.3346 96.6465L-22.1028 221.431C-23.9048 225.091 -24.4367 229.406 -23.5825 233.435L2.52948 356.593C3.49083 361.128 6.11267 364.859 9.68501 366.777L106.718 418.871C109.892 420.575 113.543 420.699 116.874 419.216ZM230.741 369.621C233.924 368.204 236.614 365.508 238.336 362.011L299.773 237.227C301.696 233.322 302.263 228.72 301.352 224.422L275.24 101.264C274.214 96.4274 271.418 92.4474 267.607 90.4017L170.575 38.3072C167.189 36.4894 163.294 36.3574 159.741 37.94L46.1645 88.523C42.9819 89.9404 40.2911 92.6366 38.5695 96.1333L-22.8679 220.918C-24.7901 224.822 -25.3574 229.424 -24.4462 233.722L1.66576 356.88C2.69117 361.717 5.4878 365.697 9.29831 367.743L106.331 419.837C109.717 421.655 113.611 421.787 117.165 420.204L230.741 369.621Z" fill="url(#paint11_linear_4478_17951)"/>
<path opacity="0.526316" fill-rule="evenodd" clip-rule="evenodd" d="M108.157 410.309L219.205 371.669C222.395 370.559 225.189 368.136 227.058 364.856L292.148 250.677C294.173 247.125 294.956 242.848 294.327 238.781L275.637 117.935C274.953 113.514 272.664 109.751 269.353 107.608L178.885 49.0375C175.841 47.0664 172.192 46.6346 168.737 47.8365L57.689 86.4766C54.499 87.5866 51.7055 90.0102 49.8358 93.2901L-15.254 207.469C-17.2786 211.021 -18.0623 215.298 -17.4333 219.365L1.25699 340.211C1.94087 344.632 4.23029 348.395 7.54049 350.538L98.0088 409.108C101.053 411.079 104.702 411.511 108.157 410.309ZM219.418 372.677C222.821 371.493 225.801 368.908 227.795 365.409L292.885 251.23C295.044 247.442 295.88 242.879 295.209 238.541L276.519 117.696C275.79 112.979 273.348 108.966 269.817 106.68L179.348 48.1096C176.101 46.0071 172.209 45.5465 168.524 46.8285L57.4757 85.4687C54.0731 86.6526 51.0933 89.2379 49.0989 92.7364L-15.9908 206.915C-18.1505 210.704 -18.9863 215.267 -18.3154 219.605L0.374878 340.45C1.10434 345.166 3.54636 349.18 7.07727 351.466L97.5456 410.036C100.793 412.139 104.685 412.599 108.37 411.317L219.418 372.677Z" fill="url(#paint12_linear_4478_17951)"/>
<path opacity="0.578947" fill-rule="evenodd" clip-rule="evenodd" d="M100.368 400.913L208.07 373.53C211.459 372.668 214.528 370.378 216.662 367.119L284.485 263.526C286.725 260.105 287.756 255.889 287.352 251.805L275.687 133.9C275.262 129.607 273.289 125.837 270.244 123.499L186.616 59.293C183.719 57.0687 180.094 56.3273 176.537 57.2316L68.8355 84.6146C65.447 85.4761 62.3778 87.7664 60.2439 91.0256L-7.57947 194.619C-9.81925 198.04 -10.8503 202.255 -10.4462 206.34L1.21861 324.244C1.6434 328.538 3.61599 332.308 6.66138 334.646L90.2894 398.851C93.1866 401.076 96.8115 401.817 100.368 400.913ZM208.205 374.55C211.82 373.631 215.094 371.188 217.37 367.711L285.193 264.118C287.582 260.469 288.682 255.972 288.251 251.616L276.586 133.711C276.133 129.131 274.029 125.11 270.781 122.616L187.153 58.4106C184.062 56.038 180.196 55.2472 176.402 56.2117L68.7 83.5948C65.0856 84.5137 61.8118 86.9567 59.5357 90.4332L-8.28769 194.026C-10.6768 197.675 -11.7766 202.172 -11.3455 206.529L0.319293 324.433C0.772378 329.013 2.87649 333.034 6.12492 335.528L89.7529 399.734C92.8432 402.106 96.7099 402.897 100.504 401.933L208.205 374.55Z" fill="url(#paint13_linear_4478_17951)"/>
<path opacity="0.631579" fill-rule="evenodd" clip-rule="evenodd" d="M93.5008 391.137L197.11 374.248C200.685 373.665 204.031 371.54 206.435 368.327L276.098 275.198C278.543 271.929 279.815 267.799 279.634 263.716L274.562 149.329C274.378 145.175 272.706 141.419 269.925 138.914L193.348 69.9287C190.615 67.4663 187.037 66.416 183.4 67.0088L79.7909 83.8985C76.2159 84.4813 72.87 86.6057 70.4663 89.8191L0.803093 182.948C-1.64191 186.217 -2.91378 190.347 -2.73274 194.43L2.33912 308.817C2.52329 312.971 4.19564 316.727 6.97641 319.232L83.5527 388.218C86.286 390.68 89.8644 391.73 93.5008 391.137ZM197.168 375.272C200.981 374.651 204.55 372.385 207.114 368.957L276.777 275.828C279.385 272.341 280.742 267.936 280.549 263.581L275.477 149.194C275.28 144.763 273.497 140.757 270.53 138.084L193.954 69.0988C191.039 66.4723 187.222 65.352 183.343 65.9843L79.7334 82.874C75.92 83.4956 72.3511 85.7616 69.7872 89.1893L0.12396 182.319C-2.48406 185.805 -3.84069 190.21 -3.64759 194.565L1.42426 308.953C1.62071 313.383 3.40454 317.39 6.3707 320.062L82.947 389.047C85.8625 391.674 89.6794 392.794 93.5583 392.162L197.168 375.272Z" fill="url(#paint14_linear_4478_17951)"/>
<path opacity="0.684211" fill-rule="evenodd" clip-rule="evenodd" d="M87.5677 381.087L186.418 373.859C190.163 373.585 193.782 371.661 196.458 368.521L267.1 285.635C269.738 282.539 271.242 278.518 271.281 274.455L272.337 164.106C272.375 160.1 270.986 156.375 268.468 153.729L199.089 80.8284C196.535 78.1442 193.026 76.788 189.335 77.0579L90.484 84.2863C86.7395 84.5601 83.1206 86.4842 80.4446 89.624L9.80232 172.511C7.1643 175.606 5.66045 179.627 5.62157 183.69L4.56545 294.039C4.5271 298.045 5.91599 301.77 8.43455 304.417L77.813 377.317C80.3674 380.001 83.8763 381.357 87.5677 381.087ZM186.398 374.881C190.392 374.589 194.253 372.537 197.107 369.188L267.749 286.301C270.563 282.999 272.167 278.71 272.209 274.376L273.265 164.027C273.306 159.754 271.824 155.781 269.138 152.958L199.759 80.0576C197.035 77.1945 193.292 75.7478 189.354 76.0357L90.5038 83.2641C86.5097 83.5562 82.6495 85.6085 79.7952 88.9576L9.1529 171.844C6.33902 175.146 4.73492 179.435 4.69344 183.769L3.63732 294.118C3.59643 298.391 5.07791 302.364 7.76436 305.187L77.1428 378.088C79.8675 380.951 83.6103 382.398 87.5478 382.11L186.398 374.881Z" fill="url(#paint15_linear_4478_17951)"/>
<path opacity="0.736842" fill-rule="evenodd" clip-rule="evenodd" d="M82.5608 370.87L176.069 372.413C179.961 372.477 183.844 370.789 186.791 367.753L257.592 294.795C260.408 291.892 262.133 288.001 262.388 283.975L269.079 178.127C269.322 174.275 268.2 170.594 265.94 167.829L203.839 91.8812C201.477 88.9925 198.061 87.3354 194.341 87.274L100.833 85.7312C96.9412 85.667 93.058 87.3548 90.1111 90.3915L19.3103 163.349C16.4937 166.252 14.7688 170.143 14.5143 174.169L7.82352 280.017C7.58 283.869 8.70192 287.55 10.9622 290.315L73.0627 366.263C75.4248 369.152 78.841 370.809 82.5608 370.87ZM175.973 373.426C180.124 373.494 184.266 371.694 187.41 368.455L258.211 295.497C261.215 292.401 263.055 288.25 263.326 283.956L270.017 178.108C270.277 173.999 269.08 170.072 266.669 167.124L204.569 91.1755C202.049 88.0942 198.405 86.3266 194.437 86.2612L100.929 84.7184C96.7778 84.6499 92.6357 86.4502 89.4923 89.6894L18.6915 162.647C15.6872 165.743 13.8472 169.894 13.5758 174.189L6.88501 280.036C6.62526 284.145 7.82198 288.072 10.233 291.02L72.3335 366.969C74.853 370.05 78.4969 371.817 82.4648 371.883L175.973 373.426Z" fill="url(#paint16_linear_4478_17951)"/>
<path opacity="0.789474" fill-rule="evenodd" clip-rule="evenodd" d="M78.4678 360.59L166.136 369.966C170.148 370.395 174.282 368.98 177.494 366.077L247.68 302.648C250.658 299.956 252.592 296.214 253.057 292.24L264.865 191.296C265.297 187.599 264.427 183.974 262.42 181.113L207.611 102.979C205.454 99.9037 202.153 97.9533 198.433 97.5554L110.765 88.1792C106.752 87.75 102.619 89.1653 99.4062 92.0685L29.2204 155.497C26.2418 158.189 24.3083 161.931 23.8435 165.905L12.0353 266.849C11.6029 270.546 12.4736 274.171 14.4805 277.032L69.2894 355.166C71.4468 358.241 74.7474 360.192 78.4678 360.59ZM165.965 370.963C170.246 371.421 174.654 369.911 178.081 366.814L248.267 303.386C251.444 300.514 253.506 296.522 254.002 292.284L265.81 191.339C266.272 187.397 265.343 183.529 263.202 180.477L208.393 102.344C206.092 99.0634 202.571 96.983 198.603 96.5586L110.935 87.1823C106.655 86.7246 102.246 88.2342 98.8193 91.331L28.6335 154.76C25.4564 157.631 23.394 161.623 22.8982 165.861L11.09 266.806C10.6288 270.748 11.5575 274.616 13.6982 277.668L68.5071 355.801C70.8083 359.082 74.3289 361.162 78.2974 361.587L165.965 370.963Z" fill="url(#paint17_linear_4478_17951)"/>
<path opacity="0.842105" fill-rule="evenodd" clip-rule="evenodd" d="M75.2749 350.345L156.693 366.58C160.795 367.398 165.159 366.29 168.627 363.551L237.477 309.174C240.599 306.708 242.727 303.131 243.396 299.224L259.786 203.522C260.392 199.983 259.758 196.421 257.999 193.482L210.43 114.014C208.488 110.77 205.326 108.536 201.633 107.8L120.215 91.5649C116.113 90.747 111.75 91.8546 108.281 94.5941L39.4311 148.971C36.3089 151.437 34.1809 155.014 33.5119 158.921L17.1224 254.623C16.5164 258.162 17.1504 261.724 18.9093 264.662L66.4787 344.131C68.4205 347.375 71.5827 349.609 75.2749 350.345ZM156.451 367.554C160.826 368.427 165.481 367.245 169.181 364.323L238.031 309.946C241.361 307.316 243.631 303.501 244.344 299.333L260.734 203.631C261.38 199.856 260.704 196.057 258.828 192.922L211.258 113.454C209.187 109.994 205.814 107.611 201.876 106.825L120.457 90.5905C116.082 89.7181 111.428 90.8995 107.728 93.8217L38.8778 148.199C35.5474 150.829 33.2776 154.644 32.564 158.811L16.1745 254.514C15.5281 258.289 16.2044 262.088 18.0806 265.223L65.6499 344.691C67.7212 348.151 71.0942 350.534 75.0326 351.319L156.451 367.554Z" fill="url(#paint18_linear_4478_17951)"/>
<path opacity="0.894737" fill-rule="evenodd" clip-rule="evenodd" d="M72.9453 340.232L147.794 362.325C151.95 363.551 156.519 362.784 160.23 360.237L227.08 314.364C230.326 312.136 232.634 308.74 233.5 304.913L253.921 214.725C254.686 211.344 254.275 207.853 252.759 204.855L212.312 124.883C210.596 121.489 207.594 118.983 203.96 117.911L129.111 95.8183C124.955 94.5918 120.386 95.3585 116.675 97.9055L49.8247 143.779C46.5785 146.006 44.2714 149.403 43.4048 153.23L22.9843 243.418C22.2187 246.799 22.6296 250.29 24.1459 253.288L64.5925 333.26C66.3089 336.654 69.3107 339.159 72.9453 340.232ZM147.483 363.271C151.916 364.579 156.789 363.761 160.748 361.044L227.598 315.171C231.06 312.795 233.521 309.172 234.446 305.09L254.866 214.902C255.683 211.295 255.245 207.572 253.627 204.374L213.181 124.401C211.35 120.782 208.148 118.109 204.271 116.965L129.422 94.8723C124.989 93.564 120.116 94.3818 116.157 97.0986L49.307 142.972C45.8444 145.348 43.3835 148.971 42.4591 153.053L22.0386 243.241C21.222 246.848 21.6602 250.571 23.2777 253.769L63.7243 333.741C65.5551 337.361 68.757 340.034 72.6339 341.178L147.483 363.271Z" fill="url(#paint19_linear_4478_17951)"/>
<path opacity="0.947368" fill-rule="evenodd" clip-rule="evenodd" d="M71.4496 330.346L139.497 357.278C143.668 358.928 148.413 358.532 152.351 356.204L216.598 318.226C219.948 316.246 222.418 313.041 223.475 309.305L247.367 224.839C248.279 221.615 248.079 218.202 246.8 215.161L213.296 135.489C211.814 131.964 208.995 129.202 205.447 127.798L137.399 100.866C133.228 99.2152 128.484 99.6114 124.545 101.939L60.2986 139.918C56.9493 141.898 54.479 145.103 53.4221 148.839L29.5296 233.304C28.6175 236.528 28.8174 239.941 30.0963 242.982L63.6003 322.655C65.0824 326.179 67.9021 328.942 71.4496 330.346ZM139.12 358.19C143.569 359.951 148.631 359.528 152.831 357.045L217.078 319.066C220.651 316.954 223.286 313.536 224.413 309.551L248.305 225.085C249.278 221.646 249.065 218.006 247.701 214.762L214.197 135.089C212.616 131.33 209.608 128.383 205.824 126.885L137.777 99.9539C133.327 98.193 128.266 98.6157 124.066 101.099L59.8188 139.077C56.2462 141.189 53.6113 144.608 52.4839 148.593L28.5914 233.058C27.6185 236.497 27.8317 240.138 29.1959 243.382L62.6999 323.054C64.2807 326.813 67.2884 329.761 71.0724 331.258L139.12 358.19Z" fill="url(#paint20_linear_4478_17951)"/>
<path fill-rule="evenodd" clip-rule="evenodd" d="M70.7593 320.773L131.862 351.518C136.008 353.605 140.897 353.605 145.043 351.518L206.146 320.773C209.577 319.047 212.194 316.043 213.433 312.408L240.236 233.805C241.282 230.737 241.282 227.409 240.236 224.341L213.433 145.738C212.194 142.102 209.577 139.099 206.146 137.372L145.043 106.627C140.897 104.541 136.008 104.541 131.862 106.627L70.7593 137.372C67.3282 139.099 64.7115 142.102 63.4719 145.738L36.6694 224.341C35.6232 227.409 35.6232 230.737 36.6694 233.805L63.4719 312.408C64.7115 316.043 67.3282 319.047 70.7593 320.773ZM131.423 352.392C135.845 354.617 141.06 354.617 145.482 352.392L206.585 321.647C210.245 319.805 213.036 316.601 214.359 312.723L241.161 234.12C242.277 230.848 242.277 227.298 241.161 224.025L214.359 145.422C213.036 141.545 210.245 138.34 206.585 136.499L145.482 105.754C141.06 103.529 135.845 103.529 131.423 105.754L70.3199 136.499C66.6601 138.34 63.869 141.545 62.5467 145.422L35.7442 224.025C34.6283 227.298 34.6283 230.848 35.7442 234.12L62.5467 312.723C63.869 316.601 66.6601 319.805 70.3199 321.647L131.423 352.392Z" fill="url(#paint21_linear_4478_17951)"/>
</g>
<path fill-rule="evenodd" clip-rule="evenodd" d="M2.91077 25.1335C1.68738 26.3558 1 28.0142 1 29.7435V431.256C1 432.986 1.68739 434.644 2.91077 435.866L25.158 458.093C26.38 459.314 28.0366 460 29.7639 460H247.236C248.963 460 250.62 459.314 251.842 458.093L274.089 435.866C275.313 434.644 276 432.986 276 431.256V29.7436C276 28.0142 275.313 26.3558 274.089 25.1335L251.842 2.90656C250.62 1.68575 248.963 1 247.236 1H29.7639C28.0366 1 26.38 1.68575 25.158 2.90656L2.91077 25.1335ZM12.0762 31.5994L31.6259 12.0675H245.37L264.92 31.5994V429.399L245.37 448.931H31.6259L12.0762 429.399V31.5994Z" fill="url(#paint22_linear_4478_17951)"/>
<path fill-rule="evenodd" clip-rule="evenodd" d="M39.1486 54.0824C38.4133 54.8159 38 55.8119 38 56.8505L38 405.149C38 406.188 38.4133 407.184 39.1486 407.918L55.1281 423.858C55.8611 424.589 56.8542 425 57.8895 425H219.111C220.146 425 221.139 424.589 221.872 423.858L237.851 407.918C238.587 407.184 239 406.188 239 405.149L239 56.8505C239 55.8119 238.587 54.8159 237.851 54.0824L221.872 38.1418C221.139 37.4106 220.146 37 219.111 37L57.8895 37C56.8542 37 55.8611 37.4106 55.1281 38.1418L39.1486 54.0824ZM153.509 361.201H123.489V363.155H153.509V361.201ZM138.173 313.99L108.198 331.253V365.761L138.173 383.025L168.148 365.761V331.253L138.173 313.99ZM172.931 328.489L138.173 308.47L103.416 328.489V368.526L138.173 388.544L172.931 368.526V328.489ZM146.798 344.956H145.989V347.392H146.748C147.22 347.392 147.709 347.442 148.215 347.544C148.738 347.645 149.21 347.815 149.632 348.051C150.053 348.271 150.399 348.584 150.669 348.99C150.955 349.379 151.099 349.862 151.099 350.437C151.099 350.978 150.998 351.435 150.795 351.807C150.61 352.179 150.357 352.484 150.036 352.721C149.733 352.957 149.379 353.135 148.974 353.253C148.586 353.355 148.198 353.406 147.81 353.406C146.849 353.406 146.065 353.16 145.458 352.67C144.868 352.179 144.463 351.579 144.244 350.868L141.41 351.756C141.646 352.501 141.975 353.143 142.397 353.685C142.835 354.226 143.333 354.666 143.889 355.004C144.463 355.343 145.087 355.588 145.761 355.74C146.436 355.909 147.153 355.994 147.911 355.994C148.67 355.994 149.421 355.876 150.163 355.639C150.905 355.419 151.571 355.08 152.161 354.624C152.768 354.167 153.249 353.592 153.603 352.898C153.974 352.205 154.16 351.393 154.16 350.462C154.16 349.346 153.814 348.407 153.122 347.645C152.448 346.867 151.563 346.368 150.466 346.148V346.098C151.445 345.861 152.22 345.37 152.794 344.626C153.384 343.865 153.679 343.002 153.679 342.038C153.679 341.226 153.527 340.515 153.224 339.906C152.92 339.297 152.499 338.79 151.959 338.384C151.436 337.961 150.821 337.648 150.112 337.445C149.421 337.225 148.687 337.115 147.911 337.115C147.203 337.115 146.529 337.216 145.888 337.419C145.247 337.622 144.665 337.91 144.142 338.282C143.636 338.637 143.198 339.069 142.827 339.576C142.473 340.067 142.22 340.617 142.068 341.226L144.927 341.961C145.112 341.268 145.449 340.71 145.938 340.287C146.427 339.864 147.043 339.652 147.785 339.652C148.156 339.652 148.51 339.711 148.847 339.83C149.202 339.948 149.505 340.117 149.758 340.337C150.028 340.557 150.239 340.828 150.391 341.149C150.542 341.471 150.618 341.835 150.618 342.241C150.618 342.799 150.5 343.256 150.264 343.611C150.045 343.949 149.75 344.22 149.379 344.423C149.008 344.626 148.594 344.77 148.139 344.854C147.701 344.922 147.254 344.956 146.798 344.956ZM126.402 337.572H122.835L129.918 355.537H132.675L139.859 337.572H136.419L131.436 351.401H131.334L126.402 337.572ZM165.81 64.2856H160.81V113.652L165.81 118.63V64.2856ZM150.81 64.2856H155.809V108.672L150.81 103.694V64.2856ZM145.808 64.2856H140.809V93.7393L145.808 98.7172V64.2856ZM130.816 118.629V83.9863L135.815 88.9643V118.629H130.816ZM120.815 74.0296V118.629H125.815V79.0075L120.815 74.0296ZM110.814 119.027V64.0764L115.803 69.0436V119.027H110.814ZM159.071 152.53V153.703H146.559V152.53H149.394L155.845 146.079H146.559V144.906H159.071V146.079H157.605L151.154 152.53H159.071ZM146.559 160.88L148.123 159.316H157.507L159.071 160.88V165.377L157.507 166.941H148.123L146.559 165.377V160.88ZM147.732 161.467V164.79L148.71 165.768H156.921L157.898 164.79V161.467L156.921 160.489H148.71L147.732 161.467ZM159.071 179.247H157.898V175.923H146.559V174.75H157.898V171.427H159.071V179.247ZM157.898 188.479V186.817H147.732V188.479H146.559V183.982H147.732V185.644H157.898V183.982H159.071V188.479H157.898ZM146.559 195.406L148.123 193.842H157.507L159.071 195.406V199.903L157.507 201.467H148.123L146.559 199.903V195.406ZM147.732 195.993V199.316L148.71 200.294H156.921L157.898 199.316V195.993L156.921 195.015H148.71L147.732 195.993ZM159.071 214.976V216.149H146.559V214.976H149.394L155.845 208.525H146.559V207.352H159.071V208.525H157.605L151.154 214.976H159.071ZM159.071 226.518L155.943 229.646H146.559V228.473H151.447V223.195H146.559V222.022H155.943L159.071 225.15V226.518ZM152.62 223.195V228.473H155.357L157.898 225.932V225.736L155.357 223.195H152.62ZM146.559 235.532H159.071V236.704H147.732V241.592H146.559V235.532ZM159.071 270.95V272.123H150.372L146.559 268.31L150.372 264.498H159.071V265.671H150.958L148.302 268.294L150.958 270.95H159.071ZM146.559 279.297L148.123 277.733H149.687V278.906H148.71L147.732 279.883V283.207L148.71 284.184H151.251L152.229 283.207V279.297H153.402V283.207L154.379 284.184H156.921L157.898 283.207V279.883L156.921 278.906H155.943V277.733H157.507L159.071 279.297V283.793L157.507 285.357H153.988L152.815 284.184L151.642 285.357H148.123L146.559 283.793V279.297ZM118.559 146.47L120.123 144.906H129.507L131.071 146.47V150.966L129.507 152.53H127.943V151.357H128.921L129.898 150.379V147.056L128.921 146.079H120.71L119.732 147.056V150.379L121.003 151.65L120.123 152.53L118.559 150.966V146.47ZM118.559 158.601L131.071 158.601V159.774H119.732V164.662H118.559V158.601ZM118.559 172.303L120.123 170.739H129.507L131.071 172.303V176.8L129.507 178.364H120.123L118.559 176.8V172.303ZM119.732 172.89V176.213L120.71 177.191H128.921L129.898 176.213V172.89L128.921 171.912H120.71L119.732 172.89ZM118.559 186.595L120.123 185.031H121.687V186.204H120.71L119.732 187.181V190.505L120.71 191.482H122.665L124.229 189.918V187.181L126.379 185.031H129.507L131.071 186.595V191.091L129.507 192.655H127.943V191.482H128.921L129.898 190.505V187.181L128.921 186.204H126.966L125.402 187.768V190.505L123.251 192.655H120.123L118.559 191.091V186.595ZM129.898 206.672V200.22H125.402V205.89H124.229V200.22H119.732V206.672H118.559V199.047H131.071V206.672H129.898ZM131.071 218.022L128.725 220.368L120.905 220.368L118.559 218.022V212.743H131.071V218.022ZM121.492 219.195H128.139L129.898 217.435V213.916H119.732V217.435L121.492 219.195ZM129.507 244.246H125.988L124.815 243.073L123.642 244.246H120.123L118.559 242.682V236.622H131.071L131.071 242.682L129.507 244.246ZM126.379 243.073H128.921L129.898 242.096V237.795H125.402V242.096L126.379 243.073ZM120.71 243.073H123.251L124.229 242.096V237.795H119.732V242.096L120.71 243.073ZM129.898 258.538V252.087H125.402V257.756H124.229V252.087H119.732V258.538H118.559V250.914H131.071V258.538H129.898ZM131.071 271.55H129.898V268.226H118.559V267.053H129.898V263.73H131.071V271.55ZM131.071 281.305L127.943 284.433L118.559 284.433V283.26H123.447V277.981H118.559V276.808H127.943L131.071 279.936V281.305ZM124.62 277.981V283.26H127.357L129.898 280.718V280.523L127.357 277.981H124.62ZM112.286 403.925H111.406V409.863L106.568 405.025V403.925H105.688V413.309H106.568V406.344L111.406 411.183V413.309H112.286V403.925ZM117.083 412.136L118.256 413.309H121.628L122.801 412.136V405.098L121.628 403.925H118.256L117.083 405.098V412.136ZM121.188 412.429H118.695L117.962 411.696V405.538L118.695 404.805H121.188L121.921 405.538V411.696L121.188 412.429ZM128.168 411.598V413.309H129.634V411.598H128.168ZM144.379 411.403V413.309H150.098V412.429H145.259V411.843L150.098 407.004V405.098L148.925 403.925H145.552L144.379 405.098V406.271H145.259V405.538L145.992 404.805H148.485L149.218 405.538V406.564L144.379 411.403ZM155.098 411.403V413.309H160.816V412.429H155.978V411.843L160.816 407.004V405.098L159.643 403.925H156.271L155.098 405.098V406.271H155.978V405.538L156.711 404.805H159.203L159.937 405.538V406.564L155.098 411.403ZM165.817 412.136L166.99 413.309H170.362L171.535 412.136V409.35L170.802 408.617L171.535 407.884V405.098L170.362 403.925H166.99L165.817 405.098V407.884L166.55 408.617L165.817 409.35V412.136ZM169.922 408.177H167.429L166.696 407.444V405.538L167.429 404.805H169.922L170.655 405.538V407.444L169.922 408.177ZM169.922 412.429H167.429L166.696 411.696V409.79L167.429 409.057H169.922L170.655 409.79V411.696L169.922 412.429Z" fill="url(#paint23_linear_4478_17951)"/>
<defs>
<filter id="filter0_f_4478_17951" x="12.546" y="64.9982" width="251.482" height="359.926" filterUnits="userSpaceOnUse" color-interpolation-filters="sRGB">
<feFlood flood-opacity="0" result="BackgroundImageFix"/>
<feBlend mode="normal" in="SourceGraphic" in2="BackgroundImageFix" result="shape"/>
<feGaussianBlur stdDeviation="39.8637" result="effect1_foregroundBlur_4478_17951"/>
</filter>
<filter id="filter1_f_4478_17951" x="99.0206" y="66.0289" width="194.248" height="288.991" filterUnits="userSpaceOnUse" color-interpolation-filters="sRGB">
<feFlood flood-opacity="0" result="BackgroundImageFix"/>
<feBlend mode="normal" in="SourceGraphic" in2="BackgroundImageFix" result="shape"/>
<feGaussianBlur stdDeviation="28.4741" result="effect1_foregroundBlur_4478_17951"/>
</filter>
<filter id="filter2_f_4478_17951" x="-53.7021" y="62.0269" width="235.23" height="377.567" filterUnits="userSpaceOnUse" color-interpolation-filters="sRGB">
<feFlood flood-opacity="0" result="BackgroundImageFix"/>
<feBlend mode="normal" in="SourceGraphic" in2="BackgroundImageFix" result="shape"/>
<feGaussianBlur stdDeviation="28.4741" result="effect1_foregroundBlur_4478_17951"/>
</filter>
<filter id="filter3_f_4478_17951" x="79.4679" y="191.239" width="164.533" height="222.966" filterUnits="userSpaceOnUse" color-interpolation-filters="sRGB">
<feFlood flood-opacity="0" result="BackgroundImageFix"/>
<feBlend mode="normal" in="SourceGraphic" in2="BackgroundImageFix" result="shape"/>
<feGaussianBlur stdDeviation="28.4741" result="effect1_foregroundBlur_4478_17951"/>
</filter>
<filter id="filter4_f_4478_17951" x="-60.709" y="-107.553" width="395.814" height="667.641" filterUnits="userSpaceOnUse" color-interpolation-filters="sRGB">
<feFlood flood-opacity="0" result="BackgroundImageFix"/>
<feBlend mode="normal" in="SourceGraphic" in2="BackgroundImageFix" result="shape"/>
<feGaussianBlur stdDeviation="11.957" result="effect1_foregroundBlur_4478_17951"/>
</filter>
<filter id="filter5_dd_4478_17951" x="-49.893" y="-97.591" width="378.169" height="654.551" filterUnits="userSpaceOnUse" color-interpolation-filters="sRGB">
<feFlood flood-opacity="0" result="BackgroundImageFix"/>
<feColorMatrix in="SourceAlpha" type="matrix" values="0 0 0 0 0 0 0 0 0 0 0 0 0 0 0 0 0 0 127 0" result="hardAlpha"/>
<feOffset dx="-3.41689" dy="-4.27111"/>
<feGaussianBlur stdDeviation="4.84059"/>
<feColorMatrix type="matrix" values="0 0 0 0 1 0 0 0 0 1 0 0 0 0 1 0 0 0 0.4 0"/>
<feBlend mode="normal" in2="BackgroundImageFix" result="effect1_dropShadow_4478_17951"/>
<feColorMatrix in="SourceAlpha" type="matrix" values="0 0 0 0 0 0 0 0 0 0 0 0 0 0 0 0 0 0 127 0" result="hardAlpha"/>
<feOffset dx="3.70163" dy="7.40326"/>
<feGaussianBlur stdDeviation="6.69141"/>
<feColorMatrix type="matrix" values="0 0 0 0 0 0 0 0 0 0 0 0 0 0 0 0 0 0 0.25 0"/>
<feBlend mode="normal" in2="effect1_dropShadow_4478_17951" result="effect2_dropShadow_4478_17951"/>
<feBlend mode="normal" in="SourceGraphic" in2="effect2_dropShadow_4478_17951" result="shape"/>
</filter>
<filter id="filter6_f_4478_17951" x="-199.779" y="-64.9239" width="575.544" height="576.053" filterUnits="userSpaceOnUse" color-interpolation-filters="sRGB">
<feFlood flood-opacity="0" result="BackgroundImageFix"/>
<feBlend mode="normal" in="SourceGraphic" in2="BackgroundImageFix" result="shape"/>
<feGaussianBlur stdDeviation="91.2322" result="effect1_foregroundBlur_4478_17951"/>
</filter>
<filter id="filter7_f_4478_17951" x="-1.87276" y="-35.694" width="444.552" height="445.062" filterUnits="userSpaceOnUse" color-interpolation-filters="sRGB">
<feFlood flood-opacity="0" result="BackgroundImageFix"/>
<feBlend mode="normal" in="SourceGraphic" in2="BackgroundImageFix" result="shape"/>
<feGaussianBlur stdDeviation="65.1659" result="effect1_foregroundBlur_4478_17951"/>
</filter>
<filter id="filter8_f_4478_17951" x="-351.396" y="-39.9089" width="538.345" height="538.346" filterUnits="userSpaceOnUse" color-interpolation-filters="sRGB">
<feFlood flood-opacity="0" result="BackgroundImageFix"/>
<feBlend mode="normal" in="SourceGraphic" in2="BackgroundImageFix" result="shape"/>
<feGaussianBlur stdDeviation="65.1659" result="effect1_foregroundBlur_4478_17951"/>
</filter>
<filter id="filter9_f_4478_17951" x="-46.6267" y="96.1687" width="376.55" height="375.529" filterUnits="userSpaceOnUse" color-interpolation-filters="sRGB">
<feFlood flood-opacity="0" result="BackgroundImageFix"/>
<feBlend mode="normal" in="SourceGraphic" in2="BackgroundImageFix" result="shape"/>
<feGaussianBlur stdDeviation="65.1659" result="effect1_foregroundBlur_4478_17951"/>
</filter>
<filter id="filter10_f_4478_17951" x="-246.39" y="1.33733" width="576.081" height="575.476" filterUnits="userSpaceOnUse" color-interpolation-filters="sRGB">
<feFlood flood-opacity="0" result="BackgroundImageFix"/>
<feBlend mode="normal" in="SourceGraphic" in2="BackgroundImageFix" result="shape"/>
<feGaussianBlur stdDeviation="91.2322" result="effect1_foregroundBlur_4478_17951"/>
</filter>
<filter id="filter11_f_4478_17951" x="-83.2829" y="163.367" width="445.095" height="444.488" filterUnits="userSpaceOnUse" color-interpolation-filters="sRGB">
<feFlood flood-opacity="0" result="BackgroundImageFix"/>
<feBlend mode="normal" in="SourceGraphic" in2="BackgroundImageFix" result="shape"/>
<feGaussianBlur stdDeviation="65.1659" result="effect1_foregroundBlur_4478_17951"/>
</filter>
<filter id="filter12_f_4478_17951" x="-317.953" y="-124.417" width="538.32" height="538.321" filterUnits="userSpaceOnUse" color-interpolation-filters="sRGB">
<feFlood flood-opacity="0" result="BackgroundImageFix"/>
<feBlend mode="normal" in="SourceGraphic" in2="BackgroundImageFix" result="shape"/>
<feGaussianBlur stdDeviation="65.1659" result="effect1_foregroundBlur_4478_17951"/>
</filter>
<filter id="filter13_f_4478_17951" x="-171.91" y="177.641" width="375.421" height="376.634" filterUnits="userSpaceOnUse" color-interpolation-filters="sRGB">
<feFlood flood-opacity="0" result="BackgroundImageFix"/>
<feBlend mode="normal" in="SourceGraphic" in2="BackgroundImageFix" result="shape"/>
<feGaussianBlur stdDeviation="65.1659" result="effect1_foregroundBlur_4478_17951"/>
</filter>
<linearGradient id="paint0_linear_4478_17951" x1="256.617" y1="0.999998" x2="32.5257" y2="459.883" gradientUnits="userSpaceOnUse">
<stop stop-color="#C0C0C0"/>
<stop offset="1" stop-color="white" stop-opacity="0.33"/>
</linearGradient>
<linearGradient id="paint1_linear_4478_17951" x1="262.059" y1="342.725" x2="-18.3993" y2="351.008" gradientUnits="userSpaceOnUse">
<stop offset="0.114706" stop-color="#004453"/>
<stop offset="1" stop-color="#002B36"/>
</linearGradient>
<linearGradient id="paint2_linear_4478_17951" x1="426.382" y1="213.054" x2="-4.87069" y2="206.451" gradientUnits="userSpaceOnUse">
<stop stop-color="#BFC9F5" stop-opacity="0.5"/>
<stop offset="0.0001" stop-color="#8EA1F5" stop-opacity="0.5"/>
<stop offset="1" stop-color="#26CBCF"/>
</linearGradient>
<linearGradient id="paint3_linear_4478_17951" x1="316.539" y1="298.172" x2="-50.0966" y2="198.414" gradientUnits="userSpaceOnUse">
<stop offset="0.551687" stop-color="white"/>
<stop offset="1" stop-color="#F6E7FF"/>
</linearGradient>
<linearGradient id="paint4_linear_4478_17951" x1="307.895" y1="310.825" x2="-45.8235" y2="191.15" gradientUnits="userSpaceOnUse">
<stop offset="0.551687" stop-color="white"/>
<stop offset="1" stop-color="#F6E7FF"/>
</linearGradient>
<linearGradient id="paint5_linear_4478_17951" x1="298.661" y1="322.384" x2="-41.2764" y2="183.543" gradientUnits="userSpaceOnUse">
<stop offset="0.551687" stop-color="white"/>
<stop offset="1" stop-color="#F6E7FF"/>
</linearGradient>
<linearGradient id="paint6_linear_4478_17951" x1="288.921" y1="332.815" x2="-36.3121" y2="175.572" gradientUnits="userSpaceOnUse">
<stop offset="0.551687" stop-color="white"/>
<stop offset="1" stop-color="#F6E7FF"/>
</linearGradient>
<linearGradient id="paint7_linear_4478_17951" x1="278.762" y1="342.091" x2="-30.7803" y2="167.249" gradientUnits="userSpaceOnUse">
<stop offset="0.551687" stop-color="white"/>
<stop offset="1" stop-color="#F6E7FF"/>
</linearGradient>
<linearGradient id="paint8_linear_4478_17951" x1="268.272" y1="350.195" x2="-24.5281" y2="158.629" gradientUnits="userSpaceOnUse">
<stop offset="0.551687" stop-color="white"/>
<stop offset="1" stop-color="#F6E7FF"/>
</linearGradient>
<linearGradient id="paint9_linear_4478_17951" x1="257.537" y1="357.117" x2="-17.4115" y2="149.804" gradientUnits="userSpaceOnUse">
<stop offset="0.551687" stop-color="white"/>
<stop offset="1" stop-color="#F6E7FF"/>
</linearGradient>
<linearGradient id="paint10_linear_4478_17951" x1="246.639" y1="362.858" x2="-9.30444" y2="140.914" gradientUnits="userSpaceOnUse">
<stop offset="0.551687" stop-color="white"/>
<stop offset="1" stop-color="#F6E7FF"/>
</linearGradient>
<linearGradient id="paint11_linear_4478_17951" x1="235.67" y1="367.426" x2="-0.0972794" y2="132.135" gradientUnits="userSpaceOnUse">
<stop offset="0.551687" stop-color="white"/>
<stop offset="1" stop-color="#F6E7FF"/>
</linearGradient>
<linearGradient id="paint12_linear_4478_17951" x1="224.7" y1="370.84" x2="10.2654" y2="123.684" gradientUnits="userSpaceOnUse">
<stop offset="0.551687" stop-color="white"/>
<stop offset="1" stop-color="#F6E7FF"/>
</linearGradient>
<linearGradient id="paint13_linear_4478_17951" x1="213.829" y1="373.12" x2="21.8235" y2="115.808" gradientUnits="userSpaceOnUse">
<stop offset="0.551687" stop-color="white"/>
<stop offset="1" stop-color="#F6E7FF"/>
</linearGradient>
<linearGradient id="paint14_linear_4478_17951" x1="203.115" y1="374.303" x2="34.5195" y2="108.776" gradientUnits="userSpaceOnUse">
<stop offset="0.551687" stop-color="white"/>
<stop offset="1" stop-color="#F6E7FF"/>
</linearGradient>
<linearGradient id="paint15_linear_4478_17951" x1="192.644" y1="374.425" x2="48.2599" y2="102.86" gradientUnits="userSpaceOnUse">
<stop offset="0.551687" stop-color="white"/>
<stop offset="1" stop-color="#F6E7FF"/>
</linearGradient>
<linearGradient id="paint16_linear_4478_17951" x1="182.482" y1="373.533" x2="62.8658" y2="98.326" gradientUnits="userSpaceOnUse">
<stop offset="0.551687" stop-color="white"/>
<stop offset="1" stop-color="#F6E7FF"/>
</linearGradient>
<linearGradient id="paint17_linear_4478_17951" x1="172.694" y1="371.682" x2="78.0911" y2="95.4051" gradientUnits="userSpaceOnUse">
<stop offset="0.551687" stop-color="white"/>
<stop offset="1" stop-color="#F6E7FF"/>
</linearGradient>
<linearGradient id="paint18_linear_4478_17951" x1="163.348" y1="368.93" x2="93.6331" y2="94.2732" gradientUnits="userSpaceOnUse">
<stop offset="0.551687" stop-color="white"/>
<stop offset="1" stop-color="#F6E7FF"/>
</linearGradient>
<linearGradient id="paint19_linear_4478_17951" x1="154.49" y1="365.339" x2="109.125" y2="95.0346" gradientUnits="userSpaceOnUse">
<stop offset="0.551687" stop-color="white"/>
<stop offset="1" stop-color="#F6E7FF"/>
</linearGradient>
<linearGradient id="paint20_linear_4478_17951" x1="146.173" y1="360.981" x2="124.188" y2="97.7085" gradientUnits="userSpaceOnUse">
<stop offset="0.551687" stop-color="white"/>
<stop offset="1" stop-color="#F6E7FF"/>
</linearGradient>
<linearGradient id="paint21_linear_4478_17951" x1="138.453" y1="355.929" x2="138.453" y2="102.217" gradientUnits="userSpaceOnUse">
<stop offset="0.551687" stop-color="white"/>
<stop offset="1" stop-color="#F6E7FF"/>
</linearGradient>
<linearGradient id="paint22_linear_4478_17951" x1="138.5" y1="1" x2="138.5" y2="460" gradientUnits="userSpaceOnUse">
<stop stop-color="#061D30"/>
<stop offset="1" stop-color="#012F3A"/>
</linearGradient>
<linearGradient id="paint23_linear_4478_17951" x1="138.5" y1="37" x2="138.5" y2="425" gradientUnits="userSpaceOnUse">
<stop stop-color="#041D2E"/>
<stop offset="1" stop-color="#012E3A"/>
</linearGradient>
<clipPath id="clip0_4478_17951">
<rect x="12.0762" y="8.8125" width="252.844" height="440.119" rx="19.5498" fill="white"/>
</clipPath>
</defs>
</svg>
