<svg xmlns="http://www.w3.org/2000/svg" fill="none" viewBox="0 0 522 102">
<g clip-path="url(#clip0_10291_103211)">
<path d="M164.695 38.6364C164.695 54.5684 151.779 67.4838 135.847 67.4838C119.915 67.4838 107 54.5684 107 38.6364C107 22.7045 119.915 9.78906 135.847 9.78906C151.779 9.78906 164.695 22.7045 164.695 38.6364Z" fill="white"/>
<path fill-rule="evenodd" clip-rule="evenodd" d="M135.847 61.9852C148.743 61.9852 159.196 51.5316 159.196 38.6364C159.196 25.7413 148.743 15.2877 135.847 15.2877C122.952 15.2877 112.499 25.7413 112.499 38.6364C112.499 51.5316 122.952 61.9852 135.847 61.9852ZM135.847 67.4838C151.779 67.4838 164.695 54.5684 164.695 38.6364C164.695 22.7045 151.779 9.78906 135.847 9.78906C119.915 9.78906 107 22.7045 107 38.6364C107 54.5684 119.915 67.4838 135.847 67.4838Z" fill="url(#paint0_linear_10291_103211)"/>
<mask id="path-3-inside-1_10291_103211" fill="white">
<path fill-rule="evenodd" clip-rule="evenodd" d="M156.789 58.4759C161.689 53.3055 164.695 46.322 164.695 38.6364C164.695 22.7045 151.779 9.78906 135.847 9.78906C119.915 9.78906 107 22.7045 107 38.6364C107 46.3466 110.025 53.3503 114.953 58.5256C115.678 50.1945 122.692 43.6336 131.21 43.6336H140.536C149.035 43.6336 156.04 50.1684 156.789 58.4759ZM135.873 38.9708C130.089 38.9708 125.382 34.2638 125.382 28.4796C125.382 22.6954 130.089 17.9883 135.873 17.9883C141.657 17.9883 146.364 22.6954 146.364 28.4796C146.364 34.2638 141.657 38.9708 135.873 38.9708Z"/>
</mask>
<path fill-rule="evenodd" clip-rule="evenodd" d="M156.789 58.4759C161.689 53.3055 164.695 46.322 164.695 38.6364C164.695 22.7045 151.779 9.78906 135.847 9.78906C119.915 9.78906 107 22.7045 107 38.6364C107 46.3466 110.025 53.3503 114.953 58.5256C115.678 50.1945 122.692 43.6336 131.21 43.6336H140.536C149.035 43.6336 156.04 50.1684 156.789 58.4759ZM135.873 38.9708C130.089 38.9708 125.382 34.2638 125.382 28.4796C125.382 22.6954 130.089 17.9883 135.873 17.9883C141.657 17.9883 146.364 22.6954 146.364 28.4796C146.364 34.2638 141.657 38.9708 135.873 38.9708Z" fill="url(#paint1_linear_10291_103211)"/>
<path d="M156.789 58.4759L151.313 58.9699L152.407 71.0944L160.781 62.2582L156.789 58.4759ZM114.953 58.5256L110.97 62.3173L119.373 71.1422L120.43 59.0028L114.953 58.5256ZM159.196 38.6364C159.196 44.8595 156.769 50.5039 152.798 54.6936L160.781 62.2582C166.61 56.1072 170.193 47.7844 170.193 38.6364H159.196ZM135.847 15.2877C148.743 15.2877 159.196 25.7413 159.196 38.6364H170.193C170.193 19.6677 154.816 4.29046 135.847 4.29046V15.2877ZM112.499 38.6364C112.499 25.7413 122.952 15.2877 135.847 15.2877V4.29046C116.879 4.29046 101.501 19.6677 101.501 38.6364H112.499ZM118.935 54.7339C114.941 50.5401 112.499 44.8794 112.499 38.6364H101.501C101.501 47.8139 105.108 56.1606 110.97 62.3173L118.935 54.7339ZM131.21 38.135C119.813 38.135 110.445 46.9039 109.475 58.0485L120.43 59.0028C120.911 53.485 125.572 49.1322 131.21 49.1322V38.135ZM140.536 38.135H131.21V49.1322H140.536V38.135ZM162.266 57.9819C161.263 46.8688 151.909 38.135 140.536 38.135V49.1322C146.161 49.1322 150.817 53.468 151.313 58.9699L162.266 57.9819ZM119.883 28.4796C119.883 37.3006 127.052 44.4695 135.873 44.4695V33.4722C133.126 33.4722 130.881 31.227 130.881 28.4796H119.883ZM135.873 12.4897C127.052 12.4897 119.883 19.6586 119.883 28.4796H130.881C130.881 25.7322 133.126 23.4869 135.873 23.4869V12.4897ZM151.863 28.4796C151.863 19.6586 144.694 12.4897 135.873 12.4897V23.4869C138.621 23.4869 140.866 25.7322 140.866 28.4796H151.863ZM135.873 44.4695C144.694 44.4695 151.863 37.3006 151.863 28.4796H140.866C140.866 31.227 138.621 33.4722 135.873 33.4722V44.4695Z" fill="url(#paint2_linear_10291_103211)" mask="url(#path-3-inside-1_10291_103211)"/>
<path fill-rule="evenodd" clip-rule="evenodd" d="M336.883 29.9391C336.883 29.5053 336.531 29.1536 336.097 29.1536L334.201 29.1536C333.767 29.1536 333.416 29.5053 333.416 29.9391C333.416 30.3729 333.767 30.7246 334.201 30.7246L336.097 30.7246C336.531 30.7246 336.883 30.3729 336.883 29.9391ZM328.919 29.9391C328.919 29.5053 328.568 29.1536 328.134 29.1536L324.342 29.1536C323.908 29.1536 323.556 29.5053 323.556 29.9391C323.556 30.3729 323.908 30.7246 324.342 30.7246L328.134 30.7246C328.568 30.7246 328.919 30.3729 328.919 29.9391ZM319.06 29.9391C319.06 29.5053 318.708 29.1536 318.275 29.1536L314.483 29.1536C314.049 29.1536 313.697 29.5053 313.697 29.9391C313.697 30.3729 314.049 30.7246 314.483 30.7246L318.275 30.7246C318.708 30.7246 319.06 30.3729 319.06 29.9391ZM309.201 29.9391C309.201 29.5053 308.849 29.1536 308.415 29.1536L304.623 29.1536C304.189 29.1536 303.838 29.5053 303.838 29.9391C303.838 30.3729 304.189 30.7246 304.623 30.7246L308.415 30.7246C308.849 30.7246 309.201 30.3729 309.201 29.9391ZM299.341 29.9391C299.341 29.5053 298.99 29.1536 298.556 29.1536L294.764 29.1536C294.33 29.1536 293.978 29.5053 293.978 29.9391C293.978 30.3729 294.33 30.7246 294.764 30.7246L298.556 30.7246C298.99 30.7246 299.341 30.3729 299.341 29.9391ZM289.482 29.9391C289.482 29.5053 289.13 29.1536 288.697 29.1536L284.922 29.1536C284.488 29.1536 284.137 29.5053 284.137 29.9391C284.137 30.3729 284.488 30.7246 284.922 30.7246L288.697 30.7246C289.13 30.7246 289.482 30.3729 289.482 29.9391ZM279.697 29.9391C279.697 29.5053 279.345 29.1536 278.911 29.1536L275.155 29.1536C274.721 29.1536 274.369 29.5053 274.369 29.9391C274.369 30.3729 274.721 30.7246 275.155 30.7246L278.911 30.7246C279.345 30.7246 279.697 30.3729 279.697 29.9391ZM269.93 29.9391C269.93 29.5053 269.578 29.1536 269.144 29.1536L265.387 29.1536C264.954 29.1536 264.602 29.5053 264.602 29.9391C264.602 30.3729 264.954 30.7246 265.387 30.7246L269.144 30.7246C269.578 30.7246 269.93 30.3729 269.93 29.9391ZM260.162 29.9391C260.162 29.5053 259.81 29.1536 259.377 29.1536L255.62 29.1536C255.186 29.1536 254.834 29.5053 254.834 29.9391C254.834 30.3729 255.186 30.7246 255.62 30.7246L259.377 30.7246C259.81 30.7246 260.162 30.3729 260.162 29.9391ZM250.395 29.9391C250.395 29.5053 250.043 29.1536 249.609 29.1536L245.853 29.1536C245.419 29.1536 245.067 29.5053 245.067 29.9391C245.067 30.3729 245.419 30.7246 245.853 30.7246L249.609 30.7246C250.043 30.7246 250.395 30.3729 250.395 29.9391ZM240.627 29.9391C240.627 29.5053 240.276 29.1536 239.842 29.1536L236.085 29.1536C235.651 29.1536 235.3 29.5053 235.3 29.9391C235.3 30.3729 235.651 30.7246 236.085 30.7246L239.842 30.7246C240.276 30.7246 240.627 30.3729 240.627 29.9391ZM230.86 29.9391C230.86 29.5053 230.508 29.1536 230.074 29.1536L226.318 29.1536C225.884 29.1536 225.532 29.5053 225.532 29.9391C225.532 30.3729 225.884 30.7246 226.318 30.7246L230.074 30.7246C230.508 30.7246 230.86 30.3729 230.86 29.9391ZM221.093 29.9391C221.093 29.5053 220.741 29.1536 220.307 29.1536L216.55 29.1536C216.116 29.1536 215.765 29.5053 215.765 29.9391C215.765 30.3729 216.116 30.7246 216.55 30.7246L220.307 30.7246C220.741 30.7246 221.093 30.3729 221.093 29.9391ZM211.325 29.9391C211.325 29.5053 210.973 29.1536 210.54 29.1536L206.783 29.1536C206.349 29.1536 205.997 29.5053 205.997 29.9391C205.997 30.3729 206.349 30.7246 206.783 30.7246L210.54 30.7246C210.973 30.7246 211.325 30.3729 211.325 29.9391ZM201.558 29.9391C201.558 29.5053 201.206 29.1536 200.772 29.1536L197.016 29.1536C196.582 29.1536 196.23 29.5053 196.23 29.9391C196.23 30.3729 196.582 30.7246 197.016 30.7246L200.772 30.7246C201.206 30.7246 201.558 30.3729 201.558 29.9391ZM191.79 29.9391C191.79 29.5053 191.439 29.1536 191.005 29.1536L187.248 29.1536C186.814 29.1536 186.463 29.5053 186.463 29.9391C186.463 30.3729 186.814 30.7246 187.248 30.7246L191.005 30.7246C191.439 30.7246 191.79 30.3729 191.79 29.9391ZM182.023 29.9391C182.023 29.5053 181.671 29.1536 181.237 29.1536L179.359 29.1536C178.925 29.1536 178.573 29.5053 178.573 29.9391C178.573 30.3729 178.925 30.7246 179.359 30.7246L181.237 30.7246C181.671 30.7246 182.023 30.3729 182.023 29.9391Z" fill="url(#paint3_linear_10291_103211)"/>
<path fill-rule="evenodd" clip-rule="evenodd" d="M334.068 37.3024C334.363 37.621 334.86 37.6404 335.178 37.3459L343.042 30.0749C343.206 29.9237 343.297 29.7102 343.294 29.4876C343.291 29.2649 343.194 29.054 343.027 28.9072L335.162 22.0189C334.836 21.733 334.34 21.7658 334.054 22.0922C333.768 22.4185 333.801 22.9148 334.127 23.2006L341.335 29.5139L334.112 36.1924C333.793 36.4869 333.774 36.9839 334.068 37.3024Z" fill="#063642"/>
<path fill-rule="evenodd" clip-rule="evenodd" d="M184.973 49.1676C184.973 48.7338 185.324 48.3821 185.758 48.3821H187.654C188.088 48.3821 188.44 48.7338 188.44 49.1676C188.44 49.6014 188.088 49.9531 187.654 49.9531H185.758C185.324 49.9531 184.973 49.6014 184.973 49.1676ZM192.936 49.1676C192.936 48.7338 193.288 48.3821 193.721 48.3821H197.514C197.947 48.3821 198.299 48.7338 198.299 49.1676C198.299 49.6014 197.947 49.9531 197.514 49.9531H193.721C193.288 49.9531 192.936 49.6014 192.936 49.1676ZM202.795 49.1676C202.795 48.7338 203.147 48.3821 203.581 48.3821H207.373C207.807 48.3821 208.158 48.7338 208.158 49.1676C208.158 49.6014 207.807 49.9531 207.373 49.9531H203.581C203.147 49.9531 202.795 49.6014 202.795 49.1676ZM212.655 49.1676C212.655 48.7338 213.006 48.3821 213.44 48.3821H217.232C217.666 48.3821 218.018 48.7338 218.018 49.1676C218.018 49.6014 217.666 49.9531 217.232 49.9531H213.44C213.006 49.9531 212.655 49.6014 212.655 49.1676ZM222.514 49.1676C222.514 48.7338 222.866 48.3821 223.3 48.3821H227.092C227.525 48.3821 227.877 48.7338 227.877 49.1676C227.877 49.6014 227.525 49.9531 227.092 49.9531H223.3C222.866 49.9531 222.514 49.6014 222.514 49.1676ZM232.373 49.1676C232.373 48.7338 232.725 48.3821 233.159 48.3821H236.931C237.365 48.3821 237.716 48.7338 237.716 49.1676C237.716 49.6014 237.365 49.9531 236.931 49.9531H233.159C232.725 49.9531 232.373 49.6014 232.373 49.1676ZM242.148 49.1676C242.148 48.7338 242.5 48.3821 242.934 48.3821L246.686 48.3821C247.12 48.3821 247.471 48.7338 247.471 49.1676C247.471 49.6014 247.12 49.9531 246.686 49.9531L242.934 49.9531C242.5 49.9531 242.148 49.6014 242.148 49.1676ZM251.903 49.1676C251.903 48.7338 252.255 48.3821 252.689 48.3821H256.441C256.875 48.3821 257.226 48.7338 257.226 49.1676C257.226 49.6014 256.875 49.9531 256.441 49.9531H252.689C252.255 49.9531 251.903 49.6014 251.903 49.1676ZM261.658 49.1676C261.658 48.7338 262.01 48.3821 262.444 48.3821H266.196C266.63 48.3821 266.981 48.7338 266.981 49.1676C266.981 49.6014 266.63 49.9531 266.196 49.9531H262.444C262.01 49.9531 261.658 49.6014 261.658 49.1676ZM271.413 49.1676C271.413 48.7338 271.765 48.3821 272.199 48.3821H275.951C276.385 48.3821 276.736 48.7338 276.736 49.1676C276.736 49.6014 276.385 49.9531 275.951 49.9531H272.199C271.765 49.9531 271.413 49.6014 271.413 49.1676ZM281.168 49.1676C281.168 48.7338 281.52 48.3821 281.954 48.3821H285.706C286.14 48.3821 286.491 48.7338 286.491 49.1676C286.491 49.6014 286.14 49.9531 285.706 49.9531H281.954C281.52 49.9531 281.168 49.6014 281.168 49.1676ZM290.923 49.1676C290.923 48.7338 291.275 48.3821 291.709 48.3821H295.461C295.895 48.3821 296.246 48.7338 296.246 49.1676C296.246 49.6014 295.895 49.9531 295.461 49.9531H291.709C291.275 49.9531 290.923 49.6014 290.923 49.1676ZM300.678 49.1676C300.678 48.7338 301.03 48.3821 301.464 48.3821H305.216C305.65 48.3821 306.001 48.7338 306.001 49.1676C306.001 49.6014 305.65 49.9531 305.216 49.9531H301.464C301.03 49.9531 300.678 49.6014 300.678 49.1676ZM310.433 49.1676C310.433 48.7338 310.785 48.3821 311.219 48.3821H314.971C315.405 48.3821 315.756 48.7338 315.756 49.1676C315.756 49.6014 315.405 49.9531 314.971 49.9531H311.219C310.785 49.9531 310.433 49.6014 310.433 49.1676ZM320.188 49.1676C320.188 48.7338 320.54 48.3821 320.974 48.3821H324.726C325.16 48.3821 325.511 48.7338 325.511 49.1676C325.511 49.6014 325.16 49.9531 324.726 49.9531H320.974C320.54 49.9531 320.188 49.6014 320.188 49.1676ZM329.943 49.1676C329.943 48.7338 330.295 48.3821 330.729 48.3821H334.481C334.915 48.3821 335.266 48.7338 335.266 49.1676C335.266 49.6014 334.915 49.9531 334.481 49.9531H330.729C330.295 49.9531 329.943 49.6014 329.943 49.1676ZM339.698 49.1676C339.698 48.7338 340.05 48.3821 340.484 48.3821H342.36C342.794 48.3821 343.145 48.7338 343.145 49.1676C343.145 49.6014 342.794 49.9531 342.36 49.9531H340.484C340.05 49.9531 339.698 49.6014 339.698 49.1676Z" fill="url(#paint4_linear_10291_103211)"/>
<path fill-rule="evenodd" clip-rule="evenodd" d="M187.807 56.2226C187.529 56.5561 187.034 56.6017 186.7 56.3243L178.845 49.7917C178.663 49.6401 178.559 49.4144 178.562 49.1774C178.565 48.9403 178.675 48.7174 178.861 48.5707L186.717 42.382C187.057 42.1135 187.551 42.1721 187.82 42.5128C188.088 42.8536 188.03 43.3475 187.689 43.616L180.596 49.2042L187.705 55.1164C188.039 55.3938 188.084 55.889 187.807 56.2226Z" fill="#27C1C7"/>
<path d="M261.725 16.0998C261.725 16.5687 261.644 16.9936 261.483 17.3745C261.322 17.7482 261.102 18.0669 260.824 18.3306C260.545 18.5944 260.216 18.7995 259.835 18.946C259.454 19.0852 259.04 19.1548 258.593 19.1548C258.146 19.1548 257.732 19.0852 257.351 18.946C256.97 18.7995 256.637 18.5944 256.351 18.3306C256.073 18.0669 255.853 17.7482 255.692 17.3745C255.538 16.9936 255.461 16.5687 255.461 16.0998V11.1765H256.846V16.0448C256.846 16.2719 256.875 16.4991 256.934 16.7262C256.992 16.946 257.087 17.1438 257.219 17.3196C257.359 17.4954 257.538 17.6383 257.758 17.7482C257.985 17.8581 258.263 17.913 258.593 17.913C258.923 17.913 259.197 17.8581 259.417 17.7482C259.644 17.6383 259.824 17.4954 259.956 17.3196C260.095 17.1438 260.194 16.946 260.252 16.7262C260.311 16.4991 260.34 16.2719 260.34 16.0448V11.1765H261.725V16.0998ZM267.889 12.8029C267.742 12.6124 267.533 12.4549 267.262 12.3304C266.998 12.1985 266.731 12.1326 266.46 12.1326C266.299 12.1326 266.138 12.1545 265.976 12.1985C265.815 12.2351 265.669 12.2974 265.537 12.3853C265.405 12.4659 265.295 12.5758 265.207 12.715C265.127 12.8469 265.086 13.0081 265.086 13.1985C265.086 13.3744 265.123 13.5246 265.196 13.6491C265.269 13.7737 265.368 13.8799 265.493 13.9678C265.625 14.0557 265.782 14.1327 265.965 14.1986C266.149 14.2645 266.35 14.3305 266.57 14.3964C266.819 14.477 267.075 14.5686 267.339 14.6711C267.61 14.7737 267.856 14.9092 268.075 15.0777C268.303 15.2463 268.486 15.4587 268.625 15.7151C268.771 15.9716 268.845 16.2903 268.845 16.6712C268.845 17.0888 268.768 17.4551 268.614 17.7702C268.46 18.0779 268.255 18.3343 267.999 18.5394C267.742 18.7446 267.442 18.8984 267.097 19.001C266.753 19.1036 266.39 19.1548 266.009 19.1548C265.504 19.1548 265.009 19.0633 264.526 18.8801C264.042 18.6896 263.647 18.4112 263.339 18.0449L264.328 17.1218C264.519 17.3855 264.771 17.5943 265.086 17.7482C265.409 17.902 265.724 17.979 266.031 17.979C266.193 17.979 266.357 17.9607 266.526 17.924C266.694 17.8801 266.845 17.8105 266.976 17.7152C267.116 17.62 267.226 17.5028 267.306 17.3636C267.394 17.217 267.438 17.0375 267.438 16.8251C267.438 16.6199 267.39 16.4514 267.295 16.3196C267.2 16.1804 267.072 16.0631 266.911 15.9679C266.749 15.8653 266.559 15.7774 266.339 15.7041C266.119 15.6309 265.889 15.554 265.647 15.4734C265.412 15.4001 265.178 15.3122 264.943 15.2096C264.709 15.1071 264.497 14.9715 264.306 14.803C264.123 14.6345 263.973 14.4294 263.855 14.1876C263.738 13.9385 263.68 13.6308 263.68 13.2645C263.68 12.8689 263.76 12.5282 263.921 12.2425C264.09 11.9567 264.306 11.7223 264.57 11.5391C264.841 11.3487 265.145 11.2095 265.482 11.1215C265.826 11.0263 266.174 10.9787 266.526 10.9787C266.922 10.9787 267.321 11.0483 267.724 11.1875C268.134 11.3267 268.489 11.5355 268.79 11.8139L267.889 12.8029ZM270.781 11.1765H273.54C274.045 11.1765 274.554 11.2424 275.067 11.3743C275.58 11.5062 276.042 11.726 276.452 12.0337C276.862 12.334 277.195 12.7333 277.452 13.2315C277.708 13.7224 277.837 14.3341 277.837 15.0668C277.837 15.7481 277.708 16.3342 277.452 16.8251C277.195 17.3159 276.862 17.7189 276.452 18.0339C276.042 18.3489 275.58 18.5834 275.067 18.7372C274.554 18.8838 274.045 18.957 273.54 18.957H270.781V11.1765ZM273.32 17.7482C273.679 17.7482 274.038 17.7079 274.397 17.6273C274.756 17.5394 275.078 17.3965 275.364 17.1987C275.657 16.9936 275.895 16.7188 276.078 16.3745C276.261 16.0302 276.353 15.5943 276.353 15.0668C276.353 14.51 276.261 14.0557 276.078 13.7041C275.895 13.3524 275.657 13.0777 275.364 12.8799C275.078 12.682 274.756 12.5465 274.397 12.4732C274.038 12.4 273.679 12.3633 273.32 12.3633H272.166V17.7482H273.32ZM285.339 13.0007C285.134 12.7223 284.866 12.5209 284.536 12.3963C284.207 12.2644 283.884 12.1985 283.569 12.1985C283.166 12.1985 282.8 12.2718 282.47 12.4183C282.141 12.5648 281.855 12.7663 281.613 13.0227C281.379 13.2791 281.196 13.5795 281.064 13.9239C280.939 14.2682 280.877 14.6418 280.877 15.0448C280.877 15.4697 280.939 15.858 281.064 16.2097C281.188 16.5613 281.364 16.8654 281.591 17.1218C281.826 17.3709 282.104 17.565 282.426 17.7042C282.749 17.8434 283.112 17.913 283.514 17.913C283.932 17.913 284.302 17.8324 284.624 17.6713C284.947 17.5028 285.207 17.283 285.405 17.0119L286.515 17.7921C286.17 18.2244 285.749 18.5614 285.251 18.8032C284.753 19.0376 284.17 19.1548 283.503 19.1548C282.895 19.1548 282.335 19.0559 281.822 18.8581C281.317 18.653 280.881 18.3709 280.514 18.0119C280.148 17.6456 279.862 17.2134 279.657 16.7152C279.452 16.2097 279.349 15.6529 279.349 15.0448C279.349 14.422 279.456 13.8616 279.668 13.3634C279.888 12.8579 280.185 12.4293 280.558 12.0776C280.939 11.726 281.386 11.4549 281.899 11.2644C282.412 11.0739 282.969 10.9787 283.569 10.9787C283.818 10.9787 284.079 11.0043 284.35 11.0556C284.621 11.0996 284.881 11.1728 285.13 11.2754C285.379 11.3706 285.613 11.4915 285.833 11.638C286.053 11.7846 286.24 11.9604 286.394 12.1655L285.339 13.0007Z" fill="#012E3A"/>
<path d="M252.664 62.9461H251.664V61.8911H252.664V61.1108C252.664 60.7958 252.697 60.4954 252.763 60.2097C252.837 59.9166 252.954 59.6602 253.115 59.4404C253.283 59.2206 253.503 59.0485 253.774 58.9239C254.045 58.792 254.386 58.7261 254.796 58.7261C254.943 58.7261 255.064 58.7334 255.159 58.7481C255.262 58.7554 255.364 58.7737 255.467 58.803L255.379 59.924C255.305 59.902 255.225 59.8837 255.137 59.869C255.056 59.8544 254.968 59.847 254.873 59.847C254.683 59.847 254.529 59.8837 254.412 59.9569C254.294 60.0302 254.203 60.1254 254.137 60.2426C254.078 60.3599 254.038 60.4881 254.016 60.6273C253.994 60.7665 253.983 60.902 253.983 61.0339V61.8911H255.203V62.9461H253.983V67.166H252.664V62.9461ZM262.832 64.3088C262.832 64.7776 262.751 65.2026 262.59 65.5835C262.429 65.9572 262.209 66.2759 261.931 66.5396C261.652 66.8034 261.323 67.0085 260.942 67.155C260.561 67.2942 260.147 67.3638 259.7 67.3638C259.253 67.3638 258.839 67.2942 258.458 67.155C258.077 67.0085 257.744 66.8034 257.458 66.5396C257.18 66.2759 256.96 65.9572 256.799 65.5835C256.645 65.2026 256.568 64.7776 256.568 64.3088V59.3855H257.953V64.2538C257.953 64.4809 257.982 64.708 258.041 64.9352C258.099 65.1549 258.194 65.3528 258.326 65.5286C258.466 65.7044 258.645 65.8473 258.865 65.9572C259.092 66.0671 259.37 66.122 259.7 66.122C260.03 66.122 260.304 66.0671 260.524 65.9572C260.751 65.8473 260.931 65.7044 261.063 65.5286C261.202 65.3528 261.301 65.1549 261.359 64.9352C261.418 64.708 261.447 64.4809 261.447 64.2538V59.3855H262.832V64.3088ZM268.996 61.0119C268.849 60.8214 268.64 60.6639 268.369 60.5394C268.105 60.4075 267.838 60.3416 267.567 60.3416C267.406 60.3416 267.245 60.3635 267.083 60.4075C266.922 60.4441 266.776 60.5064 266.644 60.5943C266.512 60.6749 266.402 60.7848 266.314 60.924C266.234 61.0559 266.193 61.217 266.193 61.4075C266.193 61.5834 266.23 61.7336 266.303 61.8581C266.376 61.9826 266.475 62.0889 266.6 62.1768C266.732 62.2647 266.889 62.3416 267.072 62.4076C267.256 62.4735 267.457 62.5394 267.677 62.6054C267.926 62.686 268.182 62.7776 268.446 62.8801C268.717 62.9827 268.963 63.1182 269.182 63.2867C269.41 63.4552 269.593 63.6677 269.732 63.9241C269.878 64.1805 269.952 64.4992 269.952 64.8802C269.952 65.2978 269.875 65.6641 269.721 65.9792C269.567 66.2869 269.362 66.5433 269.106 66.7484C268.849 66.9536 268.549 67.1074 268.204 67.21C267.86 67.3125 267.497 67.3638 267.116 67.3638C266.611 67.3638 266.116 67.2722 265.633 67.0891C265.149 66.8986 264.754 66.6202 264.446 66.2539L265.435 65.3308C265.626 65.5945 265.878 65.8033 266.193 65.9572C266.516 66.111 266.831 66.188 267.138 66.188C267.3 66.188 267.464 66.1696 267.633 66.133C267.801 66.089 267.952 66.0194 268.084 65.9242C268.223 65.829 268.333 65.7117 268.413 65.5725C268.501 65.426 268.545 65.2465 268.545 65.0341C268.545 64.8289 268.497 64.6604 268.402 64.5285C268.307 64.3893 268.179 64.2721 268.018 64.1769C267.856 64.0743 267.666 63.9864 267.446 63.9131C267.226 63.8399 266.996 63.7629 266.754 63.6824C266.519 63.6091 266.285 63.5212 266.05 63.4186C265.816 63.316 265.604 63.1805 265.413 63.012C265.23 62.8435 265.08 62.6384 264.963 62.3966C264.845 62.1475 264.787 61.8398 264.787 61.4735C264.787 61.0778 264.867 60.7372 265.028 60.4514C265.197 60.1657 265.413 59.9313 265.677 59.7481C265.948 59.5576 266.252 59.4184 266.589 59.3305C266.933 59.2353 267.281 59.1877 267.633 59.1877C268.029 59.1877 268.428 59.2573 268.831 59.3965C269.241 59.5357 269.596 59.7445 269.897 60.0229L268.996 61.0119ZM271.888 59.3855H274.647C275.152 59.3855 275.661 59.4514 276.174 59.5833C276.687 59.7152 277.149 59.9349 277.559 60.2426C277.969 60.543 278.302 60.9423 278.559 61.4405C278.815 61.9314 278.944 62.5431 278.944 63.2757C278.944 63.9571 278.815 64.5432 278.559 65.0341C278.302 65.5249 277.969 65.9279 277.559 66.2429C277.149 66.5579 276.687 66.7924 276.174 66.9462C275.661 67.0928 275.152 67.166 274.647 67.166H271.888V59.3855ZM274.427 65.9572C274.786 65.9572 275.145 65.9169 275.504 65.8363C275.863 65.7484 276.185 65.6055 276.471 65.4077C276.764 65.2026 277.002 64.9278 277.185 64.5835C277.368 64.2392 277.46 63.8032 277.46 63.2757C277.46 62.7189 277.368 62.2647 277.185 61.913C277.002 61.5614 276.764 61.2866 276.471 61.0888C276.185 60.891 275.863 60.7555 275.504 60.6822C275.145 60.609 274.786 60.5723 274.427 60.5723H273.273V65.9572H274.427ZM286.446 61.2097C286.241 60.9313 285.973 60.7298 285.643 60.6053C285.314 60.4734 284.991 60.4075 284.676 60.4075C284.273 60.4075 283.907 60.4808 283.577 60.6273C283.248 60.7738 282.962 60.9753 282.72 61.2317C282.486 61.4881 282.303 61.7885 282.171 62.1328C282.046 62.4772 281.984 62.8508 281.984 63.2538C281.984 63.6787 282.046 64.067 282.171 64.4186C282.295 64.7703 282.471 65.0744 282.698 65.3308C282.933 65.5799 283.211 65.774 283.534 65.9132C283.856 66.0524 284.219 66.122 284.621 66.122C285.039 66.122 285.409 66.0414 285.731 65.8802C286.054 65.7117 286.314 65.492 286.512 65.2209L287.622 66.0011C287.277 66.4334 286.856 66.7704 286.358 67.0122C285.86 67.2466 285.277 67.3638 284.61 67.3638C284.002 67.3638 283.442 67.2649 282.929 67.0671C282.424 66.862 281.988 66.5799 281.621 66.2209C281.255 65.8546 280.969 65.4224 280.764 64.9242C280.559 64.4186 280.456 63.8618 280.456 63.2538C280.456 62.631 280.563 62.0706 280.775 61.5724C280.995 61.0669 281.292 60.6383 281.665 60.2866C282.046 59.9349 282.493 59.6639 283.006 59.4734C283.519 59.2829 284.076 59.1877 284.676 59.1877C284.926 59.1877 285.186 59.2133 285.457 59.2646C285.728 59.3085 285.988 59.3818 286.237 59.4844C286.486 59.5796 286.72 59.7005 286.94 59.847C287.16 59.9936 287.347 60.1694 287.501 60.3745L286.446 61.2097Z" fill="#012E3A"/>
<path d="M82.1536 87.9227H83.769V95.564H87.6281V97H82.1536V87.9227ZM88.9069 90.8459H90.4455V97H88.9069V90.8459ZM88.689 88.7561C88.689 88.5082 88.7787 88.2945 88.9582 88.115C89.1463 87.927 89.3813 87.8329 89.6634 87.8329C89.9454 87.8329 90.1805 87.9227 90.3685 88.1022C90.5651 88.2731 90.6634 88.4911 90.6634 88.7561C90.6634 89.021 90.5651 89.2433 90.3685 89.4228C90.1805 89.5937 89.9454 89.6792 89.6634 89.6792C89.3813 89.6792 89.1463 89.5894 88.9582 89.4099C88.7787 89.2219 88.689 89.0039 88.689 88.7561ZM98.825 100.077H97.2865V96.1795H97.2609C97.0643 96.4872 96.7822 96.7308 96.4147 96.9103C96.0557 97.0897 95.6582 97.1795 95.2223 97.1795C94.7522 97.1795 94.3291 97.094 93.953 96.9231C93.5855 96.7436 93.2692 96.5085 93.0043 96.2179C92.7478 95.9188 92.547 95.5726 92.4017 95.1794C92.2649 94.7777 92.1965 94.3503 92.1965 93.8973C92.1965 93.4443 92.2692 93.0212 92.4145 92.628C92.5598 92.2348 92.7649 91.8929 93.0299 91.6023C93.2949 91.3117 93.6111 91.0852 93.9787 90.9228C94.3462 90.7519 94.7479 90.6664 95.1838 90.6664C95.4659 90.6664 95.7181 90.7006 95.9403 90.769C96.1711 90.8288 96.3762 90.91 96.5557 91.0126C96.7352 91.1066 96.8848 91.2177 97.0044 91.3459C97.1326 91.4656 97.2352 91.5852 97.3121 91.7049H97.3506V90.8459H98.825V100.077ZM93.7607 93.8973C93.7607 94.1366 93.7949 94.376 93.8633 94.6153C93.9402 94.8546 94.0513 95.0683 94.1966 95.2563C94.3419 95.4444 94.5257 95.5982 94.7479 95.7179C94.9702 95.8376 95.2309 95.8974 95.53 95.8974C95.8121 95.8974 96.0642 95.8418 96.2865 95.7307C96.5087 95.6111 96.6967 95.4572 96.8506 95.2692C97.013 95.0811 97.1326 94.8717 97.2096 94.6409C97.295 94.4016 97.3378 94.1623 97.3378 93.9229C97.3378 93.6836 97.295 93.4443 97.2096 93.205C97.1326 92.9656 97.013 92.752 96.8506 92.5639C96.6967 92.3759 96.5087 92.222 96.2865 92.1024C96.0642 91.9827 95.8121 91.9229 95.53 91.9229C95.2309 91.9229 94.9702 91.9827 94.7479 92.1024C94.5257 92.2135 94.3419 92.3631 94.1966 92.5511C94.0513 92.7391 93.9402 92.9528 93.8633 93.1921C93.7949 93.4229 93.7607 93.658 93.7607 93.8973ZM106.541 97H105.08V96.0128H105.054C104.917 96.3205 104.678 96.594 104.336 96.8333C104.003 97.0641 103.605 97.1795 103.144 97.1795C102.742 97.1795 102.396 97.1111 102.105 96.9744C101.823 96.8291 101.588 96.641 101.4 96.4102C101.22 96.1795 101.088 95.9145 101.003 95.6153C100.917 95.3162 100.874 95.0085 100.874 94.6922V90.8459H102.413V94.2563C102.413 94.4358 102.426 94.6238 102.451 94.8204C102.477 95.017 102.532 95.1965 102.618 95.3589C102.703 95.5128 102.819 95.641 102.964 95.7435C103.118 95.8461 103.319 95.8974 103.567 95.8974C103.806 95.8974 104.015 95.8504 104.195 95.7564C104.383 95.6538 104.533 95.5256 104.644 95.3717C104.763 95.2179 104.853 95.0427 104.913 94.8461C104.973 94.6409 105.003 94.4358 105.003 94.2307V90.8459H106.541V97ZM108.67 90.8459H110.208V97H108.67V90.8459ZM108.452 88.7561C108.452 88.5082 108.542 88.2945 108.721 88.115C108.909 87.927 109.144 87.8329 109.426 87.8329C109.708 87.8329 109.943 87.9227 110.131 88.1022C110.328 88.2731 110.426 88.4911 110.426 88.7561C110.426 89.021 110.328 89.2433 110.131 89.4228C109.943 89.5937 109.708 89.6792 109.426 89.6792C109.144 89.6792 108.909 89.5894 108.721 89.4099C108.542 89.2219 108.452 89.0039 108.452 88.7561ZM118.588 97H117.126V96.0769H117.101C116.887 96.4359 116.588 96.7094 116.203 96.8974C115.827 97.0855 115.421 97.1795 114.985 97.1795C114.515 97.1795 114.092 97.094 113.716 96.9231C113.348 96.7436 113.032 96.5085 112.767 96.2179C112.511 95.9188 112.31 95.5726 112.165 95.1794C112.028 94.7777 111.959 94.3503 111.959 93.8973C111.959 93.4443 112.032 93.0212 112.177 92.628C112.323 92.2348 112.528 91.8929 112.793 91.6023C113.058 91.3117 113.374 91.0852 113.742 90.9228C114.109 90.7519 114.511 90.6664 114.947 90.6664C115.229 90.6664 115.481 90.7006 115.703 90.769C115.925 90.8288 116.118 90.9057 116.28 90.9997C116.451 91.0938 116.596 91.1963 116.716 91.3075C116.836 91.4186 116.934 91.5254 117.011 91.628H117.049V87.3073H118.588V97ZM113.524 93.8973C113.524 94.1366 113.558 94.376 113.626 94.6153C113.703 94.8546 113.814 95.0683 113.96 95.2563C114.105 95.4444 114.289 95.5982 114.511 95.7179C114.733 95.8376 114.994 95.8974 115.293 95.8974C115.575 95.8974 115.827 95.8418 116.049 95.7307C116.272 95.6111 116.46 95.4572 116.614 95.2692C116.776 95.0811 116.896 94.8717 116.973 94.6409C117.058 94.4016 117.101 94.1623 117.101 93.9229C117.101 93.6836 117.058 93.4443 116.973 93.205C116.896 92.9656 116.776 92.752 116.614 92.5639C116.46 92.3759 116.272 92.222 116.049 92.1024C115.827 91.9827 115.575 91.9229 115.293 91.9229C114.994 91.9229 114.733 91.9827 114.511 92.1024C114.289 92.2135 114.105 92.3631 113.96 92.5511C113.814 92.7391 113.703 92.9528 113.626 93.1921C113.558 93.4229 113.524 93.658 113.524 93.8973ZM120.739 90.8459H122.278V97H120.739V90.8459ZM120.521 88.7561C120.521 88.5082 120.611 88.2945 120.79 88.115C120.979 87.927 121.214 87.8329 121.496 87.8329C121.778 87.8329 122.013 87.9227 122.201 88.1022C122.397 88.2731 122.496 88.4911 122.496 88.7561C122.496 89.021 122.397 89.2433 122.201 89.4228C122.013 89.5937 121.778 89.6792 121.496 89.6792C121.214 89.6792 120.979 89.5894 120.79 89.4099C120.611 89.2219 120.521 89.0039 120.521 88.7561ZM123.516 92.0767V90.8459H124.593V89.0638H126.106V90.8459H127.644V92.0767H126.106V94.9358C126.106 95.2093 126.153 95.4358 126.247 95.6153C126.349 95.7948 126.572 95.8846 126.914 95.8846C127.016 95.8846 127.127 95.876 127.247 95.8589C127.367 95.8333 127.473 95.7991 127.567 95.7564L127.619 96.9615C127.482 97.0128 127.32 97.0513 127.132 97.0769C126.943 97.1111 126.764 97.1282 126.593 97.1282C126.183 97.1282 125.849 97.0727 125.593 96.9615C125.337 96.8419 125.131 96.6837 124.978 96.4872C124.832 96.282 124.73 96.0512 124.67 95.7948C124.619 95.5299 124.593 95.2478 124.593 94.9486V92.0767H123.516ZM128.091 90.8459H129.796L131.514 95.3204H131.54L133.066 90.8459H134.668L131.758 98.3206C131.647 98.6026 131.527 98.8505 131.399 99.0642C131.271 99.2864 131.117 99.4702 130.937 99.6155C130.758 99.7693 130.544 99.8847 130.296 99.9617C130.057 100.039 129.766 100.077 129.424 100.077C129.296 100.077 129.164 100.069 129.027 100.051C128.899 100.043 128.766 100.021 128.63 99.9873L128.758 98.6539C128.86 98.6881 128.959 98.7095 129.053 98.718C129.155 98.7351 129.249 98.7437 129.335 98.7437C129.497 98.7437 129.634 98.7223 129.745 98.6796C129.856 98.6454 129.95 98.5855 130.027 98.5001C130.104 98.4231 130.172 98.3248 130.232 98.2052C130.292 98.0855 130.356 97.9445 130.425 97.7821L130.732 97L128.091 90.8459ZM139.383 87.9227H142.344C142.866 87.9227 143.336 87.9697 143.755 88.0637C144.173 88.1577 144.532 88.3116 144.831 88.5253C145.131 88.739 145.361 89.0125 145.524 89.3458C145.686 89.6792 145.767 90.0809 145.767 90.551C145.767 91.0553 145.673 91.4784 145.485 91.8203C145.297 92.1622 145.041 92.44 144.716 92.6537C144.4 92.8588 144.028 93.0084 143.601 93.1024C143.173 93.1964 142.72 93.2434 142.242 93.2434H140.998V97H139.383V87.9227ZM142.126 91.8844C142.391 91.8844 142.643 91.8673 142.883 91.8331C143.122 91.7904 143.336 91.722 143.524 91.628C143.712 91.5254 143.861 91.3887 143.972 91.2177C144.084 91.0468 144.139 90.8245 144.139 90.551C144.139 90.286 144.084 90.0724 143.972 89.91C143.861 89.739 143.712 89.6065 143.524 89.5125C143.344 89.4185 143.135 89.3587 142.895 89.333C142.665 89.2988 142.425 89.2817 142.178 89.2817H140.998V91.8844H142.126ZM146.799 90.8459H148.273V91.8716H148.299C148.47 91.5126 148.709 91.222 149.017 90.9997C149.325 90.7775 149.684 90.6664 150.094 90.6664C150.154 90.6664 150.218 90.6707 150.286 90.6792C150.355 90.6792 150.414 90.6878 150.466 90.7049V92.1152C150.363 92.0895 150.273 92.0724 150.196 92.0639C150.128 92.0553 150.06 92.0511 149.991 92.0511C149.641 92.0511 149.359 92.1152 149.145 92.2434C148.931 92.3716 148.765 92.5255 148.645 92.7049C148.525 92.8844 148.444 93.0682 148.402 93.2563C148.359 93.4443 148.337 93.5939 148.337 93.705V97H146.799V90.8459ZM151.141 93.8973C151.141 93.4101 151.227 92.9699 151.398 92.5767C151.577 92.175 151.816 91.8331 152.116 91.5511C152.415 91.269 152.769 91.051 153.18 90.8972C153.59 90.7433 154.026 90.6664 154.487 90.6664C154.949 90.6664 155.385 90.7433 155.795 90.8972C156.205 91.051 156.56 91.269 156.859 91.5511C157.158 91.8331 157.394 92.175 157.564 92.5767C157.744 92.9699 157.834 93.4101 157.834 93.8973C157.834 94.3845 157.744 94.829 157.564 95.2307C157.394 95.6324 157.158 95.9786 156.859 96.2692C156.56 96.5513 156.205 96.7735 155.795 96.9359C155.385 97.0983 154.949 97.1795 154.487 97.1795C154.026 97.1795 153.59 97.0983 153.18 96.9359C152.769 96.7735 152.415 96.5513 152.116 96.2692C151.816 95.9786 151.577 95.6324 151.398 95.2307C151.227 94.829 151.141 94.3845 151.141 93.8973ZM152.705 93.8973C152.705 94.1366 152.739 94.376 152.808 94.6153C152.885 94.8546 152.996 95.0683 153.141 95.2563C153.287 95.4444 153.47 95.5982 153.693 95.7179C153.915 95.8376 154.18 95.8974 154.487 95.8974C154.795 95.8974 155.06 95.8376 155.282 95.7179C155.505 95.5982 155.688 95.4444 155.834 95.2563C155.979 95.0683 156.086 94.8546 156.154 94.6153C156.231 94.376 156.27 94.1366 156.27 93.8973C156.27 93.658 156.231 93.4229 156.154 93.1921C156.086 92.9528 155.979 92.7391 155.834 92.5511C155.688 92.3631 155.505 92.2135 155.282 92.1024C155.06 91.9827 154.795 91.9229 154.487 91.9229C154.18 91.9229 153.915 91.9827 153.693 92.1024C153.47 92.2135 153.287 92.3631 153.141 92.5511C152.996 92.7391 152.885 92.9528 152.808 93.1921C152.739 93.4229 152.705 93.658 152.705 93.8973ZM158.659 90.8459H160.338L161.954 95.3333H161.979L163.608 90.8459H165.236L162.787 97H161.146L158.659 90.8459ZM166.437 90.8459H167.976V97H166.437V90.8459ZM166.219 88.7561C166.219 88.5082 166.309 88.2945 166.489 88.115C166.677 87.927 166.912 87.8329 167.194 87.8329C167.476 87.8329 167.711 87.9227 167.899 88.1022C168.095 88.2731 168.194 88.4911 168.194 88.7561C168.194 89.021 168.095 89.2433 167.899 89.4228C167.711 89.5937 167.476 89.6792 167.194 89.6792C166.912 89.6792 166.677 89.5894 166.489 89.4099C166.309 89.2219 166.219 89.0039 166.219 88.7561ZM176.355 97H174.894V96.0769H174.868C174.654 96.4359 174.355 96.7094 173.971 96.8974C173.595 97.0855 173.189 97.1795 172.753 97.1795C172.283 97.1795 171.859 97.094 171.483 96.9231C171.116 96.7436 170.8 96.5085 170.535 96.2179C170.278 95.9188 170.077 95.5726 169.932 95.1794C169.795 94.7777 169.727 94.3503 169.727 93.8973C169.727 93.4443 169.8 93.0212 169.945 92.628C170.09 92.2348 170.295 91.8929 170.56 91.6023C170.825 91.3117 171.141 91.0852 171.509 90.9228C171.877 90.7519 172.278 90.6664 172.714 90.6664C172.996 90.6664 173.248 90.7006 173.471 90.769C173.693 90.8288 173.885 90.9057 174.048 90.9997C174.218 91.0938 174.364 91.1963 174.483 91.3075C174.603 91.4186 174.701 91.5254 174.778 91.628H174.817V87.3073H176.355V97ZM171.291 93.8973C171.291 94.1366 171.325 94.376 171.394 94.6153C171.471 94.8546 171.582 95.0683 171.727 95.2563C171.872 95.4444 172.056 95.5982 172.278 95.7179C172.5 95.8376 172.761 95.8974 173.06 95.8974C173.342 95.8974 173.595 95.8418 173.817 95.7307C174.039 95.6111 174.227 95.4572 174.381 95.2692C174.543 95.0811 174.663 94.8717 174.74 94.6409C174.825 94.4016 174.868 94.1623 174.868 93.9229C174.868 93.6836 174.825 93.4443 174.74 93.205C174.663 92.9656 174.543 92.752 174.381 92.5639C174.227 92.3759 174.039 92.222 173.817 92.1024C173.595 91.9827 173.342 91.9229 173.06 91.9229C172.761 91.9229 172.5 91.9827 172.278 92.1024C172.056 92.2135 171.872 92.3631 171.727 92.5511C171.582 92.7391 171.471 92.9528 171.394 93.1921C171.325 93.4229 171.291 93.658 171.291 93.8973ZM182.814 93.3075C182.814 93.1109 182.785 92.9229 182.725 92.7434C182.673 92.5639 182.588 92.4058 182.468 92.269C182.349 92.1323 182.195 92.0254 182.007 91.9485C181.827 91.863 181.614 91.8203 181.366 91.8203C180.904 91.8203 180.511 91.9613 180.186 92.2434C179.87 92.5169 179.695 92.8716 179.66 93.3075H182.814ZM184.353 93.9999C184.353 94.0683 184.353 94.1366 184.353 94.205C184.353 94.2734 184.349 94.3418 184.34 94.4101H179.66C179.678 94.6324 179.733 94.8375 179.827 95.0256C179.93 95.2051 180.062 95.3632 180.225 95.4999C180.387 95.6281 180.571 95.7307 180.776 95.8076C180.981 95.8846 181.195 95.923 181.417 95.923C181.802 95.923 182.126 95.8547 182.391 95.7179C182.656 95.5726 182.874 95.376 183.045 95.1281L184.071 95.9487C183.464 96.7692 182.584 97.1795 181.43 97.1795C180.951 97.1795 180.511 97.1068 180.109 96.9615C179.707 96.8077 179.357 96.594 179.058 96.3205C178.767 96.047 178.536 95.7136 178.366 95.3204C178.203 94.9187 178.122 94.4657 178.122 93.9614C178.122 93.4657 178.203 93.0169 178.366 92.6152C178.536 92.2049 178.767 91.8588 179.058 91.5767C179.348 91.2861 179.69 91.0639 180.084 90.91C180.485 90.7476 180.917 90.6664 181.378 90.6664C181.806 90.6664 182.199 90.7391 182.558 90.8844C182.926 91.0211 183.242 91.2305 183.507 91.5126C183.772 91.7861 183.977 92.1323 184.122 92.5511C184.276 92.9614 184.353 93.4443 184.353 93.9999ZM186.099 90.8459H187.574V91.8716H187.6C187.77 91.5126 188.01 91.222 188.317 90.9997C188.625 90.7775 188.984 90.6664 189.394 90.6664C189.454 90.6664 189.518 90.6707 189.587 90.6792C189.655 90.6792 189.715 90.6878 189.766 90.7049V92.1152C189.664 92.0895 189.574 92.0724 189.497 92.0639C189.429 92.0553 189.36 92.0511 189.292 92.0511C188.941 92.0511 188.659 92.1152 188.446 92.2434C188.232 92.3716 188.065 92.5255 187.946 92.7049C187.826 92.8844 187.745 93.0682 187.702 93.2563C187.659 93.4443 187.638 93.5939 187.638 93.705V97H186.099V90.8459Z" fill="#012E3A"/>
<path d="M339.286 88.1336H345.145V89.5439H340.901V92.0312H344.902V93.3903H340.901V97.2109H339.286V88.1336ZM346.615 91.0568H348.154V97.2109H346.615V91.0568ZM346.397 88.967C346.397 88.7191 346.487 88.5054 346.667 88.3259C346.855 88.1379 347.09 88.0439 347.372 88.0439C347.654 88.0439 347.889 88.1336 348.077 88.3131C348.273 88.4841 348.372 88.702 348.372 88.967C348.372 89.232 348.273 89.4542 348.077 89.6337C347.889 89.8046 347.654 89.8901 347.372 89.8901C347.09 89.8901 346.855 89.8004 346.667 89.6209C346.487 89.4328 346.397 89.2149 346.397 88.967ZM351.841 93.9416L349.623 91.0568H351.469L352.802 92.9672L354.174 91.0568H355.944L353.738 93.9416L356.251 97.2109H354.379L352.777 94.9673L351.161 97.2109H349.341L351.841 93.9416ZM361.628 93.5185C361.628 93.3219 361.598 93.1338 361.538 92.9543C361.487 92.7749 361.401 92.6167 361.282 92.48C361.162 92.3432 361.008 92.2364 360.82 92.1594C360.641 92.074 360.427 92.0312 360.179 92.0312C359.717 92.0312 359.324 92.1723 358.999 92.4543C358.683 92.7278 358.508 93.0826 358.474 93.5185H361.628ZM363.166 94.2108C363.166 94.2792 363.166 94.3476 363.166 94.4159C363.166 94.4843 363.162 94.5527 363.153 94.6211H358.474C358.491 94.8433 358.546 95.0485 358.64 95.2365C358.743 95.416 358.875 95.5741 359.038 95.7109C359.2 95.8391 359.384 95.9417 359.589 96.0186C359.794 96.0955 360.008 96.134 360.23 96.134C360.615 96.134 360.94 96.0656 361.205 95.9288C361.47 95.7835 361.688 95.5869 361.859 95.3391L362.884 96.1596C362.277 96.9802 361.397 97.3904 360.243 97.3904C359.764 97.3904 359.324 97.3178 358.922 97.1725C358.521 97.0186 358.17 96.8049 357.871 96.5314C357.581 96.2579 357.35 95.9246 357.179 95.5314C357.016 95.1297 356.935 94.6766 356.935 94.1723C356.935 93.6766 357.016 93.2279 357.179 92.8261C357.35 92.4159 357.581 92.0697 357.871 91.7876C358.162 91.497 358.504 91.2748 358.897 91.1209C359.299 90.9585 359.73 90.8773 360.192 90.8773C360.619 90.8773 361.012 90.95 361.371 91.0953C361.739 91.2321 362.055 91.4415 362.32 91.7235C362.585 91.997 362.79 92.3432 362.935 92.762C363.089 93.1723 363.166 93.6552 363.166 94.2108ZM371.169 97.2109H369.708V96.2878H369.682C369.468 96.6468 369.169 96.9203 368.785 97.1084C368.409 97.2964 368.003 97.3904 367.567 97.3904C367.097 97.3904 366.673 97.305 366.297 97.134C365.93 96.9545 365.614 96.7195 365.349 96.4289C365.092 96.1297 364.891 95.7835 364.746 95.3903C364.609 94.9886 364.541 94.5613 364.541 94.1082C364.541 93.6552 364.614 93.2321 364.759 92.839C364.904 92.4458 365.109 92.1039 365.374 91.8133C365.639 91.5227 365.956 91.2962 366.323 91.1338C366.691 90.9628 367.092 90.8773 367.528 90.8773C367.81 90.8773 368.062 90.9115 368.285 90.9799C368.507 91.0397 368.699 91.1167 368.862 91.2107C369.033 91.3047 369.178 91.4073 369.298 91.5184C369.417 91.6295 369.515 91.7363 369.592 91.8389H369.631V87.5182H371.169V97.2109ZM366.105 94.1082C366.105 94.3476 366.139 94.5869 366.208 94.8262C366.285 95.0655 366.396 95.2792 366.541 95.4673C366.686 95.6553 366.87 95.8092 367.092 95.9288C367.315 96.0485 367.575 96.1083 367.874 96.1083C368.156 96.1083 368.409 96.0528 368.631 95.9417C368.853 95.822 369.041 95.6681 369.195 95.4801C369.357 95.2921 369.477 95.0826 369.554 94.8519C369.639 94.6125 369.682 94.3732 369.682 94.1339C369.682 93.8946 369.639 93.6552 369.554 93.4159C369.477 93.1766 369.357 92.9629 369.195 92.7749C369.041 92.5868 368.853 92.433 368.631 92.3133C368.409 92.1936 368.156 92.1338 367.874 92.1338C367.575 92.1338 367.315 92.1936 367.092 92.3133C366.87 92.4244 366.686 92.574 366.541 92.762C366.396 92.9501 366.285 93.1638 366.208 93.4031C366.139 93.6339 366.105 93.8689 366.105 94.1082ZM376.834 88.1336H379.988C380.415 88.1336 380.829 88.1806 381.231 88.2747C381.633 88.3601 381.988 88.5054 382.295 88.7106C382.612 88.9157 382.864 89.185 383.052 89.5183C383.24 89.8517 383.334 90.2577 383.334 90.7363C383.334 91.3945 383.146 91.9329 382.77 92.3518C382.402 92.762 381.898 93.0398 381.257 93.1851L383.68 97.2109H381.731L379.629 93.3646H378.449V97.2109H376.834V88.1336ZM379.77 92.0441C380 92.0441 380.231 92.027 380.462 91.9928C380.693 91.9586 380.898 91.8945 381.077 91.8005C381.265 91.7064 381.419 91.5739 381.539 91.403C381.659 91.2235 381.718 90.997 381.718 90.7235C381.718 90.4756 381.663 90.2747 381.552 90.1209C381.441 89.9585 381.3 89.8303 381.129 89.7363C380.958 89.6422 380.761 89.5781 380.539 89.5439C380.325 89.5098 380.116 89.4927 379.911 89.4927H378.449V92.0441H379.77ZM388.747 96.4289H388.708C388.554 96.7024 388.307 96.9289 387.965 97.1084C387.623 97.2793 387.234 97.3648 386.798 97.3648C386.55 97.3648 386.289 97.3306 386.016 97.2622C385.751 97.2024 385.503 97.0998 385.272 96.9545C385.05 96.8007 384.862 96.6041 384.708 96.3647C384.563 96.1169 384.49 95.8134 384.49 95.4545C384.49 94.9929 384.618 94.6254 384.875 94.3518C385.14 94.0783 385.477 93.8689 385.888 93.7236C386.298 93.5783 386.751 93.4843 387.247 93.4415C387.751 93.3903 388.242 93.3646 388.721 93.3646V93.2108C388.721 92.8261 388.58 92.5441 388.298 92.3646C388.025 92.1765 387.695 92.0825 387.311 92.0825C386.986 92.0825 386.674 92.1509 386.375 92.2877C386.076 92.4244 385.828 92.5911 385.631 92.7877L384.836 91.8517C385.187 91.5269 385.589 91.2833 386.042 91.1209C386.503 90.9585 386.969 90.8773 387.439 90.8773C387.986 90.8773 388.435 90.9543 388.785 91.1081C389.144 91.262 389.426 91.4628 389.631 91.7107C389.837 91.9586 389.978 92.2364 390.055 92.5441C390.14 92.8518 390.183 93.1595 390.183 93.4672V97.2109H388.747V96.4289ZM388.721 94.4031H388.375C388.127 94.4031 387.866 94.4159 387.593 94.4416C387.319 94.4587 387.067 94.5057 386.836 94.5826C386.606 94.651 386.413 94.7536 386.259 94.8903C386.106 95.0185 386.029 95.198 386.029 95.4288C386.029 95.5741 386.059 95.6981 386.118 95.8006C386.187 95.8946 386.272 95.9716 386.375 96.0314C386.477 96.0912 386.593 96.134 386.721 96.1596C386.849 96.1853 386.977 96.1981 387.106 96.1981C387.636 96.1981 388.037 96.057 388.311 95.775C388.584 95.4929 388.721 95.1083 388.721 94.6211V94.4031ZM391.222 92.2877V91.0568H392.299V89.2747H393.812V91.0568H395.35V92.2877H393.812V95.1467C393.812 95.4203 393.859 95.6468 393.953 95.8263C394.055 96.0058 394.277 96.0955 394.619 96.0955C394.722 96.0955 394.833 96.087 394.953 96.0699C395.072 96.0442 395.179 96.01 395.273 95.9673L395.324 97.1725C395.188 97.2238 395.025 97.2622 394.837 97.2879C394.649 97.3221 394.47 97.3391 394.299 97.3391C393.889 97.3391 393.555 97.2836 393.299 97.1725C393.042 97.0528 392.837 96.8947 392.683 96.6981C392.538 96.493 392.435 96.2622 392.376 96.0058C392.324 95.7408 392.299 95.4587 392.299 95.1596V92.2877H391.222ZM401.053 93.5185C401.053 93.3219 401.024 93.1338 400.964 92.9543C400.912 92.7749 400.827 92.6167 400.707 92.48C400.588 92.3432 400.434 92.2364 400.246 92.1594C400.066 92.074 399.853 92.0312 399.605 92.0312C399.143 92.0312 398.75 92.1723 398.425 92.4543C398.109 92.7278 397.934 93.0826 397.899 93.5185H401.053ZM402.592 94.2108C402.592 94.2792 402.592 94.3476 402.592 94.4159C402.592 94.4843 402.588 94.5527 402.579 94.6211H397.899C397.917 94.8433 397.972 95.0485 398.066 95.2365C398.169 95.416 398.301 95.5741 398.464 95.7109C398.626 95.8391 398.81 95.9417 399.015 96.0186C399.22 96.0955 399.434 96.134 399.656 96.134C400.041 96.134 400.365 96.0656 400.63 95.9288C400.895 95.7835 401.113 95.5869 401.284 95.3391L402.31 96.1596C401.703 96.9802 400.823 97.3904 399.669 97.3904C399.19 97.3904 398.75 97.3178 398.348 97.1725C397.947 97.0186 397.596 96.8049 397.297 96.5314C397.006 96.2579 396.776 95.9246 396.605 95.5314C396.442 95.1297 396.361 94.6766 396.361 94.1723C396.361 93.6766 396.442 93.2279 396.605 92.8261C396.776 92.4159 397.006 92.0697 397.297 91.7876C397.588 91.497 397.929 91.2748 398.323 91.1209C398.724 90.9585 399.156 90.8773 399.618 90.8773C400.045 90.8773 400.438 90.95 400.797 91.0953C401.165 91.2321 401.481 91.4415 401.746 91.7235C402.011 91.997 402.216 92.3432 402.361 92.762C402.515 93.1723 402.592 93.6552 402.592 94.2108ZM407.877 88.1336H410.839C411.36 88.1336 411.83 88.1806 412.249 88.2747C412.668 88.3687 413.027 88.5225 413.326 88.7362C413.625 88.9499 413.856 89.2234 414.018 89.5568C414.181 89.8901 414.262 90.2918 414.262 90.7619C414.262 91.2662 414.168 91.6893 413.98 92.0312C413.792 92.3731 413.535 92.6509 413.211 92.8646C412.894 93.0697 412.523 93.2193 412.095 93.3133C411.668 93.4074 411.215 93.4544 410.736 93.4544H409.493V97.2109H407.877V88.1336ZM410.621 92.0953C410.886 92.0953 411.138 92.0782 411.377 92.0441C411.617 92.0013 411.83 91.9329 412.018 91.8389C412.206 91.7363 412.356 91.5996 412.467 91.4286C412.578 91.2577 412.634 91.0355 412.634 90.7619C412.634 90.497 412.578 90.2833 412.467 90.1209C412.356 89.9499 412.206 89.8175 412.018 89.7234C411.839 89.6294 411.629 89.5696 411.39 89.5439C411.159 89.5098 410.92 89.4927 410.672 89.4927H409.493V92.0953H410.621ZM414.684 94.1082C414.684 93.621 414.77 93.1809 414.94 92.7877C415.12 92.3859 415.359 92.0441 415.658 91.762C415.958 91.4799 416.312 91.262 416.723 91.1081C417.133 90.9543 417.569 90.8773 418.03 90.8773C418.492 90.8773 418.928 90.9543 419.338 91.1081C419.748 91.262 420.103 91.4799 420.402 91.762C420.701 92.0441 420.936 92.3859 421.107 92.7877C421.287 93.1809 421.377 93.621 421.377 94.1082C421.377 94.5954 421.287 95.0399 421.107 95.4416C420.936 95.8434 420.701 96.1895 420.402 96.4801C420.103 96.7622 419.748 96.9844 419.338 97.1468C418.928 97.3092 418.492 97.3904 418.03 97.3904C417.569 97.3904 417.133 97.3092 416.723 97.1468C416.312 96.9844 415.958 96.7622 415.658 96.4801C415.359 96.1895 415.12 95.8434 414.94 95.4416C414.77 95.0399 414.684 94.5954 414.684 94.1082ZM416.248 94.1082C416.248 94.3476 416.282 94.5869 416.351 94.8262C416.428 95.0655 416.539 95.2792 416.684 95.4673C416.829 95.6553 417.013 95.8092 417.235 95.9288C417.458 96.0485 417.723 96.1083 418.03 96.1083C418.338 96.1083 418.603 96.0485 418.825 95.9288C419.047 95.8092 419.231 95.6553 419.377 95.4673C419.522 95.2792 419.629 95.0655 419.697 94.8262C419.774 94.5869 419.812 94.3476 419.812 94.1082C419.812 93.8689 419.774 93.6339 419.697 93.4031C419.629 93.1638 419.522 92.9501 419.377 92.762C419.231 92.574 419.047 92.4244 418.825 92.3133C418.603 92.1936 418.338 92.1338 418.03 92.1338C417.723 92.1338 417.458 92.1936 417.235 92.3133C417.013 92.4244 416.829 92.574 416.684 92.762C416.539 92.9501 416.428 93.1638 416.351 93.4031C416.282 93.6339 416.248 93.8689 416.248 94.1082ZM422.766 94.1082C422.766 93.621 422.851 93.1809 423.022 92.7877C423.202 92.3859 423.441 92.0441 423.74 91.762C424.039 91.4799 424.394 91.262 424.804 91.1081C425.215 90.9543 425.651 90.8773 426.112 90.8773C426.574 90.8773 427.01 90.9543 427.42 91.1081C427.83 91.262 428.185 91.4799 428.484 91.762C428.783 92.0441 429.018 92.3859 429.189 92.7877C429.369 93.1809 429.458 93.621 429.458 94.1082C429.458 94.5954 429.369 95.0399 429.189 95.4416C429.018 95.8434 428.783 96.1895 428.484 96.4801C428.185 96.7622 427.83 96.9844 427.42 97.1468C427.01 97.3092 426.574 97.3904 426.112 97.3904C425.651 97.3904 425.215 97.3092 424.804 97.1468C424.394 96.9844 424.039 96.7622 423.74 96.4801C423.441 96.1895 423.202 95.8434 423.022 95.4416C422.851 95.0399 422.766 94.5954 422.766 94.1082ZM424.33 94.1082C424.33 94.3476 424.364 94.5869 424.433 94.8262C424.509 95.0655 424.621 95.2792 424.766 95.4673C424.911 95.6553 425.095 95.8092 425.317 95.9288C425.539 96.0485 425.804 96.1083 426.112 96.1083C426.42 96.1083 426.685 96.0485 426.907 95.9288C427.129 95.8092 427.313 95.6553 427.458 95.4673C427.604 95.2792 427.71 95.0655 427.779 94.8262C427.856 94.5869 427.894 94.3476 427.894 94.1082C427.894 93.8689 427.856 93.6339 427.779 93.4031C427.71 93.1638 427.604 92.9501 427.458 92.762C427.313 92.574 427.129 92.4244 426.907 92.3133C426.685 92.1936 426.42 92.1338 426.112 92.1338C425.804 92.1338 425.539 92.1936 425.317 92.3133C425.095 92.4244 424.911 92.574 424.766 92.762C424.621 92.9501 424.509 93.1638 424.433 93.4031C424.364 93.6339 424.33 93.8689 424.33 94.1082ZM431.232 87.5182H432.771V97.2109H431.232V87.5182Z" fill="#012E3A"/>
<path d="M370.757 15.2899L385.984 10.8187L401.212 15.2899L411.605 27.2839L413.863 42.9928L407.271 57.429L393.92 66.0092H378.049L364.698 57.429L358.105 42.9928L360.364 27.2839L370.757 15.2899Z" fill="url(#paint5_linear_10291_103211)" fill-opacity="0.5" stroke="url(#paint6_linear_10291_103211)" stroke-width="1.57103"/>
<path d="M249.402 15.2841C249.402 18.9932 246.396 21.9999 242.686 21.9999C238.977 21.9999 235.971 18.9932 235.971 15.2841C235.971 11.5751 238.977 8.56836 242.686 8.56836C246.396 8.56836 249.402 11.5751 249.402 15.2841Z" fill="white"/>
<path d="M242.686 22.6097C238.639 22.6097 235.359 19.3298 235.359 15.2833C235.359 11.2369 238.639 7.95703 242.686 7.95703C246.732 7.95703 250.012 11.2369 250.012 15.2833C250.012 19.3298 246.732 22.6097 242.686 22.6097ZM242.571 20.5491C243.998 20.5491 245.367 19.9823 246.376 18.9733C247.385 17.9643 247.951 16.5958 247.951 15.1689C247.951 12.1971 245.543 9.78861 242.571 9.78861C239.599 9.78861 237.191 12.1971 237.191 15.1689C237.191 18.1406 239.599 20.5491 242.571 20.5491ZM242.251 13.1725V12.8336C242.251 12.748 242.285 12.6659 242.345 12.6053C242.406 12.5448 242.488 12.5108 242.574 12.5108C242.659 12.5108 242.741 12.5448 242.802 12.6053C242.862 12.6659 242.896 12.748 242.896 12.8336V13.1496C243.151 13.168 243.394 13.2664 243.59 13.4309C243.785 13.5953 243.924 13.8174 243.986 14.0653C243.997 14.1145 243.988 14.166 243.962 14.2088C243.935 14.2516 243.893 14.2823 243.844 14.2943H243.629C243.56 14.2939 243.492 14.274 243.434 14.2367C243.375 14.1994 243.329 14.1463 243.299 14.0837C243.227 13.9582 243.119 13.8563 242.99 13.7905C242.861 13.7247 242.715 13.6977 242.571 13.7128C242.113 13.7128 241.839 13.9967 241.839 14.2531C241.839 14.5095 242.054 14.6606 242.512 14.7751L242.97 14.8758C243.762 15.0452 244.096 15.3795 244.096 15.961C244.091 16.2737 243.965 16.5721 243.743 16.7927C243.522 17.0134 243.223 17.1389 242.91 17.1424V17.5316C242.91 17.6172 242.876 17.6993 242.816 17.7599C242.755 17.8204 242.673 17.8544 242.587 17.8544C242.502 17.8544 242.42 17.8204 242.359 17.7599C242.298 17.6993 242.264 17.6172 242.264 17.5316V17.147C241.988 17.1428 241.721 17.047 241.504 16.8747C241.288 16.7023 241.135 16.4631 241.069 16.1946C241.065 16.1738 241.066 16.1525 241.07 16.1318C241.074 16.1111 241.082 16.0915 241.094 16.074C241.106 16.0566 241.122 16.0417 241.139 16.0301C241.157 16.0186 241.177 16.0107 241.198 16.0068H241.468C241.526 16.0073 241.584 16.0243 241.633 16.0558C241.683 16.0874 241.722 16.1323 241.747 16.1854C241.831 16.3252 241.953 16.4384 242.099 16.5121C242.245 16.5858 242.409 16.617 242.571 16.6021C243.029 16.6021 243.382 16.3273 243.382 16.048C243.382 15.7687 243.18 15.6039 242.69 15.4894L242.187 15.3703C241.468 15.2192 241.129 14.8575 241.129 14.3035C241.141 14.009 241.263 13.7297 241.47 13.5204C241.678 13.3112 241.956 13.1871 242.251 13.1725ZM238.537 15.1689C238.538 14.3229 238.805 13.4986 239.3 12.8131C239.796 12.1276 240.495 11.6157 241.298 11.35C241.327 11.3397 241.359 11.3366 241.389 11.3409C241.42 11.3452 241.449 11.3569 241.474 11.3749C241.499 11.3928 241.52 11.4166 241.534 11.4442C241.548 11.4717 241.555 11.5023 241.555 11.5332V11.6385C241.555 11.7231 241.529 11.8057 241.482 11.8759C241.435 11.946 241.367 12.0005 241.289 12.0323C240.666 12.2837 240.133 12.7156 239.757 13.2724C239.381 13.8293 239.18 14.4857 239.18 15.1574C239.18 15.8292 239.381 16.4856 239.757 17.0424C240.133 17.5993 240.666 18.0311 241.289 18.2826C241.368 18.3152 241.435 18.3705 241.482 18.4414C241.53 18.5123 241.555 18.5957 241.555 18.6809V18.7771C241.555 18.8317 241.533 18.8841 241.494 18.9228C241.456 18.9614 241.403 18.9831 241.349 18.9831H241.285C240.485 18.7154 239.789 18.2032 239.296 17.5188C238.803 16.8343 238.538 16.0123 238.537 15.1689ZM246.605 15.1689C246.606 16.0126 246.342 16.8352 245.849 17.5204C245.357 18.2057 244.662 18.719 243.862 18.9877C243.83 18.9986 243.796 19.0016 243.762 18.9967C243.729 18.9917 243.697 18.9789 243.669 18.9593C243.642 18.9396 243.619 18.9137 243.603 18.8836C243.587 18.8536 243.579 18.8202 243.579 18.7862V18.7084C243.581 18.6214 243.608 18.5368 243.657 18.4647C243.705 18.3925 243.774 18.3357 243.853 18.3009C244.475 18.0487 245.007 17.6168 245.382 17.0605C245.756 16.5042 245.956 15.8487 245.956 15.178C245.956 14.5073 245.756 13.8519 245.382 13.2956C245.007 12.7392 244.475 12.3074 243.853 12.0552C243.772 12.0208 243.702 11.9635 243.653 11.8904C243.603 11.8173 243.576 11.7314 243.574 11.6431V11.5744C243.574 11.4553 243.67 11.3592 243.789 11.3592H243.858C244.657 11.6267 245.352 12.1382 245.845 12.8217C246.338 13.5052 246.604 14.3262 246.605 15.1689Z" fill="#3366FF"/>
<path d="M246.012 63.8224C246.012 67.8686 242.732 71.1487 238.686 71.1487C234.639 71.1487 231.359 67.8686 231.359 63.8224C231.359 59.7762 234.639 56.4961 238.686 56.4961C242.732 56.4961 246.012 59.7762 246.012 63.8224Z" fill="url(#paint7_linear_10291_103211)"/>
<path d="M245.502 63.7861C245.502 67.5706 242.434 70.6385 238.649 70.6385C234.865 70.6385 231.797 67.5706 231.797 63.7861C231.797 60.0016 234.865 56.9336 238.649 56.9336C242.434 56.9336 245.502 60.0016 245.502 63.7861Z" fill="url(#paint8_linear_10291_103211)"/>
<g style="mix-blend-mode:lighten" opacity="0.7">
<path d="M238.65 56.5371C240.092 56.5371 241.502 56.9647 242.7 57.7657C243.899 58.5667 244.834 59.7052 245.385 61.0373C245.937 62.3693 246.081 63.8351 245.8 65.2492C245.519 66.6633 244.825 67.9622 243.805 68.9817L238.65 63.827V56.5371Z" fill="url(#paint9_radial_10291_103211)"/>
</g>
<path d="M238.299 61.4361V61.031C238.299 60.9286 238.34 60.8305 238.413 60.7581C238.487 60.6857 238.586 60.6451 238.69 60.6451C238.793 60.6451 238.893 60.6857 238.966 60.7581C239.039 60.8305 239.081 60.9286 239.081 61.031V61.4087C239.389 61.4307 239.683 61.5484 239.92 61.745C240.157 61.9417 240.325 62.2071 240.4 62.5036C240.413 62.5624 240.403 62.624 240.371 62.6751C240.339 62.7263 240.287 62.763 240.228 62.7773H239.968C239.884 62.7769 239.802 62.753 239.731 62.7084C239.66 62.6639 239.604 62.6004 239.568 62.5255C239.481 62.3755 239.351 62.2537 239.194 62.175C239.038 62.0964 238.862 62.0641 238.687 62.0821C238.133 62.0821 237.8 62.4215 237.8 62.7281C237.8 63.0346 238.06 63.2153 238.615 63.3521L239.169 63.4726C240.128 63.6751 240.533 64.0748 240.533 64.77C240.527 65.1438 240.374 65.5005 240.106 65.7644C239.838 66.0282 239.476 66.1782 239.097 66.1824V66.6477C239.097 66.7501 239.056 66.8482 238.983 66.9206C238.909 66.993 238.81 67.0337 238.706 67.0337C238.603 67.0337 238.503 66.993 238.43 66.9206C238.357 66.8482 238.316 66.7501 238.316 66.6477V66.1879C237.981 66.1828 237.657 66.0683 237.395 65.8623C237.133 65.6563 236.948 65.3703 236.869 65.0492C236.864 65.0244 236.864 64.9989 236.869 64.9742C236.874 64.9494 236.884 64.9259 236.899 64.9051C236.913 64.8842 236.932 64.8664 236.953 64.8526C236.975 64.8388 236.999 64.8293 237.024 64.8247H237.351C237.422 64.8253 237.491 64.8456 237.551 64.8834C237.611 64.9211 237.659 64.9748 237.689 65.0382C237.791 65.2054 237.939 65.3408 238.116 65.4289C238.292 65.517 238.49 65.5542 238.687 65.5364C239.241 65.5364 239.668 65.208 239.668 64.874C239.668 64.5401 239.424 64.343 238.831 64.2061L238.221 64.0638C237.351 63.8832 236.941 63.4507 236.941 62.7883C236.955 62.4362 237.103 62.1023 237.354 61.8521C237.606 61.6019 237.942 61.4536 238.299 61.4361ZM233.803 63.8229C233.803 62.8116 234.127 61.8261 234.727 61.0065C235.327 60.1869 236.173 59.5749 237.146 59.2573C237.181 59.245 237.219 59.2412 237.256 59.2464C237.293 59.2516 237.328 59.2655 237.359 59.287C237.389 59.3085 237.414 59.3369 237.431 59.3698C237.448 59.4028 237.457 59.4393 237.456 59.4763V59.6022C237.456 59.7033 237.425 59.8021 237.368 59.886C237.311 59.9698 237.23 60.0349 237.135 60.073C236.38 60.3736 235.734 60.8899 235.28 61.5556C234.825 62.2213 234.582 63.0061 234.582 63.8092C234.582 64.6124 234.825 65.3971 235.28 66.0629C235.734 66.7286 236.38 67.2449 237.135 67.5455C237.23 67.5845 237.311 67.6506 237.369 67.7354C237.426 67.8202 237.456 67.9199 237.456 68.0218V68.1368C237.456 68.2021 237.43 68.2647 237.383 68.3109C237.336 68.3571 237.273 68.3831 237.207 68.3831H237.129C236.161 68.063 235.319 67.4506 234.722 66.6323C234.125 65.8141 233.803 64.8314 233.803 63.8229ZM243.571 63.8229C243.572 64.8316 243.252 65.8151 242.656 66.6343C242.06 67.4536 241.219 68.0673 240.25 68.3886C240.211 68.4015 240.17 68.4052 240.129 68.3993C240.089 68.3934 240.05 68.3781 240.016 68.3546C239.983 68.3311 239.955 68.3001 239.936 68.2641C239.917 68.2282 239.907 68.1883 239.907 68.1477V68.0546C239.909 67.9506 239.942 67.8495 240.001 67.7632C240.06 67.6769 240.143 67.609 240.239 67.5674C240.992 67.2659 241.636 66.7496 242.09 66.0845C242.543 65.4194 242.785 64.6358 242.785 63.8339C242.785 63.032 242.543 62.2484 242.09 61.5833C241.636 60.9182 240.992 60.4018 240.239 60.1003C240.141 60.0592 240.056 59.9908 239.996 59.9034C239.936 59.8159 239.903 59.7132 239.901 59.6077V59.5255C239.901 59.3832 240.017 59.2682 240.162 59.2682H240.245C241.212 59.588 242.054 60.1996 242.651 61.0168C243.247 61.8339 243.569 62.8154 243.571 63.8229Z" fill="white"/>
</g>
<defs>
<linearGradient id="paint0_linear_10291_103211" x1="190.956" y1="38.8873" x2="93.312" y2="38.8873" gradientUnits="userSpaceOnUse">
<stop stop-color="#053542"/>
<stop offset="1" stop-color="#06657E"/>
</linearGradient>
<linearGradient id="paint1_linear_10291_103211" x1="190.956" y1="34.3692" x2="93.312" y2="34.3692" gradientUnits="userSpaceOnUse">
<stop stop-color="#053542"/>
<stop offset="1" stop-color="#06657E"/>
</linearGradient>
<linearGradient id="paint2_linear_10291_103211" x1="190.956" y1="34.3692" x2="93.312" y2="34.3692" gradientUnits="userSpaceOnUse">
<stop stop-color="#053542"/>
<stop offset="1" stop-color="#06657E"/>
</linearGradient>
<linearGradient id="paint3_linear_10291_103211" x1="336.732" y1="30.2456" x2="235.159" y2="30.2494" gradientUnits="userSpaceOnUse">
<stop offset="0.239095" stop-color="#053542"/>
<stop offset="1" stop-color="#09809F"/>
</linearGradient>
<linearGradient id="paint4_linear_10291_103211" x1="185.758" y1="48.6676" x2="286.495" y2="48.6676" gradientUnits="userSpaceOnUse">
<stop offset="0.129846" stop-color="#27C1C7"/>
<stop offset="1" stop-color="#62BAE0"/>
</linearGradient>
<linearGradient id="paint5_linear_10291_103211" x1="452.598" y1="70.3048" x2="451.485" y2="10.4344" gradientUnits="userSpaceOnUse">
<stop stop-color="#BFC9F5" stop-opacity="0.5"/>
<stop offset="0.0001" stop-color="#8EA1F5" stop-opacity="0.5"/>
<stop offset="1" stop-color="#26CBCF"/>
</linearGradient>
<linearGradient id="paint6_linear_10291_103211" x1="452.598" y1="70.3048" x2="451.485" y2="10.4344" gradientUnits="userSpaceOnUse">
<stop stop-color="#BFC9F5" stop-opacity="0.5"/>
<stop offset="0.0001" stop-color="#8EA1F5" stop-opacity="0.5"/>
<stop offset="1" stop-color="#26CBCF"/>
</linearGradient>
<linearGradient id="paint7_linear_10291_103211" x1="238.686" y1="56.4961" x2="238.686" y2="71.1487" gradientUnits="userSpaceOnUse">
<stop stop-color="#2BCAD0"/>
<stop offset="1" stop-color="#8BC1E5"/>
</linearGradient>
<linearGradient id="paint8_linear_10291_103211" x1="251.74" y1="63.8457" x2="228.545" y2="63.8457" gradientUnits="userSpaceOnUse">
<stop offset="0.239095" stop-color="#053542"/>
<stop offset="1" stop-color="#06657E"/>
</linearGradient>
<radialGradient id="paint9_radial_10291_103211" cx="0" cy="0" r="1" gradientUnits="userSpaceOnUse" gradientTransform="translate(238.65 63.827) rotate(-45) scale(7.28987)">
<stop stop-color="#33F8FF"/>
<stop offset="1" stop-color="#065368"/>
</radialGradient>
<clipPath id="clip0_10291_103211">
<rect width="522" height="102" fill="white"/>
</clipPath>
</defs>
</svg>