<svg xmlns="http://www.w3.org/2000/svg" fill="none" viewBox="0 0 40 40">
<g clip-path="url(#clip0_6212_25632)">
<g filter="url(#filter0_i_6212_25632)">
<circle cx="20.0751" cy="20.0282" r="19.8055" fill="#F8FAFA"/>
</g>
<g filter="url(#filter1_i_6212_25632)">
<circle cx="20.0751" cy="20.0282" r="19.8055" fill="url(#paint0_radial_6212_25632)"/>
</g>
<path opacity="0.1" fill-rule="evenodd" clip-rule="evenodd" d="M20.0282 35.7561C28.7145 35.7561 35.7561 28.7145 35.7561 20.0282C35.7561 11.3419 28.7145 4.30026 20.0282 4.30026C11.3419 4.30026 4.30026 11.3419 4.30026 20.0282C4.30026 28.7145 11.3419 35.7561 20.0282 35.7561ZM20.0282 39.8337C30.9665 39.8337 39.8337 30.9665 39.8337 20.0282C39.8337 9.08989 30.9665 0.222656 20.0282 0.222656C9.08989 0.222656 0.222656 9.08989 0.222656 20.0282C0.222656 30.9665 9.08989 39.8337 20.0282 39.8337Z" fill="#2DE1E8"/>
<path fill-rule="evenodd" clip-rule="evenodd" d="M29.0379 11.1748H27.4141V27.2471L29.0379 28.8679V11.1748Z" fill="#1F9B99"/>
<path fill-rule="evenodd" clip-rule="evenodd" d="M25.7879 11.1748H24.1641V24.005L25.7879 25.6258V11.1748Z" fill="#1F9B99"/>
<path fill-rule="evenodd" clip-rule="evenodd" d="M22.5398 11.1748H20.916V20.7636L22.5398 22.3844V11.1748Z" fill="#1F9B99"/>
<path fill-rule="evenodd" clip-rule="evenodd" d="M17.6719 17.5918V28.8687H19.2957V19.2126L17.6719 17.5918Z" fill="#2DE1E8"/>
<path fill-rule="evenodd" clip-rule="evenodd" d="M14.4219 14.3496V28.869H16.0457V15.9704L14.4219 14.3496Z" fill="#2DE1E8"/>
<path fill-rule="evenodd" clip-rule="evenodd" d="M11.24 11.1748H11.1738V28.8686H12.7977V12.7295L11.24 11.1748Z" fill="#2DE1E8"/>
<g opacity="0.47">
<mask id="path-10-inside-1_6212_25632" fill="white">
<path fill-rule="evenodd" clip-rule="evenodd" d="M39.8337 20.0285C39.8337 9.09017 30.9665 0.222931 20.0282 0.222931C9.08989 0.222931 0.222656 9.09017 0.222656 20.0285C0.222656 30.9667 9.08989 39.834 20.0282 39.834C30.9665 39.834 39.8337 30.9667 39.8337 20.0285ZM0.464314 20.0283L5.38774 13.964L6.19448 6.1945L13.964 5.38776L20.0283 0.464333L26.0926 5.38776L33.8621 6.1945L34.6689 13.964L39.5923 20.0283L34.6689 26.0927L33.8621 33.8622L26.0926 34.6689L20.0283 39.5923L13.964 34.6689L6.19448 33.8622L5.38774 26.0927L0.464314 20.0283Z"/>
</mask>
<path fill-rule="evenodd" clip-rule="evenodd" d="M39.8337 20.0285C39.8337 9.09017 30.9665 0.222931 20.0282 0.222931C9.08989 0.222931 0.222656 9.09017 0.222656 20.0285C0.222656 30.9667 9.08989 39.834 20.0282 39.834C30.9665 39.834 39.8337 30.9667 39.8337 20.0285ZM0.464314 20.0283L5.38774 13.964L6.19448 6.1945L13.964 5.38776L20.0283 0.464333L26.0926 5.38776L33.8621 6.1945L34.6689 13.964L39.5923 20.0283L34.6689 26.0927L33.8621 33.8622L26.0926 34.6689L20.0283 39.5923L13.964 34.6689L6.19448 33.8622L5.38774 26.0927L0.464314 20.0283Z" fill="url(#paint1_linear_6212_25632)" fill-opacity="0.5"/>
<path d="M5.38774 13.964L5.49628 14.0521L5.5225 14.0198L5.5268 13.9784L5.38774 13.964ZM0.464314 20.0283L0.355777 19.9402L0.284237 20.0283L0.355777 20.1164L0.464314 20.0283ZM6.19448 6.1945L6.18004 6.05544L6.06714 6.06716L6.05542 6.18006L6.19448 6.1945ZM13.964 5.38776L13.9784 5.52681L14.0198 5.52252L14.0521 5.4963L13.964 5.38776ZM20.0283 0.464333L20.1164 0.355793L20.0283 0.284256L19.9402 0.355793L20.0283 0.464333ZM26.0926 5.38776L26.0045 5.4963L26.0368 5.52252L26.0782 5.52681L26.0926 5.38776ZM33.8621 6.1945L34.0012 6.18006L33.9895 6.06716L33.8766 6.05544L33.8621 6.1945ZM34.6689 13.964L34.5298 13.9784L34.5341 14.0198L34.5603 14.0521L34.6689 13.964ZM39.5923 20.0283L39.7008 20.1164L39.7724 20.0283L39.7008 19.9402L39.5923 20.0283ZM34.6689 26.0927L34.5603 26.0045L34.5341 26.0368L34.5298 26.0782L34.6689 26.0927ZM33.8621 33.8622L33.8766 34.0012L33.9895 33.9895L34.0012 33.8766L33.8621 33.8622ZM26.0926 34.6689L26.0782 34.5298L26.0368 34.5341L26.0045 34.5604L26.0926 34.6689ZM20.0283 39.5923L19.9402 39.7009L20.0283 39.7724L20.1164 39.7009L20.0283 39.5923ZM13.964 34.6689L14.0521 34.5604L14.0198 34.5341L13.9784 34.5298L13.964 34.6689ZM6.19448 33.8622L6.05542 33.8766L6.06714 33.9895L6.18004 34.0012L6.19448 33.8622ZM5.38774 26.0927L5.5268 26.0782L5.5225 26.0368L5.49628 26.0045L5.38774 26.0927ZM20.0282 0.362732C30.8893 0.362732 39.6939 9.16738 39.6939 20.0285H39.9735C39.9735 9.01295 31.0437 0.0831261 20.0282 0.0831261V0.362732ZM0.36246 20.0285C0.36246 9.16738 9.1671 0.362732 20.0282 0.362732V0.0831261C9.01268 0.0831261 0.0828525 9.01295 0.0828525 20.0285H0.36246ZM20.0282 39.6942C9.1671 39.6942 0.36246 30.8895 0.36246 20.0285H0.0828525C0.0828525 31.044 9.01268 39.9738 20.0282 39.9738V39.6942ZM39.6939 20.0285C39.6939 30.8895 30.8893 39.6942 20.0282 39.6942V39.9738C31.0437 39.9738 39.9735 31.044 39.9735 20.0285H39.6939ZM5.27921 13.8759L0.355777 19.9402L0.572851 20.1164L5.49628 14.0521L5.27921 13.8759ZM6.05542 6.18006L5.24869 13.9496L5.5268 13.9784L6.33353 6.20893L6.05542 6.18006ZM13.9496 5.2487L6.18004 6.05544L6.20891 6.33355L13.9784 5.52681L13.9496 5.2487ZM19.9402 0.355793L13.8759 5.27922L14.0521 5.4963L20.1164 0.572868L19.9402 0.355793ZM26.1807 5.27922L20.1164 0.355793L19.9402 0.572868L26.0045 5.4963L26.1807 5.27922ZM33.8766 6.05544L26.1071 5.2487L26.0782 5.52681L33.8477 6.33355L33.8766 6.05544ZM34.8079 13.9496L34.0012 6.18006L33.7231 6.20893L34.5298 13.9784L34.8079 13.9496ZM39.7008 19.9402L34.7774 13.8759L34.5603 14.0521L39.4838 20.1164L39.7008 19.9402ZM34.7774 26.1808L39.7008 20.1164L39.4838 19.9402L34.5603 26.0045L34.7774 26.1808ZM34.0012 33.8766L34.8079 26.1071L34.5298 26.0782L33.7231 33.8477L34.0012 33.8766ZM26.1071 34.808L33.8766 34.0012L33.8477 33.7231L26.0782 34.5298L26.1071 34.808ZM20.1164 39.7009L26.1807 34.7774L26.0045 34.5604L19.9402 39.4838L20.1164 39.7009ZM13.8759 34.7774L19.9402 39.7009L20.1164 39.4838L14.0521 34.5604L13.8759 34.7774ZM6.18004 34.0012L13.9496 34.808L13.9784 34.5298L6.20891 33.7231L6.18004 34.0012ZM5.24869 26.1071L6.05542 33.8766L6.33353 33.8477L5.5268 26.0782L5.24869 26.1071ZM0.355777 20.1164L5.27921 26.1808L5.49628 26.0045L0.572851 19.9402L0.355777 20.1164Z" fill="white" mask="url(#path-10-inside-1_6212_25632)"/>
</g>
<g opacity="0.4">
<mask id="path-12-inside-2_6212_25632" fill="white">
<path fill-rule="evenodd" clip-rule="evenodd" d="M38.7609 26.4509C42.3092 16.1041 36.7979 4.83995 26.4512 1.29167C16.1044 -2.25662 4.84021 3.25465 1.29193 13.6014C-2.25636 23.9482 3.25491 35.2124 13.6017 38.7607C23.9485 42.309 35.2126 36.7977 38.7609 26.4509ZM1.52078 13.6799L8.14518 9.54068L11.4286 2.45301L19.0397 4.21027L26.3732 1.52029L30.5125 8.14469L37.6001 11.4282L35.8429 19.0392L38.5328 26.3727L31.9085 30.512L28.625 37.5996L21.0139 35.8424L13.6804 38.5324L9.54116 31.908L2.4535 28.6245L4.21075 21.0134L1.52078 13.6799Z"/>
</mask>
<path fill-rule="evenodd" clip-rule="evenodd" d="M38.7609 26.4509C42.3092 16.1041 36.7979 4.83995 26.4512 1.29167C16.1044 -2.25662 4.84021 3.25465 1.29193 13.6014C-2.25636 23.9482 3.25491 35.2124 13.6017 38.7607C23.9485 42.309 35.2126 36.7977 38.7609 26.4509ZM1.52078 13.6799L8.14518 9.54068L11.4286 2.45301L19.0397 4.21027L26.3732 1.52029L30.5125 8.14469L37.6001 11.4282L35.8429 19.0392L38.5328 26.3727L31.9085 30.512L28.625 37.5996L21.0139 35.8424L13.6804 38.5324L9.54116 31.908L2.4535 28.6245L4.21075 21.0134L1.52078 13.6799Z" fill="url(#paint2_linear_6212_25632)" fill-opacity="0.5"/>
<path d="M8.14518 9.54068L8.21926 9.65924L8.25454 9.63719L8.27203 9.59944L8.14518 9.54068ZM1.52078 13.6799L1.4467 13.5614L1.35044 13.6215L1.38953 13.7281L1.52078 13.6799ZM11.4286 2.45301L11.4601 2.31679L11.3495 2.29126L11.3018 2.39424L11.4286 2.45301ZM19.0397 4.21027L19.0083 4.34648L19.0488 4.35584L19.0878 4.34152L19.0397 4.21027ZM26.3732 1.52029L26.4918 1.44621L26.4316 1.34996L26.3251 1.38904L26.3732 1.52029ZM30.5125 8.14469L30.3939 8.21877L30.416 8.25405L30.4537 8.27154L30.5125 8.14469ZM37.6001 11.4282L37.7364 11.4596L37.7619 11.349L37.6589 11.3013L37.6001 11.4282ZM35.8429 19.0392L35.7067 19.0078L35.6973 19.0483L35.7116 19.0874L35.8429 19.0392ZM38.5328 26.3727L38.6069 26.4913L38.7032 26.4311L38.6641 26.3246L38.5328 26.3727ZM31.9085 30.512L31.8344 30.3934L31.7991 30.4155L31.7816 30.4532L31.9085 30.512ZM28.625 37.5996L28.5935 37.7359L28.7041 37.7614L28.7518 37.6584L28.625 37.5996ZM21.0139 35.8424L21.0454 35.7062L21.0048 35.6968L20.9658 35.7111L21.0139 35.8424ZM13.6804 38.5324L13.5619 38.6064L13.622 38.7027L13.7286 38.6636L13.6804 38.5324ZM9.54116 31.908L9.65972 31.8339L9.63768 31.7986L9.59993 31.7811L9.54116 31.908ZM2.4535 28.6245L2.31728 28.593L2.29174 28.7036L2.39473 28.7514L2.4535 28.6245ZM4.21075 21.0134L4.34697 21.0449L4.35633 21.0044L4.342 20.9653L4.21075 21.0134ZM26.4058 1.42391C36.6796 4.94715 42.1519 16.1318 38.6287 26.4056L38.8932 26.4963C42.4665 16.0764 36.9163 4.73276 26.4965 1.15942L26.4058 1.42391ZM1.42417 13.6468C4.94741 3.37304 16.1321 -2.09933 26.4058 1.42391L26.4965 1.15942C16.0767 -2.41391 4.73301 3.13626 1.15968 13.5561L1.42417 13.6468ZM13.647 38.6284C3.3733 35.1052 -2.09907 23.9205 1.42417 13.6468L1.15968 13.5561C-2.41365 23.9759 3.13652 35.3196 13.5563 38.8929L13.647 38.6284ZM38.6287 26.4056C35.1055 36.6793 23.9208 42.1517 13.647 38.6284L13.5563 38.8929C23.9762 42.4663 35.3198 36.9161 38.8932 26.4963L38.6287 26.4056ZM8.07109 9.42211L1.4467 13.5614L1.59486 13.7985L8.21926 9.65924L8.07109 9.42211ZM11.3018 2.39424L8.01832 9.48191L8.27203 9.59944L11.5555 2.51178L11.3018 2.39424ZM19.0712 4.07404L11.4601 2.31679L11.3972 2.58923L19.0083 4.34648L19.0712 4.07404ZM26.3251 1.38904L18.9916 4.07901L19.0878 4.34152L26.4213 1.65155L26.3251 1.38904ZM30.631 8.07061L26.4918 1.44621L26.2546 1.59438L30.3939 8.21877L30.631 8.07061ZM37.6589 11.3013L30.5712 8.01784L30.4537 8.27154L37.5414 11.555L37.6589 11.3013ZM35.9791 19.0707L37.7364 11.4596L37.4639 11.3967L35.7067 19.0078L35.9791 19.0707ZM38.6641 26.3246L35.9741 18.9911L35.7116 19.0874L38.4016 26.4209L38.6641 26.3246ZM31.9825 30.6305L38.6069 26.4913L38.4588 26.2542L31.8344 30.3934L31.9825 30.6305ZM28.7518 37.6584L32.0353 30.5707L31.7816 30.4532L28.4981 37.5409L28.7518 37.6584ZM20.9825 35.9786L28.5935 37.7359L28.6564 37.4634L21.0454 35.7062L20.9825 35.9786ZM13.7286 38.6636L21.0621 35.9736L20.9658 35.7111L13.6323 38.4011L13.7286 38.6636ZM9.4226 31.9821L13.5619 38.6064L13.799 38.4583L9.65972 31.8339L9.4226 31.9821ZM2.39473 28.7514L9.4824 32.0348L9.59993 31.7811L2.51226 28.4976L2.39473 28.7514ZM4.07453 20.982L2.31728 28.593L2.58972 28.6559L4.34697 21.0449L4.07453 20.982ZM1.38953 13.7281L4.0795 21.0616L4.342 20.9653L1.65203 13.6318L1.38953 13.7281Z" fill="white" mask="url(#path-12-inside-2_6212_25632)"/>
</g>
</g>
<defs>
<filter id="filter0_i_6212_25632" x="0.269531" y="0.222656" width="39.6113" height="39.6113" filterUnits="userSpaceOnUse" color-interpolation-filters="sRGB">
<feFlood flood-opacity="0" result="BackgroundImageFix"/>
<feBlend mode="normal" in="SourceGraphic" in2="BackgroundImageFix" result="shape"/>
<feColorMatrix in="SourceAlpha" type="matrix" values="0 0 0 0 0 0 0 0 0 0 0 0 0 0 0 0 0 0 127 0" result="hardAlpha"/>
<feMorphology radius="1.39804" operator="dilate" in="SourceAlpha" result="effect1_innerShadow_6212_25632"/>
<feOffset/>
<feGaussianBlur stdDeviation="3.7747"/>
<feComposite in2="hardAlpha" operator="arithmetic" k2="-1" k3="1"/>
<feColorMatrix type="matrix" values="0 0 0 0 1 0 0 0 0 1 0 0 0 0 1 0 0 0 1 0"/>
<feBlend mode="normal" in2="shape" result="effect1_innerShadow_6212_25632"/>
</filter>
<filter id="filter1_i_6212_25632" x="0.269531" y="0.222656" width="39.6113" height="39.6113" filterUnits="userSpaceOnUse" color-interpolation-filters="sRGB">
<feFlood flood-opacity="0" result="BackgroundImageFix"/>
<feBlend mode="normal" in="SourceGraphic" in2="BackgroundImageFix" result="shape"/>
<feColorMatrix in="SourceAlpha" type="matrix" values="0 0 0 0 0 0 0 0 0 0 0 0 0 0 0 0 0 0 127 0" result="hardAlpha"/>
<feMorphology radius="1.39804" operator="dilate" in="SourceAlpha" result="effect1_innerShadow_6212_25632"/>
<feOffset/>
<feGaussianBlur stdDeviation="2.09706"/>
<feComposite in2="hardAlpha" operator="arithmetic" k2="-1" k3="1"/>
<feColorMatrix type="matrix" values="0 0 0 0 0.121569 0 0 0 0 0.607843 0 0 0 0 0.6 0 0 0 1 0"/>
<feBlend mode="normal" in2="shape" result="effect1_innerShadow_6212_25632"/>
</filter>
<radialGradient id="paint0_radial_6212_25632" cx="0" cy="0" r="1" gradientUnits="userSpaceOnUse" gradientTransform="translate(20.0751 20.0282) rotate(90) scale(19.8055)">
<stop offset="0.503789" stop-color="white"/>
<stop offset="0.847559" stop-color="#F6F8F8"/>
</radialGradient>
<linearGradient id="paint1_linear_6212_25632" x1="4.76628" y1="4.88305" x2="36.4551" y2="34.2418" gradientUnits="userSpaceOnUse">
<stop stop-color="#2DE1E8" stop-opacity="0.58"/>
<stop offset="1" stop-color="#1F9B99"/>
</linearGradient>
<linearGradient id="paint2_linear_6212_25632" x1="39.3075" y1="41.0736" x2="-7.01063" y2="-9.69768" gradientUnits="userSpaceOnUse">
<stop stop-color="#2DE1E8"/>
<stop offset="1" stop-color="#1F9B99"/>
</linearGradient>
<clipPath id="clip0_6212_25632">
<rect width="40" height="40" fill="white"/>
</clipPath>
</defs>
</svg>