<svg xmlns="http://www.w3.org/2000/svg" fill="none" viewBox="0.73 0.74 40.74 40.73">
<circle cx="21.1096" cy="21.1057" r="20.3615" fill="url(#paint0_linear_6212_25634)"/>
<path fill-rule="evenodd" clip-rule="evenodd" d="M19.5658 0.803323L22.5483 3.31095L25.9334 1.359L27.9524 4.62055L31.706 3.82236L32.6341 7.5929L36.5152 8.00402L36.2312 11.8489L39.734 13.4051L38.2757 17.0202L41.1697 19.6351L38.6928 22.5646L40.6056 25.8688L37.2958 27.9334L38.0947 31.7526L34.378 32.6674L33.9894 36.4756L30.1012 36.2034L28.5119 39.7806L24.9415 38.3258L22.389 41.1821L19.4074 38.6612L16.0175 40.6002L13.9982 37.3381L10.2464 38.1359L9.31864 34.3665L5.43573 33.9552L5.71982 30.1087L2.21844 28.5531L3.68131 24.9445L0.782227 22.325C0.78627 22.3922 0.790643 22.4595 0.795349 22.5268C1.57979 33.7448 11.3097 42.2028 22.5276 41.4184C33.7456 40.6339 42.2037 30.9041 41.4192 19.6861C40.6348 8.46811 30.9049 0.0100577 19.6869 0.794495C19.6465 0.797322 19.6061 0.800265 19.5658 0.803323ZM19.565 0.803379C17.4193 0.966103 15.3758 1.45629 13.4801 2.22147L17.0014 3.65622L19.565 0.803379ZM13.4236 2.24439C11.4513 3.0474 9.64002 4.14843 8.04132 5.4881L11.8561 5.75518L13.4236 2.24439ZM7.95513 5.56073C6.386 6.89043 5.02455 8.45122 3.92028 10.1862L7.57457 9.28925L7.95513 5.56073ZM3.84865 10.2995C2.74031 12.0663 1.89749 14.0109 1.37178 16.0739L4.64268 14.0336L3.84865 10.2995ZM1.36144 16.1146C0.861645 18.0931 0.653395 20.18 0.782105 22.323L3.26045 19.4079L1.36144 16.1146Z" fill="url(#paint1_linear_6212_25634)" fill-opacity="0.5"/>
<path fill-rule="evenodd" clip-rule="evenodd" d="M28.8887 2.29484L30.4184 5.87868L34.32 5.66469L34.6496 9.48639L38.3594 10.4683L37.4858 14.2518L40.7635 16.3704L38.7747 19.6732L41.198 22.6429L38.265 25.2106L39.6674 28.8502L36.1348 30.3464L36.3503 34.1582L32.465 34.5067L31.4542 38.2754L27.7247 37.4142L25.659 40.637L22.3123 38.6392L19.2796 41.114L16.7501 38.2043L13.1832 39.6011L11.6604 36.0058L7.7603 36.2061L7.43068 32.3838L3.72271 31.4023L4.5961 27.6199L1.31682 25.5004L3.30641 22.1962L0.88408 19.2277L3.81822 16.6678L2.41348 13.0219C2.38676 13.0837 2.36031 13.1456 2.33414 13.2078C-2.02904 23.5722 2.83592 35.5113 13.2003 39.8745C23.5647 44.2377 35.5038 39.3727 39.867 29.0083C44.2302 18.6439 39.3652 6.70484 29.0008 2.34165C28.9634 2.32593 28.9261 2.31032 28.8887 2.29484ZM28.888 2.29455C26.8998 1.4713 24.855 0.986386 22.818 0.813576L25.3127 3.68318L28.888 2.29455ZM22.7573 0.808512C20.6349 0.634912 18.5216 0.799901 16.4904 1.2738L19.7739 3.23389L22.7573 0.808512ZM16.3807 1.29971C14.3803 1.77805 12.461 2.55633 10.6925 3.60609L14.3583 4.45509L16.3807 1.29971ZM10.5775 3.67491C8.791 4.75128 7.16123 6.10612 5.76099 7.70975L9.60066 7.36539L10.5775 3.67491ZM5.73338 7.74144C4.3944 9.28137 3.26667 11.0496 2.41429 13.02L5.94155 11.5373L5.73338 7.74144Z" fill="url(#paint2_linear_6212_25634)" fill-opacity="0.65"/>
<path fill-rule="evenodd" clip-rule="evenodd" d="M30.9869 11.1953H29.1875V29.0018L30.9869 30.7979V11.1953Z" fill="#21B9BA"/>
<path fill-rule="evenodd" clip-rule="evenodd" d="M27.3893 11.1953H25.5898V25.4112L27.3893 27.2072V11.1953Z" fill="#21B9BA"/>
<path fill-rule="evenodd" clip-rule="evenodd" d="M23.7955 11.1953H21.9961V21.8241L23.7955 23.6202V11.1953Z" fill="#21B9BA"/>
<path fill-rule="evenodd" clip-rule="evenodd" d="M18.3945 18.3057V30.8022H20.1939V20.1017L18.3945 18.3057Z" fill="#33F8FF"/>
<path fill-rule="evenodd" clip-rule="evenodd" d="M14.793 14.7158V30.8048H16.5924V16.5119L14.793 14.7158Z" fill="#33F8FF"/>
<path fill-rule="evenodd" clip-rule="evenodd" d="M11.2721 11.1953H11.1992V30.8024H12.9986V12.9186L11.2721 11.1953Z" fill="#33F8FF"/>
<defs>
<linearGradient id="paint0_linear_6212_25634" x1="60.0074" y1="21.2827" x2="-8.91346" y2="21.2827" gradientUnits="userSpaceOnUse">
<stop stop-color="#053542"/>
<stop offset="1" stop-color="#06657E"/>
</linearGradient>
<linearGradient id="paint1_linear_6212_25634" x1="3.27247" y1="4.55594" x2="40.0395" y2="37.3313" gradientUnits="userSpaceOnUse">
<stop offset="0.00114217" stop-color="#33F8FF"/>
<stop offset="1" stop-color="#21B9BA"/>
</linearGradient>
<linearGradient id="paint2_linear_6212_25634" x1="10.4075" y1="2.76554" x2="37.0741" y2="43.5499" gradientUnits="userSpaceOnUse">
<stop offset="0.00149477" stop-color="#33F8FF"/>
<stop offset="1" stop-color="#21B9BA"/>
</linearGradient>
</defs>
</svg>