<svg width="114" height="26" viewBox="0 0 114 26" fill="none" xmlns="http://www.w3.org/2000/svg">
<rect width="114" height="26" rx="5" fill="white"/>
<path d="M23.5357 4C25.2655 4.30016 26.9476 4.83031 28.5377 5.57643C31.2817 9.68613 32.645 14.3212 32.1416 19.6674C30.0421 21.2417 28.0057 22.1969 26.0034 22.822C25.506 22.1366 25.0665 21.4107 24.6895 20.652C25.4091 20.3774 26.1028 20.0388 26.7621 19.64C26.5896 19.5103 26.4205 19.3761 26.2549 19.2376C22.3134 21.1091 17.9789 21.1091 13.9897 19.2376C13.8257 19.3763 13.6559 19.5112 13.4824 19.64C14.1407 20.0377 14.8332 20.3757 15.5514 20.6499C15.1742 21.4085 14.7347 22.1344 14.2376 22.8201C12.2371 22.195 10.2026 21.2398 8.10306 19.6674C7.67376 15.0557 8.53179 10.3775 11.6974 5.58023C13.2882 4.83173 14.9718 4.30026 16.7033 4C16.9206 4.39064 17.1781 4.91618 17.3516 5.33418C19.1823 5.05298 21.03 5.05298 22.895 5.33418C23.0861 4.87895 23.2999 4.43365 23.5357 4V4ZM71.6441 10.0205C72.9788 10.0205 74.0868 10.3074 74.9679 10.8818V13.3841C74.6572 13.1652 74.2946 12.9876 73.8808 12.8508C73.467 12.714 73.0245 12.6456 72.5516 12.6456C71.7241 12.6456 71.0777 12.8 70.6105 13.1105C70.1431 13.4212 69.9089 13.8255 69.9089 14.3274C69.9089 14.8195 70.1355 15.2222 70.5894 15.5385C71.0436 15.853 71.7012 16.0112 72.5651 16.0112C73.0093 16.0112 73.4479 15.9447 73.8808 15.814C74.3118 15.681 74.6837 15.5189 74.9944 15.3276V17.7476C74.0163 18.3494 72.8816 18.6501 71.5905 18.6501C70.5038 18.6463 69.5768 18.4548 68.8122 18.072C68.0477 17.6891 67.4697 17.1695 67.0846 16.5132C66.6994 15.857 66.5048 15.1186 66.5048 14.2982C66.5048 13.4778 66.7051 12.7434 67.1054 12.0969C67.5059 11.4503 68.0932 10.9424 68.8677 10.5731C69.6416 10.2041 70.5665 10.0205 71.6441 10.0205V10.0205ZM61.6188 10.0186C62.3662 10.0186 63.0509 10.1005 63.6748 10.2647C64.2981 10.4288 64.813 10.6378 65.2232 10.8936V13.0404C64.8034 12.7845 64.3227 12.5833 63.7739 12.4309C63.2232 12.2803 62.6547 12.2048 62.0839 12.2063C61.2469 12.2063 60.8296 12.3526 60.8296 12.6439C60.8296 12.7807 60.8944 12.8821 61.024 12.9505C61.1535 13.0189 61.3919 13.0892 61.7371 13.1633L63.0718 13.4096C63.9436 13.5638 64.5936 13.8352 65.0207 14.222C65.4481 14.6088 65.6614 15.1811 65.6614 15.939C65.6614 16.7693 65.309 17.4275 64.6012 17.9158C63.8938 18.4041 62.8906 18.6482 61.5902 18.6482C60.8254 18.6463 60.0822 18.5506 59.3611 18.3591C58.6403 18.1677 57.9899 17.8903 57.4122 17.525V15.2556C57.8489 15.6014 58.4343 15.8864 59.1684 16.1112C59.9026 16.3338 60.6121 16.4452 61.2985 16.4452C61.6186 16.4452 61.8611 16.4021 62.025 16.3162C62.1891 16.2303 62.2713 16.1268 62.2713 16.0076C62.2713 15.8708 62.2274 15.7576 62.1376 15.6656C62.0479 15.5738 61.8742 15.4977 61.6171 15.4332L60.0153 15.0641C59.098 14.8454 58.4476 14.5425 58.0607 14.154C57.6735 13.7671 57.4808 13.2593 57.4808 12.6302C57.4808 12.101 57.6487 11.642 57.9882 11.2493C58.3256 10.8567 58.8062 10.5539 59.4297 10.3411C60.0534 10.1264 60.7816 10.0188 61.6188 10.0188V10.0186ZM105 8.52827V18.3727H101.729V16.5818C101.453 17.2557 101.033 17.7693 100.469 18.121C99.9045 18.4706 99.2065 18.6465 98.379 18.6465C97.6392 18.6465 96.9949 18.4628 96.4434 18.0936C95.8924 17.7245 95.4673 17.2187 95.168 16.5759C94.8705 15.9333 94.7195 15.2068 94.7195 14.3941C94.71 13.5562 94.8684 12.8042 95.1945 12.1381C95.5188 11.4719 95.9781 10.9525 96.5693 10.5793C97.1604 10.2063 97.8356 10.0188 98.5927 10.0188C100.124 10.0188 101.159 10.6884 101.701 12.026L101.729 12.0969V8.52827H105ZM81.0279 10.0165C82.0864 10.0165 82.9996 10.1982 83.7644 10.5635C84.529 10.9287 85.1127 11.4288 85.513 12.0676C85.9137 12.7064 86.1136 13.4388 86.1136 14.2689C86.1136 15.0893 85.9137 15.8317 85.513 16.4976C85.1127 17.1638 84.5271 17.687 83.7568 18.0701C82.9863 18.4529 82.0767 18.6442 81.0262 18.6442C79.9753 18.6442 79.0658 18.4548 78.2973 18.072C77.5268 17.6891 76.9397 17.1657 76.5352 16.4995C76.1311 15.8336 75.9271 15.0912 75.9271 14.2708C75.9271 13.4506 76.1291 12.718 76.5352 12.0754C76.9412 11.4328 77.5249 10.9287 78.2915 10.5635C79.0561 10.1982 79.9697 10.0165 81.0279 10.0165V10.0165ZM55.9519 12.2589V18.4157H52.6914V12.2589C53.6904 12.7003 54.93 12.7199 55.9519 12.2589V12.2589ZM92.9195 10.1963C93.3905 10.1963 93.7948 10.3057 94.1343 10.5244V13.4778C93.795 13.2492 93.3562 13.136 92.8129 13.136C92.1013 13.136 91.5522 13.3567 91.1707 13.7981C90.7876 14.2397 90.5966 14.9271 90.5966 15.8569V18.3727H87.3265V10.3741H90.5301V12.9173C90.7075 11.9874 90.9956 11.3019 91.3922 10.8584C91.787 10.4171 92.2977 10.1963 92.9195 10.1963V10.1963ZM45.7855 8.80168C47.0404 8.80168 48.1006 9.00289 48.9702 9.40322C49.8379 9.80374 50.4883 10.3623 50.9193 11.0771C51.3499 11.7921 51.5672 12.6104 51.5672 13.5325C51.5672 14.435 51.3423 15.2533 50.8924 15.9858C50.4422 16.7203 49.7576 17.3006 48.8368 17.7281C47.9159 18.1559 46.7752 18.3708 45.4119 18.3708H40.5797V8.80168H45.7855V8.80168ZM16.095 11.8561C14.8764 11.8561 13.9153 12.9794 13.9153 14.3447C13.9153 15.7101 14.8974 16.8313 16.095 16.8313C17.3135 16.8313 18.2765 15.7101 18.2746 14.3447C18.2954 12.9773 17.3135 11.8561 16.095 11.8561ZM24.1497 11.8561C22.9312 11.8561 21.9701 12.9794 21.9701 14.3447C21.9701 15.7101 22.9522 16.8313 24.1497 16.8313C25.3683 16.8313 26.3294 15.7101 26.3294 14.3447C26.3502 12.9773 25.3683 11.8561 24.1497 11.8561ZM81.0262 12.5363C80.456 12.5363 80.0096 12.6984 79.6836 13.0227C79.3596 13.347 79.1972 13.7806 79.1972 14.3276C79.1972 14.8745 79.3594 15.3139 79.6836 15.646C80.0079 15.9782 80.4558 16.1461 81.0262 16.1461C81.5864 16.1442 82.0292 15.9782 82.3532 15.646C82.6777 15.3139 82.8414 14.8746 82.8414 14.3274C82.8414 13.7806 82.6792 13.3451 82.3532 13.0227C82.0292 12.6984 81.5864 12.5363 81.0262 12.5363V12.5363ZM99.9274 12.5774C99.3763 12.5774 98.936 12.7394 98.606 13.0638C98.2759 13.3881 98.1121 13.808 98.1121 14.3276C98.1121 14.8471 98.2759 15.271 98.606 15.5991C98.936 15.9272 99.3708 16.0912 99.9141 16.0912C100.465 16.0893 100.907 15.9234 101.241 15.5915C101.575 15.2592 101.741 14.8277 101.741 14.3003C101.741 13.7903 101.579 13.3744 101.255 13.0558C100.93 12.7375 100.486 12.5774 99.9274 12.5774V12.5774ZM45.5471 11.2354H43.9186V15.939H45.3585C46.2034 15.939 46.8536 15.7222 47.3074 15.2906C47.7613 14.8568 47.9883 14.267 47.9883 13.5188C47.9883 12.8253 47.7859 12.2726 47.3818 11.8586C46.9775 11.4444 46.3654 11.2354 45.5471 11.2354V11.2354ZM54.3232 8.2256C55.2235 8.2256 55.9536 8.89706 55.9536 9.72565C55.9536 10.554 55.2235 11.2259 54.3232 11.2259C53.4225 11.2259 52.6926 10.5542 52.6926 9.72565C52.6926 8.89725 53.4225 8.2256 54.3232 8.2256Z" />
</svg>
