<svg width="19" height="18" viewBox="0 0 19 18" fill="none" xmlns="http://www.w3.org/2000/svg">
<path d="M9.75 0C4.78754 0 0.75 4.03754 0.75 9C0.75 13.9625 4.78754 18 9.75 18C14.7125 18 18.75 13.9625 18.75 9C18.75 4.03754 14.7125 0 9.75 0ZM8.97115 1.42823C9.00092 1.42546 9.02792 1.43031 9.05769 1.42823V9.28108L9.25223 9.49777L14.6391 14.8632C13.3202 15.966 11.6109 16.6154 9.75 16.6154C5.53662 16.6154 2.13462 13.2134 2.13462 9C2.13226 7.11475 2.83053 5.29589 4.09388 3.89655C5.35722 2.49722 7.09547 1.61726 8.97115 1.42754V1.42823ZM10.4423 1.42823C12.2137 1.58641 13.8732 2.362 15.1308 3.61947C16.3883 4.87694 17.1641 6.53633 17.3225 8.30769H10.4423V1.42823ZM11.4378 9.69231H17.3225C17.1785 11.2798 16.5782 12.735 15.6125 13.8898L11.4378 9.69231Z" fill="#E6EAEB"/>
</svg>
