<svg width="277" height="461" viewBox="0 0 277 461" fill="none" xmlns="http://www.w3.org/2000/svg">
<rect width="277" height="461" fill="transparent"/>
<mask id="path-1-outside-1_4128_4" maskUnits="userSpaceOnUse" x="0" y="0" width="277" height="461" fill="black">
<rect fill="white" width="277" height="461"/>
<path d="M1 29.7435C1 28.0142 1.68738 26.3558 2.91077 25.1335L25.158 2.90656C26.38 1.68575 28.0366 1 29.7639 1L247.236 1C248.963 1 250.62 1.68575 251.842 2.90656L274.089 25.1335C275.313 26.3558 276 28.0142 276 29.7436V431.256C276 432.986 275.313 434.644 274.089 435.866L251.842 458.093C250.62 459.314 248.963 460 247.236 460H29.7639C28.0366 460 26.38 459.314 25.158 458.093L2.91077 435.866C1.68739 434.644 1 432.986 1 431.256L1 29.7435Z"/>
</mask>
<path d="M1 29.7435C1 28.0142 1.68738 26.3558 2.91077 25.1335L25.158 2.90656C26.38 1.68575 28.0366 1 29.7639 1L247.236 1C248.963 1 250.62 1.68575 251.842 2.90656L274.089 25.1335C275.313 26.3558 276 28.0142 276 29.7436V431.256C276 432.986 275.313 434.644 274.089 435.866L251.842 458.093C250.62 459.314 248.963 460 247.236 460H29.7639C28.0366 460 26.38 459.314 25.158 458.093L2.91077 435.866C1.68739 434.644 1 432.986 1 431.256L1 29.7435Z" stroke="url(#paint0_linear_4128_4)" stroke-width="0.90859" mask="url(#path-1-outside-1_4128_4)"/>
<path d="M1 29.7215C1 27.9912 1.6882 26.3318 2.91288 25.1094L25.1584 2.90446C26.3802 1.68494 28.0359 1 29.7621 1L247.238 1C248.964 1 250.62 1.68493 251.842 2.90446L274.087 25.1094C275.312 26.3318 276 27.9912 276 29.7215V430.859C276 432.59 275.312 434.249 274.087 435.472L251.842 457.676C250.62 458.896 248.964 459.581 247.238 459.581H29.7621C28.0359 459.581 26.3802 458.896 25.1584 457.676L2.91288 435.472C1.68821 434.249 1 432.59 1 430.859L1 29.7215Z" fill="url(#paint1_linear_4128_4)" fill-opacity="0.5"/>
<g clip-path="url(#clip0_4128_4)">
<rect x="12.0762" y="8.8125" width="252.844" height="440.521" rx="19.5498" fill="url(#paint2_linear_4128_4)"/>
<g filter="url(#filter0_f_4128_4)">
<ellipse cx="54.4931" cy="95.8558" rx="54.4931" ry="95.8558" transform="matrix(0.796753 0.604306 -0.158578 0.987346 110.07 117.388)" fill="#5CFFCE"/>
</g>
<g style="mix-blend-mode:hard-light" filter="url(#filter1_f_4128_4)">
<ellipse cx="47.5761" cy="83.7259" rx="47.5761" ry="83.7259" transform="matrix(0.796753 0.604306 -0.158578 0.987346 171.516 99.1074)" fill="#C15CFF"/>
</g>
<g style="mix-blend-mode:overlay" filter="url(#filter2_f_4128_4)">
<ellipse cx="71.8702" cy="126.033" rx="71.8702" ry="126.033" transform="matrix(0.796753 0.604306 -0.158578 0.987346 26.6367 82.9409)" fill="#5C9DFF"/>
</g>
<g style="mix-blend-mode:lighten" filter="url(#filter3_f_4128_4)">
<ellipse cx="30.0303" cy="52.0698" rx="30.0303" ry="52.0698" transform="matrix(0.796753 0.604306 -0.158578 0.987346 146.064 233.163)" fill="#FF8F50"/>
</g>
<g style="mix-blend-mode:overlay" filter="url(#filter4_f_4128_4)">
<path d="M178.214 226.268C178.214 248.38 174.089 268.392 167.426 282.87C160.758 297.361 151.575 306.257 141.482 306.257C131.388 306.257 122.205 297.361 115.537 282.87C108.874 268.392 104.75 248.38 104.75 226.268C104.75 204.156 108.874 184.144 115.537 169.666C122.205 155.175 131.388 146.279 141.482 146.279C151.575 146.279 160.758 155.175 167.426 169.666C174.089 184.144 178.214 204.156 178.214 226.268Z" stroke="white" stroke-width="0.284741"/>
<path d="M230.322 226.577C230.322 264.323 223.281 298.49 211.903 323.214C200.52 347.95 184.824 363.184 167.536 363.184C150.248 363.184 134.551 347.95 123.168 323.214C111.791 298.49 104.75 264.323 104.75 226.577C104.75 188.83 111.791 154.664 123.168 129.94C134.551 105.203 150.248 89.9695 167.536 89.9695C184.824 89.9695 200.52 105.203 211.903 129.94C223.281 154.664 230.322 188.83 230.322 226.577Z" stroke="white" stroke-width="0.284741"/>
<g style="mix-blend-mode:color-dodge" filter="url(#filter5_dd_4128_4)">
<ellipse cx="137.198" cy="226.268" rx="173.993" ry="309.906" fill="white" fill-opacity="0.5"/>
<path d="M311.048 226.268C311.048 311.826 291.578 389.278 260.105 445.335C228.63 501.396 185.17 536.032 137.198 536.032C89.2256 536.032 45.7656 501.396 14.2906 445.335C-17.1819 389.278 -36.6526 311.826 -36.6526 226.268C-36.6526 140.709 -17.1819 63.2575 14.2906 7.2005C45.7656 -48.861 89.2256 -83.4963 137.198 -83.4963C185.17 -83.4963 228.63 -48.861 260.105 7.2005C291.578 63.2575 311.048 140.709 311.048 226.268Z" stroke="white" stroke-width="0.284741"/>
</g>
<path d="M178.218 226.886C178.218 264.718 171.161 298.962 159.758 323.742C148.349 348.534 132.617 363.803 115.289 363.803C97.9622 363.803 82.2298 348.534 70.8211 323.742C59.4179 298.962 52.3611 264.718 52.3611 226.886C52.3611 189.054 59.4179 154.811 70.8211 130.03C82.2298 105.238 97.9622 89.9695 115.289 89.9695C132.617 89.9695 148.349 105.238 159.758 130.03C171.161 154.811 178.218 189.054 178.218 226.886Z" stroke="white" stroke-width="0.284741"/>
</g>
<g filter="url(#filter6_f_4128_4)">
<ellipse cx="87.9928" cy="223.103" rx="105.243" ry="105.569" transform="rotate(19.2401 87.9928 223.103)" fill="#5CFFCE"/>
</g>
<g style="mix-blend-mode:hard-light" filter="url(#filter7_f_4128_4)">
<ellipse cx="220.403" cy="186.837" rx="91.8839" ry="92.2097" transform="rotate(19.2401 220.403 186.837)" fill="#C15CFF"/>
</g>
<g style="mix-blend-mode:overlay" filter="url(#filter8_f_4128_4)">
<circle cx="-82.2241" cy="229.264" r="138.803" transform="rotate(19.2401 -82.2241 229.264)" fill="#5C9DFF"/>
</g>
<g style="mix-blend-mode:lighten" filter="url(#filter9_f_4128_4)">
<ellipse cx="141.648" cy="283.933" rx="57.9976" ry="57.346" transform="rotate(19.2401 141.648 283.933)" fill="#FF8F50"/>
</g>
<g filter="url(#filter10_f_4128_4)">
<ellipse cx="41.6504" cy="289.075" rx="105.243" ry="105.569" transform="rotate(79.2401 41.6504 289.075)" fill="#5CFFCE"/>
</g>
<g style="mix-blend-mode:hard-light" filter="url(#filter11_f_4128_4)">
<ellipse cx="139.265" cy="385.611" rx="91.8839" ry="92.2097" transform="rotate(79.2401 139.265 385.611)" fill="#C15CFF"/>
</g>
<g style="mix-blend-mode:overlay" filter="url(#filter12_f_4128_4)">
<circle cx="-48.793" cy="144.743" r="138.803" transform="rotate(79.2401 -48.793 144.743)" fill="#5C9DFF"/>
</g>
<g style="mix-blend-mode:lighten" filter="url(#filter13_f_4128_4)">
<ellipse cx="15.8006" cy="365.958" rx="57.9976" ry="57.346" transform="rotate(79.2401 15.8006 365.958)" fill="#FF8F50"/>
</g>
<g class="LooperGroup_236">
	<path opacity="0.0526316" fill-rule="evenodd" clip-rule="evenodd" d="M61.3185 -2.04561L-36.5483 156.856C-37.9509 159.133 -38.6874 161.84 -38.6736 164.667L-37.7116 361.915C-37.693 365.739 -36.3038 369.535 -33.8257 372.533L60.583 486.752C64.1742 491.097 69.5595 493.187 74.6035 492.192L207.202 466.053C210.683 465.367 213.675 463.271 215.572 460.191L313.439 301.289C314.842 299.012 315.578 296.305 315.565 293.478L314.602 96.2302C314.584 92.4062 313.195 88.6103 310.717 85.6123L216.308 -28.607C212.717 -32.9518 207.331 -35.0414 202.287 -34.047L69.6886 -7.90817C66.2082 -7.22209 63.2158 -5.1262 61.3185 -2.04561ZM-37.3534 156.256C-38.8495 158.685 -39.6351 161.572 -39.6204 164.588L-38.6584 361.835C-38.6385 365.914 -37.1566 369.963 -34.5134 373.161L59.8953 487.381C63.726 492.015 69.4703 494.244 74.8505 493.183L207.449 467.044C211.162 466.313 214.354 464.077 216.377 460.791L314.244 301.889C315.74 299.46 316.526 296.573 316.511 293.558L315.549 96.3097C315.529 92.2308 314.047 88.1818 311.404 84.9839L216.996 -29.2354C213.165 -33.8699 207.421 -36.0987 202.04 -35.0381L69.4416 -8.89923C65.7291 -8.16739 62.5373 -5.93178 60.5135 -2.64585L-37.3534 156.256Z" fill="url(#paint3_linear_4128_4)"/>
	<path opacity="0.105263" fill-rule="evenodd" clip-rule="evenodd" d="M75.9913 -0.794021L-27.6614 144.375C-29.2408 146.587 -30.1607 149.306 -30.3113 152.208L-40.1966 342.617C-40.397 346.477 -39.2241 350.404 -36.9181 353.596L48.5493 471.886C51.8086 476.397 56.8971 478.852 61.8656 478.311L192.157 464.118C195.672 463.735 198.801 461.883 200.902 458.94L304.554 313.771C306.134 311.559 307.053 308.84 307.204 305.939L317.089 115.529C317.29 111.67 316.117 107.742 313.811 104.55L228.343 -13.7398C225.084 -18.2507 219.996 -20.7058 215.027 -20.1646L84.7362 -5.97189C81.2208 -5.58893 78.0923 -3.73651 75.9913 -0.794021ZM-28.4178 143.707C-30.1024 146.066 -31.0836 148.966 -31.2443 152.061L-41.1296 342.471C-41.3434 346.588 -40.0922 350.777 -37.6325 354.182L47.8349 472.472C51.3114 477.283 56.7392 479.902 62.0389 479.325L192.33 465.132C196.08 464.724 199.417 462.748 201.658 459.609L305.311 314.44C306.995 312.08 307.976 309.18 308.137 306.085L318.022 115.676C318.236 111.559 316.985 107.369 314.525 103.965L229.058 -14.3253C225.581 -19.1369 220.154 -21.7556 214.854 -21.1783L84.5629 -6.98567C80.8132 -6.57719 77.476 -4.60127 75.235 -1.46262L-28.4178 143.707Z" fill="url(#paint4_linear_4128_4)"/>
	<path opacity="0.157895" fill-rule="evenodd" clip-rule="evenodd" d="M90.1291 1.74652L-18.1782 132.999C-19.9414 135.136 -21.0549 137.862 -21.3794 140.837L-41.3104 323.562C-41.7338 327.444 -40.7862 331.488 -38.6636 334.857L37.8724 456.328C40.7899 460.959 45.5518 463.732 50.4036 463.627L177.681 460.863C181.211 460.786 184.463 459.188 186.764 456.4L295.071 325.147C296.834 323.011 297.948 320.284 298.272 317.31L318.203 134.584C318.627 130.702 317.679 126.658 315.557 123.289L239.021 1.81807C236.103 -2.81242 231.341 -5.58587 226.489 -5.48051L99.2119 -2.71654C95.6821 -2.6399 92.4301 -1.04195 90.1291 1.74652ZM-18.8801 132.267C-20.7609 134.546 -21.9486 137.454 -22.2948 140.627L-42.2258 323.352C-42.6775 327.493 -41.6666 331.807 -39.4025 335.4L37.1334 456.871C40.2455 461.811 45.3248 464.769 50.5001 464.657L177.777 461.893C181.543 461.811 185.011 460.106 187.466 457.132L295.773 325.88C297.654 323.6 298.842 320.692 299.188 317.519L319.119 134.794C319.57 130.653 318.56 126.34 316.295 122.746L239.76 1.27484C236.647 -3.66437 231.568 -6.62271 226.393 -6.51031L99.1155 -3.74637C95.3503 -3.66461 91.8815 -1.96012 89.4271 1.01426L-18.8801 132.267Z" fill="url(#paint5_linear_4128_4)"/>
	<path opacity="0.210526" fill-rule="evenodd" clip-rule="evenodd" d="M103.657 5.49096L-8.18197 122.765C-10.1362 124.814 -11.4547 127.541 -11.9637 130.587L-41.0934 304.884C-41.7436 308.774 -41.0295 312.917 -39.1005 316.445L28.5685 440.226C31.1409 444.931 35.5551 447.974 40.2537 448.282L163.856 456.374C167.379 456.604 170.74 455.271 173.237 452.654L285.075 335.38C287.029 333.331 288.348 330.604 288.857 327.558L317.986 153.261C318.637 149.37 317.923 145.228 315.994 141.699L248.325 17.9192C245.752 13.2138 241.338 10.1705 236.639 9.86286L113.037 1.77138C109.514 1.54072 106.153 2.87349 103.657 5.49096ZM-8.82455 121.974C-10.9091 124.16 -12.3154 127.069 -12.8583 130.318L-41.9881 304.615C-42.6816 308.765 -41.9199 313.183 -39.8624 316.947L27.8067 440.727C30.5506 445.746 35.259 448.993 40.2709 449.321L163.873 457.412C167.631 457.658 171.216 456.237 173.879 453.445L285.718 336.171C287.802 333.985 289.208 331.076 289.751 327.827L318.881 153.53C319.575 149.38 318.813 144.962 316.755 141.198L249.086 17.4177C246.342 12.3985 241.634 9.15233 236.622 8.82424L113.02 0.732767C109.262 0.486735 105.677 1.90835 103.014 4.70032L-8.82455 121.974Z" fill="url(#paint6_linear_4128_4)"/>
	<path opacity="0.263158" fill-rule="evenodd" clip-rule="evenodd" d="M116.506 10.35L2.24182 113.706C0.0898715 115.653 -1.4456 118.371 -2.1508 121.483L-39.5955 286.715C-40.4753 290.597 -40.0021 294.819 -38.2759 298.488L20.6442 423.727C22.8736 428.465 26.9274 431.731 31.4418 432.424L150.753 450.745C154.249 451.282 157.704 450.225 160.388 447.796L274.652 344.44C276.804 342.494 278.34 339.775 279.045 336.663L316.49 171.431C317.37 167.549 316.896 163.328 315.17 159.658L256.25 34.4194C254.021 29.6809 249.967 26.4156 245.452 25.7223L126.141 7.4009C122.646 6.8641 119.191 7.92163 116.506 10.35ZM1.66316 112.863C-0.632255 114.939 -2.27008 117.839 -3.02231 121.158L-40.467 286.39C-41.4055 290.531 -40.9007 295.034 -39.0594 298.948L19.8607 424.187C22.2387 429.241 26.5628 432.724 31.3781 433.464L150.689 451.785C154.418 452.358 158.103 451.23 160.967 448.639L275.231 345.283C277.527 343.207 279.164 340.307 279.917 336.988L317.361 171.756C318.3 167.615 317.795 163.112 315.954 159.198L257.034 33.9594C254.656 28.9049 250.331 25.4219 245.516 24.6825L126.205 6.36102C122.476 5.78845 118.791 6.91646 115.927 9.50677L1.66316 112.863Z" fill="url(#paint7_linear_4128_4)"/>
	<path opacity="0.315789" fill-rule="evenodd" clip-rule="evenodd" d="M128.615 16.2247L13.004 105.841C10.6485 107.667 8.88363 110.365 7.96987 113.536L-36.8779 269.173C-37.9892 273.03 -37.7628 277.309 -36.2469 281.1L14.094 406.973C15.9871 411.706 19.6758 415.148 23.98 416.196L138.435 444.074C141.881 444.914 145.413 444.141 148.278 441.92L263.889 352.303C266.244 350.478 268.009 347.78 268.923 344.609L313.771 188.972C314.882 185.115 314.656 180.836 313.14 177.045L262.799 51.172C260.906 46.4384 257.217 42.9969 252.913 41.9485L138.458 14.0705C135.012 13.231 131.479 14.0041 128.615 16.2247ZM12.4932 104.952C9.98059 106.899 8.09807 109.777 7.12339 113.159L-37.7244 268.796C-38.9098 272.91 -38.6683 277.475 -37.0514 281.518L13.2896 407.391C15.3089 412.44 19.2435 416.111 23.8346 417.23L138.289 445.108C141.966 446.003 145.733 445.179 148.789 442.81L264.4 353.193C266.912 351.245 268.795 348.368 269.769 344.986L314.617 189.349C315.803 185.235 315.561 180.67 313.944 176.627L263.603 50.7536C261.584 45.7044 257.649 42.0336 253.058 40.9153L138.603 13.0372C134.927 12.1418 131.16 12.9663 128.104 15.335L12.4932 104.952Z" fill="url(#paint8_linear_4128_4)"/>
	<path opacity="0.368421" fill-rule="evenodd" clip-rule="evenodd" d="M139.931 23.017L24.0173 99.1869C21.4538 100.871 19.4473 103.533 18.3124 106.753L-33.0072 252.377C-34.3506 256.188 -34.3752 260.504 -33.0759 264.395L8.90568 390.109C10.4735 394.803 13.7984 398.378 17.8722 399.75L126.958 436.467C130.334 437.604 133.925 437.123 136.959 435.129L252.873 358.959C255.437 357.275 257.443 354.614 258.578 351.393L309.898 205.77C311.241 201.958 311.266 197.642 309.966 193.752L267.985 68.0377C266.417 63.3429 263.092 59.7679 259.018 58.3966L149.933 21.6792C146.557 20.5428 142.965 21.0231 139.931 23.017ZM23.5775 98.2573C20.8431 100.054 18.7029 102.893 17.4922 106.328L-33.8274 251.952C-35.2603 256.017 -35.2866 260.62 -33.9006 264.771L8.08096 390.485C9.75329 395.492 13.2999 399.306 17.6452 400.768L126.731 437.486C130.332 438.698 134.163 438.186 137.399 436.059L253.313 359.889C256.047 358.092 258.188 355.254 259.398 351.818L310.718 206.195C312.151 202.129 312.177 197.526 310.791 193.376L268.81 67.6617C267.137 62.6539 263.591 58.8405 259.245 57.3779L150.16 20.6604C146.559 19.4483 142.728 19.9607 139.491 22.0874L23.5775 98.2573Z" fill="url(#paint9_linear_4128_4)"/>
	<path opacity="0.421053" fill-rule="evenodd" clip-rule="evenodd" d="M150.414 30.6205L35.196 93.7451C32.4222 95.2648 30.1626 97.8704 28.794 101.128L-28.0559 236.43C-29.6301 240.177 -29.9082 244.504 -28.83 248.475L5.06002 373.27C6.31649 377.897 9.28445 381.567 13.1127 383.228L116.371 428.029C119.657 429.455 123.288 429.274 126.478 427.526L241.697 364.401C244.47 362.881 246.73 360.276 248.099 357.018L304.948 221.716C306.523 217.969 306.801 213.642 305.723 209.672L271.833 84.8756C270.576 80.2488 267.608 76.5787 263.78 74.9177L160.521 30.1169C157.236 28.6915 153.605 28.8724 150.414 30.6205ZM34.8299 92.7824C31.8711 94.4034 29.461 97.1827 28.0011 100.657L-28.8488 235.96C-30.528 239.956 -30.8246 244.572 -29.6746 248.807L4.2155 373.603C5.55572 378.538 8.72155 382.453 12.805 384.225L116.064 429.025C119.568 430.546 123.441 430.353 126.844 428.488L242.063 365.364C245.021 363.743 247.432 360.963 248.891 357.489L305.741 222.186C307.421 218.19 307.717 213.574 306.567 209.339L272.677 84.5432C271.337 79.608 268.171 75.6932 264.088 73.9214L160.829 29.1206C157.325 27.6002 153.451 27.7932 150.048 29.6577L34.8299 92.7824Z" fill="url(#paint10_linear_4128_4)"/>
	<path opacity="0.473684" fill-rule="evenodd" clip-rule="evenodd" d="M160.022 38.93L46.4459 89.5129C43.4621 90.8418 40.9395 93.3695 39.3255 96.6477L-22.1118 221.432C-23.9139 225.092 -24.4458 229.407 -23.5916 233.436L2.52041 356.595C3.48176 361.129 6.10359 364.86 9.67594 366.778L106.709 418.872C109.883 420.577 113.534 420.7 116.865 419.217L230.442 368.634C233.425 367.305 235.948 364.777 237.562 361.499L298.999 236.714C300.801 233.054 301.333 228.74 300.479 224.711L274.367 101.552C273.406 97.0179 270.784 93.2866 267.211 91.3687L170.179 39.2743C167.004 37.5701 163.354 37.4463 160.022 38.93ZM46.1555 88.5241C42.9728 89.9415 40.2821 92.6377 38.5604 96.1344L-22.8769 220.919C-24.7991 224.823 -25.3665 229.426 -24.4553 233.723L1.65669 356.882C2.68211 361.718 5.47874 365.698 9.28923 367.744L106.322 419.838C109.708 421.656 113.602 421.788 117.155 420.206L230.732 369.623C233.915 368.205 236.605 365.509 238.327 362.012L299.764 237.228C301.687 233.324 302.254 228.721 301.343 224.423L275.231 101.265C274.205 96.4286 271.409 92.4485 267.598 90.4028L170.565 38.3084C167.18 36.4905 163.285 36.3585 159.732 37.9411L46.1555 88.5241Z" fill="url(#paint11_linear_4128_4)"/>
	<path opacity="0.526316" fill-rule="evenodd" clip-rule="evenodd" d="M168.74 47.8361L57.6914 86.4762C54.5015 87.5862 51.708 90.0099 49.8382 93.2898L-15.2515 207.469C-17.2762 211.02 -18.0598 215.298 -17.4308 219.365L1.25949 340.21C1.94336 344.632 4.23278 348.395 7.54299 350.538L98.0113 409.108C101.056 411.079 104.705 411.511 108.159 410.309L219.208 371.669C222.397 370.559 225.191 368.135 227.061 364.855L292.15 250.676C294.175 247.125 294.959 242.847 294.33 238.78L275.639 117.935C274.956 113.513 272.666 109.75 269.356 107.607L178.888 49.0371C175.843 47.066 172.194 46.6342 168.74 47.8361ZM57.4781 85.4683C54.0755 86.6523 51.0958 89.2375 49.1014 92.736L-15.9883 206.915C-18.148 210.703 -18.9839 215.266 -18.3129 219.604L0.377369 340.45C1.10683 345.166 3.54887 349.18 7.07976 351.466L97.548 410.036C100.796 412.138 104.688 412.599 108.372 411.317L219.421 372.677C222.823 371.493 225.803 368.908 227.798 365.409L292.887 251.23C295.047 247.442 295.883 242.879 295.212 238.541L276.522 117.696C275.792 112.979 273.35 108.965 269.819 106.679L179.351 48.1093C176.103 46.0068 172.211 45.5461 168.527 46.8282L57.4781 85.4683Z" fill="url(#paint12_linear_4128_4)"/>
	<path opacity="0.578947" fill-rule="evenodd" clip-rule="evenodd" d="M176.528 57.2327L68.8265 84.6157C65.438 85.4772 62.3688 87.7674 60.2349 91.0267L-7.58845 194.62C-9.82823 198.041 -10.8593 202.256 -10.4552 206.341L1.20962 324.245C1.63441 328.539 3.607 332.309 6.6524 334.647L90.2805 398.853C93.1776 401.077 96.8025 401.818 100.359 400.914L208.061 373.531C211.45 372.669 214.519 370.379 216.653 367.12L284.476 263.527C286.716 260.106 287.747 255.89 287.343 251.806L275.678 133.901C275.253 129.608 273.28 125.838 270.235 123.5L186.607 59.2941C183.71 57.0698 180.085 56.3284 176.528 57.2327ZM68.6911 83.5959C65.0766 84.5148 61.8028 86.9577 59.5267 90.4343L-8.29667 194.027C-10.6858 197.676 -11.7856 202.173 -11.3545 206.53L0.310293 324.434C0.763396 329.014 2.8675 333.035 6.11592 335.529L89.744 399.735C92.8342 402.107 96.7009 402.898 100.495 401.934L208.196 374.551C211.811 373.632 215.085 371.189 217.361 367.712L285.184 264.119C287.573 260.47 288.673 255.974 288.242 251.617L276.577 133.712C276.124 129.132 274.02 125.111 270.772 122.617L187.144 58.4117C184.053 56.0391 180.187 55.2483 176.393 56.2128L68.6911 83.5959Z" fill="url(#paint13_linear_4128_4)"/>
	<path opacity="0.631579" fill-rule="evenodd" clip-rule="evenodd" d="M183.396 67.0081L79.7862 83.8978C76.2112 84.4806 72.8653 86.6051 70.4616 89.8184L0.798413 182.948C-1.6466 186.216 -2.91846 190.346 -2.73742 194.429L2.33441 308.816C2.51858 312.97 4.19093 316.726 6.9717 319.231L83.548 388.217C86.2813 390.679 89.8597 391.729 93.4961 391.137L197.106 374.247C200.681 373.664 204.026 371.54 206.43 368.326L276.093 275.197C278.538 271.928 279.81 267.799 279.629 263.716L274.557 149.328C274.373 145.175 272.701 141.419 269.92 138.914L193.344 69.928C190.611 67.4656 187.032 66.4154 183.396 67.0081ZM79.7287 82.8733C75.9153 83.4949 72.3464 85.761 69.7825 89.1886L0.119274 182.318C-2.48874 185.804 -3.84538 190.21 -3.65228 194.565L1.41955 308.952C1.61601 313.383 3.39984 317.389 6.36599 320.061L82.9423 389.047C85.8578 391.673 89.6748 392.794 93.5536 392.161L197.163 375.272C200.976 374.65 204.545 372.384 207.109 368.956L276.773 275.827C279.381 272.34 280.737 267.935 280.544 263.58L275.472 149.193C275.276 144.762 273.492 140.756 270.526 138.084L193.95 69.0981C191.034 66.4716 187.217 65.3513 183.338 65.9836L79.7287 82.8733Z" fill="url(#paint14_linear_4128_4)"/>
	<path opacity="0.684211" fill-rule="evenodd" clip-rule="evenodd" d="M189.329 77.058L90.4783 84.2864C86.7337 84.5602 83.1148 86.4843 80.4389 89.6241L9.7966 172.511C7.15858 175.606 5.65474 179.627 5.61586 183.69L4.55973 294.039C4.52139 298.045 5.91028 301.77 8.42883 304.417L77.8073 377.317C80.3617 380.001 83.8706 381.358 87.562 381.088L186.413 373.859C190.157 373.585 193.776 371.661 196.452 368.522L267.094 285.635C269.732 282.54 271.236 278.518 271.275 274.455L272.331 164.106C272.369 160.101 270.98 156.375 268.462 153.729L199.084 80.8285C196.529 78.1444 193.02 76.7881 189.329 77.058ZM90.4981 83.2642C86.504 83.5563 82.6438 85.6087 79.7895 88.9578L9.14719 171.844C6.3333 175.146 4.7292 179.436 4.68773 183.769L3.6316 294.118C3.5907 298.391 5.07219 302.365 7.75864 305.187L77.1371 378.088C79.8618 380.951 83.6046 382.398 87.5421 382.11L186.393 374.881C190.387 374.589 194.247 372.537 197.101 369.188L267.744 286.301C270.557 283 272.162 278.71 272.203 274.376L273.259 164.027C273.3 159.755 271.819 155.781 269.132 152.958L199.754 80.0577C197.029 77.1946 193.286 75.7479 189.349 76.0358L90.4981 83.2642Z" fill="url(#paint15_linear_4128_4)"/>
	<path opacity="0.736842" fill-rule="evenodd" clip-rule="evenodd" d="M194.336 87.2754L100.828 85.7327C96.9356 85.6685 93.0524 87.3563 90.1055 90.393L19.3047 163.351C16.4881 166.253 14.7631 170.145 14.5087 174.171L7.81791 280.018C7.57439 283.871 8.69631 287.552 10.9566 290.316L73.0571 366.264C75.4192 369.153 78.8354 370.81 82.5552 370.872L176.063 372.414C179.955 372.478 183.838 370.791 186.785 367.754L257.586 294.796C260.403 291.894 262.128 288.002 262.382 283.976L269.073 178.129C269.316 174.276 268.195 170.595 265.934 167.831L203.834 91.8826C201.472 88.9939 198.056 87.3368 194.336 87.2754ZM100.924 84.7198C96.7722 84.6513 92.6301 86.4517 89.4867 89.6908L18.6859 162.649C15.6816 165.744 13.8416 169.896 13.5702 174.19L6.87941 280.038C6.61965 284.147 7.81637 288.073 10.2273 291.022L72.3279 366.97C74.8474 370.051 78.4913 371.819 82.4592 371.884L175.967 373.427C180.119 373.496 184.261 371.695 187.404 368.456L258.205 295.498C261.209 292.402 263.049 288.251 263.321 283.957L270.011 178.109C270.271 174 269.075 170.074 266.664 167.125L204.563 91.177C202.043 88.0956 198.4 86.3281 194.432 86.2626L100.924 84.7198Z" fill="url(#paint16_linear_4128_4)"/>
	<path opacity="0.789474" fill-rule="evenodd" clip-rule="evenodd" d="M198.429 97.5557L110.761 88.1795C106.748 87.7504 102.615 89.1657 99.4023 92.0689L29.2165 155.497C26.238 158.189 24.3045 161.932 23.8397 165.905L12.0315 266.85C11.5991 270.546 12.4697 274.172 14.4766 277.033L69.2856 355.166C71.443 358.242 74.7435 360.192 78.464 360.59L166.132 369.966C170.145 370.396 174.278 368.98 177.49 366.077L247.676 302.648C250.655 299.957 252.588 296.214 253.053 292.241L264.861 191.296C265.294 187.6 264.423 183.974 262.416 181.113L207.607 102.98C205.45 99.904 202.149 97.9536 198.429 97.5557ZM110.931 87.1827C106.651 86.7249 102.242 88.2346 98.8155 91.3314L28.6297 154.76C25.4526 157.631 23.3902 161.623 22.8944 165.862L11.0862 266.806C10.625 270.749 11.5536 274.616 13.6944 277.668L68.5033 355.802C70.8045 359.082 74.3251 361.163 78.2936 361.587L165.961 370.963C170.242 371.421 174.65 369.911 178.077 366.814L248.263 303.386C251.44 300.515 253.502 296.523 253.998 292.284L265.806 191.34C266.268 187.397 265.339 183.53 263.198 180.478L208.389 102.344C206.088 99.0638 202.568 96.9834 198.599 96.5589L110.931 87.1827Z" fill="url(#paint17_linear_4128_4)"/>
	<path opacity="0.842105" fill-rule="evenodd" clip-rule="evenodd" d="M201.622 107.801L120.203 91.5656C116.101 90.7477 111.738 91.8552 108.269 94.5948L39.4192 148.972C36.297 151.438 34.169 155.015 33.5 158.921L17.1105 254.624C16.5045 258.163 17.1385 261.725 18.8975 264.663L66.4668 344.131C68.4086 347.375 71.5709 349.609 75.2631 350.346L156.682 366.581C160.783 367.399 165.147 366.291 168.616 363.551L237.465 309.174C240.588 306.708 242.716 303.132 243.385 299.225L259.774 203.522C260.38 199.983 259.746 196.421 257.987 193.483L210.418 114.015C208.476 110.771 205.314 108.537 201.622 107.801ZM120.445 90.5912C116.07 89.7187 111.416 90.9001 107.716 93.8223L38.866 148.199C35.5356 150.83 33.2658 154.645 32.5521 158.812L16.1627 254.515C15.5162 258.289 16.1925 262.089 18.0687 265.223L65.638 344.692C67.7093 348.152 71.0824 350.535 75.0207 351.32L156.439 367.555C160.815 368.427 165.469 367.246 169.169 364.324L238.019 309.947C241.349 307.317 243.619 303.501 244.333 299.334L260.722 203.631C261.368 199.857 260.692 196.057 258.816 192.923L211.247 113.455C209.175 109.994 205.802 107.611 201.864 106.826L120.445 90.5912Z" fill="url(#paint18_linear_4128_4)"/>
	<path opacity="0.894737" fill-rule="evenodd" clip-rule="evenodd" d="M203.951 117.913L129.102 95.821C124.947 94.5944 120.378 95.3611 116.666 97.9081L49.8163 143.781C46.5701 146.009 44.263 149.406 43.3964 153.233L22.9759 243.42C22.2104 246.802 22.6212 250.292 24.1376 253.29L64.5842 333.263C66.3005 336.657 69.3023 339.162 72.9369 340.235L147.786 362.327C151.941 363.554 156.51 362.787 160.222 360.24L227.072 314.367C230.318 312.139 232.625 308.743 233.492 304.915L253.912 214.728C254.678 211.347 254.267 207.856 252.751 204.858L212.304 124.885C210.588 121.492 207.586 118.986 203.951 117.913ZM129.414 94.8749C124.981 93.5666 120.108 94.3845 116.149 97.1012L49.2986 142.975C45.836 145.351 43.3751 148.974 42.4507 153.056L22.0303 243.244C21.2137 246.85 21.6519 250.574 23.2693 253.772L63.7159 333.744C65.5467 337.364 68.7486 340.037 72.6255 341.181L147.474 363.273C151.907 364.582 156.78 363.764 160.739 361.047L227.589 315.174C231.052 312.797 233.513 309.174 234.437 305.092L254.858 214.905C255.674 211.298 255.236 207.575 253.619 204.376L213.172 124.404C211.341 120.784 208.139 118.112 204.263 116.967L129.414 94.8749Z" fill="url(#paint19_linear_4128_4)"/>
	<path opacity="0.947368" fill-rule="evenodd" clip-rule="evenodd" d="M205.447 127.799L137.399 100.868C133.228 99.2171 128.483 99.6134 124.545 101.941L60.2983 139.92C56.949 141.9 54.4787 145.105 53.4219 148.841L29.5293 233.306C28.6173 236.53 28.8171 239.943 30.096 242.984L63.6 322.657C65.0821 326.181 67.9018 328.944 71.4493 330.348L139.497 357.28C143.668 358.93 148.413 358.534 152.351 356.206L216.598 318.228C219.947 316.248 222.417 313.043 223.474 309.307L247.367 224.841C248.279 221.617 248.079 218.204 246.8 215.163L213.296 135.491C211.814 131.966 208.994 129.203 205.447 127.799ZM137.776 99.9558C133.327 98.195 128.266 98.6176 124.065 101.101L59.8186 139.079C56.2459 141.191 53.611 144.61 52.4836 148.595L28.5911 233.06C27.6182 236.499 27.8314 240.14 29.1956 243.384L62.6996 323.056C64.2804 326.815 67.2881 329.763 71.0721 331.26L139.12 358.192C143.569 359.952 148.63 359.53 152.831 357.047L217.078 319.068C220.65 316.956 223.285 313.538 224.413 309.552L248.305 225.087C249.278 221.648 249.065 218.008 247.701 214.764L214.197 135.091C212.616 131.332 209.608 128.385 205.824 126.887L137.776 99.9558Z" fill="url(#paint20_linear_4128_4)"/>
	<path fill-rule="evenodd" clip-rule="evenodd" d="M206.137 137.372L145.034 106.627C140.888 104.541 135.999 104.541 131.853 106.627L70.7504 137.372C67.3194 139.098 64.7027 142.102 63.4631 145.738L36.6605 224.341C35.6144 227.409 35.6144 230.737 36.6605 233.805L63.4631 312.408C64.7027 316.043 67.3194 319.047 70.7504 320.773L131.853 351.518C135.999 353.604 140.888 353.604 145.034 351.518L206.137 320.773C209.568 319.047 212.185 316.043 213.425 312.408L240.227 233.805C241.273 230.737 241.273 227.409 240.227 224.341L213.425 145.738C212.185 142.102 209.568 139.098 206.137 137.372ZM145.474 105.754C141.051 103.529 135.836 103.529 131.414 105.754L70.3111 136.499C66.6513 138.34 63.8602 141.544 62.5379 145.422L35.7354 224.025C34.6195 227.298 34.6195 230.848 35.7354 234.12L62.5379 312.723C63.8602 316.601 66.6513 319.805 70.3111 321.647L131.414 352.392C135.836 354.617 141.051 354.617 145.474 352.392L206.577 321.647C210.236 319.805 213.027 316.601 214.35 312.723L241.152 234.12C242.268 230.848 242.268 227.298 241.152 224.025L214.35 145.422C213.027 141.544 210.236 138.34 206.577 136.499L145.474 105.754Z" fill="url(#paint21_linear_4128_4)"/>
	<animateTransform 
                attributeType="xml"
                attributeName="transform"
                type="rotate"
                from="0 137.5 229.5"
                to="360 137.5 229.5"
                dur="10s"
                additive="sum"
                repeatCount="indefinite" />
    </g>
</g>
<path fill-rule="evenodd" clip-rule="evenodd" d="M2.91077 25.1335C1.68738 26.3558 1 28.0142 1 29.7435V431.256C1 432.986 1.68739 434.644 2.91077 435.866L25.158 458.093C26.38 459.314 28.0366 460 29.7639 460H247.236C248.963 460 250.62 459.314 251.842 458.093L274.089 435.866C275.313 434.644 276 432.986 276 431.256V29.7436C276 28.0142 275.313 26.3558 274.089 25.1335L251.842 2.90656C250.62 1.68575 248.963 1 247.236 1H29.7639C28.0366 1 26.38 1.68575 25.158 2.90656L2.91077 25.1335ZM12.0762 31.5994L31.6259 12.0675H245.37L264.92 31.5994V429.399L245.37 448.931H31.6259L12.0762 429.399V31.5994Z" fill="url(#paint22_linear_4128_4)"/>
<path fill-rule="evenodd" clip-rule="evenodd" d="M38 56.3505C38 55.3119 38.4133 54.3159 39.1486 53.5824L55.1281 37.6418C55.8611 36.9106 56.8542 36.5 57.8895 36.5L219.111 36.5C220.146 36.5 221.139 36.9106 221.872 37.6418L237.851 53.5824C238.587 54.3159 239 55.3119 239 56.3505L239 404.649C239 405.688 238.587 406.684 237.851 407.418L221.872 423.358C221.139 424.089 220.146 424.5 219.111 424.5H57.8895C56.8542 424.5 55.8611 424.089 55.1281 423.358L39.1486 407.418C38.4133 406.684 38 405.688 38 404.649L38 56.3505ZM123.709 369.982H153.987V371.95H123.709V369.982ZM108.245 339.784L138.519 322.363L168.793 339.784V374.597L138.519 392.017L108.245 374.597V339.784ZM138.519 316.845L173.576 337.018V377.363L138.519 397.535L103.462 377.363V337.018L138.519 316.845ZM146.402 353.611H147.219C147.678 353.611 148.129 353.577 148.571 353.509C149.03 353.424 149.447 353.279 149.821 353.074C150.196 352.87 150.493 352.597 150.714 352.256C150.952 351.898 151.072 351.438 151.072 350.875C151.072 350.466 150.995 350.099 150.842 349.776C150.689 349.452 150.476 349.179 150.204 348.957C149.949 348.736 149.643 348.565 149.286 348.446C148.945 348.327 148.588 348.267 148.214 348.267C147.466 348.267 146.845 348.48 146.351 348.906C145.858 349.332 145.518 349.895 145.331 350.594L142.448 349.852C142.601 349.239 142.856 348.685 143.213 348.19C143.587 347.679 144.03 347.244 144.54 346.886C145.067 346.511 145.654 346.221 146.3 346.017C146.947 345.812 147.627 345.71 148.342 345.71C149.124 345.71 149.864 345.821 150.561 346.042C151.276 346.247 151.896 346.562 152.424 346.988C152.968 347.397 153.393 347.909 153.699 348.523C154.006 349.136 154.159 349.852 154.159 350.671C154.159 351.642 153.861 352.512 153.266 353.279C152.687 354.029 151.905 354.523 150.918 354.762V354.813C152.024 355.035 152.917 355.537 153.597 356.322C154.295 357.089 154.643 358.035 154.643 359.16C154.643 360.098 154.456 360.916 154.082 361.615C153.725 362.314 153.24 362.893 152.628 363.353C152.033 363.814 151.361 364.155 150.612 364.376C149.864 364.615 149.107 364.734 148.342 364.734C147.576 364.734 146.853 364.649 146.173 364.479C145.492 364.325 144.863 364.078 144.285 363.737C143.723 363.396 143.222 362.953 142.779 362.407C142.354 361.862 142.023 361.214 141.784 360.464L144.642 359.569C144.863 360.285 145.271 360.89 145.867 361.385C146.479 361.879 147.27 362.126 148.239 362.126C148.631 362.126 149.022 362.075 149.413 361.973C149.821 361.853 150.179 361.674 150.485 361.436C150.808 361.197 151.063 360.89 151.25 360.515C151.454 360.14 151.556 359.68 151.556 359.134C151.556 358.555 151.412 358.069 151.123 357.677C150.85 357.268 150.502 356.952 150.076 356.731C149.651 356.492 149.175 356.322 148.648 356.219C148.137 356.117 147.644 356.066 147.168 356.066H146.402V353.611ZM123.049 346.17H126.646L131.622 360.106H131.724L136.75 346.17H140.22L132.974 364.274H130.193L123.049 346.17ZM160.995 64.209H165.995V118.553L160.995 113.575V64.209ZM155.994 64.209H150.995V103.617L155.994 108.595V64.209ZM140.994 64.209H145.993V98.6406L140.994 93.6626V64.209ZM131.001 83.9097V118.552H136V88.8876L131.001 83.9097ZM121 118.552V73.9529L126 78.9308V118.552H121ZM110.999 63.9998V118.951H115.988V68.9669L110.999 63.9998ZM159.512 155.938V154.765H151.594L158.046 148.313H159.512V147.14H147V148.313H156.286L149.835 154.765H147V155.938H159.512ZM148.564 161.551L147 163.115V167.611L148.564 169.175H157.948L159.512 167.611V163.115L157.948 161.551H148.564ZM148.173 167.025V163.701L149.15 162.724H157.361L158.339 163.701V167.025L157.361 168.002H149.15L148.173 167.025ZM158.339 181.481H159.512V173.661H158.339V176.985H147V178.158H158.339V181.481ZM158.339 189.052V190.713H159.512V186.217H158.339V187.879H148.173V186.217H147V190.713H148.173V189.052H158.339ZM148.564 196.077L147 197.641V202.138L148.564 203.702H157.948L159.512 202.138V197.641L157.948 196.077H148.564ZM148.173 201.551V198.228L149.15 197.25H157.361L158.339 198.228V201.551L157.361 202.529H149.15L148.173 201.551ZM159.512 218.384V217.211H151.594L158.046 210.76H159.512V209.587H147V210.76H156.286L149.835 217.211H147V218.384H159.512ZM156.384 231.881L159.512 228.753V227.385L156.384 224.257H147V225.43H151.887V230.708H147V231.881H156.384ZM153.06 230.708V225.43H155.797L158.339 227.971V228.167L155.797 230.708H153.06ZM159.512 237.766H147V243.827H148.173V238.939H159.512V237.766ZM159.512 274.357V273.184H151.399L148.743 270.529L151.399 267.906H159.512V266.733H150.812L147 270.545L150.812 274.357H159.512ZM148.564 279.968L147 281.532V286.028L148.564 287.592H152.083L153.256 286.419L154.429 287.592H157.948L159.512 286.028V281.532L157.948 279.968H156.384V281.141H157.361L158.339 282.118V285.442L157.361 286.419H154.82L153.842 285.442V281.532H152.669V285.442L151.692 286.419H149.15L148.173 285.442V282.118L149.15 281.141H150.128V279.968H148.564ZM120.564 147.14L119 148.704L119 153.201L120.564 154.765L121.444 153.885L120.173 152.614L120.173 149.291L121.15 148.313H129.361L130.339 149.291V152.614L129.361 153.592H128.384V154.765H129.948L131.512 153.201V148.704L129.948 147.14H120.564ZM131.512 160.836L119 160.836V166.897H120.173V162.009H131.512V160.836ZM120.564 172.974L119 174.538V179.035L120.564 180.599H129.948L131.512 179.035V174.538L129.948 172.974H120.564ZM120.173 178.448V175.125L121.15 174.147H129.361L130.339 175.125V178.448L129.361 179.426H121.15L120.173 178.448ZM120.564 187.266L119 188.83V193.326L120.564 194.89H123.692L125.842 192.74V190.003L127.406 188.439H129.361L130.339 189.416V192.74L129.361 193.717H128.384V194.89H129.948L131.512 193.326V188.83L129.948 187.266H126.82L124.669 189.416V192.153L123.105 193.717H121.15L120.173 192.74V189.416L121.15 188.439H122.128V187.266H120.564ZM130.339 202.455V208.907H131.512V201.282H119V208.907H120.173V202.455H124.669V208.125H125.842V202.455H130.339ZM129.166 222.602L131.512 220.257V214.978H119V220.257L121.346 222.602L129.166 222.602ZM128.579 221.43H121.932L120.173 219.67V216.151H130.339V219.67L128.579 221.43ZM126.429 246.481H129.948L131.512 244.917L131.512 238.857H119V244.917L120.564 246.481H124.083L125.256 245.308L126.429 246.481ZM129.361 245.308H126.82L125.842 244.331V240.03H130.339V244.331L129.361 245.308ZM123.692 245.308H121.15L120.173 244.331V240.03H124.669V244.331L123.692 245.308ZM130.339 254.321V260.773H131.512V253.148H119V260.773H120.173V254.321H124.669V259.991H125.842V254.321H130.339ZM130.339 273.784H131.512V265.964H130.339V269.288H119V270.461H130.339V273.784ZM128.384 286.668L131.512 283.54V282.171L128.384 279.043H119V280.216H123.887V285.495H119V286.668L128.384 286.668ZM125.06 285.495V280.216H127.797L130.339 282.758V282.953L127.797 285.495H125.06Z" fill="url(#paint23_linear_4128_4)"/>
<defs>
<filter id="filter0_f_4128_4" x="12.546" y="64.9982" width="251.482" height="359.926" filterUnits="userSpaceOnUse" color-interpolation-filters="sRGB">
<feFlood flood-opacity="0" result="BackgroundImageFix"/>
<feBlend mode="normal" in="SourceGraphic" in2="BackgroundImageFix" result="shape"/>
<feGaussianBlur stdDeviation="39.8637" result="effect1_foregroundBlur_4128_4"/>
</filter>
<filter id="filter1_f_4128_4" x="99.0206" y="66.0289" width="194.248" height="288.991" filterUnits="userSpaceOnUse" color-interpolation-filters="sRGB">
<feFlood flood-opacity="0" result="BackgroundImageFix"/>
<feBlend mode="normal" in="SourceGraphic" in2="BackgroundImageFix" result="shape"/>
<feGaussianBlur stdDeviation="28.4741" result="effect1_foregroundBlur_4128_4"/>
</filter>
<filter id="filter2_f_4128_4" x="-53.7021" y="62.0269" width="235.23" height="377.567" filterUnits="userSpaceOnUse" color-interpolation-filters="sRGB">
<feFlood flood-opacity="0" result="BackgroundImageFix"/>
<feBlend mode="normal" in="SourceGraphic" in2="BackgroundImageFix" result="shape"/>
<feGaussianBlur stdDeviation="28.4741" result="effect1_foregroundBlur_4128_4"/>
</filter>
<filter id="filter3_f_4128_4" x="79.4679" y="191.239" width="164.533" height="222.966" filterUnits="userSpaceOnUse" color-interpolation-filters="sRGB">
<feFlood flood-opacity="0" result="BackgroundImageFix"/>
<feBlend mode="normal" in="SourceGraphic" in2="BackgroundImageFix" result="shape"/>
<feGaussianBlur stdDeviation="28.4741" result="effect1_foregroundBlur_4128_4"/>
</filter>
<filter id="filter4_f_4128_4" x="-60.709" y="-107.553" width="395.814" height="667.641" filterUnits="userSpaceOnUse" color-interpolation-filters="sRGB">
<feFlood flood-opacity="0" result="BackgroundImageFix"/>
<feBlend mode="normal" in="SourceGraphic" in2="BackgroundImageFix" result="shape"/>
<feGaussianBlur stdDeviation="11.957" result="effect1_foregroundBlur_4128_4"/>
</filter>
<filter id="filter5_dd_4128_4" x="-49.893" y="-97.591" width="378.169" height="654.551" filterUnits="userSpaceOnUse" color-interpolation-filters="sRGB">
<feFlood flood-opacity="0" result="BackgroundImageFix"/>
<feColorMatrix in="SourceAlpha" type="matrix" values="0 0 0 0 0 0 0 0 0 0 0 0 0 0 0 0 0 0 127 0" result="hardAlpha"/>
<feOffset dx="-3.41689" dy="-4.27111"/>
<feGaussianBlur stdDeviation="4.84059"/>
<feColorMatrix type="matrix" values="0 0 0 0 1 0 0 0 0 1 0 0 0 0 1 0 0 0 0.4 0"/>
<feBlend mode="normal" in2="BackgroundImageFix" result="effect1_dropShadow_4128_4"/>
<feColorMatrix in="SourceAlpha" type="matrix" values="0 0 0 0 0 0 0 0 0 0 0 0 0 0 0 0 0 0 127 0" result="hardAlpha"/>
<feOffset dx="3.70163" dy="7.40326"/>
<feGaussianBlur stdDeviation="6.69141"/>
<feColorMatrix type="matrix" values="0 0 0 0 0 0 0 0 0 0 0 0 0 0 0 0 0 0 0.25 0"/>
<feBlend mode="normal" in2="effect1_dropShadow_4128_4" result="effect2_dropShadow_4128_4"/>
<feBlend mode="normal" in="SourceGraphic" in2="effect2_dropShadow_4128_4" result="shape"/>
</filter>
<filter id="filter6_f_4128_4" x="-199.779" y="-64.9239" width="575.544" height="576.053" filterUnits="userSpaceOnUse" color-interpolation-filters="sRGB">
<feFlood flood-opacity="0" result="BackgroundImageFix"/>
<feBlend mode="normal" in="SourceGraphic" in2="BackgroundImageFix" result="shape"/>
<feGaussianBlur stdDeviation="91.2322" result="effect1_foregroundBlur_4128_4"/>
</filter>
<filter id="filter7_f_4128_4" x="-1.87276" y="-35.694" width="444.552" height="445.062" filterUnits="userSpaceOnUse" color-interpolation-filters="sRGB">
<feFlood flood-opacity="0" result="BackgroundImageFix"/>
<feBlend mode="normal" in="SourceGraphic" in2="BackgroundImageFix" result="shape"/>
<feGaussianBlur stdDeviation="65.1659" result="effect1_foregroundBlur_4128_4"/>
</filter>
<filter id="filter8_f_4128_4" x="-351.396" y="-39.9089" width="538.345" height="538.346" filterUnits="userSpaceOnUse" color-interpolation-filters="sRGB">
<feFlood flood-opacity="0" result="BackgroundImageFix"/>
<feBlend mode="normal" in="SourceGraphic" in2="BackgroundImageFix" result="shape"/>
<feGaussianBlur stdDeviation="65.1659" result="effect1_foregroundBlur_4128_4"/>
</filter>
<filter id="filter9_f_4128_4" x="-46.6267" y="96.1687" width="376.55" height="375.529" filterUnits="userSpaceOnUse" color-interpolation-filters="sRGB">
<feFlood flood-opacity="0" result="BackgroundImageFix"/>
<feBlend mode="normal" in="SourceGraphic" in2="BackgroundImageFix" result="shape"/>
<feGaussianBlur stdDeviation="65.1659" result="effect1_foregroundBlur_4128_4"/>
</filter>
<filter id="filter10_f_4128_4" x="-246.39" y="1.33733" width="576.081" height="575.476" filterUnits="userSpaceOnUse" color-interpolation-filters="sRGB">
<feFlood flood-opacity="0" result="BackgroundImageFix"/>
<feBlend mode="normal" in="SourceGraphic" in2="BackgroundImageFix" result="shape"/>
<feGaussianBlur stdDeviation="91.2322" result="effect1_foregroundBlur_4128_4"/>
</filter>
<filter id="filter11_f_4128_4" x="-83.2829" y="163.367" width="445.095" height="444.488" filterUnits="userSpaceOnUse" color-interpolation-filters="sRGB">
<feFlood flood-opacity="0" result="BackgroundImageFix"/>
<feBlend mode="normal" in="SourceGraphic" in2="BackgroundImageFix" result="shape"/>
<feGaussianBlur stdDeviation="65.1659" result="effect1_foregroundBlur_4128_4"/>
</filter>
<filter id="filter12_f_4128_4" x="-317.953" y="-124.417" width="538.32" height="538.321" filterUnits="userSpaceOnUse" color-interpolation-filters="sRGB">
<feFlood flood-opacity="0" result="BackgroundImageFix"/>
<feBlend mode="normal" in="SourceGraphic" in2="BackgroundImageFix" result="shape"/>
<feGaussianBlur stdDeviation="65.1659" result="effect1_foregroundBlur_4128_4"/>
</filter>
<filter id="filter13_f_4128_4" x="-171.91" y="177.641" width="375.421" height="376.634" filterUnits="userSpaceOnUse" color-interpolation-filters="sRGB">
<feFlood flood-opacity="0" result="BackgroundImageFix"/>
<feBlend mode="normal" in="SourceGraphic" in2="BackgroundImageFix" result="shape"/>
<feGaussianBlur stdDeviation="65.1659" result="effect1_foregroundBlur_4128_4"/>
</filter>
<linearGradient id="paint0_linear_4128_4" x1="256.617" y1="0.999998" x2="32.5257" y2="459.883" gradientUnits="userSpaceOnUse">
<stop stop-color="#C0C0C0"/>
<stop offset="1" stop-color="white" stop-opacity="0.33"/>
</linearGradient>
<linearGradient id="paint1_linear_4128_4" x1="262.059" y1="342.725" x2="-18.3993" y2="351.008" gradientUnits="userSpaceOnUse">
<stop offset="0.114706" stop-color="#004453"/>
<stop offset="1" stop-color="#002B36"/>
</linearGradient>
<linearGradient id="paint2_linear_4128_4" x1="426.382" y1="213.054" x2="-4.87069" y2="206.451" gradientUnits="userSpaceOnUse">
<stop stop-color="#BFC9F5" stop-opacity="0.5"/>
<stop offset="0.0001" stop-color="#8EA1F5" stop-opacity="0.5"/>
<stop offset="1" stop-color="#26CBCF"/>
</linearGradient>
<linearGradient id="paint3_linear_4128_4" x1="-39.6429" y1="159.973" x2="326.993" y2="259.731" gradientUnits="userSpaceOnUse">
<stop offset="0.551687" stop-color="white"/>
<stop offset="1" stop-color="#F6E7FF"/>
</linearGradient>
<linearGradient id="paint4_linear_4128_4" x1="-30.9982" y1="147.321" x2="322.72" y2="266.996" gradientUnits="userSpaceOnUse">
<stop offset="0.551687" stop-color="white"/>
<stop offset="1" stop-color="#F6E7FF"/>
</linearGradient>
<linearGradient id="paint5_linear_4128_4" x1="-21.7641" y1="135.761" x2="318.173" y2="274.602" gradientUnits="userSpaceOnUse">
<stop offset="0.551687" stop-color="white"/>
<stop offset="1" stop-color="#F6E7FF"/>
</linearGradient>
<linearGradient id="paint6_linear_4128_4" x1="-12.0248" y1="125.33" x2="313.209" y2="282.573" gradientUnits="userSpaceOnUse">
<stop offset="0.551687" stop-color="white"/>
<stop offset="1" stop-color="#F6E7FF"/>
</linearGradient>
<linearGradient id="paint7_linear_4128_4" x1="-1.86584" y1="116.055" x2="307.677" y2="290.897" gradientUnits="userSpaceOnUse">
<stop offset="0.551687" stop-color="white"/>
<stop offset="1" stop-color="#F6E7FF"/>
</linearGradient>
<linearGradient id="paint8_linear_4128_4" x1="8.62422" y1="107.951" x2="301.425" y2="299.517" gradientUnits="userSpaceOnUse">
<stop offset="0.551687" stop-color="white"/>
<stop offset="1" stop-color="#F6E7FF"/>
</linearGradient>
<linearGradient id="paint9_linear_4128_4" x1="19.3596" y1="101.029" x2="294.308" y2="308.342" gradientUnits="userSpaceOnUse">
<stop offset="0.551687" stop-color="white"/>
<stop offset="1" stop-color="#F6E7FF"/>
</linearGradient>
<linearGradient id="paint10_linear_4128_4" x1="30.2573" y1="95.2875" x2="286.201" y2="317.232" gradientUnits="userSpaceOnUse">
<stop offset="0.551687" stop-color="white"/>
<stop offset="1" stop-color="#F6E7FF"/>
</linearGradient>
<linearGradient id="paint11_linear_4128_4" x1="41.2266" y1="90.7192" x2="276.994" y2="326.011" gradientUnits="userSpaceOnUse">
<stop offset="0.551687" stop-color="white"/>
<stop offset="1" stop-color="#F6E7FF"/>
</linearGradient>
<linearGradient id="paint12_linear_4128_4" x1="52.1969" y1="87.306" x2="266.631" y2="334.461" gradientUnits="userSpaceOnUse">
<stop offset="0.551687" stop-color="white"/>
<stop offset="1" stop-color="#F6E7FF"/>
</linearGradient>
<linearGradient id="paint13_linear_4128_4" x1="63.0678" y1="85.0256" x2="255.073" y2="342.338" gradientUnits="userSpaceOnUse">
<stop offset="0.551687" stop-color="white"/>
<stop offset="1" stop-color="#F6E7FF"/>
</linearGradient>
<linearGradient id="paint14_linear_4128_4" x1="73.7813" y1="83.8428" x2="242.377" y2="349.37" gradientUnits="userSpaceOnUse">
<stop offset="0.551687" stop-color="white"/>
<stop offset="1" stop-color="#F6E7FF"/>
</linearGradient>
<linearGradient id="paint15_linear_4128_4" x1="84.2527" y1="83.7209" x2="228.637" y2="355.285" gradientUnits="userSpaceOnUse">
<stop offset="0.551687" stop-color="white"/>
<stop offset="1" stop-color="#F6E7FF"/>
</linearGradient>
<linearGradient id="paint16_linear_4128_4" x1="94.4149" y1="84.6125" x2="214.031" y2="359.82" gradientUnits="userSpaceOnUse">
<stop offset="0.551687" stop-color="white"/>
<stop offset="1" stop-color="#F6E7FF"/>
</linearGradient>
<linearGradient id="paint17_linear_4128_4" x1="104.202" y1="86.4631" x2="198.805" y2="362.74" gradientUnits="userSpaceOnUse">
<stop offset="0.551687" stop-color="white"/>
<stop offset="1" stop-color="#F6E7FF"/>
</linearGradient>
<linearGradient id="paint18_linear_4128_4" x1="113.548" y1="89.2159" x2="183.263" y2="363.872" gradientUnits="userSpaceOnUse">
<stop offset="0.551687" stop-color="white"/>
<stop offset="1" stop-color="#F6E7FF"/>
</linearGradient>
<linearGradient id="paint19_linear_4128_4" x1="122.407" y1="92.8068" x2="167.771" y2="363.111" gradientUnits="userSpaceOnUse">
<stop offset="0.551687" stop-color="white"/>
<stop offset="1" stop-color="#F6E7FF"/>
</linearGradient>
<linearGradient id="paint20_linear_4128_4" x1="130.724" y1="97.1646" x2="152.708" y2="360.437" gradientUnits="userSpaceOnUse">
<stop offset="0.551687" stop-color="white"/>
<stop offset="1" stop-color="#F6E7FF"/>
</linearGradient>
<linearGradient id="paint21_linear_4128_4" x1="138.444" y1="102.217" x2="138.444" y2="355.929" gradientUnits="userSpaceOnUse">
<stop offset="0.551687" stop-color="white"/>
<stop offset="1" stop-color="#F6E7FF"/>
</linearGradient>
<linearGradient id="paint22_linear_4128_4" x1="138.5" y1="1" x2="138.5" y2="460" gradientUnits="userSpaceOnUse">
<stop stop-color="#061D30"/>
<stop offset="1" stop-color="#012F3A"/>
</linearGradient>
<linearGradient id="paint23_linear_4128_4" x1="138.5" y1="37" x2="138.5" y2="425" gradientUnits="userSpaceOnUse">
<stop stop-color="#041D2E"/>
<stop offset="1" stop-color="#012E3A"/>
</linearGradient>
<clipPath id="clip0_4128_4">
<rect x="12.0762" y="8.8125" width="252.844" height="440.119" rx="19.5498" fill="white"/>
</clipPath>
</defs>
</svg>
