<svg xmlns="http://www.w3.org/2000/svg" fill="none" viewBox="0 0 20 19">
<path d="M18.0919 11.7089L18.2856 9.90905C18.3877 8.94844 18.4561 8.31507 18.4025 7.91605H18.4214C18.7817 7.91596 19.1312 7.79229 19.4117 7.56557C19.6923 7.33886 19.8871 7.02273 19.9638 6.66969C20.0405 6.31664 19.9945 5.94791 19.8334 5.6247C19.6723 5.3015 19.4058 5.04327 19.0782 4.89288C18.7506 4.74249 18.3815 4.70899 18.0323 4.79794C17.683 4.88689 17.3746 5.09294 17.1583 5.38189C16.9419 5.67083 16.8306 6.02528 16.8429 6.3864C16.8551 6.74752 16.9902 7.09358 17.2256 7.36713C16.8824 7.57931 16.434 8.02795 15.7592 8.70249C15.2381 9.2229 14.9781 9.48258 14.6876 9.5227C14.5266 9.54498 14.3626 9.52195 14.2139 9.45619C13.9465 9.33797 13.7675 9.01706 13.4107 8.37419L11.5264 4.98672C11.3064 4.59087 11.1222 4.25835 10.9558 3.99234C11.3772 3.77704 11.714 3.42576 11.912 2.9951C12.1099 2.56444 12.1576 2.07948 12.0472 1.61836C11.9368 1.15724 11.6748 0.746827 11.3034 0.453241C10.932 0.159656 10.4729 0 10 0C9.5271 0 9.06797 0.159656 8.69659 0.453241C8.32522 0.746827 8.06322 1.15724 7.95282 1.61836C7.84243 2.07948 7.89005 2.56444 8.08803 2.9951C8.28601 3.42576 8.62282 3.77704 9.04417 3.99234C8.87785 4.25941 8.69363 4.59087 8.47257 4.98672L6.58933 8.37419C6.23142 9.01706 6.05247 9.33797 5.78509 9.45619C5.63638 9.52195 5.47238 9.54498 5.31139 9.5227C5.0219 9.48258 4.76189 9.2229 4.24081 8.70249C3.56605 8.02795 3.11761 7.57931 2.77444 7.36713C3.00985 7.09358 3.14488 6.74752 3.15712 6.3864C3.16935 6.02528 3.05806 5.67083 2.84171 5.38189C2.62536 5.09294 2.31697 4.88689 1.96773 4.79794C1.6185 4.70899 1.24944 4.74249 0.921808 4.89288C0.59418 5.04327 0.327698 5.3015 0.166603 5.6247C0.00550779 5.94791 -0.0405095 6.31664 0.0361906 6.66969C0.112891 7.02273 0.307694 7.33886 0.588261 7.56557C0.868827 7.79229 1.21828 7.91596 1.5786 7.91605H1.59755C1.54386 8.31507 1.61229 8.9495 1.71439 9.90905L1.90809 11.7089C2.01546 12.7075 2.10388 13.6586 2.21336 14.5136H17.7866C17.8961 13.6586 17.9845 12.7085 18.0919 11.7089ZM8.85469 19H11.1453C14.1307 19 15.6234 19 16.6192 18.1059C17.054 17.7153 17.3287 17.0123 17.5277 16.0971H2.47232C2.67128 17.0123 2.94602 17.7164 3.38078 18.1059C4.37661 19 5.8693 19 8.85469 19Z" fill="#33F8FF"/>
</svg>