<svg xmlns="http://www.w3.org/2000/svg" fill="none" viewBox="0.42 0 48.18 48.51">
<path d="M38.4675 21.3984V7.78125C38.4675 3.48332 34.9137 0 30.5288 0H15.1474C10.7625 0 7.20868 3.48332 7.20868 7.78125V21.3984C-2.94388 21.3984 75.8317 21.3984 38.4675 21.3984ZM9.90087 7.78125C9.90087 4.71918 11.665 2.41363 15.1934 2.41363H30.5747C33.4231 2.41363 35.7754 4.14279 35.7754 7.78125V21.3984H9.90087V7.78125Z" fill="#33F8FF"/>
<path d="M43.0768 20.75H38.76H6.76435H2.44748C1.32383 20.75 0.416016 21.6361 0.416016 22.7328V46.5261C0.416016 47.6228 1.32383 48.5089 2.44748 48.5089H43.0768C44.2005 48.5089 45.1083 47.6228 45.1083 46.5261V22.7328C45.1083 21.6361 44.2005 20.75 43.0768 20.75ZM42.7561 46.2033H2.76824V23.1478H42.7561V46.2033ZM20.9846 35.4349V38.7189C20.9846 38.9915 21.2132 39.2146 21.4925 39.2146H24.0318C24.3112 39.2146 24.5397 38.9915 24.5397 38.7189V35.4349C25.0637 35.0677 25.4549 34.5477 25.6568 33.9497C25.8588 33.3517 25.8611 32.7066 25.6635 32.1072C25.4659 31.5078 25.0785 30.9851 24.5571 30.6143C24.0357 30.2435 23.4073 30.0437 22.7622 30.0437C22.1171 30.0437 21.4886 30.2435 20.9672 30.6143C20.4458 30.9851 20.0585 31.5078 19.8608 32.1072C19.6632 32.7066 19.6656 33.3517 19.8675 33.9497C20.0694 34.5477 20.4606 35.0677 20.9846 35.4349Z" fill="#33F8FF"/>
</svg>