<svg xmlns="http://www.w3.org/2000/svg" fill="none" viewBox="0 0 24 24">
<path d="M23.9998 12C23.9998 14.8597 22.9786 17.6255 21.12 19.7989C19.2615 21.9723 16.6879 23.4106 13.8628 23.8546C11.0377 24.2986 8.147 23.7191 5.71136 22.2205C3.27572 20.7219 1.45532 18.4028 0.578125 15.6809L2.54153 15.0482C3.26794 17.3021 4.7754 19.2226 6.79235 20.4636C8.80929 21.7045 11.2031 22.1844 13.5425 21.8168C15.882 21.4491 18.0132 20.2581 19.5522 18.4583C20.1894 17.7131 20.7077 16.884 21.0964 16H17.5998L23.9998 12Z" fill="#013D4A"/>
<path d="M0.000150266 12C0.000150266 9.14027 1.02142 6.37454 2.87997 4.2011C4.73851 2.02765 7.31215 0.589379 10.1372 0.145396C12.9623 -0.298587 15.853 0.280912 18.2886 1.77949C20.7243 3.27806 22.5447 5.59719 23.4219 8.31906L21.4585 8.95183C20.7321 6.69785 19.2246 4.77739 17.2077 3.53642C15.1907 2.29545 12.7969 1.81557 10.4575 2.18323C8.11804 2.55089 5.98682 3.74192 4.44777 5.54175C3.81062 6.28685 3.29229 7.11602 2.90361 7.99996H6.40016L0.000150266 12Z" fill="#013D4A"/>
<path d="M6.34375 11.7739C6.34375 10.9439 7.74299 10.2807 9.30776 10.2807C10.0295 10.2807 10.7327 10.4149 11.2838 10.6442M6.34375 11.7739C6.34375 12.8798 8.01106 13.2485 9.30776 13.267C10.6423 13.286 12.3554 12.6677 12.3799 11.7739M6.34375 11.7739C6.34375 12.5434 6.34375 12.9748 6.34375 13.7443M12.3799 11.7739C12.3529 12.7592 12.3614 12.4479 12.3496 12.8798M12.3799 11.7739C12.3636 11.3092 11.9274 10.9119 11.2838 10.6442M12.3259 13.7443C12.2988 14.7297 10.6234 15.2469 9.30776 15.2374C8.01096 15.2281 6.34375 14.747 6.34375 13.7443M12.3259 13.7443C12.314 14.1764 12.3006 14.6638 12.2953 14.8566M12.3259 13.7443C12.3259 13.7443 12.3403 13.2174 12.3496 12.8798M6.34375 13.7443C6.34375 14.5138 6.34375 15.7148 6.34375 15.7148C6.34375 16.6168 8.02518 17.2079 9.30776 17.2079C10.5903 17.2079 12.2953 16.71 12.2953 15.7073C12.2953 15.7073 12.2823 15.33 12.2953 14.8566M11.2838 7.83295C11.2838 6.86517 12.9509 6.33984 14.2478 6.33984C15.5446 6.33984 17.2118 6.86517 17.2118 7.83295M11.2838 7.83295C11.2838 8.83562 12.9509 9.32606 14.2478 9.32606C15.5446 9.32606 17.2118 8.89851 17.2118 7.83295M11.2838 7.83295C11.2838 8.50721 11.2838 9.03389 11.2838 9.8034M17.2118 7.83295C17.2118 8.60246 17.2118 9.03389 17.2118 9.8034M12.2953 14.8566C12.7658 15.0581 13.3151 15.2374 14.2478 15.2374C15.5446 15.2374 17.2118 14.8566 17.2118 13.7443C17.2118 13.7443 17.2118 12.5434 17.2118 11.7739M17.2118 11.7739C17.2118 12.8798 15.3874 13.267 14.2478 13.267C13.1081 13.267 12.6011 13.0875 12.3496 12.8798M17.2118 11.7739C17.2118 11.0043 17.2118 10.5729 17.2118 9.8034M17.2118 9.8034C17.2118 10.8061 15.5446 11.2965 14.2478 11.2965C12.9509 11.2965 11.2838 10.8061 11.2838 9.8034M11.2838 9.8034V10.6442" stroke="#013D4A" stroke-width="0.905672"/>
</svg>