<?xml version="1.0" encoding="utf-8"?>
<!-- Generator: Adobe Illustrator 26.0.3, SVG Export Plug-In . SVG Version: 6.00 Build 0)  -->
<svg version="1.1" id="Layer_1" xmlns="http://www.w3.org/2000/svg" xmlns:xlink="http://www.w3.org/1999/xlink" x="0px" y="0px"
	 viewBox="0 0 24 24" style="enable-background:new 0 0 24 24;" xml:space="preserve">
<style type="text/css">
	.st0{fill:#FFFFFF;}
</style>
<path d="M12,0C9.6,0,7.3,0.7,5.3,2c-2,1.3-3.5,3.2-4.4,5.4s-1.1,4.6-0.7,6.9c0.5,2.3,1.6,4.5,3.3,6.1c1.7,1.7,3.8,2.8,6.1,3.3
	c2.3,0.5,4.7,0.2,6.9-0.7c2.2-0.9,4.1-2.4,5.4-4.4c1.3-2,2-4.3,2-6.7c0-3.2-1.3-6.2-3.5-8.5C18.2,1.3,15.2,0,12,0z"/>
<path class="st0" d="M10.3,16.6L6,12.4l1.2-1.2l3.1,3.1l6.5-6.5L18,8.9L10.3,16.6z"/>
</svg>
