<svg xmlns="http://www.w3.org/2000/svg" fill="none" viewBox="0 0 20 18">
<g clip-path="url(#clip0_4312_3941)">
<path d="M10.0003 7C8.68029 7 8.01729 7.421 7.06929 8.924L6.82529 9.322L6.43029 10.01C6.38304 10.0945 6.33604 10.1792 6.28929 10.264C6.04929 10.698 5.71829 11.017 5.15029 11.406L4.60029 11.771C3.66029 12.398 3.16829 12.889 2.89329 13.726C2.76929 14.064 2.69729 14.579 2.70029 15.006C2.70029 16.693 3.89829 18 5.50029 18L5.74229 17.994C5.86129 17.988 5.97629 17.977 6.09629 17.96L6.34429 17.917L6.47629 17.889L6.76729 17.816L6.92929 17.771L7.49929 17.601L8.26229 17.358L8.71729 17.222C9.24729 17.072 9.65729 17 10.0003 17C10.3443 17 10.7533 17.073 11.2833 17.222L11.7383 17.358L12.5023 17.6L13.0713 17.771L13.3833 17.855C13.4803 17.879 13.5703 17.9 13.6563 17.917L13.9043 17.96C14.0243 17.977 14.1393 17.988 14.2583 17.994L14.5003 18C16.1023 18 17.3003 16.693 17.3003 15C17.3003 14.573 17.2273 14.061 17.0933 13.694C16.8573 12.97 16.4163 12.471 15.6133 11.864L15.3563 11.674L14.8283 11.294C14.1863 10.824 13.8253 10.468 13.5753 10.016L13.3053 9.531L13.0533 9.099C12.0423 7.403 11.4353 7 10.0003 7ZM17.7803 4H17.7503C16.5313 4.02 15.4003 5.066 14.8423 6.504C14.1523 8.279 14.4943 10.224 15.9173 10.837C16.1733 10.946 16.4443 11 16.7183 11C17.9493 11 19.0983 9.947 19.6613 8.496C20.3473 6.722 20.0013 4.776 18.5853 4.164C18.3311 4.05571 18.0566 3.99992 17.7803 4ZM7.02529 0C6.91329 0 6.84029 0.0020001 6.75529 0.0150001L6.66229 0.0309999C5.13029 0.237 4.26529 2.02 4.55429 3.886C4.82629 5.611 6.01629 7 7.47429 7L7.66129 6.995C7.68939 6.99261 7.71741 6.98927 7.74529 6.985L7.83729 6.969C9.37029 6.763 10.2343 4.98 9.94529 3.114C9.67529 1.387 8.48529 0 7.02529 0Z" fill="#33F8FF"/>
<path d="M12.9717 6.05609e-06C11.5127 6.05609e-06 10.3247 1.38801 10.0557 3.11301C9.76569 4.98001 10.6297 6.76301 12.2297 6.98001C12.3327 6.99301 12.4297 7.00001 12.5257 7.00001C13.9157 7.00001 15.0687 5.73501 15.4027 4.11701L15.4437 3.88701C15.7337 2.02001 14.8697 0.237006 13.2697 0.020006C13.1709 0.0064524 13.0714 -0.000230308 12.9717 6.05609e-06ZM2.21669 4.00001C1.94269 4.00001 1.67269 4.05401 1.41969 4.16101C-0.0063132 4.77601 -0.347313 6.72301 0.341687 8.49601C0.904687 9.94701 2.05169 11 3.28269 11C3.55669 11 3.82669 10.946 4.07969 10.839C5.50569 10.224 5.84669 8.27701 5.15769 6.50401C4.59469 5.05301 3.44769 4.00001 2.21669 4.00001Z" fill="#33F8FF"/>
</g>
<defs>
<clipPath id="clip0_4312_3941">
<rect width="20" height="18" fill="white"/>
</clipPath>
</defs>
</svg>