<svg xmlns="http://www.w3.org/2000/svg" fill="none" viewBox="0 0 17 19">
<path d="M8.5 0C3.81315 0 0 3.69352 0 8.23333V14.362L3.35096 15.6608L4.04077 19H5.88462V16.4667H7.19231V19H7.84615V16.4667H9.15385V19H9.80769V16.4667H11.1154V19H12.9592L13.649 15.6608L17 14.362V8.23333C17 3.69352 13.1869 0 8.5 0ZM4.90385 12.6667C4.45123 12.6667 4.00878 12.5367 3.63244 12.2931C3.25611 12.0495 2.96279 11.7033 2.78958 11.2983C2.61638 10.8932 2.57106 10.4475 2.65936 10.0176C2.74766 9.58756 2.96561 9.19259 3.28566 8.88258C3.60571 8.57257 4.01347 8.36146 4.45739 8.27593C4.90131 8.1904 5.36144 8.23429 5.7796 8.40207C6.19776 8.56984 6.55517 8.85396 6.80663 9.21849C7.05809 9.58301 7.19231 10.0116 7.19231 10.45C7.19166 11.0377 6.95035 11.6012 6.52132 12.0167C6.09229 12.4323 5.51058 12.666 4.90385 12.6667ZM7.00882 15.2L8.00961 12.0333H8.99038L9.99118 15.2H7.00882ZM12.0962 12.6667C11.6435 12.6667 11.2011 12.5367 10.8248 12.2931C10.4484 12.0495 10.1551 11.7033 9.98189 11.2983C9.80868 10.8932 9.76336 10.4475 9.85166 10.0176C9.93997 9.58756 10.1579 9.19259 10.478 8.88258C10.798 8.57257 11.2058 8.36146 11.6497 8.27593C12.0936 8.1904 12.5537 8.23429 12.9719 8.40207C13.3901 8.56984 13.7475 8.85396 13.9989 9.21849C14.2504 9.58301 14.3846 10.0116 14.3846 10.45C14.384 11.0377 14.1427 11.6012 13.7136 12.0167C13.2846 12.4323 12.7029 12.666 12.0962 12.6667Z" fill="#33F8FF"/>
</svg>