<svg width="522" height="102" viewBox="0 0 522 102" fill="none" xmlns="http://www.w3.org/2000/svg">
<g clip-path="url(#clip0_11720_119910)">
<path fill-rule="evenodd" clip-rule="evenodd" d="M186.691 37.3459C187.009 37.6404 187.506 37.621 187.801 37.3024C188.095 36.9839 188.076 36.4869 187.757 36.1924L180.534 29.5139L187.741 23.2006C188.068 22.9148 188.101 22.4185 187.815 22.0922C187.529 21.7658 187.033 21.733 186.706 22.0189L178.842 28.9072C178.675 29.0539 178.577 29.2649 178.574 29.4876C178.571 29.7102 178.663 29.9237 178.826 30.0749L186.691 37.3459ZM185.771 29.1513C185.337 29.1513 184.986 29.5029 184.986 29.9368C184.986 30.3706 185.337 30.7223 185.771 30.7223H187.667C188.101 30.7223 188.453 30.3706 188.453 29.9368C188.453 29.5029 188.101 29.1513 187.667 29.1513L185.771 29.1513ZM193.734 29.1513C193.301 29.1513 192.949 29.5029 192.949 29.9368C192.949 30.3706 193.301 30.7223 193.734 30.7223H197.526C197.96 30.7223 198.312 30.3706 198.312 29.9368C198.312 29.5029 197.96 29.1513 197.526 29.1513L193.734 29.1513ZM203.594 29.1513C203.16 29.1513 202.808 29.5029 202.808 29.9368C202.808 30.3706 203.16 30.7223 203.594 30.7223H207.386C207.82 30.7223 208.171 30.3706 208.171 29.9368C208.171 29.5029 207.82 29.1513 207.386 29.1513H203.594ZM213.453 29.1513C213.019 29.1513 212.668 29.5029 212.668 29.9368C212.668 30.3706 213.019 30.7223 213.453 30.7223H217.245C217.679 30.7223 218.031 30.3706 218.031 29.9368C218.031 29.5029 217.679 29.1513 217.245 29.1513L213.453 29.1513ZM223.312 29.1513C222.879 29.1513 222.527 29.5029 222.527 29.9368C222.527 30.3706 222.879 30.7223 223.312 30.7223H227.104C227.538 30.7223 227.89 30.3706 227.89 29.9368C227.89 29.5029 227.538 29.1513 227.104 29.1513L223.312 29.1513ZM233.172 29.1513C232.738 29.1513 232.386 29.5029 232.386 29.9368C232.386 30.3706 232.738 30.7223 233.172 30.7223L236.946 30.7223C237.38 30.7223 237.732 30.3706 237.732 29.9368C237.732 29.5029 237.38 29.1513 236.946 29.1513L233.172 29.1513ZM242.957 29.1513C242.523 29.1513 242.171 29.5029 242.171 29.9368C242.171 30.3706 242.523 30.7223 242.957 30.7223H246.714C247.147 30.7223 247.499 30.3706 247.499 29.9368C247.499 29.5029 247.147 29.1513 246.714 29.1513H242.957ZM252.724 29.1513C252.29 29.1513 251.939 29.5029 251.939 29.9368C251.939 30.3706 252.29 30.7223 252.724 30.7223H256.481C256.915 30.7223 257.266 30.3706 257.266 29.9368C257.266 29.5029 256.915 29.1513 256.481 29.1513L252.724 29.1513ZM262.492 29.1513C262.058 29.1513 261.706 29.5029 261.706 29.9368C261.706 30.3706 262.058 30.7223 262.492 30.7223H266.248C266.682 30.7223 267.034 30.3706 267.034 29.9368C267.034 29.5029 266.682 29.1513 266.248 29.1513H262.492ZM272.259 29.1513C271.825 29.1513 271.474 29.5029 271.474 29.9368C271.474 30.3706 271.825 30.7223 272.259 30.7223H276.016C276.45 30.7223 276.801 30.3706 276.801 29.9368C276.801 29.5029 276.45 29.1513 276.016 29.1513L272.259 29.1513ZM282.027 29.1513C281.593 29.1513 281.241 29.5029 281.241 29.9368C281.241 30.3706 281.593 30.7223 282.027 30.7223H285.783C286.217 30.7223 286.569 30.3706 286.569 29.9368C286.569 29.5029 286.217 29.1513 285.783 29.1513H282.027ZM291.794 29.1513C291.36 29.1513 291.008 29.5029 291.008 29.9368C291.008 30.3706 291.36 30.7223 291.794 30.7223H295.551C295.984 30.7223 296.336 30.3706 296.336 29.9368C296.336 29.5029 295.984 29.1513 295.551 29.1513L291.794 29.1513ZM301.561 29.1513C301.128 29.1513 300.776 29.5029 300.776 29.9368C300.776 30.3706 301.128 30.7223 301.561 30.7223H305.318C305.752 30.7223 306.104 30.3706 306.104 29.9368C306.104 29.5029 305.752 29.1513 305.318 29.1513L301.561 29.1513ZM311.329 29.1513C310.895 29.1513 310.543 29.5029 310.543 29.9368C310.543 30.3706 310.895 30.7223 311.329 30.7223H315.085C315.519 30.7223 315.871 30.3706 315.871 29.9368C315.871 29.5029 315.519 29.1513 315.085 29.1513H311.329ZM321.096 29.1513C320.662 29.1513 320.311 29.5029 320.311 29.9368C320.311 30.3706 320.662 30.7223 321.096 30.7223H324.853C325.287 30.7223 325.638 30.3706 325.638 29.9368C325.638 29.5029 325.287 29.1513 324.853 29.1513H321.096ZM330.864 29.1513C330.43 29.1513 330.078 29.5029 330.078 29.9368C330.078 30.3706 330.43 30.7223 330.864 30.7223H334.62C335.054 30.7223 335.406 30.3706 335.406 29.9368C335.406 29.5029 335.054 29.1513 334.62 29.1513H330.864ZM340.631 29.1513C340.197 29.1513 339.845 29.5029 339.845 29.9368C339.845 30.3706 340.197 30.7223 340.631 30.7223H342.509C342.943 30.7223 343.295 30.3706 343.295 29.9368C343.295 29.5029 342.943 29.1513 342.509 29.1513L340.631 29.1513Z" fill="#063642"/>
<path fill-rule="evenodd" clip-rule="evenodd" d="M335.007 56.3237C334.674 56.6011 334.178 56.5556 333.901 56.2221C333.624 55.8885 333.669 55.3932 334.003 55.1158L341.112 49.2037L334.019 43.6155C333.678 43.347 333.62 42.8531 333.888 42.5123C334.156 42.1715 334.65 42.1129 334.991 42.3814L342.846 48.5702C343.033 48.7169 343.143 48.9398 343.146 49.1768C343.149 49.4138 343.045 49.6396 342.862 49.7912L335.007 56.3237ZM335.95 48.3816C336.383 48.3816 336.735 48.7332 336.735 49.1671C336.735 49.6009 336.383 49.9526 335.95 49.9526H334.054C333.62 49.9526 333.268 49.6009 333.268 49.1671C333.268 48.7332 333.62 48.3816 334.054 48.3816H335.95ZM327.986 48.3816C328.42 48.3816 328.772 48.7332 328.772 49.1671C328.772 49.6009 328.42 49.9526 327.986 49.9526H324.194C323.76 49.9526 323.409 49.6009 323.409 49.1671C323.409 48.7332 323.76 48.3816 324.194 48.3816H327.986ZM318.127 48.3816C318.561 48.3816 318.912 48.7332 318.912 49.1671C318.912 49.6009 318.561 49.9526 318.127 49.9526H314.335C313.901 49.9526 313.549 49.6009 313.549 49.1671C313.549 48.7332 313.901 48.3816 314.335 48.3816H318.127ZM308.268 48.3816C308.701 48.3816 309.053 48.7332 309.053 49.1671C309.053 49.6009 308.701 49.9526 308.268 49.9526H304.476C304.042 49.9526 303.69 49.6009 303.69 49.1671C303.69 48.7332 304.042 48.3816 304.476 48.3816H308.268ZM298.408 48.3816C298.842 48.3816 299.194 48.7332 299.194 49.1671C299.194 49.6009 298.842 49.9526 298.408 49.9526H294.616C294.182 49.9526 293.831 49.6009 293.831 49.1671C293.831 48.7332 294.182 48.3816 294.616 48.3816H298.408ZM288.549 48.3816C288.983 48.3816 289.334 48.7332 289.334 49.1671C289.334 49.6009 288.983 49.9526 288.549 49.9526H284.777C284.343 49.9526 283.991 49.6009 283.991 49.1671C283.991 48.7332 284.343 48.3816 284.777 48.3816H288.549ZM278.774 48.3816C279.208 48.3816 279.559 48.7332 279.559 49.1671C279.559 49.6009 279.208 49.9526 278.774 49.9526H275.022C274.588 49.9526 274.236 49.6009 274.236 49.1671C274.236 48.7332 274.588 48.3816 275.022 48.3816H278.774ZM269.019 48.3816C269.453 48.3816 269.804 48.7332 269.804 49.1671C269.804 49.6009 269.453 49.9526 269.019 49.9526H265.267C264.833 49.9526 264.481 49.6009 264.481 49.1671C264.481 48.7332 264.833 48.3816 265.267 48.3816H269.019ZM259.264 48.3816C259.698 48.3816 260.049 48.7332 260.049 49.1671C260.049 49.6009 259.698 49.9526 259.264 49.9526H255.512C255.078 49.9526 254.726 49.6009 254.726 49.1671C254.726 48.7332 255.078 48.3816 255.512 48.3816H259.264ZM249.509 48.3816C249.943 48.3816 250.294 48.7332 250.294 49.1671C250.294 49.6009 249.943 49.9526 249.509 49.9526H245.757C245.323 49.9526 244.971 49.6009 244.971 49.1671C244.971 48.7332 245.323 48.3816 245.757 48.3816H249.509ZM239.754 48.3816C240.188 48.3816 240.539 48.7332 240.539 49.1671C240.539 49.6009 240.188 49.9526 239.754 49.9526H236.002C235.568 49.9526 235.216 49.6009 235.216 49.1671C235.216 48.7332 235.568 48.3816 236.002 48.3816H239.754ZM229.999 48.3816C230.433 48.3816 230.784 48.7332 230.784 49.1671C230.784 49.6009 230.433 49.9526 229.999 49.9526H226.247C225.813 49.9526 225.461 49.6009 225.461 49.1671C225.461 48.7332 225.813 48.3816 226.247 48.3816H229.999ZM220.244 48.3816C220.678 48.3816 221.029 48.7332 221.029 49.1671C221.029 49.6009 220.678 49.9526 220.244 49.9526H216.492C216.058 49.9526 215.706 49.6009 215.706 49.1671C215.706 48.7332 216.058 48.3816 216.492 48.3816H220.244ZM210.489 48.3816C210.923 48.3816 211.274 48.7332 211.274 49.1671C211.274 49.6009 210.923 49.9526 210.489 49.9526H206.737C206.303 49.9526 205.952 49.6009 205.952 49.1671C205.952 48.7332 206.303 48.3816 206.737 48.3816H210.489ZM200.734 48.3816C201.168 48.3816 201.519 48.7332 201.519 49.1671C201.519 49.6009 201.168 49.9526 200.734 49.9526H196.982C196.548 49.9526 196.197 49.6009 196.197 49.1671C196.197 48.7332 196.548 48.3816 196.982 48.3816H200.734ZM190.979 48.3816C191.413 48.3816 191.764 48.7332 191.764 49.1671C191.764 49.6009 191.413 49.9526 190.979 49.9526H187.227C186.793 49.9526 186.442 49.6009 186.442 49.1671C186.442 48.7332 186.793 48.3816 187.227 48.3816H190.979ZM181.224 48.3816C181.658 48.3816 182.01 48.7332 182.01 49.1671C182.01 49.6009 181.658 49.9526 181.224 49.9526H179.348C178.914 49.9526 178.562 49.6009 178.562 49.1671C178.562 48.7332 178.914 48.3816 179.348 48.3816H181.224Z" fill="#27C1C7"/>
<path d="M107.401 87.9227H110.939C111.281 87.9227 111.619 87.9654 111.952 88.0509C112.286 88.1278 112.581 88.2603 112.837 88.4484C113.102 88.6279 113.316 88.8629 113.478 89.1535C113.64 89.4441 113.722 89.7946 113.722 90.2048C113.722 90.7177 113.576 91.1408 113.286 91.4741C112.995 91.8075 112.615 92.0468 112.145 92.1921V92.2177C112.717 92.2947 113.187 92.5169 113.555 92.8844C113.922 93.252 114.106 93.7435 114.106 94.3589C114.106 94.8546 114.008 95.2734 113.811 95.6153C113.615 95.9487 113.354 96.2179 113.029 96.4231C112.713 96.6282 112.345 96.7778 111.927 96.8718C111.516 96.9573 111.098 97 110.67 97H107.401V87.9227ZM109.016 91.6152H110.452C110.991 91.6152 111.401 91.5083 111.683 91.2946C111.965 91.0809 112.106 90.7775 112.106 90.3843C112.106 89.9741 111.961 89.6835 111.67 89.5125C111.38 89.3416 110.927 89.2561 110.311 89.2561H109.016V91.6152ZM109.016 95.641H110.465C110.67 95.641 110.892 95.6281 111.132 95.6025C111.371 95.5683 111.589 95.5042 111.786 95.4102C111.991 95.3162 112.157 95.1794 112.286 94.9999C112.422 94.8204 112.491 94.5811 112.491 94.2819C112.491 93.8033 112.328 93.4699 112.004 93.2819C111.679 93.0939 111.187 92.9998 110.529 92.9998H109.016V95.641ZM115.522 93.8973C115.522 93.4101 115.608 92.9699 115.779 92.5767C115.958 92.175 116.198 91.8331 116.497 91.5511C116.796 91.269 117.151 91.051 117.561 90.8972C117.971 90.7433 118.407 90.6664 118.869 90.6664C119.33 90.6664 119.766 90.7433 120.177 90.8972C120.587 91.051 120.941 91.269 121.241 91.5511C121.54 91.8331 121.775 92.175 121.946 92.5767C122.125 92.9699 122.215 93.4101 122.215 93.8973C122.215 94.3845 122.125 94.829 121.946 95.2307C121.775 95.6324 121.54 95.9786 121.241 96.2692C120.941 96.5513 120.587 96.7735 120.177 96.9359C119.766 97.0983 119.33 97.1795 118.869 97.1795C118.407 97.1795 117.971 97.0983 117.561 96.9359C117.151 96.7735 116.796 96.5513 116.497 96.2692C116.198 95.9786 115.958 95.6324 115.779 95.2307C115.608 94.829 115.522 94.3845 115.522 93.8973ZM117.087 93.8973C117.087 94.1366 117.121 94.376 117.189 94.6153C117.266 94.8546 117.377 95.0683 117.523 95.2563C117.668 95.4444 117.852 95.5982 118.074 95.7179C118.296 95.8376 118.561 95.8974 118.869 95.8974C119.176 95.8974 119.441 95.8376 119.664 95.7179C119.886 95.5982 120.07 95.4444 120.215 95.2563C120.36 95.0683 120.467 94.8546 120.535 94.6153C120.612 94.376 120.651 94.1366 120.651 93.8973C120.651 93.658 120.612 93.4229 120.535 93.1921C120.467 92.9528 120.36 92.7391 120.215 92.5511C120.07 92.3631 119.886 92.2135 119.664 92.1024C119.441 91.9827 119.176 91.9229 118.869 91.9229C118.561 91.9229 118.296 91.9827 118.074 92.1024C117.852 92.2135 117.668 92.3631 117.523 92.5511C117.377 92.7391 117.266 92.9528 117.189 93.1921C117.121 93.4229 117.087 93.658 117.087 93.8973ZM123.963 90.8459H125.438V91.8716H125.463C125.634 91.5126 125.874 91.222 126.181 90.9997C126.489 90.7775 126.848 90.6664 127.258 90.6664C127.318 90.6664 127.382 90.6707 127.451 90.6792C127.519 90.6792 127.579 90.6878 127.63 90.7049V92.1152C127.527 92.0895 127.438 92.0724 127.361 92.0639C127.292 92.0553 127.224 92.0511 127.156 92.0511C126.805 92.0511 126.523 92.1152 126.309 92.2434C126.096 92.3716 125.929 92.5255 125.809 92.7049C125.69 92.8844 125.609 93.0682 125.566 93.2563C125.523 93.4443 125.502 93.5939 125.502 93.705V97H123.963V90.8459ZM128.89 90.8459H130.364V91.8716H130.39C130.561 91.5126 130.8 91.222 131.108 90.9997C131.416 90.7775 131.775 90.6664 132.185 90.6664C132.245 90.6664 132.309 90.6707 132.377 90.6792C132.446 90.6792 132.505 90.6878 132.557 90.7049V92.1152C132.454 92.0895 132.364 92.0724 132.287 92.0639C132.219 92.0553 132.151 92.0511 132.082 92.0511C131.732 92.0511 131.45 92.1152 131.236 92.2434C131.022 92.3716 130.856 92.5255 130.736 92.7049C130.616 92.8844 130.535 93.0682 130.492 93.2563C130.45 93.4443 130.428 93.5939 130.428 93.705V97H128.89V90.8459ZM133.232 93.8973C133.232 93.4101 133.318 92.9699 133.488 92.5767C133.668 92.175 133.907 91.8331 134.206 91.5511C134.506 91.269 134.86 91.051 135.271 90.8972C135.681 90.7433 136.117 90.6664 136.578 90.6664C137.04 90.6664 137.476 90.7433 137.886 90.8972C138.296 91.051 138.651 91.269 138.95 91.5511C139.249 91.8331 139.484 92.175 139.655 92.5767C139.835 92.9699 139.925 93.4101 139.925 93.8973C139.925 94.3845 139.835 94.829 139.655 95.2307C139.484 95.6324 139.249 95.9786 138.95 96.2692C138.651 96.5513 138.296 96.7735 137.886 96.9359C137.476 97.0983 137.04 97.1795 136.578 97.1795C136.117 97.1795 135.681 97.0983 135.271 96.9359C134.86 96.7735 134.506 96.5513 134.206 96.2692C133.907 95.9786 133.668 95.6324 133.488 95.2307C133.318 94.829 133.232 94.3845 133.232 93.8973ZM134.796 93.8973C134.796 94.1366 134.83 94.376 134.899 94.6153C134.976 94.8546 135.087 95.0683 135.232 95.2563C135.377 95.4444 135.561 95.5982 135.783 95.7179C136.006 95.8376 136.271 95.8974 136.578 95.8974C136.886 95.8974 137.151 95.8376 137.373 95.7179C137.595 95.5982 137.779 95.4444 137.925 95.2563C138.07 95.0683 138.177 94.8546 138.245 94.6153C138.322 94.376 138.36 94.1366 138.36 93.8973C138.36 93.658 138.322 93.4229 138.245 93.1921C138.177 92.9528 138.07 92.7391 137.925 92.5511C137.779 92.3631 137.595 92.2135 137.373 92.1024C137.151 91.9827 136.886 91.9229 136.578 91.9229C136.271 91.9229 136.006 91.9827 135.783 92.1024C135.561 92.2135 135.377 92.3631 135.232 92.5511C135.087 92.7391 134.976 92.9528 134.899 93.1921C134.83 93.4229 134.796 93.658 134.796 93.8973ZM140.801 90.8459H142.468L143.75 95.2563H143.775L145.096 90.8459H146.737L148.071 95.2563H148.096L149.404 90.8459H151.007L148.878 97H147.314L145.917 92.6921H145.891L144.506 97H142.942L140.801 90.8459ZM156.567 93.3075C156.567 93.1109 156.537 92.9229 156.477 92.7434C156.426 92.5639 156.341 92.4058 156.221 92.269C156.101 92.1323 155.947 92.0254 155.759 91.9485C155.58 91.863 155.366 91.8203 155.118 91.8203C154.657 91.8203 154.264 91.9613 153.939 92.2434C153.623 92.5169 153.447 92.8716 153.413 93.3075H156.567ZM158.106 93.9999C158.106 94.0683 158.106 94.1366 158.106 94.205C158.106 94.2734 158.101 94.3418 158.093 94.4101H153.413C153.43 94.6324 153.486 94.8375 153.58 95.0256C153.682 95.2051 153.815 95.3632 153.977 95.4999C154.14 95.6281 154.323 95.7307 154.529 95.8076C154.734 95.8846 154.947 95.923 155.17 95.923C155.554 95.923 155.879 95.8547 156.144 95.7179C156.409 95.5726 156.627 95.376 156.798 95.1281L157.824 95.9487C157.217 96.7692 156.336 97.1795 155.182 97.1795C154.704 97.1795 154.264 97.1068 153.862 96.9615C153.46 96.8077 153.11 96.594 152.811 96.3205C152.52 96.047 152.289 95.7136 152.118 95.3204C151.956 94.9187 151.875 94.4657 151.875 93.9614C151.875 93.4657 151.956 93.0169 152.118 92.6152C152.289 92.2049 152.52 91.8588 152.811 91.5767C153.101 91.2861 153.443 91.0639 153.836 90.91C154.238 90.7476 154.67 90.6664 155.131 90.6664C155.559 90.6664 155.952 90.7391 156.311 90.8844C156.678 91.0211 156.995 91.2305 157.26 91.5126C157.524 91.7861 157.73 92.1323 157.875 92.5511C158.029 92.9614 158.106 93.4443 158.106 93.9999ZM159.852 90.8459H161.327V91.8716H161.352C161.523 91.5126 161.762 91.222 162.07 90.9997C162.378 90.7775 162.737 90.6664 163.147 90.6664C163.207 90.6664 163.271 90.6707 163.339 90.6792C163.408 90.6792 163.468 90.6878 163.519 90.7049V92.1152C163.416 92.0895 163.327 92.0724 163.25 92.0639C163.181 92.0553 163.113 92.0511 163.045 92.0511C162.694 92.0511 162.412 92.1152 162.198 92.2434C161.985 92.3716 161.818 92.5255 161.698 92.7049C161.579 92.8844 161.498 93.0682 161.455 93.2563C161.412 93.4443 161.391 93.5939 161.391 93.705V97H159.852V90.8459Z" fill="#012E3A"/>
<path d="M339.286 88.1336H345.145V89.5439H340.901V92.0312H344.902V93.3903H340.901V97.2109H339.286V88.1336ZM346.615 91.0568H348.154V97.2109H346.615V91.0568ZM346.397 88.967C346.397 88.7191 346.487 88.5054 346.667 88.3259C346.855 88.1379 347.09 88.0439 347.372 88.0439C347.654 88.0439 347.889 88.1336 348.077 88.3131C348.273 88.4841 348.372 88.702 348.372 88.967C348.372 89.232 348.273 89.4542 348.077 89.6337C347.889 89.8046 347.654 89.8901 347.372 89.8901C347.09 89.8901 346.855 89.8004 346.667 89.6209C346.487 89.4328 346.397 89.2149 346.397 88.967ZM351.841 93.9416L349.623 91.0568H351.469L352.802 92.9672L354.174 91.0568H355.944L353.738 93.9416L356.251 97.2109H354.379L352.777 94.9673L351.161 97.2109H349.341L351.841 93.9416ZM361.628 93.5185C361.628 93.3219 361.598 93.1338 361.538 92.9543C361.487 92.7749 361.401 92.6167 361.282 92.48C361.162 92.3432 361.008 92.2364 360.82 92.1594C360.641 92.074 360.427 92.0312 360.179 92.0312C359.717 92.0312 359.324 92.1723 358.999 92.4543C358.683 92.7278 358.508 93.0826 358.474 93.5185H361.628ZM363.166 94.2108C363.166 94.2792 363.166 94.3476 363.166 94.4159C363.166 94.4843 363.162 94.5527 363.153 94.6211H358.474C358.491 94.8433 358.546 95.0485 358.64 95.2365C358.743 95.416 358.875 95.5741 359.038 95.7109C359.2 95.8391 359.384 95.9417 359.589 96.0186C359.794 96.0955 360.008 96.134 360.23 96.134C360.615 96.134 360.94 96.0656 361.205 95.9288C361.47 95.7835 361.688 95.5869 361.859 95.3391L362.884 96.1596C362.277 96.9802 361.397 97.3904 360.243 97.3904C359.764 97.3904 359.324 97.3178 358.922 97.1725C358.521 97.0186 358.17 96.8049 357.871 96.5314C357.581 96.2579 357.35 95.9246 357.179 95.5314C357.016 95.1297 356.935 94.6766 356.935 94.1723C356.935 93.6766 357.016 93.2279 357.179 92.8261C357.35 92.4159 357.581 92.0697 357.871 91.7876C358.162 91.497 358.504 91.2748 358.897 91.1209C359.299 90.9585 359.73 90.8773 360.192 90.8773C360.619 90.8773 361.012 90.95 361.371 91.0953C361.739 91.2321 362.055 91.4415 362.32 91.7235C362.585 91.997 362.79 92.3432 362.935 92.762C363.089 93.1723 363.166 93.6552 363.166 94.2108ZM371.169 97.2109H369.708V96.2878H369.682C369.468 96.6468 369.169 96.9203 368.785 97.1084C368.409 97.2964 368.003 97.3904 367.567 97.3904C367.097 97.3904 366.673 97.305 366.297 97.134C365.93 96.9545 365.614 96.7195 365.349 96.4289C365.092 96.1297 364.891 95.7835 364.746 95.3903C364.609 94.9886 364.541 94.5613 364.541 94.1082C364.541 93.6552 364.614 93.2321 364.759 92.839C364.904 92.4458 365.109 92.1039 365.374 91.8133C365.639 91.5227 365.956 91.2962 366.323 91.1338C366.691 90.9628 367.092 90.8773 367.528 90.8773C367.81 90.8773 368.062 90.9115 368.285 90.9799C368.507 91.0397 368.699 91.1167 368.862 91.2107C369.033 91.3047 369.178 91.4073 369.298 91.5184C369.417 91.6295 369.515 91.7363 369.592 91.8389H369.631V87.5182H371.169V97.2109ZM366.105 94.1082C366.105 94.3476 366.139 94.5869 366.208 94.8262C366.285 95.0655 366.396 95.2792 366.541 95.4673C366.686 95.6553 366.87 95.8092 367.092 95.9288C367.315 96.0485 367.575 96.1083 367.874 96.1083C368.156 96.1083 368.409 96.0528 368.631 95.9417C368.853 95.822 369.041 95.6681 369.195 95.4801C369.357 95.2921 369.477 95.0826 369.554 94.8519C369.639 94.6125 369.682 94.3732 369.682 94.1339C369.682 93.8946 369.639 93.6552 369.554 93.4159C369.477 93.1766 369.357 92.9629 369.195 92.7749C369.041 92.5868 368.853 92.433 368.631 92.3133C368.409 92.1936 368.156 92.1338 367.874 92.1338C367.575 92.1338 367.315 92.1936 367.092 92.3133C366.87 92.4244 366.686 92.574 366.541 92.762C366.396 92.9501 366.285 93.1638 366.208 93.4031C366.139 93.6339 366.105 93.8689 366.105 94.1082ZM376.834 88.1336H379.988C380.415 88.1336 380.829 88.1806 381.231 88.2747C381.633 88.3601 381.988 88.5054 382.295 88.7106C382.612 88.9157 382.864 89.185 383.052 89.5183C383.24 89.8517 383.334 90.2577 383.334 90.7363C383.334 91.3945 383.146 91.9329 382.77 92.3518C382.402 92.762 381.898 93.0398 381.257 93.1851L383.68 97.2109H381.731L379.629 93.3646H378.449V97.2109H376.834V88.1336ZM379.77 92.0441C380 92.0441 380.231 92.027 380.462 91.9928C380.693 91.9586 380.898 91.8945 381.077 91.8005C381.265 91.7064 381.419 91.5739 381.539 91.403C381.659 91.2235 381.718 90.997 381.718 90.7235C381.718 90.4756 381.663 90.2747 381.552 90.1209C381.441 89.9585 381.3 89.8303 381.129 89.7363C380.958 89.6422 380.761 89.5781 380.539 89.5439C380.325 89.5098 380.116 89.4927 379.911 89.4927H378.449V92.0441H379.77ZM388.747 96.4289H388.708C388.554 96.7024 388.307 96.9289 387.965 97.1084C387.623 97.2793 387.234 97.3648 386.798 97.3648C386.55 97.3648 386.289 97.3306 386.016 97.2622C385.751 97.2024 385.503 97.0998 385.272 96.9545C385.05 96.8007 384.862 96.6041 384.708 96.3647C384.563 96.1169 384.49 95.8134 384.49 95.4545C384.49 94.9929 384.618 94.6254 384.875 94.3518C385.14 94.0783 385.477 93.8689 385.888 93.7236C386.298 93.5783 386.751 93.4843 387.247 93.4415C387.751 93.3903 388.242 93.3646 388.721 93.3646V93.2108C388.721 92.8261 388.58 92.5441 388.298 92.3646C388.025 92.1765 387.695 92.0825 387.311 92.0825C386.986 92.0825 386.674 92.1509 386.375 92.2877C386.076 92.4244 385.828 92.5911 385.631 92.7877L384.836 91.8517C385.187 91.5269 385.589 91.2833 386.042 91.1209C386.503 90.9585 386.969 90.8773 387.439 90.8773C387.986 90.8773 388.435 90.9543 388.785 91.1081C389.144 91.262 389.426 91.4628 389.631 91.7107C389.837 91.9586 389.978 92.2364 390.055 92.5441C390.14 92.8518 390.183 93.1595 390.183 93.4672V97.2109H388.747V96.4289ZM388.721 94.4031H388.375C388.127 94.4031 387.866 94.4159 387.593 94.4416C387.319 94.4587 387.067 94.5057 386.836 94.5826C386.606 94.651 386.413 94.7536 386.259 94.8903C386.106 95.0185 386.029 95.198 386.029 95.4288C386.029 95.5741 386.059 95.6981 386.118 95.8006C386.187 95.8946 386.272 95.9716 386.375 96.0314C386.477 96.0912 386.593 96.134 386.721 96.1596C386.849 96.1853 386.977 96.1981 387.106 96.1981C387.636 96.1981 388.037 96.057 388.311 95.775C388.584 95.4929 388.721 95.1083 388.721 94.6211V94.4031ZM391.222 92.2877V91.0568H392.299V89.2747H393.812V91.0568H395.35V92.2877H393.812V95.1467C393.812 95.4203 393.859 95.6468 393.953 95.8263C394.055 96.0058 394.277 96.0955 394.619 96.0955C394.722 96.0955 394.833 96.087 394.953 96.0699C395.072 96.0442 395.179 96.01 395.273 95.9673L395.324 97.1725C395.188 97.2238 395.025 97.2622 394.837 97.2879C394.649 97.3221 394.47 97.3391 394.299 97.3391C393.889 97.3391 393.555 97.2836 393.299 97.1725C393.042 97.0528 392.837 96.8947 392.683 96.6981C392.538 96.493 392.435 96.2622 392.376 96.0058C392.324 95.7408 392.299 95.4587 392.299 95.1596V92.2877H391.222ZM401.053 93.5185C401.053 93.3219 401.024 93.1338 400.964 92.9543C400.912 92.7749 400.827 92.6167 400.707 92.48C400.588 92.3432 400.434 92.2364 400.246 92.1594C400.066 92.074 399.853 92.0312 399.605 92.0312C399.143 92.0312 398.75 92.1723 398.425 92.4543C398.109 92.7278 397.934 93.0826 397.899 93.5185H401.053ZM402.592 94.2108C402.592 94.2792 402.592 94.3476 402.592 94.4159C402.592 94.4843 402.588 94.5527 402.579 94.6211H397.899C397.917 94.8433 397.972 95.0485 398.066 95.2365C398.169 95.416 398.301 95.5741 398.464 95.7109C398.626 95.8391 398.81 95.9417 399.015 96.0186C399.22 96.0955 399.434 96.134 399.656 96.134C400.041 96.134 400.365 96.0656 400.63 95.9288C400.895 95.7835 401.113 95.5869 401.284 95.3391L402.31 96.1596C401.703 96.9802 400.823 97.3904 399.669 97.3904C399.19 97.3904 398.75 97.3178 398.348 97.1725C397.947 97.0186 397.596 96.8049 397.297 96.5314C397.006 96.2579 396.776 95.9246 396.605 95.5314C396.442 95.1297 396.361 94.6766 396.361 94.1723C396.361 93.6766 396.442 93.2279 396.605 92.8261C396.776 92.4159 397.006 92.0697 397.297 91.7876C397.588 91.497 397.929 91.2748 398.323 91.1209C398.724 90.9585 399.156 90.8773 399.618 90.8773C400.045 90.8773 400.438 90.95 400.797 91.0953C401.165 91.2321 401.481 91.4415 401.746 91.7235C402.011 91.997 402.216 92.3432 402.361 92.762C402.515 93.1723 402.592 93.6552 402.592 94.2108ZM407.877 88.1336H410.839C411.36 88.1336 411.83 88.1806 412.249 88.2747C412.668 88.3687 413.027 88.5225 413.326 88.7362C413.625 88.9499 413.856 89.2234 414.018 89.5568C414.181 89.8901 414.262 90.2918 414.262 90.7619C414.262 91.2662 414.168 91.6893 413.98 92.0312C413.792 92.3731 413.535 92.6509 413.211 92.8646C412.894 93.0697 412.523 93.2193 412.095 93.3133C411.668 93.4074 411.215 93.4544 410.736 93.4544H409.493V97.2109H407.877V88.1336ZM410.621 92.0953C410.886 92.0953 411.138 92.0782 411.377 92.0441C411.617 92.0013 411.83 91.9329 412.018 91.8389C412.206 91.7363 412.356 91.5996 412.467 91.4286C412.578 91.2577 412.634 91.0355 412.634 90.7619C412.634 90.497 412.578 90.2833 412.467 90.1209C412.356 89.9499 412.206 89.8175 412.018 89.7234C411.839 89.6294 411.629 89.5696 411.39 89.5439C411.159 89.5098 410.92 89.4927 410.672 89.4927H409.493V92.0953H410.621ZM414.684 94.1082C414.684 93.621 414.77 93.1809 414.94 92.7877C415.12 92.3859 415.359 92.0441 415.658 91.762C415.958 91.4799 416.312 91.262 416.723 91.1081C417.133 90.9543 417.569 90.8773 418.03 90.8773C418.492 90.8773 418.928 90.9543 419.338 91.1081C419.748 91.262 420.103 91.4799 420.402 91.762C420.701 92.0441 420.936 92.3859 421.107 92.7877C421.287 93.1809 421.377 93.621 421.377 94.1082C421.377 94.5954 421.287 95.0399 421.107 95.4416C420.936 95.8434 420.701 96.1895 420.402 96.4801C420.103 96.7622 419.748 96.9844 419.338 97.1468C418.928 97.3092 418.492 97.3904 418.03 97.3904C417.569 97.3904 417.133 97.3092 416.723 97.1468C416.312 96.9844 415.958 96.7622 415.658 96.4801C415.359 96.1895 415.12 95.8434 414.94 95.4416C414.77 95.0399 414.684 94.5954 414.684 94.1082ZM416.248 94.1082C416.248 94.3476 416.282 94.5869 416.351 94.8262C416.428 95.0655 416.539 95.2792 416.684 95.4673C416.829 95.6553 417.013 95.8092 417.235 95.9288C417.458 96.0485 417.723 96.1083 418.03 96.1083C418.338 96.1083 418.603 96.0485 418.825 95.9288C419.047 95.8092 419.231 95.6553 419.377 95.4673C419.522 95.2792 419.629 95.0655 419.697 94.8262C419.774 94.5869 419.812 94.3476 419.812 94.1082C419.812 93.8689 419.774 93.6339 419.697 93.4031C419.629 93.1638 419.522 92.9501 419.377 92.762C419.231 92.574 419.047 92.4244 418.825 92.3133C418.603 92.1936 418.338 92.1338 418.03 92.1338C417.723 92.1338 417.458 92.1936 417.235 92.3133C417.013 92.4244 416.829 92.574 416.684 92.762C416.539 92.9501 416.428 93.1638 416.351 93.4031C416.282 93.6339 416.248 93.8689 416.248 94.1082ZM422.766 94.1082C422.766 93.621 422.851 93.1809 423.022 92.7877C423.202 92.3859 423.441 92.0441 423.74 91.762C424.039 91.4799 424.394 91.262 424.804 91.1081C425.215 90.9543 425.651 90.8773 426.112 90.8773C426.574 90.8773 427.01 90.9543 427.42 91.1081C427.83 91.262 428.185 91.4799 428.484 91.762C428.783 92.0441 429.018 92.3859 429.189 92.7877C429.369 93.1809 429.458 93.621 429.458 94.1082C429.458 94.5954 429.369 95.0399 429.189 95.4416C429.018 95.8434 428.783 96.1895 428.484 96.4801C428.185 96.7622 427.83 96.9844 427.42 97.1468C427.01 97.3092 426.574 97.3904 426.112 97.3904C425.651 97.3904 425.215 97.3092 424.804 97.1468C424.394 96.9844 424.039 96.7622 423.74 96.4801C423.441 96.1895 423.202 95.8434 423.022 95.4416C422.851 95.0399 422.766 94.5954 422.766 94.1082ZM424.33 94.1082C424.33 94.3476 424.364 94.5869 424.433 94.8262C424.509 95.0655 424.621 95.2792 424.766 95.4673C424.911 95.6553 425.095 95.8092 425.317 95.9288C425.539 96.0485 425.804 96.1083 426.112 96.1083C426.42 96.1083 426.685 96.0485 426.907 95.9288C427.129 95.8092 427.313 95.6553 427.458 95.4673C427.604 95.2792 427.71 95.0655 427.779 94.8262C427.856 94.5869 427.894 94.3476 427.894 94.1082C427.894 93.8689 427.856 93.6339 427.779 93.4031C427.71 93.1638 427.604 92.9501 427.458 92.762C427.313 92.574 427.129 92.4244 426.907 92.3133C426.685 92.1936 426.42 92.1338 426.112 92.1338C425.804 92.1338 425.539 92.1936 425.317 92.3133C425.095 92.4244 424.911 92.574 424.766 92.762C424.621 92.9501 424.509 93.1638 424.433 93.4031C424.364 93.6339 424.33 93.8689 424.33 94.1082ZM431.232 87.5182H432.771V97.2109H431.232V87.5182Z" fill="#012E3A"/>
<path d="M370.757 15.2899L385.984 10.8187L401.212 15.2899L411.605 27.2839L413.863 42.9928L407.271 57.429L393.92 66.0092H378.049L364.698 57.429L358.105 42.9928L360.364 27.2839L370.757 15.2899Z" fill="url(#paint0_linear_11720_119910)" fill-opacity="0.5" stroke="url(#paint1_linear_11720_119910)" stroke-width="1.57103"/>
<g clip-path="url(#clip1_11720_119910)">
<path d="M253.9 15.458C253.9 19.167 250.894 22.1738 247.185 22.1738C243.476 22.1738 240.469 19.167 240.469 15.458C240.469 11.7489 243.476 8.74219 247.185 8.74219C250.894 8.74219 253.9 11.7489 253.9 15.458Z" fill="white"/>
<path fill-rule="evenodd" clip-rule="evenodd" d="M247.186 22.7835C243.139 22.7835 239.859 19.5036 239.859 15.4572C239.859 11.4108 243.139 8.13086 247.186 8.13086C251.232 8.13086 254.512 11.4108 254.512 15.4572C254.512 19.5036 251.232 22.7835 247.186 22.7835ZM250.846 15.5575L247.414 9.96244L243.98 15.5579L247.414 17.5511L250.846 15.5575ZM250.849 16.1971L247.414 18.1894L243.98 16.1976L247.414 20.9496L250.849 16.1971Z" fill="black"/>
<path d="M247.414 9.96289V14.0244L250.847 15.5584L247.414 9.96289ZM247.414 18.1903V20.9501L250.849 16.1976L247.414 18.1903Z" fill="black" fill-opacity="0.298"/>
<path d="M247.414 17.5516L250.847 15.5584L247.414 14.0254V17.5516Z" fill="black" fill-opacity="0.801"/>
<path d="M243.98 15.5584L247.414 17.5516V14.0254L243.98 15.5584Z" fill="black" fill-opacity="0.298"/>
</g>
<path d="M260.781 11.1765H265.935V12.3853H262.165V14.3634H265.737V15.5283H262.165V17.7262H266.133V18.957H260.781V11.1765ZM269.609 12.3853H267.224V11.1765H273.378V12.3853H270.994V18.957H269.609V12.3853ZM274.833 11.1765H276.218V14.3195H279.855V11.1765H281.24V18.957H279.855V15.5063H276.218V18.957H274.833V11.1765Z" fill="#012E3A"/>
<path d="M250.002 63.6298C250.002 67.4143 246.934 70.4823 243.149 70.4823C239.365 70.4823 236.297 67.4143 236.297 63.6298C236.297 59.8453 239.365 56.7773 243.149 56.7773C246.934 56.7773 250.002 59.8453 250.002 63.6298Z" fill="url(#paint2_linear_11720_119910)"/>
<g style="mix-blend-mode:lighten" opacity="0.7">
<path d="M243.148 56.3809C244.59 56.3809 246 56.8084 247.198 57.6094C248.397 58.4104 249.332 59.549 249.883 60.881C250.435 62.2131 250.58 63.6788 250.298 65.0929C250.017 66.507 249.323 67.8059 248.303 68.8254L243.148 63.6707V56.3809Z" fill="url(#paint3_radial_11720_119910)"/>
</g>
<path d="M250.159 63.6662C250.159 67.5171 247.037 70.639 243.186 70.639C239.335 70.639 236.213 67.5171 236.213 63.6662C236.213 59.8152 239.335 56.6933 243.186 56.6933C247.037 56.6933 250.159 59.8152 250.159 63.6662Z" stroke="url(#paint4_linear_11720_119910)" stroke-width="0.706964"/>
<g clip-path="url(#clip2_11720_119910)">
<path d="M243.18 58.1719L243.105 58.4222V65.6871L243.18 65.7606L246.586 63.7673L243.18 58.1719Z" fill="#A1A1A1"/>
<path d="M243.183 58.1719L239.777 63.7673L243.183 65.7607V62.2345V58.1719Z" fill="#E5E5E5"/>
<path d="M243.183 66.3986L243.141 66.4492V69.0371L243.183 69.1583L246.59 64.4062L243.183 66.3986Z" fill="#A1A1A1"/>
<path d="M243.183 69.1583V66.3986L239.777 64.4062L243.183 69.1583Z" fill="#E5E5E5"/>
<path d="M243.184 65.7605L246.589 63.7672L243.184 62.2344V65.7605Z" fill="#2E2E2E"/>
<path d="M239.777 63.7672L243.183 65.7605V62.2344L239.777 63.7672Z" fill="#A1A1A1"/>
</g>
<path d="M257.867 62.9461H256.867V61.8911H257.867V61.1108C257.867 60.7958 257.9 60.4954 257.966 60.2097C258.039 59.9166 258.157 59.6602 258.318 59.4404C258.486 59.2206 258.706 59.0485 258.977 58.9239C259.248 58.792 259.589 58.7261 259.999 58.7261C260.146 58.7261 260.267 58.7334 260.362 58.7481C260.464 58.7554 260.567 58.7737 260.67 58.803L260.582 59.924C260.508 59.902 260.428 59.8837 260.34 59.869C260.259 59.8544 260.171 59.847 260.076 59.847C259.886 59.847 259.732 59.8837 259.615 59.9569C259.497 60.0302 259.406 60.1254 259.34 60.2426C259.281 60.3599 259.241 60.4881 259.219 60.6273C259.197 60.7665 259.186 60.902 259.186 61.0339V61.8911H260.406V62.9461H259.186V67.166H257.867V62.9461ZM261.837 59.3855H266.991V60.5943H263.222V62.5724H266.793V63.7373H263.222V65.9352H267.189V67.166H261.837V59.3855ZM270.665 60.5943H268.281V59.3855H274.435V60.5943H272.05V67.166H270.665V60.5943ZM275.889 59.3855H277.274V62.5285H280.911V59.3855H282.296V67.166H280.911V63.7153H277.274V67.166H275.889V59.3855Z" fill="#012E3A"/>
<path d="M164.695 38.8474C164.695 54.7793 151.779 67.6947 135.847 67.6947C119.915 67.6947 107 54.7793 107 38.8474C107 22.9154 119.915 10 135.847 10C151.779 10 164.695 22.9154 164.695 38.8474Z" fill="white"/>
<path fill-rule="evenodd" clip-rule="evenodd" d="M135.847 62.1961C148.743 62.1961 159.196 51.7425 159.196 38.8474C159.196 25.9522 148.743 15.4986 135.847 15.4986C122.952 15.4986 112.499 25.9522 112.499 38.8474C112.499 51.7425 122.952 62.1961 135.847 62.1961ZM135.847 67.6947C151.779 67.6947 164.695 54.7793 164.695 38.8474C164.695 22.9154 151.779 10 135.847 10C119.915 10 107 22.9154 107 38.8474C107 54.7793 119.915 67.6947 135.847 67.6947Z" fill="url(#paint5_linear_11720_119910)"/>
<mask id="path-24-inside-1_11720_119910" fill="white">
<path fill-rule="evenodd" clip-rule="evenodd" d="M156.789 58.6869C161.689 53.5165 164.695 46.5329 164.695 38.8474C164.695 22.9154 151.779 10 135.847 10C119.915 10 107 22.9154 107 38.8474C107 46.5576 110.025 53.5613 114.953 58.7366C115.678 50.4054 122.692 43.8446 131.21 43.8446H140.536C149.035 43.8446 156.04 50.3793 156.789 58.6869ZM135.873 39.1818C130.089 39.1818 125.382 34.4747 125.382 28.6905C125.382 22.9063 130.089 18.1992 135.873 18.1992C141.657 18.1992 146.364 22.9063 146.364 28.6905C146.364 34.4747 141.657 39.1818 135.873 39.1818Z"/>
</mask>
<path fill-rule="evenodd" clip-rule="evenodd" d="M156.789 58.6869C161.689 53.5165 164.695 46.5329 164.695 38.8474C164.695 22.9154 151.779 10 135.847 10C119.915 10 107 22.9154 107 38.8474C107 46.5576 110.025 53.5613 114.953 58.7366C115.678 50.4054 122.692 43.8446 131.21 43.8446H140.536C149.035 43.8446 156.04 50.3793 156.789 58.6869ZM135.873 39.1818C130.089 39.1818 125.382 34.4747 125.382 28.6905C125.382 22.9063 130.089 18.1992 135.873 18.1992C141.657 18.1992 146.364 22.9063 146.364 28.6905C146.364 34.4747 141.657 39.1818 135.873 39.1818Z" fill="url(#paint6_linear_11720_119910)"/>
<path d="M156.789 58.6869L151.313 59.1809L152.407 71.3053L160.781 62.4691L156.789 58.6869ZM114.953 58.7366L110.97 62.5282L119.373 71.3531L120.43 59.2137L114.953 58.7366ZM159.196 38.8474C159.196 45.0705 156.769 50.7148 152.798 54.9046L160.781 62.4691C166.61 56.3181 170.193 47.9954 170.193 38.8474H159.196ZM135.847 15.4986C148.743 15.4986 159.196 25.9522 159.196 38.8474H170.193C170.193 19.8786 154.816 4.50139 135.847 4.50139V15.4986ZM112.499 38.8474C112.499 25.9522 122.952 15.4986 135.847 15.4986V4.50139C116.879 4.50139 101.501 19.8786 101.501 38.8474H112.499ZM118.935 54.9449C114.941 50.751 112.499 45.0903 112.499 38.8474H101.501C101.501 48.0248 105.108 56.3715 110.97 62.5282L118.935 54.9449ZM131.21 38.346C119.813 38.346 110.445 47.1148 109.475 58.2594L120.43 59.2137C120.911 53.696 125.572 49.3432 131.21 49.3432V38.346ZM140.536 38.346H131.21V49.3432H140.536V38.346ZM162.266 58.1929C161.263 47.0797 151.909 38.346 140.536 38.346V49.3432C146.161 49.3432 150.817 53.6789 151.313 59.1809L162.266 58.1929ZM119.883 28.6905C119.883 37.5115 127.052 44.6804 135.873 44.6804V33.6832C133.126 33.6832 130.881 31.4379 130.881 28.6905H119.883ZM135.873 12.7006C127.052 12.7006 119.883 19.8695 119.883 28.6905H130.881C130.881 25.9431 133.126 23.6978 135.873 23.6978V12.7006ZM151.863 28.6905C151.863 19.8695 144.694 12.7006 135.873 12.7006V23.6978C138.621 23.6978 140.866 25.9431 140.866 28.6905H151.863ZM135.873 44.6804C144.694 44.6804 151.863 37.5115 151.863 28.6905H140.866C140.866 31.4379 138.621 33.6832 135.873 33.6832V44.6804Z" fill="url(#paint7_linear_11720_119910)" mask="url(#path-24-inside-1_11720_119910)"/>
</g>
<defs>
<linearGradient id="paint0_linear_11720_119910" x1="452.598" y1="70.3048" x2="451.485" y2="10.4344" gradientUnits="userSpaceOnUse">
<stop stop-color="#BFC9F5" stop-opacity="0.5"/>
<stop offset="0.0001" stop-color="#8EA1F5" stop-opacity="0.5"/>
<stop offset="1" stop-color="#26CBCF"/>
</linearGradient>
<linearGradient id="paint1_linear_11720_119910" x1="452.598" y1="70.3048" x2="451.485" y2="10.4344" gradientUnits="userSpaceOnUse">
<stop stop-color="#BFC9F5" stop-opacity="0.5"/>
<stop offset="0.0001" stop-color="#8EA1F5" stop-opacity="0.5"/>
<stop offset="1" stop-color="#26CBCF"/>
</linearGradient>
<linearGradient id="paint2_linear_11720_119910" x1="256.24" y1="63.6894" x2="233.045" y2="63.6894" gradientUnits="userSpaceOnUse">
<stop offset="0.239095" stop-color="#053542"/>
<stop offset="1" stop-color="#06657E"/>
</linearGradient>
<radialGradient id="paint3_radial_11720_119910" cx="0" cy="0" r="1" gradientUnits="userSpaceOnUse" gradientTransform="translate(243.148 63.6708) rotate(-45) scale(7.28987)">
<stop stop-color="#33F8FF"/>
<stop offset="1" stop-color="#065368"/>
</radialGradient>
<linearGradient id="paint4_linear_11720_119910" x1="243.186" y1="56.3398" x2="243.186" y2="70.9925" gradientUnits="userSpaceOnUse">
<stop stop-color="#2BCAD0"/>
<stop offset="1" stop-color="#8BC1E5"/>
</linearGradient>
<linearGradient id="paint5_linear_11720_119910" x1="190.956" y1="39.0982" x2="93.312" y2="39.0982" gradientUnits="userSpaceOnUse">
<stop stop-color="#053542"/>
<stop offset="1" stop-color="#06657E"/>
</linearGradient>
<linearGradient id="paint6_linear_11720_119910" x1="190.956" y1="34.5802" x2="93.312" y2="34.5802" gradientUnits="userSpaceOnUse">
<stop stop-color="#053542"/>
<stop offset="1" stop-color="#06657E"/>
</linearGradient>
<linearGradient id="paint7_linear_11720_119910" x1="190.956" y1="34.5802" x2="93.312" y2="34.5802" gradientUnits="userSpaceOnUse">
<stop stop-color="#053542"/>
<stop offset="1" stop-color="#06657E"/>
</linearGradient>
<clipPath id="clip0_11720_119910">
<rect width="522" height="102" fill="white"/>
</clipPath>
<clipPath id="clip1_11720_119910">
<rect width="14.6526" height="14.6526" fill="white" transform="translate(239.859 8.13086)"/>
</clipPath>
<clipPath id="clip2_11720_119910">
<rect width="6.81348" height="10.9895" fill="white" transform="translate(239.777 58.1719)"/>
</clipPath>
</defs>
</svg>
