<svg xmlns="http://www.w3.org/2000/svg" fill="none" viewBox="0 0 522 102">
<g clip-path="url(#clip0_11734_120765)">
<path fill-rule="evenodd" clip-rule="evenodd" d="M186.691 37.3459C187.009 37.6404 187.506 37.621 187.801 37.3024C188.095 36.9839 188.076 36.4869 187.757 36.1924L180.534 29.5139L187.741 23.2006C188.068 22.9148 188.101 22.4185 187.815 22.0922C187.529 21.7658 187.033 21.733 186.706 22.0189L178.842 28.9072C178.675 29.0539 178.577 29.2649 178.574 29.4876C178.571 29.7102 178.663 29.9237 178.826 30.0749L186.691 37.3459ZM185.771 29.1513C185.337 29.1513 184.986 29.5029 184.986 29.9368C184.986 30.3706 185.337 30.7223 185.771 30.7223H187.667C188.101 30.7223 188.453 30.3706 188.453 29.9368C188.453 29.5029 188.101 29.1513 187.667 29.1513L185.771 29.1513ZM193.734 29.1513C193.301 29.1513 192.949 29.5029 192.949 29.9368C192.949 30.3706 193.301 30.7223 193.734 30.7223H197.526C197.96 30.7223 198.312 30.3706 198.312 29.9368C198.312 29.5029 197.96 29.1513 197.526 29.1513L193.734 29.1513ZM203.594 29.1513C203.16 29.1513 202.808 29.5029 202.808 29.9368C202.808 30.3706 203.16 30.7223 203.594 30.7223H207.386C207.82 30.7223 208.171 30.3706 208.171 29.9368C208.171 29.5029 207.82 29.1513 207.386 29.1513H203.594ZM213.453 29.1513C213.019 29.1513 212.668 29.5029 212.668 29.9368C212.668 30.3706 213.019 30.7223 213.453 30.7223H217.245C217.679 30.7223 218.031 30.3706 218.031 29.9368C218.031 29.5029 217.679 29.1513 217.245 29.1513L213.453 29.1513ZM223.312 29.1513C222.879 29.1513 222.527 29.5029 222.527 29.9368C222.527 30.3706 222.879 30.7223 223.312 30.7223H227.104C227.538 30.7223 227.89 30.3706 227.89 29.9368C227.89 29.5029 227.538 29.1513 227.104 29.1513L223.312 29.1513ZM233.172 29.1513C232.738 29.1513 232.386 29.5029 232.386 29.9368C232.386 30.3706 232.738 30.7223 233.172 30.7223L236.946 30.7223C237.38 30.7223 237.732 30.3706 237.732 29.9368C237.732 29.5029 237.38 29.1513 236.946 29.1513L233.172 29.1513ZM242.957 29.1513C242.523 29.1513 242.171 29.5029 242.171 29.9368C242.171 30.3706 242.523 30.7223 242.957 30.7223H246.714C247.147 30.7223 247.499 30.3706 247.499 29.9368C247.499 29.5029 247.147 29.1513 246.714 29.1513H242.957ZM252.724 29.1513C252.29 29.1513 251.939 29.5029 251.939 29.9368C251.939 30.3706 252.29 30.7223 252.724 30.7223H256.481C256.915 30.7223 257.266 30.3706 257.266 29.9368C257.266 29.5029 256.915 29.1513 256.481 29.1513L252.724 29.1513ZM262.492 29.1513C262.058 29.1513 261.706 29.5029 261.706 29.9368C261.706 30.3706 262.058 30.7223 262.492 30.7223H266.248C266.682 30.7223 267.034 30.3706 267.034 29.9368C267.034 29.5029 266.682 29.1513 266.248 29.1513H262.492ZM272.259 29.1513C271.825 29.1513 271.474 29.5029 271.474 29.9368C271.474 30.3706 271.825 30.7223 272.259 30.7223H276.016C276.45 30.7223 276.801 30.3706 276.801 29.9368C276.801 29.5029 276.45 29.1513 276.016 29.1513L272.259 29.1513ZM282.027 29.1513C281.593 29.1513 281.241 29.5029 281.241 29.9368C281.241 30.3706 281.593 30.7223 282.027 30.7223H285.783C286.217 30.7223 286.569 30.3706 286.569 29.9368C286.569 29.5029 286.217 29.1513 285.783 29.1513H282.027ZM291.794 29.1513C291.36 29.1513 291.008 29.5029 291.008 29.9368C291.008 30.3706 291.36 30.7223 291.794 30.7223H295.551C295.984 30.7223 296.336 30.3706 296.336 29.9368C296.336 29.5029 295.984 29.1513 295.551 29.1513L291.794 29.1513ZM301.561 29.1513C301.128 29.1513 300.776 29.5029 300.776 29.9368C300.776 30.3706 301.128 30.7223 301.561 30.7223H305.318C305.752 30.7223 306.104 30.3706 306.104 29.9368C306.104 29.5029 305.752 29.1513 305.318 29.1513L301.561 29.1513ZM311.329 29.1513C310.895 29.1513 310.543 29.5029 310.543 29.9368C310.543 30.3706 310.895 30.7223 311.329 30.7223H315.085C315.519 30.7223 315.871 30.3706 315.871 29.9368C315.871 29.5029 315.519 29.1513 315.085 29.1513H311.329ZM321.096 29.1513C320.662 29.1513 320.311 29.5029 320.311 29.9368C320.311 30.3706 320.662 30.7223 321.096 30.7223H324.853C325.287 30.7223 325.638 30.3706 325.638 29.9368C325.638 29.5029 325.287 29.1513 324.853 29.1513H321.096ZM330.864 29.1513C330.43 29.1513 330.078 29.5029 330.078 29.9368C330.078 30.3706 330.43 30.7223 330.864 30.7223H334.62C335.054 30.7223 335.406 30.3706 335.406 29.9368C335.406 29.5029 335.054 29.1513 334.62 29.1513H330.864ZM340.631 29.1513C340.197 29.1513 339.845 29.5029 339.845 29.9368C339.845 30.3706 340.197 30.7223 340.631 30.7223H342.509C342.943 30.7223 343.295 30.3706 343.295 29.9368C343.295 29.5029 342.943 29.1513 342.509 29.1513L340.631 29.1513Z" fill="url(#paint0_linear_11734_120765)"/>
<path fill-rule="evenodd" clip-rule="evenodd" d="M335.007 56.3237C334.674 56.6011 334.178 56.5556 333.901 56.2221C333.624 55.8885 333.669 55.3932 334.003 55.1158L341.112 49.2037L334.019 43.6155C333.678 43.347 333.62 42.8531 333.888 42.5123C334.156 42.1715 334.65 42.1129 334.991 42.3814L342.846 48.5702C343.033 48.7169 343.143 48.9398 343.146 49.1768C343.149 49.4138 343.045 49.6396 342.862 49.7912L335.007 56.3237ZM335.95 48.3816C336.383 48.3816 336.735 48.7332 336.735 49.1671C336.735 49.6009 336.383 49.9526 335.95 49.9526H334.054C333.62 49.9526 333.268 49.6009 333.268 49.1671C333.268 48.7332 333.62 48.3816 334.054 48.3816H335.95ZM327.986 48.3816C328.42 48.3816 328.772 48.7332 328.772 49.1671C328.772 49.6009 328.42 49.9526 327.986 49.9526H324.194C323.76 49.9526 323.409 49.6009 323.409 49.1671C323.409 48.7332 323.76 48.3816 324.194 48.3816H327.986ZM318.127 48.3816C318.561 48.3816 318.912 48.7332 318.912 49.1671C318.912 49.6009 318.561 49.9526 318.127 49.9526H314.335C313.901 49.9526 313.549 49.6009 313.549 49.1671C313.549 48.7332 313.901 48.3816 314.335 48.3816H318.127ZM308.268 48.3816C308.701 48.3816 309.053 48.7332 309.053 49.1671C309.053 49.6009 308.701 49.9526 308.268 49.9526H304.476C304.042 49.9526 303.69 49.6009 303.69 49.1671C303.69 48.7332 304.042 48.3816 304.476 48.3816H308.268ZM298.408 48.3816C298.842 48.3816 299.194 48.7332 299.194 49.1671C299.194 49.6009 298.842 49.9526 298.408 49.9526H294.616C294.182 49.9526 293.831 49.6009 293.831 49.1671C293.831 48.7332 294.182 48.3816 294.616 48.3816H298.408ZM288.549 48.3816C288.983 48.3816 289.334 48.7332 289.334 49.1671C289.334 49.6009 288.983 49.9526 288.549 49.9526H284.777C284.343 49.9526 283.991 49.6009 283.991 49.1671C283.991 48.7332 284.343 48.3816 284.777 48.3816H288.549ZM278.774 48.3816C279.208 48.3816 279.559 48.7332 279.559 49.1671C279.559 49.6009 279.208 49.9526 278.774 49.9526H275.022C274.588 49.9526 274.236 49.6009 274.236 49.1671C274.236 48.7332 274.588 48.3816 275.022 48.3816H278.774ZM269.019 48.3816C269.453 48.3816 269.804 48.7332 269.804 49.1671C269.804 49.6009 269.453 49.9526 269.019 49.9526H265.267C264.833 49.9526 264.481 49.6009 264.481 49.1671C264.481 48.7332 264.833 48.3816 265.267 48.3816H269.019ZM259.264 48.3816C259.698 48.3816 260.049 48.7332 260.049 49.1671C260.049 49.6009 259.698 49.9526 259.264 49.9526H255.512C255.078 49.9526 254.726 49.6009 254.726 49.1671C254.726 48.7332 255.078 48.3816 255.512 48.3816H259.264ZM249.509 48.3816C249.943 48.3816 250.294 48.7332 250.294 49.1671C250.294 49.6009 249.943 49.9526 249.509 49.9526H245.757C245.323 49.9526 244.971 49.6009 244.971 49.1671C244.971 48.7332 245.323 48.3816 245.757 48.3816H249.509ZM239.754 48.3816C240.188 48.3816 240.539 48.7332 240.539 49.1671C240.539 49.6009 240.188 49.9526 239.754 49.9526H236.002C235.568 49.9526 235.216 49.6009 235.216 49.1671C235.216 48.7332 235.568 48.3816 236.002 48.3816H239.754ZM229.999 48.3816C230.433 48.3816 230.784 48.7332 230.784 49.1671C230.784 49.6009 230.433 49.9526 229.999 49.9526H226.247C225.813 49.9526 225.461 49.6009 225.461 49.1671C225.461 48.7332 225.813 48.3816 226.247 48.3816H229.999ZM220.244 48.3816C220.678 48.3816 221.029 48.7332 221.029 49.1671C221.029 49.6009 220.678 49.9526 220.244 49.9526H216.492C216.058 49.9526 215.706 49.6009 215.706 49.1671C215.706 48.7332 216.058 48.3816 216.492 48.3816H220.244ZM210.489 48.3816C210.923 48.3816 211.274 48.7332 211.274 49.1671C211.274 49.6009 210.923 49.9526 210.489 49.9526H206.737C206.303 49.9526 205.952 49.6009 205.952 49.1671C205.952 48.7332 206.303 48.3816 206.737 48.3816H210.489ZM200.734 48.3816C201.168 48.3816 201.519 48.7332 201.519 49.1671C201.519 49.6009 201.168 49.9526 200.734 49.9526H196.982C196.548 49.9526 196.197 49.6009 196.197 49.1671C196.197 48.7332 196.548 48.3816 196.982 48.3816H200.734ZM190.979 48.3816C191.413 48.3816 191.764 48.7332 191.764 49.1671C191.764 49.6009 191.413 49.9526 190.979 49.9526H187.227C186.793 49.9526 186.442 49.6009 186.442 49.1671C186.442 48.7332 186.793 48.3816 187.227 48.3816H190.979ZM181.224 48.3816C181.658 48.3816 182.01 48.7332 182.01 49.1671C182.01 49.6009 181.658 49.9526 181.224 49.9526H179.348C178.914 49.9526 178.562 49.6009 178.562 49.1671C178.562 48.7332 178.914 48.3816 179.348 48.3816H181.224Z" fill="url(#paint1_linear_11734_120765)"/>
<path d="M107.401 87.9227H110.939C111.281 87.9227 111.619 87.9654 111.952 88.0509C112.286 88.1278 112.581 88.2603 112.837 88.4484C113.102 88.6279 113.316 88.8629 113.478 89.1535C113.64 89.4441 113.722 89.7946 113.722 90.2048C113.722 90.7177 113.576 91.1408 113.286 91.4741C112.995 91.8075 112.615 92.0468 112.145 92.1921V92.2177C112.717 92.2947 113.187 92.5169 113.555 92.8844C113.922 93.252 114.106 93.7435 114.106 94.3589C114.106 94.8546 114.008 95.2734 113.811 95.6153C113.615 95.9487 113.354 96.2179 113.029 96.4231C112.713 96.6282 112.345 96.7778 111.927 96.8718C111.516 96.9573 111.098 97 110.67 97H107.401V87.9227ZM109.016 91.6152H110.452C110.991 91.6152 111.401 91.5083 111.683 91.2946C111.965 91.0809 112.106 90.7775 112.106 90.3843C112.106 89.9741 111.961 89.6835 111.67 89.5125C111.38 89.3416 110.927 89.2561 110.311 89.2561H109.016V91.6152ZM109.016 95.641H110.465C110.67 95.641 110.892 95.6281 111.132 95.6025C111.371 95.5683 111.589 95.5042 111.786 95.4102C111.991 95.3162 112.157 95.1794 112.286 94.9999C112.422 94.8204 112.491 94.5811 112.491 94.2819C112.491 93.8033 112.328 93.4699 112.004 93.2819C111.679 93.0939 111.187 92.9998 110.529 92.9998H109.016V95.641ZM115.522 93.8973C115.522 93.4101 115.608 92.9699 115.779 92.5767C115.958 92.175 116.198 91.8331 116.497 91.5511C116.796 91.269 117.151 91.051 117.561 90.8972C117.971 90.7433 118.407 90.6664 118.869 90.6664C119.33 90.6664 119.766 90.7433 120.177 90.8972C120.587 91.051 120.941 91.269 121.241 91.5511C121.54 91.8331 121.775 92.175 121.946 92.5767C122.125 92.9699 122.215 93.4101 122.215 93.8973C122.215 94.3845 122.125 94.829 121.946 95.2307C121.775 95.6324 121.54 95.9786 121.241 96.2692C120.941 96.5513 120.587 96.7735 120.177 96.9359C119.766 97.0983 119.33 97.1795 118.869 97.1795C118.407 97.1795 117.971 97.0983 117.561 96.9359C117.151 96.7735 116.796 96.5513 116.497 96.2692C116.198 95.9786 115.958 95.6324 115.779 95.2307C115.608 94.829 115.522 94.3845 115.522 93.8973ZM117.087 93.8973C117.087 94.1366 117.121 94.376 117.189 94.6153C117.266 94.8546 117.377 95.0683 117.523 95.2563C117.668 95.4444 117.852 95.5982 118.074 95.7179C118.296 95.8376 118.561 95.8974 118.869 95.8974C119.176 95.8974 119.441 95.8376 119.664 95.7179C119.886 95.5982 120.07 95.4444 120.215 95.2563C120.36 95.0683 120.467 94.8546 120.535 94.6153C120.612 94.376 120.651 94.1366 120.651 93.8973C120.651 93.658 120.612 93.4229 120.535 93.1921C120.467 92.9528 120.36 92.7391 120.215 92.5511C120.07 92.3631 119.886 92.2135 119.664 92.1024C119.441 91.9827 119.176 91.9229 118.869 91.9229C118.561 91.9229 118.296 91.9827 118.074 92.1024C117.852 92.2135 117.668 92.3631 117.523 92.5511C117.377 92.7391 117.266 92.9528 117.189 93.1921C117.121 93.4229 117.087 93.658 117.087 93.8973ZM123.963 90.8459H125.438V91.8716H125.463C125.634 91.5126 125.874 91.222 126.181 90.9997C126.489 90.7775 126.848 90.6664 127.258 90.6664C127.318 90.6664 127.382 90.6707 127.451 90.6792C127.519 90.6792 127.579 90.6878 127.63 90.7049V92.1152C127.527 92.0895 127.438 92.0724 127.361 92.0639C127.292 92.0553 127.224 92.0511 127.156 92.0511C126.805 92.0511 126.523 92.1152 126.309 92.2434C126.096 92.3716 125.929 92.5255 125.809 92.7049C125.69 92.8844 125.609 93.0682 125.566 93.2563C125.523 93.4443 125.502 93.5939 125.502 93.705V97H123.963V90.8459ZM128.89 90.8459H130.364V91.8716H130.39C130.561 91.5126 130.8 91.222 131.108 90.9997C131.416 90.7775 131.775 90.6664 132.185 90.6664C132.245 90.6664 132.309 90.6707 132.377 90.6792C132.446 90.6792 132.505 90.6878 132.557 90.7049V92.1152C132.454 92.0895 132.364 92.0724 132.287 92.0639C132.219 92.0553 132.151 92.0511 132.082 92.0511C131.732 92.0511 131.45 92.1152 131.236 92.2434C131.022 92.3716 130.856 92.5255 130.736 92.7049C130.616 92.8844 130.535 93.0682 130.492 93.2563C130.45 93.4443 130.428 93.5939 130.428 93.705V97H128.89V90.8459ZM133.232 93.8973C133.232 93.4101 133.318 92.9699 133.488 92.5767C133.668 92.175 133.907 91.8331 134.206 91.5511C134.506 91.269 134.86 91.051 135.271 90.8972C135.681 90.7433 136.117 90.6664 136.578 90.6664C137.04 90.6664 137.476 90.7433 137.886 90.8972C138.296 91.051 138.651 91.269 138.95 91.5511C139.249 91.8331 139.484 92.175 139.655 92.5767C139.835 92.9699 139.925 93.4101 139.925 93.8973C139.925 94.3845 139.835 94.829 139.655 95.2307C139.484 95.6324 139.249 95.9786 138.95 96.2692C138.651 96.5513 138.296 96.7735 137.886 96.9359C137.476 97.0983 137.04 97.1795 136.578 97.1795C136.117 97.1795 135.681 97.0983 135.271 96.9359C134.86 96.7735 134.506 96.5513 134.206 96.2692C133.907 95.9786 133.668 95.6324 133.488 95.2307C133.318 94.829 133.232 94.3845 133.232 93.8973ZM134.796 93.8973C134.796 94.1366 134.83 94.376 134.899 94.6153C134.976 94.8546 135.087 95.0683 135.232 95.2563C135.377 95.4444 135.561 95.5982 135.783 95.7179C136.006 95.8376 136.271 95.8974 136.578 95.8974C136.886 95.8974 137.151 95.8376 137.373 95.7179C137.595 95.5982 137.779 95.4444 137.925 95.2563C138.07 95.0683 138.177 94.8546 138.245 94.6153C138.322 94.376 138.36 94.1366 138.36 93.8973C138.36 93.658 138.322 93.4229 138.245 93.1921C138.177 92.9528 138.07 92.7391 137.925 92.5511C137.779 92.3631 137.595 92.2135 137.373 92.1024C137.151 91.9827 136.886 91.9229 136.578 91.9229C136.271 91.9229 136.006 91.9827 135.783 92.1024C135.561 92.2135 135.377 92.3631 135.232 92.5511C135.087 92.7391 134.976 92.9528 134.899 93.1921C134.83 93.4229 134.796 93.658 134.796 93.8973ZM140.801 90.8459H142.468L143.75 95.2563H143.775L145.096 90.8459H146.737L148.071 95.2563H148.096L149.404 90.8459H151.007L148.878 97H147.314L145.917 92.6921H145.891L144.506 97H142.942L140.801 90.8459ZM156.567 93.3075C156.567 93.1109 156.537 92.9229 156.477 92.7434C156.426 92.5639 156.341 92.4058 156.221 92.269C156.101 92.1323 155.947 92.0254 155.759 91.9485C155.58 91.863 155.366 91.8203 155.118 91.8203C154.657 91.8203 154.264 91.9613 153.939 92.2434C153.623 92.5169 153.447 92.8716 153.413 93.3075H156.567ZM158.106 93.9999C158.106 94.0683 158.106 94.1366 158.106 94.205C158.106 94.2734 158.101 94.3418 158.093 94.4101H153.413C153.43 94.6324 153.486 94.8375 153.58 95.0256C153.682 95.2051 153.815 95.3632 153.977 95.4999C154.14 95.6281 154.323 95.7307 154.529 95.8076C154.734 95.8846 154.947 95.923 155.17 95.923C155.554 95.923 155.879 95.8547 156.144 95.7179C156.409 95.5726 156.627 95.376 156.798 95.1281L157.824 95.9487C157.217 96.7692 156.336 97.1795 155.182 97.1795C154.704 97.1795 154.264 97.1068 153.862 96.9615C153.46 96.8077 153.11 96.594 152.811 96.3205C152.52 96.047 152.289 95.7136 152.118 95.3204C151.956 94.9187 151.875 94.4657 151.875 93.9614C151.875 93.4657 151.956 93.0169 152.118 92.6152C152.289 92.2049 152.52 91.8588 152.811 91.5767C153.101 91.2861 153.443 91.0639 153.836 90.91C154.238 90.7476 154.67 90.6664 155.131 90.6664C155.559 90.6664 155.952 90.7391 156.311 90.8844C156.678 91.0211 156.995 91.2305 157.26 91.5126C157.524 91.7861 157.73 92.1323 157.875 92.5511C158.029 92.9614 158.106 93.4443 158.106 93.9999ZM159.852 90.8459H161.327V91.8716H161.352C161.523 91.5126 161.762 91.222 162.07 90.9997C162.378 90.7775 162.737 90.6664 163.147 90.6664C163.207 90.6664 163.271 90.6707 163.339 90.6792C163.408 90.6792 163.468 90.6878 163.519 90.7049V92.1152C163.416 92.0895 163.327 92.0724 163.25 92.0639C163.181 92.0553 163.113 92.0511 163.045 92.0511C162.694 92.0511 162.412 92.1152 162.198 92.2434C161.985 92.3716 161.818 92.5255 161.698 92.7049C161.579 92.8844 161.498 93.0682 161.455 93.2563C161.412 93.4443 161.391 93.5939 161.391 93.705V97H159.852V90.8459Z" fill="white"/>
<path d="M339.286 88.1336H345.145V89.5439H340.901V92.0312H344.902V93.3903H340.901V97.2109H339.286V88.1336ZM346.615 91.0568H348.154V97.2109H346.615V91.0568ZM346.397 88.967C346.397 88.7191 346.487 88.5054 346.667 88.3259C346.855 88.1379 347.09 88.0439 347.372 88.0439C347.654 88.0439 347.889 88.1336 348.077 88.3131C348.273 88.4841 348.372 88.702 348.372 88.967C348.372 89.232 348.273 89.4542 348.077 89.6337C347.889 89.8046 347.654 89.8901 347.372 89.8901C347.09 89.8901 346.855 89.8004 346.667 89.6209C346.487 89.4328 346.397 89.2149 346.397 88.967ZM351.841 93.9416L349.623 91.0568H351.469L352.802 92.9672L354.174 91.0568H355.944L353.738 93.9416L356.251 97.2109H354.379L352.777 94.9673L351.161 97.2109H349.341L351.841 93.9416ZM361.628 93.5185C361.628 93.3219 361.598 93.1338 361.538 92.9543C361.487 92.7749 361.401 92.6167 361.282 92.48C361.162 92.3432 361.008 92.2364 360.82 92.1594C360.641 92.074 360.427 92.0312 360.179 92.0312C359.717 92.0312 359.324 92.1723 358.999 92.4543C358.683 92.7278 358.508 93.0826 358.474 93.5185H361.628ZM363.166 94.2108C363.166 94.2792 363.166 94.3476 363.166 94.4159C363.166 94.4843 363.162 94.5527 363.153 94.6211H358.474C358.491 94.8433 358.546 95.0485 358.64 95.2365C358.743 95.416 358.875 95.5741 359.038 95.7109C359.2 95.8391 359.384 95.9417 359.589 96.0186C359.794 96.0955 360.008 96.134 360.23 96.134C360.615 96.134 360.94 96.0656 361.205 95.9288C361.47 95.7835 361.688 95.5869 361.859 95.3391L362.884 96.1596C362.277 96.9802 361.397 97.3904 360.243 97.3904C359.764 97.3904 359.324 97.3178 358.922 97.1725C358.521 97.0186 358.17 96.8049 357.871 96.5314C357.581 96.2579 357.35 95.9246 357.179 95.5314C357.016 95.1297 356.935 94.6766 356.935 94.1723C356.935 93.6766 357.016 93.2279 357.179 92.8261C357.35 92.4159 357.581 92.0697 357.871 91.7876C358.162 91.497 358.504 91.2748 358.897 91.1209C359.299 90.9585 359.73 90.8773 360.192 90.8773C360.619 90.8773 361.012 90.95 361.371 91.0953C361.739 91.2321 362.055 91.4415 362.32 91.7235C362.585 91.997 362.79 92.3432 362.935 92.762C363.089 93.1723 363.166 93.6552 363.166 94.2108ZM371.169 97.2109H369.708V96.2878H369.682C369.468 96.6468 369.169 96.9203 368.785 97.1084C368.409 97.2964 368.003 97.3904 367.567 97.3904C367.097 97.3904 366.673 97.305 366.297 97.134C365.93 96.9545 365.614 96.7195 365.349 96.4289C365.092 96.1297 364.891 95.7835 364.746 95.3903C364.609 94.9886 364.541 94.5613 364.541 94.1082C364.541 93.6552 364.614 93.2321 364.759 92.839C364.904 92.4458 365.109 92.1039 365.374 91.8133C365.639 91.5227 365.956 91.2962 366.323 91.1338C366.691 90.9628 367.092 90.8773 367.528 90.8773C367.81 90.8773 368.062 90.9115 368.285 90.9799C368.507 91.0397 368.699 91.1167 368.862 91.2107C369.033 91.3047 369.178 91.4073 369.298 91.5184C369.417 91.6295 369.515 91.7363 369.592 91.8389H369.631V87.5182H371.169V97.2109ZM366.105 94.1082C366.105 94.3476 366.139 94.5869 366.208 94.8262C366.285 95.0655 366.396 95.2792 366.541 95.4673C366.686 95.6553 366.87 95.8092 367.092 95.9288C367.315 96.0485 367.575 96.1083 367.874 96.1083C368.156 96.1083 368.409 96.0528 368.631 95.9417C368.853 95.822 369.041 95.6681 369.195 95.4801C369.357 95.2921 369.477 95.0826 369.554 94.8519C369.639 94.6125 369.682 94.3732 369.682 94.1339C369.682 93.8946 369.639 93.6552 369.554 93.4159C369.477 93.1766 369.357 92.9629 369.195 92.7749C369.041 92.5868 368.853 92.433 368.631 92.3133C368.409 92.1936 368.156 92.1338 367.874 92.1338C367.575 92.1338 367.315 92.1936 367.092 92.3133C366.87 92.4244 366.686 92.574 366.541 92.762C366.396 92.9501 366.285 93.1638 366.208 93.4031C366.139 93.6339 366.105 93.8689 366.105 94.1082ZM376.834 88.1336H379.988C380.415 88.1336 380.829 88.1806 381.231 88.2747C381.633 88.3601 381.988 88.5054 382.295 88.7106C382.612 88.9157 382.864 89.185 383.052 89.5183C383.24 89.8517 383.334 90.2577 383.334 90.7363C383.334 91.3945 383.146 91.9329 382.77 92.3518C382.402 92.762 381.898 93.0398 381.257 93.1851L383.68 97.2109H381.731L379.629 93.3646H378.449V97.2109H376.834V88.1336ZM379.77 92.0441C380 92.0441 380.231 92.027 380.462 91.9928C380.693 91.9586 380.898 91.8945 381.077 91.8005C381.265 91.7064 381.419 91.5739 381.539 91.403C381.659 91.2235 381.718 90.997 381.718 90.7235C381.718 90.4756 381.663 90.2747 381.552 90.1209C381.441 89.9585 381.3 89.8303 381.129 89.7363C380.958 89.6422 380.761 89.5781 380.539 89.5439C380.325 89.5098 380.116 89.4927 379.911 89.4927H378.449V92.0441H379.77ZM388.747 96.4289H388.708C388.554 96.7024 388.307 96.9289 387.965 97.1084C387.623 97.2793 387.234 97.3648 386.798 97.3648C386.55 97.3648 386.289 97.3306 386.016 97.2622C385.751 97.2024 385.503 97.0998 385.272 96.9545C385.05 96.8007 384.862 96.6041 384.708 96.3647C384.563 96.1169 384.49 95.8134 384.49 95.4545C384.49 94.9929 384.618 94.6254 384.875 94.3518C385.14 94.0783 385.477 93.8689 385.888 93.7236C386.298 93.5783 386.751 93.4843 387.247 93.4415C387.751 93.3903 388.242 93.3646 388.721 93.3646V93.2108C388.721 92.8261 388.58 92.5441 388.298 92.3646C388.025 92.1765 387.695 92.0825 387.311 92.0825C386.986 92.0825 386.674 92.1509 386.375 92.2877C386.076 92.4244 385.828 92.5911 385.631 92.7877L384.836 91.8517C385.187 91.5269 385.589 91.2833 386.042 91.1209C386.503 90.9585 386.969 90.8773 387.439 90.8773C387.986 90.8773 388.435 90.9543 388.785 91.1081C389.144 91.262 389.426 91.4628 389.631 91.7107C389.837 91.9586 389.978 92.2364 390.055 92.5441C390.14 92.8518 390.183 93.1595 390.183 93.4672V97.2109H388.747V96.4289ZM388.721 94.4031H388.375C388.127 94.4031 387.866 94.4159 387.593 94.4416C387.319 94.4587 387.067 94.5057 386.836 94.5826C386.606 94.651 386.413 94.7536 386.259 94.8903C386.106 95.0185 386.029 95.198 386.029 95.4288C386.029 95.5741 386.059 95.6981 386.118 95.8006C386.187 95.8946 386.272 95.9716 386.375 96.0314C386.477 96.0912 386.593 96.134 386.721 96.1596C386.849 96.1853 386.977 96.1981 387.106 96.1981C387.636 96.1981 388.037 96.057 388.311 95.775C388.584 95.4929 388.721 95.1083 388.721 94.6211V94.4031ZM391.222 92.2877V91.0568H392.299V89.2747H393.812V91.0568H395.35V92.2877H393.812V95.1467C393.812 95.4203 393.859 95.6468 393.953 95.8263C394.055 96.0058 394.277 96.0955 394.619 96.0955C394.722 96.0955 394.833 96.087 394.953 96.0699C395.072 96.0442 395.179 96.01 395.273 95.9673L395.324 97.1725C395.188 97.2238 395.025 97.2622 394.837 97.2879C394.649 97.3221 394.47 97.3391 394.299 97.3391C393.889 97.3391 393.555 97.2836 393.299 97.1725C393.042 97.0528 392.837 96.8947 392.683 96.6981C392.538 96.493 392.435 96.2622 392.376 96.0058C392.324 95.7408 392.299 95.4587 392.299 95.1596V92.2877H391.222ZM401.053 93.5185C401.053 93.3219 401.024 93.1338 400.964 92.9543C400.912 92.7749 400.827 92.6167 400.707 92.48C400.588 92.3432 400.434 92.2364 400.246 92.1594C400.066 92.074 399.853 92.0312 399.605 92.0312C399.143 92.0312 398.75 92.1723 398.425 92.4543C398.109 92.7278 397.934 93.0826 397.899 93.5185H401.053ZM402.592 94.2108C402.592 94.2792 402.592 94.3476 402.592 94.4159C402.592 94.4843 402.588 94.5527 402.579 94.6211H397.899C397.917 94.8433 397.972 95.0485 398.066 95.2365C398.169 95.416 398.301 95.5741 398.464 95.7109C398.626 95.8391 398.81 95.9417 399.015 96.0186C399.22 96.0955 399.434 96.134 399.656 96.134C400.041 96.134 400.365 96.0656 400.63 95.9288C400.895 95.7835 401.113 95.5869 401.284 95.3391L402.31 96.1596C401.703 96.9802 400.823 97.3904 399.669 97.3904C399.19 97.3904 398.75 97.3178 398.348 97.1725C397.947 97.0186 397.596 96.8049 397.297 96.5314C397.006 96.2579 396.776 95.9246 396.605 95.5314C396.442 95.1297 396.361 94.6766 396.361 94.1723C396.361 93.6766 396.442 93.2279 396.605 92.8261C396.776 92.4159 397.006 92.0697 397.297 91.7876C397.588 91.497 397.929 91.2748 398.323 91.1209C398.724 90.9585 399.156 90.8773 399.618 90.8773C400.045 90.8773 400.438 90.95 400.797 91.0953C401.165 91.2321 401.481 91.4415 401.746 91.7235C402.011 91.997 402.216 92.3432 402.361 92.762C402.515 93.1723 402.592 93.6552 402.592 94.2108ZM407.877 88.1336H410.839C411.36 88.1336 411.83 88.1806 412.249 88.2747C412.668 88.3687 413.027 88.5225 413.326 88.7362C413.625 88.9499 413.856 89.2234 414.018 89.5568C414.181 89.8901 414.262 90.2918 414.262 90.7619C414.262 91.2662 414.168 91.6893 413.98 92.0312C413.792 92.3731 413.535 92.6509 413.211 92.8646C412.894 93.0697 412.523 93.2193 412.095 93.3133C411.668 93.4074 411.215 93.4544 410.736 93.4544H409.493V97.2109H407.877V88.1336ZM410.621 92.0953C410.886 92.0953 411.138 92.0782 411.377 92.0441C411.617 92.0013 411.83 91.9329 412.018 91.8389C412.206 91.7363 412.356 91.5996 412.467 91.4286C412.578 91.2577 412.634 91.0355 412.634 90.7619C412.634 90.497 412.578 90.2833 412.467 90.1209C412.356 89.9499 412.206 89.8175 412.018 89.7234C411.839 89.6294 411.629 89.5696 411.39 89.5439C411.159 89.5098 410.92 89.4927 410.672 89.4927H409.493V92.0953H410.621ZM414.684 94.1082C414.684 93.621 414.77 93.1809 414.94 92.7877C415.12 92.3859 415.359 92.0441 415.658 91.762C415.958 91.4799 416.312 91.262 416.723 91.1081C417.133 90.9543 417.569 90.8773 418.03 90.8773C418.492 90.8773 418.928 90.9543 419.338 91.1081C419.748 91.262 420.103 91.4799 420.402 91.762C420.701 92.0441 420.936 92.3859 421.107 92.7877C421.287 93.1809 421.377 93.621 421.377 94.1082C421.377 94.5954 421.287 95.0399 421.107 95.4416C420.936 95.8434 420.701 96.1895 420.402 96.4801C420.103 96.7622 419.748 96.9844 419.338 97.1468C418.928 97.3092 418.492 97.3904 418.03 97.3904C417.569 97.3904 417.133 97.3092 416.723 97.1468C416.312 96.9844 415.958 96.7622 415.658 96.4801C415.359 96.1895 415.12 95.8434 414.94 95.4416C414.77 95.0399 414.684 94.5954 414.684 94.1082ZM416.248 94.1082C416.248 94.3476 416.282 94.5869 416.351 94.8262C416.428 95.0655 416.539 95.2792 416.684 95.4673C416.829 95.6553 417.013 95.8092 417.235 95.9288C417.458 96.0485 417.723 96.1083 418.03 96.1083C418.338 96.1083 418.603 96.0485 418.825 95.9288C419.047 95.8092 419.231 95.6553 419.377 95.4673C419.522 95.2792 419.629 95.0655 419.697 94.8262C419.774 94.5869 419.812 94.3476 419.812 94.1082C419.812 93.8689 419.774 93.6339 419.697 93.4031C419.629 93.1638 419.522 92.9501 419.377 92.762C419.231 92.574 419.047 92.4244 418.825 92.3133C418.603 92.1936 418.338 92.1338 418.03 92.1338C417.723 92.1338 417.458 92.1936 417.235 92.3133C417.013 92.4244 416.829 92.574 416.684 92.762C416.539 92.9501 416.428 93.1638 416.351 93.4031C416.282 93.6339 416.248 93.8689 416.248 94.1082ZM422.766 94.1082C422.766 93.621 422.851 93.1809 423.022 92.7877C423.202 92.3859 423.441 92.0441 423.74 91.762C424.039 91.4799 424.394 91.262 424.804 91.1081C425.215 90.9543 425.651 90.8773 426.112 90.8773C426.574 90.8773 427.01 90.9543 427.42 91.1081C427.83 91.262 428.185 91.4799 428.484 91.762C428.783 92.0441 429.018 92.3859 429.189 92.7877C429.369 93.1809 429.458 93.621 429.458 94.1082C429.458 94.5954 429.369 95.0399 429.189 95.4416C429.018 95.8434 428.783 96.1895 428.484 96.4801C428.185 96.7622 427.83 96.9844 427.42 97.1468C427.01 97.3092 426.574 97.3904 426.112 97.3904C425.651 97.3904 425.215 97.3092 424.804 97.1468C424.394 96.9844 424.039 96.7622 423.74 96.4801C423.441 96.1895 423.202 95.8434 423.022 95.4416C422.851 95.0399 422.766 94.5954 422.766 94.1082ZM424.33 94.1082C424.33 94.3476 424.364 94.5869 424.433 94.8262C424.509 95.0655 424.621 95.2792 424.766 95.4673C424.911 95.6553 425.095 95.8092 425.317 95.9288C425.539 96.0485 425.804 96.1083 426.112 96.1083C426.42 96.1083 426.685 96.0485 426.907 95.9288C427.129 95.8092 427.313 95.6553 427.458 95.4673C427.604 95.2792 427.71 95.0655 427.779 94.8262C427.856 94.5869 427.894 94.3476 427.894 94.1082C427.894 93.8689 427.856 93.6339 427.779 93.4031C427.71 93.1638 427.604 92.9501 427.458 92.762C427.313 92.574 427.129 92.4244 426.907 92.3133C426.685 92.1936 426.42 92.1338 426.112 92.1338C425.804 92.1338 425.539 92.1936 425.317 92.3133C425.095 92.4244 424.911 92.574 424.766 92.762C424.621 92.9501 424.509 93.1638 424.433 93.4031C424.364 93.6339 424.33 93.8689 424.33 94.1082ZM431.232 87.5182H432.771V97.2109H431.232V87.5182Z" fill="white"/>
<path d="M370.757 15.2899L385.984 10.8187L401.212 15.2899L411.605 27.2839L413.863 42.9928L407.271 57.429L393.92 66.0092H378.049L364.698 57.429L358.105 42.9928L360.364 27.2839L370.757 15.2899Z" fill="url(#paint2_linear_11734_120765)" fill-opacity="0.5" stroke="url(#paint3_linear_11734_120765)" stroke-width="1.57103"/>
<path d="M249.4 15.458C249.4 19.167 246.394 22.1738 242.685 22.1738C238.976 22.1738 235.969 19.167 235.969 15.458C235.969 11.7489 238.976 8.74219 242.685 8.74219C246.394 8.74219 249.4 11.7489 249.4 15.458Z" fill="white"/>
<path d="M242.686 22.7835C238.639 22.7835 235.359 19.5036 235.359 15.4572C235.359 11.4108 238.639 8.13086 242.686 8.13086C246.732 8.13086 250.012 11.4108 250.012 15.4572C250.012 19.5036 246.732 22.7835 242.686 22.7835ZM242.571 20.723C243.998 20.723 245.367 20.1561 246.376 19.1471C247.385 18.1381 247.951 16.7696 247.951 15.3427C247.951 12.371 245.543 9.96244 242.571 9.96244C239.599 9.96244 237.191 12.371 237.191 15.3427C237.191 18.3144 239.599 20.723 242.571 20.723ZM242.251 13.3463V13.0074C242.251 12.9218 242.285 12.8397 242.345 12.7792C242.406 12.7186 242.488 12.6846 242.574 12.6846C242.659 12.6846 242.741 12.7186 242.802 12.7792C242.862 12.8397 242.896 12.9218 242.896 13.0074V13.3234C243.151 13.3418 243.394 13.4402 243.59 13.6047C243.785 13.7691 243.924 13.9912 243.986 14.2392C243.997 14.2883 243.988 14.3398 243.962 14.3827C243.935 14.4255 243.893 14.4562 243.844 14.4681H243.629C243.56 14.4678 243.492 14.4478 243.434 14.4105C243.375 14.3732 243.329 14.3202 243.299 14.2575C243.227 14.132 243.119 14.0302 242.99 13.9644C242.861 13.8985 242.715 13.8715 242.571 13.8866C242.113 13.8866 241.839 14.1705 241.839 14.4269C241.839 14.6833 242.054 14.8344 242.512 14.9489L242.97 15.0496C243.762 15.2191 244.096 15.5533 244.096 16.1349C244.091 16.4475 243.965 16.7459 243.743 16.9666C243.522 17.1872 243.223 17.3127 242.91 17.3162V17.7054C242.91 17.7911 242.876 17.8732 242.816 17.9337C242.755 17.9942 242.673 18.0283 242.587 18.0283C242.502 18.0283 242.42 17.9942 242.359 17.9337C242.298 17.8732 242.264 17.7911 242.264 17.7054V17.3208C241.988 17.3166 241.721 17.2208 241.504 17.0485C241.288 16.8761 241.135 16.637 241.069 16.3684C241.065 16.3476 241.066 16.3263 241.07 16.3056C241.074 16.2849 241.082 16.2653 241.094 16.2478C241.106 16.2304 241.122 16.2155 241.139 16.2039C241.157 16.1924 241.177 16.1845 241.198 16.1806H241.468C241.526 16.1811 241.584 16.1981 241.633 16.2297C241.683 16.2613 241.722 16.3062 241.747 16.3592C241.831 16.499 241.953 16.6123 242.099 16.686C242.245 16.7597 242.409 16.7908 242.571 16.7759C243.029 16.7759 243.382 16.5012 243.382 16.2219C243.382 15.9425 243.18 15.7777 242.69 15.6632L242.187 15.5442C241.468 15.3931 241.129 15.0313 241.129 14.4773C241.141 14.1828 241.263 13.9035 241.47 13.6942C241.678 13.485 241.956 13.3609 242.251 13.3463V13.3463ZM238.537 15.3427C238.538 14.4968 238.805 13.6725 239.3 12.9869C239.796 12.3014 240.495 11.7895 241.298 11.5239C241.327 11.5135 241.359 11.5104 241.389 11.5147C241.42 11.5191 241.449 11.5307 241.474 11.5487C241.499 11.5667 241.52 11.5904 241.534 11.618C241.548 11.6456 241.555 11.6761 241.555 11.707V11.8123C241.555 11.8969 241.529 11.9796 241.482 12.0497C241.435 12.1198 241.367 12.1743 241.289 12.2061C240.666 12.4576 240.133 12.8894 239.757 13.4462C239.381 14.0031 239.18 14.6595 239.18 15.3313C239.18 16.003 239.381 16.6594 239.757 17.2163C240.133 17.7731 240.666 18.205 241.289 18.4564C241.368 18.489 241.435 18.5443 241.482 18.6152C241.53 18.6862 241.555 18.7695 241.555 18.8548V18.9509C241.555 19.0056 241.533 19.058 241.494 19.0966C241.456 19.1353 241.403 19.157 241.349 19.157H241.285C240.485 18.8892 239.789 18.377 239.296 17.6926C238.803 17.0082 238.538 16.1862 238.537 15.3427V15.3427ZM246.605 15.3427C246.606 16.1864 246.342 17.009 245.849 17.6943C245.357 18.3795 244.662 18.8928 243.862 19.1615C243.83 19.1724 243.796 19.1755 243.762 19.1705C243.729 19.1656 243.697 19.1527 243.669 19.1331C243.642 19.1135 243.619 19.0875 243.603 19.0575C243.587 19.0274 243.579 18.994 243.579 18.9601V18.8822C243.581 18.7952 243.608 18.7107 243.657 18.6385C243.705 18.5663 243.774 18.5095 243.853 18.4747C244.475 18.2225 245.007 17.7907 245.382 17.2343C245.756 16.678 245.956 16.0226 245.956 15.3519C245.956 14.6812 245.756 14.0257 245.382 13.4694C245.007 12.9131 244.475 12.4812 243.853 12.229C243.772 12.1946 243.702 12.1374 243.653 12.0642C243.603 11.9911 243.576 11.9052 243.574 11.8169V11.7482C243.574 11.6292 243.67 11.533 243.789 11.533H243.858C244.657 11.8005 245.352 12.312 245.845 12.9955C246.338 13.679 246.604 14.5 246.605 15.3427Z" fill="#3366FF"/>
<path d="M262.143 16.0998C262.143 16.5687 262.062 16.9936 261.901 17.3745C261.74 17.7482 261.52 18.0669 261.242 18.3306C260.963 18.5944 260.634 18.7995 260.253 18.946C259.872 19.0852 259.458 19.1548 259.011 19.1548C258.564 19.1548 258.15 19.0852 257.769 18.946C257.388 18.7995 257.055 18.5944 256.769 18.3306C256.491 18.0669 256.271 17.7482 256.11 17.3745C255.956 16.9936 255.879 16.5687 255.879 16.0998V11.1765H257.264V16.0448C257.264 16.2719 257.293 16.4991 257.352 16.7262C257.41 16.946 257.505 17.1438 257.637 17.3196C257.776 17.4954 257.956 17.6383 258.176 17.7482C258.403 17.8581 258.681 17.913 259.011 17.913C259.341 17.913 259.615 17.8581 259.835 17.7482C260.062 17.6383 260.242 17.4954 260.374 17.3196C260.513 17.1438 260.612 16.946 260.67 16.7262C260.729 16.4991 260.758 16.2719 260.758 16.0448V11.1765H262.143V16.0998ZM268.307 12.8029C268.16 12.6124 267.951 12.4549 267.68 12.3304C267.416 12.1985 267.149 12.1326 266.878 12.1326C266.717 12.1326 266.556 12.1545 266.394 12.1985C266.233 12.2351 266.087 12.2974 265.955 12.3853C265.823 12.4659 265.713 12.5758 265.625 12.715C265.545 12.8469 265.504 13.0081 265.504 13.1985C265.504 13.3744 265.541 13.5246 265.614 13.6491C265.687 13.7737 265.786 13.8799 265.911 13.9678C266.043 14.0557 266.2 14.1327 266.383 14.1986C266.567 14.2645 266.768 14.3305 266.988 14.3964C267.237 14.477 267.493 14.5686 267.757 14.6711C268.028 14.7737 268.274 14.9092 268.493 15.0777C268.721 15.2463 268.904 15.4587 269.043 15.7151C269.189 15.9716 269.263 16.2903 269.263 16.6712C269.263 17.0888 269.186 17.4551 269.032 17.7702C268.878 18.0779 268.673 18.3343 268.416 18.5394C268.16 18.7446 267.86 18.8984 267.515 19.001C267.171 19.1036 266.808 19.1548 266.427 19.1548C265.922 19.1548 265.427 19.0633 264.944 18.8801C264.46 18.6896 264.065 18.4112 263.757 18.0449L264.746 17.1218C264.936 17.3855 265.189 17.5943 265.504 17.7482C265.827 17.902 266.142 17.979 266.449 17.979C266.611 17.979 266.775 17.9607 266.944 17.924C267.112 17.8801 267.263 17.8105 267.394 17.7152C267.534 17.62 267.644 17.5028 267.724 17.3636C267.812 17.217 267.856 17.0375 267.856 16.8251C267.856 16.6199 267.808 16.4514 267.713 16.3196C267.618 16.1804 267.49 16.0631 267.329 15.9679C267.167 15.8653 266.977 15.7774 266.757 15.7041C266.537 15.6309 266.307 15.554 266.065 15.4734C265.83 15.4001 265.596 15.3122 265.361 15.2096C265.127 15.1071 264.915 14.9715 264.724 14.803C264.541 14.6345 264.391 14.4294 264.273 14.1876C264.156 13.9385 264.098 13.6308 264.098 13.2645C264.098 12.8689 264.178 12.5282 264.339 12.2425C264.508 11.9567 264.724 11.7223 264.988 11.5391C265.259 11.3487 265.563 11.2095 265.9 11.1215C266.244 11.0263 266.592 10.9787 266.944 10.9787C267.34 10.9787 267.739 11.0483 268.142 11.1875C268.552 11.3267 268.907 11.5355 269.208 11.8139L268.307 12.8029ZM271.199 11.1765H273.958C274.463 11.1765 274.972 11.2424 275.485 11.3743C275.998 11.5062 276.46 11.726 276.87 12.0337C277.28 12.334 277.613 12.7333 277.87 13.2315C278.126 13.7224 278.254 14.3341 278.254 15.0668C278.254 15.7481 278.126 16.3342 277.87 16.8251C277.613 17.3159 277.28 17.7189 276.87 18.0339C276.46 18.3489 275.998 18.5834 275.485 18.7372C274.972 18.8838 274.463 18.957 273.958 18.957H271.199V11.1765ZM273.738 17.7482C274.097 17.7482 274.456 17.7079 274.815 17.6273C275.174 17.5394 275.496 17.3965 275.782 17.1987C276.075 16.9936 276.313 16.7188 276.496 16.3745C276.679 16.0302 276.771 15.5943 276.771 15.0668C276.771 14.51 276.679 14.0557 276.496 13.7041C276.313 13.3524 276.075 13.0777 275.782 12.8799C275.496 12.682 275.174 12.5465 274.815 12.4732C274.456 12.4 274.097 12.3633 273.738 12.3633H272.584V17.7482H273.738ZM285.757 13.0007C285.552 12.7223 285.284 12.5209 284.954 12.3963C284.625 12.2644 284.302 12.1985 283.987 12.1985C283.584 12.1985 283.218 12.2718 282.888 12.4183C282.559 12.5648 282.273 12.7663 282.031 13.0227C281.797 13.2791 281.614 13.5795 281.482 13.9239C281.357 14.2682 281.295 14.6418 281.295 15.0448C281.295 15.4697 281.357 15.858 281.482 16.2097C281.606 16.5613 281.782 16.8654 282.009 17.1218C282.244 17.3709 282.522 17.565 282.844 17.7042C283.167 17.8434 283.529 17.913 283.932 17.913C284.35 17.913 284.72 17.8324 285.042 17.6713C285.365 17.5028 285.625 17.283 285.823 17.0119L286.933 17.7921C286.588 18.2244 286.167 18.5614 285.669 18.8032C285.171 19.0376 284.588 19.1548 283.921 19.1548C283.313 19.1548 282.753 19.0559 282.24 18.8581C281.735 18.653 281.299 18.3709 280.932 18.0119C280.566 17.6456 280.28 17.2134 280.075 16.7152C279.87 16.2097 279.767 15.6529 279.767 15.0448C279.767 14.422 279.874 13.8616 280.086 13.3634C280.306 12.8579 280.603 12.4293 280.976 12.0776C281.357 11.726 281.804 11.4549 282.317 11.2644C282.83 11.0739 283.387 10.9787 283.987 10.9787C284.236 10.9787 284.497 11.0043 284.768 11.0556C285.039 11.0996 285.299 11.1728 285.548 11.2754C285.797 11.3706 286.031 11.4915 286.251 11.638C286.471 11.7846 286.658 11.9604 286.812 12.1655L285.757 13.0007Z" fill="white"/>
<path d="M246.012 63.6662C246.012 67.7124 242.732 70.9925 238.686 70.9925C234.639 70.9925 231.359 67.7124 231.359 63.6662C231.359 59.6199 234.639 56.3398 238.686 56.3398C242.732 56.3398 246.012 59.6199 246.012 63.6662Z" fill="url(#paint4_linear_11734_120765)"/>
<path d="M245.502 63.6298C245.502 67.4143 242.434 70.4823 238.649 70.4823C234.865 70.4823 231.797 67.4143 231.797 63.6298C231.797 59.8453 234.865 56.7773 238.649 56.7773C242.434 56.7773 245.502 59.8453 245.502 63.6298Z" fill="url(#paint5_linear_11734_120765)"/>
<g style="mix-blend-mode:lighten" opacity="0.7">
<path d="M238.648 56.3809C240.09 56.3809 241.5 56.8084 242.698 57.6094C243.897 58.4104 244.832 59.549 245.383 60.881C245.935 62.2131 246.08 63.6788 245.798 65.0929C245.517 66.507 244.823 67.8059 243.803 68.8254L238.648 63.6707V56.3809Z" fill="url(#paint6_radial_11734_120765)"/>
</g>
<path d="M238.297 61.2799V60.8747C238.297 60.7724 238.338 60.6742 238.411 60.6018C238.485 60.5295 238.584 60.4888 238.688 60.4888C238.791 60.4888 238.891 60.5295 238.964 60.6018C239.037 60.6742 239.079 60.7724 239.079 60.8747V61.2525C239.387 61.2745 239.681 61.3922 239.918 61.5888C240.155 61.7854 240.323 62.0509 240.398 62.3474C240.411 62.4061 240.401 62.4677 240.369 62.5189C240.337 62.5701 240.285 62.6068 240.226 62.6211H239.966C239.882 62.6206 239.8 62.5968 239.729 62.5522C239.659 62.5076 239.602 62.4442 239.566 62.3693C239.479 62.2192 239.349 62.0975 239.192 62.0188C239.036 61.9401 238.86 61.9078 238.685 61.9258C238.131 61.9258 237.798 62.2652 237.798 62.5718C237.798 62.8784 238.059 63.059 238.613 63.1959L239.167 63.3163C240.126 63.5189 240.531 63.9185 240.531 64.6138C240.525 64.9875 240.372 65.3443 240.104 65.6081C239.836 65.8719 239.474 66.0219 239.095 66.0261V66.4915C239.095 66.5938 239.054 66.692 238.981 66.7644C238.907 66.8368 238.808 66.8774 238.704 66.8774C238.601 66.8774 238.501 66.8368 238.428 66.7644C238.355 66.692 238.314 66.5938 238.314 66.4915V66.0316C237.979 66.0266 237.655 65.9121 237.393 65.706C237.132 65.5 236.946 65.214 236.867 64.8929C236.862 64.8681 236.862 64.8426 236.867 64.8179C236.872 64.7932 236.882 64.7697 236.897 64.7488C236.911 64.728 236.93 64.7101 236.951 64.6964C236.973 64.6826 236.997 64.6731 237.022 64.6685H237.349C237.42 64.669 237.489 64.6893 237.549 64.7271C237.609 64.7649 237.657 64.8186 237.687 64.882C237.789 65.0492 237.937 65.1845 238.114 65.2726C238.29 65.3607 238.488 65.398 238.685 65.3802C239.239 65.3802 239.666 65.0517 239.666 64.7178C239.666 64.3838 239.422 64.1868 238.829 64.0499L238.219 63.9076C237.349 63.7269 236.939 63.2944 236.939 62.632C236.953 62.2799 237.101 61.946 237.352 61.6959C237.604 61.4457 237.94 61.2973 238.297 61.2799ZM233.801 63.6667C233.801 62.6553 234.125 61.6698 234.725 60.8502C235.325 60.0307 236.171 59.4186 237.144 59.101C237.179 59.0887 237.217 59.085 237.254 59.0901C237.291 59.0953 237.326 59.1092 237.357 59.1307C237.387 59.1522 237.412 59.1806 237.429 59.2136C237.446 59.2465 237.455 59.2831 237.454 59.32V59.4459C237.454 59.5471 237.423 59.6459 237.366 59.7297C237.309 59.8136 237.228 59.8787 237.133 59.9167C236.378 60.2173 235.732 60.7336 235.278 61.3994C234.823 62.0651 234.58 62.8499 234.58 63.653C234.58 64.4561 234.823 65.2409 235.278 65.9066C235.732 66.5724 236.378 67.0887 237.133 67.3893C237.228 67.4283 237.309 67.4944 237.367 67.5792C237.424 67.664 237.454 67.7636 237.454 67.8655V67.9805C237.454 68.0458 237.428 68.1085 237.381 68.1547C237.334 68.2009 237.271 68.2268 237.205 68.2268H237.127C236.159 67.9068 235.317 67.2944 234.72 66.4761C234.123 65.6578 233.801 64.6751 233.801 63.6667ZM243.569 63.6667C243.57 64.6754 243.25 65.6588 242.654 66.4781C242.058 67.2974 241.217 67.911 240.248 68.2323C240.209 68.2453 240.168 68.249 240.127 68.243C240.087 68.2371 240.048 68.2218 240.014 68.1983C239.981 68.1748 239.953 68.1438 239.934 68.1079C239.915 68.0719 239.905 68.032 239.905 67.9915V67.8984C239.907 67.7944 239.94 67.6933 239.999 67.607C240.058 67.5207 240.141 67.4528 240.237 67.4112C240.99 67.1097 241.634 66.5933 242.088 65.9282C242.541 65.2631 242.784 64.4795 242.784 63.6776C242.784 62.8758 242.541 62.0921 242.088 61.427C241.634 60.7619 240.99 60.2456 240.237 59.9441C240.139 59.9029 240.054 59.8345 239.994 59.7471C239.934 59.6597 239.901 59.557 239.899 59.4514V59.3693C239.899 59.227 240.016 59.112 240.16 59.112H240.243C241.21 59.4318 242.052 60.0434 242.649 60.8605C243.245 61.6777 243.567 62.6592 243.569 63.6667Z" fill="white"/>
<path d="M253.032 62.9461H252.031V61.8911H253.032V61.1108C253.032 60.7958 253.064 60.4954 253.13 60.2097C253.204 59.9166 253.321 59.6602 253.482 59.4404C253.651 59.2206 253.87 59.0485 254.141 58.9239C254.413 58.792 254.753 58.7261 255.163 58.7261C255.31 58.7261 255.431 58.7334 255.526 58.7481C255.629 58.7554 255.731 58.7737 255.834 58.803L255.746 59.924C255.673 59.902 255.592 59.8837 255.504 59.869C255.424 59.8544 255.336 59.847 255.24 59.847C255.05 59.847 254.896 59.8837 254.779 59.9569C254.662 60.0302 254.57 60.1254 254.504 60.2426C254.446 60.3599 254.405 60.4881 254.383 60.6273C254.361 60.7665 254.35 60.902 254.35 61.0339V61.8911H255.57V62.9461H254.35V67.166H253.032V62.9461ZM263.199 64.3088C263.199 64.7776 263.119 65.2026 262.957 65.5835C262.796 65.9572 262.576 66.2759 262.298 66.5396C262.02 66.8034 261.69 67.0085 261.309 67.155C260.928 67.2942 260.514 67.3638 260.067 67.3638C259.62 67.3638 259.206 67.2942 258.825 67.155C258.444 67.0085 258.111 66.8034 257.825 66.5396C257.547 66.2759 257.327 65.9572 257.166 65.5835C257.012 65.2026 256.935 64.7776 256.935 64.3088V59.3855H258.32V64.2538C258.32 64.4809 258.349 64.708 258.408 64.9352C258.466 65.1549 258.562 65.3528 258.694 65.5286C258.833 65.7044 259.012 65.8473 259.232 65.9572C259.459 66.0671 259.738 66.122 260.067 66.122C260.397 66.122 260.672 66.0671 260.891 65.9572C261.119 65.8473 261.298 65.7044 261.43 65.5286C261.569 65.3528 261.668 65.1549 261.727 64.9352C261.785 64.708 261.815 64.4809 261.815 64.2538V59.3855H263.199V64.3088ZM269.363 61.0119C269.216 60.8214 269.007 60.6639 268.736 60.5394C268.473 60.4075 268.205 60.3416 267.934 60.3416C267.773 60.3416 267.612 60.3635 267.451 60.4075C267.289 60.4441 267.143 60.5064 267.011 60.5943C266.879 60.6749 266.769 60.7848 266.681 60.924C266.601 61.0559 266.561 61.217 266.561 61.4075C266.561 61.5834 266.597 61.7336 266.67 61.8581C266.744 61.9826 266.843 62.0889 266.967 62.1768C267.099 62.2647 267.257 62.3416 267.44 62.4076C267.623 62.4735 267.824 62.5394 268.044 62.6054C268.293 62.686 268.55 62.7776 268.813 62.8801C269.084 62.9827 269.33 63.1182 269.55 63.2867C269.777 63.4552 269.96 63.6677 270.099 63.9241C270.246 64.1805 270.319 64.4992 270.319 64.8802C270.319 65.2978 270.242 65.6641 270.088 65.9792C269.934 66.2869 269.729 66.5433 269.473 66.7484C269.216 66.9536 268.916 67.1074 268.572 67.21C268.227 67.3125 267.865 67.3638 267.484 67.3638C266.978 67.3638 266.484 67.2722 266 67.0891C265.517 66.8986 265.121 66.6202 264.813 66.2539L265.802 65.3308C265.993 65.5945 266.245 65.8033 266.561 65.9572C266.883 66.111 267.198 66.188 267.506 66.188C267.667 66.188 267.832 66.1696 268 66.133C268.169 66.089 268.319 66.0194 268.451 65.9242C268.59 65.829 268.7 65.7117 268.78 65.5725C268.868 65.426 268.912 65.2465 268.912 65.0341C268.912 64.8289 268.865 64.6604 268.769 64.5285C268.674 64.3893 268.546 64.2721 268.385 64.1769C268.224 64.0743 268.033 63.9864 267.813 63.9131C267.594 63.8399 267.363 63.7629 267.121 63.6824C266.887 63.6091 266.652 63.5212 266.418 63.4186C266.183 63.316 265.971 63.1805 265.78 63.012C265.597 62.8435 265.447 62.6384 265.33 62.3966C265.212 62.1475 265.154 61.8398 265.154 61.4735C265.154 61.0778 265.234 60.7372 265.396 60.4514C265.564 60.1657 265.78 59.9313 266.044 59.7481C266.315 59.5576 266.619 59.4184 266.956 59.3305C267.3 59.2353 267.648 59.1877 268 59.1877C268.396 59.1877 268.795 59.2573 269.198 59.3965C269.608 59.5357 269.964 59.7445 270.264 60.0229L269.363 61.0119ZM272.255 59.3855H275.014C275.519 59.3855 276.029 59.4514 276.541 59.5833C277.054 59.7152 277.516 59.9349 277.926 60.2426C278.336 60.543 278.67 60.9423 278.926 61.4405C279.182 61.9314 279.311 62.5431 279.311 63.2757C279.311 63.9571 279.182 64.5432 278.926 65.0341C278.67 65.5249 278.336 65.9279 277.926 66.2429C277.516 66.5579 277.054 66.7924 276.541 66.9462C276.029 67.0928 275.519 67.166 275.014 67.166H272.255V59.3855ZM274.794 65.9572C275.153 65.9572 275.512 65.9169 275.871 65.8363C276.23 65.7484 276.552 65.6055 276.838 65.4077C277.131 65.2026 277.369 64.9278 277.552 64.5835C277.736 64.2392 277.827 63.8032 277.827 63.2757C277.827 62.7189 277.736 62.2647 277.552 61.913C277.369 61.5614 277.131 61.2866 276.838 61.0888C276.552 60.891 276.23 60.7555 275.871 60.6822C275.512 60.609 275.153 60.5723 274.794 60.5723H273.64V65.9572H274.794ZM286.813 61.2097C286.608 60.9313 286.34 60.7298 286.011 60.6053C285.681 60.4734 285.359 60.4075 285.044 60.4075C284.641 60.4075 284.274 60.4808 283.945 60.6273C283.615 60.7738 283.329 60.9753 283.087 61.2317C282.853 61.4881 282.67 61.7885 282.538 62.1328C282.413 62.4772 282.351 62.8508 282.351 63.2538C282.351 63.6787 282.413 64.067 282.538 64.4186C282.663 64.7703 282.838 65.0744 283.065 65.3308C283.3 65.5799 283.578 65.774 283.901 65.9132C284.223 66.0524 284.586 66.122 284.989 66.122C285.406 66.122 285.776 66.0414 286.099 65.8802C286.421 65.7117 286.681 65.492 286.879 65.2209L287.989 66.0011C287.644 66.4334 287.223 66.7704 286.725 67.0122C286.227 67.2466 285.644 67.3638 284.978 67.3638C284.37 67.3638 283.809 67.2649 283.296 67.0671C282.791 66.862 282.355 66.5799 281.989 66.2209C281.622 65.8546 281.336 65.4224 281.131 64.9242C280.926 64.4186 280.824 63.8618 280.824 63.2538C280.824 62.631 280.93 62.0706 281.142 61.5724C281.362 61.0669 281.659 60.6383 282.032 60.2866C282.413 59.9349 282.86 59.6639 283.373 59.4734C283.886 59.2829 284.443 59.1877 285.044 59.1877C285.293 59.1877 285.553 59.2133 285.824 59.2646C286.095 59.3085 286.355 59.3818 286.604 59.4844C286.853 59.5796 287.088 59.7005 287.307 59.847C287.527 59.9936 287.714 60.1694 287.868 60.3745L286.813 61.2097Z" fill="white"/>
<path d="M164.695 38.6364C164.695 54.5684 151.779 67.4838 135.847 67.4838C119.915 67.4838 107 54.5684 107 38.6364C107 22.7045 119.915 9.78906 135.847 9.78906C151.779 9.78906 164.695 22.7045 164.695 38.6364Z" fill="white"/>
<path fill-rule="evenodd" clip-rule="evenodd" d="M135.847 61.9852C148.743 61.9852 159.196 51.5316 159.196 38.6364C159.196 25.7413 148.743 15.2877 135.847 15.2877C122.952 15.2877 112.499 25.7413 112.499 38.6364C112.499 51.5316 122.952 61.9852 135.847 61.9852ZM135.847 67.4838C151.779 67.4838 164.695 54.5684 164.695 38.6364C164.695 22.7045 151.779 9.78906 135.847 9.78906C119.915 9.78906 107 22.7045 107 38.6364C107 54.5684 119.915 67.4838 135.847 67.4838Z" fill="url(#paint7_linear_11734_120765)"/>
<mask id="path-16-inside-1_11734_120765" fill="white">
<path fill-rule="evenodd" clip-rule="evenodd" d="M156.789 58.4759C161.689 53.3055 164.695 46.322 164.695 38.6364C164.695 22.7045 151.779 9.78906 135.847 9.78906C119.915 9.78906 107 22.7045 107 38.6364C107 46.3466 110.025 53.3503 114.953 58.5256C115.678 50.1945 122.692 43.6336 131.21 43.6336H140.536C149.035 43.6336 156.04 50.1684 156.789 58.4759ZM135.873 38.9708C130.089 38.9708 125.382 34.2638 125.382 28.4796C125.382 22.6954 130.089 17.9883 135.873 17.9883C141.657 17.9883 146.364 22.6954 146.364 28.4796C146.364 34.2638 141.657 38.9708 135.873 38.9708Z"/>
</mask>
<path fill-rule="evenodd" clip-rule="evenodd" d="M156.789 58.4759C161.689 53.3055 164.695 46.322 164.695 38.6364C164.695 22.7045 151.779 9.78906 135.847 9.78906C119.915 9.78906 107 22.7045 107 38.6364C107 46.3466 110.025 53.3503 114.953 58.5256C115.678 50.1945 122.692 43.6336 131.21 43.6336H140.536C149.035 43.6336 156.04 50.1684 156.789 58.4759ZM135.873 38.9708C130.089 38.9708 125.382 34.2638 125.382 28.4796C125.382 22.6954 130.089 17.9883 135.873 17.9883C141.657 17.9883 146.364 22.6954 146.364 28.4796C146.364 34.2638 141.657 38.9708 135.873 38.9708Z" fill="url(#paint8_linear_11734_120765)"/>
<path d="M156.789 58.4759L151.313 58.9699L152.407 71.0944L160.781 62.2582L156.789 58.4759ZM114.953 58.5256L110.97 62.3173L119.373 71.1422L120.43 59.0028L114.953 58.5256ZM159.196 38.6364C159.196 44.8595 156.769 50.5039 152.798 54.6936L160.781 62.2582C166.61 56.1072 170.193 47.7844 170.193 38.6364H159.196ZM135.847 15.2877C148.743 15.2877 159.196 25.7413 159.196 38.6364H170.193C170.193 19.6677 154.816 4.29046 135.847 4.29046V15.2877ZM112.499 38.6364C112.499 25.7413 122.952 15.2877 135.847 15.2877V4.29046C116.879 4.29046 101.501 19.6677 101.501 38.6364H112.499ZM118.935 54.7339C114.941 50.5401 112.499 44.8794 112.499 38.6364H101.501C101.501 47.8139 105.108 56.1606 110.97 62.3173L118.935 54.7339ZM131.21 38.135C119.813 38.135 110.445 46.9039 109.475 58.0485L120.43 59.0028C120.911 53.485 125.572 49.1322 131.21 49.1322V38.135ZM140.536 38.135H131.21V49.1322H140.536V38.135ZM162.266 57.9819C161.263 46.8688 151.909 38.135 140.536 38.135V49.1322C146.161 49.1322 150.817 53.468 151.313 58.9699L162.266 57.9819ZM119.883 28.4796C119.883 37.3006 127.052 44.4695 135.873 44.4695V33.4722C133.126 33.4722 130.881 31.227 130.881 28.4796H119.883ZM135.873 12.4897C127.052 12.4897 119.883 19.6586 119.883 28.4796H130.881C130.881 25.7322 133.126 23.4869 135.873 23.4869V12.4897ZM151.863 28.4796C151.863 19.6586 144.694 12.4897 135.873 12.4897V23.4869C138.621 23.4869 140.866 25.7322 140.866 28.4796H151.863ZM135.873 44.4695C144.694 44.4695 151.863 37.3006 151.863 28.4796H140.866C140.866 31.227 138.621 33.4722 135.873 33.4722V44.4695Z" fill="url(#paint9_linear_11734_120765)" mask="url(#path-16-inside-1_11734_120765)"/>
</g>
<defs>
<linearGradient id="paint0_linear_11734_120765" x1="179" y1="30" x2="343" y2="30" gradientUnits="userSpaceOnUse">
<stop stop-color="#33F9FF"/>
<stop offset="1" stop-color="#909CB4"/>
</linearGradient>
<linearGradient id="paint1_linear_11734_120765" x1="179" y1="49" x2="343" y2="49" gradientUnits="userSpaceOnUse">
<stop stop-color="#8BA4E5"/>
<stop offset="1" stop-color="#4D9FFF"/>
</linearGradient>
<linearGradient id="paint2_linear_11734_120765" x1="452.598" y1="70.3048" x2="451.485" y2="10.4344" gradientUnits="userSpaceOnUse">
<stop stop-color="#BFC9F5" stop-opacity="0.5"/>
<stop offset="0.0001" stop-color="#8EA1F5" stop-opacity="0.5"/>
<stop offset="1" stop-color="#26CBCF"/>
</linearGradient>
<linearGradient id="paint3_linear_11734_120765" x1="452.598" y1="70.3048" x2="451.485" y2="10.4344" gradientUnits="userSpaceOnUse">
<stop stop-color="#BFC9F5" stop-opacity="0.5"/>
<stop offset="0.0001" stop-color="#8EA1F5" stop-opacity="0.5"/>
<stop offset="1" stop-color="#26CBCF"/>
</linearGradient>
<linearGradient id="paint4_linear_11734_120765" x1="238.686" y1="56.3398" x2="238.686" y2="70.9925" gradientUnits="userSpaceOnUse">
<stop stop-color="#2BCAD0"/>
<stop offset="1" stop-color="#8BC1E5"/>
</linearGradient>
<linearGradient id="paint5_linear_11734_120765" x1="251.74" y1="63.6894" x2="228.545" y2="63.6894" gradientUnits="userSpaceOnUse">
<stop offset="0.239095" stop-color="#053542"/>
<stop offset="1" stop-color="#06657E"/>
</linearGradient>
<radialGradient id="paint6_radial_11734_120765" cx="0" cy="0" r="1" gradientUnits="userSpaceOnUse" gradientTransform="translate(238.648 63.6708) rotate(-45) scale(7.28987)">
<stop stop-color="#33F8FF"/>
<stop offset="1" stop-color="#065368"/>
</radialGradient>
<linearGradient id="paint7_linear_11734_120765" x1="135.847" y1="9.78906" x2="135.847" y2="67.4838" gradientUnits="userSpaceOnUse">
<stop stop-color="#2BCAD0"/>
<stop offset="1" stop-color="#8BA4E5"/>
</linearGradient>
<linearGradient id="paint8_linear_11734_120765" x1="135.847" y1="9.78906" x2="135.847" y2="58.5256" gradientUnits="userSpaceOnUse">
<stop stop-color="#2BCAD0"/>
<stop offset="1" stop-color="#8BA4E5"/>
</linearGradient>
<linearGradient id="paint9_linear_11734_120765" x1="135.847" y1="9.78906" x2="135.847" y2="58.5256" gradientUnits="userSpaceOnUse">
<stop stop-color="#2BCAD0"/>
<stop offset="1" stop-color="#8BA4E5"/>
</linearGradient>
<clipPath id="clip0_11734_120765">
<rect width="522" height="102" fill="white"/>
</clipPath>
</defs>
</svg>