<svg width="522" height="102" viewBox="0 0 522 102" fill="none" xmlns="http://www.w3.org/2000/svg">
<path fill-rule="evenodd" clip-rule="evenodd" d="M186.691 37.3459C187.009 37.6404 187.506 37.621 187.801 37.3024C188.095 36.9839 188.076 36.4869 187.757 36.1924L180.534 29.5139L187.741 23.2006C188.068 22.9148 188.101 22.4185 187.815 22.0922C187.529 21.7658 187.033 21.733 186.706 22.0189L178.842 28.9072C178.675 29.0539 178.577 29.2649 178.574 29.4876C178.571 29.7102 178.663 29.9237 178.826 30.0749L186.691 37.3459ZM185.771 29.1513C185.337 29.1513 184.986 29.5029 184.986 29.9368C184.986 30.3706 185.337 30.7223 185.771 30.7223H187.667C188.101 30.7223 188.453 30.3706 188.453 29.9368C188.453 29.5029 188.101 29.1513 187.667 29.1513L185.771 29.1513ZM193.734 29.1513C193.301 29.1513 192.949 29.5029 192.949 29.9368C192.949 30.3706 193.301 30.7223 193.734 30.7223H197.526C197.96 30.7223 198.312 30.3706 198.312 29.9368C198.312 29.5029 197.96 29.1513 197.526 29.1513L193.734 29.1513ZM203.594 29.1513C203.16 29.1513 202.808 29.5029 202.808 29.9368C202.808 30.3706 203.16 30.7223 203.594 30.7223H207.386C207.82 30.7223 208.171 30.3706 208.171 29.9368C208.171 29.5029 207.82 29.1513 207.386 29.1513H203.594ZM213.453 29.1513C213.019 29.1513 212.668 29.5029 212.668 29.9368C212.668 30.3706 213.019 30.7223 213.453 30.7223H217.245C217.679 30.7223 218.031 30.3706 218.031 29.9368C218.031 29.5029 217.679 29.1513 217.245 29.1513L213.453 29.1513ZM223.312 29.1513C222.879 29.1513 222.527 29.5029 222.527 29.9368C222.527 30.3706 222.879 30.7223 223.312 30.7223H227.104C227.538 30.7223 227.89 30.3706 227.89 29.9368C227.89 29.5029 227.538 29.1513 227.104 29.1513L223.312 29.1513ZM233.172 29.1513C232.738 29.1513 232.386 29.5029 232.386 29.9368C232.386 30.3706 232.738 30.7223 233.172 30.7223L236.946 30.7223C237.38 30.7223 237.732 30.3706 237.732 29.9368C237.732 29.5029 237.38 29.1513 236.946 29.1513L233.172 29.1513ZM242.957 29.1513C242.523 29.1513 242.171 29.5029 242.171 29.9368C242.171 30.3706 242.523 30.7223 242.957 30.7223H246.714C247.147 30.7223 247.499 30.3706 247.499 29.9368C247.499 29.5029 247.147 29.1513 246.714 29.1513H242.957ZM252.724 29.1513C252.29 29.1513 251.939 29.5029 251.939 29.9368C251.939 30.3706 252.29 30.7223 252.724 30.7223H256.481C256.915 30.7223 257.266 30.3706 257.266 29.9368C257.266 29.5029 256.915 29.1513 256.481 29.1513L252.724 29.1513ZM262.492 29.1513C262.058 29.1513 261.706 29.5029 261.706 29.9368C261.706 30.3706 262.058 30.7223 262.492 30.7223H266.248C266.682 30.7223 267.034 30.3706 267.034 29.9368C267.034 29.5029 266.682 29.1513 266.248 29.1513H262.492ZM272.259 29.1513C271.825 29.1513 271.474 29.5029 271.474 29.9368C271.474 30.3706 271.825 30.7223 272.259 30.7223H276.016C276.45 30.7223 276.801 30.3706 276.801 29.9368C276.801 29.5029 276.45 29.1513 276.016 29.1513L272.259 29.1513ZM282.027 29.1513C281.593 29.1513 281.241 29.5029 281.241 29.9368C281.241 30.3706 281.593 30.7223 282.027 30.7223H285.783C286.217 30.7223 286.569 30.3706 286.569 29.9368C286.569 29.5029 286.217 29.1513 285.783 29.1513H282.027ZM291.794 29.1513C291.36 29.1513 291.008 29.5029 291.008 29.9368C291.008 30.3706 291.36 30.7223 291.794 30.7223H295.551C295.984 30.7223 296.336 30.3706 296.336 29.9368C296.336 29.5029 295.984 29.1513 295.551 29.1513L291.794 29.1513ZM301.561 29.1513C301.128 29.1513 300.776 29.5029 300.776 29.9368C300.776 30.3706 301.128 30.7223 301.561 30.7223H305.318C305.752 30.7223 306.104 30.3706 306.104 29.9368C306.104 29.5029 305.752 29.1513 305.318 29.1513L301.561 29.1513ZM311.329 29.1513C310.895 29.1513 310.543 29.5029 310.543 29.9368C310.543 30.3706 310.895 30.7223 311.329 30.7223H315.085C315.519 30.7223 315.871 30.3706 315.871 29.9368C315.871 29.5029 315.519 29.1513 315.085 29.1513H311.329ZM321.096 29.1513C320.662 29.1513 320.311 29.5029 320.311 29.9368C320.311 30.3706 320.662 30.7223 321.096 30.7223H324.853C325.287 30.7223 325.638 30.3706 325.638 29.9368C325.638 29.5029 325.287 29.1513 324.853 29.1513H321.096ZM330.864 29.1513C330.43 29.1513 330.078 29.5029 330.078 29.9368C330.078 30.3706 330.43 30.7223 330.864 30.7223H334.62C335.054 30.7223 335.406 30.3706 335.406 29.9368C335.406 29.5029 335.054 29.1513 334.62 29.1513H330.864ZM340.631 29.1513C340.197 29.1513 339.845 29.5029 339.845 29.9368C339.845 30.3706 340.197 30.7223 340.631 30.7223H342.509C342.943 30.7223 343.295 30.3706 343.295 29.9368C343.295 29.5029 342.943 29.1513 342.509 29.1513L340.631 29.1513Z" fill="#063642"/>
<path fill-rule="evenodd" clip-rule="evenodd" d="M335.007 56.3237C334.674 56.6011 334.178 56.5556 333.901 56.2221C333.624 55.8885 333.669 55.3932 334.003 55.1158L341.112 49.2037L334.019 43.6155C333.678 43.347 333.62 42.8531 333.888 42.5123C334.156 42.1715 334.65 42.1129 334.991 42.3814L342.846 48.5702C343.033 48.7169 343.143 48.9398 343.146 49.1768C343.149 49.4138 343.045 49.6396 342.862 49.7912L335.007 56.3237ZM335.95 48.3816C336.383 48.3816 336.735 48.7332 336.735 49.1671C336.735 49.6009 336.383 49.9526 335.95 49.9526H334.054C333.62 49.9526 333.268 49.6009 333.268 49.1671C333.268 48.7332 333.62 48.3816 334.054 48.3816H335.95ZM327.986 48.3816C328.42 48.3816 328.772 48.7332 328.772 49.1671C328.772 49.6009 328.42 49.9526 327.986 49.9526H324.194C323.76 49.9526 323.409 49.6009 323.409 49.1671C323.409 48.7332 323.76 48.3816 324.194 48.3816H327.986ZM318.127 48.3816C318.561 48.3816 318.912 48.7332 318.912 49.1671C318.912 49.6009 318.561 49.9526 318.127 49.9526H314.335C313.901 49.9526 313.549 49.6009 313.549 49.1671C313.549 48.7332 313.901 48.3816 314.335 48.3816H318.127ZM308.268 48.3816C308.701 48.3816 309.053 48.7332 309.053 49.1671C309.053 49.6009 308.701 49.9526 308.268 49.9526H304.476C304.042 49.9526 303.69 49.6009 303.69 49.1671C303.69 48.7332 304.042 48.3816 304.476 48.3816H308.268ZM298.408 48.3816C298.842 48.3816 299.194 48.7332 299.194 49.1671C299.194 49.6009 298.842 49.9526 298.408 49.9526H294.616C294.182 49.9526 293.831 49.6009 293.831 49.1671C293.831 48.7332 294.182 48.3816 294.616 48.3816H298.408ZM288.549 48.3816C288.983 48.3816 289.334 48.7332 289.334 49.1671C289.334 49.6009 288.983 49.9526 288.549 49.9526H284.777C284.343 49.9526 283.991 49.6009 283.991 49.1671C283.991 48.7332 284.343 48.3816 284.777 48.3816H288.549ZM278.774 48.3816C279.208 48.3816 279.559 48.7332 279.559 49.1671C279.559 49.6009 279.208 49.9526 278.774 49.9526H275.022C274.588 49.9526 274.236 49.6009 274.236 49.1671C274.236 48.7332 274.588 48.3816 275.022 48.3816H278.774ZM269.019 48.3816C269.453 48.3816 269.804 48.7332 269.804 49.1671C269.804 49.6009 269.453 49.9526 269.019 49.9526H265.267C264.833 49.9526 264.481 49.6009 264.481 49.1671C264.481 48.7332 264.833 48.3816 265.267 48.3816H269.019ZM259.264 48.3816C259.698 48.3816 260.049 48.7332 260.049 49.1671C260.049 49.6009 259.698 49.9526 259.264 49.9526H255.512C255.078 49.9526 254.726 49.6009 254.726 49.1671C254.726 48.7332 255.078 48.3816 255.512 48.3816H259.264ZM249.509 48.3816C249.943 48.3816 250.294 48.7332 250.294 49.1671C250.294 49.6009 249.943 49.9526 249.509 49.9526H245.757C245.323 49.9526 244.971 49.6009 244.971 49.1671C244.971 48.7332 245.323 48.3816 245.757 48.3816H249.509ZM239.754 48.3816C240.188 48.3816 240.539 48.7332 240.539 49.1671C240.539 49.6009 240.188 49.9526 239.754 49.9526H236.002C235.568 49.9526 235.216 49.6009 235.216 49.1671C235.216 48.7332 235.568 48.3816 236.002 48.3816H239.754ZM229.999 48.3816C230.433 48.3816 230.784 48.7332 230.784 49.1671C230.784 49.6009 230.433 49.9526 229.999 49.9526H226.247C225.813 49.9526 225.461 49.6009 225.461 49.1671C225.461 48.7332 225.813 48.3816 226.247 48.3816H229.999ZM220.244 48.3816C220.678 48.3816 221.029 48.7332 221.029 49.1671C221.029 49.6009 220.678 49.9526 220.244 49.9526H216.492C216.058 49.9526 215.706 49.6009 215.706 49.1671C215.706 48.7332 216.058 48.3816 216.492 48.3816H220.244ZM210.489 48.3816C210.923 48.3816 211.274 48.7332 211.274 49.1671C211.274 49.6009 210.923 49.9526 210.489 49.9526H206.737C206.303 49.9526 205.952 49.6009 205.952 49.1671C205.952 48.7332 206.303 48.3816 206.737 48.3816H210.489ZM200.734 48.3816C201.168 48.3816 201.519 48.7332 201.519 49.1671C201.519 49.6009 201.168 49.9526 200.734 49.9526H196.982C196.548 49.9526 196.197 49.6009 196.197 49.1671C196.197 48.7332 196.548 48.3816 196.982 48.3816H200.734ZM190.979 48.3816C191.413 48.3816 191.764 48.7332 191.764 49.1671C191.764 49.6009 191.413 49.9526 190.979 49.9526H187.227C186.793 49.9526 186.442 49.6009 186.442 49.1671C186.442 48.7332 186.793 48.3816 187.227 48.3816H190.979ZM181.224 48.3816C181.658 48.3816 182.01 48.7332 182.01 49.1671C182.01 49.6009 181.658 49.9526 181.224 49.9526H179.348C178.914 49.9526 178.562 49.6009 178.562 49.1671C178.562 48.7332 178.914 48.3816 179.348 48.3816H181.224Z" fill="#27C1C7"/>
<path d="M261.725 16.0996C261.725 16.5685 261.644 16.9934 261.483 17.3744C261.322 17.748 261.102 18.0667 260.824 18.3305C260.545 18.5942 260.216 18.7994 259.835 18.9459C259.454 19.0851 259.04 19.1547 258.593 19.1547C258.146 19.1547 257.732 19.0851 257.351 18.9459C256.97 18.7994 256.637 18.5942 256.351 18.3305C256.073 18.0667 255.853 17.748 255.692 17.3744C255.538 16.9934 255.461 16.5685 255.461 16.0996V11.1763H256.846V16.0447C256.846 16.2718 256.875 16.4989 256.934 16.726C256.992 16.9458 257.087 17.1436 257.219 17.3194C257.358 17.4953 257.538 17.6381 257.758 17.748C257.985 17.8579 258.263 17.9129 258.593 17.9129C258.923 17.9129 259.197 17.8579 259.417 17.748C259.644 17.6381 259.824 17.4953 259.956 17.3194C260.095 17.1436 260.194 16.9458 260.252 16.726C260.311 16.4989 260.34 16.2718 260.34 16.0447V11.1763H261.725V16.0996Z" fill="#012E3A"/>
<path d="M267.889 12.8028C267.742 12.6123 267.533 12.4548 267.262 12.3302C266.998 12.1983 266.731 12.1324 266.46 12.1324C266.299 12.1324 266.138 12.1544 265.976 12.1983C265.815 12.235 265.669 12.2973 265.537 12.3852C265.405 12.4658 265.295 12.5757 265.207 12.7149C265.127 12.8467 265.086 13.0079 265.086 13.1984C265.086 13.3742 265.123 13.5244 265.196 13.649C265.269 13.7735 265.368 13.8797 265.493 13.9677C265.625 14.0556 265.782 14.1325 265.965 14.1984C266.149 14.2644 266.35 14.3303 266.57 14.3962C266.819 14.4768 267.075 14.5684 267.339 14.671C267.61 14.7735 267.856 14.9091 268.075 15.0776C268.303 15.2461 268.486 15.4586 268.625 15.715C268.771 15.9714 268.845 16.2901 268.845 16.6711C268.845 17.0887 268.768 17.455 268.614 17.77C268.46 18.0777 268.255 18.3341 267.998 18.5393C267.742 18.7444 267.442 18.8983 267.097 19.0008C266.753 19.1034 266.39 19.1547 266.009 19.1547C265.504 19.1547 265.009 19.0631 264.526 18.8799C264.042 18.6895 263.647 18.4111 263.339 18.0447L264.328 17.1216C264.518 17.3854 264.771 17.5942 265.086 17.748C265.409 17.9019 265.724 17.9788 266.031 17.9788C266.193 17.9788 266.357 17.9605 266.526 17.9239C266.694 17.8799 266.845 17.8103 266.976 17.7151C267.116 17.6198 267.226 17.5026 267.306 17.3634C267.394 17.2169 267.438 17.0374 267.438 16.8249C267.438 16.6198 267.39 16.4513 267.295 16.3194C267.2 16.1802 267.072 16.063 266.911 15.9677C266.749 15.8652 266.559 15.7773 266.339 15.704C266.119 15.6307 265.888 15.5538 265.647 15.4732C265.412 15.3999 265.178 15.312 264.943 15.2095C264.709 15.1069 264.496 14.9714 264.306 14.8029C264.123 14.6343 263.973 14.4292 263.855 14.1874C263.738 13.9383 263.68 13.6306 263.68 13.2643C263.68 12.8687 263.76 12.528 263.921 12.2423C264.09 11.9566 264.306 11.7221 264.57 11.539C264.841 11.3485 265.145 11.2093 265.482 11.1214C265.826 11.0261 266.174 10.9785 266.526 10.9785C266.921 10.9785 267.321 11.0481 267.724 11.1873C268.134 11.3265 268.489 11.5353 268.79 11.8137L267.889 12.8028Z" fill="#012E3A"/>
<path d="M270.781 11.1763H273.54C274.045 11.1763 274.554 11.2423 275.067 11.3741C275.58 11.506 276.042 11.7258 276.452 12.0335C276.862 12.3339 277.195 12.7332 277.452 13.2314C277.708 13.7222 277.836 14.334 277.836 15.0666C277.836 15.7479 277.708 16.3341 277.452 16.8249C277.195 17.3158 276.862 17.7187 276.452 18.0338C276.042 18.3488 275.58 18.5832 275.067 18.7371C274.554 18.8836 274.045 18.9569 273.54 18.9569H270.781V11.1763ZM273.32 17.748C273.679 17.748 274.038 17.7077 274.397 17.6271C274.756 17.5392 275.078 17.3964 275.364 17.1986C275.657 16.9934 275.895 16.7187 276.078 16.3743C276.261 16.03 276.353 15.5941 276.353 15.0666C276.353 14.5098 276.261 14.0556 276.078 13.7039C275.895 13.3522 275.657 13.0775 275.364 12.8797C275.078 12.6819 274.756 12.5463 274.397 12.4731C274.038 12.3998 273.679 12.3632 273.32 12.3632H272.166V17.748H273.32Z" fill="#012E3A"/>
<path d="M285.339 13.0006C285.134 12.7222 284.866 12.5207 284.536 12.3962C284.207 12.2643 283.884 12.1983 283.569 12.1983C283.166 12.1983 282.8 12.2716 282.47 12.4181C282.141 12.5647 281.855 12.7661 281.613 13.0226C281.379 13.279 281.196 13.5794 281.064 13.9237C280.939 14.268 280.877 14.6417 280.877 15.0446C280.877 15.4695 280.939 15.8578 281.064 16.2095C281.188 16.5612 281.364 16.8652 281.591 17.1216C281.826 17.3707 282.104 17.5649 282.426 17.7041C282.749 17.8433 283.111 17.9129 283.514 17.9129C283.932 17.9129 284.302 17.8323 284.624 17.6711C284.947 17.5026 285.207 17.2828 285.405 17.0117L286.515 17.792C286.17 18.2242 285.749 18.5613 285.251 18.803C284.753 19.0375 284.17 19.1547 283.503 19.1547C282.895 19.1547 282.335 19.0558 281.822 18.858C281.317 18.6528 280.881 18.3708 280.514 18.0118C280.148 17.6455 279.862 17.2132 279.657 16.715C279.452 16.2095 279.349 15.6527 279.349 15.0446C279.349 14.4219 279.456 13.8614 279.668 13.3632C279.888 12.8577 280.185 12.4291 280.558 12.0775C280.939 11.7258 281.386 11.4547 281.899 11.2642C282.412 11.0738 282.969 10.9785 283.569 10.9785C283.818 10.9785 284.079 11.0042 284.35 11.0554C284.621 11.0994 284.881 11.1727 285.13 11.2752C285.379 11.3705 285.613 11.4914 285.833 11.6379C286.053 11.7844 286.24 11.9602 286.394 12.1654L285.339 13.0006Z" fill="#012E3A"/>
<path d="M252.664 62.9465H251.664V61.8915H252.664V61.1113C252.664 60.7962 252.697 60.4959 252.763 60.2101C252.836 59.9171 252.953 59.6607 253.115 59.4409C253.283 59.2211 253.503 59.0489 253.774 58.9244C254.045 58.7925 254.386 58.7266 254.796 58.7266C254.943 58.7266 255.063 58.7339 255.159 58.7485C255.261 58.7559 255.364 58.7742 255.466 58.8035L255.379 59.9244C255.305 59.9024 255.225 59.8841 255.137 59.8695C255.056 59.8548 254.968 59.8475 254.873 59.8475C254.683 59.8475 254.529 59.8841 254.411 59.9574C254.294 60.0306 254.203 60.1259 254.137 60.2431C254.078 60.3603 254.038 60.4885 254.016 60.6277C253.994 60.7669 253.983 60.9025 253.983 61.0344V61.8915H255.203V62.9465H253.983V67.1665H252.664V62.9465Z" fill="#012E3A"/>
<path d="M262.832 64.3092C262.832 64.7781 262.751 65.203 262.59 65.584C262.429 65.9576 262.209 66.2763 261.931 66.5401C261.652 66.8038 261.323 67.009 260.942 67.1555C260.561 67.2947 260.147 67.3643 259.7 67.3643C259.253 67.3643 258.839 67.2947 258.458 67.1555C258.077 67.009 257.744 66.8038 257.458 66.5401C257.18 66.2763 256.96 65.9576 256.799 65.584C256.645 65.203 256.568 64.7781 256.568 64.3092V59.3859H257.952V64.2543C257.952 64.4814 257.982 64.7085 258.04 64.9356C258.099 65.1554 258.194 65.3532 258.326 65.529C258.465 65.7049 258.645 65.8477 258.865 65.9576C259.092 66.0675 259.37 66.1225 259.7 66.1225C260.029 66.1225 260.304 66.0675 260.524 65.9576C260.751 65.8477 260.931 65.7049 261.062 65.529C261.202 65.3532 261.301 65.1554 261.359 64.9356C261.418 64.7085 261.447 64.4814 261.447 64.2543V59.3859H262.832V64.3092Z" fill="#012E3A"/>
<path d="M268.995 61.0124C268.849 60.8219 268.64 60.6644 268.369 60.5398C268.105 60.408 267.838 60.342 267.567 60.342C267.406 60.342 267.244 60.364 267.083 60.408C266.922 60.4446 266.776 60.5069 266.644 60.5948C266.512 60.6754 266.402 60.7853 266.314 60.9245C266.233 61.0563 266.193 61.2175 266.193 61.408C266.193 61.5838 266.23 61.734 266.303 61.8586C266.376 61.9831 266.475 62.0893 266.6 62.1773C266.732 62.2652 266.889 62.3421 267.072 62.408C267.255 62.474 267.457 62.5399 267.677 62.6058C267.926 62.6864 268.182 62.778 268.446 62.8806C268.717 62.9832 268.962 63.1187 269.182 63.2872C269.409 63.4557 269.593 63.6682 269.732 63.9246C269.878 64.181 269.951 64.4997 269.951 64.8807C269.951 65.2983 269.875 65.6646 269.721 65.9796C269.567 66.2873 269.362 66.5437 269.105 66.7489C268.849 66.954 268.549 67.1079 268.204 67.2104C267.86 67.313 267.497 67.3643 267.116 67.3643C266.611 67.3643 266.116 67.2727 265.633 67.0896C265.149 66.8991 264.753 66.6207 264.446 66.2544L265.435 65.3312C265.625 65.595 265.878 65.8038 266.193 65.9576C266.515 66.1115 266.83 66.1884 267.138 66.1884C267.299 66.1884 267.464 66.1701 267.633 66.1335C267.801 66.0895 267.951 66.0199 268.083 65.9247C268.222 65.8294 268.332 65.7122 268.413 65.573C268.501 65.4265 268.545 65.247 268.545 65.0345C268.545 64.8294 268.497 64.6609 268.402 64.529C268.307 64.3898 268.179 64.2726 268.017 64.1773C267.856 64.0748 267.666 63.9869 267.446 63.9136C267.226 63.8403 266.995 63.7634 266.754 63.6828C266.519 63.6096 266.285 63.5216 266.05 63.4191C265.816 63.3165 265.603 63.181 265.413 63.0125C265.23 62.844 265.079 62.6388 264.962 62.397C264.845 62.148 264.786 61.8402 264.786 61.4739C264.786 61.0783 264.867 60.7376 265.028 60.4519C265.197 60.1662 265.413 59.9317 265.677 59.7486C265.948 59.5581 266.252 59.4189 266.589 59.331C266.933 59.2357 267.281 59.1881 267.633 59.1881C268.028 59.1881 268.428 59.2577 268.831 59.3969C269.241 59.5361 269.596 59.7449 269.897 60.0233L268.995 61.0124Z" fill="#012E3A"/>
<path d="M271.888 59.3859H274.646C275.152 59.3859 275.661 59.4519 276.174 59.5837C276.687 59.7156 277.148 59.9354 277.559 60.2431C277.969 60.5435 278.302 60.9428 278.559 61.441C278.815 61.9318 278.943 62.5436 278.943 63.2762C278.943 63.9576 278.815 64.5437 278.559 65.0345C278.302 65.5254 277.969 65.9283 277.559 66.2434C277.148 66.5584 276.687 66.7928 276.174 66.9467C275.661 67.0932 275.152 67.1665 274.646 67.1665H271.888V59.3859ZM274.427 65.9576C274.786 65.9576 275.145 65.9173 275.504 65.8368C275.863 65.7488 276.185 65.606 276.471 65.4082C276.764 65.203 277.002 64.9283 277.185 64.584C277.368 64.2396 277.46 63.8037 277.46 63.2762C277.46 62.7194 277.368 62.2652 277.185 61.9135C277.002 61.5618 276.764 61.2871 276.471 61.0893C276.185 60.8915 275.863 60.756 275.504 60.6827C275.145 60.6094 274.786 60.5728 274.427 60.5728H273.273V65.9576H274.427Z" fill="#012E3A"/>
<path d="M286.445 61.2102C286.24 60.9318 285.973 60.7303 285.643 60.6058C285.314 60.4739 284.991 60.408 284.676 60.408C284.273 60.408 283.907 60.4812 283.577 60.6277C283.248 60.7743 282.962 60.9757 282.72 61.2322C282.486 61.4886 282.302 61.789 282.171 62.1333C282.046 62.4776 281.984 62.8513 281.984 63.2542C281.984 63.6792 282.046 64.0674 282.171 64.4191C282.295 64.7708 282.471 65.0748 282.698 65.3312C282.933 65.5803 283.211 65.7745 283.533 65.9137C283.856 66.0529 284.218 66.1225 284.621 66.1225C285.039 66.1225 285.409 66.0419 285.731 65.8807C286.054 65.7122 286.314 65.4924 286.511 65.2213L287.621 66.0016C287.277 66.4338 286.856 66.7709 286.358 67.0126C285.859 67.2471 285.277 67.3643 284.61 67.3643C284.002 67.3643 283.442 67.2654 282.929 67.0676C282.423 66.8624 281.987 66.5804 281.621 66.2214C281.255 65.8551 280.969 65.4228 280.764 64.9246C280.559 64.4191 280.456 63.8623 280.456 63.2542C280.456 62.6315 280.562 62.071 280.775 61.5728C280.995 61.0673 281.291 60.6387 281.665 60.2871C282.046 59.9354 282.493 59.6643 283.006 59.4738C283.519 59.2834 284.075 59.1881 284.676 59.1881C284.925 59.1881 285.185 59.2138 285.456 59.265C285.728 59.309 285.988 59.3823 286.237 59.4848C286.486 59.5801 286.72 59.701 286.94 59.8475C287.16 59.994 287.347 60.1698 287.5 60.375L286.445 61.2102Z" fill="#012E3A"/>
<path d="M107.402 87.9219H110.941C111.283 87.9219 111.62 87.9646 111.954 88.0501C112.287 88.127 112.582 88.2595 112.838 88.4475C113.103 88.627 113.317 88.8621 113.48 89.1527C113.642 89.4433 113.723 89.7937 113.723 90.204C113.723 90.7169 113.578 91.14 113.287 91.4733C112.997 91.8067 112.616 92.046 112.146 92.1913V92.2169C112.719 92.2939 113.189 92.5161 113.556 92.8836C113.924 93.2512 114.108 93.7426 114.108 94.358C114.108 94.8538 114.009 95.2726 113.813 95.6145C113.616 95.9479 113.356 96.2171 113.031 96.4222C112.715 96.6274 112.347 96.7769 111.928 96.871C111.518 96.9564 111.099 96.9992 110.672 96.9992H107.402V87.9219ZM109.018 91.6143H110.454C110.992 91.6143 111.403 91.5075 111.685 91.2938C111.967 91.0801 112.108 90.7767 112.108 90.3835C112.108 89.9732 111.962 89.6826 111.672 89.5117C111.381 89.3407 110.928 89.2553 110.313 89.2553H109.018V91.6143ZM109.018 95.6401H110.467C110.672 95.6401 110.894 95.6273 111.133 95.6017C111.373 95.5675 111.591 95.5034 111.787 95.4094C111.992 95.3153 112.159 95.1786 112.287 94.9991C112.424 94.8196 112.492 94.5803 112.492 94.2811C112.492 93.8025 112.33 93.4691 112.005 93.2811C111.68 93.093 111.189 92.999 110.531 92.999H109.018V95.6401Z" fill="#012E3A"/>
<path d="M115.524 93.8965C115.524 93.4093 115.609 92.9691 115.78 92.5759C115.96 92.1742 116.199 91.8323 116.498 91.5502C116.798 91.2682 117.152 91.0502 117.563 90.8964C117.973 90.7425 118.409 90.6656 118.87 90.6656C119.332 90.6656 119.768 90.7425 120.178 90.8964C120.588 91.0502 120.943 91.2682 121.242 91.5502C121.541 91.8323 121.776 92.1742 121.947 92.5759C122.127 92.9691 122.217 93.4093 122.217 93.8965C122.217 94.3837 122.127 94.8281 121.947 95.2299C121.776 95.6316 121.541 95.9778 121.242 96.2684C120.943 96.5504 120.588 96.7727 120.178 96.9351C119.768 97.0975 119.332 97.1787 118.87 97.1787C118.409 97.1787 117.973 97.0975 117.563 96.9351C117.152 96.7727 116.798 96.5504 116.498 96.2684C116.199 95.9778 115.96 95.6316 115.78 95.2299C115.609 94.8281 115.524 94.3837 115.524 93.8965ZM117.088 93.8965C117.088 94.1358 117.122 94.3751 117.191 94.6145C117.268 94.8538 117.379 95.0675 117.524 95.2555C117.669 95.4436 117.853 95.5974 118.075 95.7171C118.298 95.8367 118.563 95.8966 118.87 95.8966C119.178 95.8966 119.443 95.8367 119.665 95.7171C119.887 95.5974 120.071 95.4436 120.216 95.2555C120.362 95.0675 120.469 94.8538 120.537 94.6145C120.614 94.3751 120.652 94.1358 120.652 93.8965C120.652 93.6572 120.614 93.4221 120.537 93.1913C120.469 92.952 120.362 92.7383 120.216 92.5503C120.071 92.3622 119.887 92.2127 119.665 92.1015C119.443 91.9819 119.178 91.922 118.87 91.922C118.563 91.922 118.298 91.9819 118.075 92.1015C117.853 92.2127 117.669 92.3622 117.524 92.5503C117.379 92.7383 117.268 92.952 117.191 93.1913C117.122 93.4221 117.088 93.6572 117.088 93.8965Z" fill="#012E3A"/>
<path d="M123.965 90.8451H125.439V91.8708H125.465C125.636 91.5118 125.875 91.2212 126.183 90.9989C126.49 90.7767 126.849 90.6656 127.26 90.6656C127.32 90.6656 127.384 90.6699 127.452 90.6784C127.52 90.6784 127.58 90.6869 127.632 90.704V92.1144C127.529 92.0887 127.439 92.0716 127.362 92.0631C127.294 92.0545 127.226 92.0503 127.157 92.0503C126.807 92.0503 126.525 92.1144 126.311 92.2426C126.097 92.3708 125.931 92.5246 125.811 92.7041C125.691 92.8836 125.61 93.0674 125.567 93.2554C125.525 93.4435 125.503 93.5931 125.503 93.7042V96.9992H123.965V90.8451Z" fill="#012E3A"/>
<path d="M128.891 90.8451H130.366V91.8708H130.391C130.562 91.5118 130.802 91.2212 131.109 90.9989C131.417 90.7767 131.776 90.6656 132.186 90.6656C132.246 90.6656 132.31 90.6699 132.379 90.6784C132.447 90.6784 132.507 90.6869 132.558 90.704V92.1144C132.456 92.0887 132.366 92.0716 132.289 92.0631C132.221 92.0545 132.152 92.0503 132.084 92.0503C131.733 92.0503 131.451 92.1144 131.238 92.2426C131.024 92.3708 130.857 92.5246 130.738 92.7041C130.618 92.8836 130.537 93.0674 130.494 93.2554C130.451 93.4435 130.43 93.5931 130.43 93.7042V96.9992H128.891V90.8451Z" fill="#012E3A"/>
<path d="M133.234 93.8965C133.234 93.4093 133.319 92.9691 133.49 92.5759C133.669 92.1742 133.909 91.8323 134.208 91.5502C134.507 91.2682 134.862 91.0502 135.272 90.8964C135.682 90.7425 136.118 90.6656 136.58 90.6656C137.041 90.6656 137.477 90.7425 137.888 90.8964C138.298 91.0502 138.653 91.2682 138.952 91.5502C139.251 91.8323 139.486 92.1742 139.657 92.5759C139.836 92.9691 139.926 93.4093 139.926 93.8965C139.926 94.3837 139.836 94.8281 139.657 95.2299C139.486 95.6316 139.251 95.9778 138.952 96.2684C138.653 96.5504 138.298 96.7727 137.888 96.9351C137.477 97.0975 137.041 97.1787 136.58 97.1787C136.118 97.1787 135.682 97.0975 135.272 96.9351C134.862 96.7727 134.507 96.5504 134.208 96.2684C133.909 95.9778 133.669 95.6316 133.49 95.2299C133.319 94.8281 133.234 94.3837 133.234 93.8965ZM134.798 93.8965C134.798 94.1358 134.832 94.3751 134.9 94.6145C134.977 94.8538 135.088 95.0675 135.234 95.2555C135.379 95.4436 135.563 95.5974 135.785 95.7171C136.007 95.8367 136.272 95.8966 136.58 95.8966C136.888 95.8966 137.153 95.8367 137.375 95.7171C137.597 95.5974 137.781 95.4436 137.926 95.2555C138.071 95.0675 138.178 94.8538 138.247 94.6145C138.324 94.3751 138.362 94.1358 138.362 93.8965C138.362 93.6572 138.324 93.4221 138.247 93.1913C138.178 92.952 138.071 92.7383 137.926 92.5503C137.781 92.3622 137.597 92.2127 137.375 92.1015C137.153 91.9819 136.888 91.922 136.58 91.922C136.272 91.922 136.007 91.9819 135.785 92.1015C135.563 92.2127 135.379 92.3622 135.234 92.5503C135.088 92.7383 134.977 92.952 134.9 93.1913C134.832 93.4221 134.798 93.6572 134.798 93.8965Z" fill="#012E3A"/>
<path d="M140.802 90.8451H142.469L143.751 95.2555H143.777L145.098 90.8451H146.739L148.072 95.2555H148.098L149.405 90.8451H151.008L148.88 96.9992H147.316L145.918 92.6913H145.892L144.508 96.9992H142.944L140.802 90.8451Z" fill="#012E3A"/>
<path d="M156.569 93.3067C156.569 93.1101 156.539 92.9221 156.479 92.7426C156.428 92.5631 156.342 92.405 156.223 92.2682C156.103 92.1315 155.949 92.0246 155.761 91.9477C155.581 91.8622 155.368 91.8195 155.12 91.8195C154.658 91.8195 154.265 91.9605 153.94 92.2426C153.624 92.5161 153.449 92.8708 153.415 93.3067H156.569ZM158.107 93.9991C158.107 94.0674 158.107 94.1358 158.107 94.2042C158.107 94.2726 158.103 94.3409 158.094 94.4093H153.415C153.432 94.6316 153.487 94.8367 153.581 95.0247C153.684 95.2042 153.816 95.3624 153.979 95.4991C154.141 95.6273 154.325 95.7299 154.53 95.8068C154.735 95.8837 154.949 95.9222 155.171 95.9222C155.556 95.9222 155.881 95.8538 156.146 95.7171C156.411 95.5718 156.629 95.3752 156.799 95.1273L157.825 95.9479C157.218 96.7684 156.338 97.1787 155.184 97.1787C154.705 97.1787 154.265 97.106 153.863 96.9607C153.462 96.8069 153.111 96.5932 152.812 96.3197C152.521 96.0461 152.291 95.7128 152.12 95.3196C151.957 94.9179 151.876 94.4649 151.876 93.9606C151.876 93.4648 151.957 93.0161 152.12 92.6144C152.291 92.2041 152.521 91.8579 152.812 91.5759C153.103 91.2853 153.445 91.063 153.838 90.9092C154.24 90.7468 154.671 90.6656 155.133 90.6656C155.56 90.6656 155.953 90.7382 156.312 90.8835C156.68 91.0203 156.996 91.2297 157.261 91.5118C157.526 91.7853 157.731 92.1315 157.876 92.5503C158.03 92.9605 158.107 93.4435 158.107 93.9991Z" fill="#012E3A"/>
<path d="M159.854 90.8451H161.328V91.8708H161.354C161.525 91.5118 161.764 91.2212 162.072 90.9989C162.379 90.7767 162.738 90.6656 163.149 90.6656C163.209 90.6656 163.273 90.6699 163.341 90.6784C163.409 90.6784 163.469 90.6869 163.52 90.704V92.1144C163.418 92.0887 163.328 92.0716 163.251 92.0631C163.183 92.0545 163.114 92.0503 163.046 92.0503C162.696 92.0503 162.414 92.1144 162.2 92.2426C161.986 92.3708 161.82 92.5246 161.7 92.7041C161.58 92.8836 161.499 93.0674 161.456 93.2554C161.414 93.4435 161.392 93.5931 161.392 93.7042V96.9992H159.854V90.8451Z" fill="#012E3A"/>
<path d="M339.285 88.133H345.144V89.5433H340.901V92.0306H344.901V93.3896H340.901V97.2103H339.285V88.133Z" fill="#012E3A"/>
<path d="M346.614 91.0562H348.153V97.2103H346.614V91.0562ZM346.397 88.9664C346.397 88.7185 346.486 88.5048 346.666 88.3253C346.854 88.1373 347.089 88.0432 347.371 88.0432C347.653 88.0432 347.888 88.133 348.076 88.3125C348.273 88.4834 348.371 88.7014 348.371 88.9664C348.371 89.2313 348.273 89.4536 348.076 89.6331C347.888 89.804 347.653 89.8895 347.371 89.8895C347.089 89.8895 346.854 89.7997 346.666 89.6202C346.486 89.4322 346.397 89.2142 346.397 88.9664Z" fill="#012E3A"/>
<path d="M351.84 93.9409L349.622 91.0562H351.468L352.802 92.9665L354.174 91.0562H355.943L353.738 93.9409L356.251 97.2103H354.379L352.776 94.9666L351.161 97.2103H349.34L351.84 93.9409Z" fill="#012E3A"/>
<path d="M361.627 93.5178C361.627 93.3212 361.597 93.1332 361.537 92.9537C361.486 92.7742 361.4 92.6161 361.281 92.4793C361.161 92.3426 361.007 92.2357 360.819 92.1588C360.64 92.0733 360.426 92.0306 360.178 92.0306C359.717 92.0306 359.323 92.1716 358.999 92.4537C358.682 92.7272 358.507 93.0819 358.473 93.5178H361.627ZM363.165 94.2102C363.165 94.2785 363.165 94.3469 363.165 94.4153C363.165 94.4837 363.161 94.5521 363.153 94.6204H358.473C358.49 94.8427 358.546 95.0478 358.64 95.2359C358.742 95.4153 358.875 95.5735 359.037 95.7102C359.199 95.8384 359.383 95.941 359.588 96.0179C359.794 96.0949 360.007 96.1333 360.229 96.1333C360.614 96.1333 360.939 96.0649 361.204 95.9282C361.469 95.7829 361.687 95.5863 361.858 95.3384L362.883 96.159C362.277 96.9795 361.396 97.3898 360.242 97.3898C359.764 97.3898 359.323 97.3171 358.922 97.1718C358.52 97.018 358.17 96.8043 357.87 96.5308C357.58 96.2573 357.349 95.9239 357.178 95.5307C357.016 95.129 356.934 94.676 356.934 94.1717C356.934 93.676 357.016 93.2272 357.178 92.8255C357.349 92.4152 357.58 92.0691 357.87 91.787C358.161 91.4964 358.503 91.2741 358.896 91.1203C359.298 90.9579 359.729 90.8767 360.191 90.8767C360.618 90.8767 361.012 90.9493 361.371 91.0947C361.738 91.2314 362.054 91.4408 362.319 91.7229C362.584 91.9964 362.789 92.3426 362.935 92.7614C363.089 93.1717 363.165 93.6546 363.165 94.2102Z" fill="#012E3A"/>
<path d="M371.169 97.2103H369.707V96.2872H369.681C369.468 96.6462 369.169 96.9197 368.784 97.1077C368.408 97.2958 368.002 97.3898 367.566 97.3898C367.096 97.3898 366.673 97.3043 366.297 97.1334C365.929 96.9539 365.613 96.7188 365.348 96.4282C365.091 96.1291 364.891 95.7829 364.745 95.3897C364.609 94.988 364.54 94.5606 364.54 94.1076C364.54 93.6546 364.613 93.2315 364.758 92.8383C364.903 92.4451 365.109 92.1032 365.373 91.8126C365.638 91.522 365.955 91.2955 366.322 91.1331C366.69 90.9622 367.092 90.8767 367.527 90.8767C367.809 90.8767 368.062 90.9109 368.284 90.9793C368.506 91.0391 368.698 91.116 368.861 91.21C369.032 91.3041 369.177 91.4066 369.297 91.5177C369.416 91.6289 369.515 91.7357 369.592 91.8383H369.63V87.5176H371.169V97.2103ZM366.104 94.1076C366.104 94.3469 366.138 94.5863 366.207 94.8256C366.284 95.0649 366.395 95.2786 366.54 95.4666C366.686 95.6547 366.869 95.8085 367.092 95.9282C367.314 96.0479 367.574 96.1077 367.874 96.1077C368.156 96.1077 368.408 96.0521 368.63 95.941C368.852 95.8213 369.04 95.6675 369.194 95.4795C369.357 95.2914 369.476 95.082 369.553 94.8512C369.639 94.6119 369.681 94.3726 369.681 94.1332C369.681 93.8939 369.639 93.6546 369.553 93.4153C369.476 93.1759 369.357 92.9623 369.194 92.7742C369.04 92.5862 368.852 92.4323 368.63 92.3127C368.408 92.193 368.156 92.1332 367.874 92.1332C367.574 92.1332 367.314 92.193 367.092 92.3127C366.869 92.4238 366.686 92.5733 366.54 92.7614C366.395 92.9494 366.284 93.1631 366.207 93.4024C366.138 93.6332 366.104 93.8683 366.104 94.1076Z" fill="#012E3A"/>
<path d="M376.833 88.133H379.987C380.414 88.133 380.829 88.18 381.23 88.274C381.632 88.3595 381.987 88.5048 382.295 88.7099C382.611 88.9151 382.863 89.1843 383.051 89.5177C383.239 89.851 383.333 90.257 383.333 90.7357C383.333 91.3938 383.145 91.9323 382.769 92.3511C382.401 92.7614 381.897 93.0392 381.256 93.1845L383.679 97.2103H381.73L379.628 93.364H378.448V97.2103H376.833V88.133ZM379.769 92.0434C380 92.0434 380.23 92.0263 380.461 91.9921C380.692 91.9579 380.897 91.8938 381.077 91.7998C381.265 91.7058 381.418 91.5733 381.538 91.4024C381.658 91.2229 381.718 90.9964 381.718 90.7228C381.718 90.475 381.662 90.2741 381.551 90.1203C381.44 89.9579 381.299 89.8296 381.128 89.7356C380.957 89.6416 380.76 89.5775 380.538 89.5433C380.324 89.5091 380.115 89.492 379.91 89.492H378.448V92.0434H379.769Z" fill="#012E3A"/>
<path d="M388.746 96.4282H388.708C388.554 96.7017 388.306 96.9282 387.964 97.1077C387.622 97.2787 387.233 97.3641 386.797 97.3641C386.549 97.3641 386.289 97.33 386.015 97.2616C385.75 97.2017 385.502 97.0992 385.271 96.9539C385.049 96.8 384.861 96.6034 384.707 96.3641C384.562 96.1162 384.489 95.8128 384.489 95.4538C384.489 94.9923 384.618 94.6247 384.874 94.3512C385.139 94.0777 385.477 93.8683 385.887 93.723C386.297 93.5777 386.75 93.4836 387.246 93.4409C387.75 93.3896 388.242 93.364 388.72 93.364V93.2101C388.72 92.8255 388.579 92.5434 388.297 92.3639C388.024 92.1759 387.695 92.0819 387.31 92.0819C386.985 92.0819 386.673 92.1503 386.374 92.287C386.075 92.4238 385.827 92.5904 385.63 92.787L384.836 91.8511C385.186 91.5263 385.588 91.2827 386.041 91.1203C386.502 90.9579 386.968 90.8767 387.438 90.8767C387.985 90.8767 388.434 90.9536 388.784 91.1075C389.143 91.2613 389.425 91.4622 389.631 91.7101C389.836 91.9579 389.977 92.2357 390.054 92.5434C390.139 92.8511 390.182 93.1588 390.182 93.4665V97.2103H388.746V96.4282ZM388.72 94.4025H388.374C388.126 94.4025 387.866 94.4153 387.592 94.4409C387.319 94.458 387.066 94.5051 386.836 94.582C386.605 94.6504 386.413 94.7529 386.259 94.8897C386.105 95.0179 386.028 95.1974 386.028 95.4282C386.028 95.5735 386.058 95.6974 386.118 95.8C386.186 95.894 386.272 95.9709 386.374 96.0308C386.477 96.0906 386.592 96.1333 386.72 96.159C386.848 96.1846 386.977 96.1974 387.105 96.1974C387.635 96.1974 388.037 96.0564 388.31 95.7743C388.584 95.4923 388.72 95.1076 388.72 94.6204V94.4025Z" fill="#012E3A"/>
<path d="M391.221 92.287V91.0562H392.298V89.2741H393.811V91.0562H395.349V92.287H393.811V95.1461C393.811 95.4196 393.858 95.6461 393.952 95.8256C394.054 96.0051 394.277 96.0949 394.619 96.0949C394.721 96.0949 394.832 96.0863 394.952 96.0692C395.072 96.0436 395.178 96.0094 395.272 95.9667L395.324 97.1718C395.187 97.2231 395.025 97.2616 394.836 97.2872C394.648 97.3214 394.469 97.3385 394.298 97.3385C393.888 97.3385 393.554 97.2829 393.298 97.1718C393.042 97.0522 392.836 96.894 392.683 96.6975C392.537 96.4923 392.435 96.2615 392.375 96.0051C392.324 95.7401 392.298 95.4581 392.298 95.1589V92.287H391.221Z" fill="#012E3A"/>
<path d="M401.053 93.5178C401.053 93.3212 401.023 93.1332 400.963 92.9537C400.912 92.7742 400.826 92.6161 400.707 92.4793C400.587 92.3426 400.433 92.2357 400.245 92.1588C400.065 92.0733 399.852 92.0306 399.604 92.0306C399.142 92.0306 398.749 92.1716 398.424 92.4537C398.108 92.7272 397.933 93.0819 397.899 93.5178H401.053ZM402.591 94.2102C402.591 94.2785 402.591 94.3469 402.591 94.4153C402.591 94.4837 402.587 94.5521 402.578 94.6204H397.899C397.916 94.8427 397.971 95.0478 398.065 95.2359C398.168 95.4153 398.3 95.5735 398.463 95.7102C398.625 95.8384 398.809 95.941 399.014 96.0179C399.219 96.0949 399.433 96.1333 399.655 96.1333C400.04 96.1333 400.365 96.0649 400.63 95.9282C400.895 95.7829 401.113 95.5863 401.283 95.3384L402.309 96.159C401.702 96.9795 400.822 97.3898 399.668 97.3898C399.189 97.3898 398.749 97.3171 398.347 97.1718C397.946 97.018 397.595 96.8043 397.296 96.5308C397.006 96.2573 396.775 95.9239 396.604 95.5307C396.441 95.129 396.36 94.676 396.36 94.1717C396.36 93.676 396.441 93.2272 396.604 92.8255C396.775 92.4152 397.006 92.0691 397.296 91.787C397.587 91.4964 397.929 91.2741 398.322 91.1203C398.724 90.9579 399.155 90.8767 399.617 90.8767C400.044 90.8767 400.437 90.9493 400.796 91.0947C401.164 91.2314 401.48 91.4408 401.745 91.7229C402.01 91.9964 402.215 92.3426 402.36 92.7614C402.514 93.1717 402.591 93.6546 402.591 94.2102Z" fill="#012E3A"/>
<path d="M407.876 88.133H410.838C411.359 88.133 411.829 88.18 412.248 88.274C412.667 88.368 413.026 88.5219 413.325 88.7356C413.624 88.9493 413.855 89.2228 414.018 89.5561C414.18 89.8895 414.261 90.2912 414.261 90.7613C414.261 91.2656 414.167 91.6887 413.979 92.0306C413.791 92.3725 413.535 92.6503 413.21 92.864C412.894 93.0691 412.522 93.2187 412.094 93.3127C411.667 93.4067 411.214 93.4537 410.735 93.4537H409.492V97.2103H407.876V88.133ZM410.62 92.0947C410.885 92.0947 411.137 92.0776 411.376 92.0434C411.616 92.0007 411.829 91.9323 412.017 91.8383C412.206 91.7357 412.355 91.5989 412.466 91.428C412.577 91.2571 412.633 91.0348 412.633 90.7613C412.633 90.4963 412.577 90.2827 412.466 90.1203C412.355 89.9493 412.206 89.8168 412.017 89.7228C411.838 89.6288 411.629 89.5689 411.389 89.5433C411.158 89.5091 410.919 89.492 410.671 89.492H409.492V92.0947H410.62Z" fill="#012E3A"/>
<path d="M414.683 94.1076C414.683 93.6204 414.769 93.1802 414.94 92.787C415.119 92.3853 415.359 92.0434 415.658 91.7613C415.957 91.4793 416.312 91.2613 416.722 91.1075C417.132 90.9536 417.568 90.8767 418.03 90.8767C418.491 90.8767 418.927 90.9536 419.337 91.1075C419.748 91.2613 420.102 91.4793 420.401 91.7613C420.701 92.0434 420.936 92.3853 421.107 92.787C421.286 93.1802 421.376 93.6204 421.376 94.1076C421.376 94.5948 421.286 95.0393 421.107 95.441C420.936 95.8427 420.701 96.1889 420.401 96.4795C420.102 96.7616 419.748 96.9838 419.337 97.1462C418.927 97.3086 418.491 97.3898 418.03 97.3898C417.568 97.3898 417.132 97.3086 416.722 97.1462C416.312 96.9838 415.957 96.7616 415.658 96.4795C415.359 96.1889 415.119 95.8427 414.94 95.441C414.769 95.0393 414.683 94.5948 414.683 94.1076ZM416.247 94.1076C416.247 94.3469 416.282 94.5863 416.35 94.8256C416.427 95.0649 416.538 95.2786 416.683 95.4666C416.829 95.6547 417.012 95.8085 417.235 95.9282C417.457 96.0479 417.722 96.1077 418.03 96.1077C418.337 96.1077 418.602 96.0479 418.824 95.9282C419.047 95.8085 419.23 95.6547 419.376 95.4666C419.521 95.2786 419.628 95.0649 419.696 94.8256C419.773 94.5863 419.812 94.3469 419.812 94.1076C419.812 93.8683 419.773 93.6332 419.696 93.4024C419.628 93.1631 419.521 92.9494 419.376 92.7614C419.23 92.5733 419.047 92.4238 418.824 92.3127C418.602 92.193 418.337 92.1332 418.03 92.1332C417.722 92.1332 417.457 92.193 417.235 92.3127C417.012 92.4238 416.829 92.5733 416.683 92.7614C416.538 92.9494 416.427 93.1631 416.35 93.4024C416.282 93.6332 416.247 93.8683 416.247 94.1076Z" fill="#012E3A"/>
<path d="M422.765 94.1076C422.765 93.6204 422.851 93.1802 423.021 92.787C423.201 92.3853 423.44 92.0434 423.739 91.7613C424.039 91.4793 424.393 91.2613 424.804 91.1075C425.214 90.9536 425.65 90.8767 426.111 90.8767C426.573 90.8767 427.009 90.9536 427.419 91.1075C427.829 91.2613 428.184 91.4793 428.483 91.7613C428.782 92.0434 429.017 92.3853 429.188 92.787C429.368 93.1802 429.458 93.6204 429.458 94.1076C429.458 94.5948 429.368 95.0393 429.188 95.441C429.017 95.8427 428.782 96.1889 428.483 96.4795C428.184 96.7616 427.829 96.9838 427.419 97.1462C427.009 97.3086 426.573 97.3898 426.111 97.3898C425.65 97.3898 425.214 97.3086 424.804 97.1462C424.393 96.9838 424.039 96.7616 423.739 96.4795C423.44 96.1889 423.201 95.8427 423.021 95.441C422.851 95.0393 422.765 94.5948 422.765 94.1076ZM424.329 94.1076C424.329 94.3469 424.363 94.5863 424.432 94.8256C424.509 95.0649 424.62 95.2786 424.765 95.4666C424.91 95.6547 425.094 95.8085 425.316 95.9282C425.539 96.0479 425.804 96.1077 426.111 96.1077C426.419 96.1077 426.684 96.0479 426.906 95.9282C427.128 95.8085 427.312 95.6547 427.458 95.4666C427.603 95.2786 427.71 95.0649 427.778 94.8256C427.855 94.5863 427.893 94.3469 427.893 94.1076C427.893 93.8683 427.855 93.6332 427.778 93.4024C427.71 93.1631 427.603 92.9494 427.458 92.7614C427.312 92.5733 427.128 92.4238 426.906 92.3127C426.684 92.193 426.419 92.1332 426.111 92.1332C425.804 92.1332 425.539 92.193 425.316 92.3127C425.094 92.4238 424.91 92.5733 424.765 92.7614C424.62 92.9494 424.509 93.1631 424.432 93.4024C424.363 93.6332 424.329 93.8683 424.329 94.1076Z" fill="#012E3A"/>
<path d="M431.231 87.5176H432.77V97.2103H431.231V87.5176Z" fill="#012E3A"/>
<path d="M370.757 15.2899L385.984 10.8187L401.212 15.2899L411.605 27.2839L413.863 42.9928L407.271 57.429L393.92 66.0092H378.049L364.698 57.429L358.105 42.9928L360.364 27.2839L370.757 15.2899Z" fill="url(#paint0_linear_11717_119707)" fill-opacity="0.5" stroke="url(#paint1_linear_11717_119707)" stroke-width="1.57103"/>
<path d="M249.4 15.2841C249.4 18.9932 246.394 21.9999 242.685 21.9999C238.976 21.9999 235.969 18.9932 235.969 15.2841C235.969 11.5751 238.976 8.56836 242.685 8.56836C246.394 8.56836 249.4 11.5751 249.4 15.2841Z" fill="white"/>
<path d="M242.686 22.6097C238.639 22.6097 235.359 19.3298 235.359 15.2833C235.359 11.2369 238.639 7.95703 242.686 7.95703C246.732 7.95703 250.012 11.2369 250.012 15.2833C250.012 19.3298 246.732 22.6097 242.686 22.6097ZM242.571 20.5491C243.998 20.5491 245.367 19.9823 246.376 18.9733C247.385 17.9643 247.951 16.5958 247.951 15.1689C247.951 12.1971 245.543 9.78861 242.571 9.78861C239.599 9.78861 237.191 12.1971 237.191 15.1689C237.191 18.1406 239.599 20.5491 242.571 20.5491ZM242.251 13.1725V12.8336C242.251 12.748 242.285 12.6659 242.345 12.6053C242.406 12.5448 242.488 12.5108 242.574 12.5108C242.659 12.5108 242.741 12.5448 242.802 12.6053C242.862 12.6659 242.896 12.748 242.896 12.8336V13.1496C243.151 13.168 243.394 13.2664 243.59 13.4309C243.785 13.5953 243.924 13.8174 243.986 14.0653C243.997 14.1145 243.988 14.166 243.962 14.2088C243.935 14.2516 243.893 14.2823 243.844 14.2943H243.629C243.56 14.2939 243.492 14.274 243.434 14.2367C243.375 14.1994 243.329 14.1463 243.299 14.0837C243.227 13.9582 243.119 13.8563 242.99 13.7905C242.861 13.7247 242.715 13.6977 242.571 13.7128C242.113 13.7128 241.839 13.9967 241.839 14.2531C241.839 14.5095 242.054 14.6606 242.512 14.7751L242.97 14.8758C243.762 15.0452 244.096 15.3795 244.096 15.961C244.091 16.2737 243.965 16.5721 243.743 16.7927C243.522 17.0134 243.223 17.1389 242.91 17.1424V17.5316C242.91 17.6172 242.876 17.6993 242.816 17.7599C242.755 17.8204 242.673 17.8544 242.587 17.8544C242.502 17.8544 242.42 17.8204 242.359 17.7599C242.298 17.6993 242.264 17.6172 242.264 17.5316V17.147C241.988 17.1428 241.721 17.047 241.504 16.8747C241.288 16.7023 241.135 16.4631 241.069 16.1946C241.065 16.1738 241.066 16.1525 241.07 16.1318C241.074 16.1111 241.082 16.0915 241.094 16.074C241.106 16.0566 241.122 16.0417 241.139 16.0301C241.157 16.0186 241.177 16.0107 241.198 16.0068H241.468C241.526 16.0073 241.584 16.0243 241.633 16.0558C241.683 16.0874 241.722 16.1323 241.747 16.1854C241.831 16.3252 241.953 16.4384 242.099 16.5121C242.245 16.5858 242.409 16.617 242.571 16.6021C243.029 16.6021 243.382 16.3273 243.382 16.048C243.382 15.7687 243.18 15.6039 242.69 15.4894L242.187 15.3703C241.468 15.2192 241.129 14.8575 241.129 14.3035C241.141 14.009 241.263 13.7297 241.47 13.5204C241.678 13.3112 241.956 13.1871 242.251 13.1725V13.1725ZM238.537 15.1689C238.538 14.3229 238.805 13.4986 239.3 12.8131C239.796 12.1276 240.495 11.6157 241.298 11.35C241.327 11.3397 241.359 11.3366 241.389 11.3409C241.42 11.3452 241.449 11.3569 241.474 11.3749C241.499 11.3928 241.52 11.4166 241.534 11.4442C241.548 11.4717 241.555 11.5023 241.555 11.5332V11.6385C241.555 11.7231 241.529 11.8057 241.482 11.8759C241.435 11.946 241.367 12.0005 241.289 12.0323C240.666 12.2837 240.133 12.7156 239.757 13.2724C239.381 13.8293 239.18 14.4857 239.18 15.1574C239.18 15.8292 239.381 16.4856 239.757 17.0424C240.133 17.5993 240.666 18.0311 241.289 18.2826C241.368 18.3152 241.435 18.3705 241.482 18.4414C241.53 18.5123 241.555 18.5957 241.555 18.6809V18.7771C241.555 18.8317 241.533 18.8841 241.494 18.9228C241.456 18.9614 241.403 18.9831 241.349 18.9831H241.285C240.485 18.7154 239.789 18.2032 239.296 17.5188C238.803 16.8343 238.538 16.0123 238.537 15.1689V15.1689ZM246.605 15.1689C246.606 16.0126 246.342 16.8352 245.849 17.5204C245.357 18.2057 244.662 18.719 243.862 18.9877C243.83 18.9986 243.796 19.0016 243.762 18.9967C243.729 18.9917 243.697 18.9789 243.669 18.9593C243.642 18.9396 243.619 18.9137 243.603 18.8836C243.587 18.8536 243.579 18.8202 243.579 18.7862V18.7084C243.581 18.6214 243.608 18.5368 243.657 18.4647C243.705 18.3925 243.774 18.3357 243.853 18.3009C244.475 18.0487 245.007 17.6168 245.382 17.0605C245.756 16.5042 245.956 15.8487 245.956 15.178C245.956 14.5073 245.756 13.8519 245.382 13.2956C245.007 12.7392 244.475 12.3074 243.853 12.0552C243.772 12.0208 243.702 11.9635 243.653 11.8904C243.603 11.8173 243.576 11.7314 243.574 11.6431V11.5744C243.574 11.4553 243.67 11.3592 243.789 11.3592H243.858C244.657 11.6267 245.352 12.1382 245.845 12.8217C246.338 13.5052 246.604 14.3262 246.605 15.1689Z" fill="#3366FF"/>
<path d="M246.012 63.8224C246.012 67.8686 242.732 71.1487 238.686 71.1487C234.639 71.1487 231.359 67.8686 231.359 63.8224C231.359 59.7762 234.639 56.4961 238.686 56.4961C242.732 56.4961 246.012 59.7762 246.012 63.8224Z" fill="url(#paint2_linear_11717_119707)"/>
<path d="M245.502 63.7861C245.502 67.5706 242.434 70.6385 238.649 70.6385C234.865 70.6385 231.797 67.5706 231.797 63.7861C231.797 60.0016 234.865 56.9336 238.649 56.9336C242.434 56.9336 245.502 60.0016 245.502 63.7861Z" fill="url(#paint3_linear_11717_119707)"/>
<g style="mix-blend-mode:lighten" opacity="0.7">
<path d="M238.648 56.5371C240.09 56.5371 241.5 56.9647 242.698 57.7657C243.897 58.5667 244.832 59.7052 245.383 61.0373C245.935 62.3693 246.08 63.8351 245.798 65.2492C245.517 66.6633 244.823 67.9622 243.803 68.9817L238.648 63.827V56.5371Z" fill="url(#paint4_radial_11717_119707)"/>
</g>
<path d="M238.297 61.4361V61.031C238.297 60.9286 238.338 60.8305 238.411 60.7581C238.485 60.6857 238.584 60.6451 238.688 60.6451C238.791 60.6451 238.891 60.6857 238.964 60.7581C239.037 60.8305 239.079 60.9286 239.079 61.031V61.4087C239.387 61.4307 239.681 61.5484 239.918 61.745C240.155 61.9417 240.323 62.2071 240.398 62.5036C240.411 62.5624 240.401 62.624 240.369 62.6751C240.337 62.7263 240.285 62.763 240.226 62.7773H239.966C239.882 62.7769 239.8 62.753 239.729 62.7084C239.659 62.6639 239.602 62.6004 239.566 62.5255C239.479 62.3755 239.349 62.2537 239.192 62.175C239.036 62.0964 238.86 62.0641 238.685 62.0821C238.131 62.0821 237.798 62.4215 237.798 62.7281C237.798 63.0346 238.059 63.2153 238.613 63.3521L239.167 63.4726C240.126 63.6751 240.531 64.0748 240.531 64.77C240.525 65.1438 240.372 65.5005 240.104 65.7644C239.836 66.0282 239.474 66.1782 239.095 66.1824V66.6477C239.095 66.7501 239.054 66.8482 238.981 66.9206C238.907 66.993 238.808 67.0337 238.704 67.0337C238.601 67.0337 238.501 66.993 238.428 66.9206C238.355 66.8482 238.314 66.7501 238.314 66.6477V66.1879C237.979 66.1828 237.655 66.0683 237.393 65.8623C237.132 65.6563 236.946 65.3703 236.867 65.0492C236.862 65.0244 236.862 64.9989 236.867 64.9742C236.872 64.9494 236.882 64.9259 236.897 64.9051C236.911 64.8842 236.93 64.8664 236.951 64.8526C236.973 64.8388 236.997 64.8293 237.022 64.8247H237.349C237.42 64.8253 237.489 64.8456 237.549 64.8834C237.609 64.9211 237.657 64.9748 237.687 65.0382C237.789 65.2054 237.937 65.3408 238.114 65.4289C238.29 65.517 238.488 65.5542 238.685 65.5364C239.239 65.5364 239.666 65.208 239.666 64.874C239.666 64.5401 239.422 64.343 238.829 64.2061L238.219 64.0638C237.349 63.8832 236.939 63.4507 236.939 62.7883C236.953 62.4362 237.101 62.1023 237.352 61.8521C237.604 61.6019 237.94 61.4536 238.297 61.4361ZM233.801 63.8229C233.801 62.8116 234.125 61.8261 234.725 61.0065C235.325 60.1869 236.171 59.5749 237.144 59.2573C237.179 59.245 237.217 59.2412 237.254 59.2464C237.291 59.2516 237.326 59.2655 237.357 59.287C237.387 59.3085 237.412 59.3369 237.429 59.3698C237.446 59.4028 237.455 59.4393 237.454 59.4763V59.6022C237.454 59.7033 237.423 59.8021 237.366 59.886C237.309 59.9698 237.228 60.0349 237.133 60.073C236.378 60.3736 235.732 60.8899 235.278 61.5556C234.823 62.2213 234.58 63.0061 234.58 63.8092C234.58 64.6124 234.823 65.3971 235.278 66.0629C235.732 66.7286 236.378 67.2449 237.133 67.5455C237.228 67.5845 237.309 67.6506 237.367 67.7354C237.424 67.8202 237.454 67.9199 237.454 68.0218V68.1368C237.454 68.2021 237.428 68.2647 237.381 68.3109C237.334 68.3571 237.271 68.3831 237.205 68.3831H237.127C236.159 68.063 235.317 67.4506 234.72 66.6323C234.123 65.8141 233.801 64.8314 233.801 63.8229ZM243.569 63.8229C243.57 64.8316 243.25 65.8151 242.654 66.6343C242.058 67.4536 241.217 68.0673 240.248 68.3886C240.209 68.4015 240.168 68.4052 240.127 68.3993C240.087 68.3934 240.048 68.3781 240.014 68.3546C239.981 68.3311 239.953 68.3001 239.934 68.2641C239.915 68.2282 239.905 68.1883 239.905 68.1477V68.0546C239.907 67.9506 239.94 67.8495 239.999 67.7632C240.058 67.6769 240.141 67.609 240.237 67.5674C240.99 67.2659 241.634 66.7496 242.088 66.0845C242.541 65.4194 242.784 64.6358 242.784 63.8339C242.784 63.032 242.541 62.2484 242.088 61.5833C241.634 60.9182 240.99 60.4018 240.237 60.1003C240.139 60.0592 240.054 59.9908 239.994 59.9034C239.934 59.8159 239.901 59.7132 239.899 59.6077V59.5255C239.899 59.3832 240.016 59.2682 240.16 59.2682H240.243C241.21 59.588 242.052 60.1996 242.649 61.0168C243.245 61.8339 243.567 62.8154 243.569 63.8229Z" fill="white"/>
<path d="M164.695 38.8474C164.695 54.7793 151.779 67.6947 135.847 67.6947C119.915 67.6947 107 54.7793 107 38.8474C107 22.9154 119.915 10 135.847 10C151.779 10 164.695 22.9154 164.695 38.8474Z" fill="white"/>
<path fill-rule="evenodd" clip-rule="evenodd" d="M135.847 62.1961C148.743 62.1961 159.196 51.7425 159.196 38.8474C159.196 25.9522 148.743 15.4986 135.847 15.4986C122.952 15.4986 112.499 25.9522 112.499 38.8474C112.499 51.7425 122.952 62.1961 135.847 62.1961ZM135.847 67.6947C151.779 67.6947 164.695 54.7793 164.695 38.8474C164.695 22.9154 151.779 10 135.847 10C119.915 10 107 22.9154 107 38.8474C107 54.7793 119.915 67.6947 135.847 67.6947Z" fill="url(#paint5_linear_11717_119707)"/>
<mask id="path-16-inside-1_11717_119707" fill="white">
<path fill-rule="evenodd" clip-rule="evenodd" d="M156.789 58.6869C161.689 53.5165 164.695 46.5329 164.695 38.8474C164.695 22.9154 151.779 10 135.847 10C119.915 10 107 22.9154 107 38.8474C107 46.5576 110.025 53.5613 114.953 58.7366C115.678 50.4054 122.692 43.8446 131.21 43.8446H140.536C149.035 43.8446 156.04 50.3793 156.789 58.6869ZM135.873 39.1818C130.089 39.1818 125.382 34.4747 125.382 28.6905C125.382 22.9063 130.089 18.1992 135.873 18.1992C141.657 18.1992 146.364 22.9063 146.364 28.6905C146.364 34.4747 141.657 39.1818 135.873 39.1818Z"/>
</mask>
<path fill-rule="evenodd" clip-rule="evenodd" d="M156.789 58.6869C161.689 53.5165 164.695 46.5329 164.695 38.8474C164.695 22.9154 151.779 10 135.847 10C119.915 10 107 22.9154 107 38.8474C107 46.5576 110.025 53.5613 114.953 58.7366C115.678 50.4054 122.692 43.8446 131.21 43.8446H140.536C149.035 43.8446 156.04 50.3793 156.789 58.6869ZM135.873 39.1818C130.089 39.1818 125.382 34.4747 125.382 28.6905C125.382 22.9063 130.089 18.1992 135.873 18.1992C141.657 18.1992 146.364 22.9063 146.364 28.6905C146.364 34.4747 141.657 39.1818 135.873 39.1818Z" fill="url(#paint6_linear_11717_119707)"/>
<path d="M156.789 58.6869L151.313 59.1809L152.407 71.3053L160.781 62.4691L156.789 58.6869ZM114.953 58.7366L110.97 62.5282L119.373 71.3531L120.43 59.2137L114.953 58.7366ZM159.196 38.8474C159.196 45.0705 156.769 50.7148 152.798 54.9046L160.781 62.4691C166.61 56.3181 170.193 47.9954 170.193 38.8474H159.196ZM135.847 15.4986C148.743 15.4986 159.196 25.9522 159.196 38.8474H170.193C170.193 19.8786 154.816 4.50139 135.847 4.50139V15.4986ZM112.499 38.8474C112.499 25.9522 122.952 15.4986 135.847 15.4986V4.50139C116.879 4.50139 101.501 19.8786 101.501 38.8474H112.499ZM118.935 54.9449C114.941 50.751 112.499 45.0903 112.499 38.8474H101.501C101.501 48.0248 105.108 56.3715 110.97 62.5282L118.935 54.9449ZM131.21 38.346C119.813 38.346 110.445 47.1148 109.475 58.2594L120.43 59.2137C120.911 53.696 125.572 49.3432 131.21 49.3432V38.346ZM140.536 38.346H131.21V49.3432H140.536V38.346ZM162.266 58.1929C161.263 47.0797 151.909 38.346 140.536 38.346V49.3432C146.161 49.3432 150.817 53.6789 151.313 59.1809L162.266 58.1929ZM119.883 28.6905C119.883 37.5115 127.052 44.6804 135.873 44.6804V33.6832C133.126 33.6832 130.881 31.4379 130.881 28.6905H119.883ZM135.873 12.7006C127.052 12.7006 119.883 19.8695 119.883 28.6905H130.881C130.881 25.9431 133.126 23.6978 135.873 23.6978V12.7006ZM151.863 28.6905C151.863 19.8695 144.694 12.7006 135.873 12.7006V23.6978C138.621 23.6978 140.866 25.9431 140.866 28.6905H151.863ZM135.873 44.6804C144.694 44.6804 151.863 37.5115 151.863 28.6905H140.866C140.866 31.4379 138.621 33.6832 135.873 33.6832V44.6804Z" fill="url(#paint7_linear_11717_119707)" mask="url(#path-16-inside-1_11717_119707)"/>
<defs>
<linearGradient id="paint0_linear_11717_119707" x1="452.598" y1="70.3048" x2="451.485" y2="10.4344" gradientUnits="userSpaceOnUse">
<stop stop-color="#BFC9F5" stop-opacity="0.5"/>
<stop offset="0.0001" stop-color="#8EA1F5" stop-opacity="0.5"/>
<stop offset="1" stop-color="#26CBCF"/>
</linearGradient>
<linearGradient id="paint1_linear_11717_119707" x1="452.598" y1="70.3048" x2="451.485" y2="10.4344" gradientUnits="userSpaceOnUse">
<stop stop-color="#BFC9F5" stop-opacity="0.5"/>
<stop offset="0.0001" stop-color="#8EA1F5" stop-opacity="0.5"/>
<stop offset="1" stop-color="#26CBCF"/>
</linearGradient>
<linearGradient id="paint2_linear_11717_119707" x1="238.686" y1="56.4961" x2="238.686" y2="71.1487" gradientUnits="userSpaceOnUse">
<stop stop-color="#2BCAD0"/>
<stop offset="1" stop-color="#8BC1E5"/>
</linearGradient>
<linearGradient id="paint3_linear_11717_119707" x1="251.74" y1="63.8457" x2="228.545" y2="63.8457" gradientUnits="userSpaceOnUse">
<stop offset="0.239095" stop-color="#053542"/>
<stop offset="1" stop-color="#06657E"/>
</linearGradient>
<radialGradient id="paint4_radial_11717_119707" cx="0" cy="0" r="1" gradientUnits="userSpaceOnUse" gradientTransform="translate(238.648 63.827) rotate(-45) scale(7.28987)">
<stop stop-color="#33F8FF"/>
<stop offset="1" stop-color="#065368"/>
</radialGradient>
<linearGradient id="paint5_linear_11717_119707" x1="190.956" y1="39.0982" x2="93.312" y2="39.0982" gradientUnits="userSpaceOnUse">
<stop stop-color="#053542"/>
<stop offset="1" stop-color="#06657E"/>
</linearGradient>
<linearGradient id="paint6_linear_11717_119707" x1="190.956" y1="34.5802" x2="93.312" y2="34.5802" gradientUnits="userSpaceOnUse">
<stop stop-color="#053542"/>
<stop offset="1" stop-color="#06657E"/>
</linearGradient>
<linearGradient id="paint7_linear_11717_119707" x1="190.956" y1="34.5802" x2="93.312" y2="34.5802" gradientUnits="userSpaceOnUse">
<stop stop-color="#053542"/>
<stop offset="1" stop-color="#06657E"/>
</linearGradient>
</defs>
</svg>
