<svg xmlns="http://www.w3.org/2000/svg" fill="none" viewBox="0 0 522 102">
<g clip-path="url(#clip0_11734_120854)">
<path fill-rule="evenodd" clip-rule="evenodd" d="M186.691 37.3459C187.009 37.6404 187.506 37.621 187.801 37.3024C188.095 36.9839 188.076 36.4869 187.757 36.1924L180.534 29.5139L187.741 23.2006C188.068 22.9148 188.101 22.4185 187.815 22.0922C187.529 21.7658 187.033 21.733 186.706 22.0189L178.842 28.9072C178.675 29.0539 178.577 29.2649 178.574 29.4876C178.571 29.7102 178.663 29.9237 178.826 30.0749L186.691 37.3459ZM185.771 29.1513C185.337 29.1513 184.986 29.5029 184.986 29.9368C184.986 30.3706 185.337 30.7223 185.771 30.7223H187.667C188.101 30.7223 188.453 30.3706 188.453 29.9368C188.453 29.5029 188.101 29.1513 187.667 29.1513L185.771 29.1513ZM193.734 29.1513C193.301 29.1513 192.949 29.5029 192.949 29.9368C192.949 30.3706 193.301 30.7223 193.734 30.7223H197.526C197.96 30.7223 198.312 30.3706 198.312 29.9368C198.312 29.5029 197.96 29.1513 197.526 29.1513L193.734 29.1513ZM203.594 29.1513C203.16 29.1513 202.808 29.5029 202.808 29.9368C202.808 30.3706 203.16 30.7223 203.594 30.7223H207.386C207.82 30.7223 208.171 30.3706 208.171 29.9368C208.171 29.5029 207.82 29.1513 207.386 29.1513H203.594ZM213.453 29.1513C213.019 29.1513 212.668 29.5029 212.668 29.9368C212.668 30.3706 213.019 30.7223 213.453 30.7223H217.245C217.679 30.7223 218.031 30.3706 218.031 29.9368C218.031 29.5029 217.679 29.1513 217.245 29.1513L213.453 29.1513ZM223.312 29.1513C222.879 29.1513 222.527 29.5029 222.527 29.9368C222.527 30.3706 222.879 30.7223 223.312 30.7223H227.104C227.538 30.7223 227.89 30.3706 227.89 29.9368C227.89 29.5029 227.538 29.1513 227.104 29.1513L223.312 29.1513ZM233.172 29.1513C232.738 29.1513 232.386 29.5029 232.386 29.9368C232.386 30.3706 232.738 30.7223 233.172 30.7223L236.946 30.7223C237.38 30.7223 237.732 30.3706 237.732 29.9368C237.732 29.5029 237.38 29.1513 236.946 29.1513L233.172 29.1513ZM242.957 29.1513C242.523 29.1513 242.171 29.5029 242.171 29.9368C242.171 30.3706 242.523 30.7223 242.957 30.7223H246.714C247.147 30.7223 247.499 30.3706 247.499 29.9368C247.499 29.5029 247.147 29.1513 246.714 29.1513H242.957ZM252.724 29.1513C252.29 29.1513 251.939 29.5029 251.939 29.9368C251.939 30.3706 252.29 30.7223 252.724 30.7223H256.481C256.915 30.7223 257.266 30.3706 257.266 29.9368C257.266 29.5029 256.915 29.1513 256.481 29.1513L252.724 29.1513ZM262.492 29.1513C262.058 29.1513 261.706 29.5029 261.706 29.9368C261.706 30.3706 262.058 30.7223 262.492 30.7223H266.248C266.682 30.7223 267.034 30.3706 267.034 29.9368C267.034 29.5029 266.682 29.1513 266.248 29.1513H262.492ZM272.259 29.1513C271.825 29.1513 271.474 29.5029 271.474 29.9368C271.474 30.3706 271.825 30.7223 272.259 30.7223H276.016C276.45 30.7223 276.801 30.3706 276.801 29.9368C276.801 29.5029 276.45 29.1513 276.016 29.1513L272.259 29.1513ZM282.027 29.1513C281.593 29.1513 281.241 29.5029 281.241 29.9368C281.241 30.3706 281.593 30.7223 282.027 30.7223H285.783C286.217 30.7223 286.569 30.3706 286.569 29.9368C286.569 29.5029 286.217 29.1513 285.783 29.1513H282.027ZM291.794 29.1513C291.36 29.1513 291.008 29.5029 291.008 29.9368C291.008 30.3706 291.36 30.7223 291.794 30.7223H295.551C295.984 30.7223 296.336 30.3706 296.336 29.9368C296.336 29.5029 295.984 29.1513 295.551 29.1513L291.794 29.1513ZM301.561 29.1513C301.128 29.1513 300.776 29.5029 300.776 29.9368C300.776 30.3706 301.128 30.7223 301.561 30.7223H305.318C305.752 30.7223 306.104 30.3706 306.104 29.9368C306.104 29.5029 305.752 29.1513 305.318 29.1513L301.561 29.1513ZM311.329 29.1513C310.895 29.1513 310.543 29.5029 310.543 29.9368C310.543 30.3706 310.895 30.7223 311.329 30.7223H315.085C315.519 30.7223 315.871 30.3706 315.871 29.9368C315.871 29.5029 315.519 29.1513 315.085 29.1513H311.329ZM321.096 29.1513C320.662 29.1513 320.311 29.5029 320.311 29.9368C320.311 30.3706 320.662 30.7223 321.096 30.7223H324.853C325.287 30.7223 325.638 30.3706 325.638 29.9368C325.638 29.5029 325.287 29.1513 324.853 29.1513H321.096ZM330.864 29.1513C330.43 29.1513 330.078 29.5029 330.078 29.9368C330.078 30.3706 330.43 30.7223 330.864 30.7223H334.62C335.054 30.7223 335.406 30.3706 335.406 29.9368C335.406 29.5029 335.054 29.1513 334.62 29.1513H330.864ZM340.631 29.1513C340.197 29.1513 339.845 29.5029 339.845 29.9368C339.845 30.3706 340.197 30.7223 340.631 30.7223H342.509C342.943 30.7223 343.295 30.3706 343.295 29.9368C343.295 29.5029 342.943 29.1513 342.509 29.1513L340.631 29.1513Z" fill="url(#paint0_linear_11734_120854)"/>
<path fill-rule="evenodd" clip-rule="evenodd" d="M335.007 56.3237C334.674 56.6011 334.178 56.5556 333.901 56.2221C333.624 55.8885 333.669 55.3932 334.003 55.1158L341.112 49.2037L334.019 43.6155C333.678 43.347 333.62 42.8531 333.888 42.5123C334.156 42.1715 334.65 42.1129 334.991 42.3814L342.846 48.5702C343.033 48.7169 343.143 48.9398 343.146 49.1768C343.149 49.4138 343.045 49.6396 342.862 49.7912L335.007 56.3237ZM335.95 48.3816C336.383 48.3816 336.735 48.7332 336.735 49.1671C336.735 49.6009 336.383 49.9526 335.95 49.9526H334.054C333.62 49.9526 333.268 49.6009 333.268 49.1671C333.268 48.7332 333.62 48.3816 334.054 48.3816H335.95ZM327.986 48.3816C328.42 48.3816 328.772 48.7332 328.772 49.1671C328.772 49.6009 328.42 49.9526 327.986 49.9526H324.194C323.76 49.9526 323.409 49.6009 323.409 49.1671C323.409 48.7332 323.76 48.3816 324.194 48.3816H327.986ZM318.127 48.3816C318.561 48.3816 318.912 48.7332 318.912 49.1671C318.912 49.6009 318.561 49.9526 318.127 49.9526H314.335C313.901 49.9526 313.549 49.6009 313.549 49.1671C313.549 48.7332 313.901 48.3816 314.335 48.3816H318.127ZM308.268 48.3816C308.701 48.3816 309.053 48.7332 309.053 49.1671C309.053 49.6009 308.701 49.9526 308.268 49.9526H304.476C304.042 49.9526 303.69 49.6009 303.69 49.1671C303.69 48.7332 304.042 48.3816 304.476 48.3816H308.268ZM298.408 48.3816C298.842 48.3816 299.194 48.7332 299.194 49.1671C299.194 49.6009 298.842 49.9526 298.408 49.9526H294.616C294.182 49.9526 293.831 49.6009 293.831 49.1671C293.831 48.7332 294.182 48.3816 294.616 48.3816H298.408ZM288.549 48.3816C288.983 48.3816 289.334 48.7332 289.334 49.1671C289.334 49.6009 288.983 49.9526 288.549 49.9526H284.777C284.343 49.9526 283.991 49.6009 283.991 49.1671C283.991 48.7332 284.343 48.3816 284.777 48.3816H288.549ZM278.774 48.3816C279.208 48.3816 279.559 48.7332 279.559 49.1671C279.559 49.6009 279.208 49.9526 278.774 49.9526H275.022C274.588 49.9526 274.236 49.6009 274.236 49.1671C274.236 48.7332 274.588 48.3816 275.022 48.3816H278.774ZM269.019 48.3816C269.453 48.3816 269.804 48.7332 269.804 49.1671C269.804 49.6009 269.453 49.9526 269.019 49.9526H265.267C264.833 49.9526 264.481 49.6009 264.481 49.1671C264.481 48.7332 264.833 48.3816 265.267 48.3816H269.019ZM259.264 48.3816C259.698 48.3816 260.049 48.7332 260.049 49.1671C260.049 49.6009 259.698 49.9526 259.264 49.9526H255.512C255.078 49.9526 254.726 49.6009 254.726 49.1671C254.726 48.7332 255.078 48.3816 255.512 48.3816H259.264ZM249.509 48.3816C249.943 48.3816 250.294 48.7332 250.294 49.1671C250.294 49.6009 249.943 49.9526 249.509 49.9526H245.757C245.323 49.9526 244.971 49.6009 244.971 49.1671C244.971 48.7332 245.323 48.3816 245.757 48.3816H249.509ZM239.754 48.3816C240.188 48.3816 240.539 48.7332 240.539 49.1671C240.539 49.6009 240.188 49.9526 239.754 49.9526H236.002C235.568 49.9526 235.216 49.6009 235.216 49.1671C235.216 48.7332 235.568 48.3816 236.002 48.3816H239.754ZM229.999 48.3816C230.433 48.3816 230.784 48.7332 230.784 49.1671C230.784 49.6009 230.433 49.9526 229.999 49.9526H226.247C225.813 49.9526 225.461 49.6009 225.461 49.1671C225.461 48.7332 225.813 48.3816 226.247 48.3816H229.999ZM220.244 48.3816C220.678 48.3816 221.029 48.7332 221.029 49.1671C221.029 49.6009 220.678 49.9526 220.244 49.9526H216.492C216.058 49.9526 215.706 49.6009 215.706 49.1671C215.706 48.7332 216.058 48.3816 216.492 48.3816H220.244ZM210.489 48.3816C210.923 48.3816 211.274 48.7332 211.274 49.1671C211.274 49.6009 210.923 49.9526 210.489 49.9526H206.737C206.303 49.9526 205.952 49.6009 205.952 49.1671C205.952 48.7332 206.303 48.3816 206.737 48.3816H210.489ZM200.734 48.3816C201.168 48.3816 201.519 48.7332 201.519 49.1671C201.519 49.6009 201.168 49.9526 200.734 49.9526H196.982C196.548 49.9526 196.197 49.6009 196.197 49.1671C196.197 48.7332 196.548 48.3816 196.982 48.3816H200.734ZM190.979 48.3816C191.413 48.3816 191.764 48.7332 191.764 49.1671C191.764 49.6009 191.413 49.9526 190.979 49.9526H187.227C186.793 49.9526 186.442 49.6009 186.442 49.1671C186.442 48.7332 186.793 48.3816 187.227 48.3816H190.979ZM181.224 48.3816C181.658 48.3816 182.01 48.7332 182.01 49.1671C182.01 49.6009 181.658 49.9526 181.224 49.9526H179.348C178.914 49.9526 178.562 49.6009 178.562 49.1671C178.562 48.7332 178.914 48.3816 179.348 48.3816H181.224Z" fill="url(#paint1_linear_11734_120854)"/>
<path d="M107.401 87.9227H110.939C111.281 87.9227 111.619 87.9654 111.952 88.0509C112.286 88.1278 112.581 88.2603 112.837 88.4484C113.102 88.6279 113.316 88.8629 113.478 89.1535C113.64 89.4441 113.722 89.7946 113.722 90.2048C113.722 90.7177 113.576 91.1408 113.286 91.4741C112.995 91.8075 112.615 92.0468 112.145 92.1921V92.2177C112.717 92.2947 113.187 92.5169 113.555 92.8844C113.922 93.252 114.106 93.7435 114.106 94.3589C114.106 94.8546 114.008 95.2734 113.811 95.6153C113.615 95.9487 113.354 96.2179 113.029 96.4231C112.713 96.6282 112.345 96.7778 111.927 96.8718C111.516 96.9573 111.098 97 110.67 97H107.401V87.9227ZM109.016 91.6152H110.452C110.991 91.6152 111.401 91.5083 111.683 91.2946C111.965 91.0809 112.106 90.7775 112.106 90.3843C112.106 89.9741 111.961 89.6835 111.67 89.5125C111.38 89.3416 110.927 89.2561 110.311 89.2561H109.016V91.6152ZM109.016 95.641H110.465C110.67 95.641 110.892 95.6281 111.132 95.6025C111.371 95.5683 111.589 95.5042 111.786 95.4102C111.991 95.3162 112.157 95.1794 112.286 94.9999C112.422 94.8204 112.491 94.5811 112.491 94.2819C112.491 93.8033 112.328 93.4699 112.004 93.2819C111.679 93.0939 111.187 92.9998 110.529 92.9998H109.016V95.641ZM115.522 93.8973C115.522 93.4101 115.608 92.9699 115.779 92.5767C115.958 92.175 116.198 91.8331 116.497 91.5511C116.796 91.269 117.151 91.051 117.561 90.8972C117.971 90.7433 118.407 90.6664 118.869 90.6664C119.33 90.6664 119.766 90.7433 120.177 90.8972C120.587 91.051 120.941 91.269 121.241 91.5511C121.54 91.8331 121.775 92.175 121.946 92.5767C122.125 92.9699 122.215 93.4101 122.215 93.8973C122.215 94.3845 122.125 94.829 121.946 95.2307C121.775 95.6324 121.54 95.9786 121.241 96.2692C120.941 96.5513 120.587 96.7735 120.177 96.9359C119.766 97.0983 119.33 97.1795 118.869 97.1795C118.407 97.1795 117.971 97.0983 117.561 96.9359C117.151 96.7735 116.796 96.5513 116.497 96.2692C116.198 95.9786 115.958 95.6324 115.779 95.2307C115.608 94.829 115.522 94.3845 115.522 93.8973ZM117.087 93.8973C117.087 94.1366 117.121 94.376 117.189 94.6153C117.266 94.8546 117.377 95.0683 117.523 95.2563C117.668 95.4444 117.852 95.5982 118.074 95.7179C118.296 95.8376 118.561 95.8974 118.869 95.8974C119.176 95.8974 119.441 95.8376 119.664 95.7179C119.886 95.5982 120.07 95.4444 120.215 95.2563C120.36 95.0683 120.467 94.8546 120.535 94.6153C120.612 94.376 120.651 94.1366 120.651 93.8973C120.651 93.658 120.612 93.4229 120.535 93.1921C120.467 92.9528 120.36 92.7391 120.215 92.5511C120.07 92.3631 119.886 92.2135 119.664 92.1024C119.441 91.9827 119.176 91.9229 118.869 91.9229C118.561 91.9229 118.296 91.9827 118.074 92.1024C117.852 92.2135 117.668 92.3631 117.523 92.5511C117.377 92.7391 117.266 92.9528 117.189 93.1921C117.121 93.4229 117.087 93.658 117.087 93.8973ZM123.963 90.8459H125.438V91.8716H125.463C125.634 91.5126 125.874 91.222 126.181 90.9997C126.489 90.7775 126.848 90.6664 127.258 90.6664C127.318 90.6664 127.382 90.6707 127.451 90.6792C127.519 90.6792 127.579 90.6878 127.63 90.7049V92.1152C127.527 92.0895 127.438 92.0724 127.361 92.0639C127.292 92.0553 127.224 92.0511 127.156 92.0511C126.805 92.0511 126.523 92.1152 126.309 92.2434C126.096 92.3716 125.929 92.5255 125.809 92.7049C125.69 92.8844 125.609 93.0682 125.566 93.2563C125.523 93.4443 125.502 93.5939 125.502 93.705V97H123.963V90.8459ZM128.89 90.8459H130.364V91.8716H130.39C130.561 91.5126 130.8 91.222 131.108 90.9997C131.416 90.7775 131.775 90.6664 132.185 90.6664C132.245 90.6664 132.309 90.6707 132.377 90.6792C132.446 90.6792 132.505 90.6878 132.557 90.7049V92.1152C132.454 92.0895 132.364 92.0724 132.287 92.0639C132.219 92.0553 132.151 92.0511 132.082 92.0511C131.732 92.0511 131.45 92.1152 131.236 92.2434C131.022 92.3716 130.856 92.5255 130.736 92.7049C130.616 92.8844 130.535 93.0682 130.492 93.2563C130.45 93.4443 130.428 93.5939 130.428 93.705V97H128.89V90.8459ZM133.232 93.8973C133.232 93.4101 133.318 92.9699 133.488 92.5767C133.668 92.175 133.907 91.8331 134.206 91.5511C134.506 91.269 134.86 91.051 135.271 90.8972C135.681 90.7433 136.117 90.6664 136.578 90.6664C137.04 90.6664 137.476 90.7433 137.886 90.8972C138.296 91.051 138.651 91.269 138.95 91.5511C139.249 91.8331 139.484 92.175 139.655 92.5767C139.835 92.9699 139.925 93.4101 139.925 93.8973C139.925 94.3845 139.835 94.829 139.655 95.2307C139.484 95.6324 139.249 95.9786 138.95 96.2692C138.651 96.5513 138.296 96.7735 137.886 96.9359C137.476 97.0983 137.04 97.1795 136.578 97.1795C136.117 97.1795 135.681 97.0983 135.271 96.9359C134.86 96.7735 134.506 96.5513 134.206 96.2692C133.907 95.9786 133.668 95.6324 133.488 95.2307C133.318 94.829 133.232 94.3845 133.232 93.8973ZM134.796 93.8973C134.796 94.1366 134.83 94.376 134.899 94.6153C134.976 94.8546 135.087 95.0683 135.232 95.2563C135.377 95.4444 135.561 95.5982 135.783 95.7179C136.006 95.8376 136.271 95.8974 136.578 95.8974C136.886 95.8974 137.151 95.8376 137.373 95.7179C137.595 95.5982 137.779 95.4444 137.925 95.2563C138.07 95.0683 138.177 94.8546 138.245 94.6153C138.322 94.376 138.36 94.1366 138.36 93.8973C138.36 93.658 138.322 93.4229 138.245 93.1921C138.177 92.9528 138.07 92.7391 137.925 92.5511C137.779 92.3631 137.595 92.2135 137.373 92.1024C137.151 91.9827 136.886 91.9229 136.578 91.9229C136.271 91.9229 136.006 91.9827 135.783 92.1024C135.561 92.2135 135.377 92.3631 135.232 92.5511C135.087 92.7391 134.976 92.9528 134.899 93.1921C134.83 93.4229 134.796 93.658 134.796 93.8973ZM140.801 90.8459H142.468L143.75 95.2563H143.775L145.096 90.8459H146.737L148.071 95.2563H148.096L149.404 90.8459H151.007L148.878 97H147.314L145.917 92.6921H145.891L144.506 97H142.942L140.801 90.8459ZM156.567 93.3075C156.567 93.1109 156.537 92.9229 156.477 92.7434C156.426 92.5639 156.341 92.4058 156.221 92.269C156.101 92.1323 155.947 92.0254 155.759 91.9485C155.58 91.863 155.366 91.8203 155.118 91.8203C154.657 91.8203 154.264 91.9613 153.939 92.2434C153.623 92.5169 153.447 92.8716 153.413 93.3075H156.567ZM158.106 93.9999C158.106 94.0683 158.106 94.1366 158.106 94.205C158.106 94.2734 158.101 94.3418 158.093 94.4101H153.413C153.43 94.6324 153.486 94.8375 153.58 95.0256C153.682 95.2051 153.815 95.3632 153.977 95.4999C154.14 95.6281 154.323 95.7307 154.529 95.8076C154.734 95.8846 154.947 95.923 155.17 95.923C155.554 95.923 155.879 95.8547 156.144 95.7179C156.409 95.5726 156.627 95.376 156.798 95.1281L157.824 95.9487C157.217 96.7692 156.336 97.1795 155.182 97.1795C154.704 97.1795 154.264 97.1068 153.862 96.9615C153.46 96.8077 153.11 96.594 152.811 96.3205C152.52 96.047 152.289 95.7136 152.118 95.3204C151.956 94.9187 151.875 94.4657 151.875 93.9614C151.875 93.4657 151.956 93.0169 152.118 92.6152C152.289 92.2049 152.52 91.8588 152.811 91.5767C153.101 91.2861 153.443 91.0639 153.836 90.91C154.238 90.7476 154.67 90.6664 155.131 90.6664C155.559 90.6664 155.952 90.7391 156.311 90.8844C156.678 91.0211 156.995 91.2305 157.26 91.5126C157.524 91.7861 157.73 92.1323 157.875 92.5511C158.029 92.9614 158.106 93.4443 158.106 93.9999ZM159.852 90.8459H161.327V91.8716H161.352C161.523 91.5126 161.762 91.222 162.07 90.9997C162.378 90.7775 162.737 90.6664 163.147 90.6664C163.207 90.6664 163.271 90.6707 163.339 90.6792C163.408 90.6792 163.468 90.6878 163.519 90.7049V92.1152C163.416 92.0895 163.327 92.0724 163.25 92.0639C163.181 92.0553 163.113 92.0511 163.045 92.0511C162.694 92.0511 162.412 92.1152 162.198 92.2434C161.985 92.3716 161.818 92.5255 161.698 92.7049C161.579 92.8844 161.498 93.0682 161.455 93.2563C161.412 93.4443 161.391 93.5939 161.391 93.705V97H159.852V90.8459Z" fill="white"/>
<path d="M339.286 88.1336H345.145V89.5439H340.901V92.0312H344.902V93.3903H340.901V97.2109H339.286V88.1336ZM346.615 91.0568H348.154V97.2109H346.615V91.0568ZM346.397 88.967C346.397 88.7191 346.487 88.5054 346.667 88.3259C346.855 88.1379 347.09 88.0439 347.372 88.0439C347.654 88.0439 347.889 88.1336 348.077 88.3131C348.273 88.4841 348.372 88.702 348.372 88.967C348.372 89.232 348.273 89.4542 348.077 89.6337C347.889 89.8046 347.654 89.8901 347.372 89.8901C347.09 89.8901 346.855 89.8004 346.667 89.6209C346.487 89.4328 346.397 89.2149 346.397 88.967ZM351.841 93.9416L349.623 91.0568H351.469L352.802 92.9672L354.174 91.0568H355.944L353.738 93.9416L356.251 97.2109H354.379L352.777 94.9673L351.161 97.2109H349.341L351.841 93.9416ZM361.628 93.5185C361.628 93.3219 361.598 93.1338 361.538 92.9543C361.487 92.7749 361.401 92.6167 361.282 92.48C361.162 92.3432 361.008 92.2364 360.82 92.1594C360.641 92.074 360.427 92.0312 360.179 92.0312C359.717 92.0312 359.324 92.1723 358.999 92.4543C358.683 92.7278 358.508 93.0826 358.474 93.5185H361.628ZM363.166 94.2108C363.166 94.2792 363.166 94.3476 363.166 94.4159C363.166 94.4843 363.162 94.5527 363.153 94.6211H358.474C358.491 94.8433 358.546 95.0485 358.64 95.2365C358.743 95.416 358.875 95.5741 359.038 95.7109C359.2 95.8391 359.384 95.9417 359.589 96.0186C359.794 96.0955 360.008 96.134 360.23 96.134C360.615 96.134 360.94 96.0656 361.205 95.9288C361.47 95.7835 361.688 95.5869 361.859 95.3391L362.884 96.1596C362.277 96.9802 361.397 97.3904 360.243 97.3904C359.764 97.3904 359.324 97.3178 358.922 97.1725C358.521 97.0186 358.17 96.8049 357.871 96.5314C357.581 96.2579 357.35 95.9246 357.179 95.5314C357.016 95.1297 356.935 94.6766 356.935 94.1723C356.935 93.6766 357.016 93.2279 357.179 92.8261C357.35 92.4159 357.581 92.0697 357.871 91.7876C358.162 91.497 358.504 91.2748 358.897 91.1209C359.299 90.9585 359.73 90.8773 360.192 90.8773C360.619 90.8773 361.012 90.95 361.371 91.0953C361.739 91.2321 362.055 91.4415 362.32 91.7235C362.585 91.997 362.79 92.3432 362.935 92.762C363.089 93.1723 363.166 93.6552 363.166 94.2108ZM371.169 97.2109H369.708V96.2878H369.682C369.468 96.6468 369.169 96.9203 368.785 97.1084C368.409 97.2964 368.003 97.3904 367.567 97.3904C367.097 97.3904 366.673 97.305 366.297 97.134C365.93 96.9545 365.614 96.7195 365.349 96.4289C365.092 96.1297 364.891 95.7835 364.746 95.3903C364.609 94.9886 364.541 94.5613 364.541 94.1082C364.541 93.6552 364.614 93.2321 364.759 92.839C364.904 92.4458 365.109 92.1039 365.374 91.8133C365.639 91.5227 365.956 91.2962 366.323 91.1338C366.691 90.9628 367.092 90.8773 367.528 90.8773C367.81 90.8773 368.062 90.9115 368.285 90.9799C368.507 91.0397 368.699 91.1167 368.862 91.2107C369.033 91.3047 369.178 91.4073 369.298 91.5184C369.417 91.6295 369.515 91.7363 369.592 91.8389H369.631V87.5182H371.169V97.2109ZM366.105 94.1082C366.105 94.3476 366.139 94.5869 366.208 94.8262C366.285 95.0655 366.396 95.2792 366.541 95.4673C366.686 95.6553 366.87 95.8092 367.092 95.9288C367.315 96.0485 367.575 96.1083 367.874 96.1083C368.156 96.1083 368.409 96.0528 368.631 95.9417C368.853 95.822 369.041 95.6681 369.195 95.4801C369.357 95.2921 369.477 95.0826 369.554 94.8519C369.639 94.6125 369.682 94.3732 369.682 94.1339C369.682 93.8946 369.639 93.6552 369.554 93.4159C369.477 93.1766 369.357 92.9629 369.195 92.7749C369.041 92.5868 368.853 92.433 368.631 92.3133C368.409 92.1936 368.156 92.1338 367.874 92.1338C367.575 92.1338 367.315 92.1936 367.092 92.3133C366.87 92.4244 366.686 92.574 366.541 92.762C366.396 92.9501 366.285 93.1638 366.208 93.4031C366.139 93.6339 366.105 93.8689 366.105 94.1082ZM376.834 88.1336H379.988C380.415 88.1336 380.829 88.1806 381.231 88.2747C381.633 88.3601 381.988 88.5054 382.295 88.7106C382.612 88.9157 382.864 89.185 383.052 89.5183C383.24 89.8517 383.334 90.2577 383.334 90.7363C383.334 91.3945 383.146 91.9329 382.77 92.3518C382.402 92.762 381.898 93.0398 381.257 93.1851L383.68 97.2109H381.731L379.629 93.3646H378.449V97.2109H376.834V88.1336ZM379.77 92.0441C380 92.0441 380.231 92.027 380.462 91.9928C380.693 91.9586 380.898 91.8945 381.077 91.8005C381.265 91.7064 381.419 91.5739 381.539 91.403C381.659 91.2235 381.718 90.997 381.718 90.7235C381.718 90.4756 381.663 90.2747 381.552 90.1209C381.441 89.9585 381.3 89.8303 381.129 89.7363C380.958 89.6422 380.761 89.5781 380.539 89.5439C380.325 89.5098 380.116 89.4927 379.911 89.4927H378.449V92.0441H379.77ZM388.747 96.4289H388.708C388.554 96.7024 388.307 96.9289 387.965 97.1084C387.623 97.2793 387.234 97.3648 386.798 97.3648C386.55 97.3648 386.289 97.3306 386.016 97.2622C385.751 97.2024 385.503 97.0998 385.272 96.9545C385.05 96.8007 384.862 96.6041 384.708 96.3647C384.563 96.1169 384.49 95.8134 384.49 95.4545C384.49 94.9929 384.618 94.6254 384.875 94.3518C385.14 94.0783 385.477 93.8689 385.888 93.7236C386.298 93.5783 386.751 93.4843 387.247 93.4415C387.751 93.3903 388.242 93.3646 388.721 93.3646V93.2108C388.721 92.8261 388.58 92.5441 388.298 92.3646C388.025 92.1765 387.695 92.0825 387.311 92.0825C386.986 92.0825 386.674 92.1509 386.375 92.2877C386.076 92.4244 385.828 92.5911 385.631 92.7877L384.836 91.8517C385.187 91.5269 385.589 91.2833 386.042 91.1209C386.503 90.9585 386.969 90.8773 387.439 90.8773C387.986 90.8773 388.435 90.9543 388.785 91.1081C389.144 91.262 389.426 91.4628 389.631 91.7107C389.837 91.9586 389.978 92.2364 390.055 92.5441C390.14 92.8518 390.183 93.1595 390.183 93.4672V97.2109H388.747V96.4289ZM388.721 94.4031H388.375C388.127 94.4031 387.866 94.4159 387.593 94.4416C387.319 94.4587 387.067 94.5057 386.836 94.5826C386.606 94.651 386.413 94.7536 386.259 94.8903C386.106 95.0185 386.029 95.198 386.029 95.4288C386.029 95.5741 386.059 95.6981 386.118 95.8006C386.187 95.8946 386.272 95.9716 386.375 96.0314C386.477 96.0912 386.593 96.134 386.721 96.1596C386.849 96.1853 386.977 96.1981 387.106 96.1981C387.636 96.1981 388.037 96.057 388.311 95.775C388.584 95.4929 388.721 95.1083 388.721 94.6211V94.4031ZM391.222 92.2877V91.0568H392.299V89.2747H393.812V91.0568H395.35V92.2877H393.812V95.1467C393.812 95.4203 393.859 95.6468 393.953 95.8263C394.055 96.0058 394.277 96.0955 394.619 96.0955C394.722 96.0955 394.833 96.087 394.953 96.0699C395.072 96.0442 395.179 96.01 395.273 95.9673L395.324 97.1725C395.188 97.2238 395.025 97.2622 394.837 97.2879C394.649 97.3221 394.47 97.3391 394.299 97.3391C393.889 97.3391 393.555 97.2836 393.299 97.1725C393.042 97.0528 392.837 96.8947 392.683 96.6981C392.538 96.493 392.435 96.2622 392.376 96.0058C392.324 95.7408 392.299 95.4587 392.299 95.1596V92.2877H391.222ZM401.053 93.5185C401.053 93.3219 401.024 93.1338 400.964 92.9543C400.912 92.7749 400.827 92.6167 400.707 92.48C400.588 92.3432 400.434 92.2364 400.246 92.1594C400.066 92.074 399.853 92.0312 399.605 92.0312C399.143 92.0312 398.75 92.1723 398.425 92.4543C398.109 92.7278 397.934 93.0826 397.899 93.5185H401.053ZM402.592 94.2108C402.592 94.2792 402.592 94.3476 402.592 94.4159C402.592 94.4843 402.588 94.5527 402.579 94.6211H397.899C397.917 94.8433 397.972 95.0485 398.066 95.2365C398.169 95.416 398.301 95.5741 398.464 95.7109C398.626 95.8391 398.81 95.9417 399.015 96.0186C399.22 96.0955 399.434 96.134 399.656 96.134C400.041 96.134 400.365 96.0656 400.63 95.9288C400.895 95.7835 401.113 95.5869 401.284 95.3391L402.31 96.1596C401.703 96.9802 400.823 97.3904 399.669 97.3904C399.19 97.3904 398.75 97.3178 398.348 97.1725C397.947 97.0186 397.596 96.8049 397.297 96.5314C397.006 96.2579 396.776 95.9246 396.605 95.5314C396.442 95.1297 396.361 94.6766 396.361 94.1723C396.361 93.6766 396.442 93.2279 396.605 92.8261C396.776 92.4159 397.006 92.0697 397.297 91.7876C397.588 91.497 397.929 91.2748 398.323 91.1209C398.724 90.9585 399.156 90.8773 399.618 90.8773C400.045 90.8773 400.438 90.95 400.797 91.0953C401.165 91.2321 401.481 91.4415 401.746 91.7235C402.011 91.997 402.216 92.3432 402.361 92.762C402.515 93.1723 402.592 93.6552 402.592 94.2108ZM407.877 88.1336H410.839C411.36 88.1336 411.83 88.1806 412.249 88.2747C412.668 88.3687 413.027 88.5225 413.326 88.7362C413.625 88.9499 413.856 89.2234 414.018 89.5568C414.181 89.8901 414.262 90.2918 414.262 90.7619C414.262 91.2662 414.168 91.6893 413.98 92.0312C413.792 92.3731 413.535 92.6509 413.211 92.8646C412.894 93.0697 412.523 93.2193 412.095 93.3133C411.668 93.4074 411.215 93.4544 410.736 93.4544H409.493V97.2109H407.877V88.1336ZM410.621 92.0953C410.886 92.0953 411.138 92.0782 411.377 92.0441C411.617 92.0013 411.83 91.9329 412.018 91.8389C412.206 91.7363 412.356 91.5996 412.467 91.4286C412.578 91.2577 412.634 91.0355 412.634 90.7619C412.634 90.497 412.578 90.2833 412.467 90.1209C412.356 89.9499 412.206 89.8175 412.018 89.7234C411.839 89.6294 411.629 89.5696 411.39 89.5439C411.159 89.5098 410.92 89.4927 410.672 89.4927H409.493V92.0953H410.621ZM414.684 94.1082C414.684 93.621 414.77 93.1809 414.94 92.7877C415.12 92.3859 415.359 92.0441 415.658 91.762C415.958 91.4799 416.312 91.262 416.723 91.1081C417.133 90.9543 417.569 90.8773 418.03 90.8773C418.492 90.8773 418.928 90.9543 419.338 91.1081C419.748 91.262 420.103 91.4799 420.402 91.762C420.701 92.0441 420.936 92.3859 421.107 92.7877C421.287 93.1809 421.377 93.621 421.377 94.1082C421.377 94.5954 421.287 95.0399 421.107 95.4416C420.936 95.8434 420.701 96.1895 420.402 96.4801C420.103 96.7622 419.748 96.9844 419.338 97.1468C418.928 97.3092 418.492 97.3904 418.03 97.3904C417.569 97.3904 417.133 97.3092 416.723 97.1468C416.312 96.9844 415.958 96.7622 415.658 96.4801C415.359 96.1895 415.12 95.8434 414.94 95.4416C414.77 95.0399 414.684 94.5954 414.684 94.1082ZM416.248 94.1082C416.248 94.3476 416.282 94.5869 416.351 94.8262C416.428 95.0655 416.539 95.2792 416.684 95.4673C416.829 95.6553 417.013 95.8092 417.235 95.9288C417.458 96.0485 417.723 96.1083 418.03 96.1083C418.338 96.1083 418.603 96.0485 418.825 95.9288C419.047 95.8092 419.231 95.6553 419.377 95.4673C419.522 95.2792 419.629 95.0655 419.697 94.8262C419.774 94.5869 419.812 94.3476 419.812 94.1082C419.812 93.8689 419.774 93.6339 419.697 93.4031C419.629 93.1638 419.522 92.9501 419.377 92.762C419.231 92.574 419.047 92.4244 418.825 92.3133C418.603 92.1936 418.338 92.1338 418.03 92.1338C417.723 92.1338 417.458 92.1936 417.235 92.3133C417.013 92.4244 416.829 92.574 416.684 92.762C416.539 92.9501 416.428 93.1638 416.351 93.4031C416.282 93.6339 416.248 93.8689 416.248 94.1082ZM422.766 94.1082C422.766 93.621 422.851 93.1809 423.022 92.7877C423.202 92.3859 423.441 92.0441 423.74 91.762C424.039 91.4799 424.394 91.262 424.804 91.1081C425.215 90.9543 425.651 90.8773 426.112 90.8773C426.574 90.8773 427.01 90.9543 427.42 91.1081C427.83 91.262 428.185 91.4799 428.484 91.762C428.783 92.0441 429.018 92.3859 429.189 92.7877C429.369 93.1809 429.458 93.621 429.458 94.1082C429.458 94.5954 429.369 95.0399 429.189 95.4416C429.018 95.8434 428.783 96.1895 428.484 96.4801C428.185 96.7622 427.83 96.9844 427.42 97.1468C427.01 97.3092 426.574 97.3904 426.112 97.3904C425.651 97.3904 425.215 97.3092 424.804 97.1468C424.394 96.9844 424.039 96.7622 423.74 96.4801C423.441 96.1895 423.202 95.8434 423.022 95.4416C422.851 95.0399 422.766 94.5954 422.766 94.1082ZM424.33 94.1082C424.33 94.3476 424.364 94.5869 424.433 94.8262C424.509 95.0655 424.621 95.2792 424.766 95.4673C424.911 95.6553 425.095 95.8092 425.317 95.9288C425.539 96.0485 425.804 96.1083 426.112 96.1083C426.42 96.1083 426.685 96.0485 426.907 95.9288C427.129 95.8092 427.313 95.6553 427.458 95.4673C427.604 95.2792 427.71 95.0655 427.779 94.8262C427.856 94.5869 427.894 94.3476 427.894 94.1082C427.894 93.8689 427.856 93.6339 427.779 93.4031C427.71 93.1638 427.604 92.9501 427.458 92.762C427.313 92.574 427.129 92.4244 426.907 92.3133C426.685 92.1936 426.42 92.1338 426.112 92.1338C425.804 92.1338 425.539 92.1936 425.317 92.3133C425.095 92.4244 424.911 92.574 424.766 92.762C424.621 92.9501 424.509 93.1638 424.433 93.4031C424.364 93.6339 424.33 93.8689 424.33 94.1082ZM431.232 87.5182H432.771V97.2109H431.232V87.5182Z" fill="white"/>
<path d="M370.757 15.2899L385.984 10.8187L401.212 15.2899L411.605 27.2839L413.863 42.9928L407.271 57.429L393.92 66.0092H378.049L364.698 57.429L358.105 42.9928L360.364 27.2839L370.757 15.2899Z" fill="url(#paint2_linear_11734_120854)" fill-opacity="0.5" stroke="url(#paint3_linear_11734_120854)" stroke-width="1.57103"/>
<g clip-path="url(#clip1_11734_120854)">
<path d="M250.012 15.4572C250.012 19.5034 246.732 22.7835 242.686 22.7835C238.639 22.7835 235.359 19.5034 235.359 15.4572C235.359 11.411 238.639 8.13086 242.686 8.13086C246.732 8.13086 250.012 11.411 250.012 15.4572Z" fill="white"/>
<path d="M247.309 11.2047L246.906 11.607C247.866 12.6569 248.399 14.028 248.399 15.4506C248.399 16.8732 247.866 18.2442 246.906 19.2941L247.309 19.6964C248.376 18.5384 248.969 17.021 248.969 15.4459C248.969 13.8708 248.376 12.3534 247.309 11.1953V11.2047Z" fill="#21B9BA"/>
<path d="M238.845 11.2404C239.895 10.2804 241.266 9.74804 242.689 9.74804C244.111 9.74804 245.483 10.2804 246.532 11.2404L246.935 10.8381C245.777 9.77047 244.259 9.17773 242.684 9.17773C241.109 9.17773 239.592 9.77047 238.434 10.8381L238.845 11.2404Z" fill="#21B9BA"/>
<path d="M238.469 19.3002C237.51 18.2506 236.978 16.8803 236.978 15.4587C236.978 14.037 237.51 12.6668 238.469 11.6172L238.067 11.2148C236.999 12.3729 236.406 13.8903 236.406 15.4654C236.406 17.0405 236.999 18.5579 238.067 19.7159L238.469 19.3002Z" fill="#21B9BA"/>
<path d="M246.527 19.6719C245.477 20.6319 244.106 21.1643 242.683 21.1643C241.261 21.1643 239.89 20.6319 238.84 19.6719L238.438 20.0742C239.596 21.1418 241.113 21.7346 242.688 21.7346C244.263 21.7346 245.781 21.1418 246.939 20.0742L246.527 19.6719Z" fill="#21B9BA"/>
<path d="M245.223 14.1149C245.143 13.2754 244.419 12.9938 243.503 12.908V11.752H242.795V12.8865C242.608 12.8865 242.418 12.8865 242.229 12.8865V11.752H241.526V12.916H240.09V13.6737C240.09 13.6737 240.613 13.6643 240.605 13.6737C240.699 13.6633 240.794 13.69 240.869 13.748C240.944 13.8061 240.993 13.891 241.007 13.9849V17.1713C241.005 17.2044 240.996 17.2367 240.982 17.2664C240.967 17.2962 240.946 17.3226 240.921 17.3443C240.897 17.3663 240.868 17.3831 240.836 17.3937C240.805 17.4043 240.772 17.4085 240.739 17.4059C240.748 17.414 240.224 17.4059 240.224 17.4059L240.09 18.2522H241.513V19.435H242.221V18.2696H242.787V19.4296H243.496V18.2602C244.692 18.1878 245.527 17.8928 245.631 16.773C245.716 15.8717 245.292 15.4694 244.615 15.3072C245.026 15.1047 245.281 14.7291 245.223 14.1149ZM244.231 16.6335C244.231 17.5132 242.724 17.4126 242.244 17.4126V15.8516C242.724 15.853 244.231 15.7148 244.231 16.6335ZM243.903 14.4341C243.903 15.2388 242.645 15.1409 242.245 15.1409V13.722C242.645 13.722 243.903 13.5959 243.903 14.4341Z" fill="#014250"/>
<path d="M242.684 22.7835C241.235 22.7832 239.819 22.3534 238.615 21.5482C237.41 20.7431 236.471 19.5989 235.917 18.2602C235.362 16.9216 235.217 15.4486 235.5 14.0276C235.783 12.6065 236.481 11.3012 237.505 10.2767C238.53 9.25217 239.835 8.55443 241.256 8.2717C242.677 7.98897 244.15 8.13394 245.489 8.68829C246.827 9.24263 247.972 10.1815 248.777 11.3861C249.582 12.5907 250.012 14.0069 250.012 15.4558C250.012 16.4182 249.823 17.3711 249.455 18.2602C249.086 19.1493 248.547 19.9572 247.866 20.6377C247.186 21.3181 246.378 21.8579 245.489 22.2261C244.6 22.5943 243.647 22.7837 242.684 22.7835V22.7835ZM242.684 8.70216C241.349 8.70322 240.045 9.1 238.935 9.84233C237.826 10.5847 236.962 11.6392 236.451 12.8728C235.941 14.1063 235.808 15.4634 236.069 16.7725C236.33 18.0816 236.973 19.2841 237.917 20.2278C238.861 21.1715 240.064 21.8141 241.373 22.0745C242.682 22.3348 244.039 22.2012 245.273 21.6905C246.506 21.1798 247.56 20.3149 248.302 19.2052C249.044 18.0955 249.44 16.7907 249.441 15.4558C249.441 14.5686 249.267 13.69 248.927 12.8703C248.588 12.0506 248.09 11.3058 247.462 10.6785C246.835 10.0513 246.09 9.55389 245.27 9.21477C244.45 8.87565 243.572 8.70146 242.684 8.70216V8.70216Z" fill="#014250"/>
</g>
<path d="M255.475 13.6821H256.904L258.003 17.4625H258.025L259.157 13.6821H260.563L261.706 17.4625H261.728L262.849 13.6821H264.223L262.398 18.957H261.058L259.86 15.2646H259.838L258.651 18.957H257.31L255.475 13.6821ZM265.67 11.1765H268.703C268.996 11.1765 269.286 11.2131 269.571 11.2864C269.857 11.3523 270.11 11.4659 270.33 11.6271C270.557 11.7809 270.74 11.9824 270.879 12.2315C271.018 12.4806 271.088 12.7809 271.088 13.1326C271.088 13.5722 270.963 13.9348 270.714 14.2206C270.465 14.5063 270.139 14.7114 269.736 14.836V14.858C270.227 14.9239 270.63 15.1144 270.945 15.4294C271.26 15.7444 271.418 16.1657 271.418 16.6932C271.418 17.1181 271.333 17.4771 271.165 17.7702C270.996 18.0559 270.773 18.2867 270.495 18.4625C270.223 18.6383 269.908 18.7665 269.549 18.8471C269.198 18.9204 268.839 18.957 268.472 18.957H265.67V11.1765ZM267.055 14.3415H268.286C268.747 14.3415 269.099 14.2499 269.341 14.0667C269.582 13.8836 269.703 13.6235 269.703 13.2865C269.703 12.9348 269.579 12.6857 269.33 12.5392C269.081 12.3927 268.692 12.3194 268.165 12.3194H267.055V14.3415ZM267.055 17.7921H268.297C268.472 17.7921 268.663 17.7812 268.868 17.7592C269.073 17.7299 269.26 17.6749 269.429 17.5943C269.604 17.5137 269.747 17.3965 269.857 17.2427C269.974 17.0888 270.033 16.8837 270.033 16.6273C270.033 16.217 269.894 15.9313 269.615 15.7701C269.337 15.6089 268.916 15.5283 268.352 15.5283H267.055V17.7921ZM274.906 12.3853H272.522V11.1765H278.676V12.3853H276.291V18.957H274.906V12.3853ZM285.413 13.0007C285.208 12.7223 284.941 12.5209 284.611 12.3963C284.281 12.2644 283.959 12.1985 283.644 12.1985C283.241 12.1985 282.875 12.2718 282.545 12.4183C282.215 12.5648 281.93 12.7663 281.688 13.0227C281.453 13.2791 281.27 13.5795 281.138 13.9239C281.014 14.2682 280.952 14.6418 280.952 15.0448C280.952 15.4697 281.014 15.858 281.138 16.2097C281.263 16.5613 281.439 16.8654 281.666 17.1218C281.9 17.3709 282.179 17.565 282.501 17.7042C282.823 17.8434 283.186 17.913 283.589 17.913C284.007 17.913 284.377 17.8324 284.699 17.6713C285.021 17.5028 285.281 17.283 285.479 17.0119L286.589 17.7921C286.245 18.2244 285.824 18.5614 285.325 18.8032C284.827 19.0376 284.245 19.1548 283.578 19.1548C282.97 19.1548 282.409 19.0559 281.897 18.8581C281.391 18.653 280.955 18.3709 280.589 18.0119C280.223 17.6456 279.937 17.2134 279.732 16.7152C279.527 16.2097 279.424 15.6529 279.424 15.0448C279.424 14.422 279.53 13.8616 279.743 13.3634C279.962 12.8579 280.259 12.4293 280.633 12.0776C281.014 11.726 281.461 11.4549 281.974 11.2644C282.486 11.0739 283.043 10.9787 283.644 10.9787C283.893 10.9787 284.153 11.0043 284.424 11.0556C284.695 11.0996 284.955 11.1728 285.204 11.2754C285.454 11.3706 285.688 11.4915 285.908 11.638C286.128 11.7846 286.314 11.9604 286.468 12.1655L285.413 13.0007Z" fill="white"/>
<path d="M245.012 63.6662C245.012 67.7124 241.732 70.9925 237.686 70.9925C233.639 70.9925 230.359 67.7124 230.359 63.6662C230.359 59.6199 233.639 56.3398 237.686 56.3398C241.732 56.3398 245.012 59.6199 245.012 63.6662Z" fill="url(#paint4_linear_11734_120854)"/>
<path d="M244.502 63.6298C244.502 67.4143 241.434 70.4823 237.649 70.4823C233.865 70.4823 230.797 67.4143 230.797 63.6298C230.797 59.8453 233.865 56.7773 237.649 56.7773C241.434 56.7773 244.502 59.8453 244.502 63.6298Z" fill="url(#paint5_linear_11734_120854)"/>
<g style="mix-blend-mode:lighten" opacity="0.7">
<path d="M237.648 56.3809C239.09 56.3809 240.5 56.8084 241.698 57.6094C242.897 58.4104 243.832 59.549 244.383 60.881C244.935 62.2131 245.08 63.6788 244.798 65.0929C244.517 66.507 243.823 67.8059 242.803 68.8254L237.648 63.6707V56.3809Z" fill="url(#paint6_radial_11734_120854)"/>
</g>
<path d="M242.309 59.4137L241.906 59.816C242.866 60.8658 243.399 62.2369 243.399 63.6595C243.399 65.0821 242.866 66.4532 241.906 67.5031L242.309 67.9054C243.376 66.7473 243.969 65.2299 243.969 63.6548C243.969 62.0798 243.376 60.5623 242.309 59.4043V59.4137Z" fill="#E6EAEB"/>
<path d="M233.845 59.4494C234.895 58.4894 236.266 57.957 237.689 57.957C239.111 57.957 240.483 58.4894 241.532 59.4494L241.935 59.0471C240.777 57.9795 239.259 57.3867 237.684 57.3867C236.109 57.3867 234.592 57.9795 233.434 59.0471L233.845 59.4494Z" fill="#E6EAEB"/>
<path d="M233.469 67.5092C232.51 66.4596 231.978 65.0893 231.978 63.6677C231.978 62.246 232.51 60.8758 233.469 59.8262L233.067 59.4238C231.999 60.5819 231.406 62.0993 231.406 63.6744C231.406 65.2495 231.999 66.7669 233.067 67.9249L233.469 67.5092Z" fill="#E6EAEB"/>
<path d="M241.527 67.8809C240.477 68.8409 239.106 69.3732 237.683 69.3732C236.261 69.3732 234.89 68.8409 233.84 67.8809L233.438 68.2832C234.596 69.3508 236.113 69.9436 237.688 69.9436C239.263 69.9436 240.781 69.3508 241.939 68.2832L241.527 67.8809Z" fill="#E6EAEB"/>
<path d="M240.223 62.3239C240.143 61.4844 239.419 61.2028 238.503 61.1169V59.9609H237.795V61.0955C237.608 61.0955 237.418 61.0955 237.229 61.0955V59.9609H236.526V61.125H235.09V61.8827C235.09 61.8827 235.613 61.8733 235.605 61.8827C235.699 61.8723 235.794 61.899 235.869 61.957C235.944 62.015 235.993 62.1 236.007 62.1938V65.3802C236.005 65.4133 235.996 65.4457 235.982 65.4754C235.967 65.5051 235.946 65.5316 235.921 65.5532C235.897 65.5753 235.868 65.5921 235.836 65.6027C235.805 65.6133 235.772 65.6175 235.739 65.6149C235.748 65.623 235.224 65.6149 235.224 65.6149L235.09 66.4611H236.513V67.644H237.221V66.4786H237.787V67.6386H238.496V66.4692C239.692 66.3968 240.527 66.1017 240.631 64.9819C240.716 64.0807 240.292 63.6784 239.615 63.5161C240.026 63.3136 240.281 62.9381 240.223 62.3239ZM239.231 64.8425C239.231 65.7222 237.724 65.6216 237.244 65.6216V64.0606C237.724 64.062 239.231 63.9238 239.231 64.8425ZM238.903 62.6431C238.903 63.4477 237.645 63.3498 237.245 63.3498V61.931C237.645 61.931 238.903 61.8049 238.903 62.6431Z" fill="white"/>
<path d="M252.275 62.9461H251.275V61.8911H252.275V61.1108C252.275 60.7958 252.308 60.4954 252.374 60.2097C252.447 59.9166 252.564 59.6602 252.725 59.4404C252.894 59.2206 253.114 59.0485 253.385 58.9239C253.656 58.792 253.997 58.7261 254.407 58.7261C254.553 58.7261 254.674 58.7334 254.77 58.7481C254.872 58.7554 254.975 58.7737 255.077 58.803L254.989 59.924C254.916 59.902 254.835 59.8837 254.748 59.869C254.667 59.8544 254.579 59.847 254.484 59.847C254.293 59.847 254.139 59.8837 254.022 59.9569C253.905 60.0302 253.813 60.1254 253.748 60.2426C253.689 60.3599 253.649 60.4881 253.627 60.6273C253.605 60.7665 253.594 60.902 253.594 61.0339V61.8911H254.813V62.9461H253.594V67.166H252.275V62.9461ZM255.453 59.3855H256.97L258.475 65.1H258.497L260.212 59.3855H261.64L263.322 65.1H263.344L264.882 59.3855H266.355L264.08 67.166H262.739L260.915 61.3306H260.893L259.069 67.166H257.728L255.453 59.3855ZM267.826 59.3855H270.859C271.153 59.3855 271.442 59.4221 271.728 59.4954C272.013 59.5613 272.266 59.6749 272.486 59.836C272.713 59.9899 272.896 60.1914 273.035 60.4405C273.175 60.6896 273.244 60.9899 273.244 61.3416C273.244 61.7812 273.12 62.1438 272.871 62.4296C272.621 62.7153 272.295 62.9204 271.893 63.045V63.0669C272.383 63.1329 272.786 63.3234 273.101 63.6384C273.416 63.9534 273.574 64.3747 273.574 64.9022C273.574 65.3271 273.49 65.6861 273.321 65.9792C273.153 66.2649 272.929 66.4957 272.651 66.6715C272.38 66.8473 272.065 66.9755 271.706 67.0561C271.354 67.1294 270.995 67.166 270.629 67.166H267.826V59.3855ZM269.211 62.5504H270.442C270.903 62.5504 271.255 62.4589 271.497 62.2757C271.739 62.0925 271.86 61.8325 271.86 61.4954C271.86 61.1438 271.735 60.8947 271.486 60.7482C271.237 60.6016 270.849 60.5284 270.321 60.5284H269.211V62.5504ZM269.211 66.0011H270.453C270.629 66.0011 270.819 65.9901 271.024 65.9682C271.229 65.9389 271.416 65.8839 271.585 65.8033C271.761 65.7227 271.903 65.6055 272.013 65.4517C272.131 65.2978 272.189 65.0927 272.189 64.8362C272.189 64.426 272.05 64.1402 271.772 63.9791C271.493 63.8179 271.072 63.7373 270.508 63.7373H269.211V66.0011ZM277.063 60.5943H274.678V59.3855H280.832V60.5943H278.447V67.166H277.063V60.5943ZM287.57 61.2097C287.364 60.9313 287.097 60.7298 286.767 60.6053C286.438 60.4734 286.115 60.4075 285.8 60.4075C285.397 60.4075 285.031 60.4808 284.701 60.6273C284.372 60.7738 284.086 60.9753 283.844 61.2317C283.61 61.4881 283.426 61.7885 283.295 62.1328C283.17 62.4772 283.108 62.8508 283.108 63.2538C283.108 63.6787 283.17 64.067 283.295 64.4186C283.419 64.7703 283.595 65.0744 283.822 65.3308C284.057 65.5799 284.335 65.774 284.657 65.9132C284.98 66.0524 285.342 66.122 285.745 66.122C286.163 66.122 286.533 66.0414 286.855 65.8802C287.178 65.7117 287.438 65.492 287.635 65.2209L288.745 66.0011C288.401 66.4334 287.98 66.7704 287.482 67.0122C286.983 67.2466 286.401 67.3638 285.734 67.3638C285.126 67.3638 284.566 67.2649 284.053 67.0671C283.547 66.862 283.111 66.5799 282.745 66.2209C282.379 65.8546 282.093 65.4224 281.888 64.9242C281.683 64.4186 281.58 63.8618 281.58 63.2538C281.58 62.631 281.686 62.0706 281.899 61.5724C282.119 61.0669 282.415 60.6383 282.789 60.2866C283.17 59.9349 283.617 59.6639 284.13 59.4734C284.643 59.2829 285.199 59.1877 285.8 59.1877C286.049 59.1877 286.309 59.2133 286.58 59.2646C286.852 59.3085 287.112 59.3818 287.361 59.4844C287.61 59.5796 287.844 59.7005 288.064 59.847C288.284 59.9936 288.471 60.1694 288.624 60.3745L287.57 61.2097Z" fill="white"/>
<path d="M164.695 38.6364C164.695 54.5684 151.779 67.4838 135.847 67.4838C119.915 67.4838 107 54.5684 107 38.6364C107 22.7045 119.915 9.78906 135.847 9.78906C151.779 9.78906 164.695 22.7045 164.695 38.6364Z" fill="white"/>
<path fill-rule="evenodd" clip-rule="evenodd" d="M135.847 61.9852C148.743 61.9852 159.196 51.5316 159.196 38.6364C159.196 25.7413 148.743 15.2877 135.847 15.2877C122.952 15.2877 112.499 25.7413 112.499 38.6364C112.499 51.5316 122.952 61.9852 135.847 61.9852ZM135.847 67.4838C151.779 67.4838 164.695 54.5684 164.695 38.6364C164.695 22.7045 151.779 9.78906 135.847 9.78906C119.915 9.78906 107 22.7045 107 38.6364C107 54.5684 119.915 67.4838 135.847 67.4838Z" fill="url(#paint7_linear_11734_120854)"/>
<mask id="path-25-inside-1_11734_120854" fill="white">
<path fill-rule="evenodd" clip-rule="evenodd" d="M156.789 58.4759C161.689 53.3055 164.695 46.322 164.695 38.6364C164.695 22.7045 151.779 9.78906 135.847 9.78906C119.915 9.78906 107 22.7045 107 38.6364C107 46.3466 110.025 53.3503 114.953 58.5256C115.678 50.1945 122.692 43.6336 131.21 43.6336H140.536C149.035 43.6336 156.04 50.1684 156.789 58.4759ZM135.873 38.9708C130.089 38.9708 125.382 34.2638 125.382 28.4796C125.382 22.6954 130.089 17.9883 135.873 17.9883C141.657 17.9883 146.364 22.6954 146.364 28.4796C146.364 34.2638 141.657 38.9708 135.873 38.9708Z"/>
</mask>
<path fill-rule="evenodd" clip-rule="evenodd" d="M156.789 58.4759C161.689 53.3055 164.695 46.322 164.695 38.6364C164.695 22.7045 151.779 9.78906 135.847 9.78906C119.915 9.78906 107 22.7045 107 38.6364C107 46.3466 110.025 53.3503 114.953 58.5256C115.678 50.1945 122.692 43.6336 131.21 43.6336H140.536C149.035 43.6336 156.04 50.1684 156.789 58.4759ZM135.873 38.9708C130.089 38.9708 125.382 34.2638 125.382 28.4796C125.382 22.6954 130.089 17.9883 135.873 17.9883C141.657 17.9883 146.364 22.6954 146.364 28.4796C146.364 34.2638 141.657 38.9708 135.873 38.9708Z" fill="url(#paint8_linear_11734_120854)"/>
<path d="M156.789 58.4759L151.313 58.9699L152.407 71.0944L160.781 62.2582L156.789 58.4759ZM114.953 58.5256L110.97 62.3173L119.373 71.1422L120.43 59.0028L114.953 58.5256ZM159.196 38.6364C159.196 44.8595 156.769 50.5039 152.798 54.6936L160.781 62.2582C166.61 56.1072 170.193 47.7844 170.193 38.6364H159.196ZM135.847 15.2877C148.743 15.2877 159.196 25.7413 159.196 38.6364H170.193C170.193 19.6677 154.816 4.29046 135.847 4.29046V15.2877ZM112.499 38.6364C112.499 25.7413 122.952 15.2877 135.847 15.2877V4.29046C116.879 4.29046 101.501 19.6677 101.501 38.6364H112.499ZM118.935 54.7339C114.941 50.5401 112.499 44.8794 112.499 38.6364H101.501C101.501 47.8139 105.108 56.1606 110.97 62.3173L118.935 54.7339ZM131.21 38.135C119.813 38.135 110.445 46.9039 109.475 58.0485L120.43 59.0028C120.911 53.485 125.572 49.1322 131.21 49.1322V38.135ZM140.536 38.135H131.21V49.1322H140.536V38.135ZM162.266 57.9819C161.263 46.8688 151.909 38.135 140.536 38.135V49.1322C146.161 49.1322 150.817 53.468 151.313 58.9699L162.266 57.9819ZM119.883 28.4796C119.883 37.3006 127.052 44.4695 135.873 44.4695V33.4722C133.126 33.4722 130.881 31.227 130.881 28.4796H119.883ZM135.873 12.4897C127.052 12.4897 119.883 19.6586 119.883 28.4796H130.881C130.881 25.7322 133.126 23.4869 135.873 23.4869V12.4897ZM151.863 28.4796C151.863 19.6586 144.694 12.4897 135.873 12.4897V23.4869C138.621 23.4869 140.866 25.7322 140.866 28.4796H151.863ZM135.873 44.4695C144.694 44.4695 151.863 37.3006 151.863 28.4796H140.866C140.866 31.227 138.621 33.4722 135.873 33.4722V44.4695Z" fill="url(#paint9_linear_11734_120854)" mask="url(#path-25-inside-1_11734_120854)"/>
</g>
<defs>
<linearGradient id="paint0_linear_11734_120854" x1="179" y1="30" x2="343" y2="30" gradientUnits="userSpaceOnUse">
<stop stop-color="#33F9FF"/>
<stop offset="1" stop-color="#909CB4"/>
</linearGradient>
<linearGradient id="paint1_linear_11734_120854" x1="179" y1="49" x2="343" y2="49" gradientUnits="userSpaceOnUse">
<stop stop-color="#8BA4E5"/>
<stop offset="1" stop-color="#4D9FFF"/>
</linearGradient>
<linearGradient id="paint2_linear_11734_120854" x1="452.598" y1="70.3048" x2="451.485" y2="10.4344" gradientUnits="userSpaceOnUse">
<stop stop-color="#BFC9F5" stop-opacity="0.5"/>
<stop offset="0.0001" stop-color="#8EA1F5" stop-opacity="0.5"/>
<stop offset="1" stop-color="#26CBCF"/>
</linearGradient>
<linearGradient id="paint3_linear_11734_120854" x1="452.598" y1="70.3048" x2="451.485" y2="10.4344" gradientUnits="userSpaceOnUse">
<stop stop-color="#BFC9F5" stop-opacity="0.5"/>
<stop offset="0.0001" stop-color="#8EA1F5" stop-opacity="0.5"/>
<stop offset="1" stop-color="#26CBCF"/>
</linearGradient>
<linearGradient id="paint4_linear_11734_120854" x1="237.686" y1="56.3398" x2="237.686" y2="70.9925" gradientUnits="userSpaceOnUse">
<stop stop-color="#2BCAD0"/>
<stop offset="1" stop-color="#8BC1E5"/>
</linearGradient>
<linearGradient id="paint5_linear_11734_120854" x1="250.74" y1="63.6894" x2="227.545" y2="63.6894" gradientUnits="userSpaceOnUse">
<stop offset="0.239095" stop-color="#053542"/>
<stop offset="1" stop-color="#06657E"/>
</linearGradient>
<radialGradient id="paint6_radial_11734_120854" cx="0" cy="0" r="1" gradientUnits="userSpaceOnUse" gradientTransform="translate(237.648 63.6708) rotate(-45) scale(7.28987)">
<stop stop-color="#33F8FF"/>
<stop offset="1" stop-color="#065368"/>
</radialGradient>
<linearGradient id="paint7_linear_11734_120854" x1="135.847" y1="9.78906" x2="135.847" y2="67.4838" gradientUnits="userSpaceOnUse">
<stop stop-color="#2BCAD0"/>
<stop offset="1" stop-color="#8BA4E5"/>
</linearGradient>
<linearGradient id="paint8_linear_11734_120854" x1="135.847" y1="9.78906" x2="135.847" y2="58.5256" gradientUnits="userSpaceOnUse">
<stop stop-color="#2BCAD0"/>
<stop offset="1" stop-color="#8BA4E5"/>
</linearGradient>
<linearGradient id="paint9_linear_11734_120854" x1="135.847" y1="9.78906" x2="135.847" y2="58.5256" gradientUnits="userSpaceOnUse">
<stop stop-color="#2BCAD0"/>
<stop offset="1" stop-color="#8BA4E5"/>
</linearGradient>
<clipPath id="clip0_11734_120854">
<rect width="522" height="102" fill="white"/>
</clipPath>
<clipPath id="clip1_11734_120854">
<rect width="14.6526" height="14.6526" fill="white" transform="translate(235.359 8.13086)"/>
</clipPath>
</defs>
</svg>